<svg xmlns="http://www.w3.org/2000/svg" xmlns:xlink="http://www.w3.org/1999/xlink" version="1.1" width="472.47" height="215.219" viewBox="0 0 472.47 215.219">
<defs>
<path id="font_0_6" d="M.13198853 .327713V.35173036C.13198853 .6047821 .2559967 .64100649 .30699159 .64100649 .33099366 .64100649 .37298585 .634964 .394989 .6007538 .37998963 .6007538 .33999635 .6007538 .33999635 .5557556 .33999635 .524765 .3639984 .5097656 .38598634 .5097656 .4019928 .5097656 .43199159 .51875308 .43199159 .5577545 .43199159 .6178589 .3880005 .6660156 .30499269 .6660156 .1769867 .6660156 .041992189 .5367584 .041992189 .31570436 .041992189 .048553468 .1579895-.022460938 .25099183-.022460938 .3619995-.022460938 .45700074 .07156372 .45700074 .2036438 .45700074 .33070375 .36799623 .4267578 .25698854 .4267578 .18899536 .4267578 .1519928 .37573243 .13198853 .327713M.25099183 .0055389406C.18798828 .0055389406 .1579895 .06556702 .1519928 .080566409 .13398743 .127594 .13398743 .2076416 .13398743 .22564698 .13398743 .30369569 .1659851 .40374757 .2559967 .40374757 .27198792 .40374757 .31799317 .40374757 .34899903 .34172059 .36698915 .30470277 .36698915 .2536621 .36698915 .20463562 .36698915 .15661621 .36698915 .10658264 .34999085 .0705719 .31999208 .010528564 .27398683 .0055389406 .25099183 .0055389406Z"/>
<path id="font_0_2" d="M.2939911 .64004519C.2939911 .66400149 .2939911 .6660156 .2709961 .6660156 .20899964 .60227969 .12098694 .60227969 .08898926 .60227969V.57128909C.10899353 .57128909 .16799927 .57128909 .21998596 .5972748V.07902527C.21998596 .042999269 .21699524 .0309906 .1269989 .0309906H.09498596V0C.12998963 .0029907227 .21699524 .0029907227 .25698854 .0029907227 .29699708 .0029907227 .38398744 .0029907227 .4189911 0V.0309906H.3869934C.29699708 .0309906 .2939911 .041992189 .2939911 .07902527V.64004519Z"/>
<path id="font_0_3" d="M.1269989 .07699585 .23298645 .18003845C.3889923 .31811524 .44898988 .3721466 .44898988 .47216798 .44898988 .5860901 .35899354 .6660156 .23699951 .6660156 .12399292 .6660156 .049987794 .57411196 .049987794 .48516847 .049987794 .4291687 .099990848 .4291687 .102996829 .4291687 .11999512 .4291687 .15499878 .44117738 .15499878 .48217774 .15499878 .5081787 .13699341 .5341797 .101989749 .5341797 .09399414 .5341797 .09199524 .5341797 .08898926 .5331726 .11199951 .59806826 .1659851 .63500979 .22399903 .63500979 .31498719 .63500979 .35798646 .5541382 .35798646 .47216798 .35798646 .39215089 .30799867 .31311036 .25299073 .25108338L.06098938 .036987306C.049987794 .025985718 .049987794 .023986817 .049987794 0H.42099L.44898988 .17404175H.42399598C.4189911 .14402771 .4119873 .1000061 .4019928 .084991458 .394989 .07699585 .32899476 .07699585 .30699159 .07699585H.1269989Z"/>
<path id="font_0_7" d="M.16299439 .4569702C.116989139 .486969 .11299133 .52098086 .11299133 .5379791 .11299133 .598999 .17799378 .64100649 .24899292 .64100649 .32199098 .64100649 .38598634 .58898928 .38598634 .51698306 .38598634 .45996095 .34700013 .4119568 .2869873 .37695313L.16299439 .4569702M.30899049 .36193849C.3809967 .3989563 .42999269 .45095826 .42999269 .51698306 .42999269 .6090088 .34098817 .6660156 .25 .6660156 .1499939 .6660156 .068984989 .59199526 .068984989 .49897767 .068984989 .4809723 .070999149 .43595887 .11299133 .38894654 .12399292 .37695313 .16099549 .35194398 .18598938 .33494569 .12799073 .30592347 .041992189 .24984741 .041992189 .15072632 .041992189 .04458618 .14399719-.022460938 .24899292-.022460938 .3619995-.022460938 .45700074 .06060791 .45700074 .16773987 .45700074 .20379639 .44599916 .24885559 .4079895 .2909088 .3889923 .31193543 .37298585 .3219452 .30899049 .36193849M.20899964 .3199463 .33198548 .24183655C.3600006 .2228241 .40699769 .19277954 .40699769 .13169861 .40699769 .05760193 .33198548 .0055389406 .25 .0055389406 .1639862 .0055389406 .09199524 .067611698 .09199524 .15072632 .09199524 .20880127 .12399292 .27288819 .20899964 .3199463Z"/>
<path id="font_0_5" d="M.2939911 .16503906V.07800293C.2939911 .041992189 .2919922 .0309906 .21798706 .0309906H.19699097V0C.23799134 .0029907227 .2899933 .0029907227 .33198548 .0029907227 .37399293 .0029907227 .4269867 .0029907227 .46798707 0V.0309906H.44699098C.37298585 .0309906 .37098695 .041992189 .37098695 .07800293V.16503906H.47099305V.19602967H.37098695V.65075686C.37098695 .67074587 .37098695 .6767578 .35499574 .6767578 .34599305 .6767578 .34298707 .6767578 .33499146 .66474917L.027999878 .19602967V.16503906H.2939911M.2999878 .19602967H.055999757L.2999878 .5688019V.19602967Z"/>
<path id="font_0_4" d="M.2899933 .35191346C.37199403 .37893678 .42999269 .4490509 .42999269 .52809146 .42999269 .6100464 .34199525 .6660156 .24598694 .6660156 .14498902 .6660156 .068984989 .60606387 .068984989 .53009036 .068984989 .49710084 .09098816 .47808839 .11999512 .47808839 .15098572 .47808839 .17098999 .50009158 .17098999 .5290985 .17098999 .57910159 .12399292 .57910159 .10899353 .57910159 .13999939 .62802127 .20599365 .64100649 .24198914 .64100649 .2829895 .64100649 .33799745 .6190338 .33799745 .5290985 .33799745 .51708987 .33599855 .45906068 .30999757 .4149933 .27999879 .36691285 .24598694 .36390687 .22099304 .36291505 .21299744 .36190797 .18899536 .35990907 .18199158 .35990907 .17399597 .35890199 .16699219 .35791017 .16699219 .3479004 .16699219 .33691407 .17399597 .33691407 .19099427 .33691407H.23498535C.31698609 .33691407 .35398866 .2686615 .35398866 .17037964 .35398866 .034469606 .2849884 .0055389406 .24099732 .0055389406 .19799805 .0055389406 .12298584 .022491456 .08799744 .08137512 .12298584 .07637024 .1539917 .09837341 .1539917 .1363678 .1539917 .17237854 .1269989 .19238281 .09799194 .19238281 .07398987 .19238281 .041992189 .17837525 .041992189 .1343689 .041992189 .043441774 .1349945-.022460938 .24398804-.022460938 .3659973-.022460938 .45700074 .06838989 .45700074 .17037964 .45700074 .252594 .3939972 .33088685 .2899933 .35191346Z"/>
<path id="font_0_1" d="M.45999146 .31976319C.45999146 .39982606 .45498658 .47988893 .41999818 .5539398 .37399293 .65000918 .2919922 .6660156 .25 .6660156 .18998719 .6660156 .116989139 .64001467 .07598877 .54693606 .04399109 .47789 .038986207 .39982606 .038986207 .31976319 .038986207 .24472046 .042999269 .15464783 .083999637 .07859802 .1269989-.0024719239 .19999695-.022460938 .24899292-.022460938 .30299378-.022460938 .3789978-.0014648438 .4229889 .09359741 .45498658 .16265869 .45999146 .2407074 .45999146 .31976319M.24899292-.00047302247C.20999146-.00047302247 .15098572 .024551392 .1329956 .12062073 .12199402 .18066406 .12199402 .2727356 .12199402 .3317871 .12199402 .39582826 .12199402 .46188355 .12998963 .5159149 .14898682 .63500979 .22399903 .64401248 .24899292 .64401248 .28199769 .64401248 .34799195 .6259918 .36698915 .52693179 .3769989 .47088624 .3769989 .39482118 .3769989 .3317871 .3769989 .25672914 .3769989 .18867493 .3659973 .12461853 .35099793 .029556275 .2939911-.00047302247 .24899292-.00047302247Z"/>
<clipPath id="clip_1">
<path transform="matrix(1,0,0,-1,32.209,183.508)" d="M0 0H194.27155V161.388H0Z"/>
</clipPath>
<path id="font_2_4" d="M.032989503 .68359377V.6525879C.04699707 .6525879 .06298828 .6535797 .07899475 .6535797 .10899353 .6535797 .13598633 .650589 .13598633 .63560488V.106918338C.13598633 .036972047 .07798767 .031967164 .032989503 .031967164V.0009765625H.2669983V.031967164C.22399903 .031967164 .16299439 .037963869 .16299439 .10491943 .16299439 .11392212 .1639862 .123916629 .1639862 .13191223V.62561038C.17999268 .60762026 .19299317 .5856323 .20599365 .5656433 .32899476 .38674928 .44898988 .20585633 .57199099 .02696228 .57899478 .016967774 .58599856 .0009765625 .59999087 .0009765625 .6100006 .0009765625 .61299136 .007965088 .61299136 .016967774V.58062747C.61299136 .64759829 .6729889 .6525879 .71598818 .6525879V.68359377H.48199464V.6525879C.5249939 .6525879 .58499148 .64759829 .58499148 .5816345V.15289307L.22299195 .6815796 .20498657 .68359377H.032989503Z"/>
<path id="font_2_28" d="M.03199768 .430542V.39953614H.04598999C.07398987 .39953614 .102996829 .3975525 .10899353 .3675995 .10998535 .35661317 .10998535 .3466339 .10998535 .33566285V.13702393C.10998535 .1040802 .11099243 .073135379 .1289978 .044189454 .1559906 .0012512207 .21299744-.0107421879 .2599945-.0107421879 .30499269-.0107421879 .34599305 .009246826 .37098695 .046188356 .37799073 .056167604 .3849945 .06614685 .3880005 .078125L.3889923-.009750366 .5339966 .0012512207V.032211305H.5189972C.48599244 .032211305 .45599366 .035217287 .45599366 .0801239V.4423828L.30799867 .43136598V.39953614H.32299806C.35598756 .39953614 .38598634 .3965454 .38598634 .3496399V.16896057C.38598634 .09509277 .34799195 .013244629 .2649994 .013244629 .20899964 .013244629 .17999268 .02722168 .17999268 .13302613V.4423828L.03199768 .430542Z"/>
<path id="font_2_21" d="M.03199768 .43138124V.4003601H.04699707C.07998657 .4003601 .10998535 .39735414 .10998535 .35029603V.074020389C.10998535 .032974245 .08198547 .031967164 .037994386 .031967164H.03199768V.0009765625H.2579956V.031967164H.23199463C.20399475 .031967164 .17999268 .035980226 .17999268 .073013309V.25621034C.17999268 .32928468 .21998596 .42037965 .31599427 .42037965 .37998963 .42037965 .3869934 .35430909 .3869934 .30825807V.070007327C.3869934 .033966066 .35699464 .031967164 .32398988 .031967164H.30899049V.0009765625H.5349884V.031967164H.5089874C.48098756 .031967164 .45700074 .035980226 .45700074 .073013309V.25621034C.45700074 .32928468 .49699403 .42037965 .59298709 .42037965 .6569977 .42037965 .6639862 .35430909 .6639862 .30825807V.070007327C.6639862 .033966066 .6339874 .031967164 .6009979 .031967164H.58599856V.0009765625H.81199648V.031967164H.79100039C.7609863 .031967164 .73399356 .034973146 .73399356 .070007327V.2962494C.73399356 .33328248 .7319946 .36631776 .70799258 .4003601 .6819916 .43338014 .6389923 .4423828 .598999 .4423828 .5339966 .4423828 .48098756 .4043579 .45399476 .34629823 .43499757 .41737367 .3899994 .4423828 .32099916 .4423828 .25698854 .4423828 .19599915 .402359 .1749878 .34028626L.17399597 .4423828 .03199768 .43138124Z"/>
<path id="font_2_11" d="M.026992798 .6843109V.6533203H.04399109C.07499695 .6533203 .10499573 .65031436 .10499573 .6033325V.0012207031L.1289978 .0032196046 .14199829 .020233155 .1659851 .0622406H.16799927C.19198609 .014221191 .25099183-.009765625 .30099488-.009765625 .4249878-.009765625 .5209961 .09825134 .5209961 .21730042 .5209961 .33233644 .43299867 .4423828 .30499269 .4423828 .25299073 .4423828 .20698548 .41737367 .17199707 .37835694V.6953125L.026992798 .6843109M.43598939 .19229126C.43199159 .14427185 .4269867 .102264408 .39698792 .06524658 .37199403 .033233644 .33399964 .01222229 .2939911 .01222229 .25099183 .01222229 .21199036 .037231447 .18899536 .07324219 .18099976 .08425903 .1749878 .09326172 .1749878 .10826111V.27531434C.1749878 .28833009 .17399597 .30133058 .17399597 .31433106 .17399597 .37435914 .24699402 .42037965 .30299378 .42037965 .41099549 .42037965 .43699647 .29432679 .43699647 .21530152 .43699647 .20729065 .43699647 .20028687 .43598939 .19229126Z"/>
<path id="font_2_14" d="M.11199951 .23242188H.3999939C.41099549 .23242188 .41600038 .2394104 .41600038 .250412 .41600038 .35630799 .35099793 .4482422 .23899842 .4482422 .115997318 .4482422 .027999878 .33932496 .027999878 .22039795 .027999878 .12832642 .07899475 .04624939 .16699219 .006225586 .18998719-.003768921 .21699524-.009765625 .24198914-.009765625H.24499512C.32199098-.009765625 .38598634 .0332489 .41299439 .110305789 .4139862 .11331177 .4139862 .11730957 .4139862 .12031555 .4139862 .12731934 .4099884 .13232422 .40299989 .13232422 .3880005 .13232422 .38198854 .0993042 .37599183 .08828735 .35099793 .04425049 .30299378 .0152282719 .25099183 .0152282719 .21398926 .0152282719 .18199158 .036239625 .15499878 .06326294 .114990238 .109313968 .11199951 .17436219 .11199951 .23242188M.11299133 .25341798C.11299133 .33033753 .1539917 .426239 .23599243 .426239H.24099732C.33898927 .41723634 .33799745 .3133545 .34799195 .25341798H.11299133Z"/>
<path id="font_2_25" d="M.026992798 .43138124V.4003601H.041992189C.07499695 .4003601 .10499573 .39735414 .10499573 .35029603V.074020389C.10499573 .032974245 .07699585 .031967164 .032989503 .031967164H.026992798V.0009765625H.2689972V.031967164C.25698854 .031967164 .24299622 .030975342 .23098755 .030975342 .19898987 .030975342 .17199707 .035980226 .17199707 .073013309V.20614624C.17199707 .2912445 .19198609 .42037965 .2899933 .42037965 .2939911 .42037965 .29699708 .42037965 .30099488 .41937257V.41836549C.28599549 .41236878 .27799989 .39634706 .27799989 .38032533 .27799989 .35731507 .29299928 .34129334 .31599427 .33728028 .34498597 .33728028 .3639984 .3553009 .3639984 .38032533 .3639984 .42037965 .32598878 .4423828 .2899933 .4423828 .23098755 .4423828 .17799378 .38934327 .16799927 .33528138L.16699219 .4423828 .026992798 .43138124Z"/>
<path id="font_2_23" d="M.23498535 .4482422C.10899353 .43522645 .027999878 .3292389 .027999878 .21322632 .027999878 .100234989 .116989139-.009765625 .25-.009765625 .36999513-.009765625 .47099305 .08822632 .47099305 .2142334 .47099305 .33320619 .3809967 .44921876 .24798584 .44921876 .24398804 .449234 .23899842 .4482422 .23498535 .4482422M.11199951 .19023133V.23423767C.11199951 .31021119 .13598633 .4262085 .24899292 .4262085 .32998658 .4262085 .37599183 .35821534 .3849945 .2822113 .3869934 .2602234 .3869934 .23921204 .3869934 .21722412 .3869934 .15222168 .37998963 .07122803 .31599427 .034225465 .29599 .021224976 .27398683 .0152282719 .25099183 .0152282719 .17799378 .0152282719 .1269989 .07221985 .115997318 .15022278 .11399841 .16322327 .11399841 .17721558 .11199951 .19021607V.19023133Z"/>
<path id="font_2_15" d="M.11099243 .43066407H.032989503V.3996582H.11099243V.06893921C.11099243 .034973146 .08198547 .031967164 .051986696 .031967164H.033996583V.0009765625H.2749939V.031967164H.24299622C.22099304 .031967164 .19799805 .032974245 .18598938 .04396057 .17799378 .052947999 .17799378 .06593323 .17799378 .077926639V.3996582H.2919922V.43066407H.1749878V.56185916C.1749878 .61694338 .21299744 .6840515 .2669983 .6840515 .2769928 .6840515 .29100038 .68203738 .29899598 .6760254 .27999879 .6710205 .2689972 .6529999 .2689972 .63397219 .2689972 .6079254 .2889862 .5908966 .31298829 .5908966 .33898927 .5908966 .35798646 .6109314 .35798646 .6329651 .35798646 .68104556 .30799867 .7060547 .2669983 .7060547 .17599488 .7060547 .11099243 .634964 .11099243 .53782656V.43066407Z"/>
<path id="font_2_2" d="M.59399417 .06349182C.6069946 .038497926 .6439972 .00050354006 .6569977 .00050354006 .6629944 .00050354006 .66600039 .006515503 .66600039 .014511108V.1844635C.66600039 .1904602 .6649933 .19746399 .6649933 .20446778 .6649933 .23945618 .69099429 .24145508 .7350006 .24145508V.27246095H.45199586V.24145508C.46499635 .24145508 .48098756 .2424469 .49699403 .2424469 .54499819 .2424469 .57699587 .23945618 .57699587 .19445801V.16847229C.57699587 .15647888 .5779877 .1454773 .5779877 .13348389 .5779877 .04849243 .5 .009506226 .42099 .009506226 .32899476 .009506226 .24198914 .0644989 .19898987 .1454773 .1659851 .2074585 .1579895 .27746583 .1579895 .34655763 .1579895 .44470216 .17799378 .5478668 .25898744 .6159668 .3019867 .65200808 .35899354 .6750488 .4149933 .6750488 .5249939 .6750488 .59999087 .5839081 .6269989 .4747467 .6329956 .45472718 .6269989 .41867066 .651001 .41867066 .6619873 .41867066 .66600039 .42567445 .66600039 .43569947V.6900482C.66600039 .697052 .6649933 .7060547 .6539917 .7060547 .6389923 .7060547 .59199526 .62698367 .58898928 .6199646 .57299807 .63298037 .55999758 .64801028 .5439911 .661026 .5009918 .6920471 .45199586 .7060547 .39898683 .7060547 .20399475 .7060547 .054992677 .5288391 .054992677 .34155274V.3265381C.06199646 .14247132 .21199036-.021484375 .4059906-.021484375 .47898866-.021484375 .5469971-.00048828127 .59399417 .06349182Z"/>
<path id="font_2_5" d="M.033996583 .68359377V.6525879C.04699707 .6525879 .05999756 .6535797 .07199097 .6535797 .10798645 .6535797 .13699341 .6485901 .13699341 .60861209V.07493591C.13699341 .036972047 .10398865 .030975342 .069992069 .030975342 .056991579 .030975342 .04499817 .031967164 .033996583 .031967164V.0009765625H.32899476V.031967164H.29499818C.25299073 .031967164 .22599793 .033966066 .22599793 .07594299V.31677247H.4099884C.5049896 .323761 .6239929 .38174439 .6239929 .49667359 .6239929 .60261538 .5189972 .67259219 .41799928 .68258669 .40299989 .68356326 .3889923 .6845703 .37399293 .6845703 .35398866 .6845856 .33399964 .68359377 .31498719 .68359377H.033996583M.22299195 .34277345V.62060549C.22299195 .647583 .23999024 .650589 .25898744 .6525879H.33399964C.3899994 .6525879 .45498658 .650589 .49398805 .6036072 .5179901 .57463076 .5209961 .5346527 .5209961 .4986725 .5209961 .46269227 .5179901 .42471314 .49598695 .3947296 .46199037 .35176087 .4039917 .34277345 .35299684 .34277345H.22299195Z"/>
<path id="font_2_8" d="M.032989503 .68359377V.6525879H.067993167C.11099243 .6525879 .13598633 .6485901 .13598633 .60757449V.24153137C.13598633 .103515628 .22898865-.021484375 .394989-.021484375 .5079956-.021484375 .59399417 .08052063 .6100006 .18652344 .61299136 .20652771 .61299136 .22753906 .61299136 .24754334V.57858279C.61299136 .647583 .6729889 .6525879 .71598818 .6525879V.68359377H.47898866V.6525879C.522995 .6525879 .58200076 .647583 .58200076 .57658389V.23753357C.58200076 .13752747 .5269928 .009506226 .3869934 .009506226 .31498719 .009506226 .25698854 .06350708 .23699951 .13052368 .22599793 .16752625 .22499085 .20553589 .22499085 .24353028V.58457949C.22499085 .59158328 .22399903 .60058596 .22399903 .60858157 .22399903 .6485901 .25898744 .6525879 .29499818 .6525879H.32798768V.68359377H.032989503Z"/>
<path id="font_2_26" d="M.17599488 .4482422C.13899231 .44422914 .099990848 .4372406 .070999149 .41223146 .04699707 .39123536 .032989503 .35723878 .032989503 .32522584 .032989503 .15423584 .31098939 .25123597 .31098939 .10122681 .31098939 .040222169 .2559967 .01222229 .20098877 .01222229 .125 .01222229 .07398987 .066223148 .05999756 .15222168 .057998659 .16122437 .056991579 .17022705 .04499817 .17022705 .036987306 .17022705 .032989503 .16423035 .032989503 .15722656V-.00077819827C.033996583-.0057678224 .036987306-.008773804 .041992189-.009765625H.04399109C.05999756-.009765625 .07598877 .02722168 .08799744 .030227662H.08898926C.09700012 .030227662 .12399292 .0052337648 .14498902-.0017700195 .1619873-.0077667238 .17999268-.009765625 .19799805-.009765625 .2809906-.009765625 .3600006 .034225465 .3600006 .12623596 .3600006 .19223023 .31199647 .24623108 .24598694 .26322938 .18399048 .28022767 .08198547 .28022767 .08198547 .3532257 .08198547 .4142151 .14898682 .42921449 .19299317 .42921449 .24198914 .42921449 .30999757 .40220643 .30999757 .3162079 .30999757 .30722047 .31098939 .2992096 .32199098 .2992096 .33198548 .2992096 .33599855 .30722047 .33599855 .31721498 .33599855 .32221986 .33499146 .32720948 .33499146 .33120729V.4342041C.33499146 .44023133 .33198548 .4482422 .32398988 .4482422 .30799867 .4482422 .2979889 .42323304 .2869873 .42323304H.28599549C.27799989 .42323304 .2619934 .43623353 .25 .44023133 .23199463 .44621278 .21199036 .44921876 .19299317 .44921876 .18699646 .449234 .18199158 .4482422 .17599488 .4482422Z"/>
<path id="font_2_7" d="M.115997318 .048538209C.1789856-.00048828127 .22799683-.021484375 .30499269-.021484375 .42399598-.021484375 .49899293 .08557129 .49899293 .18765259 .49899293 .27072145 .45199586 .34777833 .37199403 .3808136 .31098939 .40582276 .23498535 .40382386 .18199158 .43585206 .14199829 .46087647 .11898804 .50390627 .11898804 .5479431 .11898804 .6269989 .18598938 .67803958 .25698854 .67803958 .35598756 .67803958 .4249878 .59898379 .44099427 .49890138 .44400025 .48388673 .44099427 .4568634 .45899964 .4568634 .46998597 .4568634 .47099305 .46588136 .47099305 .47488404V.6920471C.47099305 .6990509 .46899415 .7060547 .46099855 .7060547 .44599916 .7060547 .43499757 .67803958 .4269867 .66503909 .42099 .6560364 .4139862 .6460266 .4099884 .63601687 .36898805 .6770477 .32199098 .7060547 .25498963 .7060547 .15699768 .7060547 .054992677 .63801577 .054992677 .51091006 .054992677 .40682984 .1309967 .33877564 .22898865 .31774903 .25 .3127594 .269989 .30674745 .29100038 .30174256 .34700013 .2887268 .40299989 .27471925 .4269867 .20266724 .43199159 .18765259 .43499757 .17164612 .43499757 .15663147 .43499757 .08157349 .38398744 .009506226 .2999878 .009506226 .19999695 .009506226 .102996829 .06254578 .08299255 .17764282 .08198547 .18664551 .08099365 .19665528 .07998657 .20567322V.212677C.07998657 .22268677 .07499695 .22767639 .066986087 .22767639 .056991579 .22767639 .054992677 .21968079 .054992677 .212677V-.0074920656C.054992677-.01449585 .056991579-.021484375 .06498718-.021484375 .07998657-.021484375 .09098816 .006515503 .09899902 .019515992 .10499573 .028518677 .11199951 .038528444 .115997318 .048538209Z"/>
<path id="font_2_24" d="M.026992798 .43138124V.4003601H.04598999C.07598877 .4003601 .10499573 .39736939 .10499573 .35734559V-.12220764C.10499573-.15835572 .07899475-.16236878 .049987794-.16236878H.026992798V-.19335938H.25299073V-.16236878H.22898865C.19898987-.16236878 .1749878-.15835572 .1749878-.12220764L.17599488 .051239015C.19898987 .010223389 .25498963-.009765625 .2979889-.009765625 .42199708-.009765625 .5209961 .09625244 .5209961 .21730042 .5209961 .3373413 .42799378 .4423828 .31098939 .4423828 .2559967 .4423828 .20799256 .41838075 .17199707 .3773651V.4423828L.026992798 .43138124M.43598939 .19929505C.43099977 .12626648 .3919983 .021224976 .30099488 .01222229H.29499818C.2519989 .01222229 .21299744 .036239625 .18899536 .072250369 .18099976 .08325195 .1749878 .09326172 .1749878 .10725403V.27531434C.1749878 .28833009 .17399597 .30133058 .17399597 .31433106 .17399597 .36735536 .24198914 .41737367 .30099488 .41737367 .4019928 .41737367 .43699647 .28633119 .43699647 .21530152 .43699647 .21029663 .43699647 .20429993 .43598939 .19929505Z"/>
<path id="font_2_13" d="M.3039856 .6843109V.6533203H.31999208C.35499574 .6533203 .38198854 .6493225 .38198854 .5913391L.3809967 .38136292C.35699464 .42137147 .2999878 .4423828 .2539978 .4423828 .1309967 .4423828 .032989503 .3363495 .032989503 .21530152 .032989503 .10826111 .114990238-.009765625 .24699402-.009765625 .29899598-.009765625 .34599305 .0152282719 .3789978 .055236818V-.009765625L.5269928 .0012207031V.032226564H.5099945C.47898866 .032226564 .44898988 .035232545 .44898988 .08224487V.6953125L.3039856 .6843109M.116989139 .19128418V.20629883C.116989139 .2803192 .12599182 .35534669 .19499207 .4013672 .21499634 .41337586 .23799134 .42037965 .26098634 .42037965 .30999757 .42037965 .37998963 .38035584 .37998963 .31733705 .37998963 .30433656 .3789978 .2913208 .3789978 .2783203V.11225891C.3789978 .09925842 .37399293 .09025574 .36698915 .08024597 .34098817 .041244508 .2979889 .01222229 .25099183 .01222229 .17799378 .01222229 .13198853 .07925415 .12098694 .14826966 .11898804 .16227722 .11898804 .17729187 .116989139 .19128418Z"/>
<path id="font_2_27" d="M.14898682 .6152344C.14898682 .54644778 .11999512 .421875 .017990113 .421875V.39987184H.10398865V.1421051C.10398865 .10914612 .10598755 .076171878 .12199402 .047195436 .14399719 .007232666 .19099427-.009765625 .23498535-.009765625 .31698609-.009765625 .33299256 .08216858 .33299256 .14511109V.18206787H.30799867C.30799867 .16708374 .30899049 .15209961 .30899049 .1361084 .30899049 .09214783 .29899598 .0152282719 .23999024 .0152282719 .18299866 .0152282719 .17399597 .08416748 .17399597 .12911988V.39987184H.31599427V.43066407H.17399597V.6152344H.14898682Z"/>
<path id="font_2_22" d="M.03199768 .43138124V.4003601H.04699707C.07998657 .4003601 .10998535 .39735414 .10998535 .35029603V.074020389C.10998535 .032974245 .08198547 .031967164 .037994386 .031967164H.03199768V.0009765625H.2579956V.031967164H.23199463C.20399475 .031967164 .17999268 .035980226 .17999268 .073013309V.25621034C.17999268 .3282776 .21699524 .42037965 .31599427 .42037965 .37998963 .42037965 .38598634 .3513031 .38598634 .30825807V.069000247C.38598634 .034973146 .35699464 .031967164 .32598878 .031967164H.30799867V.0009765625H.5339966V.031967164H.5089874C.48199464 .031967164 .45599366 .035980226 .45599366 .070007327V.28923036C.45599366 .32226563 .45498658 .35630799 .43899537 .38633729 .41600038 .43037416 .36499024 .4423828 .31900025 .4423828 .2579956 .4423828 .19499207 .4003601 .1749878 .34028626L.17399597 .4423828 .03199768 .43138124Z"/>
<path id="font_2_17" d="M.11898804 .02281189V.02180481C.07199097 .012802124 .027999878-.032165529 .027999878-.07914734 .027999878-.1730957 .17199707-.20507813 .24899292-.20507813 .33299256-.20507813 .47099305-.1750946 .47099305-.072143558 .47099305-.0071868898 .4249878 .03781128 .36499024 .05480957 .32899476 .06581116 .2919922 .06680298 .2539978 .06680298H.16299439C.1309967 .06982422 .10598755 .10205078 .10598755 .13427735V.13931275C.10699463 .15238953 .11399841 .17837525 .12399292 .17837525 .13699341 .17538452 .15098572 .16438294 .1659851 .15937805 .18399048 .15338135 .20399475 .15039063 .22299195 .15039063 .30499269 .15039063 .3849945 .21134949 .3849945 .29626466 .3849945 .3302307 .37098695 .37019349 .34399415 .3921814V.39317323C.37098695 .41316224 .39698792 .43113709 .43299867 .43113709 .43598939 .43113709 .43899537 .43113709 .44198609 .43014527 .43299867 .42414857 .4269867 .41714479 .4269867 .40415956 .4269867 .3881836 .43998719 .37419129 .45599366 .37419129 .47299195 .37419129 .4850006 .3881836 .4850006 .40415956 .4850006 .43113709 .46299745 .453125 .43499757 .453125 .3999939 .453125 .3659973 .4391327 .33999635 .41714479 .33699037 .41415406 .33299256 .41015626 .32899476 .40916444H.32798768C.32199098 .40916444 .31399537 .41714479 .30899049 .42015077 .2829895 .43437196 .25299073 .4423828 .22299195 .4423828 .14399719 .4423828 .05899048 .38737489 .05899048 .29638673 .05899048 .26338197 .07199097 .23338318 .09199524 .2073822 .09599304 .2033844 .102996829 .19837952 .102996829 .1933899 .102996829 .18838501 .09700012 .18338013 .09498596 .17938233 .08198547 .15937805 .07499695 .13427735 .07499695 .11010742 .07499695 .07888794 .08898926 .03781128 .11898804 .02281189M.08099365-.08413696V-.07614136C.08099365-.0231781 .1269989 .0078125 .18099976 .0078125H.25898744C.32199098 .0078125 .41799928-.0011901856 .41799928-.07814026 .41799928-.15110779 .31098939-.18208313 .24899292-.18208313 .18299866-.18208313 .09098816-.15209961 .08099365-.08413696M.1349945 .27638246V.28938294C.1349945 .3443756 .147995 .41838075 .22200012 .41838075 .28399659 .41838075 .30899049 .36038209 .30899049 .29638673 .30899049 .25538636 .30099488 .17437744 .22299195 .17437744 .19699097 .17437744 .17199707 .18638611 .15499878 .20838928 .13999939 .2283783 .13798523 .25238038 .1349945 .27638246Z"/>
<path id="font_2_12" d="M.35899354 .38723756C.33299256 .38523866 .31199647 .36923219 .31199647 .3412323 .31199647 .3142395 .33099366 .29522706 .35798646 .29522706 .3880005 .29522706 .4039917 .31723023 .4039917 .3452301V.3512268C.3939972 .4242401 .30899049 .4482422 .25099183 .4482422 .1289978 .4482422 .032989503 .3412323 .032989503 .21723938 .032989503 .10423279 .12098694-.009765625 .25-.009765625 .31599427-.009765625 .3809967 .026229859 .4079895 .096221927 .4099884 .10223389 .4149933 .11123657 .4149933 .1182251 .4149933 .12522888 .4099884 .13023377 .40299989 .13023377 .3880005 .13023377 .3789978 .09222412 .37199403 .07922363 .34799195 .040222169 .30699159 .016220093 .2619934 .0152282719 .15499878 .0152282719 .12199402 .1222229 .116989139 .20123291V.21322632C.116989139 .29322816 .13598633 .41323854 .24598694 .42323304H.2539978C.29100038 .42323304 .32998658 .41223146 .35899354 .38723756Z"/>
<path id="font_2_10" d="M.11199951 .3812256C.13699341 .41223146 .18099976 .426239 .21798706 .426239 .2919922 .426239 .32499696 .3592224 .32499696 .288208V.26220704C.20999146 .26220704 .040985109 .22619629 .040985109 .095214847V.08721924C.04899597 .010223389 .1459961-.009765625 .20298767-.009765625 .2539978-.009765625 .31900025 .024230957 .33198548 .07522583H.33299256C.33898927 .032226564 .3659973-.004776001 .41099549-.004776001 .45199586-.004776001 .48799134 .02822876 .49299623 .07322693V.14620972H.46798707V.095214847C.46798707 .068222049 .46299745 .02722168 .43199159 .02722168 .3999939 .02722168 .394989 .066223148 .394989 .09321594V.26020814C.394989 .27320863 .3959961 .28520204 .3959961 .29821778 .3959961 .39523316 .30499269 .4482422 .22200012 .4482422 .15899658 .4482422 .069992069 .41723634 .069992069 .33721925 .069992069 .30822755 .09098816 .28923036 .116989139 .28923036 .14498902 .28923036 .1619873 .31123353 .1619873 .3352356 .1619873 .3642273 .13899231 .38124085 .11199951 .38124085V.3812256M.32499696 .24121094V.14021302C.32499696 .07122803 .2769928 .016220093 .21199036 .01222229H.20799256C.16099549 .01222229 .11898804 .049224855 .11898804 .097213748V.10221863C.12599182 .2032013 .23899842 .23820496 .32499696 .24121094Z"/>
<path id="font_2_20" d="M.032989503 .68429568V.6532898H.04798889C.084991458 .6532898 .11099243 .64927676 .11099243 .6012573V.0960083C.11099243 .08900452 .11199951 .08200073 .11199951 .07398987 .11199951 .035964967 .084991458 .031967164 .056991579 .031967164H.032989503V.0009765625H.2559967V.031967164H.23098755C.20199585 .031967164 .17799378 .035964967 .17799378 .07499695V.6953125L.032989503 .68429568Z"/>
<path id="font_2_18" d="M.036987306 .430542V.3995819H.055999757C.084991458 .3995819 .11099243 .3955841 .11099243 .34962464V.07292175C.11099243 .037963869 .09298706 .031967164 .032989503 .031967164V.0009765625H.24798584V.031967164H.22799683C.20199585 .031967164 .17799378 .034973146 .17799378 .06692505V.44154359L.036987306 .430542M.12098694 .6689453C.09599304 .66589358 .07598877 .64382937 .07598877 .61672976 .07598877 .5876312 .100997928 .5635376 .1289978 .5635376 .1559906 .5635376 .18199158 .58561709 .18199158 .61672976 .18199158 .64582827 .15699768 .6699219 .1289978 .6699219 .12599182 .66993716 .12399292 .6689453 .12098694 .6689453Z"/>
<path id="font_2_6" d="M.033996583 .68359377V.6525879C.04699707 .6525879 .05999756 .6535797 .07199097 .6535797 .10798645 .6535797 .13699341 .6485901 .13699341 .6085663V.07450867C.13699341 .036514284 .10398865 .03050232 .069992069 .03050232 .056991579 .03050232 .04499817 .0315094 .033996583 .0315094V.00050354006H.32598878V.0315094H.2919922C.25 .0315094 .22299195 .0335083 .22299195 .07551575V.33151246H.33699037C.40299989 .33151246 .46299745 .2935028 .46998597 .21650696V.1335144C.46998597 .06550598 .49899293-.021484375 .6349945-.021484375 .6819916-.021484375 .723999 .009506226 .7319946 .08250427V.087509158C.7319946 .09550476 .72898867 .10551453 .7200012 .10551453 .70199587 .10551453 .7049866 .053512575 .68899539 .028503418 .6769867 .012512207 .6589966 .00050354006 .6399994 .00050354006 .59098818 .00050354006 .58299258 .06651306 .57598879 .10551453L.56399539 .1835022C.5529938 .25350953 .5299988 .30751039 .43499757 .34051515 .45399476 .34750367 .47399903 .35150147 .49299623 .35951234 .548996 .38452149 .60398867 .4295349 .6100006 .49453736V.5025482C.6100006 .61756899 .47399903 .6755829 .37998963 .68258669 .36299134 .68359377 .34700013 .68359377 .32998658 .68359377H.033996583M.22299195 .35351563V.61557009C.22299195 .6415863 .23298645 .650589 .2579956 .6525879H.33099366C.4119873 .6525879 .5069885 .63157656 .5069885 .50354006 .5069885 .3645172 .39698792 .35351563 .30899049 .35351563H.22299195Z"/>
<path id="font_3_1" d="M.6439972 .6795349H.038986207V.63253787H.14698792V.04699707H.038986207V0C.07699585 .0029907227 .17799378 .0029907227 .22200012 .0029907227 .2709961 .0029907227 .37998963 .0029907227 .42399598 0V.04699707H.2889862V.31640626H.33898927C.43499757 .31640626 .44400025 .27349855 .44400025 .19966126H.4909973V.4804535H.44400025C.44400025 .40641786 .43598939 .36340333 .33898927 .36340333H.2889862V.63253787H.42900086C.58999636 .63253787 .61299136 .5554962 .6279907 .4384308H.6749878L.6439972 .6795349Z"/>
<path id="font_4_1" d="M.32299806 .24900818C.40499879 .28497315 .44198609 .29896546 .46699525 .31095887 .48599244 .3189392 .49499513 .322937 .49499513 .34191896 .49499513 .35891725 .48199464 .37390138 .46398927 .37390138 .45700074 .37390138 .45498658 .37390138 .44299317 .36489869L.30699159 .27398683 .32199098 .42185975C.32398988 .4398346 .32199098 .46484376 .2919922 .46484376 .27999879 .46484376 .26098634 .4568329 .26098634 .43484498 .26098634 .42585755 .2649994 .39587403 .2659912 .38587953 .2679901 .36889649 .2749939 .29696656 .2769928 .27398683L.14199829 .36489869C.13198853 .3708954 .1289978 .37390138 .11999512 .37390138 .101989749 .37390138 .08898926 .35891725 .08898926 .34191896 .08898926 .3219452 .100997928 .3169403 .10998535 .3129425L.26098634 .25C.1789856 .21403504 .14199829 .20004273 .116989139 .18806458 .09799194 .18006897 .08898926 .17607117 .08898926 .15708924 .08898926 .1401062 .101989749 .12510681 .11999512 .12510681 .1269989 .12510681 .1289978 .12510681 .14099121 .1341095L.2769928 .22502136 .26098634 .06416321C.26098634 .042175294 .27999879 .034179689 .2919922 .034179689 .3039856 .034179689 .32299806 .042175294 .32299806 .06416321 .32299806 .073150638 .31900025 .103134158 .31799317 .11312866 .31599427 .1301117 .30899049 .20204163 .30699159 .22502136L.4269867 .14509583C.45298768 .12510681 .45498658 .12510681 .46398927 .12510681 .48199464 .12510681 .49499513 .1401062 .49499513 .15708924 .49499513 .17706299 .48298646 .18206787 .47399903 .18606568L.32299806 .24900818Z"/>
<path id="font_2_3" d="M.0289917 .68359377V.6525879C.041992189 .6525879 .055999757 .6535797 .069992069 .6535797 .10499573 .6535797 .13598633 .6485901 .13598633 .61161807V.07493591C.13598633 .036972047 .10398865 .030975342 .070999149 .030975342 .055999757 .030975342 .040985109 .031967164 .0289917 .031967164V.0009765625H.33198548V.031967164C.31900025 .031967164 .30499269 .030975342 .2919922 .030975342 .25698854 .030975342 .22499085 .036972047 .22499085 .07493591V.61161807C.22499085 .6485901 .25898744 .6535797 .29299928 .6535797 .30599977 .6535797 .31999208 .6525879 .33198548 .6525879V.68359377H.0289917Z"/>
<path id="font_5_1" d="M.19198609 .052993776C.19198609 .08198547 .16799927 .10598755 .13899231 .10598755 .10998535 .10598755 .085998538 .08198547 .085998538 .052993776 .085998538 .023986817 .10998535 0 .13899231 0 .16799927 0 .19198609 .023986817 .19198609 .052993776Z"/>
<clipPath id="clip_6">
<path transform="matrix(1,0,0,-1,282.483,183.508)" d="M0 0H194.27188V161.39575H0Z"/>
</clipPath>
<path id="font_2_1" d="M.032989503 .68066409V.6496582C.04598999 .6496582 .05899048 .65065 .070999149 .65065 .10699463 .65065 .13598633 .6456604 .13598633 .6056824V.07495117C.13598633 .036972047 .102996829 .030975342 .068984989 .030975342 .055999757 .030975342 .04399109 .031967164 .032989503 .031967164V.0009765625H.60899356L.651001 .25889588H.6259918C.61099246 .16792298 .598999 .06796265 .48999024 .03996277 .45899964 .032974245 .4269867 .031967164 .394989 .031967164H.2669983C.24699402 .031967164 .22499085 .033966066 .22499085 .063964847V.3388672H.31698609C.35198976 .3388672 .3909912 .3358612 .4099884 .3048706 .42199708 .2838745 .4229889 .2568817 .4229889 .23190308V.22190857H.44799806V.48677064H.4229889V.47677613C.4229889 .42282105 .41099549 .3798523 .35198976 .3718567 .33299256 .3698578 .31399537 .3698578 .29499818 .3698578H.22499085V.61468508C.22499085 .6486511 .24598694 .6496582 .2669983 .6496582H.3869934C.44599916 .6496582 .5189972 .6496582 .55799868 .59669497 .58799746 .5567169 .59298709 .5037689 .598999 .4557953H.6239929L.59599307 .68066409H.032989503Z"/>
<path id="font_2_16" d="M.10499573 .43066407H.026992798V.3996582H.10499573V.06893921C.10499573 .034973146 .07598877 .031967164 .04499817 .031967164H.026992798V.0009765625H.25V.031967164H.22599793C.19799805 .031967164 .17199707 .034973146 .17199707 .06893921V.3996582H.3829956V.06893921C.3829956 .034973146 .35398866 .031967164 .32299806 .031967164H.30499269V.0009765625H.5279999V.031967164H.5039978C.47599793 .031967164 .44999696 .034973146 .44999696 .06893921V.3996582H.61099246C.6389923 .3996582 .6609955 .39466859 .6609955 .3407135 .6609955 .330719 .6599884 .3207245 .6599884 .31072999V.07392883C.6599884 .032974245 .6319885 .031967164 .58799746 .031967164H.58200076V.0009765625H.8049927V.031967164H.7799988C.7519989 .031967164 .72698977 .035964967 .72698977 .07192993V.44267274L.57598879 .43066407H.44699098V.5328064C.44699098 .55685427 .44799806 .57888796 .45799256 .60092166 .47999574 .6519928 .5389862 .6840515 .59498599 .6840515 .6269989 .6840515 .6579895 .6740265 .68099978 .651001 .6549988 .651001 .6329956 .6329651 .6329956 .6059265 .6329956 .5768738 .6549988 .55885317 .68499758 .55885317 .71598818 .5648651 .72499087 .5838928 .72499087 .6059265 .72499087 .6760254 .6529999 .7060547 .59498599 .7060547 .5339966 .7060547 .48199464 .68704226 .43199159 .651001 .4169922 .68904116 .35598756 .7060547 .32099916 .7060547 .23399353 .7060547 .116989139 .6640167 .10499573 .5628662V.43066407M.3829956 .43066407H.16899109V.5338135C.16899109 .6249542 .23298645 .6840515 .31599427 .6840515 .34799195 .6840515 .3769989 .67303469 .4019928 .651001 .3769989 .651001 .35398866 .63397219 .35398866 .60491946 .35398866 .5908966 .3600006 .5768738 .37098695 .5678711 .37599183 .5648651 .38198854 .5628662 .3829956 .55584719V.43066407Z"/>
<path id="font_2_29" d="M.018997193 .43066407V.3996582H.034988405C.06298828 .3996582 .084991458 .39665223 .101989749 .3586731 .147995 .24871826 .19198609 .13775635 .23899842 .027801514 .24198914 .019805909 .24899292 .00881958 .24899292-.00018310547 .24899292-.0011749268 .24798584-.0031738282 .24798584-.004180908 .24099732-.025177002 .23098755-.045166017 .22200012-.06515503 .20199585-.11413574 .17298889-.18211365 .11099243-.18211365 .09599304-.18211365 .07598877-.17611695 .06399536-.16412354 .08299255-.16111756 .102996829-.15011597 .102996829-.12213135 .102996829-.10014343 .08799744-.08215332 .06599426-.08015442 .034988405-.08015442 .018997193-.09814453 .018997193-.12313843 .018997193-.17311096 .06599426-.20410156 .11099243-.20410156H.11199951C.18399048-.20410156 .22200012-.13012696 .24699402-.07115173L.2769928 .0008239746C.31199647 .08677673 .34799195 .17274475 .38398744 .25871278L.4079895 .3156891C.4249878 .3626709 .45098878 .3996582 .5079956 .3996582V.43066407H.34700013V.3996582C.36999513 .3996582 .3929901 .383667 .3929901 .3586731 .3929901 .3456726 .3869934 .33268739 .38198854 .32069398 .35299684 .25271607 .32699586 .18374634 .29699708 .11576843 .2939911 .106781009 .2889862 .09777832 .2869873 .088775638H.28599549C.2789917 .11177063 .2679901 .13276673 .25898744 .15475464 .23298645 .21972656 .20199585 .28570558 .17799378 .35168458 .1749878 .3586731 .17098999 .36567689 .17098999 .3736725V.3776703C.1769867 .3996582 .20599365 .3996582 .22599793 .3996582V.43066407H.018997193Z"/>
<path id="font_2_9" d="M.017990113 .68359377V.6525879H.038986207C.101989749 .6525879 .10598755 .62358096 .116989139 .58558657 .17999268 .39656068 .23999024 .20753479 .3019867 .01751709 .30699159 .0035095216 .30999757-.021484375 .32899476-.021484375H.33099366C.34899903-.018493653 .35198976 .013519287 .35598756 .021514893 .4059906 .17453003 .45399476 .32855226 .5049896 .48057557 .5079956 .489563 .5109863 .49757386 .5130005 .50657656H.5139923C.5189972 .48257447 .5299988 .4595642 .5359955 .4365692 .58099368 .29855348 .625 .15953064 .67099 .021514893L.6799927-.005493164C.68299868-.012496948 .68699648-.019485474 .69499209-.021484375H.69799807C.71598818-.021484375 .71899417 .0025177003 .723999 .01651001 .7869873 .20153809 .84399417 .38856507 .9059906 .5735779 .91799929 .61457827 .93899539 .6525879 1.0089874 .6525879V.68359377H.798996V.6525879C.83399966 .6525879 .8829956 .6395874 .8860016 .60058596 .8860016 .59458926 .8839874 .58758547 .8819885 .5815735L.8730011 .5565796C.85598757 .49957276 .83699038 .44355775 .81799319 .3865509L.7579956 .20153809C.7489929 .17353821 .7389984 .14653015 .73098757 .11853027 .71699526 .15252686 .70700076 .1905365 .69599917 .22554016 .6559906 .34555055 .61898806 .466568 .5779877 .58657839 .57499697 .59757998 .56799319 .61058047 .56799319 .6225891 .56799319 .6525879 .6239929 .6525879 .6519928 .6525879V.68359377H.3880005V.6525879H.4149933C.45999146 .6525879 .46899415 .6425934 .49198915 .5735779 .49398805 .5665741 .49899293 .5565796 .49899293 .5475769V.545578C.49899293 .5325775 .4889984 .5135803 .4850006 .49957276 .45199586 .40756227 .4229889 .31355287 .3929901 .21853638 .3829956 .18553162 .36999513 .15252686 .36099244 .11853027H.3600006C.35798646 .13052368 .35299684 .14152527 .34899903 .15353394L.24099732 .48657228C.22599793 .5285797 .21499634 .5695801 .19999695 .61058047 .19898987 .61457827 .19799805 .61958315 .19799805 .62358096V.6265869C.20498657 .6525879 .25299073 .6525879 .28199769 .6525879V.68359377H.017990113Z"/>
<path id="font_2_19" d="M.026992798 .6842804V.65319827H.04399109C.07598877 .65319827 .10499573 .64920046 .10499573 .6010742V.09591675C.10499573 .08892822 .10598755 .08192444 .10598755 .07392883 .10598755 .035964967 .07899475 .031967164 .050994874 .031967164H.026992798V.0009765625H.24699402V.031967164H.22399903C.19400025 .031967164 .16899109 .035964967 .16899109 .07392883V.16685486C.16899109 .1878357 .20899964 .21582031 .23298645 .23379517 .24198914 .21681214 .25498963 .201828 .2659912 .18583679 .2899933 .15286255 .31399537 .120895389 .33599855 .08792114 .34199525 .078933719 .34999085 .06593323 .34999085 .053955079 .34999085 .035964967 .32998658 .031967164 .31498719 .031967164V.0009765625H.5109863V.031967164C.49398805 .031967164 .47499085 .031967164 .45899964 .03996277 .43598939 .052947999 .41999818 .076934818 .4059906 .09791565 .3809967 .1328888 .35598756 .16885376 .32998658 .2038269L.2939911 .254776C.2899933 .25978089 .2829895 .2687683 .2829895 .2727661V.274765C.2829895 .28175355 .31298829 .30374146 .32699586 .31472779 .37298585 .35469056 .4249878 .3996582 .4889984 .3996582V.43066407H.30699159V.3996582C.32199098 .3996582 .33499146 .38867188 .33499146 .37467958 .33499146 .3447113 .28799439 .31472779 .26098634 .29275514 .23098755 .2667694 .20199585 .24079895 .17199707 .21582031V.6953125L.026992798 .6842804Z"/>
</defs>
<path transform="matrix(1,0,0,-1,32.209,183.508)" d="M0 0H194.27155V161.388H0Z" fill="#e5e5e5"/>
<path transform="matrix(1,0,0,-1,32.209,183.508)" stroke-width=".3985" stroke-linecap="butt" stroke-miterlimit="10" stroke-linejoin="miter" fill="none" stroke="#ffffff" d="M2.20763 0V161.388M28.6992 0V161.388M55.19078 0V161.388M81.68236 0V161.388M108.17392 0V161.388M134.6655 0V161.388M161.15708 0V161.388M187.64865 0V161.388"/>
<path transform="matrix(1,0,0,-1,32.209,183.508)" stroke-width=".3985" stroke-linecap="butt" stroke-miterlimit="10" stroke-linejoin="miter" fill="none" stroke="#ffffff" d="M0 26.898H194.27155M0 69.9348H194.27155M0 112.97159H194.27155M0 156.00839H194.27155"/>
<path transform="matrix(1,0,0,-1,32.209,183.508)" stroke-width=".19925" stroke-linecap="butt" stroke-miterlimit="10" stroke-linejoin="miter" fill="none" stroke="#555555" d="M6.62288-2.83487V0M11.03815-2.83487V0M15.45341-2.83487V0M19.86867-2.83487V0M24.28394-2.83487V0M33.11446-2.83487V0M37.52972-2.83487V0M41.94499-2.83487V0M46.36024-2.83487V0M50.77551-2.83487V0M59.60603-2.83487V0M64.0213-2.83487V0M68.43657-2.83487V0M72.85182-2.83487V0M77.26709-2.83487V0M86.09761-2.83487V0M90.51288-2.83487V0M94.92813-2.83487V0M99.3434-2.83487V0M103.75867-2.83487V0M112.58919-2.83487V0M117.00446-2.83487V0M121.41971-2.83487V0M125.83498-2.83487V0M130.25025-2.83487V0M139.08077-2.83487V0M143.49604-2.83487V0M147.91129-2.83487V0M152.32656-2.83487V0M156.74182-2.83487V0M165.57234-2.83487V0M169.98761-2.83487V0M174.40287-2.83487V0M178.81813-2.83487V0M183.23339-2.83487V0"/>
<path transform="matrix(1,0,0,-1,32.209,183.508)" stroke-width=".19925" stroke-linecap="butt" stroke-miterlimit="10" stroke-linejoin="miter" fill="none" stroke="#555555" d="M2.20763-4.25188V0M28.6992-4.25188V0M55.19078-4.25188V0M81.68236-4.25188V0M108.17392-4.25188V0M134.6655-4.25188V0M161.15708-4.25188V0M187.64865-4.25188V0"/>
<path transform="matrix(1,0,0,-1,32.209,183.508)" stroke-width=".19925" stroke-linecap="butt" stroke-miterlimit="10" stroke-linejoin="miter" fill="none" stroke="#555555" d="M-2.83485 5.3796H0M-2.83485 16.1388H0M-2.83485 37.6572H0M-2.83485 48.4164H0M-2.83485 59.1756H0M-2.83485 80.694H0M-2.83485 91.4532H0M-2.83485 102.21239H0M-2.83485 123.73079H0M-2.83485 134.48999H0M-2.83485 145.24919H0"/>
<path transform="matrix(1,0,0,-1,32.209,183.508)" stroke-width=".19925" stroke-linecap="butt" stroke-miterlimit="10" stroke-linejoin="miter" fill="none" stroke="#555555" d="M-4.25185 26.898H0M-4.25185 69.9348H0M-4.25185 112.97159H0M-4.25185 156.00839H0"/>
<path transform="matrix(1,0,0,-1,32.209,183.508)" stroke-width=".3985" stroke-linecap="butt" stroke-miterlimit="10" stroke-linejoin="miter" fill="none" stroke="#ffffff" d="M0 0V161.388H194.27155V0H0Z"/>
<use data-text="6" xlink:href="#font_0_6" transform="matrix(9.9626,0,0,-9.9626,31.925999,197.69899)"/>
<use data-text="1" xlink:href="#font_0_2" transform="matrix(9.9626,0,0,-9.9626,55.926,197.69899)"/>
<use data-text="2" xlink:href="#font_0_3" transform="matrix(9.9626,0,0,-9.9626,60.9073,197.69899)"/>
<use data-text="1" xlink:href="#font_0_2" transform="matrix(9.9626,0,0,-9.9626,82.417,197.69899)"/>
<use data-text="8" xlink:href="#font_0_7" transform="matrix(9.9626,0,0,-9.9626,87.3983,197.69899)"/>
<use data-text="2" xlink:href="#font_0_3" transform="matrix(9.9626,0,0,-9.9626,108.909,197.69899)"/>
<use data-text="4" xlink:href="#font_0_5" transform="matrix(9.9626,0,0,-9.9626,113.8903,197.69899)"/>
<use data-text="3" xlink:href="#font_0_4" transform="matrix(9.9626,0,0,-9.9626,135.4,197.69899)"/>
<use data-text="0" xlink:href="#font_0_1" transform="matrix(9.9626,0,0,-9.9626,140.38129,197.69899)"/>
<use data-text="3" xlink:href="#font_0_4" transform="matrix(9.9626,0,0,-9.9626,161.891,197.69899)"/>
<use data-text="6" xlink:href="#font_0_6" transform="matrix(9.9626,0,0,-9.9626,166.8723,197.69899)"/>
<use data-text="4" xlink:href="#font_0_5" transform="matrix(9.9626,0,0,-9.9626,188.382,197.69899)"/>
<use data-text="2" xlink:href="#font_0_3" transform="matrix(9.9626,0,0,-9.9626,193.3633,197.69899)"/>
<use data-text="4" xlink:href="#font_0_5" transform="matrix(9.9626,0,0,-9.9626,214.874,197.69899)"/>
<use data-text="8" xlink:href="#font_0_7" transform="matrix(9.9626,0,0,-9.9626,219.85529,197.69899)"/>
<use data-text="2" xlink:href="#font_0_3" transform="matrix(9.9626,0,0,-9.9626,19.457,159.821)"/>
<use data-text="4" xlink:href="#font_0_5" transform="matrix(9.9626,0,0,-9.9626,19.457,116.784)"/>
<use data-text="6" xlink:href="#font_0_6" transform="matrix(9.9626,0,0,-9.9626,19.457,73.748)"/>
<use data-text="8" xlink:href="#font_0_7" transform="matrix(9.9626,0,0,-9.9626,19.457,30.71199)"/>
<g clip-path="url(#clip_1)">
<path transform="matrix(1,0,0,-1,32.209,183.508)" stroke-width=".59776" stroke-linecap="butt" stroke-miterlimit="10" stroke-linejoin="miter" fill="none" stroke="#e24a33" d="M2.20763 5.3796 28.6992 25.37396 55.19078 42.51357 81.68236 56.10623 108.17392 65.29424 134.6655 71.9582 161.15708 76.56097 187.64865 79.48766"/>
<path transform="matrix(1,0,0,-1,32.209,183.508)" stroke-width=".59776" stroke-linecap="butt" stroke-miterlimit="10" stroke-linejoin="miter" fill="none" stroke="#348abd" d="M2.20763 5.3796 28.6992 24.96907 55.19078 41.21635 81.68236 53.87529 108.17392 62.13895 134.6655 66.90753 161.15708 70.44582 187.64865 72.05174"/>
<path transform="matrix(1,0,0,-1,32.209,183.508)" stroke-width=".79701" stroke-linecap="butt" stroke-dasharray="2.98883,2.98883" stroke-miterlimit="10" stroke-linejoin="miter" fill="none" stroke="#988ed5" d="M2.20763 5.3796 187.64865 156.00839"/>
</g>
<path transform="matrix(1,0,0,-1,32.209,183.508)" d="M-.78119 2.39076H5.1964704V8.36842H-.78119Z" fill="#e24a33"/>
<path transform="matrix(1,0,0,-1,32.209,183.508)" stroke-width=".59776" stroke-linecap="butt" stroke-miterlimit="10" stroke-linejoin="miter" fill="none" stroke="#e24a33" d="M-.78119 2.39076H5.1964704V8.36842H-.78119Z"/>
<path transform="matrix(1,0,0,-1,32.209,183.508)" d="M25.71037 22.38513H31.68803V28.36279H25.71037Z" fill="#e24a33"/>
<path transform="matrix(1,0,0,-1,32.209,183.508)" stroke-width=".59776" stroke-linecap="butt" stroke-miterlimit="10" stroke-linejoin="miter" fill="none" stroke="#e24a33" d="M25.71037 22.38513H31.68803V28.36279H25.71037Z"/>
<path transform="matrix(1,0,0,-1,32.209,183.508)" d="M52.20195 39.52473H58.17961V45.50239H52.20195Z" fill="#e24a33"/>
<path transform="matrix(1,0,0,-1,32.209,183.508)" stroke-width=".59776" stroke-linecap="butt" stroke-miterlimit="10" stroke-linejoin="miter" fill="none" stroke="#e24a33" d="M52.20195 39.52473H58.17961V45.50239H52.20195Z"/>
<path transform="matrix(1,0,0,-1,32.209,183.508)" d="M78.69353 53.1174H84.67119V59.095064H78.69353Z" fill="#e24a33"/>
<path transform="matrix(1,0,0,-1,32.209,183.508)" stroke-width=".59776" stroke-linecap="butt" stroke-miterlimit="10" stroke-linejoin="miter" fill="none" stroke="#e24a33" d="M78.69353 53.1174H84.67119V59.095064H78.69353Z"/>
<path transform="matrix(1,0,0,-1,32.209,183.508)" d="M105.18509 62.3054H111.16275V68.28306H105.18509Z" fill="#e24a33"/>
<path transform="matrix(1,0,0,-1,32.209,183.508)" stroke-width=".59776" stroke-linecap="butt" stroke-miterlimit="10" stroke-linejoin="miter" fill="none" stroke="#e24a33" d="M105.18509 62.3054H111.16275V68.28306H105.18509Z"/>
<path transform="matrix(1,0,0,-1,32.209,183.508)" d="M131.67667 68.96938H137.65433V74.947048H131.67667Z" fill="#e24a33"/>
<path transform="matrix(1,0,0,-1,32.209,183.508)" stroke-width=".59776" stroke-linecap="butt" stroke-miterlimit="10" stroke-linejoin="miter" fill="none" stroke="#e24a33" d="M131.67667 68.96938H137.65433V74.947048H131.67667Z"/>
<path transform="matrix(1,0,0,-1,32.209,183.508)" d="M158.16825 73.57214H164.1459V79.549808H158.16825Z" fill="#e24a33"/>
<path transform="matrix(1,0,0,-1,32.209,183.508)" stroke-width=".59776" stroke-linecap="butt" stroke-miterlimit="10" stroke-linejoin="miter" fill="none" stroke="#e24a33" d="M158.16825 73.57214H164.1459V79.549808H158.16825Z"/>
<path transform="matrix(1,0,0,-1,32.209,183.508)" d="M184.65982 76.49883H190.63748V82.476497H184.65982Z" fill="#e24a33"/>
<path transform="matrix(1,0,0,-1,32.209,183.508)" stroke-width=".59776" stroke-linecap="butt" stroke-miterlimit="10" stroke-linejoin="miter" fill="none" stroke="#e24a33" d="M184.65982 76.49883H190.63748V82.476497H184.65982Z"/>
<path transform="matrix(1,0,0,-1,32.209,183.508)" stroke-width=".59776" stroke-linecap="butt" stroke-miterlimit="10" stroke-linejoin="miter" fill="none" stroke="#e24a33" d=""/>
<path transform="matrix(1,0,0,-1,32.209,183.508)" d="M5.19646 5.3796C5.19646 7.0303 3.85834 8.36842 2.20763 8.36842 .55692 8.36842-.78119 7.0303-.78119 5.3796-.78119 3.72888 .55692 2.39076 2.20763 2.39076 3.85834 2.39076 5.19646 3.72888 5.19646 5.3796ZM2.20763 5.3796" fill="#348abd"/>
<path transform="matrix(1,0,0,-1,32.209,183.508)" stroke-width=".59776" stroke-linecap="butt" stroke-miterlimit="10" stroke-linejoin="miter" fill="none" stroke="#348abd" d="M5.19646 5.3796C5.19646 7.0303 3.85834 8.36842 2.20763 8.36842 .55692 8.36842-.78119 7.0303-.78119 5.3796-.78119 3.72888 .55692 2.39076 2.20763 2.39076 3.85834 2.39076 5.19646 3.72888 5.19646 5.3796ZM2.20763 5.3796"/>
<path transform="matrix(1,0,0,-1,32.209,183.508)" d="M31.68803 24.96907C31.68803 26.61978 30.3499 27.9579 28.6992 27.9579 27.0485 27.9579 25.71037 26.61978 25.71037 24.96907 25.71037 23.31837 27.0485 21.98024 28.6992 21.98024 30.3499 21.98024 31.68803 23.31837 31.68803 24.96907ZM28.6992 24.96907" fill="#348abd"/>
<path transform="matrix(1,0,0,-1,32.209,183.508)" stroke-width=".59776" stroke-linecap="butt" stroke-miterlimit="10" stroke-linejoin="miter" fill="none" stroke="#348abd" d="M31.68803 24.96907C31.68803 26.61978 30.3499 27.9579 28.6992 27.9579 27.0485 27.9579 25.71037 26.61978 25.71037 24.96907 25.71037 23.31837 27.0485 21.98024 28.6992 21.98024 30.3499 21.98024 31.68803 23.31837 31.68803 24.96907ZM28.6992 24.96907"/>
<path transform="matrix(1,0,0,-1,32.209,183.508)" d="M58.17961 41.21635C58.17961 42.86707 56.84148 44.20518 55.19078 44.20518 53.54007 44.20518 52.20195 42.86707 52.20195 41.21635 52.20195 39.56564 53.54007 38.22752 55.19078 38.22752 56.84148 38.22752 58.17961 39.56564 58.17961 41.21635ZM55.19078 41.21635" fill="#348abd"/>
<path transform="matrix(1,0,0,-1,32.209,183.508)" stroke-width=".59776" stroke-linecap="butt" stroke-miterlimit="10" stroke-linejoin="miter" fill="none" stroke="#348abd" d="M58.17961 41.21635C58.17961 42.86707 56.84148 44.20518 55.19078 44.20518 53.54007 44.20518 52.20195 42.86707 52.20195 41.21635 52.20195 39.56564 53.54007 38.22752 55.19078 38.22752 56.84148 38.22752 58.17961 39.56564 58.17961 41.21635ZM55.19078 41.21635"/>
<path transform="matrix(1,0,0,-1,32.209,183.508)" d="M84.67119 53.87529C84.67119 55.526 83.33305 56.86412 81.68236 56.86412 80.03165 56.86412 78.69353 55.526 78.69353 53.87529 78.69353 52.22458 80.03165 50.88646 81.68236 50.88646 83.33305 50.88646 84.67119 52.22458 84.67119 53.87529ZM81.68236 53.87529" fill="#348abd"/>
<path transform="matrix(1,0,0,-1,32.209,183.508)" stroke-width=".59776" stroke-linecap="butt" stroke-miterlimit="10" stroke-linejoin="miter" fill="none" stroke="#348abd" d="M84.67119 53.87529C84.67119 55.526 83.33305 56.86412 81.68236 56.86412 80.03165 56.86412 78.69353 55.526 78.69353 53.87529 78.69353 52.22458 80.03165 50.88646 81.68236 50.88646 83.33305 50.88646 84.67119 52.22458 84.67119 53.87529ZM81.68236 53.87529"/>
<path transform="matrix(1,0,0,-1,32.209,183.508)" d="M111.16275 62.13895C111.16275 63.78966 109.82463 65.12778 108.17392 65.12778 106.52322 65.12778 105.18509 63.78966 105.18509 62.13895 105.18509 60.48824 106.52322 59.15012 108.17392 59.15012 109.82463 59.15012 111.16275 60.48824 111.16275 62.13895ZM108.17392 62.13895" fill="#348abd"/>
<path transform="matrix(1,0,0,-1,32.209,183.508)" stroke-width=".59776" stroke-linecap="butt" stroke-miterlimit="10" stroke-linejoin="miter" fill="none" stroke="#348abd" d="M111.16275 62.13895C111.16275 63.78966 109.82463 65.12778 108.17392 65.12778 106.52322 65.12778 105.18509 63.78966 105.18509 62.13895 105.18509 60.48824 106.52322 59.15012 108.17392 59.15012 109.82463 59.15012 111.16275 60.48824 111.16275 62.13895ZM108.17392 62.13895"/>
<path transform="matrix(1,0,0,-1,32.209,183.508)" d="M137.65433 66.90753C137.65433 68.55824 136.31621 69.89636 134.6655 69.89636 133.0148 69.89636 131.67667 68.55824 131.67667 66.90753 131.67667 65.25682 133.0148 63.9187 134.6655 63.9187 136.31621 63.9187 137.65433 65.25682 137.65433 66.90753ZM134.6655 66.90753" fill="#348abd"/>
<path transform="matrix(1,0,0,-1,32.209,183.508)" stroke-width=".59776" stroke-linecap="butt" stroke-miterlimit="10" stroke-linejoin="miter" fill="none" stroke="#348abd" d="M137.65433 66.90753C137.65433 68.55824 136.31621 69.89636 134.6655 69.89636 133.0148 69.89636 131.67667 68.55824 131.67667 66.90753 131.67667 65.25682 133.0148 63.9187 134.6655 63.9187 136.31621 63.9187 137.65433 65.25682 137.65433 66.90753ZM134.6655 66.90753"/>
<path transform="matrix(1,0,0,-1,32.209,183.508)" d="M164.1459 70.44582C164.1459 72.09653 162.80779 73.43465 161.15708 73.43465 159.50637 73.43465 158.16825 72.09653 158.16825 70.44582 158.16825 68.79512 159.50637 67.45699 161.15708 67.45699 162.80779 67.45699 164.1459 68.79512 164.1459 70.44582ZM161.15708 70.44582" fill="#348abd"/>
<path transform="matrix(1,0,0,-1,32.209,183.508)" stroke-width=".59776" stroke-linecap="butt" stroke-miterlimit="10" stroke-linejoin="miter" fill="none" stroke="#348abd" d="M164.1459 70.44582C164.1459 72.09653 162.80779 73.43465 161.15708 73.43465 159.50637 73.43465 158.16825 72.09653 158.16825 70.44582 158.16825 68.79512 159.50637 67.45699 161.15708 67.45699 162.80779 67.45699 164.1459 68.79512 164.1459 70.44582ZM161.15708 70.44582"/>
<path transform="matrix(1,0,0,-1,32.209,183.508)" d="M190.63748 72.05174C190.63748 73.70245 189.29936 75.04057 187.64865 75.04057 185.99794 75.04057 184.65982 73.70245 184.65982 72.05174 184.65982 70.40103 185.99794 69.06291 187.64865 69.06291 189.29936 69.06291 190.63748 70.40103 190.63748 72.05174ZM187.64865 72.05174" fill="#348abd"/>
<path transform="matrix(1,0,0,-1,32.209,183.508)" stroke-width=".59776" stroke-linecap="butt" stroke-miterlimit="10" stroke-linejoin="miter" fill="none" stroke="#348abd" d="M190.63748 72.05174C190.63748 73.70245 189.29936 75.04057 187.64865 75.04057 185.99794 75.04057 184.65982 73.70245 184.65982 72.05174 184.65982 70.40103 185.99794 69.06291 187.64865 69.06291 189.29936 69.06291 190.63748 70.40103 190.63748 72.05174ZM187.64865 72.05174"/>
<path transform="matrix(1,0,0,-1,32.209,183.508)" stroke-width=".59776" stroke-linecap="butt" stroke-miterlimit="10" stroke-linejoin="miter" fill="none" stroke="#348abd" d=""/>
<use data-text="N" xlink:href="#font_2_4" transform="matrix(9.9626,0,0,-9.9626,91.432,211.399)"/>
<use data-text="u" xlink:href="#font_2_28" transform="matrix(9.9626,0,0,-9.9626,98.903949,211.399)"/>
<use data-text="m" xlink:href="#font_2_21" transform="matrix(9.9626,0,0,-9.9626,104.43319,211.399)"/>
<use data-text="b" xlink:href="#font_2_11" transform="matrix(9.9626,0,0,-9.9626,112.45308,211.399)"/>
<use data-text="e" xlink:href="#font_2_14" transform="matrix(9.9626,0,0,-9.9626,118.26128,211.399)"/>
<use data-text="r" xlink:href="#font_2_25" transform="matrix(9.9626,0,0,-9.9626,122.68467,211.399)"/>
<use data-text="o" xlink:href="#font_2_23" transform="matrix(9.9626,0,0,-9.9626,129.90756,211.399)"/>
<use data-text="f" xlink:href="#font_2_15" transform="matrix(9.9626,0,0,-9.9626,134.88886,211.399)"/>
<use data-text="G" xlink:href="#font_2_2" transform="matrix(9.9626,0,0,-9.9626,141.26493,211.399)"/>
<use data-text="P" xlink:href="#font_2_5" transform="matrix(9.9626,0,0,-9.9626,149.08557,211.399)"/>
<use data-text="U" xlink:href="#font_2_8" transform="matrix(9.9626,0,0,-9.9626,155.86014,211.399)"/>
<use data-text="s" xlink:href="#font_2_26" transform="matrix(9.9626,0,0,-9.9626,163.33209,211.399)"/>
<use data-text="S" xlink:href="#font_2_7" transform="matrix(0,-9.9626,-9.9626,-0,10.681,121.21399)"/>
<use data-text="p" xlink:href="#font_2_24" transform="matrix(0,-9.9626,-9.9626,-0,10.681,115.684749)"/>
<use data-text="e" xlink:href="#font_2_14" transform="matrix(0,-9.9626,-9.9626,-0,10.681,109.87655)"/>
<use data-text="e" xlink:href="#font_2_14" transform="matrix(0,-9.9626,-9.9626,-0,10.681,105.453159)"/>
<use data-text="d" xlink:href="#font_2_13" transform="matrix(0,-9.9626,-9.9626,-0,10.681,101.029758)"/>
<use data-text="u" xlink:href="#font_2_28" transform="matrix(0,-9.9626,-9.9626,-0,10.681,95.50052)"/>
<use data-text="p" xlink:href="#font_2_24" transform="matrix(0,-9.9626,-9.9626,-0,10.681,89.97127)"/>
<use data-text="S" xlink:href="#font_2_7" transform="matrix(9.9626,0,0,-9.9626,97.789,10.688995)"/>
<use data-text="t" xlink:href="#font_2_27" transform="matrix(9.9626,0,0,-9.9626,103.318248,10.688995)"/>
<use data-text="r" xlink:href="#font_2_25" transform="matrix(9.9626,0,0,-9.9626,107.193698,10.688995)"/>
<use data-text="o" xlink:href="#font_2_23" transform="matrix(9.9626,0,0,-9.9626,111.09904,10.688995)"/>
<use data-text="n" xlink:href="#font_2_22" transform="matrix(9.9626,0,0,-9.9626,116.08034,10.688995)"/>
<use data-text="g" xlink:href="#font_2_17" transform="matrix(9.9626,0,0,-9.9626,121.60958,10.688995)"/>
<use data-text="S" xlink:href="#font_2_7" transform="matrix(9.9626,0,0,-9.9626,129.90843,10.688995)"/>
<use data-text="c" xlink:href="#font_2_12" transform="matrix(9.9626,0,0,-9.9626,135.43767,10.688995)"/>
<use data-text="a" xlink:href="#font_2_10" transform="matrix(9.9626,0,0,-9.9626,139.86107,10.688995)"/>
<use data-text="l" xlink:href="#font_2_20" transform="matrix(9.9626,0,0,-9.9626,144.84236,10.688995)"/>
<use data-text="i" xlink:href="#font_2_18" transform="matrix(9.9626,0,0,-9.9626,147.61197,10.688995)"/>
<use data-text="n" xlink:href="#font_2_22" transform="matrix(9.9626,0,0,-9.9626,150.38158,10.688995)"/>
<use data-text="g" xlink:href="#font_2_17" transform="matrix(9.9626,0,0,-9.9626,155.91082,10.688995)"/>
<path transform="matrix(1,0,0,-1,32.209,183.508)" d="M6.02715 115.3402H108.52819V156.34729H6.02715Z" fill="#e5e5e5" fill-opacity=".8"/>
<path transform="matrix(1,0,0,-1,32.209,183.508)" stroke-width=".3985" stroke-linecap="butt" stroke-miterlimit="10" stroke-linejoin="miter" fill="none" stroke="#cccccc" d="M6.02715 115.3402H108.52819V156.34729H6.02715Z"/>
<path transform="matrix(1,0,0,-1,41.622999,35.325998)" stroke-width=".59776" stroke-linecap="butt" stroke-miterlimit="10" stroke-linejoin="miter" fill="none" stroke="#e24a33" d="M0 0H8.50412 17.00826"/>
<path transform="matrix(1,0,0,-1,41.622999,35.325998)" d="M5.51529-2.98883H11.49295V2.98883H5.51529Z" fill="#e24a33" fill-opacity=".8"/>
<path transform="matrix(1,0,0,-1,41.622999,35.325998)" stroke-width=".59776" stroke-linecap="butt" stroke-miterlimit="10" stroke-linejoin="miter" fill="none" stroke="#e24a33" d="M5.51529-2.98883H11.49295V2.98883H5.51529Z"/>
<use data-text="R" xlink:href="#font_2_6" transform="matrix(9.9626,0,0,-9.9626,61.022,38.008989)"/>
<use data-text="e" xlink:href="#font_2_14" transform="matrix(9.9626,0,0,-9.9626,68.35448,38.008989)"/>
<use data-text="a" xlink:href="#font_2_10" transform="matrix(9.9626,0,0,-9.9626,72.77787,38.008989)"/>
<use data-text="l" xlink:href="#font_2_20" transform="matrix(9.9626,0,0,-9.9626,77.75917,38.008989)"/>
<use data-text="S" xlink:href="#font_2_7" transform="matrix(9.9626,0,0,-9.9626,83.84631,38.008989)"/>
<use data-text="p" xlink:href="#font_2_24" transform="matrix(9.9626,0,0,-9.9626,89.37556,38.008989)"/>
<use data-text="e" xlink:href="#font_2_14" transform="matrix(9.9626,0,0,-9.9626,95.183757,38.008989)"/>
<use data-text="e" xlink:href="#font_2_14" transform="matrix(9.9626,0,0,-9.9626,99.60715,38.008989)"/>
<use data-text="d" xlink:href="#font_2_13" transform="matrix(9.9626,0,0,-9.9626,104.03054,38.008989)"/>
<use data-text="u" xlink:href="#font_2_28" transform="matrix(9.9626,0,0,-9.9626,109.559787,38.008989)"/>
<use data-text="p" xlink:href="#font_2_24" transform="matrix(9.9626,0,0,-9.9626,115.08903,38.008989)"/>
<use data-text="F" xlink:href="#font_3_1" transform="matrix(9.9626,0,0,-9.9626,123.965,38.008989)"/>
<path transform="matrix(1,0,0,-1,41.622999,47.665998)" stroke-width=".59776" stroke-linecap="butt" stroke-miterlimit="10" stroke-linejoin="miter" fill="none" stroke="#348abd" d="M0 0H8.50412 17.00826"/>
<path transform="matrix(1,0,0,-1,41.622999,47.665998)" d="M11.49295 0C11.49295 1.6507 10.15482 2.98883 8.50412 2.98883 6.85341 2.98883 5.51529 1.6507 5.51529 0 5.51529-1.6507 6.85341-2.98883 8.50412-2.98883 10.15482-2.98883 11.49295-1.6507 11.49295 0ZM8.50412 0" fill="#348abd" fill-opacity=".8"/>
<path transform="matrix(1,0,0,-1,41.622999,47.665998)" stroke-width=".59776" stroke-linecap="butt" stroke-miterlimit="10" stroke-linejoin="miter" fill="none" stroke="#348abd" d="M11.49295 0C11.49295 1.6507 10.15482 2.98883 8.50412 2.98883 6.85341 2.98883 5.51529 1.6507 5.51529 0 5.51529-1.6507 6.85341-2.98883 8.50412-2.98883 10.15482-2.98883 11.49295-1.6507 11.49295 0ZM8.50412 0"/>
<use data-text="R" xlink:href="#font_2_6" transform="matrix(9.9626,0,0,-9.9626,61.022,50.34999)"/>
<use data-text="e" xlink:href="#font_2_14" transform="matrix(9.9626,0,0,-9.9626,68.35448,50.34999)"/>
<use data-text="a" xlink:href="#font_2_10" transform="matrix(9.9626,0,0,-9.9626,72.77787,50.34999)"/>
<use data-text="l" xlink:href="#font_2_20" transform="matrix(9.9626,0,0,-9.9626,77.75917,50.34999)"/>
<use data-text="S" xlink:href="#font_2_7" transform="matrix(9.9626,0,0,-9.9626,83.84631,50.34999)"/>
<use data-text="p" xlink:href="#font_2_24" transform="matrix(9.9626,0,0,-9.9626,89.37556,50.34999)"/>
<use data-text="e" xlink:href="#font_2_14" transform="matrix(9.9626,0,0,-9.9626,95.183757,50.34999)"/>
<use data-text="e" xlink:href="#font_2_14" transform="matrix(9.9626,0,0,-9.9626,99.60715,50.34999)"/>
<use data-text="d" xlink:href="#font_2_13" transform="matrix(9.9626,0,0,-9.9626,104.03054,50.34999)"/>
<use data-text="u" xlink:href="#font_2_28" transform="matrix(9.9626,0,0,-9.9626,109.559787,50.34999)"/>
<use data-text="p" xlink:href="#font_2_24" transform="matrix(9.9626,0,0,-9.9626,115.08903,50.34999)"/>
<use data-text="F" xlink:href="#font_3_1" transform="matrix(9.9626,0,0,-9.9626,123.965,50.34999)"/>
<use data-text="&#x2217;" xlink:href="#font_4_1" transform="matrix(6.9738,0,0,-6.9738,131.174,46.733995)"/>
<path transform="matrix(1,0,0,-1,41.622999,60.006998)" stroke-width=".79701" stroke-linecap="butt" stroke-dasharray="2.98883,2.98883" stroke-miterlimit="10" stroke-linejoin="miter" fill="none" stroke="#988ed5" d="M0 0H8.50412 17.00826"/>
<use data-text="I" xlink:href="#font_2_3" transform="matrix(9.9626,0,0,-9.9626,61.022,62.689989)"/>
<use data-text="d" xlink:href="#font_2_13" transform="matrix(9.9626,0,0,-9.9626,64.6185,62.689989)"/>
<use data-text="e" xlink:href="#font_2_14" transform="matrix(9.9626,0,0,-9.9626,70.14774,62.689989)"/>
<use data-text="a" xlink:href="#font_2_10" transform="matrix(9.9626,0,0,-9.9626,74.57114,62.689989)"/>
<use data-text="l" xlink:href="#font_2_20" transform="matrix(9.9626,0,0,-9.9626,79.55244,62.689989)"/>
<use data-text="S" xlink:href="#font_2_7" transform="matrix(9.9626,0,0,-9.9626,85.63958,62.689989)"/>
<use data-text="p" xlink:href="#font_2_24" transform="matrix(9.9626,0,0,-9.9626,91.16882,62.689989)"/>
<use data-text="e" xlink:href="#font_2_14" transform="matrix(9.9626,0,0,-9.9626,96.97702,62.689989)"/>
<use data-text="e" xlink:href="#font_2_14" transform="matrix(9.9626,0,0,-9.9626,101.40041,62.689989)"/>
<use data-text="d" xlink:href="#font_2_13" transform="matrix(9.9626,0,0,-9.9626,105.82381,62.689989)"/>
<use data-text="u" xlink:href="#font_2_28" transform="matrix(9.9626,0,0,-9.9626,111.35305,62.689989)"/>
<use data-text="p" xlink:href="#font_2_24" transform="matrix(9.9626,0,0,-9.9626,116.88229,62.689989)"/>
<path transform="matrix(1,0,0,-1,282.483,183.508)" d="M0 0H194.27188V161.39575H0Z" fill="#e5e5e5"/>
<path transform="matrix(1,0,0,-1,282.483,183.508)" stroke-width=".3985" stroke-linecap="butt" stroke-miterlimit="10" stroke-linejoin="miter" fill="none" stroke="#ffffff" d="M8.83054 0V161.39575M34.06065 0V161.39575M59.29076 0V161.39575M84.52087 0V161.39575M109.75099 0V161.39575M134.98111 0V161.39575M160.21123 0V161.39575M185.44135 0V161.39575"/>
<path transform="matrix(1,0,0,-1,282.483,183.508)" stroke-width=".3985" stroke-linecap="butt" stroke-miterlimit="10" stroke-linejoin="miter" fill="none" stroke="#ffffff" d="M0 0H194.27188M0 30.74203H194.27188M0 61.48409H194.27188M0 92.22614H194.27188M0 122.96819H194.27188M0 153.71024H194.27188"/>
<path transform="matrix(1,0,0,-1,282.483,183.508)" stroke-width=".19925" stroke-linecap="butt" stroke-miterlimit="10" stroke-linejoin="miter" fill="none" stroke="#262626" d="M13.03555-2.83527V0M17.24057-2.83527V0M21.44559-2.83527V0M25.6506-2.83527V0M29.85564-2.83527V0M38.26567-2.83527V0M42.47069-2.83527V0M46.6757-2.83527V0M50.88072-2.83527V0M55.08574-2.83527V0M63.49579-2.83527V0M67.7008-2.83527V0M71.90582-2.83527V0M76.11084-2.83527V0M80.31586-2.83527V0M88.72589-2.83527V0M92.93092-2.83527V0M97.13594-2.83527V0M101.34096-2.83527V0M105.54597-2.83527V0M113.95601-2.83527V0M118.16103-2.83527V0M122.36606-2.83527V0M126.57108-2.83527V0M130.7761-2.83527V0M139.18613-2.83527V0M143.39115-2.83527V0M147.59616-2.83527V0M151.8012-2.83527V0M156.00621-2.83527V0M164.41625-2.83527V0M168.62126-2.83527V0M172.82628-2.83527V0M177.0313-2.83527V0M181.23633-2.83527V0"/>
<path transform="matrix(1,0,0,-1,282.483,183.508)" stroke-width=".19925" stroke-linecap="butt" stroke-miterlimit="10" stroke-linejoin="miter" fill="none" stroke="#262626" d="M8.83054-4.25249V0M34.06065-4.25249V0M59.29076-4.25249V0M84.52087-4.25249V0M109.75099-4.25249V0M134.98111-4.25249V0M160.21123-4.25249V0M185.44135-4.25249V0"/>
<path transform="matrix(1,0,0,-1,282.483,183.508)" stroke-width=".19925" stroke-linecap="butt" stroke-miterlimit="10" stroke-linejoin="miter" fill="none" stroke="#262626" d="M-2.83485 7.6855H0M-2.83485 15.37102H0M-2.83485 23.05653H0M-2.83485 38.42755H0M-2.83485 46.11307H0M-2.83485 53.79858H0M-2.83485 69.1696H0M-2.83485 76.85512H0M-2.83485 84.54062H0M-2.83485 99.91165H0M-2.83485 107.59717H0M-2.83485 115.28267H0M-2.83485 130.6537H0M-2.83485 138.33922H0M-2.83485 146.02472H0"/>
<path transform="matrix(1,0,0,-1,282.483,183.508)" stroke-width=".19925" stroke-linecap="butt" stroke-miterlimit="10" stroke-linejoin="miter" fill="none" stroke="#262626" d="M-4.25186 0H0M-4.25186 30.74203H0M-4.25186 61.48409H0M-4.25186 92.22614H0M-4.25186 122.96819H0M-4.25186 153.71024H0"/>
<path transform="matrix(1,0,0,-1,282.483,183.508)" stroke-width=".3985" stroke-linecap="butt" stroke-miterlimit="10" stroke-linejoin="miter" fill="none" stroke="#ffffff" d="M0 0V161.39575H194.27188V0H0Z"/>
<use data-text="6" xlink:href="#font_0_6" transform="matrix(9.9626,0,0,-9.9626,288.822,197.7)"/>
<use data-text="1" xlink:href="#font_0_2" transform="matrix(9.9626,0,0,-9.9626,311.562,197.7)"/>
<use data-text="2" xlink:href="#font_0_3" transform="matrix(9.9626,0,0,-9.9626,316.5433,197.7)"/>
<use data-text="1" xlink:href="#font_0_2" transform="matrix(9.9626,0,0,-9.9626,336.79103,197.7)"/>
<use data-text="8" xlink:href="#font_0_7" transform="matrix(9.9626,0,0,-9.9626,341.7723,197.7)"/>
<use data-text="2" xlink:href="#font_0_3" transform="matrix(9.9626,0,0,-9.9626,362.021,197.7)"/>
<use data-text="4" xlink:href="#font_0_5" transform="matrix(9.9626,0,0,-9.9626,367.0023,197.7)"/>
<use data-text="3" xlink:href="#font_0_4" transform="matrix(9.9626,0,0,-9.9626,387.251,197.7)"/>
<use data-text="0" xlink:href="#font_0_1" transform="matrix(9.9626,0,0,-9.9626,392.2323,197.7)"/>
<use data-text="3" xlink:href="#font_0_4" transform="matrix(9.9626,0,0,-9.9626,412.48103,197.7)"/>
<use data-text="6" xlink:href="#font_0_6" transform="matrix(9.9626,0,0,-9.9626,417.4623,197.7)"/>
<use data-text="4" xlink:href="#font_0_5" transform="matrix(9.9626,0,0,-9.9626,437.711,197.7)"/>
<use data-text="2" xlink:href="#font_0_3" transform="matrix(9.9626,0,0,-9.9626,442.6923,197.7)"/>
<use data-text="4" xlink:href="#font_0_5" transform="matrix(9.9626,0,0,-9.9626,462.94,197.7)"/>
<use data-text="8" xlink:href="#font_0_7" transform="matrix(9.9626,0,0,-9.9626,467.9213,197.7)"/>
<use data-text="0" xlink:href="#font_0_1" transform="matrix(9.9626,0,0,-9.9626,269.731,186.71799)"/>
<use data-text="0" xlink:href="#font_0_1" transform="matrix(9.9626,0,0,-9.9626,261.982,155.97699)"/>
<use data-text="." xlink:href="#font_5_1" transform="matrix(9.9626,0,0,-9.9626,266.96299,155.97699)"/>
<use data-text="2" xlink:href="#font_0_3" transform="matrix(9.9626,0,0,-9.9626,269.731,155.97699)"/>
<use data-text="0" xlink:href="#font_0_1" transform="matrix(9.9626,0,0,-9.9626,261.982,125.23499)"/>
<use data-text="." xlink:href="#font_5_1" transform="matrix(9.9626,0,0,-9.9626,266.96299,125.23499)"/>
<use data-text="4" xlink:href="#font_0_5" transform="matrix(9.9626,0,0,-9.9626,269.731,125.23499)"/>
<use data-text="0" xlink:href="#font_0_1" transform="matrix(9.9626,0,0,-9.9626,261.982,94.493)"/>
<use data-text="." xlink:href="#font_5_1" transform="matrix(9.9626,0,0,-9.9626,266.96299,94.493)"/>
<use data-text="6" xlink:href="#font_0_6" transform="matrix(9.9626,0,0,-9.9626,269.731,94.493)"/>
<use data-text="0" xlink:href="#font_0_1" transform="matrix(9.9626,0,0,-9.9626,261.982,63.752)"/>
<use data-text="." xlink:href="#font_5_1" transform="matrix(9.9626,0,0,-9.9626,266.96299,63.752)"/>
<use data-text="8" xlink:href="#font_0_7" transform="matrix(9.9626,0,0,-9.9626,269.731,63.752)"/>
<use data-text="1" xlink:href="#font_0_2" transform="matrix(9.9626,0,0,-9.9626,269.731,33.009996)"/>
<g clip-path="url(#clip_6)">
<path transform="matrix(1,0,0,-1,282.483,183.508)" stroke-width=".59776" stroke-linecap="butt" stroke-miterlimit="10" stroke-linejoin="miter" fill="none" stroke="#e24a33" d="M8.83054 153.71024 34.06065 150.32488 59.29076 147.4159 84.52087 144.59073 109.75099 141.67224 134.98111 139.25637 160.21123 136.65674 185.44135 134.15"/>
<path transform="matrix(1,0,0,-1,282.483,183.508)" stroke-width=".59776" stroke-linecap="butt" stroke-miterlimit="10" stroke-linejoin="miter" fill="none" stroke="#348abd" d="M8.83054 153.71024 34.06065 150.05864 59.29076 146.7713 84.52087 143.66613 109.75099 140.31317 134.98111 137.56484 160.21123 134.75818 185.44135 131.81078"/>
<path transform="matrix(1,0,0,-1,282.483,183.508)" stroke-width=".79701" stroke-linecap="butt" stroke-dasharray="2.98883,2.98883" stroke-miterlimit="10" stroke-linejoin="miter" fill="none" stroke="#988ed5" d="M8.83054 153.71024H185.44135"/>
</g>
<path transform="matrix(1,0,0,-1,282.483,183.508)" d="M5.8417 150.7214H11.819361V156.69907H5.8417Z" fill="#e24a33"/>
<path transform="matrix(1,0,0,-1,282.483,183.508)" stroke-width=".59776" stroke-linecap="butt" stroke-miterlimit="10" stroke-linejoin="miter" fill="none" stroke="#e24a33" d="M5.8417 150.7214H11.819361V156.69907H5.8417Z"/>
<path transform="matrix(1,0,0,-1,282.483,183.508)" d="M31.07182 147.33605H37.04948V153.3137H31.07182Z" fill="#e24a33"/>
<path transform="matrix(1,0,0,-1,282.483,183.508)" stroke-width=".59776" stroke-linecap="butt" stroke-miterlimit="10" stroke-linejoin="miter" fill="none" stroke="#e24a33" d="M31.07182 147.33605H37.04948V153.3137H31.07182Z"/>
<path transform="matrix(1,0,0,-1,282.483,183.508)" d="M56.30193 144.42707H62.27959V150.40473H56.30193Z" fill="#e24a33"/>
<path transform="matrix(1,0,0,-1,282.483,183.508)" stroke-width=".59776" stroke-linecap="butt" stroke-miterlimit="10" stroke-linejoin="miter" fill="none" stroke="#e24a33" d="M56.30193 144.42707H62.27959V150.40473H56.30193Z"/>
<path transform="matrix(1,0,0,-1,282.483,183.508)" d="M81.53204 141.6019H87.509708V147.57956H81.53204Z" fill="#e24a33"/>
<path transform="matrix(1,0,0,-1,282.483,183.508)" stroke-width=".59776" stroke-linecap="butt" stroke-miterlimit="10" stroke-linejoin="miter" fill="none" stroke="#e24a33" d="M81.53204 141.6019H87.509708V147.57956H81.53204Z"/>
<path transform="matrix(1,0,0,-1,282.483,183.508)" d="M106.76216 138.68341H112.73982V144.66107H106.76216Z" fill="#e24a33"/>
<path transform="matrix(1,0,0,-1,282.483,183.508)" stroke-width=".59776" stroke-linecap="butt" stroke-miterlimit="10" stroke-linejoin="miter" fill="none" stroke="#e24a33" d="M106.76216 138.68341H112.73982V144.66107H106.76216Z"/>
<path transform="matrix(1,0,0,-1,282.483,183.508)" d="M131.99228 136.26753H137.96994V142.2452H131.99228Z" fill="#e24a33"/>
<path transform="matrix(1,0,0,-1,282.483,183.508)" stroke-width=".59776" stroke-linecap="butt" stroke-miterlimit="10" stroke-linejoin="miter" fill="none" stroke="#e24a33" d="M131.99228 136.26753H137.96994V142.2452H131.99228Z"/>
<path transform="matrix(1,0,0,-1,282.483,183.508)" d="M157.2224 133.66791H163.20006V139.64557H157.2224Z" fill="#e24a33"/>
<path transform="matrix(1,0,0,-1,282.483,183.508)" stroke-width=".59776" stroke-linecap="butt" stroke-miterlimit="10" stroke-linejoin="miter" fill="none" stroke="#e24a33" d="M157.2224 133.66791H163.20006V139.64557H157.2224Z"/>
<path transform="matrix(1,0,0,-1,282.483,183.508)" d="M182.45252 131.16117H188.43018V137.13883H182.45252Z" fill="#e24a33"/>
<path transform="matrix(1,0,0,-1,282.483,183.508)" stroke-width=".59776" stroke-linecap="butt" stroke-miterlimit="10" stroke-linejoin="miter" fill="none" stroke="#e24a33" d="M182.45252 131.16117H188.43018V137.13883H182.45252Z"/>
<path transform="matrix(1,0,0,-1,282.483,183.508)" stroke-width=".59776" stroke-linecap="butt" stroke-miterlimit="10" stroke-linejoin="miter" fill="none" stroke="#e24a33" d=""/>
<path transform="matrix(1,0,0,-1,282.483,183.508)" d="M11.81937 153.71024C11.81937 155.36095 10.48125 156.69907 8.83054 156.69907 7.17982 156.69907 5.8417 155.36095 5.8417 153.71024 5.8417 152.05953 7.17982 150.7214 8.83054 150.7214 10.48125 150.7214 11.81937 152.05953 11.81937 153.71024ZM8.83054 153.71024" fill="#348abd"/>
<path transform="matrix(1,0,0,-1,282.483,183.508)" stroke-width=".59776" stroke-linecap="butt" stroke-miterlimit="10" stroke-linejoin="miter" fill="none" stroke="#348abd" d="M11.81937 153.71024C11.81937 155.36095 10.48125 156.69907 8.83054 156.69907 7.17982 156.69907 5.8417 155.36095 5.8417 153.71024 5.8417 152.05953 7.17982 150.7214 8.83054 150.7214 10.48125 150.7214 11.81937 152.05953 11.81937 153.71024ZM8.83054 153.71024"/>
<path transform="matrix(1,0,0,-1,282.483,183.508)" d="M37.04948 150.05864C37.04948 151.70935 35.71135 153.04747 34.06065 153.04747 32.40994 153.04747 31.07182 151.70935 31.07182 150.05864 31.07182 148.40795 32.40994 147.06981 34.06065 147.06981 35.71135 147.06981 37.04948 148.40795 37.04948 150.05864ZM34.06065 150.05864" fill="#348abd"/>
<path transform="matrix(1,0,0,-1,282.483,183.508)" stroke-width=".59776" stroke-linecap="butt" stroke-miterlimit="10" stroke-linejoin="miter" fill="none" stroke="#348abd" d="M37.04948 150.05864C37.04948 151.70935 35.71135 153.04747 34.06065 153.04747 32.40994 153.04747 31.07182 151.70935 31.07182 150.05864 31.07182 148.40795 32.40994 147.06981 34.06065 147.06981 35.71135 147.06981 37.04948 148.40795 37.04948 150.05864ZM34.06065 150.05864"/>
<path transform="matrix(1,0,0,-1,282.483,183.508)" d="M62.27959 146.7713C62.27959 148.42201 60.94147 149.76013 59.29076 149.76013 57.64006 149.76013 56.30193 148.42201 56.30193 146.7713 56.30193 145.1206 57.64006 143.78247 59.29076 143.78247 60.94147 143.78247 62.27959 145.1206 62.27959 146.7713ZM59.29076 146.7713" fill="#348abd"/>
<path transform="matrix(1,0,0,-1,282.483,183.508)" stroke-width=".59776" stroke-linecap="butt" stroke-miterlimit="10" stroke-linejoin="miter" fill="none" stroke="#348abd" d="M62.27959 146.7713C62.27959 148.42201 60.94147 149.76013 59.29076 149.76013 57.64006 149.76013 56.30193 148.42201 56.30193 146.7713 56.30193 145.1206 57.64006 143.78247 59.29076 143.78247 60.94147 143.78247 62.27959 145.1206 62.27959 146.7713ZM59.29076 146.7713"/>
<path transform="matrix(1,0,0,-1,282.483,183.508)" d="M87.5097 143.66613C87.5097 145.31684 86.17159 146.65496 84.52087 146.65496 82.87018 146.65496 81.53204 145.31684 81.53204 143.66613 81.53204 142.01541 82.87018 140.67729 84.52087 140.67729 86.17159 140.67729 87.5097 142.01541 87.5097 143.66613ZM84.52087 143.66613" fill="#348abd"/>
<path transform="matrix(1,0,0,-1,282.483,183.508)" stroke-width=".59776" stroke-linecap="butt" stroke-miterlimit="10" stroke-linejoin="miter" fill="none" stroke="#348abd" d="M87.5097 143.66613C87.5097 145.31684 86.17159 146.65496 84.52087 146.65496 82.87018 146.65496 81.53204 145.31684 81.53204 143.66613 81.53204 142.01541 82.87018 140.67729 84.52087 140.67729 86.17159 140.67729 87.5097 142.01541 87.5097 143.66613ZM84.52087 143.66613"/>
<path transform="matrix(1,0,0,-1,282.483,183.508)" d="M112.73982 140.31317C112.73982 141.96389 111.4017 143.302 109.75099 143.302 108.10028 143.302 106.76216 141.96389 106.76216 140.31317 106.76216 138.66246 108.10028 137.32434 109.75099 137.32434 111.4017 137.32434 112.73982 138.66246 112.73982 140.31317ZM109.75099 140.31317" fill="#348abd"/>
<path transform="matrix(1,0,0,-1,282.483,183.508)" stroke-width=".59776" stroke-linecap="butt" stroke-miterlimit="10" stroke-linejoin="miter" fill="none" stroke="#348abd" d="M112.73982 140.31317C112.73982 141.96389 111.4017 143.302 109.75099 143.302 108.10028 143.302 106.76216 141.96389 106.76216 140.31317 106.76216 138.66246 108.10028 137.32434 109.75099 137.32434 111.4017 137.32434 112.73982 138.66246 112.73982 140.31317ZM109.75099 140.31317"/>
<path transform="matrix(1,0,0,-1,282.483,183.508)" d="M137.96994 137.56484C137.96994 139.21555 136.63182 140.55367 134.98111 140.55367 133.3304 140.55367 131.99228 139.21555 131.99228 137.56484 131.99228 135.91414 133.3304 134.576 134.98111 134.576 136.63182 134.576 137.96994 135.91414 137.96994 137.56484ZM134.98111 137.56484" fill="#348abd"/>
<path transform="matrix(1,0,0,-1,282.483,183.508)" stroke-width=".59776" stroke-linecap="butt" stroke-miterlimit="10" stroke-linejoin="miter" fill="none" stroke="#348abd" d="M137.96994 137.56484C137.96994 139.21555 136.63182 140.55367 134.98111 140.55367 133.3304 140.55367 131.99228 139.21555 131.99228 137.56484 131.99228 135.91414 133.3304 134.576 134.98111 134.576 136.63182 134.576 137.96994 135.91414 137.96994 137.56484ZM134.98111 137.56484"/>
<path transform="matrix(1,0,0,-1,282.483,183.508)" d="M163.20006 134.75818C163.20006 136.40888 161.86194 137.74701 160.21123 137.74701 158.56052 137.74701 157.2224 136.40888 157.2224 134.75818 157.2224 133.10747 158.56052 131.76935 160.21123 131.76935 161.86194 131.76935 163.20006 133.10747 163.20006 134.75818ZM160.21123 134.75818" fill="#348abd"/>
<path transform="matrix(1,0,0,-1,282.483,183.508)" stroke-width=".59776" stroke-linecap="butt" stroke-miterlimit="10" stroke-linejoin="miter" fill="none" stroke="#348abd" d="M163.20006 134.75818C163.20006 136.40888 161.86194 137.74701 160.21123 137.74701 158.56052 137.74701 157.2224 136.40888 157.2224 134.75818 157.2224 133.10747 158.56052 131.76935 160.21123 131.76935 161.86194 131.76935 163.20006 133.10747 163.20006 134.75818ZM160.21123 134.75818"/>
<path transform="matrix(1,0,0,-1,282.483,183.508)" d="M188.43018 131.81078C188.43018 133.46149 187.09204 134.7996 185.44135 134.7996 183.79064 134.7996 182.45252 133.46149 182.45252 131.81078 182.45252 130.16008 183.79064 128.82195 185.44135 128.82195 187.09204 128.82195 188.43018 130.16008 188.43018 131.81078ZM185.44135 131.81078" fill="#348abd"/>
<path transform="matrix(1,0,0,-1,282.483,183.508)" stroke-width=".59776" stroke-linecap="butt" stroke-miterlimit="10" stroke-linejoin="miter" fill="none" stroke="#348abd" d="M188.43018 131.81078C188.43018 133.46149 187.09204 134.7996 185.44135 134.7996 183.79064 134.7996 182.45252 133.46149 182.45252 131.81078 182.45252 130.16008 183.79064 128.82195 185.44135 128.82195 187.09204 128.82195 188.43018 130.16008 188.43018 131.81078ZM185.44135 131.81078"/>
<path transform="matrix(1,0,0,-1,282.483,183.508)" stroke-width=".59776" stroke-linecap="butt" stroke-miterlimit="10" stroke-linejoin="miter" fill="none" stroke="#348abd" d=""/>
<use data-text="N" xlink:href="#font_2_4" transform="matrix(9.9626,0,0,-9.9626,341.706,211.399)" fill="#262626"/>
<use data-text="u" xlink:href="#font_2_28" transform="matrix(9.9626,0,0,-9.9626,349.17796,211.399)" fill="#262626"/>
<use data-text="m" xlink:href="#font_2_21" transform="matrix(9.9626,0,0,-9.9626,354.70719,211.399)" fill="#262626"/>
<use data-text="b" xlink:href="#font_2_11" transform="matrix(9.9626,0,0,-9.9626,362.72709,211.399)" fill="#262626"/>
<use data-text="e" xlink:href="#font_2_14" transform="matrix(9.9626,0,0,-9.9626,368.53529,211.399)" fill="#262626"/>
<use data-text="r" xlink:href="#font_2_25" transform="matrix(9.9626,0,0,-9.9626,372.95869,211.399)" fill="#262626"/>
<use data-text="o" xlink:href="#font_2_23" transform="matrix(9.9626,0,0,-9.9626,380.18156,211.399)" fill="#262626"/>
<use data-text="f" xlink:href="#font_2_15" transform="matrix(9.9626,0,0,-9.9626,385.16285,211.399)" fill="#262626"/>
<use data-text="G" xlink:href="#font_2_2" transform="matrix(9.9626,0,0,-9.9626,391.5389,211.399)" fill="#262626"/>
<use data-text="P" xlink:href="#font_2_5" transform="matrix(9.9626,0,0,-9.9626,399.35957,211.399)" fill="#262626"/>
<use data-text="U" xlink:href="#font_2_8" transform="matrix(9.9626,0,0,-9.9626,406.13414,211.399)" fill="#262626"/>
<use data-text="s" xlink:href="#font_2_26" transform="matrix(9.9626,0,0,-9.9626,413.60609,211.399)" fill="#262626"/>
<use data-text="E" xlink:href="#font_2_1" transform="matrix(0,-9.9626,-9.9626,-0,253.20699,123.76901)" fill="#262626"/>
<use data-text="f" xlink:href="#font_2_16" transform="matrix(0,-9.9626,-9.9626,-0,253.20699,116.994449)" fill="#262626"/>
<use data-text="c" xlink:href="#font_2_12" transform="matrix(0,-9.9626,-9.9626,-0,253.20699,108.69559)" fill="#262626"/>
<use data-text="i" xlink:href="#font_2_18" transform="matrix(0,-9.9626,-9.9626,-0,253.20699,104.27219)" fill="#262626"/>
<use data-text="e" xlink:href="#font_2_14" transform="matrix(0,-9.9626,-9.9626,-0,253.20699,101.502597)" fill="#262626"/>
<use data-text="n" xlink:href="#font_2_22" transform="matrix(0,-9.9626,-9.9626,-0,253.20699,97.07919)" fill="#262626"/>
<use data-text="c" xlink:href="#font_2_12" transform="matrix(0,-9.9626,-9.9626,-0,253.20699,91.54996)" fill="#262626"/>
<use data-text="y" xlink:href="#font_2_29" transform="matrix(0,-9.9626,-9.9626,-0,253.20699,87.12656)" fill="#262626"/>
<use data-text="W" xlink:href="#font_2_9" transform="matrix(9.9626,0,0,-9.9626,350.42903,10.681)"/>
<use data-text="e" xlink:href="#font_2_14" transform="matrix(9.9626,0,0,-9.9626,359.84367,10.681)"/>
<use data-text="a" xlink:href="#font_2_10" transform="matrix(9.9626,0,0,-9.9626,364.26707,10.681)"/>
<use data-text="k" xlink:href="#font_2_19" transform="matrix(9.9626,0,0,-9.9626,369.24836,10.681)"/>
<use data-text="S" xlink:href="#font_2_7" transform="matrix(9.9626,0,0,-9.9626,377.82615,10.681)"/>
<use data-text="c" xlink:href="#font_2_12" transform="matrix(9.9626,0,0,-9.9626,383.35539,10.681)"/>
<use data-text="a" xlink:href="#font_2_10" transform="matrix(9.9626,0,0,-9.9626,387.77879,10.681)"/>
<use data-text="l" xlink:href="#font_2_20" transform="matrix(9.9626,0,0,-9.9626,392.76008,10.681)"/>
<use data-text="i" xlink:href="#font_2_18" transform="matrix(9.9626,0,0,-9.9626,395.52967,10.681)"/>
<use data-text="n" xlink:href="#font_2_22" transform="matrix(9.9626,0,0,-9.9626,398.29927,10.681)"/>
<use data-text="g" xlink:href="#font_2_17" transform="matrix(9.9626,0,0,-9.9626,403.8285,10.681)"/>
<path transform="matrix(1,0,0,-1,282.483,183.508)" d="M6.02715 5.04091H152.51967V46.04799H6.02715Z" fill="#e5e5e5" fill-opacity=".8"/>
<path transform="matrix(1,0,0,-1,282.483,183.508)" stroke-width=".3985" stroke-linecap="butt" stroke-miterlimit="10" stroke-linejoin="miter" fill="none" stroke="#cccccc" d="M6.02715 5.04091H152.51967V46.04799H6.02715Z"/>
<path transform="matrix(1,0,0,-1,291.897,145.623)" stroke-width=".59776" stroke-linecap="butt" stroke-miterlimit="10" stroke-linejoin="miter" fill="none" stroke="#e24a33" d="M0 0H8.50412 17.00826"/>
<path transform="matrix(1,0,0,-1,291.897,145.623)" d="M5.51529-2.98883H11.49295V2.98883H5.51529Z" fill="#e24a33" fill-opacity=".8"/>
<path transform="matrix(1,0,0,-1,291.897,145.623)" stroke-width=".59776" stroke-linecap="butt" stroke-miterlimit="10" stroke-linejoin="miter" fill="none" stroke="#e24a33" d="M5.51529-2.98883H11.49295V2.98883H5.51529Z"/>
<use data-text="W" xlink:href="#font_2_9" transform="matrix(9.9626,0,0,-9.9626,311.296,148.307)"/>
<use data-text="e" xlink:href="#font_2_14" transform="matrix(9.9626,0,0,-9.9626,320.71064,148.307)"/>
<use data-text="a" xlink:href="#font_2_10" transform="matrix(9.9626,0,0,-9.9626,325.13404,148.307)"/>
<use data-text="k" xlink:href="#font_2_19" transform="matrix(9.9626,0,0,-9.9626,330.11534,148.307)"/>
<use data-text="S" xlink:href="#font_2_7" transform="matrix(9.9626,0,0,-9.9626,338.6931,148.307)"/>
<use data-text="c" xlink:href="#font_2_12" transform="matrix(9.9626,0,0,-9.9626,344.22236,148.307)"/>
<use data-text="a" xlink:href="#font_2_10" transform="matrix(9.9626,0,0,-9.9626,348.64576,148.307)"/>
<use data-text="l" xlink:href="#font_2_20" transform="matrix(9.9626,0,0,-9.9626,353.62705,148.307)"/>
<use data-text="i" xlink:href="#font_2_18" transform="matrix(9.9626,0,0,-9.9626,356.39665,148.307)"/>
<use data-text="n" xlink:href="#font_2_22" transform="matrix(9.9626,0,0,-9.9626,359.16624,148.307)"/>
<use data-text="g" xlink:href="#font_2_17" transform="matrix(9.9626,0,0,-9.9626,364.69548,148.307)"/>
<use data-text="E" xlink:href="#font_2_1" transform="matrix(9.9626,0,0,-9.9626,372.9943,148.307)"/>
<use data-text="f" xlink:href="#font_2_16" transform="matrix(9.9626,0,0,-9.9626,379.76887,148.307)"/>
<use data-text="c" xlink:href="#font_2_12" transform="matrix(9.9626,0,0,-9.9626,388.06773,148.307)"/>
<use data-text="i" xlink:href="#font_2_18" transform="matrix(9.9626,0,0,-9.9626,392.49113,148.307)"/>
<use data-text="e" xlink:href="#font_2_14" transform="matrix(9.9626,0,0,-9.9626,395.2607,148.307)"/>
<use data-text="n" xlink:href="#font_2_22" transform="matrix(9.9626,0,0,-9.9626,399.6841,148.307)"/>
<use data-text="c" xlink:href="#font_2_12" transform="matrix(9.9626,0,0,-9.9626,405.21336,148.307)"/>
<use data-text="y" xlink:href="#font_2_29" transform="matrix(9.9626,0,0,-9.9626,409.63676,148.307)"/>
<use data-text="F" xlink:href="#font_3_1" transform="matrix(9.9626,0,0,-9.9626,418.22999,148.307)"/>
<path transform="matrix(1,0,0,-1,291.897,157.964)" stroke-width=".59776" stroke-linecap="butt" stroke-miterlimit="10" stroke-linejoin="miter" fill="none" stroke="#348abd" d="M0 0H8.50412 17.00826"/>
<path transform="matrix(1,0,0,-1,291.897,157.964)" d="M11.49295 0C11.49295 1.6507 10.15482 2.98883 8.50412 2.98883 6.85341 2.98883 5.51529 1.6507 5.51529 0 5.51529-1.6507 6.85341-2.98883 8.50412-2.98883 10.15482-2.98883 11.49295-1.6507 11.49295 0ZM8.50412 0" fill="#348abd" fill-opacity=".8"/>
<path transform="matrix(1,0,0,-1,291.897,157.964)" stroke-width=".59776" stroke-linecap="butt" stroke-miterlimit="10" stroke-linejoin="miter" fill="none" stroke="#348abd" d="M11.49295 0C11.49295 1.6507 10.15482 2.98883 8.50412 2.98883 6.85341 2.98883 5.51529 1.6507 5.51529 0 5.51529-1.6507 6.85341-2.98883 8.50412-2.98883 10.15482-2.98883 11.49295-1.6507 11.49295 0ZM8.50412 0"/>
<use data-text="W" xlink:href="#font_2_9" transform="matrix(9.9626,0,0,-9.9626,311.296,160.64801)"/>
<use data-text="e" xlink:href="#font_2_14" transform="matrix(9.9626,0,0,-9.9626,320.71064,160.64801)"/>
<use data-text="a" xlink:href="#font_2_10" transform="matrix(9.9626,0,0,-9.9626,325.13404,160.64801)"/>
<use data-text="k" xlink:href="#font_2_19" transform="matrix(9.9626,0,0,-9.9626,330.11534,160.64801)"/>
<use data-text="S" xlink:href="#font_2_7" transform="matrix(9.9626,0,0,-9.9626,338.6931,160.64801)"/>
<use data-text="c" xlink:href="#font_2_12" transform="matrix(9.9626,0,0,-9.9626,344.22236,160.64801)"/>
<use data-text="a" xlink:href="#font_2_10" transform="matrix(9.9626,0,0,-9.9626,348.64576,160.64801)"/>
<use data-text="l" xlink:href="#font_2_20" transform="matrix(9.9626,0,0,-9.9626,353.62705,160.64801)"/>
<use data-text="i" xlink:href="#font_2_18" transform="matrix(9.9626,0,0,-9.9626,356.39665,160.64801)"/>
<use data-text="n" xlink:href="#font_2_22" transform="matrix(9.9626,0,0,-9.9626,359.16624,160.64801)"/>
<use data-text="g" xlink:href="#font_2_17" transform="matrix(9.9626,0,0,-9.9626,364.69548,160.64801)"/>
<use data-text="E" xlink:href="#font_2_1" transform="matrix(9.9626,0,0,-9.9626,372.9943,160.64801)"/>
<use data-text="f" xlink:href="#font_2_16" transform="matrix(9.9626,0,0,-9.9626,379.76887,160.64801)"/>
<use data-text="c" xlink:href="#font_2_12" transform="matrix(9.9626,0,0,-9.9626,388.06773,160.64801)"/>
<use data-text="i" xlink:href="#font_2_18" transform="matrix(9.9626,0,0,-9.9626,392.49113,160.64801)"/>
<use data-text="e" xlink:href="#font_2_14" transform="matrix(9.9626,0,0,-9.9626,395.2607,160.64801)"/>
<use data-text="n" xlink:href="#font_2_22" transform="matrix(9.9626,0,0,-9.9626,399.6841,160.64801)"/>
<use data-text="c" xlink:href="#font_2_12" transform="matrix(9.9626,0,0,-9.9626,405.21336,160.64801)"/>
<use data-text="y" xlink:href="#font_2_29" transform="matrix(9.9626,0,0,-9.9626,409.63676,160.64801)"/>
<use data-text="F" xlink:href="#font_3_1" transform="matrix(9.9626,0,0,-9.9626,418.22999,160.64801)"/>
<use data-text="&#x2217;" xlink:href="#font_4_1" transform="matrix(6.9738,0,0,-6.9738,425.439,157.03202)"/>
<path transform="matrix(1,0,0,-1,291.897,170.304)" stroke-width=".79701" stroke-linecap="butt" stroke-dasharray="2.98883,2.98883" stroke-miterlimit="10" stroke-linejoin="miter" fill="none" stroke="#988ed5" d="M0 0H8.50412 17.00826"/>
<use data-text="I" xlink:href="#font_2_3" transform="matrix(9.9626,0,0,-9.9626,311.296,172.988)"/>
<use data-text="d" xlink:href="#font_2_13" transform="matrix(9.9626,0,0,-9.9626,314.8925,172.988)"/>
<use data-text="e" xlink:href="#font_2_14" transform="matrix(9.9626,0,0,-9.9626,320.42173,172.988)"/>
<use data-text="a" xlink:href="#font_2_10" transform="matrix(9.9626,0,0,-9.9626,324.84513,172.988)"/>
<use data-text="l" xlink:href="#font_2_20" transform="matrix(9.9626,0,0,-9.9626,329.82643,172.988)"/>
<use data-text="E" xlink:href="#font_2_1" transform="matrix(9.9626,0,0,-9.9626,335.91355,172.988)"/>
<use data-text="f" xlink:href="#font_2_16" transform="matrix(9.9626,0,0,-9.9626,342.6881,172.988)"/>
<use data-text="c" xlink:href="#font_2_12" transform="matrix(9.9626,0,0,-9.9626,350.98698,172.988)"/>
<use data-text="i" xlink:href="#font_2_18" transform="matrix(9.9626,0,0,-9.9626,355.41038,172.988)"/>
<use data-text="e" xlink:href="#font_2_14" transform="matrix(9.9626,0,0,-9.9626,358.17997,172.988)"/>
<use data-text="n" xlink:href="#font_2_22" transform="matrix(9.9626,0,0,-9.9626,362.60337,172.988)"/>
<use data-text="c" xlink:href="#font_2_12" transform="matrix(9.9626,0,0,-9.9626,368.1326,172.988)"/>
<use data-text="y" xlink:href="#font_2_29" transform="matrix(9.9626,0,0,-9.9626,372.56596,172.988)"/>
</svg>
