<svg xmlns="http://www.w3.org/2000/svg" xmlns:xlink="http://www.w3.org/1999/xlink" xmlns:inkscape="http://www.inkscape.org/namespaces/inkscape" version="1.1" width="244" height="151" viewBox="0 0 244 151">
<defs>
<path id="font_0_17" d="M.272995 .723999C.19699097 .723999 .13198853 .69200137 .08898926 .6329956 .04798889 .5779877 .0289917 .48799134 .0289917 .34999085 .0289917 .22399903 .04499817 .13598633 .07899475 .08198547 .12098694 .01399231 .18998719-.023010254 .272995-.023010254 .34999085-.023010254 .41299439 .0079956059 .45700074 .066986087 .49699403 .12199402 .5169983 .21299744 .5169983 .34599305 .5169983 .47599793 .5009918 .56399539 .46699525 .61898806 .4249878 .68699648 .35598756 .723999 .272995 .723999M.272995 .61099246C.30899049 .61099246 .33799745 .59098818 .35499574 .55400088 .36898805 .5239868 .3769989 .44699098 .3769989 .34899903 .3769989 .2689972 .36999513 .19099427 .35899354 .1619873 .34298707 .11999512 .31298829 .09700012 .272995 .09700012 .23599243 .09700012 .20799256 .115997318 .19099427 .1519928 .1769867 .18199158 .16899109 .2559967 .16899109 .35099793 .16899109 .43499757 .17599488 .5149994 .18699646 .5439911 .20199585 .58699038 .23298645 .61099246 .272995 .61099246Z"/>
<path id="font_0_22" d="M.4889984 .70899966H.10998535L.04699707 .31399537H.17298889C.18798828 .34899903 .21998596 .36799623 .2630005 .36799623 .33399964 .36799623 .3769989 .31698609 .3769989 .23098755 .3769989 .147995 .33399964 .09700012 .2630005 .09700012 .20199585 .09700012 .16799927 .12799073 .16499329 .18499756H.026992798C.0289917 .06098938 .12298584-.023010254 .26098634-.023010254 .41299439-.023010254 .5169983 .08099365 .5169983 .23399353 .5169983 .37998963 .4269867 .47898866 .29599 .47898866 .24899292 .47898866 .21398926 .46699525 .17298889 .43598939L.19599915 .58399966H.4889984V.70899966Z"/>
<path id="font_0_18" d="M.23799134 .4889984V0H.37799073V.70899966H.2849884C.2630005 .625 .18998719 .58200076 .067993167 .58200076V.4889984H.23799134Z"/>
<path id="font_0_19" d="M.5119934 .125H.21099854C.22999573 .16299439 .2519989 .18399048 .35598756 .25898744 .47898866 .34899903 .5149994 .4019928 .5149994 .49899293 .5149994 .6359863 .41999818 .723999 .27198792 .723999 .125 .723999 .038986207 .6369934 .038986207 .4869995V.46199037H.17399597V.4850006C.17399597 .56399539 .21099854 .6100006 .2749939 .6100006 .33699037 .6100006 .375 .5669861 .375 .49598695 .375 .4169922 .35099793 .3880005 .19299317 .27598573 .07299805 .19400025 .035995485 .13198853 .02999878 0H.5119934V.125Z"/>
<path id="font_0_53" d="M.3849945 .60398867H.59799197V.72898867H.01399231V.60398867H.23498535V0H.3849945V.60398867Z"/>
<path id="font_0_74" d="M.20698548 .5399933H.066986087V0H.20698548V.5399933M.20698548 .72898867H.066986087V.60398867H.20698548V.72898867Z"/>
<path id="font_0_78" d="M.05999756 .5399933V0H.19999695V.32398988C.19999695 .3909912 .23599243 .42999269 .29599 .42999269 .34298707 .42999269 .37199403 .40299989 .37199403 .3600006V0H.5119934V.32398988C.5119934 .3899994 .5479889 .42999269 .60798647 .42999269 .6549988 .42999269 .6839905 .40299989 .6839905 .3600006V0H.82398989V.38198854C.82398989 .4869995 .7599945 .548996 .6519928 .548996 .58299258 .548996 .5359955 .5249939 .49398805 .46899415 .46798707 .519989 .4139862 .548996 .34700013 .548996 .2849884 .548996 .24499512 .5289917 .19898987 .47299195V.5399933H.05999756Z"/>
<path id="font_0_70" d="M.5239868 .22599793C.5249939 .23799134 .5249939 .24299622 .5249939 .25 .5249939 .3039856 .5169983 .35398866 .5039978 .3919983 .46798707 .48999024 .3809967 .548996 .27198792 .548996 .116989139 .548996 .021987915 .43699647 .021987915 .2559967 .021987915 .08299255 .115997318-.023010254 .2689972-.023010254 .3899994-.023010254 .48799134 .04499817 .5189972 .1519928H.3809967C.3639984 .10899353 .32499696 .083999637 .27398683 .083999637 .23399353 .083999637 .20199585 .100997928 .18199158 .1309967 .16899109 .15098572 .1639862 .1749878 .1619873 .22599793H.5239868M.1639862 .31900025C.17298889 .4019928 .20799256 .44198609 .269989 .44198609 .33399964 .44198609 .37199403 .39898683 .3789978 .31900025H.1639862Z"/>
<path id="font_0_1" d="M0 0Z"/>
<path id="font_0_9" d="M.20298767 .72898867C.08799744 .5549927 .039993287 .4189911 .039993287 .2649994 .039993287 .10998535 .08799744-.026000977 .20298767-.2000122H.30299378C.19599915 .005996704 .16299439 .116989139 .16299439 .2649994 .16299439 .4119873 .19699097 .5249939 .30299378 .72898867H.20298767Z"/>
<path id="font_0_84" d="M.5049896 .3659973C.5029907 .47999574 .4149933 .548996 .269989 .548996 .1329956 .548996 .04798889 .47999574 .04798889 .36898805 .04798889 .33299256 .05899048 .3019867 .07798767 .2809906 .09700012 .2619934 .11399841 .25299073 .1659851 .23599243L.33299256 .18399048C.36799623 .17298889 .37998963 .1619873 .37998963 .13999939 .37998963 .10699463 .34098817 .08699036 .27598573 .08699036 .23899842 .08699036 .21099854 .09298706 .19299317 .10598755 .17799378 .116989139 .17199707 .12799073 .1659851 .15699768H.0289917C.032989503 .037994386 .11999512-.023010254 .28399659-.023010254 .35899354-.023010254 .41600038-.007003784 .45599366 .024993897 .49598695 .056991579 .519989 .10699463 .519989 .1599884 .519989 .22999573 .4850006 .2749939 .4139862 .29599L.23699951 .34700013C.19799805 .35899354 .18798828 .36698915 .18798828 .3889923 .18798828 .4189911 .21998596 .43899537 .2689972 .43899537 .33599855 .43899537 .36898805 .4149933 .36999513 .3659973H.5049896Z"/>
<path id="font_0_10" d="M.12199402-.2000122C.23699951-.026000977 .2849884 .10998535 .2849884 .2639923 .2849884 .4189911 .23699951 .5549927 .12199402 .72898867H.021987915C.1289978 .522995 .1619873 .4119873 .1619873 .2639923 .1619873 .116989139 .12799073 .0039978029 .021987915-.2000122H.12199402Z"/>
<path id="font_0_14" d="M.2979889 .34199525H.025985718V.20698548H.2979889V.34199525Z"/>
<path id="font_0_15" d="M.21398926 .1459961H.06399536V0H.21398926V.1459961Z"/>
<path id="font_0_56" d="M.7299957 0 .9319916 .72898867H.772995L.6639862 .18199158 .54599 .72898867H.397995L.2849884 .18299866 .17199707 .72898867H.0129852299L.21899414 0H.35398866L.47299195 .56900027 .59498599 0H.7299957Z"/>
<path id="font_0_66" d="M.5239868 .016998291C.5 .039993287 .49198915 .055999757 .49198915 .08299255V.3829956C.49198915 .49299623 .4169922 .548996 .2709961 .548996 .125 .548996 .04899597 .4869995 .039993287 .3619995H.1749878C.18199158 .41799928 .20498657 .43598939 .27398683 .43598939 .32798768 .43598939 .35499574 .41799928 .35499574 .38198854 .35499574 .3639984 .34599305 .34899903 .33099366 .33999635 .31199647 .32998658 .31199647 .32998658 .24299622 .31900025L.18699646 .30899049C.07998657 .29100038 .027999878 .23599243 .027999878 .13899231 .027999878 .041992189 .09298706-.023010254 .19198609-.023010254 .2519989-.023010254 .30599977 .0019989014 .35598756 .053985597 .35598756 .025985718 .35899354 .015991211 .37199403 0H.5239868V.016998291M.35499574 .21699524C.35499574 .13598633 .31498719 .08999634 .24398804 .08999634 .19699097 .08999634 .16799927 .114990238 .16799927 .15499878 .16799927 .19699097 .18998719 .21699524 .24798584 .22898865L.29599 .23799134C.33299256 .24499512 .33898927 .24699402 .35499574 .25498963V.21699524Z"/>
<path id="font_0_87" d="M.34999085 0 .5359955 .5399933H.3880005L.2789917 .14498902 .1619873 .5399933H.01399231L.20298767 0H.34999085Z"/>
<path id="font_0_73" d="M.066986087 .72898867V0H.20698548V.32398988C.20698548 .38598634 .2519989 .42999269 .31498719 .42999269 .34599305 .42999269 .36898805 .4189911 .3849945 .39698792 .397995 .3789978 .40098573 .3639984 .40098573 .32998658V0H.54100039V.3619995C.54100039 .42900086 .522995 .47698976 .48599244 .5079956 .45498658 .5339966 .4099884 .548996 .36499024 .548996 .29599 .548996 .24598694 .5219879 .20698548 .46199037V.72898867H.066986087Z"/>
<path id="font_0_72" d="M.3999939 .5399933V.45700074C.36099244 .519989 .31799317 .548996 .26098634 .548996 .21299744 .548996 .1599884 .5249939 .12298584 .48599244 .068984989 .42999269 .040985109 .35198976 .040985109 .25698854 .040985109 .09098816 .1289978-.023010254 .2579956-.023010254 .31599427-.023010254 .35099793-.0040130617 .3999939 .054992677V-.018005372C.3999939-.08300781 .35398866-.12800598 .28799439-.12800598 .23799134-.12800598 .20698548-.10600281 .19599915-.06500244H.051986696C.052993776-.10700989 .067993167-.13600159 .10499573-.16600037 .147995-.20100403 .20698548-.21800232 .2829895-.21800232 .43899537-.21800232 .5329895-.14300537 .5329895-.018005372V.5399933H.3999939M.2869873 .43199159C.35299684 .43199159 .4019928 .35899354 .4019928 .25898744 .4019928 .16099549 .35499574 .09399414 .2849884 .09399414 .22399903 .09399414 .18099976 .16099549 .18099976 .25898744 .18099976 .36099244 .22399903 .43199159 .2869873 .43199159Z"/>
<path id="font_0_85" d="M.30099488 .5289917H.22299195V.673996H.08299255V.5289917H.01399231V.43598939H.08299255V.10398865C.08299255 .018997193 .12799073-.023010254 .21998596-.023010254 .2519989-.023010254 .2749939-.020004273 .30099488-.012008667V.085998538C.2869873 .083999637 .27999879 .08299255 .2689972 .08299255 .23199463 .08299255 .22299195 .09399414 .22299195 .14199829V.43598939H.30099488V.5289917Z"/>
<path id="font_0_83" d="M.06298828 .5399933V0H.20298767V.2869873C.20298767 .36898805 .24398804 .4099884 .32598878 .4099884 .34098817 .4099884 .35099793 .40899659 .36999513 .4059906V.5479889C.3619995 .548996 .35899354 .548996 .35299684 .548996 .2889862 .548996 .23399353 .5069885 .20298767 .43399049V.5399933H.06298828Z"/>
<path id="font_0_86" d="M.54100039 0V.5399933H.40098573V.20199585C.40098573 .13798523 .35699464 .09599304 .28799439 .09599304 .22799683 .09599304 .19799805 .12799073 .19799805 .19299317V.5399933H.057998659V.1639862C.057998659 .04399109 .12298584-.023010254 .23899842-.023010254 .31199647-.023010254 .36099244 .0029907227 .40098573 .06399536V0H.54100039Z"/>
<path id="font_0_50" d="M.6649933 .102996829C.71398928 .16299439 .7449951 .2630005 .7449951 .36099244 .7449951 .46798707 .70700076 .57099917 .6429901 .6399994 .5799866 .70799258 .49798585 .7409973 .3939972 .7409973 .2899933 .7409973 .20799256 .70799258 .14498902 .6399994 .07998657 .57099917 .042999269 .46798707 .042999269 .35899354 .042999269 .25 .08099365 .14698792 .14498902 .07798767 .20799256 .009994507 .2899933-.023010254 .3939972-.023010254 .46998597-.023010254 .5249939-.008010864 .58299258 .026992798L.6689911-.054000856 .7449951 .026992798 .6649933 .102996829M.47999574 .27799989 .4039917 .19699097 .48098756 .12399292C.45700074 .11199951 .4249878 .10499573 .3929901 .10499573 .272995 .10499573 .19299317 .20599365 .19299317 .35899354 .19299317 .5130005 .27198792 .61299136 .3939972 .61299136 .5159912 .61299136 .59498599 .5130005 .59498599 .35798646 .59498599 .2979889 .58399966 .24398804 .56199648 .19999695L.47999574 .27799989Z"/>
<path id="font_0_80" d="M.30099488 .548996C.13598633 .548996 .034988405 .43998719 .034988405 .2630005 .034988405 .084991458 .13598633-.023010254 .3019867-.023010254 .46699525-.023010254 .56900027 .084991458 .56900027 .25898744 .56900027 .44198609 .46998597 .548996 .30099488 .548996M.3019867 .43598939C.3789978 .43598939 .42900086 .36698915 .42900086 .26098634 .42900086 .1599884 .3769989 .08999634 .3019867 .08999634 .22599793 .08999634 .1749878 .15899658 .1749878 .2630005 .1749878 .36698915 .22599793 .43598939 .3019867 .43598939Z"/>
<path id="font_0_42" d="M.21299744 .72898867H.06298828V0H.21299744V.72898867Z"/>
<path id="font_0_49" d="M.22599793 .2599945H.41299439C.5469971 .2599945 .6329956 .35499574 .6329956 .5029907 .6329956 .6489868 .5499878 .72898867 .397995 .72898867H.07598877V0H.22599793V.2599945M.22599793 .3849945V.60398867H.3659973C.44599916 .60398867 .48298646 .56900027 .48298646 .49499513 .48298646 .41999818 .44599916 .3849945 .3659973 .3849945H.22599793Z"/>
<path id="font_0_69" d="M.40499879 0H.54499819V.72898867H.40499879V.46998597C.36999513 .5239868 .32398988 .548996 .2559967 .548996 .1269989 .548996 .0289917 .4249878 .0289917 .2619934 .0289917 .18899536 .050994874 .114990238 .08699036 .06298828 .12399292 .009994507 .18998719-.023010254 .2559967-.023010254 .32398988-.023010254 .36999513 .0009918213 .40499879 .054992677V0M.2869873 .43199159C.35798646 .43199159 .40499879 .3639984 .40499879 .2599945 .40499879 .1619873 .35699464 .09399414 .2869873 .09399414 .21699524 .09399414 .16899109 .16299439 .16899109 .2619934 .16899109 .36299134 .21699524 .43199159 .2869873 .43199159Z"/>
<path id="font_0_4" d="M.1459961-.03201294 .18598938 .17199707H.2889862L.24899292-.03201294H.35398866L.3939972 .17199707H.5130005V.2709961H.41299439L.44400025 .42399598H.5529938V.522995H.46299745L.49699403 .69699099H.3919983L.35798646 .522995H.25498963L.2889862 .69699099H.18399048L.1499939 .522995H.0309906V.42399598H.12998963L.099990848 .2709961H.0029907227V.17199707H.07998657L.039993287-.03201294H.1459961M.20498657 .2709961 .23498535 .42399598H.33799745L.30799867 .2709961H.20498657Z"/>
<path id="font_0_26" d="M.037994386 .16499329C.040985109 .055999757 .1329956-.024002076 .25498963-.024002076 .34599305-.024002076 .4149933 .01399231 .45700074 .085998538 .49398805 .14898682 .5159912 .2559967 .5159912 .36999513 .5159912 .47399903 .5 .55400088 .46699525 .60798647 .42199708 .6839905 .35198976 .723999 .2669983 .723999 .125 .723999 .027999878 .621994 .027999878 .47399903 .027999878 .32798768 .11399841 .22799683 .23999024 .22799683 .27598573 .22799683 .30999757 .23799134 .33198548 .2539978 .34498597 .2630005 .35299684 .27198792 .37599183 .2979889 .37599183 .16099549 .33799745 .09599304 .25898744 .09599304 .20899964 .09599304 .17599488 .12298584 .17298889 .16499329H.037994386M.2630005 .6100006C.33099366 .6100006 .37298585 .55799868 .37298585 .47399903 .37298585 .3959961 .32998658 .34399415 .2649994 .34399415 .20098877 .34399415 .16099549 .3939972 .16099549 .47599793 .16099549 .55799868 .19999695 .6100006 .2630005 .6100006Z"/>
<path id="font_0_6" d="M.20599365 .70098879C.10499573 .70098879 .021987915 .61898806 .021987915 .5189972 .021987915 .4189911 .10499573 .33699037 .20599365 .33699037 .30699159 .33699037 .3899994 .41799928 .3899994 .5169983 .3899994 .6199951 .30899049 .70098879 .20599365 .70098879M.20599365 .60198977C.2539978 .60198977 .29100038 .5649872 .29100038 .5179901 .29100038 .47200013 .25299073 .43499757 .20599365 .43499757 .15899658 .43499757 .12098694 .47200013 .12098694 .5189972 .12098694 .5649872 .15899658 .60198977 .20599365 .60198977M.60598757 .70899966 .20999146-.020004273H.2869873L.6819916 .70899966H.60598757M.67900088 .35198976C.57699587 .35198976 .49499513 .269989 .49499513 .16999817 .49499513 .068984989 .57699587-.013000488 .67900088-.013000488 .7799988-.013000488 .86299136 .068984989 .86299136 .16699219 .86299136 .2709961 .7819977 .35198976 .67900088 .35198976M.67900088 .25299073C.72698977 .25299073 .7639923 .21598816 .7639923 .16799927 .7639923 .12298584 .72499087 .084991458 .67900088 .084991458 .6319885 .084991458 .59399417 .12298584 .59399417 .16899109 .59399417 .21499634 .6319885 .25299073 .67900088 .25299073Z"/>
<path id="font_0_36" d="M.6819916 .48199464C.6769867 .54499819 .6639862 .58499148 .6329956 .6259918 .57699587 .69999697 .4869995 .7409973 .37799073 .7409973 .17199707 .7409973 .04399109 .59399417 .04399109 .35798646 .04399109 .12298584 .17098999-.023010254 .37399293-.023010254 .55599978-.023010254 .6759949 .08198547 .68499758 .24899292H.5389862C.5289917 .1559906 .47099305 .102996829 .37799073 .102996829 .2619934 .102996829 .19400025 .19699097 .19400025 .35598756 .19400025 .5169983 .2649994 .61299136 .3829956 .61299136 .46998597 .61299136 .5189972 .57099917 .5389862 .48199464H.6819916Z"/>
</defs>
<path transform="matrix(.5,0,0,.5,-15.475397,-34.325)" d="M0 0H1120V840H0Z" fill="#ffffff"/>
<path transform="matrix(.5,0,0,.5,-15.475397,-34.325)" d="M73 332.95H507V72.55H73Z" fill="#ffffff"/>
<path transform="matrix(.5,0,0,.5,-15.475397,-34.325)" stroke-width=".5" stroke-linecap="butt" stroke-linejoin="round" fill="none" stroke="#262626" stroke-opacity=".14901962" d="M73 332.95V72.55"/>
<path transform="matrix(.5,0,0,.5,-15.475397,-34.325)" stroke-width=".5" stroke-linecap="butt" stroke-linejoin="round" fill="none" stroke="#262626" stroke-opacity=".14901962" d="M159.8 332.95V72.55"/>
<path transform="matrix(.5,0,0,.5,-15.475397,-34.325)" stroke-width=".5" stroke-linecap="butt" stroke-linejoin="round" fill="none" stroke="#262626" stroke-opacity=".14901962" d="M246.6 332.95V72.55"/>
<path transform="matrix(.5,0,0,.5,-15.475397,-34.325)" stroke-width=".5" stroke-linecap="butt" stroke-linejoin="round" fill="none" stroke="#262626" stroke-opacity=".14901962" d="M333.4 332.95V72.55"/>
<path transform="matrix(.5,0,0,.5,-15.475397,-34.325)" stroke-width=".5" stroke-linecap="butt" stroke-linejoin="round" fill="none" stroke="#262626" stroke-opacity=".14901962" d="M420.2 332.95V72.55"/>
<path transform="matrix(.5,0,0,.5,-15.475397,-34.325)" stroke-width=".5" stroke-linecap="butt" stroke-linejoin="round" fill="none" stroke="#262626" stroke-opacity=".14901962" d="M507 332.95V72.55"/>
<path transform="matrix(.5,0,0,.5,-15.475397,-34.325)" stroke-width=".5" stroke-linecap="butt" stroke-linejoin="round" fill="none" stroke="#262626" stroke-opacity=".14901962" d="M507 332.95H73"/>
<path transform="matrix(.5,0,0,.5,-15.475397,-34.325)" stroke-width=".5" stroke-linecap="butt" stroke-linejoin="round" fill="none" stroke="#262626" stroke-opacity=".14901962" d="M507 267.85H73"/>
<path transform="matrix(.5,0,0,.5,-15.475397,-34.325)" stroke-width=".5" stroke-linecap="butt" stroke-linejoin="round" fill="none" stroke="#262626" stroke-opacity=".14901962" d="M507 202.75H73"/>
<path transform="matrix(.5,0,0,.5,-15.475397,-34.325)" stroke-width=".5" stroke-linecap="butt" stroke-linejoin="round" fill="none" stroke="#262626" stroke-opacity=".14901962" d="M507 137.65H73"/>
<path transform="matrix(.5,0,0,.5,-15.475397,-34.325)" stroke-width=".5" stroke-linecap="butt" stroke-linejoin="round" fill="none" stroke="#262626" stroke-opacity=".14901962" d="M507 72.55H73"/>
<path transform="matrix(.5,0,0,.5,-15.475397,-34.325)" stroke-width=".5" stroke-linecap="square" stroke-linejoin="round" fill="none" stroke="#262626" d="M73 332.95H507"/>
<path transform="matrix(.5,0,0,.5,-15.475397,-34.325)" stroke-width=".5" stroke-linecap="square" stroke-linejoin="round" fill="none" stroke="#262626" d="M73 72.55H507"/>
<path transform="matrix(.5,0,0,.5,-15.475397,-34.325)" stroke-width=".5" stroke-linecap="square" stroke-linejoin="round" fill="none" stroke="#262626" d="M73 332.95V328.61"/>
<path transform="matrix(.5,0,0,.5,-15.475397,-34.325)" stroke-width=".5" stroke-linecap="square" stroke-linejoin="round" fill="none" stroke="#262626" d="M159.8 332.95V328.61"/>
<path transform="matrix(.5,0,0,.5,-15.475397,-34.325)" stroke-width=".5" stroke-linecap="square" stroke-linejoin="round" fill="none" stroke="#262626" d="M246.6 332.95V328.61"/>
<path transform="matrix(.5,0,0,.5,-15.475397,-34.325)" stroke-width=".5" stroke-linecap="square" stroke-linejoin="round" fill="none" stroke="#262626" d="M333.4 332.95V328.61"/>
<path transform="matrix(.5,0,0,.5,-15.475397,-34.325)" stroke-width=".5" stroke-linecap="square" stroke-linejoin="round" fill="none" stroke="#262626" d="M420.2 332.95V328.61"/>
<path transform="matrix(.5,0,0,.5,-15.475397,-34.325)" stroke-width=".5" stroke-linecap="square" stroke-linejoin="round" fill="none" stroke="#262626" d="M507 332.95V328.61"/>
<path transform="matrix(.5,0,0,.5,-15.475397,-34.325)" stroke-width=".5" stroke-linecap="square" stroke-linejoin="round" fill="none" stroke="#262626" d="M73 72.55V76.89"/>
<path transform="matrix(.5,0,0,.5,-15.475397,-34.325)" stroke-width=".5" stroke-linecap="square" stroke-linejoin="round" fill="none" stroke="#262626" d="M159.8 72.55V76.89"/>
<path transform="matrix(.5,0,0,.5,-15.475397,-34.325)" stroke-width=".5" stroke-linecap="square" stroke-linejoin="round" fill="none" stroke="#262626" d="M246.6 72.55V76.89"/>
<path transform="matrix(.5,0,0,.5,-15.475397,-34.325)" stroke-width=".5" stroke-linecap="square" stroke-linejoin="round" fill="none" stroke="#262626" d="M333.4 72.55V76.89"/>
<path transform="matrix(.5,0,0,.5,-15.475397,-34.325)" stroke-width=".5" stroke-linecap="square" stroke-linejoin="round" fill="none" stroke="#262626" d="M420.2 72.55V76.89"/>
<path transform="matrix(.5,0,0,.5,-15.475397,-34.325)" stroke-width=".5" stroke-linecap="square" stroke-linejoin="round" fill="none" stroke="#262626" d="M507 72.55V76.89"/>
<use data-text="0" xlink:href="#font_0_17" transform="matrix(6,0,0,-6,19.274603,140.35)" fill="#262626"/>
<use data-text="5" xlink:href="#font_0_22" transform="matrix(6,0,0,-6,60.924608,140.35)" fill="#262626"/>
<use data-text="0" xlink:href="#font_0_17" transform="matrix(6,0,0,-6,64.260608,140.35)" fill="#262626"/>
<use data-text="1" xlink:href="#font_0_18" transform="matrix(6,0,0,-6,102.57461,140.35)" fill="#262626"/>
<use data-text="0" xlink:href="#font_0_17" transform="matrix(6,0,0,-6,105.91061,140.35)" fill="#262626"/>
<use data-text="0" xlink:href="#font_0_17" transform="matrix(6,0,0,-6,109.24661,140.35)" fill="#262626"/>
<use data-text="1" xlink:href="#font_0_18" transform="matrix(6,0,0,-6,145.9746,140.35)" fill="#262626"/>
<use data-text="5" xlink:href="#font_0_22" transform="matrix(6,0,0,-6,149.3106,140.35)" fill="#262626"/>
<use data-text="0" xlink:href="#font_0_17" transform="matrix(6,0,0,-6,152.64659,140.35)" fill="#262626"/>
<use data-text="2" xlink:href="#font_0_19" transform="matrix(6,0,0,-6,189.3746,140.35)" fill="#262626"/>
<use data-text="0" xlink:href="#font_0_17" transform="matrix(6,0,0,-6,192.7106,140.35)" fill="#262626"/>
<use data-text="0" xlink:href="#font_0_17" transform="matrix(6,0,0,-6,196.0466,140.35)" fill="#262626"/>
<use data-text="2" xlink:href="#font_0_19" transform="matrix(6,0,0,-6,232.7746,140.35)" fill="#262626"/>
<use data-text="5" xlink:href="#font_0_22" transform="matrix(6,0,0,-6,236.1106,140.35)" fill="#262626"/>
<use data-text="0" xlink:href="#font_0_17" transform="matrix(6,0,0,-6,239.4466,140.35)" fill="#262626"/>
<use data-text="T" xlink:href="#font_0_53" transform="matrix(6.6,0,0,-6.6,117.024707,148.85)" fill="#262626"/>
<use data-text="i" xlink:href="#font_0_74" transform="matrix(6.6,0,0,-6.6,121.057308,148.85)" fill="#262626"/>
<use data-text="m" xlink:href="#font_0_78" transform="matrix(6.6,0,0,-6.6,122.892108,148.85)" fill="#262626"/>
<use data-text="e" xlink:href="#font_0_70" transform="matrix(6.6,0,0,-6.6,128.7595,148.85)" fill="#262626"/>
<use data-text=" " xlink:href="#font_0_1" transform="matrix(6.6,0,0,-6.6,132.42911,148.85)" fill="#262626"/>
<use data-text="(" xlink:href="#font_0_9" transform="matrix(6.6,0,0,-6.6,134.2639,148.85)" fill="#262626"/>
<use data-text="s" xlink:href="#font_0_84" transform="matrix(6.6,0,0,-6.6,136.4617,148.85)" fill="#262626"/>
<use data-text=")" xlink:href="#font_0_10" transform="matrix(6.6,0,0,-6.6,140.1313,148.85)" fill="#262626"/>
<path transform="matrix(.5,0,0,.5,-15.475397,-34.325)" stroke-width=".5" stroke-linecap="square" stroke-linejoin="round" fill="none" stroke="#262626" d="M73 332.95V72.55"/>
<path transform="matrix(.5,0,0,.5,-15.475397,-34.325)" stroke-width=".5" stroke-linecap="square" stroke-linejoin="round" fill="none" stroke="#262626" d="M507 332.95V72.55"/>
<path transform="matrix(.5,0,0,.5,-15.475397,-34.325)" stroke-width=".5" stroke-linecap="square" stroke-linejoin="round" fill="none" stroke="#262626" d="M73 332.95H77.34"/>
<path transform="matrix(.5,0,0,.5,-15.475397,-34.325)" stroke-width=".5" stroke-linecap="square" stroke-linejoin="round" fill="none" stroke="#262626" d="M73 267.85H77.34"/>
<path transform="matrix(.5,0,0,.5,-15.475397,-34.325)" stroke-width=".5" stroke-linecap="square" stroke-linejoin="round" fill="none" stroke="#262626" d="M73 202.75H77.34"/>
<path transform="matrix(.5,0,0,.5,-15.475397,-34.325)" stroke-width=".5" stroke-linecap="square" stroke-linejoin="round" fill="none" stroke="#262626" d="M73 137.65H77.34"/>
<path transform="matrix(.5,0,0,.5,-15.475397,-34.325)" stroke-width=".5" stroke-linecap="square" stroke-linejoin="round" fill="none" stroke="#262626" d="M73 72.55H77.34"/>
<path transform="matrix(.5,0,0,.5,-15.475397,-34.325)" stroke-width=".5" stroke-linecap="square" stroke-linejoin="round" fill="none" stroke="#262626" d="M507 332.95H502.66"/>
<path transform="matrix(.5,0,0,.5,-15.475397,-34.325)" stroke-width=".5" stroke-linecap="square" stroke-linejoin="round" fill="none" stroke="#262626" d="M507 267.85H502.66"/>
<path transform="matrix(.5,0,0,.5,-15.475397,-34.325)" stroke-width=".5" stroke-linecap="square" stroke-linejoin="round" fill="none" stroke="#262626" d="M507 202.75H502.66"/>
<path transform="matrix(.5,0,0,.5,-15.475397,-34.325)" stroke-width=".5" stroke-linecap="square" stroke-linejoin="round" fill="none" stroke="#262626" d="M507 137.65H502.66"/>
<path transform="matrix(.5,0,0,.5,-15.475397,-34.325)" stroke-width=".5" stroke-linecap="square" stroke-linejoin="round" fill="none" stroke="#262626" d="M507 72.55H502.66"/>
<use data-text="-" xlink:href="#font_0_14" transform="matrix(6,0,0,-6,7.824602,134.40001)" fill="#262626"/>
<use data-text="0" xlink:href="#font_0_17" transform="matrix(6,0,0,-6,9.822602,134.40001)" fill="#262626"/>
<use data-text="." xlink:href="#font_0_15" transform="matrix(6,0,0,-6,13.158603,134.40001)" fill="#262626"/>
<use data-text="5" xlink:href="#font_0_22" transform="matrix(6,0,0,-6,14.826603,134.40001)" fill="#262626"/>
<use data-text="0" xlink:href="#font_0_17" transform="matrix(6,0,0,-6,15.324602,101.85)" fill="#262626"/>
<use data-text="0" xlink:href="#font_0_17" transform="matrix(6,0,0,-6,10.324602,69.299999)" fill="#262626"/>
<use data-text="." xlink:href="#font_0_15" transform="matrix(6,0,0,-6,13.660603,69.299999)" fill="#262626"/>
<use data-text="5" xlink:href="#font_0_22" transform="matrix(6,0,0,-6,15.328603,69.299999)" fill="#262626"/>
<use data-text="1" xlink:href="#font_0_18" transform="matrix(6,0,0,-6,15.324602,36.749998)" fill="#262626"/>
<use data-text="1" xlink:href="#font_0_18" transform="matrix(6,0,0,-6,10.324602,4.200001)" fill="#262626"/>
<use data-text="." xlink:href="#font_0_15" transform="matrix(6,0,0,-6,13.660603,4.200001)" fill="#262626"/>
<use data-text="5" xlink:href="#font_0_22" transform="matrix(6,0,0,-6,15.328603,4.200001)" fill="#262626"/>
<use data-text="W" xlink:href="#font_0_56" transform="matrix(-.00000028050003,-6.6,-6.6,.00000028050003,4.824603,92.299938)" fill="#262626"/>
<use data-text="a" xlink:href="#font_0_66" transform="matrix(-.00000028050003,-6.6,-6.6,.00000028050003,4.824603,86.069538)" fill="#262626"/>
<use data-text="v" xlink:href="#font_0_87" transform="matrix(-.00000028050003,-6.6,-6.6,.00000028050003,4.8246028,82.39993)" fill="#262626"/>
<use data-text="e" xlink:href="#font_0_70" transform="matrix(-.00000028050003,-6.6,-6.6,.00000028050003,4.8246028,78.73033)" fill="#262626"/>
<use data-text=" " xlink:href="#font_0_1" transform="matrix(-.00000028050003,-6.6,-6.6,.00000028050003,4.8246028,75.06073)" fill="#262626"/>
<use data-text="h" xlink:href="#font_0_73" transform="matrix(-.00000028050003,-6.6,-6.6,.00000028050003,4.824602,73.22593)" fill="#262626"/>
<use data-text="e" xlink:href="#font_0_70" transform="matrix(-.00000028050003,-6.6,-6.6,.00000028050003,4.824602,69.19333)" fill="#262626"/>
<use data-text="i" xlink:href="#font_0_74" transform="matrix(-.00000028050003,-6.6,-6.6,.00000028050003,4.824602,65.523738)" fill="#262626"/>
<use data-text="g" xlink:href="#font_0_72" transform="matrix(-.00000028050003,-6.6,-6.6,.00000028050003,4.824602,63.688936)" fill="#262626"/>
<use data-text="h" xlink:href="#font_0_73" transform="matrix(-.00000028050003,-6.6,-6.6,.00000028050003,4.8246018,59.656335)" fill="#262626"/>
<use data-text="t" xlink:href="#font_0_85" transform="matrix(-.00000028050003,-6.6,-6.6,.00000028050003,4.8246018,55.623735)" fill="#262626"/>
<use data-text=" " xlink:href="#font_0_1" transform="matrix(-.00000028050003,-6.6,-6.6,.00000028050003,4.8246018,53.425935)" fill="#262626"/>
<use data-text="(" xlink:href="#font_0_9" transform="matrix(-.00000028050003,-6.6,-6.6,.00000028050003,4.824601,51.591135)" fill="#262626"/>
<use data-text="m" xlink:href="#font_0_78" transform="matrix(-.00000028050003,-6.6,-6.6,.00000028050003,4.824601,49.393335)" fill="#262626"/>
<use data-text=")" xlink:href="#font_0_10" transform="matrix(-.00000028050003,-6.6,-6.6,.00000028050003,4.824601,43.525934)" fill="#262626"/>
<path transform="matrix(.5,0,0,.5,-15.475397,-34.325)" stroke-width="2.5" stroke-linecap="butt" stroke-dasharray="2,2" stroke-linejoin="bevel" fill="none" stroke="#000000" d="M74.736 267.85H76.472 78.208 79.944 81.68 83.416 85.152 86.888 88.624 90.36 92.096 93.832 95.568 97.304L99.04 267.85005 100.776 267.866 102.512 268.03947 104.248 268.2801 105.984 268.45429 107.72 268.34754 109.456 268.28263 111.192 268.38514 112.928 268.26069 114.664 268.01478 116.4 268.49119 118.136 269.8406 119.872 271.38127 121.608 272.29576 123.344 272.25267 125.08 272.06117 126.816 274.10203 128.552 276.75434 130.288 276.3075 132.024 275.23414 133.76 276.48088 135.496 278.29078 137.232 280.88789 138.968 288.33485 140.704 295.322 142.44 294.32374 144.176 288.03938 145.912 281.48158 147.648 274.80067 149.384 267.4419 151.12 250.73468 152.856 226.377 154.592 201.46073 156.328 170.32947 158.064 127.88987 159.8 100.6503 161.536 103.25632 163.272 113.2102 165.008 122.55674 166.744 130.93996 168.48 139.03955 170.216 150.66385 171.952 156.16617 173.688 158.40225 175.424 160.73662 177.16 161.02024 178.896 161.44313 180.632 166.83802 182.368 169.88596 184.104 165.07863 185.84 164.04001 187.576 163.4489 189.312 167.43703 191.048 162.2441 192.784 155.07599 194.52 157.06159 196.256 158.31786 197.992 154.4761 199.728 154.50656 201.464 157.22641 203.2 154.41582 204.936 150.24912 206.672 153.0891 208.408 154.21263 210.144 148.42131 211.88 147.96179 213.616 150.34023 215.352 143.15991 217.088 142.68341 218.824 149.65117 220.56 146.17389 222.296 138.78351 224.032 146.3316 225.768 148.51198 227.504 136.76959 229.24 140.62905 230.976 153.57123 232.712 141.04894 234.448 135.61905 236.184 148.90169 237.92 152.94029 239.656 139.45259 241.392 143.93862 243.128 156.36077 244.864 142.14032 246.6 144.02309 248.336 154.50858 250.072 144.74341 251.808 146.65482 253.544 155.06224 255.28 146.23973 257.016 146.23099 258.752 157.72333 260.488 151.25315 262.224 144.24326 263.96 158.14218 265.696 158.37628 267.432 142.45406 269.168 150.53148 270.904 159.54528 272.64 148.23995 274.376 145.89792 276.112 149.56291 277.848 156.04196 279.584 153.75945 281.32 145.14479 283.056 146.96608 284.792 164.2364 286.528 150.88074 288.264 135.39879 290 162.38286 291.736 161.91696 293.472 135.95449 295.208 145.77101 296.944 164.07303 298.68 143.54419 300.416 138.45616 302.152 154.61833 303.888 152.31142 305.624 140.46526 307.36 152.2563 309.096 150.73802 310.832 140.66175 312.568 149.5469 314.304 152.53934 316.04 142.84421 317.776 149.03076 319.512 155.33461 321.248 142.55188 322.984 140.06879 324.72 156.83919 326.456 152.57033 328.192 138.02136 329.928 150.26653 331.664 157.67594 333.4 145.41036 335.136 141.38753 336.872 159.244 338.608 156.63695 340.344 146.99501 342.08 150.4377 343.816 162.60614 345.552 159.92137 347.288 145.33008 349.024 156.58306 350.76 165.52774 352.496 153.05518 354.232 151.73194 355.968 166.90952 357.704 162.03322 359.44 154.86434 361.176 159.41535 362.912 163.14202 364.648 162.80857 366.384 155.48343 368.12 157.82123 369.856 171.52323 371.592 162.0152 373.328 150.70449 375.064 166.46685 376.8 170.99748 378.536 156.43778 380.272 156.49463 382.008 170.54058 383.744 164.53383 385.48 154.77024 387.216 165.93341 388.952 172.25099 390.688 155.20317 392.424 164.23166 394.16 175.96092 395.896 162.0083 397.632 164.89606 399.368 175.05162 401.104 165.27185 402.84 164.7645 404.576 171.75734 406.312 166.2674 408.048 167.13799 409.784 171.25748 411.52 166.94664 413.256 165.77448 414.992 171.58739 416.728 167.0938 418.464 166.3302 420.2 171.94747 421.936 166.15181 423.672 165.73336 425.408 171.73134 427.144 172.1643 428.88 167.49929 430.616 171.2987 432.352 179.07724 434.088 172.54991 435.824 169.12259 437.56 180.08069 439.296 181.12134 441.032 178.61113 442.768 177.87085 444.504 181.39344 446.24 184.57834 447.976 178.99556 449.712 180.23276 451.448 190.53417 453.184 188.56342 454.92 177.66956 456.656 186.20606 458.392 190.6395 460.128 184.48447 461.864 183.91742 463.6 191.03945 465.336 189.23287 467.072 180.69017 468.808 184.99829 470.544 190.96315 472.28 182.4753 474.016 183.74095 475.752 188.6432 477.488 184.01029 479.224 180.59033 480.96 182.35637 482.696 185.2482 484.432 182.16298 486.168 182.58152 487.904 182.01634 489.64 182.80599"/>
<path transform="matrix(.5,0,0,.5,-15.475397,-34.325)" stroke-width="2" stroke-linecap="butt" stroke-linejoin="round" fill="none" stroke="#d95319" d="M74.736 267.99858 76.472 268.3299 78.208 267.1085 79.944 266.39259 81.68 267.46376 83.416 267.267 85.152 266.0879 86.888 269.1579 88.624 265.63334 90.36 259.4145 92.096 262.64515 93.832 265.5233 95.568 261.097 97.304 259.7787 99.04 263.24714 100.776 263.21934 102.512 263.7984 104.248 262.79109 105.984 262.17 107.72 264.2358 109.456 263.53938 111.192 260.1787 112.928 263.92314 114.664 262.67335 116.4 255.39112 118.136 258.37516 119.872 267.4293 121.608 268.11186 123.344 262.58598 125.08 268.07078 126.816 276.6869 128.552 275.93519 130.288 269.71278 132.024 269.5527 133.76 278.10578 135.496 276.6176 137.232 270.58903 138.968 277.29728 140.704 286.39338 142.44 290.10365 144.176 289.68199 145.912 278.2683 147.648 262.87895 149.384 253.99076 151.12 229.31615 152.856 190.80435 154.592 166.9882 156.328 145.1665 158.064 116.71851 159.8 107.26562 161.536 105.53757 163.272 99.63698 165.008 101.04156 166.744 106.01062 168.48 109.54391 170.216 123.193729 171.952 138.05524 173.688 141.04209 175.424 147.91637 177.16 160.10779 178.896 156.18163 180.632 155.23857 182.368 159.73073 184.104 153.79578 185.84 146.69565 187.576 140.10272 189.312 145.46506 191.048 151.18251 192.784 151.30596 194.52 154.47293 196.256 158.27426 197.992 160.61676 199.728 159.73285 201.464 151.47093 203.2 154.17562 204.936 162.96149 206.672 157.87549 208.408 151.26309 210.144 155.8384 211.88 165.61817 213.616 165.55994 215.352 158.422 217.088 149.6402 218.824 145.35155 220.56 156.42217 222.296 156.84703 224.032 143.38187 225.768 143.47365 227.504 159.05669 229.24 169.89688 230.976 159.71904 232.712 154.60515 234.448 161.99826 236.184 155.17288 237.92 136.81966 239.656 132.69776 241.392 149.06627 243.128 157.25682 244.864 151.10541 246.6 159.21649 248.336 167.15393 250.072 157.09732 251.808 149.15045 253.544 155.78983 255.28 159.49878 257.016 151.83516 258.752 152.26502 260.488 156.55844 262.224 148.25736 263.96 144.70558 265.696 148.38285 267.432 152.33147 269.168 168.13428 270.904 170.56626 272.64 157.14324 274.376 156.2783 276.112 152.68976 277.848 154.22747 279.584 159.38057 281.32 153.76598 283.056 156.82552 284.792 176.13364 286.528 163.87923 288.264 136.09293 290 150.40999 291.736 162.88462 293.472 149.09772 295.208 156.55826 296.944 179.5138 298.68 166.5255 300.416 152.8303 302.152 160.0299 303.888 155.85158 305.624 150.07059 307.36 161.7352 309.096 164.89601 310.832 161.4203 312.568 171.80191 314.304 157.16608 316.04 138.33643 317.776 152.89792 319.512 166.16986 321.248 159.01088 322.984 166.13817 324.72 182.34265 326.456 172.30925 328.192 152.16716 329.928 153.44618 331.664 160.72765 333.4 153.09619 335.136 145.55103 336.872 164.44101 338.608 172.38234 340.344 161.77252 342.08 159.25147 343.816 166.49924 345.552 172.63338 347.288 162.11478 349.024 157.44599 350.76 160.01493 352.496 163.95598 354.232 178.2634 355.968 182.59345 357.704 158.87133 359.44 153.01969 361.176 175.9336 362.912 179.69481 364.648 169.18483 366.384 165.84949 368.12 161.75798 369.856 163.44135 371.592 172.12943 373.328 169.38855 375.064 169.62712 376.8 171.09995 378.536 159.77574 380.272 159.99462 382.008 172.83824 383.744 171.99416 385.48 162.61542 387.216 170.10869 388.952 172.31688 390.688 153.40465 392.424 160.83977 394.16 172.2693 395.896 169.77872 397.632 186.3212 399.368 194.79012 401.104 173.86354 402.84 176.74712 404.576 187.94669 406.312 169.76656 408.048 158.32523 409.784 168.30968 411.52 163.25022 413.256 158.58516 414.992 176.58728 416.728 176.5593 418.464 169.40999 420.2 177.99337 421.936 178.9609 423.672 171.44116 425.408 175.15482 427.144 191.19994 428.88 192.61434 430.616 177.5693 432.352 174.3585 434.088 169.22249 435.824 155.7798 437.56 163.59812 439.296 174.21971 441.032 179.16287 442.768 182.2249 444.504 179.84918 446.24 189.89586 447.976 198.39954 449.712 190.37853 451.448 180.54309 453.184 174.40668 454.92 173.80876 456.656 176.19608 458.392 171.6087 460.128 168.96802 461.864 180.81607 463.6 184.79244 465.336 174.92639 467.072 172.91663 468.808 196.0876 470.544 193.41486 472.28 170.66597 474.016 181.04097 475.752 198.18752 477.488 201.85475 479.224 201.28261 480.96 193.92324 482.696 180.62406 484.432 175.28594 486.168 182.6764 487.904 188.93825 489.64 194.38614"/>
<path transform="matrix(.5,0,0,.5,-15.475397,-34.325)" d="M121.608 285.71546 123.344 280.525 125.08 286.33296 126.816 295.29158 128.552 294.85563 130.288 288.9354 132.024 289.09883 133.76 297.9618 135.496 296.78034 137.232 291.0418 138.968 298.0537 140.704 307.43748 142.44 311.4202 144.176 311.25425 145.912 300.07093 147.648 284.91465 149.384 276.26335 151.12 251.81145 152.856 213.5123 154.592 189.91439 156.328 168.29883 158.064 140.03926 159.8 130.75635 161.536 129.20784 163.272 123.49161 165.008 125.06287 166.744 130.18614 168.48 133.8679 170.216 147.66783 171.952 162.6645 173.688 165.79892 175.424 172.81919 177.16 185.15468 178.896 181.36551 180.632 180.55799 182.368 185.1878 184.104 179.3869 185.84 172.41609 187.576 165.94956 189.312 171.44951 191.048 177.28528 192.784 177.52669 194.52 180.81317 196.256 184.72893 197.992 187.18854 199.728 186.41953 201.464 178.27132 203.2 181.08548 204.936 189.97995 206.672 184.99982 208.408 178.50923 210.144 183.20221 211.88 193.0977 213.616 193.15474 215.352 186.1369 217.088 177.47949 218.824 173.29999 220.56 184.4898 222.296 185.03437 224.032 171.68346 225.768 171.90544 227.504 187.60872 229.24 198.55503 230.976 188.4978 232.712 183.5148 234.448 191.03015 236.184 184.32839 237.92 166.11368 239.656 162.12525 241.392 178.61299 243.128 186.9303 244.864 180.90764 246.6 189.14327 248.336 197.2002 250.072 187.26479 251.808 179.44545 253.544 186.20775 255.28 190.04326 257.016 182.5061 258.752 183.06003 260.488 187.47756 262.224 179.30426 263.96 175.87958 265.696 179.67688 267.432 183.7421 269.168 199.67066 270.904 202.23049 272.64 188.92618 274.376 188.17386 276.112 184.69716 277.848 186.35054 279.584 191.61606 281.32 186.10343 283.056 189.26454 284.792 208.67546 286.528 196.52065 288.264 168.83861 290 183.26416 291.736 195.83679 293.472 182.15216 295.208 189.72104 296.944 212.77274 298.68 199.8726 300.416 186.27342 302.152 193.56888 303.888 189.48049 305.624 183.79715 307.36 195.55614 309.096 198.81258 310.832 195.43561 312.568 205.90712 314.304 191.362 316.04 172.62444 317.776 187.28125 319.512 200.64542 321.248 193.58054 322.984 200.80319 324.72 217.11171 326.456 207.17656 328.192 187.12335 329.928 188.4952 331.664 195.8674 333.4 188.32913 335.136 180.88016 336.872 199.87865 338.608 207.92649 340.344 197.41918 342.08 195.00765 343.816 202.36299 345.552 208.60402 347.288 198.19313 349.024 193.639 350.76 196.31754 352.496 200.37857 354.232 214.81082 355.968 219.26906 357.704 195.67577 359.44 189.93733 361.176 212.96817 362.912 216.85599 364.648 206.46123 366.384 203.24085 368.12 199.28345 369.856 201.09429 371.592 209.92208 373.328 207.32962 375.064 207.709 376.8 209.30582 378.536 198.1079 380.272 198.4812 382.008 211.46302 383.744 210.754 385.48 201.529 387.216 209.19893 388.952 211.55474 390.688 192.79392 392.424 200.43651 394.16 212.05866 395.896 209.75049 397.632 226.51622 399.368 235.22048 401.104 214.51363 402.84 217.69409 404.576 229.19036 406.312 211.25186 408.048 200.08742 409.784 210.39057 411.52 205.61499 413.256 201.26502 414.992 219.62126 416.728 219.9109 418.464 213.14409 420.2 222.10216 421.936 223.38597 423.672 216.21837 425.408 220.36171 427.144 236.83512 428.88 238.7766 430.616 224.37168 432.352 221.70963 434.088 217.18442 435.824 204.4514 437.56 212.89794 439.296 224.2069 441.032 229.9585 442.768 233.73857 444.504 232.14063 446.24 243.0151 447.976 252.30612 449.712 245.16307 451.448 236.32376 453.184 231.15232 454.92 231.64362 456.656 235.3099 458.392 231.83434 460.128 230.24962 461.864 243.3511 463.6 248.62548 465.336 240.16149 467.072 239.55539 468.808 263.87623 470.544 262.47175 472.28 241.40634 474.016 253.37764 475.752 271.86427 477.488 276.89936 479.224 277.87547 480.96 272.03373 482.696 260.00706 484.432 255.6158 486.168 263.904 487.904 271.2444 489.64 277.2375V111.5348L487.904 106.632129 486.168 101.44883 484.432 94.95608 482.696 101.241069 480.96 115.81275 479.224 124.68975 477.488 126.81013 475.752 124.510799 474.016 108.7043 472.28 99.92559 470.544 124.357959 468.808 128.29898 467.072 106.27785 465.336 109.691287 463.6 120.9594 461.864 118.28102 460.128 107.68639 458.392 111.383068 456.656 117.08224 454.92 115.97391 453.184 117.66103 451.448 124.76242 449.712 135.59398 447.976 144.49297 446.24 136.77661 444.504 127.55776 442.768 130.71123 441.032 128.36727 439.296 124.23252 437.56 114.29829 435.824 107.10819 434.088 121.26057 432.352 127.007389 430.616 130.76694 428.88 146.45207 427.144 145.56476 425.408 129.94792 423.672 126.66394 421.936 134.53588 420.2 133.88457 418.464 125.675899 416.728 133.20767 414.992 133.5533 413.256 115.905307 411.52 120.88542 409.784 126.22882 408.048 116.56304 406.312 128.28125 404.576 146.703 402.84 135.80014 401.104 133.21346 399.368 154.35977 397.632 146.12618 395.896 129.80695 394.16 132.47995 392.424 121.24304 390.688 114.015369 388.952 133.07904 387.216 131.01845 385.48 123.70182 383.744 133.23432 382.008 134.21346 380.272 121.50803 378.536 121.44359 376.8 132.89406 375.064 131.54524 373.328 131.44748 371.592 134.33678 369.856 125.78843 368.12 124.23254 366.384 128.45813 364.648 131.90842 362.912 142.53365 361.176 138.89902 359.44 116.102039 357.704 122.06688 355.968 145.91782 354.232 141.71598 352.496 127.53338 350.76 123.71228 349.024 121.252979 347.288 126.03644 345.552 136.66275 343.816 130.63549 342.08 123.4953 340.344 126.12587 338.608 136.8382 336.872 129.00336 335.136 110.22192 333.4 117.86325 331.664 125.587909 329.928 118.39716 328.192 117.21098 326.456 137.44194 324.72 147.57358 322.984 131.47315 321.248 124.441219 319.512 131.69429 317.776 118.514598 316.04 104.0484 314.304 122.97018 312.568 137.6967 310.832 127.40502 309.096 130.97946 307.36 127.91425 305.624 116.344028 303.888 122.22265 302.152 126.49092 300.416 119.38717 298.68 133.17839 296.944 146.25487 295.208 123.395488 293.472 116.04326 291.736 129.93244 290 117.55583 288.264 103.34725 286.528 131.23783 284.792 143.59181 283.056 124.386478 281.32 121.428539 279.584 127.14509 277.848 122.10438 276.112 120.68237 274.376 124.382747 272.64 125.36029 270.904 138.90203 269.168 136.59789 267.432 120.92084 265.696 117.0888 263.96 113.53159 262.224 117.21044 260.488 125.63933 258.752 121.469989 257.016 121.16421 255.28 128.9543 253.544 125.3719 251.808 118.85547 250.072 126.92988 248.336 137.10767 246.6 129.28974 244.864 121.303188 243.128 127.58336 241.392 119.51957 239.656 103.27027 237.92 107.52563 236.184 126.01738 234.448 132.96637 232.712 125.6955 230.976 130.94028 229.24 141.23874 227.504 130.50466 225.768 115.04187 224.032 115.08027 222.296 128.65972 220.56 128.3545 218.824 117.4031 217.088 121.80093 215.352 130.70708 213.616 137.96514 211.88 138.13861 210.144 128.47458 208.408 124.01693 206.672 130.75116 204.936 135.94303 203.2 127.26575 201.464 124.670558 199.728 133.04618 197.992 134.04497 196.256 131.8196 194.52 128.13269 192.784 125.08523 191.048 125.07975 189.312 119.48059 187.576 114.2559 185.84 120.97521 184.104 128.20462 182.368 134.27367 180.632 129.91918 178.896 130.99774 177.16 135.0609 175.424 123.01356 173.688 116.28525 171.952 113.445949 170.216 98.719608 168.48 85.219898 166.744 81.8351 165.008 77.02025 163.272 75.78235 161.536 81.86732 159.8 83.77489 158.064 93.397769 156.328 122.03418 154.592 144.06201 152.856 168.09642 151.12 206.82085 149.384 231.71819 147.648 240.84322 145.912 256.4657 144.176 268.10969 142.44 268.78709 140.704 265.34925 138.968 256.54087 137.232 250.13626 135.496 256.4549 133.76 258.24974 132.024 250.00659 130.288 250.49011 128.552 257.01478 126.816 258.0822 125.08 249.8086 123.344 244.64696 121.608 250.50823 119.872 250.19524 118.136 241.5399 116.4 238.98082 114.664 246.73293 112.928 248.46369 111.192 245.21451 109.456 249.13378 107.72 250.35402 105.984 248.81256 104.248 249.97408 102.512 251.5309 100.776 251.54567 99.04 252.18628 97.304 249.3376 95.568 251.22705 93.832 256.34654 92.096 254.2373 90.36 251.71762 88.624 258.639 86.888 262.7395 85.152 260.72843 83.416 262.69068 81.68 263.6993 79.944 263.46324 78.208 264.91407 76.472 267.01643 74.736 267.80494V268.1922L76.472 269.6434 78.208 269.30296 79.944 269.32197 81.68 271.22819 83.416 271.84336 85.152 271.44734 86.888 275.57633 88.624 272.6277 90.36 267.11137 92.096 271.05299 93.832 274.70005 95.568 270.96693 97.304 270.21977 99.04 274.30799 100.776 274.89299 102.512 276.0659 104.248 275.6081 105.984 275.52748 107.72 278.11759 109.456 277.94499 111.192 275.1429 112.928 279.3826 114.664 278.61378 116.4 271.80143 118.136 275.2104 119.872 284.66334Z" fill="#bf5700" fill-opacity=".14901962"/>
<path transform="matrix(.5,0,0,.5,-15.475397,-34.325)" d="M499 325V279.5H394.5V325Z" fill="#ffffff"/>
<use data-text="T" xlink:href="#font_0_53" transform="matrix(5.4,0,0,-5.4,200.2746,111.799999)"/>
<use data-text="r" xlink:href="#font_0_83" transform="matrix(5.4,0,0,-5.4,203.57399,111.799999)"/>
<use data-text="u" xlink:href="#font_0_86" transform="matrix(5.4,0,0,-5.4,205.67459,111.799999)"/>
<use data-text="e" xlink:href="#font_0_70" transform="matrix(5.4,0,0,-5.4,208.974,111.799999)"/>
<use data-text=" " xlink:href="#font_0_1" transform="matrix(5.4,0,0,-5.4,211.9764,111.799999)"/>
<use data-text="Q" xlink:href="#font_0_50" transform="matrix(5.4,0,0,-5.4,213.4776,111.799999)"/>
<use data-text="o" xlink:href="#font_0_80" transform="matrix(5.4,0,0,-5.4,217.6788,111.799999)"/>
<use data-text="I" xlink:href="#font_0_42" transform="matrix(5.4,0,0,-5.4,220.9782,111.799999)"/>
<use data-text="s" xlink:href="#font_0_84" transform="matrix(5.4,0,0,-5.4,222.4794,111.799999)"/>
<path transform="matrix(.5,0,0,.5,-15.475397,-34.325)" stroke-width="2.5" stroke-linecap="butt" stroke-dasharray="2,2" stroke-linejoin="bevel" fill="none" stroke="#000000" d="M398.5 288.25H428.5"/>
<use data-text="P" xlink:href="#font_0_49" transform="matrix(5.4,0,0,-5.4,200.2746,118.799999)"/>
<use data-text="r" xlink:href="#font_0_83" transform="matrix(5.4,0,0,-5.4,203.8764,118.799999)"/>
<use data-text="e" xlink:href="#font_0_70" transform="matrix(5.4,0,0,-5.4,205.977,118.799999)"/>
<use data-text="d" xlink:href="#font_0_69" transform="matrix(5.4,0,0,-5.4,208.9794,118.799999)"/>
<use data-text="." xlink:href="#font_0_15" transform="matrix(5.4,0,0,-5.4,212.2788,118.799999)"/>
<use data-text=" " xlink:href="#font_0_1" transform="matrix(5.4,0,0,-5.4,213.78,118.799999)"/>
<use data-text="Q" xlink:href="#font_0_50" transform="matrix(5.4,0,0,-5.4,215.2812,118.799999)"/>
<use data-text="o" xlink:href="#font_0_80" transform="matrix(5.4,0,0,-5.4,219.48239,118.799999)"/>
<use data-text="I" xlink:href="#font_0_42" transform="matrix(5.4,0,0,-5.4,222.7818,118.799999)"/>
<use data-text=" " xlink:href="#font_0_1" transform="matrix(5.4,0,0,-5.4,224.283,118.799999)"/>
<use data-text="#" xlink:href="#font_0_4" transform="matrix(5.4,0,0,-5.4,225.7842,118.799999)"/>
<use data-text="5" xlink:href="#font_0_22" transform="matrix(5.4,0,0,-5.4,228.78659,118.799999)"/>
<path transform="matrix(.5,0,0,.5,-15.475397,-34.325)" stroke-width="2" stroke-linecap="butt" stroke-linejoin="round" fill="none" stroke="#d95319" d="M398.5 302.25H428.5"/>
<use data-text="9" xlink:href="#font_0_26" transform="matrix(5.4,0,0,-5.4,200.2746,125.799999)"/>
<use data-text="5" xlink:href="#font_0_22" transform="matrix(5.4,0,0,-5.4,203.277,125.799999)"/>
<use data-text="%" xlink:href="#font_0_6" transform="matrix(5.4,0,0,-5.4,206.2794,125.799999)"/>
<use data-text=" " xlink:href="#font_0_1" transform="matrix(5.4,0,0,-5.4,211.08,125.799999)"/>
<use data-text="C" xlink:href="#font_0_36" transform="matrix(5.4,0,0,-5.4,212.58119,125.799999)"/>
<use data-text="I" xlink:href="#font_0_42" transform="matrix(5.4,0,0,-5.4,216.48,125.799999)"/>
<use data-text="s" xlink:href="#font_0_84" transform="matrix(5.4,0,0,-5.4,217.9812,125.799999)"/>
<path transform="matrix(.5,0,0,.5,-15.475397,-34.325)" d="M428.5 321.3125V311.1875H398.5V321.3125Z" fill="#bf5700" fill-opacity=".14901962"/>
<path transform="matrix(.5,0,0,.5,-15.475397,-34.325)" stroke-width=".5" stroke-linecap="butt" stroke-miterlimit="10" stroke-linejoin="miter" fill="none" stroke="#262626" d="M394.5 325V279.5H499V325Z"/>
</svg>
