<svg xmlns="http://www.w3.org/2000/svg" xmlns:xlink="http://www.w3.org/1999/xlink" xmlns:inkscape="http://www.inkscape.org/namespaces/inkscape" version="1.1" width="244" height="151" viewBox="0 0 244 151">
<defs>
<path id="font_0_17" d="M.272995 .723999C.19699097 .723999 .13198853 .69200137 .08898926 .6329956 .04798889 .5779877 .0289917 .48799134 .0289917 .34999085 .0289917 .22399903 .04499817 .13598633 .07899475 .08198547 .12098694 .01399231 .18998719-.023010254 .272995-.023010254 .34999085-.023010254 .41299439 .0079956059 .45700074 .066986087 .49699403 .12199402 .5169983 .21299744 .5169983 .34599305 .5169983 .47599793 .5009918 .56399539 .46699525 .61898806 .4249878 .68699648 .35598756 .723999 .272995 .723999M.272995 .61099246C.30899049 .61099246 .33799745 .59098818 .35499574 .55400088 .36898805 .5239868 .3769989 .44699098 .3769989 .34899903 .3769989 .2689972 .36999513 .19099427 .35899354 .1619873 .34298707 .11999512 .31298829 .09700012 .272995 .09700012 .23599243 .09700012 .20799256 .115997318 .19099427 .1519928 .1769867 .18199158 .16899109 .2559967 .16899109 .35099793 .16899109 .43499757 .17599488 .5149994 .18699646 .5439911 .20199585 .58699038 .23298645 .61099246 .272995 .61099246Z"/>
<path id="font_0_22" d="M.4889984 .70899966H.10998535L.04699707 .31399537H.17298889C.18798828 .34899903 .21998596 .36799623 .2630005 .36799623 .33399964 .36799623 .3769989 .31698609 .3769989 .23098755 .3769989 .147995 .33399964 .09700012 .2630005 .09700012 .20199585 .09700012 .16799927 .12799073 .16499329 .18499756H.026992798C.0289917 .06098938 .12298584-.023010254 .26098634-.023010254 .41299439-.023010254 .5169983 .08099365 .5169983 .23399353 .5169983 .37998963 .4269867 .47898866 .29599 .47898866 .24899292 .47898866 .21398926 .46699525 .17298889 .43598939L.19599915 .58399966H.4889984V.70899966Z"/>
<path id="font_0_18" d="M.23799134 .4889984V0H.37799073V.70899966H.2849884C.2630005 .625 .18998719 .58200076 .067993167 .58200076V.4889984H.23799134Z"/>
<path id="font_0_19" d="M.5119934 .125H.21099854C.22999573 .16299439 .2519989 .18399048 .35598756 .25898744 .47898866 .34899903 .5149994 .4019928 .5149994 .49899293 .5149994 .6359863 .41999818 .723999 .27198792 .723999 .125 .723999 .038986207 .6369934 .038986207 .4869995V.46199037H.17399597V.4850006C.17399597 .56399539 .21099854 .6100006 .2749939 .6100006 .33699037 .6100006 .375 .5669861 .375 .49598695 .375 .4169922 .35099793 .3880005 .19299317 .27598573 .07299805 .19400025 .035995485 .13198853 .02999878 0H.5119934V.125Z"/>
<path id="font_0_53" d="M.3849945 .60398867H.59799197V.72898867H.01399231V.60398867H.23498535V0H.3849945V.60398867Z"/>
<path id="font_0_74" d="M.20698548 .5399933H.066986087V0H.20698548V.5399933M.20698548 .72898867H.066986087V.60398867H.20698548V.72898867Z"/>
<path id="font_0_78" d="M.05999756 .5399933V0H.19999695V.32398988C.19999695 .3909912 .23599243 .42999269 .29599 .42999269 .34298707 .42999269 .37199403 .40299989 .37199403 .3600006V0H.5119934V.32398988C.5119934 .3899994 .5479889 .42999269 .60798647 .42999269 .6549988 .42999269 .6839905 .40299989 .6839905 .3600006V0H.82398989V.38198854C.82398989 .4869995 .7599945 .548996 .6519928 .548996 .58299258 .548996 .5359955 .5249939 .49398805 .46899415 .46798707 .519989 .4139862 .548996 .34700013 .548996 .2849884 .548996 .24499512 .5289917 .19898987 .47299195V.5399933H.05999756Z"/>
<path id="font_0_70" d="M.5239868 .22599793C.5249939 .23799134 .5249939 .24299622 .5249939 .25 .5249939 .3039856 .5169983 .35398866 .5039978 .3919983 .46798707 .48999024 .3809967 .548996 .27198792 .548996 .116989139 .548996 .021987915 .43699647 .021987915 .2559967 .021987915 .08299255 .115997318-.023010254 .2689972-.023010254 .3899994-.023010254 .48799134 .04499817 .5189972 .1519928H.3809967C.3639984 .10899353 .32499696 .083999637 .27398683 .083999637 .23399353 .083999637 .20199585 .100997928 .18199158 .1309967 .16899109 .15098572 .1639862 .1749878 .1619873 .22599793H.5239868M.1639862 .31900025C.17298889 .4019928 .20799256 .44198609 .269989 .44198609 .33399964 .44198609 .37199403 .39898683 .3789978 .31900025H.1639862Z"/>
<path id="font_0_1" d="M0 0Z"/>
<path id="font_0_9" d="M.20298767 .72898867C.08799744 .5549927 .039993287 .4189911 .039993287 .2649994 .039993287 .10998535 .08799744-.026000977 .20298767-.2000122H.30299378C.19599915 .005996704 .16299439 .116989139 .16299439 .2649994 .16299439 .4119873 .19699097 .5249939 .30299378 .72898867H.20298767Z"/>
<path id="font_0_84" d="M.5049896 .3659973C.5029907 .47999574 .4149933 .548996 .269989 .548996 .1329956 .548996 .04798889 .47999574 .04798889 .36898805 .04798889 .33299256 .05899048 .3019867 .07798767 .2809906 .09700012 .2619934 .11399841 .25299073 .1659851 .23599243L.33299256 .18399048C.36799623 .17298889 .37998963 .1619873 .37998963 .13999939 .37998963 .10699463 .34098817 .08699036 .27598573 .08699036 .23899842 .08699036 .21099854 .09298706 .19299317 .10598755 .17799378 .116989139 .17199707 .12799073 .1659851 .15699768H.0289917C.032989503 .037994386 .11999512-.023010254 .28399659-.023010254 .35899354-.023010254 .41600038-.007003784 .45599366 .024993897 .49598695 .056991579 .519989 .10699463 .519989 .1599884 .519989 .22999573 .4850006 .2749939 .4139862 .29599L.23699951 .34700013C.19799805 .35899354 .18798828 .36698915 .18798828 .3889923 .18798828 .4189911 .21998596 .43899537 .2689972 .43899537 .33599855 .43899537 .36898805 .4149933 .36999513 .3659973H.5049896Z"/>
<path id="font_0_10" d="M.12199402-.2000122C.23699951-.026000977 .2849884 .10998535 .2849884 .2639923 .2849884 .4189911 .23699951 .5549927 .12199402 .72898867H.021987915C.1289978 .522995 .1619873 .4119873 .1619873 .2639923 .1619873 .116989139 .12799073 .0039978029 .021987915-.2000122H.12199402Z"/>
<path id="font_0_14" d="M.2979889 .34199525H.025985718V.20698548H.2979889V.34199525Z"/>
<path id="font_0_15" d="M.21398926 .1459961H.06399536V0H.21398926V.1459961Z"/>
<path id="font_0_56" d="M.7299957 0 .9319916 .72898867H.772995L.6639862 .18199158 .54599 .72898867H.397995L.2849884 .18299866 .17199707 .72898867H.0129852299L.21899414 0H.35398866L.47299195 .56900027 .59498599 0H.7299957Z"/>
<path id="font_0_66" d="M.5239868 .016998291C.5 .039993287 .49198915 .055999757 .49198915 .08299255V.3829956C.49198915 .49299623 .4169922 .548996 .2709961 .548996 .125 .548996 .04899597 .4869995 .039993287 .3619995H.1749878C.18199158 .41799928 .20498657 .43598939 .27398683 .43598939 .32798768 .43598939 .35499574 .41799928 .35499574 .38198854 .35499574 .3639984 .34599305 .34899903 .33099366 .33999635 .31199647 .32998658 .31199647 .32998658 .24299622 .31900025L.18699646 .30899049C.07998657 .29100038 .027999878 .23599243 .027999878 .13899231 .027999878 .041992189 .09298706-.023010254 .19198609-.023010254 .2519989-.023010254 .30599977 .0019989014 .35598756 .053985597 .35598756 .025985718 .35899354 .015991211 .37199403 0H.5239868V.016998291M.35499574 .21699524C.35499574 .13598633 .31498719 .08999634 .24398804 .08999634 .19699097 .08999634 .16799927 .114990238 .16799927 .15499878 .16799927 .19699097 .18998719 .21699524 .24798584 .22898865L.29599 .23799134C.33299256 .24499512 .33898927 .24699402 .35499574 .25498963V.21699524Z"/>
<path id="font_0_87" d="M.34999085 0 .5359955 .5399933H.3880005L.2789917 .14498902 .1619873 .5399933H.01399231L.20298767 0H.34999085Z"/>
<path id="font_0_73" d="M.066986087 .72898867V0H.20698548V.32398988C.20698548 .38598634 .2519989 .42999269 .31498719 .42999269 .34599305 .42999269 .36898805 .4189911 .3849945 .39698792 .397995 .3789978 .40098573 .3639984 .40098573 .32998658V0H.54100039V.3619995C.54100039 .42900086 .522995 .47698976 .48599244 .5079956 .45498658 .5339966 .4099884 .548996 .36499024 .548996 .29599 .548996 .24598694 .5219879 .20698548 .46199037V.72898867H.066986087Z"/>
<path id="font_0_72" d="M.3999939 .5399933V.45700074C.36099244 .519989 .31799317 .548996 .26098634 .548996 .21299744 .548996 .1599884 .5249939 .12298584 .48599244 .068984989 .42999269 .040985109 .35198976 .040985109 .25698854 .040985109 .09098816 .1289978-.023010254 .2579956-.023010254 .31599427-.023010254 .35099793-.0040130617 .3999939 .054992677V-.018005372C.3999939-.08300781 .35398866-.12800598 .28799439-.12800598 .23799134-.12800598 .20698548-.10600281 .19599915-.06500244H.051986696C.052993776-.10700989 .067993167-.13600159 .10499573-.16600037 .147995-.20100403 .20698548-.21800232 .2829895-.21800232 .43899537-.21800232 .5329895-.14300537 .5329895-.018005372V.5399933H.3999939M.2869873 .43199159C.35299684 .43199159 .4019928 .35899354 .4019928 .25898744 .4019928 .16099549 .35499574 .09399414 .2849884 .09399414 .22399903 .09399414 .18099976 .16099549 .18099976 .25898744 .18099976 .36099244 .22399903 .43199159 .2869873 .43199159Z"/>
<path id="font_0_85" d="M.30099488 .5289917H.22299195V.673996H.08299255V.5289917H.01399231V.43598939H.08299255V.10398865C.08299255 .018997193 .12799073-.023010254 .21998596-.023010254 .2519989-.023010254 .2749939-.020004273 .30099488-.012008667V.085998538C.2869873 .083999637 .27999879 .08299255 .2689972 .08299255 .23199463 .08299255 .22299195 .09399414 .22299195 .14199829V.43598939H.30099488V.5289917Z"/>
<path id="font_0_83" d="M.06298828 .5399933V0H.20298767V.2869873C.20298767 .36898805 .24398804 .4099884 .32598878 .4099884 .34098817 .4099884 .35099793 .40899659 .36999513 .4059906V.5479889C.3619995 .548996 .35899354 .548996 .35299684 .548996 .2889862 .548996 .23399353 .5069885 .20298767 .43399049V.5399933H.06298828Z"/>
<path id="font_0_86" d="M.54100039 0V.5399933H.40098573V.20199585C.40098573 .13798523 .35699464 .09599304 .28799439 .09599304 .22799683 .09599304 .19799805 .12799073 .19799805 .19299317V.5399933H.057998659V.1639862C.057998659 .04399109 .12298584-.023010254 .23899842-.023010254 .31199647-.023010254 .36099244 .0029907227 .40098573 .06399536V0H.54100039Z"/>
<path id="font_0_50" d="M.6649933 .102996829C.71398928 .16299439 .7449951 .2630005 .7449951 .36099244 .7449951 .46798707 .70700076 .57099917 .6429901 .6399994 .5799866 .70799258 .49798585 .7409973 .3939972 .7409973 .2899933 .7409973 .20799256 .70799258 .14498902 .6399994 .07998657 .57099917 .042999269 .46798707 .042999269 .35899354 .042999269 .25 .08099365 .14698792 .14498902 .07798767 .20799256 .009994507 .2899933-.023010254 .3939972-.023010254 .46998597-.023010254 .5249939-.008010864 .58299258 .026992798L.6689911-.054000856 .7449951 .026992798 .6649933 .102996829M.47999574 .27799989 .4039917 .19699097 .48098756 .12399292C.45700074 .11199951 .4249878 .10499573 .3929901 .10499573 .272995 .10499573 .19299317 .20599365 .19299317 .35899354 .19299317 .5130005 .27198792 .61299136 .3939972 .61299136 .5159912 .61299136 .59498599 .5130005 .59498599 .35798646 .59498599 .2979889 .58399966 .24398804 .56199648 .19999695L.47999574 .27799989Z"/>
<path id="font_0_80" d="M.30099488 .548996C.13598633 .548996 .034988405 .43998719 .034988405 .2630005 .034988405 .084991458 .13598633-.023010254 .3019867-.023010254 .46699525-.023010254 .56900027 .084991458 .56900027 .25898744 .56900027 .44198609 .46998597 .548996 .30099488 .548996M.3019867 .43598939C.3789978 .43598939 .42900086 .36698915 .42900086 .26098634 .42900086 .1599884 .3769989 .08999634 .3019867 .08999634 .22599793 .08999634 .1749878 .15899658 .1749878 .2630005 .1749878 .36698915 .22599793 .43598939 .3019867 .43598939Z"/>
<path id="font_0_42" d="M.21299744 .72898867H.06298828V0H.21299744V.72898867Z"/>
<path id="font_0_49" d="M.22599793 .2599945H.41299439C.5469971 .2599945 .6329956 .35499574 .6329956 .5029907 .6329956 .6489868 .5499878 .72898867 .397995 .72898867H.07598877V0H.22599793V.2599945M.22599793 .3849945V.60398867H.3659973C.44599916 .60398867 .48298646 .56900027 .48298646 .49499513 .48298646 .41999818 .44599916 .3849945 .3659973 .3849945H.22599793Z"/>
<path id="font_0_69" d="M.40499879 0H.54499819V.72898867H.40499879V.46998597C.36999513 .5239868 .32398988 .548996 .2559967 .548996 .1269989 .548996 .0289917 .4249878 .0289917 .2619934 .0289917 .18899536 .050994874 .114990238 .08699036 .06298828 .12399292 .009994507 .18998719-.023010254 .2559967-.023010254 .32398988-.023010254 .36999513 .0009918213 .40499879 .054992677V0M.2869873 .43199159C.35798646 .43199159 .40499879 .3639984 .40499879 .2599945 .40499879 .1619873 .35699464 .09399414 .2869873 .09399414 .21699524 .09399414 .16899109 .16299439 .16899109 .2619934 .16899109 .36299134 .21699524 .43199159 .2869873 .43199159Z"/>
<path id="font_0_4" d="M.1459961-.03201294 .18598938 .17199707H.2889862L.24899292-.03201294H.35398866L.3939972 .17199707H.5130005V.2709961H.41299439L.44400025 .42399598H.5529938V.522995H.46299745L.49699403 .69699099H.3919983L.35798646 .522995H.25498963L.2889862 .69699099H.18399048L.1499939 .522995H.0309906V.42399598H.12998963L.099990848 .2709961H.0029907227V.17199707H.07998657L.039993287-.03201294H.1459961M.20498657 .2709961 .23498535 .42399598H.33799745L.30799867 .2709961H.20498657Z"/>
<path id="font_0_26" d="M.037994386 .16499329C.040985109 .055999757 .1329956-.024002076 .25498963-.024002076 .34599305-.024002076 .4149933 .01399231 .45700074 .085998538 .49398805 .14898682 .5159912 .2559967 .5159912 .36999513 .5159912 .47399903 .5 .55400088 .46699525 .60798647 .42199708 .6839905 .35198976 .723999 .2669983 .723999 .125 .723999 .027999878 .621994 .027999878 .47399903 .027999878 .32798768 .11399841 .22799683 .23999024 .22799683 .27598573 .22799683 .30999757 .23799134 .33198548 .2539978 .34498597 .2630005 .35299684 .27198792 .37599183 .2979889 .37599183 .16099549 .33799745 .09599304 .25898744 .09599304 .20899964 .09599304 .17599488 .12298584 .17298889 .16499329H.037994386M.2630005 .6100006C.33099366 .6100006 .37298585 .55799868 .37298585 .47399903 .37298585 .3959961 .32998658 .34399415 .2649994 .34399415 .20098877 .34399415 .16099549 .3939972 .16099549 .47599793 .16099549 .55799868 .19999695 .6100006 .2630005 .6100006Z"/>
<path id="font_0_6" d="M.20599365 .70098879C.10499573 .70098879 .021987915 .61898806 .021987915 .5189972 .021987915 .4189911 .10499573 .33699037 .20599365 .33699037 .30699159 .33699037 .3899994 .41799928 .3899994 .5169983 .3899994 .6199951 .30899049 .70098879 .20599365 .70098879M.20599365 .60198977C.2539978 .60198977 .29100038 .5649872 .29100038 .5179901 .29100038 .47200013 .25299073 .43499757 .20599365 .43499757 .15899658 .43499757 .12098694 .47200013 .12098694 .5189972 .12098694 .5649872 .15899658 .60198977 .20599365 .60198977M.60598757 .70899966 .20999146-.020004273H.2869873L.6819916 .70899966H.60598757M.67900088 .35198976C.57699587 .35198976 .49499513 .269989 .49499513 .16999817 .49499513 .068984989 .57699587-.013000488 .67900088-.013000488 .7799988-.013000488 .86299136 .068984989 .86299136 .16699219 .86299136 .2709961 .7819977 .35198976 .67900088 .35198976M.67900088 .25299073C.72698977 .25299073 .7639923 .21598816 .7639923 .16799927 .7639923 .12298584 .72499087 .084991458 .67900088 .084991458 .6319885 .084991458 .59399417 .12298584 .59399417 .16899109 .59399417 .21499634 .6319885 .25299073 .67900088 .25299073Z"/>
<path id="font_0_36" d="M.6819916 .48199464C.6769867 .54499819 .6639862 .58499148 .6329956 .6259918 .57699587 .69999697 .4869995 .7409973 .37799073 .7409973 .17199707 .7409973 .04399109 .59399417 .04399109 .35798646 .04399109 .12298584 .17098999-.023010254 .37399293-.023010254 .55599978-.023010254 .6759949 .08198547 .68499758 .24899292H.5389862C.5289917 .1559906 .47099305 .102996829 .37799073 .102996829 .2619934 .102996829 .19400025 .19699097 .19400025 .35598756 .19400025 .5169983 .2649994 .61299136 .3829956 .61299136 .46998597 .61299136 .5189972 .57099917 .5389862 .48199464H.6819916Z"/>
</defs>
<path transform="matrix(.5,0,0,.5,-15.475397,-34.241)" d="M0 0H1120V840H0Z" fill="#ffffff"/>
<path transform="matrix(.5,0,0,.5,-15.475397,-34.241)" d="M73 332.95H507V72.55H73Z" fill="#ffffff"/>
<path transform="matrix(.5,0,0,.5,-15.475397,-34.241)" stroke-width=".5" stroke-linecap="butt" stroke-linejoin="round" fill="none" stroke="#262626" stroke-opacity=".14901962" d="M73 332.95V72.55"/>
<path transform="matrix(.5,0,0,.5,-15.475397,-34.241)" stroke-width=".5" stroke-linecap="butt" stroke-linejoin="round" fill="none" stroke="#262626" stroke-opacity=".14901962" d="M159.8 332.95V72.55"/>
<path transform="matrix(.5,0,0,.5,-15.475397,-34.241)" stroke-width=".5" stroke-linecap="butt" stroke-linejoin="round" fill="none" stroke="#262626" stroke-opacity=".14901962" d="M246.6 332.95V72.55"/>
<path transform="matrix(.5,0,0,.5,-15.475397,-34.241)" stroke-width=".5" stroke-linecap="butt" stroke-linejoin="round" fill="none" stroke="#262626" stroke-opacity=".14901962" d="M333.4 332.95V72.55"/>
<path transform="matrix(.5,0,0,.5,-15.475397,-34.241)" stroke-width=".5" stroke-linecap="butt" stroke-linejoin="round" fill="none" stroke="#262626" stroke-opacity=".14901962" d="M420.2 332.95V72.55"/>
<path transform="matrix(.5,0,0,.5,-15.475397,-34.241)" stroke-width=".5" stroke-linecap="butt" stroke-linejoin="round" fill="none" stroke="#262626" stroke-opacity=".14901962" d="M507 332.95V72.55"/>
<path transform="matrix(.5,0,0,.5,-15.475397,-34.241)" stroke-width=".5" stroke-linecap="butt" stroke-linejoin="round" fill="none" stroke="#262626" stroke-opacity=".14901962" d="M507 332.95H73"/>
<path transform="matrix(.5,0,0,.5,-15.475397,-34.241)" stroke-width=".5" stroke-linecap="butt" stroke-linejoin="round" fill="none" stroke="#262626" stroke-opacity=".14901962" d="M507 289.55H73"/>
<path transform="matrix(.5,0,0,.5,-15.475397,-34.241)" stroke-width=".5" stroke-linecap="butt" stroke-linejoin="round" fill="none" stroke="#262626" stroke-opacity=".14901962" d="M507 246.15H73"/>
<path transform="matrix(.5,0,0,.5,-15.475397,-34.241)" stroke-width=".5" stroke-linecap="butt" stroke-linejoin="round" fill="none" stroke="#262626" stroke-opacity=".14901962" d="M507 202.75H73"/>
<path transform="matrix(.5,0,0,.5,-15.475397,-34.241)" stroke-width=".5" stroke-linecap="butt" stroke-linejoin="round" fill="none" stroke="#262626" stroke-opacity=".14901962" d="M507 159.35H73"/>
<path transform="matrix(.5,0,0,.5,-15.475397,-34.241)" stroke-width=".5" stroke-linecap="butt" stroke-linejoin="round" fill="none" stroke="#262626" stroke-opacity=".14901962" d="M507 115.95H73"/>
<path transform="matrix(.5,0,0,.5,-15.475397,-34.241)" stroke-width=".5" stroke-linecap="butt" stroke-linejoin="round" fill="none" stroke="#262626" stroke-opacity=".14901962" d="M507 72.55H73"/>
<path transform="matrix(.5,0,0,.5,-15.475397,-34.241)" stroke-width=".5" stroke-linecap="square" stroke-linejoin="round" fill="none" stroke="#262626" d="M73 332.95H507"/>
<path transform="matrix(.5,0,0,.5,-15.475397,-34.241)" stroke-width=".5" stroke-linecap="square" stroke-linejoin="round" fill="none" stroke="#262626" d="M73 72.55H507"/>
<path transform="matrix(.5,0,0,.5,-15.475397,-34.241)" stroke-width=".5" stroke-linecap="square" stroke-linejoin="round" fill="none" stroke="#262626" d="M73 332.95V328.61"/>
<path transform="matrix(.5,0,0,.5,-15.475397,-34.241)" stroke-width=".5" stroke-linecap="square" stroke-linejoin="round" fill="none" stroke="#262626" d="M159.8 332.95V328.61"/>
<path transform="matrix(.5,0,0,.5,-15.475397,-34.241)" stroke-width=".5" stroke-linecap="square" stroke-linejoin="round" fill="none" stroke="#262626" d="M246.6 332.95V328.61"/>
<path transform="matrix(.5,0,0,.5,-15.475397,-34.241)" stroke-width=".5" stroke-linecap="square" stroke-linejoin="round" fill="none" stroke="#262626" d="M333.4 332.95V328.61"/>
<path transform="matrix(.5,0,0,.5,-15.475397,-34.241)" stroke-width=".5" stroke-linecap="square" stroke-linejoin="round" fill="none" stroke="#262626" d="M420.2 332.95V328.61"/>
<path transform="matrix(.5,0,0,.5,-15.475397,-34.241)" stroke-width=".5" stroke-linecap="square" stroke-linejoin="round" fill="none" stroke="#262626" d="M507 332.95V328.61"/>
<path transform="matrix(.5,0,0,.5,-15.475397,-34.241)" stroke-width=".5" stroke-linecap="square" stroke-linejoin="round" fill="none" stroke="#262626" d="M73 72.55V76.89"/>
<path transform="matrix(.5,0,0,.5,-15.475397,-34.241)" stroke-width=".5" stroke-linecap="square" stroke-linejoin="round" fill="none" stroke="#262626" d="M159.8 72.55V76.89"/>
<path transform="matrix(.5,0,0,.5,-15.475397,-34.241)" stroke-width=".5" stroke-linecap="square" stroke-linejoin="round" fill="none" stroke="#262626" d="M246.6 72.55V76.89"/>
<path transform="matrix(.5,0,0,.5,-15.475397,-34.241)" stroke-width=".5" stroke-linecap="square" stroke-linejoin="round" fill="none" stroke="#262626" d="M333.4 72.55V76.89"/>
<path transform="matrix(.5,0,0,.5,-15.475397,-34.241)" stroke-width=".5" stroke-linecap="square" stroke-linejoin="round" fill="none" stroke="#262626" d="M420.2 72.55V76.89"/>
<path transform="matrix(.5,0,0,.5,-15.475397,-34.241)" stroke-width=".5" stroke-linecap="square" stroke-linejoin="round" fill="none" stroke="#262626" d="M507 72.55V76.89"/>
<use data-text="0" xlink:href="#font_0_17" transform="matrix(6,0,0,-6,19.274603,140.434)" fill="#262626"/>
<use data-text="5" xlink:href="#font_0_22" transform="matrix(6,0,0,-6,60.924608,140.434)" fill="#262626"/>
<use data-text="0" xlink:href="#font_0_17" transform="matrix(6,0,0,-6,64.260608,140.434)" fill="#262626"/>
<use data-text="1" xlink:href="#font_0_18" transform="matrix(6,0,0,-6,102.57461,140.434)" fill="#262626"/>
<use data-text="0" xlink:href="#font_0_17" transform="matrix(6,0,0,-6,105.91061,140.434)" fill="#262626"/>
<use data-text="0" xlink:href="#font_0_17" transform="matrix(6,0,0,-6,109.24661,140.434)" fill="#262626"/>
<use data-text="1" xlink:href="#font_0_18" transform="matrix(6,0,0,-6,145.9746,140.434)" fill="#262626"/>
<use data-text="5" xlink:href="#font_0_22" transform="matrix(6,0,0,-6,149.3106,140.434)" fill="#262626"/>
<use data-text="0" xlink:href="#font_0_17" transform="matrix(6,0,0,-6,152.64659,140.434)" fill="#262626"/>
<use data-text="2" xlink:href="#font_0_19" transform="matrix(6,0,0,-6,189.3746,140.434)" fill="#262626"/>
<use data-text="0" xlink:href="#font_0_17" transform="matrix(6,0,0,-6,192.7106,140.434)" fill="#262626"/>
<use data-text="0" xlink:href="#font_0_17" transform="matrix(6,0,0,-6,196.0466,140.434)" fill="#262626"/>
<use data-text="2" xlink:href="#font_0_19" transform="matrix(6,0,0,-6,232.7746,140.434)" fill="#262626"/>
<use data-text="5" xlink:href="#font_0_22" transform="matrix(6,0,0,-6,236.1106,140.434)" fill="#262626"/>
<use data-text="0" xlink:href="#font_0_17" transform="matrix(6,0,0,-6,239.4466,140.434)" fill="#262626"/>
<use data-text="T" xlink:href="#font_0_53" transform="matrix(6.6,0,0,-6.6,117.024707,148.934)" fill="#262626"/>
<use data-text="i" xlink:href="#font_0_74" transform="matrix(6.6,0,0,-6.6,121.057308,148.934)" fill="#262626"/>
<use data-text="m" xlink:href="#font_0_78" transform="matrix(6.6,0,0,-6.6,122.892108,148.934)" fill="#262626"/>
<use data-text="e" xlink:href="#font_0_70" transform="matrix(6.6,0,0,-6.6,128.7595,148.934)" fill="#262626"/>
<use data-text=" " xlink:href="#font_0_1" transform="matrix(6.6,0,0,-6.6,132.42911,148.934)" fill="#262626"/>
<use data-text="(" xlink:href="#font_0_9" transform="matrix(6.6,0,0,-6.6,134.2639,148.934)" fill="#262626"/>
<use data-text="s" xlink:href="#font_0_84" transform="matrix(6.6,0,0,-6.6,136.4617,148.934)" fill="#262626"/>
<use data-text=")" xlink:href="#font_0_10" transform="matrix(6.6,0,0,-6.6,140.1313,148.934)" fill="#262626"/>
<path transform="matrix(.5,0,0,.5,-15.475397,-34.241)" stroke-width=".5" stroke-linecap="square" stroke-linejoin="round" fill="none" stroke="#262626" d="M73 332.95V72.55"/>
<path transform="matrix(.5,0,0,.5,-15.475397,-34.241)" stroke-width=".5" stroke-linecap="square" stroke-linejoin="round" fill="none" stroke="#262626" d="M507 332.95V72.55"/>
<path transform="matrix(.5,0,0,.5,-15.475397,-34.241)" stroke-width=".5" stroke-linecap="square" stroke-linejoin="round" fill="none" stroke="#262626" d="M73 332.95H77.34"/>
<path transform="matrix(.5,0,0,.5,-15.475397,-34.241)" stroke-width=".5" stroke-linecap="square" stroke-linejoin="round" fill="none" stroke="#262626" d="M73 289.55H77.34"/>
<path transform="matrix(.5,0,0,.5,-15.475397,-34.241)" stroke-width=".5" stroke-linecap="square" stroke-linejoin="round" fill="none" stroke="#262626" d="M73 246.15H77.34"/>
<path transform="matrix(.5,0,0,.5,-15.475397,-34.241)" stroke-width=".5" stroke-linecap="square" stroke-linejoin="round" fill="none" stroke="#262626" d="M73 202.75H77.34"/>
<path transform="matrix(.5,0,0,.5,-15.475397,-34.241)" stroke-width=".5" stroke-linecap="square" stroke-linejoin="round" fill="none" stroke="#262626" d="M73 159.35H77.34"/>
<path transform="matrix(.5,0,0,.5,-15.475397,-34.241)" stroke-width=".5" stroke-linecap="square" stroke-linejoin="round" fill="none" stroke="#262626" d="M73 115.95H77.34"/>
<path transform="matrix(.5,0,0,.5,-15.475397,-34.241)" stroke-width=".5" stroke-linecap="square" stroke-linejoin="round" fill="none" stroke="#262626" d="M73 72.55H77.34"/>
<path transform="matrix(.5,0,0,.5,-15.475397,-34.241)" stroke-width=".5" stroke-linecap="square" stroke-linejoin="round" fill="none" stroke="#262626" d="M507 332.95H502.66"/>
<path transform="matrix(.5,0,0,.5,-15.475397,-34.241)" stroke-width=".5" stroke-linecap="square" stroke-linejoin="round" fill="none" stroke="#262626" d="M507 289.55H502.66"/>
<path transform="matrix(.5,0,0,.5,-15.475397,-34.241)" stroke-width=".5" stroke-linecap="square" stroke-linejoin="round" fill="none" stroke="#262626" d="M507 246.15H502.66"/>
<path transform="matrix(.5,0,0,.5,-15.475397,-34.241)" stroke-width=".5" stroke-linecap="square" stroke-linejoin="round" fill="none" stroke="#262626" d="M507 202.75H502.66"/>
<path transform="matrix(.5,0,0,.5,-15.475397,-34.241)" stroke-width=".5" stroke-linecap="square" stroke-linejoin="round" fill="none" stroke="#262626" d="M507 159.35H502.66"/>
<path transform="matrix(.5,0,0,.5,-15.475397,-34.241)" stroke-width=".5" stroke-linecap="square" stroke-linejoin="round" fill="none" stroke="#262626" d="M507 115.95H502.66"/>
<path transform="matrix(.5,0,0,.5,-15.475397,-34.241)" stroke-width=".5" stroke-linecap="square" stroke-linejoin="round" fill="none" stroke="#262626" d="M507 72.55H502.66"/>
<use data-text="-" xlink:href="#font_0_14" transform="matrix(6,0,0,-6,12.824602,134.48401)" fill="#262626"/>
<use data-text="1" xlink:href="#font_0_18" transform="matrix(6,0,0,-6,14.822602,134.48401)" fill="#262626"/>
<use data-text="-" xlink:href="#font_0_14" transform="matrix(6,0,0,-6,7.824602,112.78399)" fill="#262626"/>
<use data-text="0" xlink:href="#font_0_17" transform="matrix(6,0,0,-6,9.822602,112.78399)" fill="#262626"/>
<use data-text="." xlink:href="#font_0_15" transform="matrix(6,0,0,-6,13.158603,112.78399)" fill="#262626"/>
<use data-text="5" xlink:href="#font_0_22" transform="matrix(6,0,0,-6,14.826603,112.78399)" fill="#262626"/>
<use data-text="0" xlink:href="#font_0_17" transform="matrix(6,0,0,-6,15.324602,91.08399)" fill="#262626"/>
<use data-text="0" xlink:href="#font_0_17" transform="matrix(6,0,0,-6,10.324602,69.383998)" fill="#262626"/>
<use data-text="." xlink:href="#font_0_15" transform="matrix(6,0,0,-6,13.660603,69.383998)" fill="#262626"/>
<use data-text="5" xlink:href="#font_0_22" transform="matrix(6,0,0,-6,15.328603,69.383998)" fill="#262626"/>
<use data-text="1" xlink:href="#font_0_18" transform="matrix(6,0,0,-6,15.324602,47.684003)" fill="#262626"/>
<use data-text="1" xlink:href="#font_0_18" transform="matrix(6,0,0,-6,10.324602,25.983998)" fill="#262626"/>
<use data-text="." xlink:href="#font_0_15" transform="matrix(6,0,0,-6,13.660603,25.983998)" fill="#262626"/>
<use data-text="5" xlink:href="#font_0_22" transform="matrix(6,0,0,-6,15.328603,25.983998)" fill="#262626"/>
<use data-text="2" xlink:href="#font_0_19" transform="matrix(6,0,0,-6,15.324602,4.2840006)" fill="#262626"/>
<use data-text="W" xlink:href="#font_0_56" transform="matrix(-.00000028050003,-6.6,-6.6,.00000028050003,4.824603,92.383937)" fill="#262626"/>
<use data-text="a" xlink:href="#font_0_66" transform="matrix(-.00000028050003,-6.6,-6.6,.00000028050003,4.824603,86.153537)" fill="#262626"/>
<use data-text="v" xlink:href="#font_0_87" transform="matrix(-.00000028050003,-6.6,-6.6,.00000028050003,4.8246028,82.48393)" fill="#262626"/>
<use data-text="e" xlink:href="#font_0_70" transform="matrix(-.00000028050003,-6.6,-6.6,.00000028050003,4.8246028,78.81433)" fill="#262626"/>
<use data-text=" " xlink:href="#font_0_1" transform="matrix(-.00000028050003,-6.6,-6.6,.00000028050003,4.8246028,75.14473)" fill="#262626"/>
<use data-text="h" xlink:href="#font_0_73" transform="matrix(-.00000028050003,-6.6,-6.6,.00000028050003,4.824602,73.30993)" fill="#262626"/>
<use data-text="e" xlink:href="#font_0_70" transform="matrix(-.00000028050003,-6.6,-6.6,.00000028050003,4.824602,69.27733)" fill="#262626"/>
<use data-text="i" xlink:href="#font_0_74" transform="matrix(-.00000028050003,-6.6,-6.6,.00000028050003,4.824602,65.607738)" fill="#262626"/>
<use data-text="g" xlink:href="#font_0_72" transform="matrix(-.00000028050003,-6.6,-6.6,.00000028050003,4.824602,63.772935)" fill="#262626"/>
<use data-text="h" xlink:href="#font_0_73" transform="matrix(-.00000028050003,-6.6,-6.6,.00000028050003,4.8246018,59.740335)" fill="#262626"/>
<use data-text="t" xlink:href="#font_0_85" transform="matrix(-.00000028050003,-6.6,-6.6,.00000028050003,4.8246018,55.707735)" fill="#262626"/>
<use data-text=" " xlink:href="#font_0_1" transform="matrix(-.00000028050003,-6.6,-6.6,.00000028050003,4.8246018,53.509935)" fill="#262626"/>
<use data-text="(" xlink:href="#font_0_9" transform="matrix(-.00000028050003,-6.6,-6.6,.00000028050003,4.824601,51.675134)" fill="#262626"/>
<use data-text="m" xlink:href="#font_0_78" transform="matrix(-.00000028050003,-6.6,-6.6,.00000028050003,4.824601,49.477334)" fill="#262626"/>
<use data-text=")" xlink:href="#font_0_10" transform="matrix(-.00000028050003,-6.6,-6.6,.00000028050003,4.824601,43.609933)" fill="#262626"/>
<path transform="matrix(.5,0,0,.5,-15.475397,-34.241)" stroke-width="2.5" stroke-linecap="butt" stroke-dasharray="2,2" stroke-linejoin="bevel" fill="none" stroke="#000000" d="M74.736 246.15H76.472 78.208 79.944 81.68 83.416 85.152 86.888 88.624 90.36 92.096 93.832 95.568 97.304 99.04 100.776 102.512 104.248L105.984 246.15091 107.72 246.19928 109.456 246.28623 111.192 246.37813 112.928 246.38523 114.664 246.31462 116.4 246.26287 118.136 246.23149 119.872 246.18332 121.608 246.14958 123.344 246.21904 125.08 246.44834 126.816 246.83097 128.552 247.25139 130.288 247.44486 132.024 247.32965 133.76 247.48137 135.496 248.59276 137.232 249.69649 138.968 249.53546 140.704 248.51473 142.44 248.45111 144.176 249.97104 145.912 252.43959 147.648 254.46147 149.384 255.76319 151.12 257.36988 152.856 259.3283 154.592 261.25694 156.328 262.28507 158.064 255.87284 159.8 234.77173 161.536 206.14817 163.272 177.81993 165.008 137.98035 166.744 90.98631 168.48 87.22488 170.216 122.314678 171.952 138.96196 173.688 128.93767 175.424 119.14687 177.16 130.04755 178.896 147.9817 180.632 133.23363 182.368 114.04239 184.104 136.6048 185.84 144.82302 187.576 125.52913 189.312 131.29769 191.048 144.4222 192.784 144.76602 194.52 137.7543 196.256 135.48427 197.992 142.85205 199.728 141.09889 201.464 139.76047 203.2 146.50684 204.936 135.87537 206.672 132.77211 208.408 143.44458 210.144 138.43994 211.88 145.6092 213.616 154.29575 215.352 144.79431 217.088 144.98694 218.824 156.22081 220.56 155.25753 222.296 144.52738 224.032 141.83148 225.768 154.44229 227.504 152.2777 229.24 134.39655 230.976 145.21451 232.712 154.56406 234.448 140.31165 236.184 140.28797 237.92 146.39575 239.656 139.42684 241.392 146.91439 243.128 151.54811 244.864 140.39617 246.6 141.71051 248.336 152.05667 250.072 150.79956 251.808 133.4231 253.544 135.2517 255.28 153.90984 257.016 153.3093 258.752 136.92415 260.488 137.33567 262.224 154.4382 263.96 157.62859 265.696 139.15735 267.432 130.58708 269.168 152.52857 270.904 160.9098 272.64 137.23047 274.376 135.07384 276.112 158.74886 277.848 156.58769 279.584 131.74546 281.32 134.46698 283.056 157.62589 284.792 154.84116 286.528 141.51543 288.264 139.56348 290 153.77893 291.736 160.41909 293.472 143.37357 295.208 140.25199 296.944 153.85054 298.68 152.27503 300.416 149.61156 302.152 149.34804 303.888 141.62923 305.624 156.34806 307.36 162.68143 309.096 141.11856 310.832 138.24214 312.568 155.04953 314.304 168.56793 316.04 153.58252 317.776 136.00879 319.512 160.5656 321.248 173.38585 322.984 139.7303 324.72 135.81716 326.456 167.63512 328.192 156.63414 329.928 139.4755 331.664 150.4636 333.4 163.83551 335.136 165.07707 336.872 148.53527 338.608 143.86405 340.344 165.99135 342.08 161.53444 343.816 134.71839 345.552 147.45523 347.288 169.06783 349.024 153.89235 350.76 147.04576 352.496 151.4739 354.232 155.07675 355.968 152.00479 357.704 147.96884 359.44 162.06345 361.176 158.11089 362.912 136.15082 364.648 152.9512 366.384 178.24784 368.12 151.95851 369.856 127.78626 371.592 149.39157 373.328 177.08983 375.064 159.00884 376.8 133.74454 378.536 139.92119 380.272 154.88495 382.008 166.85976 383.744 156.54465 385.48 129.38915 387.216 133.91248 388.952 177.19963 390.688 174.08452 392.424 127.62068 394.16 128.7302 395.896 167.84735 397.632 167.67638 399.368 134.51468 401.104 133.24735 402.84 158.10036 404.576 158.86835 406.312 151.29967 408.048 155.49848 409.784 142.88043 411.52 141.72249 413.256 167.84923 414.992 164.9299 416.728 136.67572 418.464 141.44025 420.2 160.67899 421.936 155.94861 423.672 146.54975 425.408 150.61769 427.144 151.5205 428.88 151.54979 430.616 160.24573 432.352 157.47225 434.088 147.85483 435.824 156.13677 437.56 167.31337 439.296 153.72953 441.032 141.60166 442.768 163.79592 444.504 167.18878 446.24 143.3594 447.976 149.8505 449.712 168.32695 451.448 156.44532 453.184 151.7852 454.92 160.82915 456.656 148.22472 458.392 156.60642 460.128 181.627 461.864 157.83875 463.6 127.35259 465.336 155.89241 467.072 188.00724 468.808 167.14533 470.544 130.83046 472.28 146.83309 474.016 183.55567 475.752 175.46184 477.488 151.20508 479.224 143.82895 480.96 152.98635 482.696 186.95983 484.432 183.51845 486.168 126.05139 487.904 136.08756 489.64 187.78839"/>
<path transform="matrix(.5,0,0,.5,-15.475397,-34.241)" stroke-width="2" stroke-linecap="butt" stroke-linejoin="round" fill="none" stroke="#d95319" d="M74.736 246.14974 76.472 246.47998 78.208 247.1786 79.944 248.41399 81.68 249.24874 83.416 249.57067 85.152 249.83029 86.888 249.9747 88.624 249.29863 90.36 248.57393 92.096 249.5508 93.832 250.741 95.568 250.40763 97.304 249.60312 99.04 250.83666 100.776 250.49716 102.512 246.6312 104.248 245.2543 105.984 245.95539 107.72 245.54566 109.456 247.41436 111.192 249.3927 112.928 250.37158 114.664 254.07508 116.4 249.18854 118.136 245.09725 119.872 249.3178 121.608 252.17839 123.344 250.02777 125.08 247.13 126.816 253.49962 128.552 254.98473 130.288 245.87845 132.024 250.70241 133.76 260.79734 135.496 252.46897 137.232 254.81734 138.968 261.05757 140.704 249.20934 142.44 252.47492 144.176 265.50373 145.912 263.60673 147.648 263.39985 149.384 273.33079 151.12 278.21067 152.856 268.921 154.592 269.39558 156.328 280.28858 158.064 252.82402 159.8 209.70125 161.536 206.1586 163.272 203.63507 165.008 155.26586 166.744 123.6184 168.48 137.85314 170.216 147.72898 171.952 147.41788 173.688 132.61106 175.424 114.2602 177.16 136.62595 178.896 165.23555 180.632 137.0879 182.368 110.832538 184.104 138.54636 185.84 154.24684 187.576 139.02845 189.312 149.35733 191.048 163.73703 192.784 157.37177 194.52 142.11565 196.256 132.57032 197.992 133.4551 199.728 132.69506 201.464 133.73563 203.2 141.13993 204.936 145.1222 206.672 142.78444 208.408 129.46596 210.144 128.67945 211.88 152.16384 213.616 149.89954 215.352 123.62868 217.088 124.5454 218.824 143.38852 220.56 144.80905 222.296 136.81549 224.032 147.51073 225.768 153.4798 227.504 128.50307 229.24 117.88158 230.976 137.50189 232.712 147.60707 234.448 137.33277 236.184 130.53818 237.92 130.16399 239.656 139.69617 241.392 149.34876 243.128 135.89806 244.864 125.26976 246.6 137.34839 248.336 141.17293 250.072 133.46132 251.808 124.45844 253.544 133.45601 255.28 155.98665 257.016 138.90094 258.752 117.18467 260.488 141.22509 262.224 163.81194 263.96 155.02649 265.696 130.03801 267.432 112.46171 269.168 134.28792 270.904 152.93569 272.64 135.03485 274.376 143.05988 276.112 166.00322 277.848 147.38657 279.584 126.89773 281.32 130.45201 283.056 152.57729 284.792 171.47913 286.528 138.45503 288.264 108.75161 290 146.51103 291.736 166.31848 293.472 137.05484 295.208 134.70146 296.944 161.34702 298.68 153.0783 300.416 135.1068 302.152 140.93704 303.888 145.69112 305.624 160.69049 307.36 168.77439 309.096 140.20154 310.832 121.18526 312.568 139.39527 314.304 166.5244 316.04 166.2088 317.776 132.3888 319.512 132.4166 321.248 165.83486 322.984 157.02718 324.72 145.36086 326.456 152.56128 328.192 145.45964 329.928 150.64263 331.664 152.85497 333.4 154.30783 335.136 161.47895 336.872 143.43698 338.608 147.19695 340.344 179.86219 342.08 156.80777 343.816 124.71405 345.552 147.7584 347.288 158.38994 349.024 160.34734 350.76 167.23313 352.496 158.57062 354.232 158.8405 355.968 141.6801 357.704 126.34626 359.44 159.92015 361.176 168.75682 362.912 141.88568 364.648 154.78441 366.384 172.35166 368.12 157.20539 369.856 153.16503 371.592 160.95584 373.328 177.2922 375.064 175.28778 376.8 137.20967 378.536 117.52849 380.272 144.27033 382.008 181.92606 383.744 186.34535 385.48 130.47365 387.216 103.76936 388.952 176.9787 390.688 215.04309 392.424 156.05973 394.16 125.583827 395.896 169.05808 397.632 172.6994 399.368 129.6493 401.104 138.42378 402.84 172.13837 404.576 165.05078 406.312 149.51877 408.048 156.38196 409.784 155.49211 411.52 147.47872 413.256 151.88697 414.992 156.48162 416.728 147.91819 418.464 135.60483 420.2 147.46149 421.936 161.686 423.672 146.96216 425.408 137.46729 427.144 146.93349 428.88 142.34664 430.616 144.12717 432.352 152.08234 434.088 144.88843 435.824 154.08034 437.56 155.42729 439.296 131.53455 441.032 130.191 442.768 149.39733 444.504 146.0451 446.24 136.0954 447.976 145.55387 449.712 147.84868 451.448 138.91324 453.184 151.31859 454.92 157.247 456.656 136.53308 458.392 139.98622 460.128 165.85416 461.864 157.0442 463.6 129.78054 465.336 138.1224 467.072 174.68619 468.808 175.8231 470.544 144.41225 472.28 161.29552 474.016 191.36002 475.752 154.32515 477.488 116.99913 479.224 117.54378 480.96 140.63642 482.696 187.49736 484.432 180.15715 486.168 127.23349 487.904 142.10248 489.64 184.30699"/>
<path transform="matrix(.5,0,0,.5,-15.475397,-34.241)" d="M95.568 257.71437 97.304 257.3918 99.04 259.148 100.776 259.27296 102.512 255.8115 104.248 254.83327 105.984 255.89525 107.72 255.82798 109.456 258.01475 111.192 260.31953 112.928 261.63978 114.664 265.64805 116.4 261.0711 118.136 257.2588 119.872 261.7512 121.608 264.90989 123.344 263.00138 125.08 260.34516 126.816 266.98005 128.552 268.6924 130.288 259.8064 132.024 264.8439 133.76 275.1341 135.496 267.02107 137.232 269.56498 138.968 275.9743 140.704 264.2932 142.44 267.73374 144.176 280.92646 145.912 279.17228 147.648 279.11213 149.384 289.19679 151.12 294.20323 152.856 285.05357 154.592 285.6474 156.328 296.65333 158.064 269.30903 159.8 226.29286 161.536 222.86098 163.272 220.4484 165.008 172.19525 166.744 140.66374 168.48 154.99089 170.216 164.9851 171.952 164.78008 173.688 150.07219 175.424 131.81423 177.16 154.27236 178.896 182.96425 180.632 154.90227 182.368 128.72736 184.104 156.51885 185.84 172.30681 187.576 157.1686 189.312 167.57466 191.048 182.03491 192.784 175.7414 194.52 160.55667 196.256 151.08159 197.992 152.0318 199.728 151.33957 201.464 152.4478 203.2 159.9165 204.936 163.96167 206.672 161.69278 208.408 148.438 210.144 147.71218 211.88 171.26007 213.616 169.06085 215.352 142.8577 217.088 143.8469 218.824 162.7662 220.56 164.26168 222.296 156.3499 224.032 167.11469 225.768 173.15903 227.504 148.25601 229.24 137.70981 230.976 157.40991 232.712 167.58751 234.448 157.39698 236.184 150.68494 237.92 150.384 239.656 159.99706 241.392 169.73105 243.128 156.3661 244.864 145.82657 246.6 157.98926 248.336 161.89559 250.072 154.27394 251.808 145.36023 253.544 154.4476 255.28 177.06815 257.016 160.07668 258.752 138.46422 260.488 162.59998 262.224 185.2823 263.96 176.59401 265.696 151.70272 267.432 134.21569 269.168 156.12966 270.904 174.87712 272.64 157.06836 274.376 165.18456 276.112 188.22405 277.848 169.69838 279.584 149.28928 281.32 152.92462 283.056 175.12973 284.792 194.11206 286.528 161.17041 288.264 131.54909 290 169.39542 291.736 189.27437 293.472 160.08599 295.208 157.8037 296.944 184.51775 298.68 176.32309 300.416 158.42183 302.152 164.32257 303.888 169.15663 305.624 184.24179 307.36 192.39936 309.096 163.90395 310.832 144.96907 312.568 163.25275 314.304 190.46134 316.04 190.23175 317.776 156.49417 319.512 156.59917 321.248 190.09949 322.984 181.37186 324.72 169.78342 326.456 177.06781 328.192 170.06504 329.928 175.33698 331.664 177.63344 333.4 179.17427 335.136 186.42804 336.872 168.47559 338.608 172.31664 340.344 205.05947 342.08 182.11949 343.816 150.13129 345.552 173.29485 347.288 184.04106 349.024 186.10016 350.76 193.10675 352.496 184.53022 354.232 184.89179 355.968 167.8363 357.704 152.58809 359.44 186.23291 361.176 195.1398 362.912 168.33985 364.648 181.30483 366.384 198.93988 368.12 183.87979 369.856 179.91222 371.592 187.76624 373.328 204.17113 375.064 202.24318 376.8 164.23883 378.536 144.6273 380.272 171.43465 382.008 209.16234 383.744 213.64023 385.48 157.83742 387.216 131.19803 388.952 204.48046 390.688 242.6178 392.424 183.71305 394.16 153.32512 395.896 196.88495 397.632 200.60776 399.368 157.63187 401.104 166.48096 402.84 200.29007 404.576 193.2826 406.312 177.82231 408.048 184.8004 409.784 184.03961 411.52 176.17676 413.256 180.74866 414.992 185.5121 416.728 177.12197 418.464 164.96881 420.2 176.96161 421.936 191.3553 423.672 176.83144 425.408 167.56874 427.144 177.27783 428.88 172.9877 430.616 175.08765 432.352 183.33139 434.088 176.49268 435.824 186.02498 437.56 187.66939 439.296 164.07453 441.032 163.02227 442.768 182.52455 444.504 179.5153 446.24 169.83835 447.976 179.55925 449.712 182.14609 451.448 173.45322 453.184 186.12915 454.92 192.4216 456.656 172.12545 458.392 176.0595 460.128 202.35514 461.864 193.98798 463.6 167.26345 465.336 176.11008 467.072 213.21312 468.808 214.9416 470.544 184.05136 472.28 201.51424 474.016 232.32363 475.752 195.77364 477.488 158.97194 479.224 159.98906 480.96 183.59989 482.696 230.9572 484.432 224.3071 486.168 172.90338 487.904 188.53069 489.64 231.97957V136.63442L487.904 95.67427 486.168 81.5636 484.432 136.00722 482.696 144.0375 480.96 97.67295 479.224 75.09847 477.488 75.02632 475.752 112.876659 474.016 150.39641 472.28 121.07681 470.544 104.77314 468.808 136.7046 467.072 136.15926 465.336 100.13471 463.6 92.29764 461.864 120.10042 460.128 129.35317 458.392 103.912929 456.656 100.94071 454.92 122.0724 453.184 116.508029 451.448 104.37325 449.712 113.551288 447.976 111.548458 446.24 102.35243 444.504 112.5749 442.768 116.2701 441.032 97.3597 439.296 98.994579 437.56 123.185199 435.824 122.1357 434.088 113.284168 432.352 120.833278 430.616 113.16668 428.88 111.70555 427.144 116.589138 425.408 107.36584 423.672 117.092868 421.936 132.01673 420.2 117.96137 418.464 106.240818 416.728 118.7144 414.992 127.45111 413.256 123.02525 411.52 118.780658 409.784 126.944599 408.048 127.96353 406.312 121.21524 404.576 136.81899 402.84 143.98665 401.104 110.366619 399.368 101.66674 397.632 144.79103 395.896 141.23122 394.16 97.84254 392.424 128.4064 390.688 187.4684 388.952 149.47695 387.216 76.34068 385.48 103.10987 383.744 159.05048 382.008 154.68976 380.272 117.10599 378.536 90.42968 376.8 110.180507 375.064 148.33237 373.328 150.41329 371.592 134.14543 369.856 126.41782 368.12 130.53099 366.384 145.76345 364.648 128.26399 362.912 115.4315 361.176 142.37383 359.44 133.60738 357.704 100.104419 355.968 115.523899 354.232 132.78923 352.496 132.61103 350.76 141.35951 349.024 134.59452 347.288 132.73882 345.552 122.22196 343.816 99.29682 342.08 131.49605 340.344 154.6649 338.608 122.07725 336.872 118.398387 335.136 136.52985 333.4 129.4414 331.664 128.0765 329.928 125.94828 328.192 120.854228 326.456 128.05475 324.72 120.9383 322.984 132.68248 321.248 141.57024 319.512 108.234 317.776 108.2834 316.04 142.18587 314.304 142.58748 312.568 115.53776 310.832 97.40146 309.096 116.49912 307.36 145.14942 305.624 137.1392 303.888 122.22561 302.152 117.55152 300.416 111.79178 298.68 129.8335 296.944 138.17629 295.208 111.59925 293.472 114.02371 291.736 143.3626 290 123.626659 288.264 85.95411 286.528 115.73966 284.792 148.8462 283.056 130.02486 281.32 107.97939 279.584 104.50619 277.848 125.07475 276.112 143.78243 274.376 120.9352 272.64 113.00132 270.904 130.99425 269.168 112.446208 267.432 90.707729 265.696 108.373317 263.96 133.45896 262.224 142.34156 260.488 119.850208 258.752 95.905139 257.016 117.72521 255.28 134.90515 253.544 112.46444 251.808 103.55665 250.072 112.64868 248.336 120.45029 246.6 116.70751 244.864 104.71296 243.128 115.430019 241.392 128.96648 239.656 119.39528 237.92 109.94396 236.184 110.39142 234.448 117.26856 232.712 127.62665 230.976 117.593898 229.24 98.05335 227.504 108.75011 225.768 133.80057 224.032 127.90676 222.296 117.28108 220.56 125.35645 218.824 124.01082 217.088 105.24392 215.352 104.399669 213.616 130.73824 211.88 133.06761 210.144 109.64673 208.408 110.493907 206.672 123.876117 204.936 126.282718 203.2 122.36334 201.464 115.02344 199.728 114.05054 197.992 114.878398 196.256 114.05902 194.52 123.67463 192.784 139.00215 191.048 145.43914 189.312 131.14 187.576 120.88827 185.84 136.18689 184.104 120.573879 182.368 92.93771 180.632 119.273548 178.896 147.50687 177.16 118.97953 175.424 96.70618 173.688 115.14992 171.952 130.0557 170.216 130.47283 168.48 120.71538 166.744 106.573078 165.008 138.33647 163.272 186.82173 161.536 189.45623 159.8 193.10964 158.064 236.339 156.328 263.9238 154.592 253.14374 152.856 252.78839 151.12 262.2181 149.384 257.46479 147.648 247.68756 145.912 248.0412 144.176 250.08098 142.44 237.2161 140.704 234.12546 138.968 246.1408 137.232 240.06967 135.496 237.91686 133.76 246.46054 132.024 236.5609 130.288 231.95049 128.552 241.27704 126.816 240.01921 125.08 233.91487 123.344 237.05416 121.608 239.4469 119.872 236.88442 118.136 232.93569 116.4 237.30597 114.664 242.5021 112.928 239.1034 111.192 238.46588 109.456 236.81397 107.72 235.26334 105.984 236.01552 104.248 235.67534 102.512 237.4509 100.776 241.72136 99.04 242.5253 97.304 241.81443 95.568 243.1009 93.832 243.90679 92.096 243.24349 90.36 242.62476 88.624 243.72675 86.888 244.78244 85.152 244.99202 83.416 245.34622 81.68 245.49834 79.944 245.51499 78.208 245.2636 76.472 245.32584 74.736 246.14897V246.15048L76.472 247.63413 78.208 249.09363 79.944 251.31299 81.68 252.99913 83.416 253.79512 85.152 254.66857 86.888 255.16696 88.624 254.87053 90.36 254.5231 92.096 255.85811 93.832 257.5752Z" fill="#bf5700" fill-opacity=".14901962"/>
<path transform="matrix(.5,0,0,.5,-15.475397,-34.241)" d="M499 325V279.5H394.5V325Z" fill="#ffffff"/>
<use data-text="T" xlink:href="#font_0_53" transform="matrix(5.4,0,0,-5.4,200.2746,111.883998)"/>
<use data-text="r" xlink:href="#font_0_83" transform="matrix(5.4,0,0,-5.4,203.57399,111.883998)"/>
<use data-text="u" xlink:href="#font_0_86" transform="matrix(5.4,0,0,-5.4,205.67459,111.883998)"/>
<use data-text="e" xlink:href="#font_0_70" transform="matrix(5.4,0,0,-5.4,208.974,111.883998)"/>
<use data-text=" " xlink:href="#font_0_1" transform="matrix(5.4,0,0,-5.4,211.9764,111.883998)"/>
<use data-text="Q" xlink:href="#font_0_50" transform="matrix(5.4,0,0,-5.4,213.4776,111.883998)"/>
<use data-text="o" xlink:href="#font_0_80" transform="matrix(5.4,0,0,-5.4,217.6788,111.883998)"/>
<use data-text="I" xlink:href="#font_0_42" transform="matrix(5.4,0,0,-5.4,220.9782,111.883998)"/>
<use data-text="s" xlink:href="#font_0_84" transform="matrix(5.4,0,0,-5.4,222.4794,111.883998)"/>
<path transform="matrix(.5,0,0,.5,-15.475397,-34.241)" stroke-width="2.5" stroke-linecap="butt" stroke-dasharray="2,2" stroke-linejoin="bevel" fill="none" stroke="#000000" d="M398.5 288.25H428.5"/>
<use data-text="P" xlink:href="#font_0_49" transform="matrix(5.4,0,0,-5.4,200.2746,118.883998)"/>
<use data-text="r" xlink:href="#font_0_83" transform="matrix(5.4,0,0,-5.4,203.8764,118.883998)"/>
<use data-text="e" xlink:href="#font_0_70" transform="matrix(5.4,0,0,-5.4,205.977,118.883998)"/>
<use data-text="d" xlink:href="#font_0_69" transform="matrix(5.4,0,0,-5.4,208.9794,118.883998)"/>
<use data-text="." xlink:href="#font_0_15" transform="matrix(5.4,0,0,-5.4,212.2788,118.883998)"/>
<use data-text=" " xlink:href="#font_0_1" transform="matrix(5.4,0,0,-5.4,213.78,118.883998)"/>
<use data-text="Q" xlink:href="#font_0_50" transform="matrix(5.4,0,0,-5.4,215.2812,118.883998)"/>
<use data-text="o" xlink:href="#font_0_80" transform="matrix(5.4,0,0,-5.4,219.48239,118.883998)"/>
<use data-text="I" xlink:href="#font_0_42" transform="matrix(5.4,0,0,-5.4,222.7818,118.883998)"/>
<use data-text=" " xlink:href="#font_0_1" transform="matrix(5.4,0,0,-5.4,224.283,118.883998)"/>
<use data-text="#" xlink:href="#font_0_4" transform="matrix(5.4,0,0,-5.4,225.7842,118.883998)"/>
<use data-text="1" xlink:href="#font_0_18" transform="matrix(5.4,0,0,-5.4,228.78659,118.883998)"/>
<path transform="matrix(.5,0,0,.5,-15.475397,-34.241)" stroke-width="2" stroke-linecap="butt" stroke-linejoin="round" fill="none" stroke="#d95319" d="M398.5 302.25H428.5"/>
<use data-text="9" xlink:href="#font_0_26" transform="matrix(5.4,0,0,-5.4,200.2746,125.883998)"/>
<use data-text="5" xlink:href="#font_0_22" transform="matrix(5.4,0,0,-5.4,203.277,125.883998)"/>
<use data-text="%" xlink:href="#font_0_6" transform="matrix(5.4,0,0,-5.4,206.2794,125.883998)"/>
<use data-text=" " xlink:href="#font_0_1" transform="matrix(5.4,0,0,-5.4,211.08,125.883998)"/>
<use data-text="C" xlink:href="#font_0_36" transform="matrix(5.4,0,0,-5.4,212.58119,125.883998)"/>
<use data-text="I" xlink:href="#font_0_42" transform="matrix(5.4,0,0,-5.4,216.48,125.883998)"/>
<use data-text="s" xlink:href="#font_0_84" transform="matrix(5.4,0,0,-5.4,217.9812,125.883998)"/>
<path transform="matrix(.5,0,0,.5,-15.475397,-34.241)" d="M428.5 321.3125V311.1875H398.5V321.3125Z" fill="#bf5700" fill-opacity=".14901962"/>
<path transform="matrix(.5,0,0,.5,-15.475397,-34.241)" stroke-width=".5" stroke-linecap="butt" stroke-miterlimit="10" stroke-linejoin="miter" fill="none" stroke="#262626" d="M394.5 325V279.5H499V325Z"/>
</svg>
