<svg xmlns="http://www.w3.org/2000/svg" xmlns:xlink="http://www.w3.org/1999/xlink" xmlns:inkscape="http://www.inkscape.org/namespaces/inkscape" version="1.1" width="244" height="151" viewBox="0 0 244 151">
<defs>
<path id="font_0_17" d="M.272995 .723999C.19699097 .723999 .13198853 .69200137 .08898926 .6329956 .04798889 .5779877 .0289917 .48799134 .0289917 .34999085 .0289917 .22399903 .04499817 .13598633 .07899475 .08198547 .12098694 .01399231 .18998719-.023010254 .272995-.023010254 .34999085-.023010254 .41299439 .0079956059 .45700074 .066986087 .49699403 .12199402 .5169983 .21299744 .5169983 .34599305 .5169983 .47599793 .5009918 .56399539 .46699525 .61898806 .4249878 .68699648 .35598756 .723999 .272995 .723999M.272995 .61099246C.30899049 .61099246 .33799745 .59098818 .35499574 .55400088 .36898805 .5239868 .3769989 .44699098 .3769989 .34899903 .3769989 .2689972 .36999513 .19099427 .35899354 .1619873 .34298707 .11999512 .31298829 .09700012 .272995 .09700012 .23599243 .09700012 .20799256 .115997318 .19099427 .1519928 .1769867 .18199158 .16899109 .2559967 .16899109 .35099793 .16899109 .43499757 .17599488 .5149994 .18699646 .5439911 .20199585 .58699038 .23298645 .61099246 .272995 .61099246Z"/>
<path id="font_0_22" d="M.4889984 .70899966H.10998535L.04699707 .31399537H.17298889C.18798828 .34899903 .21998596 .36799623 .2630005 .36799623 .33399964 .36799623 .3769989 .31698609 .3769989 .23098755 .3769989 .147995 .33399964 .09700012 .2630005 .09700012 .20199585 .09700012 .16799927 .12799073 .16499329 .18499756H.026992798C.0289917 .06098938 .12298584-.023010254 .26098634-.023010254 .41299439-.023010254 .5169983 .08099365 .5169983 .23399353 .5169983 .37998963 .4269867 .47898866 .29599 .47898866 .24899292 .47898866 .21398926 .46699525 .17298889 .43598939L.19599915 .58399966H.4889984V.70899966Z"/>
<path id="font_0_18" d="M.23799134 .4889984V0H.37799073V.70899966H.2849884C.2630005 .625 .18998719 .58200076 .067993167 .58200076V.4889984H.23799134Z"/>
<path id="font_0_19" d="M.5119934 .125H.21099854C.22999573 .16299439 .2519989 .18399048 .35598756 .25898744 .47898866 .34899903 .5149994 .4019928 .5149994 .49899293 .5149994 .6359863 .41999818 .723999 .27198792 .723999 .125 .723999 .038986207 .6369934 .038986207 .4869995V.46199037H.17399597V.4850006C.17399597 .56399539 .21099854 .6100006 .2749939 .6100006 .33699037 .6100006 .375 .5669861 .375 .49598695 .375 .4169922 .35099793 .3880005 .19299317 .27598573 .07299805 .19400025 .035995485 .13198853 .02999878 0H.5119934V.125Z"/>
<path id="font_0_53" d="M.3849945 .60398867H.59799197V.72898867H.01399231V.60398867H.23498535V0H.3849945V.60398867Z"/>
<path id="font_0_74" d="M.20698548 .5399933H.066986087V0H.20698548V.5399933M.20698548 .72898867H.066986087V.60398867H.20698548V.72898867Z"/>
<path id="font_0_78" d="M.05999756 .5399933V0H.19999695V.32398988C.19999695 .3909912 .23599243 .42999269 .29599 .42999269 .34298707 .42999269 .37199403 .40299989 .37199403 .3600006V0H.5119934V.32398988C.5119934 .3899994 .5479889 .42999269 .60798647 .42999269 .6549988 .42999269 .6839905 .40299989 .6839905 .3600006V0H.82398989V.38198854C.82398989 .4869995 .7599945 .548996 .6519928 .548996 .58299258 .548996 .5359955 .5249939 .49398805 .46899415 .46798707 .519989 .4139862 .548996 .34700013 .548996 .2849884 .548996 .24499512 .5289917 .19898987 .47299195V.5399933H.05999756Z"/>
<path id="font_0_70" d="M.5239868 .22599793C.5249939 .23799134 .5249939 .24299622 .5249939 .25 .5249939 .3039856 .5169983 .35398866 .5039978 .3919983 .46798707 .48999024 .3809967 .548996 .27198792 .548996 .116989139 .548996 .021987915 .43699647 .021987915 .2559967 .021987915 .08299255 .115997318-.023010254 .2689972-.023010254 .3899994-.023010254 .48799134 .04499817 .5189972 .1519928H.3809967C.3639984 .10899353 .32499696 .083999637 .27398683 .083999637 .23399353 .083999637 .20199585 .100997928 .18199158 .1309967 .16899109 .15098572 .1639862 .1749878 .1619873 .22599793H.5239868M.1639862 .31900025C.17298889 .4019928 .20799256 .44198609 .269989 .44198609 .33399964 .44198609 .37199403 .39898683 .3789978 .31900025H.1639862Z"/>
<path id="font_0_1" d="M0 0Z"/>
<path id="font_0_9" d="M.20298767 .72898867C.08799744 .5549927 .039993287 .4189911 .039993287 .2649994 .039993287 .10998535 .08799744-.026000977 .20298767-.2000122H.30299378C.19599915 .005996704 .16299439 .116989139 .16299439 .2649994 .16299439 .4119873 .19699097 .5249939 .30299378 .72898867H.20298767Z"/>
<path id="font_0_84" d="M.5049896 .3659973C.5029907 .47999574 .4149933 .548996 .269989 .548996 .1329956 .548996 .04798889 .47999574 .04798889 .36898805 .04798889 .33299256 .05899048 .3019867 .07798767 .2809906 .09700012 .2619934 .11399841 .25299073 .1659851 .23599243L.33299256 .18399048C.36799623 .17298889 .37998963 .1619873 .37998963 .13999939 .37998963 .10699463 .34098817 .08699036 .27598573 .08699036 .23899842 .08699036 .21099854 .09298706 .19299317 .10598755 .17799378 .116989139 .17199707 .12799073 .1659851 .15699768H.0289917C.032989503 .037994386 .11999512-.023010254 .28399659-.023010254 .35899354-.023010254 .41600038-.007003784 .45599366 .024993897 .49598695 .056991579 .519989 .10699463 .519989 .1599884 .519989 .22999573 .4850006 .2749939 .4139862 .29599L.23699951 .34700013C.19799805 .35899354 .18798828 .36698915 .18798828 .3889923 .18798828 .4189911 .21998596 .43899537 .2689972 .43899537 .33599855 .43899537 .36898805 .4149933 .36999513 .3659973H.5049896Z"/>
<path id="font_0_10" d="M.12199402-.2000122C.23699951-.026000977 .2849884 .10998535 .2849884 .2639923 .2849884 .4189911 .23699951 .5549927 .12199402 .72898867H.021987915C.1289978 .522995 .1619873 .4119873 .1619873 .2639923 .1619873 .116989139 .12799073 .0039978029 .021987915-.2000122H.12199402Z"/>
<path id="font_0_14" d="M.2979889 .34199525H.025985718V.20698548H.2979889V.34199525Z"/>
<path id="font_0_15" d="M.21398926 .1459961H.06399536V0H.21398926V.1459961Z"/>
<path id="font_0_56" d="M.7299957 0 .9319916 .72898867H.772995L.6639862 .18199158 .54599 .72898867H.397995L.2849884 .18299866 .17199707 .72898867H.0129852299L.21899414 0H.35398866L.47299195 .56900027 .59498599 0H.7299957Z"/>
<path id="font_0_66" d="M.5239868 .016998291C.5 .039993287 .49198915 .055999757 .49198915 .08299255V.3829956C.49198915 .49299623 .4169922 .548996 .2709961 .548996 .125 .548996 .04899597 .4869995 .039993287 .3619995H.1749878C.18199158 .41799928 .20498657 .43598939 .27398683 .43598939 .32798768 .43598939 .35499574 .41799928 .35499574 .38198854 .35499574 .3639984 .34599305 .34899903 .33099366 .33999635 .31199647 .32998658 .31199647 .32998658 .24299622 .31900025L.18699646 .30899049C.07998657 .29100038 .027999878 .23599243 .027999878 .13899231 .027999878 .041992189 .09298706-.023010254 .19198609-.023010254 .2519989-.023010254 .30599977 .0019989014 .35598756 .053985597 .35598756 .025985718 .35899354 .015991211 .37199403 0H.5239868V.016998291M.35499574 .21699524C.35499574 .13598633 .31498719 .08999634 .24398804 .08999634 .19699097 .08999634 .16799927 .114990238 .16799927 .15499878 .16799927 .19699097 .18998719 .21699524 .24798584 .22898865L.29599 .23799134C.33299256 .24499512 .33898927 .24699402 .35499574 .25498963V.21699524Z"/>
<path id="font_0_87" d="M.34999085 0 .5359955 .5399933H.3880005L.2789917 .14498902 .1619873 .5399933H.01399231L.20298767 0H.34999085Z"/>
<path id="font_0_73" d="M.066986087 .72898867V0H.20698548V.32398988C.20698548 .38598634 .2519989 .42999269 .31498719 .42999269 .34599305 .42999269 .36898805 .4189911 .3849945 .39698792 .397995 .3789978 .40098573 .3639984 .40098573 .32998658V0H.54100039V.3619995C.54100039 .42900086 .522995 .47698976 .48599244 .5079956 .45498658 .5339966 .4099884 .548996 .36499024 .548996 .29599 .548996 .24598694 .5219879 .20698548 .46199037V.72898867H.066986087Z"/>
<path id="font_0_72" d="M.3999939 .5399933V.45700074C.36099244 .519989 .31799317 .548996 .26098634 .548996 .21299744 .548996 .1599884 .5249939 .12298584 .48599244 .068984989 .42999269 .040985109 .35198976 .040985109 .25698854 .040985109 .09098816 .1289978-.023010254 .2579956-.023010254 .31599427-.023010254 .35099793-.0040130617 .3999939 .054992677V-.018005372C.3999939-.08300781 .35398866-.12800598 .28799439-.12800598 .23799134-.12800598 .20698548-.10600281 .19599915-.06500244H.051986696C.052993776-.10700989 .067993167-.13600159 .10499573-.16600037 .147995-.20100403 .20698548-.21800232 .2829895-.21800232 .43899537-.21800232 .5329895-.14300537 .5329895-.018005372V.5399933H.3999939M.2869873 .43199159C.35299684 .43199159 .4019928 .35899354 .4019928 .25898744 .4019928 .16099549 .35499574 .09399414 .2849884 .09399414 .22399903 .09399414 .18099976 .16099549 .18099976 .25898744 .18099976 .36099244 .22399903 .43199159 .2869873 .43199159Z"/>
<path id="font_0_85" d="M.30099488 .5289917H.22299195V.673996H.08299255V.5289917H.01399231V.43598939H.08299255V.10398865C.08299255 .018997193 .12799073-.023010254 .21998596-.023010254 .2519989-.023010254 .2749939-.020004273 .30099488-.012008667V.085998538C.2869873 .083999637 .27999879 .08299255 .2689972 .08299255 .23199463 .08299255 .22299195 .09399414 .22299195 .14199829V.43598939H.30099488V.5289917Z"/>
<path id="font_0_83" d="M.06298828 .5399933V0H.20298767V.2869873C.20298767 .36898805 .24398804 .4099884 .32598878 .4099884 .34098817 .4099884 .35099793 .40899659 .36999513 .4059906V.5479889C.3619995 .548996 .35899354 .548996 .35299684 .548996 .2889862 .548996 .23399353 .5069885 .20298767 .43399049V.5399933H.06298828Z"/>
<path id="font_0_86" d="M.54100039 0V.5399933H.40098573V.20199585C.40098573 .13798523 .35699464 .09599304 .28799439 .09599304 .22799683 .09599304 .19799805 .12799073 .19799805 .19299317V.5399933H.057998659V.1639862C.057998659 .04399109 .12298584-.023010254 .23899842-.023010254 .31199647-.023010254 .36099244 .0029907227 .40098573 .06399536V0H.54100039Z"/>
<path id="font_0_50" d="M.6649933 .102996829C.71398928 .16299439 .7449951 .2630005 .7449951 .36099244 .7449951 .46798707 .70700076 .57099917 .6429901 .6399994 .5799866 .70799258 .49798585 .7409973 .3939972 .7409973 .2899933 .7409973 .20799256 .70799258 .14498902 .6399994 .07998657 .57099917 .042999269 .46798707 .042999269 .35899354 .042999269 .25 .08099365 .14698792 .14498902 .07798767 .20799256 .009994507 .2899933-.023010254 .3939972-.023010254 .46998597-.023010254 .5249939-.008010864 .58299258 .026992798L.6689911-.054000856 .7449951 .026992798 .6649933 .102996829M.47999574 .27799989 .4039917 .19699097 .48098756 .12399292C.45700074 .11199951 .4249878 .10499573 .3929901 .10499573 .272995 .10499573 .19299317 .20599365 .19299317 .35899354 .19299317 .5130005 .27198792 .61299136 .3939972 .61299136 .5159912 .61299136 .59498599 .5130005 .59498599 .35798646 .59498599 .2979889 .58399966 .24398804 .56199648 .19999695L.47999574 .27799989Z"/>
<path id="font_0_80" d="M.30099488 .548996C.13598633 .548996 .034988405 .43998719 .034988405 .2630005 .034988405 .084991458 .13598633-.023010254 .3019867-.023010254 .46699525-.023010254 .56900027 .084991458 .56900027 .25898744 .56900027 .44198609 .46998597 .548996 .30099488 .548996M.3019867 .43598939C.3789978 .43598939 .42900086 .36698915 .42900086 .26098634 .42900086 .1599884 .3769989 .08999634 .3019867 .08999634 .22599793 .08999634 .1749878 .15899658 .1749878 .2630005 .1749878 .36698915 .22599793 .43598939 .3019867 .43598939Z"/>
<path id="font_0_42" d="M.21299744 .72898867H.06298828V0H.21299744V.72898867Z"/>
<path id="font_0_49" d="M.22599793 .2599945H.41299439C.5469971 .2599945 .6329956 .35499574 .6329956 .5029907 .6329956 .6489868 .5499878 .72898867 .397995 .72898867H.07598877V0H.22599793V.2599945M.22599793 .3849945V.60398867H.3659973C.44599916 .60398867 .48298646 .56900027 .48298646 .49499513 .48298646 .41999818 .44599916 .3849945 .3659973 .3849945H.22599793Z"/>
<path id="font_0_69" d="M.40499879 0H.54499819V.72898867H.40499879V.46998597C.36999513 .5239868 .32398988 .548996 .2559967 .548996 .1269989 .548996 .0289917 .4249878 .0289917 .2619934 .0289917 .18899536 .050994874 .114990238 .08699036 .06298828 .12399292 .009994507 .18998719-.023010254 .2559967-.023010254 .32398988-.023010254 .36999513 .0009918213 .40499879 .054992677V0M.2869873 .43199159C.35798646 .43199159 .40499879 .3639984 .40499879 .2599945 .40499879 .1619873 .35699464 .09399414 .2869873 .09399414 .21699524 .09399414 .16899109 .16299439 .16899109 .2619934 .16899109 .36299134 .21699524 .43199159 .2869873 .43199159Z"/>
<path id="font_0_4" d="M.1459961-.03201294 .18598938 .17199707H.2889862L.24899292-.03201294H.35398866L.3939972 .17199707H.5130005V.2709961H.41299439L.44400025 .42399598H.5529938V.522995H.46299745L.49699403 .69699099H.3919983L.35798646 .522995H.25498963L.2889862 .69699099H.18399048L.1499939 .522995H.0309906V.42399598H.12998963L.099990848 .2709961H.0029907227V.17199707H.07998657L.039993287-.03201294H.1459961M.20498657 .2709961 .23498535 .42399598H.33799745L.30799867 .2709961H.20498657Z"/>
<path id="font_0_21" d="M.5219879 .272995H.44799806V.70899966H.2829895L.023986817 .2749939V.15699768H.30799867V0H.44799806V.15699768H.5219879V.272995M.30799867 .272995H.12298584L.30799867 .57598879V.272995Z"/>
<path id="font_0_26" d="M.037994386 .16499329C.040985109 .055999757 .1329956-.024002076 .25498963-.024002076 .34599305-.024002076 .4149933 .01399231 .45700074 .085998538 .49398805 .14898682 .5159912 .2559967 .5159912 .36999513 .5159912 .47399903 .5 .55400088 .46699525 .60798647 .42199708 .6839905 .35198976 .723999 .2669983 .723999 .125 .723999 .027999878 .621994 .027999878 .47399903 .027999878 .32798768 .11399841 .22799683 .23999024 .22799683 .27598573 .22799683 .30999757 .23799134 .33198548 .2539978 .34498597 .2630005 .35299684 .27198792 .37599183 .2979889 .37599183 .16099549 .33799745 .09599304 .25898744 .09599304 .20899964 .09599304 .17599488 .12298584 .17298889 .16499329H.037994386M.2630005 .6100006C.33099366 .6100006 .37298585 .55799868 .37298585 .47399903 .37298585 .3959961 .32998658 .34399415 .2649994 .34399415 .20098877 .34399415 .16099549 .3939972 .16099549 .47599793 .16099549 .55799868 .19999695 .6100006 .2630005 .6100006Z"/>
<path id="font_0_6" d="M.20599365 .70098879C.10499573 .70098879 .021987915 .61898806 .021987915 .5189972 .021987915 .4189911 .10499573 .33699037 .20599365 .33699037 .30699159 .33699037 .3899994 .41799928 .3899994 .5169983 .3899994 .6199951 .30899049 .70098879 .20599365 .70098879M.20599365 .60198977C.2539978 .60198977 .29100038 .5649872 .29100038 .5179901 .29100038 .47200013 .25299073 .43499757 .20599365 .43499757 .15899658 .43499757 .12098694 .47200013 .12098694 .5189972 .12098694 .5649872 .15899658 .60198977 .20599365 .60198977M.60598757 .70899966 .20999146-.020004273H.2869873L.6819916 .70899966H.60598757M.67900088 .35198976C.57699587 .35198976 .49499513 .269989 .49499513 .16999817 .49499513 .068984989 .57699587-.013000488 .67900088-.013000488 .7799988-.013000488 .86299136 .068984989 .86299136 .16699219 .86299136 .2709961 .7819977 .35198976 .67900088 .35198976M.67900088 .25299073C.72698977 .25299073 .7639923 .21598816 .7639923 .16799927 .7639923 .12298584 .72499087 .084991458 .67900088 .084991458 .6319885 .084991458 .59399417 .12298584 .59399417 .16899109 .59399417 .21499634 .6319885 .25299073 .67900088 .25299073Z"/>
<path id="font_0_36" d="M.6819916 .48199464C.6769867 .54499819 .6639862 .58499148 .6329956 .6259918 .57699587 .69999697 .4869995 .7409973 .37799073 .7409973 .17199707 .7409973 .04399109 .59399417 .04399109 .35798646 .04399109 .12298584 .17098999-.023010254 .37399293-.023010254 .55599978-.023010254 .6759949 .08198547 .68499758 .24899292H.5389862C.5289917 .1559906 .47099305 .102996829 .37799073 .102996829 .2619934 .102996829 .19400025 .19699097 .19400025 .35598756 .19400025 .5169983 .2649994 .61299136 .3829956 .61299136 .46998597 .61299136 .5189972 .57099917 .5389862 .48199464H.6819916Z"/>
</defs>
<path transform="matrix(.5,0,0,.5,-15.475397,-34.241)" d="M0 0H1120V840H0Z" fill="#ffffff"/>
<path transform="matrix(.5,0,0,.5,-15.475397,-34.241)" d="M73 332.95H507V72.55H73Z" fill="#ffffff"/>
<path transform="matrix(.5,0,0,.5,-15.475397,-34.241)" stroke-width=".5" stroke-linecap="butt" stroke-linejoin="round" fill="none" stroke="#262626" stroke-opacity=".14901962" d="M73 332.95V72.55"/>
<path transform="matrix(.5,0,0,.5,-15.475397,-34.241)" stroke-width=".5" stroke-linecap="butt" stroke-linejoin="round" fill="none" stroke="#262626" stroke-opacity=".14901962" d="M159.8 332.95V72.55"/>
<path transform="matrix(.5,0,0,.5,-15.475397,-34.241)" stroke-width=".5" stroke-linecap="butt" stroke-linejoin="round" fill="none" stroke="#262626" stroke-opacity=".14901962" d="M246.6 332.95V72.55"/>
<path transform="matrix(.5,0,0,.5,-15.475397,-34.241)" stroke-width=".5" stroke-linecap="butt" stroke-linejoin="round" fill="none" stroke="#262626" stroke-opacity=".14901962" d="M333.4 332.95V72.55"/>
<path transform="matrix(.5,0,0,.5,-15.475397,-34.241)" stroke-width=".5" stroke-linecap="butt" stroke-linejoin="round" fill="none" stroke="#262626" stroke-opacity=".14901962" d="M420.2 332.95V72.55"/>
<path transform="matrix(.5,0,0,.5,-15.475397,-34.241)" stroke-width=".5" stroke-linecap="butt" stroke-linejoin="round" fill="none" stroke="#262626" stroke-opacity=".14901962" d="M507 332.95V72.55"/>
<path transform="matrix(.5,0,0,.5,-15.475397,-34.241)" stroke-width=".5" stroke-linecap="butt" stroke-linejoin="round" fill="none" stroke="#262626" stroke-opacity=".14901962" d="M507 332.95H73"/>
<path transform="matrix(.5,0,0,.5,-15.475397,-34.241)" stroke-width=".5" stroke-linecap="butt" stroke-linejoin="round" fill="none" stroke="#262626" stroke-opacity=".14901962" d="M507 289.55H73"/>
<path transform="matrix(.5,0,0,.5,-15.475397,-34.241)" stroke-width=".5" stroke-linecap="butt" stroke-linejoin="round" fill="none" stroke="#262626" stroke-opacity=".14901962" d="M507 246.15H73"/>
<path transform="matrix(.5,0,0,.5,-15.475397,-34.241)" stroke-width=".5" stroke-linecap="butt" stroke-linejoin="round" fill="none" stroke="#262626" stroke-opacity=".14901962" d="M507 202.75H73"/>
<path transform="matrix(.5,0,0,.5,-15.475397,-34.241)" stroke-width=".5" stroke-linecap="butt" stroke-linejoin="round" fill="none" stroke="#262626" stroke-opacity=".14901962" d="M507 159.35H73"/>
<path transform="matrix(.5,0,0,.5,-15.475397,-34.241)" stroke-width=".5" stroke-linecap="butt" stroke-linejoin="round" fill="none" stroke="#262626" stroke-opacity=".14901962" d="M507 115.95H73"/>
<path transform="matrix(.5,0,0,.5,-15.475397,-34.241)" stroke-width=".5" stroke-linecap="butt" stroke-linejoin="round" fill="none" stroke="#262626" stroke-opacity=".14901962" d="M507 72.55H73"/>
<path transform="matrix(.5,0,0,.5,-15.475397,-34.241)" stroke-width=".5" stroke-linecap="square" stroke-linejoin="round" fill="none" stroke="#262626" d="M73 332.95H507"/>
<path transform="matrix(.5,0,0,.5,-15.475397,-34.241)" stroke-width=".5" stroke-linecap="square" stroke-linejoin="round" fill="none" stroke="#262626" d="M73 72.55H507"/>
<path transform="matrix(.5,0,0,.5,-15.475397,-34.241)" stroke-width=".5" stroke-linecap="square" stroke-linejoin="round" fill="none" stroke="#262626" d="M73 332.95V328.61"/>
<path transform="matrix(.5,0,0,.5,-15.475397,-34.241)" stroke-width=".5" stroke-linecap="square" stroke-linejoin="round" fill="none" stroke="#262626" d="M159.8 332.95V328.61"/>
<path transform="matrix(.5,0,0,.5,-15.475397,-34.241)" stroke-width=".5" stroke-linecap="square" stroke-linejoin="round" fill="none" stroke="#262626" d="M246.6 332.95V328.61"/>
<path transform="matrix(.5,0,0,.5,-15.475397,-34.241)" stroke-width=".5" stroke-linecap="square" stroke-linejoin="round" fill="none" stroke="#262626" d="M333.4 332.95V328.61"/>
<path transform="matrix(.5,0,0,.5,-15.475397,-34.241)" stroke-width=".5" stroke-linecap="square" stroke-linejoin="round" fill="none" stroke="#262626" d="M420.2 332.95V328.61"/>
<path transform="matrix(.5,0,0,.5,-15.475397,-34.241)" stroke-width=".5" stroke-linecap="square" stroke-linejoin="round" fill="none" stroke="#262626" d="M507 332.95V328.61"/>
<path transform="matrix(.5,0,0,.5,-15.475397,-34.241)" stroke-width=".5" stroke-linecap="square" stroke-linejoin="round" fill="none" stroke="#262626" d="M73 72.55V76.89"/>
<path transform="matrix(.5,0,0,.5,-15.475397,-34.241)" stroke-width=".5" stroke-linecap="square" stroke-linejoin="round" fill="none" stroke="#262626" d="M159.8 72.55V76.89"/>
<path transform="matrix(.5,0,0,.5,-15.475397,-34.241)" stroke-width=".5" stroke-linecap="square" stroke-linejoin="round" fill="none" stroke="#262626" d="M246.6 72.55V76.89"/>
<path transform="matrix(.5,0,0,.5,-15.475397,-34.241)" stroke-width=".5" stroke-linecap="square" stroke-linejoin="round" fill="none" stroke="#262626" d="M333.4 72.55V76.89"/>
<path transform="matrix(.5,0,0,.5,-15.475397,-34.241)" stroke-width=".5" stroke-linecap="square" stroke-linejoin="round" fill="none" stroke="#262626" d="M420.2 72.55V76.89"/>
<path transform="matrix(.5,0,0,.5,-15.475397,-34.241)" stroke-width=".5" stroke-linecap="square" stroke-linejoin="round" fill="none" stroke="#262626" d="M507 72.55V76.89"/>
<use data-text="0" xlink:href="#font_0_17" transform="matrix(6,0,0,-6,19.274603,140.434)" fill="#262626"/>
<use data-text="5" xlink:href="#font_0_22" transform="matrix(6,0,0,-6,60.924608,140.434)" fill="#262626"/>
<use data-text="0" xlink:href="#font_0_17" transform="matrix(6,0,0,-6,64.260608,140.434)" fill="#262626"/>
<use data-text="1" xlink:href="#font_0_18" transform="matrix(6,0,0,-6,102.57461,140.434)" fill="#262626"/>
<use data-text="0" xlink:href="#font_0_17" transform="matrix(6,0,0,-6,105.91061,140.434)" fill="#262626"/>
<use data-text="0" xlink:href="#font_0_17" transform="matrix(6,0,0,-6,109.24661,140.434)" fill="#262626"/>
<use data-text="1" xlink:href="#font_0_18" transform="matrix(6,0,0,-6,145.9746,140.434)" fill="#262626"/>
<use data-text="5" xlink:href="#font_0_22" transform="matrix(6,0,0,-6,149.3106,140.434)" fill="#262626"/>
<use data-text="0" xlink:href="#font_0_17" transform="matrix(6,0,0,-6,152.64659,140.434)" fill="#262626"/>
<use data-text="2" xlink:href="#font_0_19" transform="matrix(6,0,0,-6,189.3746,140.434)" fill="#262626"/>
<use data-text="0" xlink:href="#font_0_17" transform="matrix(6,0,0,-6,192.7106,140.434)" fill="#262626"/>
<use data-text="0" xlink:href="#font_0_17" transform="matrix(6,0,0,-6,196.0466,140.434)" fill="#262626"/>
<use data-text="2" xlink:href="#font_0_19" transform="matrix(6,0,0,-6,232.7746,140.434)" fill="#262626"/>
<use data-text="5" xlink:href="#font_0_22" transform="matrix(6,0,0,-6,236.1106,140.434)" fill="#262626"/>
<use data-text="0" xlink:href="#font_0_17" transform="matrix(6,0,0,-6,239.4466,140.434)" fill="#262626"/>
<use data-text="T" xlink:href="#font_0_53" transform="matrix(6.6,0,0,-6.6,117.024707,148.934)" fill="#262626"/>
<use data-text="i" xlink:href="#font_0_74" transform="matrix(6.6,0,0,-6.6,121.057308,148.934)" fill="#262626"/>
<use data-text="m" xlink:href="#font_0_78" transform="matrix(6.6,0,0,-6.6,122.892108,148.934)" fill="#262626"/>
<use data-text="e" xlink:href="#font_0_70" transform="matrix(6.6,0,0,-6.6,128.7595,148.934)" fill="#262626"/>
<use data-text=" " xlink:href="#font_0_1" transform="matrix(6.6,0,0,-6.6,132.42911,148.934)" fill="#262626"/>
<use data-text="(" xlink:href="#font_0_9" transform="matrix(6.6,0,0,-6.6,134.2639,148.934)" fill="#262626"/>
<use data-text="s" xlink:href="#font_0_84" transform="matrix(6.6,0,0,-6.6,136.4617,148.934)" fill="#262626"/>
<use data-text=")" xlink:href="#font_0_10" transform="matrix(6.6,0,0,-6.6,140.1313,148.934)" fill="#262626"/>
<path transform="matrix(.5,0,0,.5,-15.475397,-34.241)" stroke-width=".5" stroke-linecap="square" stroke-linejoin="round" fill="none" stroke="#262626" d="M73 332.95V72.55"/>
<path transform="matrix(.5,0,0,.5,-15.475397,-34.241)" stroke-width=".5" stroke-linecap="square" stroke-linejoin="round" fill="none" stroke="#262626" d="M507 332.95V72.55"/>
<path transform="matrix(.5,0,0,.5,-15.475397,-34.241)" stroke-width=".5" stroke-linecap="square" stroke-linejoin="round" fill="none" stroke="#262626" d="M73 332.95H77.34"/>
<path transform="matrix(.5,0,0,.5,-15.475397,-34.241)" stroke-width=".5" stroke-linecap="square" stroke-linejoin="round" fill="none" stroke="#262626" d="M73 289.55H77.34"/>
<path transform="matrix(.5,0,0,.5,-15.475397,-34.241)" stroke-width=".5" stroke-linecap="square" stroke-linejoin="round" fill="none" stroke="#262626" d="M73 246.15H77.34"/>
<path transform="matrix(.5,0,0,.5,-15.475397,-34.241)" stroke-width=".5" stroke-linecap="square" stroke-linejoin="round" fill="none" stroke="#262626" d="M73 202.75H77.34"/>
<path transform="matrix(.5,0,0,.5,-15.475397,-34.241)" stroke-width=".5" stroke-linecap="square" stroke-linejoin="round" fill="none" stroke="#262626" d="M73 159.35H77.34"/>
<path transform="matrix(.5,0,0,.5,-15.475397,-34.241)" stroke-width=".5" stroke-linecap="square" stroke-linejoin="round" fill="none" stroke="#262626" d="M73 115.95H77.34"/>
<path transform="matrix(.5,0,0,.5,-15.475397,-34.241)" stroke-width=".5" stroke-linecap="square" stroke-linejoin="round" fill="none" stroke="#262626" d="M73 72.55H77.34"/>
<path transform="matrix(.5,0,0,.5,-15.475397,-34.241)" stroke-width=".5" stroke-linecap="square" stroke-linejoin="round" fill="none" stroke="#262626" d="M507 332.95H502.66"/>
<path transform="matrix(.5,0,0,.5,-15.475397,-34.241)" stroke-width=".5" stroke-linecap="square" stroke-linejoin="round" fill="none" stroke="#262626" d="M507 289.55H502.66"/>
<path transform="matrix(.5,0,0,.5,-15.475397,-34.241)" stroke-width=".5" stroke-linecap="square" stroke-linejoin="round" fill="none" stroke="#262626" d="M507 246.15H502.66"/>
<path transform="matrix(.5,0,0,.5,-15.475397,-34.241)" stroke-width=".5" stroke-linecap="square" stroke-linejoin="round" fill="none" stroke="#262626" d="M507 202.75H502.66"/>
<path transform="matrix(.5,0,0,.5,-15.475397,-34.241)" stroke-width=".5" stroke-linecap="square" stroke-linejoin="round" fill="none" stroke="#262626" d="M507 159.35H502.66"/>
<path transform="matrix(.5,0,0,.5,-15.475397,-34.241)" stroke-width=".5" stroke-linecap="square" stroke-linejoin="round" fill="none" stroke="#262626" d="M507 115.95H502.66"/>
<path transform="matrix(.5,0,0,.5,-15.475397,-34.241)" stroke-width=".5" stroke-linecap="square" stroke-linejoin="round" fill="none" stroke="#262626" d="M507 72.55H502.66"/>
<use data-text="-" xlink:href="#font_0_14" transform="matrix(6,0,0,-6,7.824602,134.48401)" fill="#262626"/>
<use data-text="0" xlink:href="#font_0_17" transform="matrix(6,0,0,-6,9.822602,134.48401)" fill="#262626"/>
<use data-text="." xlink:href="#font_0_15" transform="matrix(6,0,0,-6,13.158603,134.48401)" fill="#262626"/>
<use data-text="5" xlink:href="#font_0_22" transform="matrix(6,0,0,-6,14.826603,134.48401)" fill="#262626"/>
<use data-text="0" xlink:href="#font_0_17" transform="matrix(6,0,0,-6,15.324602,112.78399)" fill="#262626"/>
<use data-text="0" xlink:href="#font_0_17" transform="matrix(6,0,0,-6,10.324602,91.08399)" fill="#262626"/>
<use data-text="." xlink:href="#font_0_15" transform="matrix(6,0,0,-6,13.660603,91.08399)" fill="#262626"/>
<use data-text="5" xlink:href="#font_0_22" transform="matrix(6,0,0,-6,15.328603,91.08399)" fill="#262626"/>
<use data-text="1" xlink:href="#font_0_18" transform="matrix(6,0,0,-6,15.324602,69.383998)" fill="#262626"/>
<use data-text="1" xlink:href="#font_0_18" transform="matrix(6,0,0,-6,10.324602,47.684003)" fill="#262626"/>
<use data-text="." xlink:href="#font_0_15" transform="matrix(6,0,0,-6,13.660603,47.684003)" fill="#262626"/>
<use data-text="5" xlink:href="#font_0_22" transform="matrix(6,0,0,-6,15.328603,47.684003)" fill="#262626"/>
<use data-text="2" xlink:href="#font_0_19" transform="matrix(6,0,0,-6,15.324602,25.983998)" fill="#262626"/>
<use data-text="2" xlink:href="#font_0_19" transform="matrix(6,0,0,-6,10.324602,4.2840006)" fill="#262626"/>
<use data-text="." xlink:href="#font_0_15" transform="matrix(6,0,0,-6,13.660603,4.2840006)" fill="#262626"/>
<use data-text="5" xlink:href="#font_0_22" transform="matrix(6,0,0,-6,15.328603,4.2840006)" fill="#262626"/>
<use data-text="W" xlink:href="#font_0_56" transform="matrix(-.00000028050003,-6.6,-6.6,.00000028050003,4.824603,92.383937)" fill="#262626"/>
<use data-text="a" xlink:href="#font_0_66" transform="matrix(-.00000028050003,-6.6,-6.6,.00000028050003,4.824603,86.153537)" fill="#262626"/>
<use data-text="v" xlink:href="#font_0_87" transform="matrix(-.00000028050003,-6.6,-6.6,.00000028050003,4.8246028,82.48393)" fill="#262626"/>
<use data-text="e" xlink:href="#font_0_70" transform="matrix(-.00000028050003,-6.6,-6.6,.00000028050003,4.8246028,78.81433)" fill="#262626"/>
<use data-text=" " xlink:href="#font_0_1" transform="matrix(-.00000028050003,-6.6,-6.6,.00000028050003,4.8246028,75.14473)" fill="#262626"/>
<use data-text="h" xlink:href="#font_0_73" transform="matrix(-.00000028050003,-6.6,-6.6,.00000028050003,4.824602,73.30993)" fill="#262626"/>
<use data-text="e" xlink:href="#font_0_70" transform="matrix(-.00000028050003,-6.6,-6.6,.00000028050003,4.824602,69.27733)" fill="#262626"/>
<use data-text="i" xlink:href="#font_0_74" transform="matrix(-.00000028050003,-6.6,-6.6,.00000028050003,4.824602,65.607738)" fill="#262626"/>
<use data-text="g" xlink:href="#font_0_72" transform="matrix(-.00000028050003,-6.6,-6.6,.00000028050003,4.824602,63.772935)" fill="#262626"/>
<use data-text="h" xlink:href="#font_0_73" transform="matrix(-.00000028050003,-6.6,-6.6,.00000028050003,4.8246018,59.740335)" fill="#262626"/>
<use data-text="t" xlink:href="#font_0_85" transform="matrix(-.00000028050003,-6.6,-6.6,.00000028050003,4.8246018,55.707735)" fill="#262626"/>
<use data-text=" " xlink:href="#font_0_1" transform="matrix(-.00000028050003,-6.6,-6.6,.00000028050003,4.8246018,53.509935)" fill="#262626"/>
<use data-text="(" xlink:href="#font_0_9" transform="matrix(-.00000028050003,-6.6,-6.6,.00000028050003,4.824601,51.675134)" fill="#262626"/>
<use data-text="m" xlink:href="#font_0_78" transform="matrix(-.00000028050003,-6.6,-6.6,.00000028050003,4.824601,49.477334)" fill="#262626"/>
<use data-text=")" xlink:href="#font_0_10" transform="matrix(-.00000028050003,-6.6,-6.6,.00000028050003,4.824601,43.609933)" fill="#262626"/>
<path transform="matrix(.5,0,0,.5,-15.475397,-34.241)" stroke-width="2.5" stroke-linecap="butt" stroke-dasharray="2,2" stroke-linejoin="bevel" fill="none" stroke="#000000" d="M74.736 289.55H76.472 78.208 79.944 81.68L83.416 289.55003 85.152 289.51057 86.888 289.38255 88.624 289.08003 90.36 288.70436 92.096 288.50257 93.832 288.05577 95.568 286.49513 97.304 283.83699 99.04 281.45057 100.776 279.20799 102.512 277.28895 104.248 274.34764 105.984 269.83827 107.72 262.6763 109.456 252.88997 111.192 241.32085 112.928 227.90599 114.664 214.01168 116.4 200.73969 118.136 188.79628 119.872 177.94329 121.608 167.76403 123.344 158.59008 125.08 150.7373 126.816 143.34474 128.552 136.48868 130.288 129.9388 132.024 124.387699 133.76 119.73166 135.496 114.80622 137.232 110.39692 138.968 106.408138 140.704 102.627689 142.44 100.12689 144.176 97.21386 145.912 95.84478 147.648 94.78846 149.384 94.63238 151.12 94.6885 152.856 94.881748 154.592 96.17225 156.328 96.346439 158.064 97.98304 159.8 98.97246 161.536 100.38953 163.272 102.167949 165.008 103.3072 166.744 104.61036 168.48 105.47248 170.216 106.834239 171.952 107.9208 173.688 109.207889 175.424 110.999889 177.16 112.10782 178.896 112.70749 180.632 112.8777 182.368 113.47679 184.104 114.49398 185.84 115.54873 187.576 116.417858 189.312 115.0552 191.048 113.27225 192.784 112.11216 194.52 112.996448 196.256 115.69582 197.992 118.93532 199.728 120.729579 201.464 119.99088 203.2 117.23957 204.936 114.79246 206.672 112.79086 208.408 112.99341 210.144 114.559459 211.88 116.0063 213.616 117.807109 215.352 118.73994 217.088 119.26144 218.824 118.17877 220.56 116.14111 222.296 117.443927 224.032 120.70211 225.768 121.864368 227.504 121.02642 229.24 120.85906 230.976 123.89893 232.712 124.55081 234.448 126.10741 236.184 126.26256 237.92 127.31257 239.656 127.08289 241.392 126.74518 243.128 129.63628 244.864 131.25128 246.6 131.55384 248.336 130.73104 250.072 131.96675 251.808 132.66089 253.544 132.62149 255.28 133.05757 257.016 133.51982 258.752 134.9884 260.488 135.04567 262.224 134.74347 263.96 134.335 265.696 135.36086 267.432 135.66164 269.168 135.36655 270.904 135.40227 272.64 135.00592 274.376 134.81697 276.112 135.34949 277.848 135.47608 279.584 136.0175 281.32 136.07688 283.056 136.29425 284.792 136.48493 286.528 137.2115 288.264 137.68831 290 138.28806 291.736 137.37741 293.472 137.49117 295.208 137.23889 296.944 137.8025 298.68 137.65409 300.416 137.564 302.152 138.38019 303.888 137.83873 305.624 137.35166 307.36 140.0212 309.096 139.65869 310.832 137.37277 312.568 138.50218 314.304 138.35462 316.04 140.14269 317.776 140.02942 319.512 139.81583 321.248 139.7803 322.984 140.33319 324.72 140.59304 326.456 140.09934 328.192 139.21773 329.928 141.79257 331.664 142.80782 333.4 141.24372 335.136 141.83786 336.872 142.86667 338.608 142.67447 340.344 143.90639 342.08 143.7199 343.816 144.79625 345.552 148.04697 347.288 147.82563 349.024 149.36699 350.76 150.103 352.496 149.10297 354.232 151.32936 355.968 153.02938 357.704 152.54099 359.44 155.70858 361.176 157.12912 362.912 157.10868 364.648 158.34859 366.384 159.11919 368.12 159.14829 369.856 161.2559 371.592 163.02683 373.328 162.94107 375.064 163.46773 376.8 165.23998 378.536 165.20577 380.272 164.6412 382.008 165.8562 383.744 167.64446 385.48 166.81969 387.216 167.52454 388.952 169.301 390.688 166.94608 392.424 168.16606 394.16 168.60823 395.896 167.71332 397.632 168.99373 399.368 169.45874 401.104 168.86226 402.84 168.86466 404.576 170.57657 406.312 169.05182 408.048 169.43997 409.784 171.21497 411.52 171.72718 413.256 172.81356 414.992 172.4282 416.728 173.48986 418.464 174.67774 420.2 175.2496 421.936 175.53833 423.672 178.2794 425.408 178.22513 427.144 179.0784 428.88 179.48139 430.616 179.87442 432.352 181.67241 434.088 181.7832 435.824 182.38211 437.56 184.04479 439.296 184.8248 441.032 185.99376 442.768 185.71814 444.504 187.20548 446.24 189.1991 447.976 187.46327 449.712 187.99748 451.448 189.2801 453.184 189.72113 454.92 190.30809 456.656 191.31615 458.392 191.62566 460.128 189.81357 461.864 188.27059 463.6 191.34996 465.336 189.52889 467.072 189.10474 468.808 189.54878 470.544 187.11443 472.28 187.32567 474.016 188.79703 475.752 187.58669 477.488 184.56636 479.224 185.6946 480.96 184.0909 482.696 184.51467 484.432 183.94242 486.168 183.73487 487.904 185.85027 489.64 185.03722"/>
<path transform="matrix(.5,0,0,.5,-15.475397,-34.241)" stroke-width="2" stroke-linecap="butt" stroke-linejoin="round" fill="none" stroke="#d95319" d="M74.736 289.45277 76.472 289.39607 78.208 289.40147 79.944 289.49369 81.68 289.6508 83.416 290.1129 85.152 290.26356 86.888 290.38966 88.624 289.8304 90.36 288.7162 92.096 289.19306 93.832 288.53224 95.568 286.76103 97.304 285.8054 99.04 283.76167 100.776 281.9563 102.512 280.3269 104.248 275.77558 105.984 270.49836 107.72 262.23939 109.456 251.88729 111.192 241.6709 112.928 230.78043 114.664 219.96195 116.4 208.38767 118.136 197.18097 119.872 185.96164 121.608 172.67992 123.344 161.41603 125.08 152.77031 126.816 144.59096 128.552 138.59557 130.288 134.28473 132.024 130.96404 133.76 126.56616 135.496 119.505069 137.232 113.10878 138.968 106.37988 140.704 101.911548 142.44 100.72851 144.176 100.59136 145.912 101.40408 147.648 100.92407 149.384 99.48343 151.12 96.3786 152.856 95.923297 154.592 98.26838 156.328 98.44267 158.064 99.60801 159.8 99.76182 161.536 101.364627 163.272 104.0348 165.008 106.91538 166.744 108.92478 168.48 109.590778 170.216 108.98639 171.952 107.616649 173.688 108.68162 175.424 110.42616 177.16 111.669528 178.896 114.49177 180.632 118.4861 182.368 122.25435 184.104 123.556468 185.84 124.1266 187.576 124.52996 189.312 122.88586 191.048 120.22882 192.784 118.37489 194.52 117.56885 196.256 117.821079 197.992 119.633159 199.728 120.96639 201.464 122.84611 203.2 122.4194 204.936 121.36518 206.672 120.52543 208.408 120.7595 210.144 122.2795 211.88 121.49008 213.616 120.47815 215.352 121.414218 217.088 121.6303 218.824 119.46187 220.56 118.21878 222.296 120.96236 224.032 121.87254 225.768 119.374507 227.504 119.54623 229.24 121.885929 230.976 124.09495 232.712 123.66017 234.448 122.91396 236.184 121.99572 237.92 122.43933 239.656 123.568508 241.392 123.99831 243.128 125.55684 244.864 124.24801 246.6 122.84256 248.336 123.67297 250.072 124.91341 251.808 124.778697 253.544 126.29974 255.28 125.770679 257.016 124.774898 258.752 125.004009 260.488 124.8956 262.224 127.07548 263.96 128.08318 265.696 130.96956 267.432 132.71863 269.168 132.93296 270.904 131.93746 272.64 128.6116 274.376 128.69702 276.112 131.20249 277.848 133.32932 279.584 131.31398 281.32 130.64209 283.056 131.67337 284.792 132.15633 286.528 132.25194 288.264 134.65036 290 137.80806 291.736 139.61658 293.472 140.96906 295.208 138.21312 296.944 138.81565 298.68 137.3337 300.416 137.98026 302.152 139.50948 303.888 139.3702 305.624 139.0197 307.36 139.87941 309.096 141.43587 310.832 142.89319 312.568 142.00153 314.304 141.50299 316.04 141.9512 317.776 143.18599 319.512 143.45429 321.248 140.49665 322.984 140.74073 324.72 143.74399 326.456 144.95514 328.192 144.4423 329.928 146.4002 331.664 146.91681 333.4 148.43985 335.136 147.43 336.872 145.88304 338.608 146.31175 340.344 147.48625 342.08 147.41556 343.816 149.91031 345.552 151.17296 347.288 150.04607 349.024 154.22472 350.76 155.95627 352.496 152.89299 354.232 153.4042 355.968 152.12799 357.704 151.83153 359.44 154.193 361.176 154.40615 362.912 153.48322 364.648 154.44454 366.384 155.62014 368.12 154.16309 369.856 152.70629 371.592 154.46263 373.328 156.70092 375.064 158.75531 376.8 159.5109 378.536 160.41533 380.272 160.92452 382.008 161.38472 383.744 161.32674 385.48 159.96161 387.216 159.40499 388.952 159.70809 390.688 160.33889 392.424 163.35788 394.16 164.52187 395.896 163.94272 397.632 163.55133 399.368 164.56206 401.104 166.76085 402.84 169.05506 404.576 170.93714 406.312 171.79035 408.048 172.30225 409.784 170.75997 411.52 169.55706 413.256 170.79236 414.992 171.19412 416.728 175.42784 418.464 177.48372 420.2 175.81957 421.936 173.79807 423.672 174.03867 425.408 174.99443 427.144 178.15489 428.88 180.47257 430.616 178.18346 432.352 178.99982 434.088 181.99449 435.824 184.72362 437.56 186.97252 439.296 187.38552 441.032 186.07718 442.768 184.43073 444.504 185.25214 446.24 185.9446 447.976 185.13465 449.712 184.80799 451.448 186.91397 453.184 187.89414 454.92 188.53536 456.656 189.2501 458.392 187.33203 460.128 188.43093 461.864 189.05477 463.6 191.20922 465.336 192.51448 467.072 196.53096 468.808 194.75601 470.544 194.07477 472.28 196.5388 474.016 194.35939 475.752 191.60254 477.488 192.00559 479.224 191.09238 480.96 192.43535 482.696 199.07205 484.432 197.40427 486.168 196.04502 487.904 198.30829 489.64 198.394"/>
<path transform="matrix(.5,0,0,.5,-15.475397,-34.241)" d="M86.888 286.02088 85.152 286.29267 83.416 286.54194 81.68 286.48219 79.944 286.9048 78.208 287.3976 76.472 288.03746 74.736 288.79768V290.10786L76.472 290.75465 78.208 291.40534 79.944 292.08259 81.68 292.81944 83.416 293.6839 85.152 294.2344 86.888 294.75846 88.624 294.7027 90.36 294.13038 92.096 295.18675 93.832 295.09193 95.568 293.81599 97.304 293.29249 99.04 291.6933 100.776 290.32533 102.512 289.11637 104.248 285.0141 105.984 280.20137 107.72 272.39024 109.456 262.48805 111.192 252.71979 112.928 242.28774 114.664 231.92694 116.4 220.82128 118.136 210.06406 119.872 199.31417 121.608 186.47776 123.344 175.67752 125.08 167.49069 126.816 159.72748 128.552 154.15251 130.288 150.2326 132.024 147.29134 133.76 143.25135 135.496 136.52327 137.232 130.48052 138.968 124.06976 140.704 119.90247 142.44 119.014438 144.176 119.15793 145.912 120.236049 147.648 120.00869 149.384 118.80807 151.12 115.92318 152.856 115.68548 154.592 118.230518 156.328 118.60097 158.064 119.96076 159.8 120.29614 161.536 122.06756 163.272 124.90001 165.008 127.93374 166.744 130.08449 168.48 130.90299 170.216 130.43262 171.952 129.19316 173.688 130.36789 175.424 132.21843 177.16 133.56084 178.896 136.47359 180.632 140.56024 182.368 144.40984 184.104 145.79647 185.84 146.44588 187.576 146.91967 189.312 145.34972 191.048 142.76136 192.784 140.97333 194.52 140.23548 196.256 140.54982 197.992 142.42522 199.728 143.82627 201.464 145.76934 203.2 145.4027 204.936 144.40904 206.672 143.62725 208.408 143.92241 210.144 145.49782 211.88 144.76529 213.616 143.81151 215.352 144.8068 217.088 145.08528 218.824 142.98006 220.56 141.7991 222.296 144.60636 224.032 145.57912 225.768 143.1417 227.504 143.37548 229.24 145.77669 230.976 148.04457 232.712 147.67351 234.448 146.99536 236.184 146.14435 237.92 146.66123 239.656 147.8601 241.392 148.36367 243.128 149.9943 244.864 148.75736 246.6 147.42443 248.336 148.3378 250.072 149.65816 251.808 149.61312 253.544 151.21512 255.28 150.77124 257.016 149.8568 258.752 150.1641 260.488 150.14203 262.224 152.40166 263.96 153.50266 265.696 156.47356 267.432 158.31633 269.168 158.6211 270.904 157.71681 272.64 154.48032 274.376 154.65186 276.112 157.24164 277.848 159.45908 279.584 157.53369 281.32 156.95523 283.056 158.07616 284.792 158.6434 286.528 158.81467 288.264 161.28781 290 164.5095 291.736 166.38228 293.472 167.79537 295.208 165.10425 296.944 165.7705 298.68 164.35259 300.416 165.05902 302.152 166.65087 303.888 166.56897 305.624 166.27886 307.36 167.1923 309.096 168.80738 310.832 170.31827 312.568 169.48607 314.304 169.04833 316.04 169.55493 317.776 170.85054 319.512 171.18347 321.248 168.29755 322.984 168.61675 324.72 171.71126 326.456 173.00919 328.192 172.58667 329.928 174.64147 331.664 175.25173 333.4 176.87154 335.136 175.969 336.872 174.51314 338.608 175.04033 340.344 176.33554 342.08 176.37279 343.816 179.00222 345.552 180.38814 347.288 179.37239 349.024 183.67917 350.76 185.52335 352.496 182.57663 354.232 183.20528 355.968 182.04189 357.704 181.8576 359.44 184.33585 361.176 184.67537 362.912 183.88632 364.648 184.98966 366.384 186.3009 368.12 184.99059 369.856 183.68059 371.592 185.58535 373.328 187.97498 375.064 190.18573 376.8 191.08777 378.536 192.125 380.272 192.78783 382.008 193.4094 383.744 193.52045 385.48 192.31676 387.216 191.9229 388.952 192.38397 390.688 193.15863 392.424 196.31705 394.16 197.6292 395.896 197.20069 397.632 196.96392 399.368 198.14385 401.104 200.51399 402.84 203.02068 404.576 205.1132 406.312 206.1838 408.048 206.98587 409.784 205.66486 411.52 204.68428 413.256 206.1574 414.992 206.77582 416.728 211.25457 418.464 213.55083 420.2 212.11244 421.936 210.345 423.672 210.84058 425.408 212.04737 427.144 215.50131 428.88 218.10927 430.616 216.11194 432.352 217.18822 434.088 220.4665 435.824 223.48654 437.56 226.04878 439.296 226.76892 441.032 225.77771 442.768 224.46836 444.504 225.61037 446.24 226.62462 447.976 226.14269 449.712 226.19803 451.448 228.64122 453.184 229.90253 454.92 230.79796 456.656 231.74752 458.392 230.10105 460.128 231.47208 461.864 232.38159 463.6 234.84383 465.336 236.43488 467.072 240.75437 468.808 239.32535 470.544 238.96572 472.28 241.88159 474.016 240.13031 475.752 237.7814 477.488 238.89916 479.224 238.9226 480.96 240.96305 482.696 248.22522 484.432 247.22498 486.168 246.71334 487.904 249.92185 489.64 251.3075V145.4805L487.904 146.69474 486.168 145.3767 484.432 147.58356 482.696 149.91889 480.96 143.90764 479.224 143.26213 477.488 145.112 475.752 145.42368 474.016 148.58847 472.28 151.196 470.544 149.18383 468.808 150.18665 467.072 152.30756 465.336 148.59409 463.6 147.57462 461.864 145.72794 460.128 145.38976 458.392 144.56302 456.656 146.7527 454.92 146.27277 453.184 145.88574 451.448 145.18674 449.712 143.41794 447.976 144.1266 446.24 145.26457 444.504 144.8939 442.768 144.39308 441.032 146.37664 439.296 148.0021 437.56 147.89626 435.824 145.96068 434.088 143.52246 432.352 140.81142 430.616 140.25498 428.88 142.83586 427.144 140.80846 425.408 137.94152 423.672 137.23674 421.936 137.25112 420.2 139.5267 418.464 141.41661 416.728 139.6011 414.992 135.61244 413.256 135.42734 411.52 134.42981 409.784 135.85506 408.048 137.61865 406.312 137.39688 404.576 136.76107 402.84 135.08943 401.104 133.00772 399.368 130.98024 397.632 130.13875 395.896 130.68477 394.16 131.41455 392.424 130.39871 390.688 127.51914 388.952 127.032199 387.216 126.887088 385.48 127.60643 383.744 129.13304 382.008 129.36005 380.272 129.0612 378.536 128.70565 376.8 127.93403 375.064 127.32488 373.328 125.42685 371.592 123.33991 369.856 121.73196 368.12 123.33561 366.384 124.939357 364.648 123.899417 362.912 123.08011 361.176 124.13691 359.44 124.05015 357.704 121.80545 355.968 122.214099 354.232 123.60314 352.496 123.20934 350.76 126.38919 349.024 124.77028 347.288 120.719768 345.552 121.95777 343.816 120.81841 342.08 118.45833 340.344 118.63697 338.608 117.583179 336.872 117.25296 335.136 118.89098 333.4 120.00816 331.664 118.5819 329.928 118.15894 328.192 116.29794 326.456 116.901088 324.72 115.776729 322.984 112.86471 321.248 112.695758 319.512 115.72509 317.776 115.52143 316.04 114.34748 314.304 113.95766 312.568 114.516979 310.832 115.4681 309.096 114.06438 307.36 112.56651 305.624 111.76056 303.888 112.17141 302.152 112.36807 300.416 110.9015 298.68 110.314807 296.944 111.86079 295.208 111.322 293.472 114.14273 291.736 112.85088 290 111.106609 288.264 108.01291 286.528 105.689228 284.792 105.66923 283.056 105.270587 281.32 104.32896 279.584 105.09427 277.848 107.19954 276.112 105.163349 274.376 102.74219 272.64 102.74291 270.904 106.158107 269.168 107.24482 267.432 107.120929 265.696 105.465579 263.96 102.66371 262.224 101.74931 260.488 99.649158 258.752 99.84391 257.016 99.693 255.28 100.7701 253.544 101.384387 251.808 99.94428 250.072 100.168659 248.336 99.00813 246.6 98.26068 244.864 99.738658 243.128 101.11939 241.392 99.63295 239.656 99.27692 237.92 98.21743 236.184 97.8471 234.448 98.83258 232.712 99.646839 230.976 100.14533 229.24 97.99515 227.504 95.71699 225.768 95.60731 224.032 98.165988 222.296 97.31837 220.56 94.63846 218.824 95.94366 217.088 98.175319 215.352 98.02166 213.616 97.1448 211.88 98.21488 210.144 99.061199 208.408 97.59659 206.672 97.42362 204.936 98.32132 203.2 99.43608 201.464 99.92286 199.728 98.10651 197.992 96.84109 196.256 95.09234 194.52 94.902217 192.784 95.77644 191.048 97.6963 189.312 100.421977 187.576 102.14028 185.84 101.80732 184.104 101.31647 182.368 100.09887 180.632 96.411937 178.896 92.509929 177.16 89.77822 175.424 88.6339 173.688 86.99534 171.952 86.04011 170.216 87.54017 168.48 88.27856 166.744 87.765079 165.008 85.897029 163.272 83.16961 161.536 80.6617 159.8 79.22746 158.064 79.25524 156.328 78.284389 154.592 78.30624 152.856 76.16111 151.12 76.834018 149.384 80.15879 147.648 81.839458 145.912 82.57213 144.176 82.02477 142.44 82.44258 140.704 83.92059 138.968 88.690029 137.232 95.73704 135.496 102.48688 133.76 109.88096 132.024 114.63676 130.288 118.336849 128.552 123.03862 126.816 129.4544 125.08 138.04991 123.344 147.15454 121.608 158.88207 119.872 172.6091 118.136 184.29788 116.4 195.95407 114.664 207.99694 112.928 219.27312 111.192 230.62201 109.456 241.28652 107.72 252.08855 105.984 260.79536 104.248 266.53706 102.512 271.53746 100.776 273.58729 99.04 275.83 97.304 278.3183 95.568 279.7061 93.832 281.9725 92.096 283.1994 90.36 283.30204 88.624 284.9581Z" fill="#bf5700" fill-opacity=".14901962"/>
<path transform="matrix(.5,0,0,.5,-15.475397,-34.241)" d="M499 325V279.5H394.5V325Z" fill="#ffffff"/>
<use data-text="T" xlink:href="#font_0_53" transform="matrix(5.4,0,0,-5.4,200.2746,111.883998)"/>
<use data-text="r" xlink:href="#font_0_83" transform="matrix(5.4,0,0,-5.4,203.57399,111.883998)"/>
<use data-text="u" xlink:href="#font_0_86" transform="matrix(5.4,0,0,-5.4,205.67459,111.883998)"/>
<use data-text="e" xlink:href="#font_0_70" transform="matrix(5.4,0,0,-5.4,208.974,111.883998)"/>
<use data-text=" " xlink:href="#font_0_1" transform="matrix(5.4,0,0,-5.4,211.9764,111.883998)"/>
<use data-text="Q" xlink:href="#font_0_50" transform="matrix(5.4,0,0,-5.4,213.4776,111.883998)"/>
<use data-text="o" xlink:href="#font_0_80" transform="matrix(5.4,0,0,-5.4,217.6788,111.883998)"/>
<use data-text="I" xlink:href="#font_0_42" transform="matrix(5.4,0,0,-5.4,220.9782,111.883998)"/>
<use data-text="s" xlink:href="#font_0_84" transform="matrix(5.4,0,0,-5.4,222.4794,111.883998)"/>
<path transform="matrix(.5,0,0,.5,-15.475397,-34.241)" stroke-width="2.5" stroke-linecap="butt" stroke-dasharray="2,2" stroke-linejoin="bevel" fill="none" stroke="#000000" d="M398.5 288.25H428.5"/>
<use data-text="P" xlink:href="#font_0_49" transform="matrix(5.4,0,0,-5.4,200.2746,118.883998)"/>
<use data-text="r" xlink:href="#font_0_83" transform="matrix(5.4,0,0,-5.4,203.8764,118.883998)"/>
<use data-text="e" xlink:href="#font_0_70" transform="matrix(5.4,0,0,-5.4,205.977,118.883998)"/>
<use data-text="d" xlink:href="#font_0_69" transform="matrix(5.4,0,0,-5.4,208.9794,118.883998)"/>
<use data-text="." xlink:href="#font_0_15" transform="matrix(5.4,0,0,-5.4,212.2788,118.883998)"/>
<use data-text=" " xlink:href="#font_0_1" transform="matrix(5.4,0,0,-5.4,213.78,118.883998)"/>
<use data-text="Q" xlink:href="#font_0_50" transform="matrix(5.4,0,0,-5.4,215.2812,118.883998)"/>
<use data-text="o" xlink:href="#font_0_80" transform="matrix(5.4,0,0,-5.4,219.48239,118.883998)"/>
<use data-text="I" xlink:href="#font_0_42" transform="matrix(5.4,0,0,-5.4,222.7818,118.883998)"/>
<use data-text=" " xlink:href="#font_0_1" transform="matrix(5.4,0,0,-5.4,224.283,118.883998)"/>
<use data-text="#" xlink:href="#font_0_4" transform="matrix(5.4,0,0,-5.4,225.7842,118.883998)"/>
<use data-text="4" xlink:href="#font_0_21" transform="matrix(5.4,0,0,-5.4,228.78659,118.883998)"/>
<path transform="matrix(.5,0,0,.5,-15.475397,-34.241)" stroke-width="2" stroke-linecap="butt" stroke-linejoin="round" fill="none" stroke="#d95319" d="M398.5 302.25H428.5"/>
<use data-text="9" xlink:href="#font_0_26" transform="matrix(5.4,0,0,-5.4,200.2746,125.883998)"/>
<use data-text="5" xlink:href="#font_0_22" transform="matrix(5.4,0,0,-5.4,203.277,125.883998)"/>
<use data-text="%" xlink:href="#font_0_6" transform="matrix(5.4,0,0,-5.4,206.2794,125.883998)"/>
<use data-text=" " xlink:href="#font_0_1" transform="matrix(5.4,0,0,-5.4,211.08,125.883998)"/>
<use data-text="C" xlink:href="#font_0_36" transform="matrix(5.4,0,0,-5.4,212.58119,125.883998)"/>
<use data-text="I" xlink:href="#font_0_42" transform="matrix(5.4,0,0,-5.4,216.48,125.883998)"/>
<use data-text="s" xlink:href="#font_0_84" transform="matrix(5.4,0,0,-5.4,217.9812,125.883998)"/>
<path transform="matrix(.5,0,0,.5,-15.475397,-34.241)" d="M428.5 321.3125V311.1875H398.5V321.3125Z" fill="#bf5700" fill-opacity=".14901962"/>
<path transform="matrix(.5,0,0,.5,-15.475397,-34.241)" stroke-width=".5" stroke-linecap="butt" stroke-miterlimit="10" stroke-linejoin="miter" fill="none" stroke="#262626" d="M394.5 325V279.5H499V325Z"/>
</svg>
