<svg xmlns="http://www.w3.org/2000/svg" xmlns:xlink="http://www.w3.org/1999/xlink" xmlns:inkscape="http://www.inkscape.org/namespaces/inkscape" version="1.1" width="244" height="151" viewBox="0 0 244 151">
<defs>
<path id="font_0_17" d="M.272995 .723999C.19699097 .723999 .13198853 .69200137 .08898926 .6329956 .04798889 .5779877 .0289917 .48799134 .0289917 .34999085 .0289917 .22399903 .04499817 .13598633 .07899475 .08198547 .12098694 .01399231 .18998719-.023010254 .272995-.023010254 .34999085-.023010254 .41299439 .0079956059 .45700074 .066986087 .49699403 .12199402 .5169983 .21299744 .5169983 .34599305 .5169983 .47599793 .5009918 .56399539 .46699525 .61898806 .4249878 .68699648 .35598756 .723999 .272995 .723999M.272995 .61099246C.30899049 .61099246 .33799745 .59098818 .35499574 .55400088 .36898805 .5239868 .3769989 .44699098 .3769989 .34899903 .3769989 .2689972 .36999513 .19099427 .35899354 .1619873 .34298707 .11999512 .31298829 .09700012 .272995 .09700012 .23599243 .09700012 .20799256 .115997318 .19099427 .1519928 .1769867 .18199158 .16899109 .2559967 .16899109 .35099793 .16899109 .43499757 .17599488 .5149994 .18699646 .5439911 .20199585 .58699038 .23298645 .61099246 .272995 .61099246Z"/>
<path id="font_0_22" d="M.4889984 .70899966H.10998535L.04699707 .31399537H.17298889C.18798828 .34899903 .21998596 .36799623 .2630005 .36799623 .33399964 .36799623 .3769989 .31698609 .3769989 .23098755 .3769989 .147995 .33399964 .09700012 .2630005 .09700012 .20199585 .09700012 .16799927 .12799073 .16499329 .18499756H.026992798C.0289917 .06098938 .12298584-.023010254 .26098634-.023010254 .41299439-.023010254 .5169983 .08099365 .5169983 .23399353 .5169983 .37998963 .4269867 .47898866 .29599 .47898866 .24899292 .47898866 .21398926 .46699525 .17298889 .43598939L.19599915 .58399966H.4889984V.70899966Z"/>
<path id="font_0_18" d="M.23799134 .4889984V0H.37799073V.70899966H.2849884C.2630005 .625 .18998719 .58200076 .067993167 .58200076V.4889984H.23799134Z"/>
<path id="font_0_19" d="M.5119934 .125H.21099854C.22999573 .16299439 .2519989 .18399048 .35598756 .25898744 .47898866 .34899903 .5149994 .4019928 .5149994 .49899293 .5149994 .6359863 .41999818 .723999 .27198792 .723999 .125 .723999 .038986207 .6369934 .038986207 .4869995V.46199037H.17399597V.4850006C.17399597 .56399539 .21099854 .6100006 .2749939 .6100006 .33699037 .6100006 .375 .5669861 .375 .49598695 .375 .4169922 .35099793 .3880005 .19299317 .27598573 .07299805 .19400025 .035995485 .13198853 .02999878 0H.5119934V.125Z"/>
<path id="font_0_53" d="M.3849945 .60398867H.59799197V.72898867H.01399231V.60398867H.23498535V0H.3849945V.60398867Z"/>
<path id="font_0_74" d="M.20698548 .5399933H.066986087V0H.20698548V.5399933M.20698548 .72898867H.066986087V.60398867H.20698548V.72898867Z"/>
<path id="font_0_78" d="M.05999756 .5399933V0H.19999695V.32398988C.19999695 .3909912 .23599243 .42999269 .29599 .42999269 .34298707 .42999269 .37199403 .40299989 .37199403 .3600006V0H.5119934V.32398988C.5119934 .3899994 .5479889 .42999269 .60798647 .42999269 .6549988 .42999269 .6839905 .40299989 .6839905 .3600006V0H.82398989V.38198854C.82398989 .4869995 .7599945 .548996 .6519928 .548996 .58299258 .548996 .5359955 .5249939 .49398805 .46899415 .46798707 .519989 .4139862 .548996 .34700013 .548996 .2849884 .548996 .24499512 .5289917 .19898987 .47299195V.5399933H.05999756Z"/>
<path id="font_0_70" d="M.5239868 .22599793C.5249939 .23799134 .5249939 .24299622 .5249939 .25 .5249939 .3039856 .5169983 .35398866 .5039978 .3919983 .46798707 .48999024 .3809967 .548996 .27198792 .548996 .116989139 .548996 .021987915 .43699647 .021987915 .2559967 .021987915 .08299255 .115997318-.023010254 .2689972-.023010254 .3899994-.023010254 .48799134 .04499817 .5189972 .1519928H.3809967C.3639984 .10899353 .32499696 .083999637 .27398683 .083999637 .23399353 .083999637 .20199585 .100997928 .18199158 .1309967 .16899109 .15098572 .1639862 .1749878 .1619873 .22599793H.5239868M.1639862 .31900025C.17298889 .4019928 .20799256 .44198609 .269989 .44198609 .33399964 .44198609 .37199403 .39898683 .3789978 .31900025H.1639862Z"/>
<path id="font_0_1" d="M0 0Z"/>
<path id="font_0_9" d="M.20298767 .72898867C.08799744 .5549927 .039993287 .4189911 .039993287 .2649994 .039993287 .10998535 .08799744-.026000977 .20298767-.2000122H.30299378C.19599915 .005996704 .16299439 .116989139 .16299439 .2649994 .16299439 .4119873 .19699097 .5249939 .30299378 .72898867H.20298767Z"/>
<path id="font_0_84" d="M.5049896 .3659973C.5029907 .47999574 .4149933 .548996 .269989 .548996 .1329956 .548996 .04798889 .47999574 .04798889 .36898805 .04798889 .33299256 .05899048 .3019867 .07798767 .2809906 .09700012 .2619934 .11399841 .25299073 .1659851 .23599243L.33299256 .18399048C.36799623 .17298889 .37998963 .1619873 .37998963 .13999939 .37998963 .10699463 .34098817 .08699036 .27598573 .08699036 .23899842 .08699036 .21099854 .09298706 .19299317 .10598755 .17799378 .116989139 .17199707 .12799073 .1659851 .15699768H.0289917C.032989503 .037994386 .11999512-.023010254 .28399659-.023010254 .35899354-.023010254 .41600038-.007003784 .45599366 .024993897 .49598695 .056991579 .519989 .10699463 .519989 .1599884 .519989 .22999573 .4850006 .2749939 .4139862 .29599L.23699951 .34700013C.19799805 .35899354 .18798828 .36698915 .18798828 .3889923 .18798828 .4189911 .21998596 .43899537 .2689972 .43899537 .33599855 .43899537 .36898805 .4149933 .36999513 .3659973H.5049896Z"/>
<path id="font_0_10" d="M.12199402-.2000122C.23699951-.026000977 .2849884 .10998535 .2849884 .2639923 .2849884 .4189911 .23699951 .5549927 .12199402 .72898867H.021987915C.1289978 .522995 .1619873 .4119873 .1619873 .2639923 .1619873 .116989139 .12799073 .0039978029 .021987915-.2000122H.12199402Z"/>
<path id="font_0_14" d="M.2979889 .34199525H.025985718V.20698548H.2979889V.34199525Z"/>
<path id="font_0_15" d="M.21398926 .1459961H.06399536V0H.21398926V.1459961Z"/>
<path id="font_0_56" d="M.7299957 0 .9319916 .72898867H.772995L.6639862 .18199158 .54599 .72898867H.397995L.2849884 .18299866 .17199707 .72898867H.0129852299L.21899414 0H.35398866L.47299195 .56900027 .59498599 0H.7299957Z"/>
<path id="font_0_66" d="M.5239868 .016998291C.5 .039993287 .49198915 .055999757 .49198915 .08299255V.3829956C.49198915 .49299623 .4169922 .548996 .2709961 .548996 .125 .548996 .04899597 .4869995 .039993287 .3619995H.1749878C.18199158 .41799928 .20498657 .43598939 .27398683 .43598939 .32798768 .43598939 .35499574 .41799928 .35499574 .38198854 .35499574 .3639984 .34599305 .34899903 .33099366 .33999635 .31199647 .32998658 .31199647 .32998658 .24299622 .31900025L.18699646 .30899049C.07998657 .29100038 .027999878 .23599243 .027999878 .13899231 .027999878 .041992189 .09298706-.023010254 .19198609-.023010254 .2519989-.023010254 .30599977 .0019989014 .35598756 .053985597 .35598756 .025985718 .35899354 .015991211 .37199403 0H.5239868V.016998291M.35499574 .21699524C.35499574 .13598633 .31498719 .08999634 .24398804 .08999634 .19699097 .08999634 .16799927 .114990238 .16799927 .15499878 .16799927 .19699097 .18998719 .21699524 .24798584 .22898865L.29599 .23799134C.33299256 .24499512 .33898927 .24699402 .35499574 .25498963V.21699524Z"/>
<path id="font_0_87" d="M.34999085 0 .5359955 .5399933H.3880005L.2789917 .14498902 .1619873 .5399933H.01399231L.20298767 0H.34999085Z"/>
<path id="font_0_73" d="M.066986087 .72898867V0H.20698548V.32398988C.20698548 .38598634 .2519989 .42999269 .31498719 .42999269 .34599305 .42999269 .36898805 .4189911 .3849945 .39698792 .397995 .3789978 .40098573 .3639984 .40098573 .32998658V0H.54100039V.3619995C.54100039 .42900086 .522995 .47698976 .48599244 .5079956 .45498658 .5339966 .4099884 .548996 .36499024 .548996 .29599 .548996 .24598694 .5219879 .20698548 .46199037V.72898867H.066986087Z"/>
<path id="font_0_72" d="M.3999939 .5399933V.45700074C.36099244 .519989 .31799317 .548996 .26098634 .548996 .21299744 .548996 .1599884 .5249939 .12298584 .48599244 .068984989 .42999269 .040985109 .35198976 .040985109 .25698854 .040985109 .09098816 .1289978-.023010254 .2579956-.023010254 .31599427-.023010254 .35099793-.0040130617 .3999939 .054992677V-.018005372C.3999939-.08300781 .35398866-.12800598 .28799439-.12800598 .23799134-.12800598 .20698548-.10600281 .19599915-.06500244H.051986696C.052993776-.10700989 .067993167-.13600159 .10499573-.16600037 .147995-.20100403 .20698548-.21800232 .2829895-.21800232 .43899537-.21800232 .5329895-.14300537 .5329895-.018005372V.5399933H.3999939M.2869873 .43199159C.35299684 .43199159 .4019928 .35899354 .4019928 .25898744 .4019928 .16099549 .35499574 .09399414 .2849884 .09399414 .22399903 .09399414 .18099976 .16099549 .18099976 .25898744 .18099976 .36099244 .22399903 .43199159 .2869873 .43199159Z"/>
<path id="font_0_85" d="M.30099488 .5289917H.22299195V.673996H.08299255V.5289917H.01399231V.43598939H.08299255V.10398865C.08299255 .018997193 .12799073-.023010254 .21998596-.023010254 .2519989-.023010254 .2749939-.020004273 .30099488-.012008667V.085998538C.2869873 .083999637 .27999879 .08299255 .2689972 .08299255 .23199463 .08299255 .22299195 .09399414 .22299195 .14199829V.43598939H.30099488V.5289917Z"/>
<path id="font_0_83" d="M.06298828 .5399933V0H.20298767V.2869873C.20298767 .36898805 .24398804 .4099884 .32598878 .4099884 .34098817 .4099884 .35099793 .40899659 .36999513 .4059906V.5479889C.3619995 .548996 .35899354 .548996 .35299684 .548996 .2889862 .548996 .23399353 .5069885 .20298767 .43399049V.5399933H.06298828Z"/>
<path id="font_0_86" d="M.54100039 0V.5399933H.40098573V.20199585C.40098573 .13798523 .35699464 .09599304 .28799439 .09599304 .22799683 .09599304 .19799805 .12799073 .19799805 .19299317V.5399933H.057998659V.1639862C.057998659 .04399109 .12298584-.023010254 .23899842-.023010254 .31199647-.023010254 .36099244 .0029907227 .40098573 .06399536V0H.54100039Z"/>
<path id="font_0_50" d="M.6649933 .102996829C.71398928 .16299439 .7449951 .2630005 .7449951 .36099244 .7449951 .46798707 .70700076 .57099917 .6429901 .6399994 .5799866 .70799258 .49798585 .7409973 .3939972 .7409973 .2899933 .7409973 .20799256 .70799258 .14498902 .6399994 .07998657 .57099917 .042999269 .46798707 .042999269 .35899354 .042999269 .25 .08099365 .14698792 .14498902 .07798767 .20799256 .009994507 .2899933-.023010254 .3939972-.023010254 .46998597-.023010254 .5249939-.008010864 .58299258 .026992798L.6689911-.054000856 .7449951 .026992798 .6649933 .102996829M.47999574 .27799989 .4039917 .19699097 .48098756 .12399292C.45700074 .11199951 .4249878 .10499573 .3929901 .10499573 .272995 .10499573 .19299317 .20599365 .19299317 .35899354 .19299317 .5130005 .27198792 .61299136 .3939972 .61299136 .5159912 .61299136 .59498599 .5130005 .59498599 .35798646 .59498599 .2979889 .58399966 .24398804 .56199648 .19999695L.47999574 .27799989Z"/>
<path id="font_0_80" d="M.30099488 .548996C.13598633 .548996 .034988405 .43998719 .034988405 .2630005 .034988405 .084991458 .13598633-.023010254 .3019867-.023010254 .46699525-.023010254 .56900027 .084991458 .56900027 .25898744 .56900027 .44198609 .46998597 .548996 .30099488 .548996M.3019867 .43598939C.3789978 .43598939 .42900086 .36698915 .42900086 .26098634 .42900086 .1599884 .3769989 .08999634 .3019867 .08999634 .22599793 .08999634 .1749878 .15899658 .1749878 .2630005 .1749878 .36698915 .22599793 .43598939 .3019867 .43598939Z"/>
<path id="font_0_42" d="M.21299744 .72898867H.06298828V0H.21299744V.72898867Z"/>
<path id="font_0_49" d="M.22599793 .2599945H.41299439C.5469971 .2599945 .6329956 .35499574 .6329956 .5029907 .6329956 .6489868 .5499878 .72898867 .397995 .72898867H.07598877V0H.22599793V.2599945M.22599793 .3849945V.60398867H.3659973C.44599916 .60398867 .48298646 .56900027 .48298646 .49499513 .48298646 .41999818 .44599916 .3849945 .3659973 .3849945H.22599793Z"/>
<path id="font_0_69" d="M.40499879 0H.54499819V.72898867H.40499879V.46998597C.36999513 .5239868 .32398988 .548996 .2559967 .548996 .1269989 .548996 .0289917 .4249878 .0289917 .2619934 .0289917 .18899536 .050994874 .114990238 .08699036 .06298828 .12399292 .009994507 .18998719-.023010254 .2559967-.023010254 .32398988-.023010254 .36999513 .0009918213 .40499879 .054992677V0M.2869873 .43199159C.35798646 .43199159 .40499879 .3639984 .40499879 .2599945 .40499879 .1619873 .35699464 .09399414 .2869873 .09399414 .21699524 .09399414 .16899109 .16299439 .16899109 .2619934 .16899109 .36299134 .21699524 .43199159 .2869873 .43199159Z"/>
<path id="font_0_4" d="M.1459961-.03201294 .18598938 .17199707H.2889862L.24899292-.03201294H.35398866L.3939972 .17199707H.5130005V.2709961H.41299439L.44400025 .42399598H.5529938V.522995H.46299745L.49699403 .69699099H.3919983L.35798646 .522995H.25498963L.2889862 .69699099H.18399048L.1499939 .522995H.0309906V.42399598H.12998963L.099990848 .2709961H.0029907227V.17199707H.07998657L.039993287-.03201294H.1459961M.20498657 .2709961 .23498535 .42399598H.33799745L.30799867 .2709961H.20498657Z"/>
<path id="font_0_20" d="M.21699524 .31698609C.2709961 .31698609 .27398683 .31698609 .29899598 .30999757 .34599305 .29699708 .37599183 .2559967 .37599183 .20399475 .37599183 .14099121 .33198548 .09700012 .2709961 .09700012 .20498657 .09700012 .16899109 .1349945 .16499329 .20799256H.0289917C.02999878 .06599426 .12199402-.023010254 .2679901-.023010254 .4189911-.023010254 .5159912 .06599426 .5159912 .20399475 .5159912 .2869873 .47999574 .34098817 .3999939 .37998963 .46499635 .42099 .49299623 .46598817 .49299623 .5309906 .49299623 .6489868 .40499879 .723999 .2679901 .723999 .16499329 .723999 .085998538 .67900088 .054992677 .60198977 .041992189 .56799319 .037994386 .54499819 .037994386 .48599244H.16799927C.16899109 .5239868 .17199707 .54299929 .1789856 .5609894 .19198609 .59199526 .22399903 .61099246 .2649994 .61099246 .32099916 .61099246 .35299684 .57699587 .35299684 .5179901 .35299684 .44599916 .31199647 .41099549 .22898865 .41099549H.21699524V.31698609Z"/>
<path id="font_0_26" d="M.037994386 .16499329C.040985109 .055999757 .1329956-.024002076 .25498963-.024002076 .34599305-.024002076 .4149933 .01399231 .45700074 .085998538 .49398805 .14898682 .5159912 .2559967 .5159912 .36999513 .5159912 .47399903 .5 .55400088 .46699525 .60798647 .42199708 .6839905 .35198976 .723999 .2669983 .723999 .125 .723999 .027999878 .621994 .027999878 .47399903 .027999878 .32798768 .11399841 .22799683 .23999024 .22799683 .27598573 .22799683 .30999757 .23799134 .33198548 .2539978 .34498597 .2630005 .35299684 .27198792 .37599183 .2979889 .37599183 .16099549 .33799745 .09599304 .25898744 .09599304 .20899964 .09599304 .17599488 .12298584 .17298889 .16499329H.037994386M.2630005 .6100006C.33099366 .6100006 .37298585 .55799868 .37298585 .47399903 .37298585 .3959961 .32998658 .34399415 .2649994 .34399415 .20098877 .34399415 .16099549 .3939972 .16099549 .47599793 .16099549 .55799868 .19999695 .6100006 .2630005 .6100006Z"/>
<path id="font_0_6" d="M.20599365 .70098879C.10499573 .70098879 .021987915 .61898806 .021987915 .5189972 .021987915 .4189911 .10499573 .33699037 .20599365 .33699037 .30699159 .33699037 .3899994 .41799928 .3899994 .5169983 .3899994 .6199951 .30899049 .70098879 .20599365 .70098879M.20599365 .60198977C.2539978 .60198977 .29100038 .5649872 .29100038 .5179901 .29100038 .47200013 .25299073 .43499757 .20599365 .43499757 .15899658 .43499757 .12098694 .47200013 .12098694 .5189972 .12098694 .5649872 .15899658 .60198977 .20599365 .60198977M.60598757 .70899966 .20999146-.020004273H.2869873L.6819916 .70899966H.60598757M.67900088 .35198976C.57699587 .35198976 .49499513 .269989 .49499513 .16999817 .49499513 .068984989 .57699587-.013000488 .67900088-.013000488 .7799988-.013000488 .86299136 .068984989 .86299136 .16699219 .86299136 .2709961 .7819977 .35198976 .67900088 .35198976M.67900088 .25299073C.72698977 .25299073 .7639923 .21598816 .7639923 .16799927 .7639923 .12298584 .72499087 .084991458 .67900088 .084991458 .6319885 .084991458 .59399417 .12298584 .59399417 .16899109 .59399417 .21499634 .6319885 .25299073 .67900088 .25299073Z"/>
<path id="font_0_36" d="M.6819916 .48199464C.6769867 .54499819 .6639862 .58499148 .6329956 .6259918 .57699587 .69999697 .4869995 .7409973 .37799073 .7409973 .17199707 .7409973 .04399109 .59399417 .04399109 .35798646 .04399109 .12298584 .17098999-.023010254 .37399293-.023010254 .55599978-.023010254 .6759949 .08198547 .68499758 .24899292H.5389862C.5289917 .1559906 .47099305 .102996829 .37799073 .102996829 .2619934 .102996829 .19400025 .19699097 .19400025 .35598756 .19400025 .5169983 .2649994 .61299136 .3829956 .61299136 .46998597 .61299136 .5189972 .57099917 .5389862 .48199464H.6819916Z"/>
</defs>
<path transform="matrix(.5,0,0,.5,-15.475397,-34.241)" d="M0 0H1120V840H0Z" fill="#ffffff"/>
<path transform="matrix(.5,0,0,.5,-15.475397,-34.241)" d="M73 332.95H507V72.55H73Z" fill="#ffffff"/>
<path transform="matrix(.5,0,0,.5,-15.475397,-34.241)" stroke-width=".5" stroke-linecap="butt" stroke-linejoin="round" fill="none" stroke="#262626" stroke-opacity=".14901962" d="M73 332.95V72.55"/>
<path transform="matrix(.5,0,0,.5,-15.475397,-34.241)" stroke-width=".5" stroke-linecap="butt" stroke-linejoin="round" fill="none" stroke="#262626" stroke-opacity=".14901962" d="M159.8 332.95V72.55"/>
<path transform="matrix(.5,0,0,.5,-15.475397,-34.241)" stroke-width=".5" stroke-linecap="butt" stroke-linejoin="round" fill="none" stroke="#262626" stroke-opacity=".14901962" d="M246.6 332.95V72.55"/>
<path transform="matrix(.5,0,0,.5,-15.475397,-34.241)" stroke-width=".5" stroke-linecap="butt" stroke-linejoin="round" fill="none" stroke="#262626" stroke-opacity=".14901962" d="M333.4 332.95V72.55"/>
<path transform="matrix(.5,0,0,.5,-15.475397,-34.241)" stroke-width=".5" stroke-linecap="butt" stroke-linejoin="round" fill="none" stroke="#262626" stroke-opacity=".14901962" d="M420.2 332.95V72.55"/>
<path transform="matrix(.5,0,0,.5,-15.475397,-34.241)" stroke-width=".5" stroke-linecap="butt" stroke-linejoin="round" fill="none" stroke="#262626" stroke-opacity=".14901962" d="M507 332.95V72.55"/>
<path transform="matrix(.5,0,0,.5,-15.475397,-34.241)" stroke-width=".5" stroke-linecap="butt" stroke-linejoin="round" fill="none" stroke="#262626" stroke-opacity=".14901962" d="M507 332.95H73"/>
<path transform="matrix(.5,0,0,.5,-15.475397,-34.241)" stroke-width=".5" stroke-linecap="butt" stroke-linejoin="round" fill="none" stroke="#262626" stroke-opacity=".14901962" d="M507 280.87H73"/>
<path transform="matrix(.5,0,0,.5,-15.475397,-34.241)" stroke-width=".5" stroke-linecap="butt" stroke-linejoin="round" fill="none" stroke="#262626" stroke-opacity=".14901962" d="M507 228.79H73"/>
<path transform="matrix(.5,0,0,.5,-15.475397,-34.241)" stroke-width=".5" stroke-linecap="butt" stroke-linejoin="round" fill="none" stroke="#262626" stroke-opacity=".14901962" d="M507 176.71H73"/>
<path transform="matrix(.5,0,0,.5,-15.475397,-34.241)" stroke-width=".5" stroke-linecap="butt" stroke-linejoin="round" fill="none" stroke="#262626" stroke-opacity=".14901962" d="M507 124.63H73"/>
<path transform="matrix(.5,0,0,.5,-15.475397,-34.241)" stroke-width=".5" stroke-linecap="butt" stroke-linejoin="round" fill="none" stroke="#262626" stroke-opacity=".14901962" d="M507 72.55H73"/>
<path transform="matrix(.5,0,0,.5,-15.475397,-34.241)" stroke-width=".5" stroke-linecap="square" stroke-linejoin="round" fill="none" stroke="#262626" d="M73 332.95H507"/>
<path transform="matrix(.5,0,0,.5,-15.475397,-34.241)" stroke-width=".5" stroke-linecap="square" stroke-linejoin="round" fill="none" stroke="#262626" d="M73 72.55H507"/>
<path transform="matrix(.5,0,0,.5,-15.475397,-34.241)" stroke-width=".5" stroke-linecap="square" stroke-linejoin="round" fill="none" stroke="#262626" d="M73 332.95V328.61003"/>
<path transform="matrix(.5,0,0,.5,-15.475397,-34.241)" stroke-width=".5" stroke-linecap="square" stroke-linejoin="round" fill="none" stroke="#262626" d="M159.8 332.95V328.61003"/>
<path transform="matrix(.5,0,0,.5,-15.475397,-34.241)" stroke-width=".5" stroke-linecap="square" stroke-linejoin="round" fill="none" stroke="#262626" d="M246.6 332.95V328.61003"/>
<path transform="matrix(.5,0,0,.5,-15.475397,-34.241)" stroke-width=".5" stroke-linecap="square" stroke-linejoin="round" fill="none" stroke="#262626" d="M333.4 332.95V328.61003"/>
<path transform="matrix(.5,0,0,.5,-15.475397,-34.241)" stroke-width=".5" stroke-linecap="square" stroke-linejoin="round" fill="none" stroke="#262626" d="M420.2 332.95V328.61003"/>
<path transform="matrix(.5,0,0,.5,-15.475397,-34.241)" stroke-width=".5" stroke-linecap="square" stroke-linejoin="round" fill="none" stroke="#262626" d="M507 332.95V328.61003"/>
<path transform="matrix(.5,0,0,.5,-15.475397,-34.241)" stroke-width=".5" stroke-linecap="square" stroke-linejoin="round" fill="none" stroke="#262626" d="M73 72.55V76.89"/>
<path transform="matrix(.5,0,0,.5,-15.475397,-34.241)" stroke-width=".5" stroke-linecap="square" stroke-linejoin="round" fill="none" stroke="#262626" d="M159.8 72.55V76.89"/>
<path transform="matrix(.5,0,0,.5,-15.475397,-34.241)" stroke-width=".5" stroke-linecap="square" stroke-linejoin="round" fill="none" stroke="#262626" d="M246.6 72.55V76.89"/>
<path transform="matrix(.5,0,0,.5,-15.475397,-34.241)" stroke-width=".5" stroke-linecap="square" stroke-linejoin="round" fill="none" stroke="#262626" d="M333.4 72.55V76.89"/>
<path transform="matrix(.5,0,0,.5,-15.475397,-34.241)" stroke-width=".5" stroke-linecap="square" stroke-linejoin="round" fill="none" stroke="#262626" d="M420.2 72.55V76.89"/>
<path transform="matrix(.5,0,0,.5,-15.475397,-34.241)" stroke-width=".5" stroke-linecap="square" stroke-linejoin="round" fill="none" stroke="#262626" d="M507 72.55V76.89"/>
<use data-text="0" xlink:href="#font_0_17" transform="matrix(6,0,0,-6,19.274603,140.434)" fill="#262626"/>
<use data-text="5" xlink:href="#font_0_22" transform="matrix(6,0,0,-6,60.924608,140.434)" fill="#262626"/>
<use data-text="0" xlink:href="#font_0_17" transform="matrix(6,0,0,-6,64.260608,140.434)" fill="#262626"/>
<use data-text="1" xlink:href="#font_0_18" transform="matrix(6,0,0,-6,102.57461,140.434)" fill="#262626"/>
<use data-text="0" xlink:href="#font_0_17" transform="matrix(6,0,0,-6,105.91061,140.434)" fill="#262626"/>
<use data-text="0" xlink:href="#font_0_17" transform="matrix(6,0,0,-6,109.24661,140.434)" fill="#262626"/>
<use data-text="1" xlink:href="#font_0_18" transform="matrix(6,0,0,-6,145.9746,140.434)" fill="#262626"/>
<use data-text="5" xlink:href="#font_0_22" transform="matrix(6,0,0,-6,149.3106,140.434)" fill="#262626"/>
<use data-text="0" xlink:href="#font_0_17" transform="matrix(6,0,0,-6,152.64659,140.434)" fill="#262626"/>
<use data-text="2" xlink:href="#font_0_19" transform="matrix(6,0,0,-6,189.3746,140.434)" fill="#262626"/>
<use data-text="0" xlink:href="#font_0_17" transform="matrix(6,0,0,-6,192.7106,140.434)" fill="#262626"/>
<use data-text="0" xlink:href="#font_0_17" transform="matrix(6,0,0,-6,196.0466,140.434)" fill="#262626"/>
<use data-text="2" xlink:href="#font_0_19" transform="matrix(6,0,0,-6,232.7746,140.434)" fill="#262626"/>
<use data-text="5" xlink:href="#font_0_22" transform="matrix(6,0,0,-6,236.1106,140.434)" fill="#262626"/>
<use data-text="0" xlink:href="#font_0_17" transform="matrix(6,0,0,-6,239.4466,140.434)" fill="#262626"/>
<use data-text="T" xlink:href="#font_0_53" transform="matrix(6.6,0,0,-6.6,117.024707,148.934)" fill="#262626"/>
<use data-text="i" xlink:href="#font_0_74" transform="matrix(6.6,0,0,-6.6,121.057308,148.934)" fill="#262626"/>
<use data-text="m" xlink:href="#font_0_78" transform="matrix(6.6,0,0,-6.6,122.892108,148.934)" fill="#262626"/>
<use data-text="e" xlink:href="#font_0_70" transform="matrix(6.6,0,0,-6.6,128.7595,148.934)" fill="#262626"/>
<use data-text=" " xlink:href="#font_0_1" transform="matrix(6.6,0,0,-6.6,132.42911,148.934)" fill="#262626"/>
<use data-text="(" xlink:href="#font_0_9" transform="matrix(6.6,0,0,-6.6,134.2639,148.934)" fill="#262626"/>
<use data-text="s" xlink:href="#font_0_84" transform="matrix(6.6,0,0,-6.6,136.4617,148.934)" fill="#262626"/>
<use data-text=")" xlink:href="#font_0_10" transform="matrix(6.6,0,0,-6.6,140.1313,148.934)" fill="#262626"/>
<path transform="matrix(.5,0,0,.5,-15.475397,-34.241)" stroke-width=".5" stroke-linecap="square" stroke-linejoin="round" fill="none" stroke="#262626" d="M73 332.95V72.55"/>
<path transform="matrix(.5,0,0,.5,-15.475397,-34.241)" stroke-width=".5" stroke-linecap="square" stroke-linejoin="round" fill="none" stroke="#262626" d="M507 332.95V72.55"/>
<path transform="matrix(.5,0,0,.5,-15.475397,-34.241)" stroke-width=".5" stroke-linecap="square" stroke-linejoin="round" fill="none" stroke="#262626" d="M73 332.95H77.34"/>
<path transform="matrix(.5,0,0,.5,-15.475397,-34.241)" stroke-width=".5" stroke-linecap="square" stroke-linejoin="round" fill="none" stroke="#262626" d="M73 280.87H77.34"/>
<path transform="matrix(.5,0,0,.5,-15.475397,-34.241)" stroke-width=".5" stroke-linecap="square" stroke-linejoin="round" fill="none" stroke="#262626" d="M73 228.79H77.34"/>
<path transform="matrix(.5,0,0,.5,-15.475397,-34.241)" stroke-width=".5" stroke-linecap="square" stroke-linejoin="round" fill="none" stroke="#262626" d="M73 176.71H77.34"/>
<path transform="matrix(.5,0,0,.5,-15.475397,-34.241)" stroke-width=".5" stroke-linecap="square" stroke-linejoin="round" fill="none" stroke="#262626" d="M73 124.63H77.34"/>
<path transform="matrix(.5,0,0,.5,-15.475397,-34.241)" stroke-width=".5" stroke-linecap="square" stroke-linejoin="round" fill="none" stroke="#262626" d="M73 72.55H77.34"/>
<path transform="matrix(.5,0,0,.5,-15.475397,-34.241)" stroke-width=".5" stroke-linecap="square" stroke-linejoin="round" fill="none" stroke="#262626" d="M507 332.95H502.66"/>
<path transform="matrix(.5,0,0,.5,-15.475397,-34.241)" stroke-width=".5" stroke-linecap="square" stroke-linejoin="round" fill="none" stroke="#262626" d="M507 280.87H502.66"/>
<path transform="matrix(.5,0,0,.5,-15.475397,-34.241)" stroke-width=".5" stroke-linecap="square" stroke-linejoin="round" fill="none" stroke="#262626" d="M507 228.79H502.66"/>
<path transform="matrix(.5,0,0,.5,-15.475397,-34.241)" stroke-width=".5" stroke-linecap="square" stroke-linejoin="round" fill="none" stroke="#262626" d="M507 176.71H502.66"/>
<path transform="matrix(.5,0,0,.5,-15.475397,-34.241)" stroke-width=".5" stroke-linecap="square" stroke-linejoin="round" fill="none" stroke="#262626" d="M507 124.63H502.66"/>
<path transform="matrix(.5,0,0,.5,-15.475397,-34.241)" stroke-width=".5" stroke-linecap="square" stroke-linejoin="round" fill="none" stroke="#262626" d="M507 72.55H502.66"/>
<use data-text="-" xlink:href="#font_0_14" transform="matrix(6,0,0,-6,7.824602,134.48401)" fill="#262626"/>
<use data-text="0" xlink:href="#font_0_17" transform="matrix(6,0,0,-6,9.822602,134.48401)" fill="#262626"/>
<use data-text="." xlink:href="#font_0_15" transform="matrix(6,0,0,-6,13.158603,134.48401)" fill="#262626"/>
<use data-text="5" xlink:href="#font_0_22" transform="matrix(6,0,0,-6,14.826603,134.48401)" fill="#262626"/>
<use data-text="0" xlink:href="#font_0_17" transform="matrix(6,0,0,-6,15.324602,108.44399)" fill="#262626"/>
<use data-text="0" xlink:href="#font_0_17" transform="matrix(6,0,0,-6,10.324602,82.40399)" fill="#262626"/>
<use data-text="." xlink:href="#font_0_15" transform="matrix(6,0,0,-6,13.660603,82.40399)" fill="#262626"/>
<use data-text="5" xlink:href="#font_0_22" transform="matrix(6,0,0,-6,15.328603,82.40399)" fill="#262626"/>
<use data-text="1" xlink:href="#font_0_18" transform="matrix(6,0,0,-6,15.324602,56.364004)" fill="#262626"/>
<use data-text="1" xlink:href="#font_0_18" transform="matrix(6,0,0,-6,10.324602,30.323998)" fill="#262626"/>
<use data-text="." xlink:href="#font_0_15" transform="matrix(6,0,0,-6,13.660603,30.323998)" fill="#262626"/>
<use data-text="5" xlink:href="#font_0_22" transform="matrix(6,0,0,-6,15.328603,30.323998)" fill="#262626"/>
<use data-text="2" xlink:href="#font_0_19" transform="matrix(6,0,0,-6,15.324602,4.2840006)" fill="#262626"/>
<use data-text="W" xlink:href="#font_0_56" transform="matrix(-.00000028050003,-6.6,-6.6,.00000028050003,4.824603,92.383937)" fill="#262626"/>
<use data-text="a" xlink:href="#font_0_66" transform="matrix(-.00000028050003,-6.6,-6.6,.00000028050003,4.824603,86.153537)" fill="#262626"/>
<use data-text="v" xlink:href="#font_0_87" transform="matrix(-.00000028050003,-6.6,-6.6,.00000028050003,4.8246028,82.48393)" fill="#262626"/>
<use data-text="e" xlink:href="#font_0_70" transform="matrix(-.00000028050003,-6.6,-6.6,.00000028050003,4.8246028,78.81433)" fill="#262626"/>
<use data-text=" " xlink:href="#font_0_1" transform="matrix(-.00000028050003,-6.6,-6.6,.00000028050003,4.8246028,75.14473)" fill="#262626"/>
<use data-text="h" xlink:href="#font_0_73" transform="matrix(-.00000028050003,-6.6,-6.6,.00000028050003,4.824602,73.30993)" fill="#262626"/>
<use data-text="e" xlink:href="#font_0_70" transform="matrix(-.00000028050003,-6.6,-6.6,.00000028050003,4.824602,69.27733)" fill="#262626"/>
<use data-text="i" xlink:href="#font_0_74" transform="matrix(-.00000028050003,-6.6,-6.6,.00000028050003,4.824602,65.607738)" fill="#262626"/>
<use data-text="g" xlink:href="#font_0_72" transform="matrix(-.00000028050003,-6.6,-6.6,.00000028050003,4.824602,63.772935)" fill="#262626"/>
<use data-text="h" xlink:href="#font_0_73" transform="matrix(-.00000028050003,-6.6,-6.6,.00000028050003,4.8246018,59.740335)" fill="#262626"/>
<use data-text="t" xlink:href="#font_0_85" transform="matrix(-.00000028050003,-6.6,-6.6,.00000028050003,4.8246018,55.707735)" fill="#262626"/>
<use data-text=" " xlink:href="#font_0_1" transform="matrix(-.00000028050003,-6.6,-6.6,.00000028050003,4.8246018,53.509935)" fill="#262626"/>
<use data-text="(" xlink:href="#font_0_9" transform="matrix(-.00000028050003,-6.6,-6.6,.00000028050003,4.824601,51.675134)" fill="#262626"/>
<use data-text="m" xlink:href="#font_0_78" transform="matrix(-.00000028050003,-6.6,-6.6,.00000028050003,4.824601,49.477334)" fill="#262626"/>
<use data-text=")" xlink:href="#font_0_10" transform="matrix(-.00000028050003,-6.6,-6.6,.00000028050003,4.824601,43.609933)" fill="#262626"/>
<path transform="matrix(.5,0,0,.5,-15.475397,-34.241)" stroke-width="2.5" stroke-linecap="butt" stroke-dasharray="2,2" stroke-linejoin="bevel" fill="none" stroke="#000000" d="M74.736 280.87H76.472 78.208 79.944 81.68 83.416 85.152 86.888L88.624 280.87025 90.36 280.9346 92.096 281.3766 93.832 281.80644 95.568 282.1008 97.304 282.51335 99.04 283.2013 100.776 284.2681 102.512 285.1121 104.248 281.97453 105.984 275.71366 107.72 276.2502 109.456 276.95237 111.192 273.31828 112.928 275.563 114.664 278.6455 116.4 277.54283 118.136 279.61729 119.872 280.04884 121.608 278.45365 123.344 280.21739 125.08 278.45365 126.816 275.93199 128.552 273.61103 130.288 267.3156 132.024 260.8006 133.76 249.59416 135.496 232.09046 137.232 209.20362 138.968 181.88895 140.704 159.06436 142.44 146.80818 144.176 140.62978 145.912 139.61176 147.648 138.69768 149.384 139.15682 151.12 139.40149 152.856 137.88709 154.592 137.89038 156.328 136.18183 158.064 134.72765 159.8 132.94179 161.536 130.85636 163.272 130.72582 165.008 130.91727 166.744 133.28173 168.48 137.00365 170.216 140.12377 171.952 142.47986 173.688 146.73056 175.424 151.21895 177.16 152.5055 178.896 154.1523 180.632 157.27892 182.368 157.63697 184.104 153.76552 185.84 152.19257 187.576 155.0278 189.312 159.72138 191.048 161.94617 192.784 160.8252 194.52 158.64035 196.256 157.95812 197.992 158.89839 199.728 159.24897 201.464 155.10251 203.2 157.65048 204.936 157.92473 206.672 155.41664 208.408 160.10994 210.144 155.71488 211.88 153.32102 213.616 155.27452 215.352 152.37985 217.088 152.61566 218.824 151.98058 220.56 148.23671 222.296 151.39785 224.032 153.29532 225.768 147.85138 227.504 151.43202 229.24 151.33264 230.976 149.2665 232.712 152.60558 234.448 156.86652 236.184 150.10268 237.92 150.0981 239.656 155.82552 241.392 152.87094 243.128 151.56601 244.864 161.11206 246.6 157.76653 248.336 148.52042 250.072 157.98082 251.808 160.1503 253.544 150.91124 255.28 158.93822 257.016 162.58602 258.752 153.09703 260.488 160.70789 262.224 162.27448 263.96 154.99765 265.696 161.83104 267.432 164.75472 269.168 155.69623 270.904 162.15808 272.64 167.52141 274.376 156.77855 276.112 162.53215 277.848 164.53153 279.584 157.67789 281.32 159.35604 283.056 165.33206 284.792 160.21494 286.528 163.57195 288.264 163.91376 290 157.31499 291.736 163.17736 293.472 160.78015 295.208 160.8549 296.944 165.82854 298.68 161.86217 300.416 158.71227 302.152 167.59255 303.888 163.38031 305.624 156.6531 307.36 163.75397 309.096 164.61052 310.832 159.00954 312.568 159.9763 314.304 166.29827 316.04 158.95055 317.776 152.69016 319.512 165.37285 321.248 162.58058 322.984 152.13729 324.72 161.9751 326.456 164.95052 328.192 154.7611 329.928 157.07167 331.664 166.60338 333.4 159.87917 335.136 149.913 336.872 166.81302 338.608 162.62369 340.344 152.82807 342.08 164.88803 343.816 166.72025 345.552 156.14641 347.288 158.66641 349.024 168.67684 350.76 159.07765 352.496 160.22046 354.232 170.20725 355.968 161.4113 357.704 159.0946 359.44 167.913 361.176 161.54453 362.912 165.40442 364.648 167.2852 366.384 163.66063 368.12 169.12604 369.856 165.34032 371.592 164.18036 373.328 170.95552 375.064 171.62393 376.8 163.28156 378.536 173.28223 380.272 173.64209 382.008 160.47298 383.744 172.43939 385.48 174.55751 387.216 166.35759 388.952 168.77628 390.688 176.7976 392.424 170.19304 394.16 166.83916 395.896 176.3768 397.632 173.35973 399.368 162.13718 401.104 173.4009 402.84 175.87113 404.576 161.18613 406.312 172.76238 408.048 174.41695 409.784 163.96633 411.52 173.10373 413.256 171.93744 414.992 166.41866 416.728 169.59098 418.464 170.94171 420.2 171.20471 421.936 165.87375 423.672 166.5529 425.408 171.31307 427.144 165.62831 428.88 164.51586 430.616 172.69522 432.352 168.86092 434.088 159.7372 435.824 173.03826 437.56 169.74556 439.296 158.02344 441.032 168.4607 442.768 173.86698 444.504 161.03865 446.24 164.72034 447.976 175.22165 449.712 163.56484 451.448 157.13605 453.184 173.22219 454.92 166.33931 456.656 153.99306 458.392 171.18776 460.128 168.22162 461.864 153.4997 463.6 165.93135 465.336 168.15792 467.072 154.73635 468.808 159.92998 470.544 165.5435 472.28 160.36122 474.016 158.8456 475.752 165.01129 477.488 160.71358 479.224 157.2389 480.96 163.13899 482.696 164.51328 484.432 160.42577 486.168 159.27689 487.904 166.46858 489.64 161.32172"/>
<path transform="matrix(.5,0,0,.5,-15.475397,-34.241)" stroke-width="2" stroke-linecap="butt" stroke-linejoin="round" fill="none" stroke="#d95319" d="M74.736 280.91047 76.472 281.19755 78.208 281.2326 79.944 281.2396 81.68 281.14186 83.416 280.65675 85.152 281.18309 86.888 281.83656 88.624 282.16804 90.36 283.39399 92.096 284.66957 93.832 285.5461 95.568 284.92253 97.304 282.32814 99.04 282.54304 100.776 284.1799 102.512 284.2848 104.248 282.74324 105.984 280.03706 107.72 281.58793 109.456 284.0908 111.192 280.12498 112.928 278.68305 114.664 278.423 116.4 277.3884 118.136 279.25544 119.872 278.96519 121.608 280.5491 123.344 283.72984 125.08 278.87364 126.816 275.75437 128.552 278.49397 130.288 270.63264 132.024 258.24726 133.76 245.23146 135.496 224.1709 137.232 203.1771 138.968 183.3142 140.704 168.08667 142.44 160.67137 144.176 154.66252 145.912 149.79451 147.648 141.97338 149.384 136.3976 151.12 137.09558 152.856 136.71743 154.592 135.2734 156.328 138.00428 158.064 136.97409 159.8 130.21959 161.536 126.28457 163.272 130.50203 165.008 130.57109 166.744 123.21109 168.48 127.6974 170.216 139.33437 171.952 143.28098 173.688 146.9826 175.424 161.17089 177.16 159.94448 178.896 151.9648 180.632 158.02957 182.368 159.35698 184.104 154.9455 185.84 156.60869 187.576 160.94132 189.312 162.57167 191.048 163.7857 192.784 163.7484 194.52 160.41658 196.256 160.59392 197.992 164.19889 199.728 164.57805 201.464 160.91646 203.2 166.71227 204.936 165.60723 206.672 163.5495 208.408 165.26271 210.144 153.18407 211.88 152.49138 213.616 168.0652 215.352 160.00313 217.088 152.41899 218.824 159.14629 220.56 152.10953 222.296 149.73749 224.032 155.71739 225.768 156.04445 227.504 155.52228 229.24 151.13011 230.976 150.0827 232.712 151.28124 234.448 148.46897 236.184 144.64803 237.92 153.2436 239.656 158.65142 241.392 152.71417 243.128 156.88628 244.864 164.59444 246.6 158.87723 248.336 149.95526 250.072 160.62595 251.808 161.77883 253.544 150.9536 255.28 157.03054 257.016 158.21921 258.752 149.85657 260.488 158.49575 262.224 156.77573 263.96 145.97504 265.696 154.3478 267.432 153.8053 269.168 148.30844 270.904 155.05644 272.64 160.4381 274.376 157.6924 276.112 159.5711 277.848 157.82193 279.584 155.52017 281.32 156.47533 283.056 149.69794 284.792 152.39795 286.528 156.172 288.264 150.0868 290 152.29134 291.736 159.44997 293.472 156.11678 295.208 162.56842 296.944 163.05695 298.68 161.07553 300.416 168.66793 302.152 164.2037 303.888 155.24449 305.624 159.81638 307.36 169.17023 309.096 163.8032 310.832 160.9606 312.568 163.88739 314.304 163.60065 316.04 162.98255 317.776 160.21692 319.512 163.67147 321.248 165.48732 322.984 159.8686 324.72 162.88143 326.456 173.3098 328.192 159.19156 329.928 160.08396 331.664 180.55796 333.4 167.61133 335.136 148.67064 336.872 171.47446 338.608 172.23192 340.344 146.7978 342.08 168.48889 343.816 173.37587 345.552 153.69554 347.288 164.5736 349.024 179.04161 350.76 160.25865 352.496 152.75145 354.232 169.8494 355.968 171.56369 357.704 164.10083 359.44 162.08615 361.176 163.31291 362.912 161.82811 364.648 154.80503 366.384 160.27658 368.12 171.27796 369.856 159.93268 371.592 160.93292 373.328 176.53083 375.064 163.45523 376.8 150.2549 378.536 168.28437 380.272 163.91732 382.008 143.09918 383.744 161.5302 385.48 172.17937 387.216 161.04265 388.952 161.23963 390.688 171.23789 392.424 168.0831 394.16 156.2432 395.896 160.55879 397.632 165.76108 399.368 153.45168 401.104 152.07279 402.84 169.20983 404.576 160.38365 406.312 151.32971 408.048 158.14548 409.784 158.79148 411.52 158.61286 413.256 162.55889 414.992 164.12596 416.728 158.64157 418.464 162.17792 420.2 163.85529 421.936 158.48856 423.672 164.80353 425.408 166.65866 427.144 156.28736 428.88 157.39339 430.616 168.74388 432.352 156.28601 434.088 146.84578 435.824 177.97339 437.56 175.86986 439.296 141.45104 441.032 167.43363 442.768 186.79917 444.504 146.86757 446.24 152.91036 447.976 182.73429 449.712 158.45366 451.448 158.26949 453.184 184.11186 454.92 157.81417 456.656 148.09783 458.392 173.38083 460.128 157.68283 461.864 139.51935 463.6 157.24747 465.336 168.2275 467.072 155.04933 468.808 160.61432 470.544 178.16362 472.28 172.19716 474.016 150.6506 475.752 159.86283 477.488 160.82909 479.224 141.68582 480.96 157.23273 482.696 175.26454 484.432 155.60385 486.168 145.3286 487.904 162.95264 489.64 166.85639"/>
<path transform="matrix(.5,0,0,.5,-15.475397,-34.241)" d="M92.096 293.59169 93.832 295.2838 95.568 295.39427 97.304 293.45207 99.04 294.27934 100.776 296.47795 102.512 297.1564 104.248 296.11009 105.984 293.85758 107.72 295.9042 109.456 298.8077 111.192 295.32505 112.928 294.31568 114.664 294.46147 116.4 293.85157 118.136 296.09159 119.872 296.15699 121.608 298.05033 123.344 301.55903 125.08 297.01377 126.816 294.18098 128.552 297.19248 130.288 289.579 132.024 277.43757 133.76 264.65516 135.496 243.79985 137.232 223.02335 138.968 203.3556 140.704 188.30414 142.44 181.08219 144.176 175.25997 145.912 170.55712 147.648 162.8985 149.384 157.5034 151.12 158.34835 152.856 158.10822 154.592 156.81769 156.328 159.69326 158.064 158.80316 159.8 152.18599 161.536 148.40128 163.272 152.7437 165.008 152.92868 166.744 145.699 168.48 150.30057 170.216 162.03884 171.952 166.09809 173.688 169.89728 175.424 184.18264 177.16 183.0568 178.896 175.17296 180.632 181.33954 182.368 182.75966 184.104 178.43503 185.84 180.19339 187.576 184.62091 189.312 186.33527 191.048 187.6378 192.784 187.7013 194.52 184.4531 196.256 184.71384 197.992 188.41945 199.728 188.87592 201.464 185.29036 203.2 191.17609 204.936 190.15305 206.672 188.17403 208.408 189.96402 210.144 177.97187 211.88 177.36307 213.616 193.01988 215.352 185.04389 217.088 177.55173 218.824 184.36772 220.56 177.4259 222.296 175.14197 224.032 181.21627 225.768 181.63488 227.504 181.20479 229.24 176.9103 230.976 175.94962 232.712 177.23487 234.448 174.51894 236.184 170.78816 237.92 179.47797 239.656 184.98488 241.392 179.14119 243.128 183.41239 244.864 191.2177 246.6 185.59416 248.336 176.7618 250.072 187.52442 251.808 188.77707 253.544 178.03847 255.28 184.21222 257.016 185.50093 258.752 177.22336 260.488 185.96405 262.224 184.34217 263.96 173.6215 265.696 182.09383 267.432 181.64202 269.168 176.22629 270.904 183.08055 272.64 188.55025 274.376 185.88872 276.112 187.85767 277.848 186.19428 279.584 183.97551 281.32 185.02268 283.056 178.33486 284.792 181.1129 286.528 184.97943 288.264 178.9817 290 181.26726 291.736 188.51802 293.472 185.26474 295.208 191.80406 296.944 192.3832 298.68 190.48311 300.416 198.1618 302.152 193.78444 303.888 184.89852 305.624 189.55168 307.36 198.99031 309.096 193.6942 310.832 190.93256 312.568 193.93056 314.304 193.71721 316.04 193.18503 317.776 190.4862 319.512 194.01807 321.248 195.90579 322.984 190.35958 324.72 193.44567 326.456 203.94545 328.192 189.90378 329.928 190.86672 331.664 211.41007 333.4 198.54701 335.136 179.67717 336.872 202.55113 338.608 203.39386 340.344 178.0338 342.08 199.79856 343.816 204.75453 345.552 185.14225 347.288 196.09387 349.024 210.62293 350.76 191.90345 352.496 184.46439 354.232 201.62415 355.968 203.40651 357.704 196.00981 359.44 194.07035 361.176 195.37602 362.912 193.9564 364.648 187.00464 366.384 192.54592 368.12 203.60358 369.856 192.32805 371.592 193.38785 373.328 209.04125 375.064 196.03005 376.8 182.8906 378.536 200.9789 380.272 196.67888 382.008 175.93729 383.744 194.43939 385.48 205.16107 387.216 194.10077 388.952 194.36658 390.688 204.4348 392.424 201.34358 394.16 189.5612 395.896 193.94225 397.632 199.21183 399.368 186.9765 401.104 185.67449 402.84 202.89844 404.576 194.15299 406.312 185.17488 408.048 192.06679 409.784 192.8061 411.52 192.71274 413.256 196.75606 414.992 198.43186 416.728 193.0501 418.464 196.67186 420.2 198.46437 421.936 193.20484 423.672 199.59993 425.408 201.52628 427.144 191.2422 428.88 192.47727 430.616 203.96105 432.352 191.64238 434.088 182.35785 435.824 213.62224 437.56 211.6383 439.296 177.38884 441.032 203.61077 442.768 223.278 444.504 183.64214 446.24 189.94092 447.976 219.96457 449.712 195.83769 451.448 195.84777 453.184 222.02547 454.92 196.17673 456.656 187.10942 458.392 212.82093 460.128 197.64351 461.864 179.91577 463.6 198.17324 465.336 209.77165 467.072 197.14102 468.808 203.27048 470.544 221.25199 472.28 215.66565 474.016 194.57062 475.752 204.40962 477.488 206.13773 479.224 187.81879 480.96 204.32741 482.696 223.78533 484.432 205.18328 486.168 196.85636 487.904 218.0243 489.64 222.53549V111.17726L487.904 107.88095 486.168 93.800838 484.432 106.024448 482.696 126.74377 480.96 110.13807 479.224 95.552867 477.488 115.52046 475.752 115.31603 474.016 106.730609 472.28 128.72867 470.544 135.07527 468.808 117.95818 467.072 112.957637 465.336 126.683338 463.6 116.32171 461.864 99.12291 460.128 117.72217 458.392 133.94074 456.656 109.08623 454.92 119.45159 453.184 146.19826 451.448 120.69118 449.712 121.06962 447.976 145.504 446.24 115.87981 444.504 110.09301 442.768 150.32033 441.032 131.25649 439.296 105.51323 437.56 140.1014 435.824 142.32456 434.088 111.3337 432.352 120.92964 430.616 133.52672 428.88 122.3095 427.144 121.33251 425.408 131.79105 423.672 130.00714 421.936 123.77225 420.2 129.24622 418.464 127.68396 416.728 124.233058 414.992 129.82007 413.256 128.36173 411.52 124.51297 409.784 124.77684 408.048 124.22418 406.312 117.48452 404.576 126.614337 402.84 135.52121 401.104 118.471088 399.368 119.926868 397.632 132.31034 395.896 127.17534 394.16 122.92518 392.424 134.82263 390.688 138.04099 388.952 128.11266 387.216 127.98452 385.48 139.19768 383.744 128.621 382.008 110.26107 380.272 131.15576 378.536 135.58985 376.8 117.6192 375.064 130.88043 373.328 144.0204 371.592 128.47801 369.856 127.537319 368.12 138.95233 366.384 128.00725 364.648 122.60541 362.912 129.6998 361.176 131.24983 359.44 130.10196 357.704 132.19185 355.968 139.72086 354.232 138.07465 352.496 121.038509 350.76 128.61388 349.024 147.4603 347.288 133.05333 345.552 122.24883 343.816 141.99721 342.08 137.17922 340.344 115.561809 338.608 141.06998 336.872 140.39778 335.136 117.664119 333.4 136.67565 331.664 149.70586 329.928 129.30118 328.192 128.47934 326.456 142.67415 324.72 132.31719 322.984 129.37763 321.248 135.06882 319.512 133.32486 317.776 129.94765 316.04 132.78005 314.304 133.48407 312.568 133.84421 310.832 130.98865 309.096 133.9122 307.36 139.35015 305.624 130.08109 303.888 125.59047 302.152 134.623 300.416 139.17404 298.68 131.66797 296.944 133.73073 295.208 133.33277 293.472 126.968799 291.736 130.3819 290 123.31539 288.264 121.1919 286.528 127.36457 284.792 123.68301 283.056 121.06101 281.32 127.92797 279.584 127.06482 277.848 129.44957 276.112 131.28456 274.376 129.49605 272.64 132.32595 270.904 127.03231 269.168 120.3906 267.432 125.96858 265.696 126.60175 263.96 118.328548 262.224 129.20928 260.488 131.02744 258.752 122.489788 257.016 130.93747 255.28 129.84885 253.544 123.86874 251.808 134.78061 250.072 133.72748 248.336 123.148738 246.6 132.16031 244.864 137.97119 243.128 130.36019 241.392 126.287158 239.656 132.31795 237.92 127.00924 236.184 118.507907 234.448 122.41901 232.712 125.327617 230.976 124.215778 229.24 125.34993 227.504 129.83977 225.768 130.45401 224.032 130.21852 222.296 124.33302 220.56 126.793178 218.824 133.92484 217.088 127.28623 215.352 134.96236 213.616 143.11054 211.88 127.61969 210.144 128.39626 208.408 140.56139 206.672 138.92498 204.936 141.0614 203.2 142.24846 201.464 136.54257 199.728 140.2802 197.992 139.9783 196.256 136.474 194.52 136.38005 192.784 139.79549 191.048 139.93363 189.312 138.80809 187.576 137.2617 185.84 133.02397 184.104 131.45598 182.368 135.95432 180.632 134.7196 178.896 128.75664 177.16 136.83216 175.424 138.15912 173.688 124.067958 171.952 120.46387 170.216 116.629909 168.48 105.09425 166.744 100.72319 165.008 108.2135 163.272 108.260349 161.536 104.16787 159.8 108.253208 158.064 115.14501 156.328 116.315288 154.592 113.72912 152.856 115.32662 151.12 115.842807 149.384 115.29182 147.648 121.04824 145.912 129.0319 144.176 134.06508 142.44 140.26056 140.704 147.8692 138.968 163.27277 137.232 183.33084 135.496 204.54193 133.76 225.80776 132.024 239.05695 130.288 251.68627 128.552 259.79548 126.816 257.32777 125.08 260.7335 123.344 265.90068 121.608 263.04789 119.872 261.77336 118.136 262.41929 116.4 260.92527 114.664 262.38456 112.928 263.05039 111.192 264.9249 109.456 269.37388 107.72 267.27165 105.984 266.2165 104.248 269.37638 102.512 271.41319 100.776 271.88188 99.04 270.80677 97.304 271.20423 95.568 274.45079 93.832 275.8084 92.096 275.74745 90.36 275.24736 88.624 274.86329 86.888 275.32444 85.152 275.40214 83.416 275.70405 81.68 277.0341 79.944 278.08827 78.208 278.9752 76.472 279.85755 74.736 280.72135V281.09956L76.472 282.5375 78.208 283.49003 79.944 284.39094 81.68 285.24964 83.416 285.60945 85.152 286.96403 86.888 288.34864 88.624 289.4728 90.36 291.5406Z" fill="#bf5700" fill-opacity=".14901962"/>
<path transform="matrix(.5,0,0,.5,-15.475397,-34.241)" d="M499 325V279.5H394.5V325Z" fill="#ffffff"/>
<use data-text="T" xlink:href="#font_0_53" transform="matrix(5.4,0,0,-5.4,200.2746,111.883998)"/>
<use data-text="r" xlink:href="#font_0_83" transform="matrix(5.4,0,0,-5.4,203.57399,111.883998)"/>
<use data-text="u" xlink:href="#font_0_86" transform="matrix(5.4,0,0,-5.4,205.67459,111.883998)"/>
<use data-text="e" xlink:href="#font_0_70" transform="matrix(5.4,0,0,-5.4,208.974,111.883998)"/>
<use data-text=" " xlink:href="#font_0_1" transform="matrix(5.4,0,0,-5.4,211.9764,111.883998)"/>
<use data-text="Q" xlink:href="#font_0_50" transform="matrix(5.4,0,0,-5.4,213.4776,111.883998)"/>
<use data-text="o" xlink:href="#font_0_80" transform="matrix(5.4,0,0,-5.4,217.6788,111.883998)"/>
<use data-text="I" xlink:href="#font_0_42" transform="matrix(5.4,0,0,-5.4,220.9782,111.883998)"/>
<use data-text="s" xlink:href="#font_0_84" transform="matrix(5.4,0,0,-5.4,222.4794,111.883998)"/>
<path transform="matrix(.5,0,0,.5,-15.475397,-34.241)" stroke-width="2.5" stroke-linecap="butt" stroke-dasharray="2,2" stroke-linejoin="bevel" fill="none" stroke="#000000" d="M398.5 288.25H428.5"/>
<use data-text="P" xlink:href="#font_0_49" transform="matrix(5.4,0,0,-5.4,200.2746,118.883998)"/>
<use data-text="r" xlink:href="#font_0_83" transform="matrix(5.4,0,0,-5.4,203.8764,118.883998)"/>
<use data-text="e" xlink:href="#font_0_70" transform="matrix(5.4,0,0,-5.4,205.977,118.883998)"/>
<use data-text="d" xlink:href="#font_0_69" transform="matrix(5.4,0,0,-5.4,208.9794,118.883998)"/>
<use data-text="." xlink:href="#font_0_15" transform="matrix(5.4,0,0,-5.4,212.2788,118.883998)"/>
<use data-text=" " xlink:href="#font_0_1" transform="matrix(5.4,0,0,-5.4,213.78,118.883998)"/>
<use data-text="Q" xlink:href="#font_0_50" transform="matrix(5.4,0,0,-5.4,215.2812,118.883998)"/>
<use data-text="o" xlink:href="#font_0_80" transform="matrix(5.4,0,0,-5.4,219.48239,118.883998)"/>
<use data-text="I" xlink:href="#font_0_42" transform="matrix(5.4,0,0,-5.4,222.7818,118.883998)"/>
<use data-text=" " xlink:href="#font_0_1" transform="matrix(5.4,0,0,-5.4,224.283,118.883998)"/>
<use data-text="#" xlink:href="#font_0_4" transform="matrix(5.4,0,0,-5.4,225.7842,118.883998)"/>
<use data-text="3" xlink:href="#font_0_20" transform="matrix(5.4,0,0,-5.4,228.78659,118.883998)"/>
<path transform="matrix(.5,0,0,.5,-15.475397,-34.241)" stroke-width="2" stroke-linecap="butt" stroke-linejoin="round" fill="none" stroke="#d95319" d="M398.5 302.25H428.5"/>
<use data-text="9" xlink:href="#font_0_26" transform="matrix(5.4,0,0,-5.4,200.2746,125.883998)"/>
<use data-text="5" xlink:href="#font_0_22" transform="matrix(5.4,0,0,-5.4,203.277,125.883998)"/>
<use data-text="%" xlink:href="#font_0_6" transform="matrix(5.4,0,0,-5.4,206.2794,125.883998)"/>
<use data-text=" " xlink:href="#font_0_1" transform="matrix(5.4,0,0,-5.4,211.08,125.883998)"/>
<use data-text="C" xlink:href="#font_0_36" transform="matrix(5.4,0,0,-5.4,212.58119,125.883998)"/>
<use data-text="I" xlink:href="#font_0_42" transform="matrix(5.4,0,0,-5.4,216.48,125.883998)"/>
<use data-text="s" xlink:href="#font_0_84" transform="matrix(5.4,0,0,-5.4,217.9812,125.883998)"/>
<path transform="matrix(.5,0,0,.5,-15.475397,-34.241)" d="M428.5 321.3125V311.1875H398.5V321.3125Z" fill="#bf5700" fill-opacity=".14901962"/>
<path transform="matrix(.5,0,0,.5,-15.475397,-34.241)" stroke-width=".5" stroke-linecap="butt" stroke-miterlimit="10" stroke-linejoin="miter" fill="none" stroke="#262626" d="M394.5 325V279.5H499V325Z"/>
</svg>
