<svg xmlns="http://www.w3.org/2000/svg" xmlns:xlink="http://www.w3.org/1999/xlink" xmlns:inkscape="http://www.inkscape.org/namespaces/inkscape" version="1.1" width="244" height="151" viewBox="0 0 244 151">
<defs>
<path id="font_0_17" d="M.272995 .723999C.19699097 .723999 .13198853 .69200137 .08898926 .6329956 .04798889 .5779877 .0289917 .48799134 .0289917 .34999085 .0289917 .22399903 .04499817 .13598633 .07899475 .08198547 .12098694 .01399231 .18998719-.023010254 .272995-.023010254 .34999085-.023010254 .41299439 .0079956059 .45700074 .066986087 .49699403 .12199402 .5169983 .21299744 .5169983 .34599305 .5169983 .47599793 .5009918 .56399539 .46699525 .61898806 .4249878 .68699648 .35598756 .723999 .272995 .723999M.272995 .61099246C.30899049 .61099246 .33799745 .59098818 .35499574 .55400088 .36898805 .5239868 .3769989 .44699098 .3769989 .34899903 .3769989 .2689972 .36999513 .19099427 .35899354 .1619873 .34298707 .11999512 .31298829 .09700012 .272995 .09700012 .23599243 .09700012 .20799256 .115997318 .19099427 .1519928 .1769867 .18199158 .16899109 .2559967 .16899109 .35099793 .16899109 .43499757 .17599488 .5149994 .18699646 .5439911 .20199585 .58699038 .23298645 .61099246 .272995 .61099246Z"/>
<path id="font_0_22" d="M.4889984 .70899966H.10998535L.04699707 .31399537H.17298889C.18798828 .34899903 .21998596 .36799623 .2630005 .36799623 .33399964 .36799623 .3769989 .31698609 .3769989 .23098755 .3769989 .147995 .33399964 .09700012 .2630005 .09700012 .20199585 .09700012 .16799927 .12799073 .16499329 .18499756H.026992798C.0289917 .06098938 .12298584-.023010254 .26098634-.023010254 .41299439-.023010254 .5169983 .08099365 .5169983 .23399353 .5169983 .37998963 .4269867 .47898866 .29599 .47898866 .24899292 .47898866 .21398926 .46699525 .17298889 .43598939L.19599915 .58399966H.4889984V.70899966Z"/>
<path id="font_0_18" d="M.23799134 .4889984V0H.37799073V.70899966H.2849884C.2630005 .625 .18998719 .58200076 .067993167 .58200076V.4889984H.23799134Z"/>
<path id="font_0_19" d="M.5119934 .125H.21099854C.22999573 .16299439 .2519989 .18399048 .35598756 .25898744 .47898866 .34899903 .5149994 .4019928 .5149994 .49899293 .5149994 .6359863 .41999818 .723999 .27198792 .723999 .125 .723999 .038986207 .6369934 .038986207 .4869995V.46199037H.17399597V.4850006C.17399597 .56399539 .21099854 .6100006 .2749939 .6100006 .33699037 .6100006 .375 .5669861 .375 .49598695 .375 .4169922 .35099793 .3880005 .19299317 .27598573 .07299805 .19400025 .035995485 .13198853 .02999878 0H.5119934V.125Z"/>
<path id="font_0_53" d="M.3849945 .60398867H.59799197V.72898867H.01399231V.60398867H.23498535V0H.3849945V.60398867Z"/>
<path id="font_0_74" d="M.20698548 .5399933H.066986087V0H.20698548V.5399933M.20698548 .72898867H.066986087V.60398867H.20698548V.72898867Z"/>
<path id="font_0_78" d="M.05999756 .5399933V0H.19999695V.32398988C.19999695 .3909912 .23599243 .42999269 .29599 .42999269 .34298707 .42999269 .37199403 .40299989 .37199403 .3600006V0H.5119934V.32398988C.5119934 .3899994 .5479889 .42999269 .60798647 .42999269 .6549988 .42999269 .6839905 .40299989 .6839905 .3600006V0H.82398989V.38198854C.82398989 .4869995 .7599945 .548996 .6519928 .548996 .58299258 .548996 .5359955 .5249939 .49398805 .46899415 .46798707 .519989 .4139862 .548996 .34700013 .548996 .2849884 .548996 .24499512 .5289917 .19898987 .47299195V.5399933H.05999756Z"/>
<path id="font_0_70" d="M.5239868 .22599793C.5249939 .23799134 .5249939 .24299622 .5249939 .25 .5249939 .3039856 .5169983 .35398866 .5039978 .3919983 .46798707 .48999024 .3809967 .548996 .27198792 .548996 .116989139 .548996 .021987915 .43699647 .021987915 .2559967 .021987915 .08299255 .115997318-.023010254 .2689972-.023010254 .3899994-.023010254 .48799134 .04499817 .5189972 .1519928H.3809967C.3639984 .10899353 .32499696 .083999637 .27398683 .083999637 .23399353 .083999637 .20199585 .100997928 .18199158 .1309967 .16899109 .15098572 .1639862 .1749878 .1619873 .22599793H.5239868M.1639862 .31900025C.17298889 .4019928 .20799256 .44198609 .269989 .44198609 .33399964 .44198609 .37199403 .39898683 .3789978 .31900025H.1639862Z"/>
<path id="font_0_1" d="M0 0Z"/>
<path id="font_0_9" d="M.20298767 .72898867C.08799744 .5549927 .039993287 .4189911 .039993287 .2649994 .039993287 .10998535 .08799744-.026000977 .20298767-.2000122H.30299378C.19599915 .005996704 .16299439 .116989139 .16299439 .2649994 .16299439 .4119873 .19699097 .5249939 .30299378 .72898867H.20298767Z"/>
<path id="font_0_84" d="M.5049896 .3659973C.5029907 .47999574 .4149933 .548996 .269989 .548996 .1329956 .548996 .04798889 .47999574 .04798889 .36898805 .04798889 .33299256 .05899048 .3019867 .07798767 .2809906 .09700012 .2619934 .11399841 .25299073 .1659851 .23599243L.33299256 .18399048C.36799623 .17298889 .37998963 .1619873 .37998963 .13999939 .37998963 .10699463 .34098817 .08699036 .27598573 .08699036 .23899842 .08699036 .21099854 .09298706 .19299317 .10598755 .17799378 .116989139 .17199707 .12799073 .1659851 .15699768H.0289917C.032989503 .037994386 .11999512-.023010254 .28399659-.023010254 .35899354-.023010254 .41600038-.007003784 .45599366 .024993897 .49598695 .056991579 .519989 .10699463 .519989 .1599884 .519989 .22999573 .4850006 .2749939 .4139862 .29599L.23699951 .34700013C.19799805 .35899354 .18798828 .36698915 .18798828 .3889923 .18798828 .4189911 .21998596 .43899537 .2689972 .43899537 .33599855 .43899537 .36898805 .4149933 .36999513 .3659973H.5049896Z"/>
<path id="font_0_10" d="M.12199402-.2000122C.23699951-.026000977 .2849884 .10998535 .2849884 .2639923 .2849884 .4189911 .23699951 .5549927 .12199402 .72898867H.021987915C.1289978 .522995 .1619873 .4119873 .1619873 .2639923 .1619873 .116989139 .12799073 .0039978029 .021987915-.2000122H.12199402Z"/>
<path id="font_0_14" d="M.2979889 .34199525H.025985718V.20698548H.2979889V.34199525Z"/>
<path id="font_0_15" d="M.21398926 .1459961H.06399536V0H.21398926V.1459961Z"/>
<path id="font_0_56" d="M.7299957 0 .9319916 .72898867H.772995L.6639862 .18199158 .54599 .72898867H.397995L.2849884 .18299866 .17199707 .72898867H.0129852299L.21899414 0H.35398866L.47299195 .56900027 .59498599 0H.7299957Z"/>
<path id="font_0_66" d="M.5239868 .016998291C.5 .039993287 .49198915 .055999757 .49198915 .08299255V.3829956C.49198915 .49299623 .4169922 .548996 .2709961 .548996 .125 .548996 .04899597 .4869995 .039993287 .3619995H.1749878C.18199158 .41799928 .20498657 .43598939 .27398683 .43598939 .32798768 .43598939 .35499574 .41799928 .35499574 .38198854 .35499574 .3639984 .34599305 .34899903 .33099366 .33999635 .31199647 .32998658 .31199647 .32998658 .24299622 .31900025L.18699646 .30899049C.07998657 .29100038 .027999878 .23599243 .027999878 .13899231 .027999878 .041992189 .09298706-.023010254 .19198609-.023010254 .2519989-.023010254 .30599977 .0019989014 .35598756 .053985597 .35598756 .025985718 .35899354 .015991211 .37199403 0H.5239868V.016998291M.35499574 .21699524C.35499574 .13598633 .31498719 .08999634 .24398804 .08999634 .19699097 .08999634 .16799927 .114990238 .16799927 .15499878 .16799927 .19699097 .18998719 .21699524 .24798584 .22898865L.29599 .23799134C.33299256 .24499512 .33898927 .24699402 .35499574 .25498963V.21699524Z"/>
<path id="font_0_87" d="M.34999085 0 .5359955 .5399933H.3880005L.2789917 .14498902 .1619873 .5399933H.01399231L.20298767 0H.34999085Z"/>
<path id="font_0_73" d="M.066986087 .72898867V0H.20698548V.32398988C.20698548 .38598634 .2519989 .42999269 .31498719 .42999269 .34599305 .42999269 .36898805 .4189911 .3849945 .39698792 .397995 .3789978 .40098573 .3639984 .40098573 .32998658V0H.54100039V.3619995C.54100039 .42900086 .522995 .47698976 .48599244 .5079956 .45498658 .5339966 .4099884 .548996 .36499024 .548996 .29599 .548996 .24598694 .5219879 .20698548 .46199037V.72898867H.066986087Z"/>
<path id="font_0_72" d="M.3999939 .5399933V.45700074C.36099244 .519989 .31799317 .548996 .26098634 .548996 .21299744 .548996 .1599884 .5249939 .12298584 .48599244 .068984989 .42999269 .040985109 .35198976 .040985109 .25698854 .040985109 .09098816 .1289978-.023010254 .2579956-.023010254 .31599427-.023010254 .35099793-.0040130617 .3999939 .054992677V-.018005372C.3999939-.08300781 .35398866-.12800598 .28799439-.12800598 .23799134-.12800598 .20698548-.10600281 .19599915-.06500244H.051986696C.052993776-.10700989 .067993167-.13600159 .10499573-.16600037 .147995-.20100403 .20698548-.21800232 .2829895-.21800232 .43899537-.21800232 .5329895-.14300537 .5329895-.018005372V.5399933H.3999939M.2869873 .43199159C.35299684 .43199159 .4019928 .35899354 .4019928 .25898744 .4019928 .16099549 .35499574 .09399414 .2849884 .09399414 .22399903 .09399414 .18099976 .16099549 .18099976 .25898744 .18099976 .36099244 .22399903 .43199159 .2869873 .43199159Z"/>
<path id="font_0_85" d="M.30099488 .5289917H.22299195V.673996H.08299255V.5289917H.01399231V.43598939H.08299255V.10398865C.08299255 .018997193 .12799073-.023010254 .21998596-.023010254 .2519989-.023010254 .2749939-.020004273 .30099488-.012008667V.085998538C.2869873 .083999637 .27999879 .08299255 .2689972 .08299255 .23199463 .08299255 .22299195 .09399414 .22299195 .14199829V.43598939H.30099488V.5289917Z"/>
<path id="font_0_83" d="M.06298828 .5399933V0H.20298767V.2869873C.20298767 .36898805 .24398804 .4099884 .32598878 .4099884 .34098817 .4099884 .35099793 .40899659 .36999513 .4059906V.5479889C.3619995 .548996 .35899354 .548996 .35299684 .548996 .2889862 .548996 .23399353 .5069885 .20298767 .43399049V.5399933H.06298828Z"/>
<path id="font_0_86" d="M.54100039 0V.5399933H.40098573V.20199585C.40098573 .13798523 .35699464 .09599304 .28799439 .09599304 .22799683 .09599304 .19799805 .12799073 .19799805 .19299317V.5399933H.057998659V.1639862C.057998659 .04399109 .12298584-.023010254 .23899842-.023010254 .31199647-.023010254 .36099244 .0029907227 .40098573 .06399536V0H.54100039Z"/>
<path id="font_0_50" d="M.6649933 .102996829C.71398928 .16299439 .7449951 .2630005 .7449951 .36099244 .7449951 .46798707 .70700076 .57099917 .6429901 .6399994 .5799866 .70799258 .49798585 .7409973 .3939972 .7409973 .2899933 .7409973 .20799256 .70799258 .14498902 .6399994 .07998657 .57099917 .042999269 .46798707 .042999269 .35899354 .042999269 .25 .08099365 .14698792 .14498902 .07798767 .20799256 .009994507 .2899933-.023010254 .3939972-.023010254 .46998597-.023010254 .5249939-.008010864 .58299258 .026992798L.6689911-.054000856 .7449951 .026992798 .6649933 .102996829M.47999574 .27799989 .4039917 .19699097 .48098756 .12399292C.45700074 .11199951 .4249878 .10499573 .3929901 .10499573 .272995 .10499573 .19299317 .20599365 .19299317 .35899354 .19299317 .5130005 .27198792 .61299136 .3939972 .61299136 .5159912 .61299136 .59498599 .5130005 .59498599 .35798646 .59498599 .2979889 .58399966 .24398804 .56199648 .19999695L.47999574 .27799989Z"/>
<path id="font_0_80" d="M.30099488 .548996C.13598633 .548996 .034988405 .43998719 .034988405 .2630005 .034988405 .084991458 .13598633-.023010254 .3019867-.023010254 .46699525-.023010254 .56900027 .084991458 .56900027 .25898744 .56900027 .44198609 .46998597 .548996 .30099488 .548996M.3019867 .43598939C.3789978 .43598939 .42900086 .36698915 .42900086 .26098634 .42900086 .1599884 .3769989 .08999634 .3019867 .08999634 .22599793 .08999634 .1749878 .15899658 .1749878 .2630005 .1749878 .36698915 .22599793 .43598939 .3019867 .43598939Z"/>
<path id="font_0_42" d="M.21299744 .72898867H.06298828V0H.21299744V.72898867Z"/>
<path id="font_0_49" d="M.22599793 .2599945H.41299439C.5469971 .2599945 .6329956 .35499574 .6329956 .5029907 .6329956 .6489868 .5499878 .72898867 .397995 .72898867H.07598877V0H.22599793V.2599945M.22599793 .3849945V.60398867H.3659973C.44599916 .60398867 .48298646 .56900027 .48298646 .49499513 .48298646 .41999818 .44599916 .3849945 .3659973 .3849945H.22599793Z"/>
<path id="font_0_69" d="M.40499879 0H.54499819V.72898867H.40499879V.46998597C.36999513 .5239868 .32398988 .548996 .2559967 .548996 .1269989 .548996 .0289917 .4249878 .0289917 .2619934 .0289917 .18899536 .050994874 .114990238 .08699036 .06298828 .12399292 .009994507 .18998719-.023010254 .2559967-.023010254 .32398988-.023010254 .36999513 .0009918213 .40499879 .054992677V0M.2869873 .43199159C.35798646 .43199159 .40499879 .3639984 .40499879 .2599945 .40499879 .1619873 .35699464 .09399414 .2869873 .09399414 .21699524 .09399414 .16899109 .16299439 .16899109 .2619934 .16899109 .36299134 .21699524 .43199159 .2869873 .43199159Z"/>
<path id="font_0_4" d="M.1459961-.03201294 .18598938 .17199707H.2889862L.24899292-.03201294H.35398866L.3939972 .17199707H.5130005V.2709961H.41299439L.44400025 .42399598H.5529938V.522995H.46299745L.49699403 .69699099H.3919983L.35798646 .522995H.25498963L.2889862 .69699099H.18399048L.1499939 .522995H.0309906V.42399598H.12998963L.099990848 .2709961H.0029907227V.17199707H.07998657L.039993287-.03201294H.1459961M.20498657 .2709961 .23498535 .42399598H.33799745L.30799867 .2709961H.20498657Z"/>
<path id="font_0_24" d="M.5279999 .70899966H.0289917V.58399966H.38198854C.33898927 .5379944 .2539978 .40899659 .22599793 .34700013 .1769867 .24398804 .1519928 .15098572 .1329956 0H.27398683C.2869873 .22399903 .3600006 .3959961 .5279999 .598999V.70899966Z"/>
<path id="font_0_26" d="M.037994386 .16499329C.040985109 .055999757 .1329956-.024002076 .25498963-.024002076 .34599305-.024002076 .4149933 .01399231 .45700074 .085998538 .49398805 .14898682 .5159912 .2559967 .5159912 .36999513 .5159912 .47399903 .5 .55400088 .46699525 .60798647 .42199708 .6839905 .35198976 .723999 .2669983 .723999 .125 .723999 .027999878 .621994 .027999878 .47399903 .027999878 .32798768 .11399841 .22799683 .23999024 .22799683 .27598573 .22799683 .30999757 .23799134 .33198548 .2539978 .34498597 .2630005 .35299684 .27198792 .37599183 .2979889 .37599183 .16099549 .33799745 .09599304 .25898744 .09599304 .20899964 .09599304 .17599488 .12298584 .17298889 .16499329H.037994386M.2630005 .6100006C.33099366 .6100006 .37298585 .55799868 .37298585 .47399903 .37298585 .3959961 .32998658 .34399415 .2649994 .34399415 .20098877 .34399415 .16099549 .3939972 .16099549 .47599793 .16099549 .55799868 .19999695 .6100006 .2630005 .6100006Z"/>
<path id="font_0_6" d="M.20599365 .70098879C.10499573 .70098879 .021987915 .61898806 .021987915 .5189972 .021987915 .4189911 .10499573 .33699037 .20599365 .33699037 .30699159 .33699037 .3899994 .41799928 .3899994 .5169983 .3899994 .6199951 .30899049 .70098879 .20599365 .70098879M.20599365 .60198977C.2539978 .60198977 .29100038 .5649872 .29100038 .5179901 .29100038 .47200013 .25299073 .43499757 .20599365 .43499757 .15899658 .43499757 .12098694 .47200013 .12098694 .5189972 .12098694 .5649872 .15899658 .60198977 .20599365 .60198977M.60598757 .70899966 .20999146-.020004273H.2869873L.6819916 .70899966H.60598757M.67900088 .35198976C.57699587 .35198976 .49499513 .269989 .49499513 .16999817 .49499513 .068984989 .57699587-.013000488 .67900088-.013000488 .7799988-.013000488 .86299136 .068984989 .86299136 .16699219 .86299136 .2709961 .7819977 .35198976 .67900088 .35198976M.67900088 .25299073C.72698977 .25299073 .7639923 .21598816 .7639923 .16799927 .7639923 .12298584 .72499087 .084991458 .67900088 .084991458 .6319885 .084991458 .59399417 .12298584 .59399417 .16899109 .59399417 .21499634 .6319885 .25299073 .67900088 .25299073Z"/>
<path id="font_0_36" d="M.6819916 .48199464C.6769867 .54499819 .6639862 .58499148 .6329956 .6259918 .57699587 .69999697 .4869995 .7409973 .37799073 .7409973 .17199707 .7409973 .04399109 .59399417 .04399109 .35798646 .04399109 .12298584 .17098999-.023010254 .37399293-.023010254 .55599978-.023010254 .6759949 .08198547 .68499758 .24899292H.5389862C.5289917 .1559906 .47099305 .102996829 .37799073 .102996829 .2619934 .102996829 .19400025 .19699097 .19400025 .35598756 .19400025 .5169983 .2649994 .61299136 .3829956 .61299136 .46998597 .61299136 .5189972 .57099917 .5389862 .48199464H.6819916Z"/>
</defs>
<path transform="matrix(.5,0,0,.5,-15.475397,-34.241)" d="M0 0H1120V840H0Z" fill="#ffffff"/>
<path transform="matrix(.5,0,0,.5,-15.475397,-34.241)" d="M73 332.95H507V72.55H73Z" fill="#ffffff"/>
<path transform="matrix(.5,0,0,.5,-15.475397,-34.241)" stroke-width=".5" stroke-linecap="butt" stroke-linejoin="round" fill="none" stroke="#262626" stroke-opacity=".14901962" d="M73 332.95V72.55"/>
<path transform="matrix(.5,0,0,.5,-15.475397,-34.241)" stroke-width=".5" stroke-linecap="butt" stroke-linejoin="round" fill="none" stroke="#262626" stroke-opacity=".14901962" d="M159.8 332.95V72.55"/>
<path transform="matrix(.5,0,0,.5,-15.475397,-34.241)" stroke-width=".5" stroke-linecap="butt" stroke-linejoin="round" fill="none" stroke="#262626" stroke-opacity=".14901962" d="M246.6 332.95V72.55"/>
<path transform="matrix(.5,0,0,.5,-15.475397,-34.241)" stroke-width=".5" stroke-linecap="butt" stroke-linejoin="round" fill="none" stroke="#262626" stroke-opacity=".14901962" d="M333.4 332.95V72.55"/>
<path transform="matrix(.5,0,0,.5,-15.475397,-34.241)" stroke-width=".5" stroke-linecap="butt" stroke-linejoin="round" fill="none" stroke="#262626" stroke-opacity=".14901962" d="M420.2 332.95V72.55"/>
<path transform="matrix(.5,0,0,.5,-15.475397,-34.241)" stroke-width=".5" stroke-linecap="butt" stroke-linejoin="round" fill="none" stroke="#262626" stroke-opacity=".14901962" d="M507 332.95V72.55"/>
<path transform="matrix(.5,0,0,.5,-15.475397,-34.241)" stroke-width=".5" stroke-linecap="butt" stroke-linejoin="round" fill="none" stroke="#262626" stroke-opacity=".14901962" d="M507 332.95H73"/>
<path transform="matrix(.5,0,0,.5,-15.475397,-34.241)" stroke-width=".5" stroke-linecap="butt" stroke-linejoin="round" fill="none" stroke="#262626" stroke-opacity=".14901962" d="M507 289.55H73"/>
<path transform="matrix(.5,0,0,.5,-15.475397,-34.241)" stroke-width=".5" stroke-linecap="butt" stroke-linejoin="round" fill="none" stroke="#262626" stroke-opacity=".14901962" d="M507 246.15H73"/>
<path transform="matrix(.5,0,0,.5,-15.475397,-34.241)" stroke-width=".5" stroke-linecap="butt" stroke-linejoin="round" fill="none" stroke="#262626" stroke-opacity=".14901962" d="M507 202.75H73"/>
<path transform="matrix(.5,0,0,.5,-15.475397,-34.241)" stroke-width=".5" stroke-linecap="butt" stroke-linejoin="round" fill="none" stroke="#262626" stroke-opacity=".14901962" d="M507 159.35H73"/>
<path transform="matrix(.5,0,0,.5,-15.475397,-34.241)" stroke-width=".5" stroke-linecap="butt" stroke-linejoin="round" fill="none" stroke="#262626" stroke-opacity=".14901962" d="M507 115.95H73"/>
<path transform="matrix(.5,0,0,.5,-15.475397,-34.241)" stroke-width=".5" stroke-linecap="butt" stroke-linejoin="round" fill="none" stroke="#262626" stroke-opacity=".14901962" d="M507 72.55H73"/>
<path transform="matrix(.5,0,0,.5,-15.475397,-34.241)" stroke-width=".5" stroke-linecap="square" stroke-linejoin="round" fill="none" stroke="#262626" d="M73 332.95H507"/>
<path transform="matrix(.5,0,0,.5,-15.475397,-34.241)" stroke-width=".5" stroke-linecap="square" stroke-linejoin="round" fill="none" stroke="#262626" d="M73 72.55H507"/>
<path transform="matrix(.5,0,0,.5,-15.475397,-34.241)" stroke-width=".5" stroke-linecap="square" stroke-linejoin="round" fill="none" stroke="#262626" d="M73 332.95V328.61"/>
<path transform="matrix(.5,0,0,.5,-15.475397,-34.241)" stroke-width=".5" stroke-linecap="square" stroke-linejoin="round" fill="none" stroke="#262626" d="M159.8 332.95V328.61"/>
<path transform="matrix(.5,0,0,.5,-15.475397,-34.241)" stroke-width=".5" stroke-linecap="square" stroke-linejoin="round" fill="none" stroke="#262626" d="M246.6 332.95V328.61"/>
<path transform="matrix(.5,0,0,.5,-15.475397,-34.241)" stroke-width=".5" stroke-linecap="square" stroke-linejoin="round" fill="none" stroke="#262626" d="M333.4 332.95V328.61"/>
<path transform="matrix(.5,0,0,.5,-15.475397,-34.241)" stroke-width=".5" stroke-linecap="square" stroke-linejoin="round" fill="none" stroke="#262626" d="M420.2 332.95V328.61"/>
<path transform="matrix(.5,0,0,.5,-15.475397,-34.241)" stroke-width=".5" stroke-linecap="square" stroke-linejoin="round" fill="none" stroke="#262626" d="M507 332.95V328.61"/>
<path transform="matrix(.5,0,0,.5,-15.475397,-34.241)" stroke-width=".5" stroke-linecap="square" stroke-linejoin="round" fill="none" stroke="#262626" d="M73 72.55V76.89"/>
<path transform="matrix(.5,0,0,.5,-15.475397,-34.241)" stroke-width=".5" stroke-linecap="square" stroke-linejoin="round" fill="none" stroke="#262626" d="M159.8 72.55V76.89"/>
<path transform="matrix(.5,0,0,.5,-15.475397,-34.241)" stroke-width=".5" stroke-linecap="square" stroke-linejoin="round" fill="none" stroke="#262626" d="M246.6 72.55V76.89"/>
<path transform="matrix(.5,0,0,.5,-15.475397,-34.241)" stroke-width=".5" stroke-linecap="square" stroke-linejoin="round" fill="none" stroke="#262626" d="M333.4 72.55V76.89"/>
<path transform="matrix(.5,0,0,.5,-15.475397,-34.241)" stroke-width=".5" stroke-linecap="square" stroke-linejoin="round" fill="none" stroke="#262626" d="M420.2 72.55V76.89"/>
<path transform="matrix(.5,0,0,.5,-15.475397,-34.241)" stroke-width=".5" stroke-linecap="square" stroke-linejoin="round" fill="none" stroke="#262626" d="M507 72.55V76.89"/>
<use data-text="0" xlink:href="#font_0_17" transform="matrix(6,0,0,-6,19.274603,140.434)" fill="#262626"/>
<use data-text="5" xlink:href="#font_0_22" transform="matrix(6,0,0,-6,60.924608,140.434)" fill="#262626"/>
<use data-text="0" xlink:href="#font_0_17" transform="matrix(6,0,0,-6,64.260608,140.434)" fill="#262626"/>
<use data-text="1" xlink:href="#font_0_18" transform="matrix(6,0,0,-6,102.57461,140.434)" fill="#262626"/>
<use data-text="0" xlink:href="#font_0_17" transform="matrix(6,0,0,-6,105.91061,140.434)" fill="#262626"/>
<use data-text="0" xlink:href="#font_0_17" transform="matrix(6,0,0,-6,109.24661,140.434)" fill="#262626"/>
<use data-text="1" xlink:href="#font_0_18" transform="matrix(6,0,0,-6,145.9746,140.434)" fill="#262626"/>
<use data-text="5" xlink:href="#font_0_22" transform="matrix(6,0,0,-6,149.3106,140.434)" fill="#262626"/>
<use data-text="0" xlink:href="#font_0_17" transform="matrix(6,0,0,-6,152.64659,140.434)" fill="#262626"/>
<use data-text="2" xlink:href="#font_0_19" transform="matrix(6,0,0,-6,189.3746,140.434)" fill="#262626"/>
<use data-text="0" xlink:href="#font_0_17" transform="matrix(6,0,0,-6,192.7106,140.434)" fill="#262626"/>
<use data-text="0" xlink:href="#font_0_17" transform="matrix(6,0,0,-6,196.0466,140.434)" fill="#262626"/>
<use data-text="2" xlink:href="#font_0_19" transform="matrix(6,0,0,-6,232.7746,140.434)" fill="#262626"/>
<use data-text="5" xlink:href="#font_0_22" transform="matrix(6,0,0,-6,236.1106,140.434)" fill="#262626"/>
<use data-text="0" xlink:href="#font_0_17" transform="matrix(6,0,0,-6,239.4466,140.434)" fill="#262626"/>
<use data-text="T" xlink:href="#font_0_53" transform="matrix(6.6,0,0,-6.6,117.024707,148.934)" fill="#262626"/>
<use data-text="i" xlink:href="#font_0_74" transform="matrix(6.6,0,0,-6.6,121.057308,148.934)" fill="#262626"/>
<use data-text="m" xlink:href="#font_0_78" transform="matrix(6.6,0,0,-6.6,122.892108,148.934)" fill="#262626"/>
<use data-text="e" xlink:href="#font_0_70" transform="matrix(6.6,0,0,-6.6,128.7595,148.934)" fill="#262626"/>
<use data-text=" " xlink:href="#font_0_1" transform="matrix(6.6,0,0,-6.6,132.42911,148.934)" fill="#262626"/>
<use data-text="(" xlink:href="#font_0_9" transform="matrix(6.6,0,0,-6.6,134.2639,148.934)" fill="#262626"/>
<use data-text="s" xlink:href="#font_0_84" transform="matrix(6.6,0,0,-6.6,136.4617,148.934)" fill="#262626"/>
<use data-text=")" xlink:href="#font_0_10" transform="matrix(6.6,0,0,-6.6,140.1313,148.934)" fill="#262626"/>
<path transform="matrix(.5,0,0,.5,-15.475397,-34.241)" stroke-width=".5" stroke-linecap="square" stroke-linejoin="round" fill="none" stroke="#262626" d="M73 332.95V72.55"/>
<path transform="matrix(.5,0,0,.5,-15.475397,-34.241)" stroke-width=".5" stroke-linecap="square" stroke-linejoin="round" fill="none" stroke="#262626" d="M507 332.95V72.55"/>
<path transform="matrix(.5,0,0,.5,-15.475397,-34.241)" stroke-width=".5" stroke-linecap="square" stroke-linejoin="round" fill="none" stroke="#262626" d="M73 332.95H77.34"/>
<path transform="matrix(.5,0,0,.5,-15.475397,-34.241)" stroke-width=".5" stroke-linecap="square" stroke-linejoin="round" fill="none" stroke="#262626" d="M73 289.55H77.34"/>
<path transform="matrix(.5,0,0,.5,-15.475397,-34.241)" stroke-width=".5" stroke-linecap="square" stroke-linejoin="round" fill="none" stroke="#262626" d="M73 246.15H77.34"/>
<path transform="matrix(.5,0,0,.5,-15.475397,-34.241)" stroke-width=".5" stroke-linecap="square" stroke-linejoin="round" fill="none" stroke="#262626" d="M73 202.75H77.34"/>
<path transform="matrix(.5,0,0,.5,-15.475397,-34.241)" stroke-width=".5" stroke-linecap="square" stroke-linejoin="round" fill="none" stroke="#262626" d="M73 159.35H77.34"/>
<path transform="matrix(.5,0,0,.5,-15.475397,-34.241)" stroke-width=".5" stroke-linecap="square" stroke-linejoin="round" fill="none" stroke="#262626" d="M73 115.95H77.34"/>
<path transform="matrix(.5,0,0,.5,-15.475397,-34.241)" stroke-width=".5" stroke-linecap="square" stroke-linejoin="round" fill="none" stroke="#262626" d="M73 72.55H77.34"/>
<path transform="matrix(.5,0,0,.5,-15.475397,-34.241)" stroke-width=".5" stroke-linecap="square" stroke-linejoin="round" fill="none" stroke="#262626" d="M507 332.95H502.66"/>
<path transform="matrix(.5,0,0,.5,-15.475397,-34.241)" stroke-width=".5" stroke-linecap="square" stroke-linejoin="round" fill="none" stroke="#262626" d="M507 289.55H502.66"/>
<path transform="matrix(.5,0,0,.5,-15.475397,-34.241)" stroke-width=".5" stroke-linecap="square" stroke-linejoin="round" fill="none" stroke="#262626" d="M507 246.15H502.66"/>
<path transform="matrix(.5,0,0,.5,-15.475397,-34.241)" stroke-width=".5" stroke-linecap="square" stroke-linejoin="round" fill="none" stroke="#262626" d="M507 202.75H502.66"/>
<path transform="matrix(.5,0,0,.5,-15.475397,-34.241)" stroke-width=".5" stroke-linecap="square" stroke-linejoin="round" fill="none" stroke="#262626" d="M507 159.35H502.66"/>
<path transform="matrix(.5,0,0,.5,-15.475397,-34.241)" stroke-width=".5" stroke-linecap="square" stroke-linejoin="round" fill="none" stroke="#262626" d="M507 115.95H502.66"/>
<path transform="matrix(.5,0,0,.5,-15.475397,-34.241)" stroke-width=".5" stroke-linecap="square" stroke-linejoin="round" fill="none" stroke="#262626" d="M507 72.55H502.66"/>
<use data-text="-" xlink:href="#font_0_14" transform="matrix(6,0,0,-6,12.824602,134.48401)" fill="#262626"/>
<use data-text="1" xlink:href="#font_0_18" transform="matrix(6,0,0,-6,14.822602,134.48401)" fill="#262626"/>
<use data-text="-" xlink:href="#font_0_14" transform="matrix(6,0,0,-6,7.824602,112.78399)" fill="#262626"/>
<use data-text="0" xlink:href="#font_0_17" transform="matrix(6,0,0,-6,9.822602,112.78399)" fill="#262626"/>
<use data-text="." xlink:href="#font_0_15" transform="matrix(6,0,0,-6,13.158603,112.78399)" fill="#262626"/>
<use data-text="5" xlink:href="#font_0_22" transform="matrix(6,0,0,-6,14.826603,112.78399)" fill="#262626"/>
<use data-text="0" xlink:href="#font_0_17" transform="matrix(6,0,0,-6,15.324602,91.08399)" fill="#262626"/>
<use data-text="0" xlink:href="#font_0_17" transform="matrix(6,0,0,-6,10.324602,69.383998)" fill="#262626"/>
<use data-text="." xlink:href="#font_0_15" transform="matrix(6,0,0,-6,13.660603,69.383998)" fill="#262626"/>
<use data-text="5" xlink:href="#font_0_22" transform="matrix(6,0,0,-6,15.328603,69.383998)" fill="#262626"/>
<use data-text="1" xlink:href="#font_0_18" transform="matrix(6,0,0,-6,15.324602,47.684003)" fill="#262626"/>
<use data-text="1" xlink:href="#font_0_18" transform="matrix(6,0,0,-6,10.324602,25.983998)" fill="#262626"/>
<use data-text="." xlink:href="#font_0_15" transform="matrix(6,0,0,-6,13.660603,25.983998)" fill="#262626"/>
<use data-text="5" xlink:href="#font_0_22" transform="matrix(6,0,0,-6,15.328603,25.983998)" fill="#262626"/>
<use data-text="2" xlink:href="#font_0_19" transform="matrix(6,0,0,-6,15.324602,4.2840006)" fill="#262626"/>
<use data-text="W" xlink:href="#font_0_56" transform="matrix(-.00000028050003,-6.6,-6.6,.00000028050003,4.824603,92.383937)" fill="#262626"/>
<use data-text="a" xlink:href="#font_0_66" transform="matrix(-.00000028050003,-6.6,-6.6,.00000028050003,4.824603,86.153537)" fill="#262626"/>
<use data-text="v" xlink:href="#font_0_87" transform="matrix(-.00000028050003,-6.6,-6.6,.00000028050003,4.8246028,82.48393)" fill="#262626"/>
<use data-text="e" xlink:href="#font_0_70" transform="matrix(-.00000028050003,-6.6,-6.6,.00000028050003,4.8246028,78.81433)" fill="#262626"/>
<use data-text=" " xlink:href="#font_0_1" transform="matrix(-.00000028050003,-6.6,-6.6,.00000028050003,4.8246028,75.14473)" fill="#262626"/>
<use data-text="h" xlink:href="#font_0_73" transform="matrix(-.00000028050003,-6.6,-6.6,.00000028050003,4.824602,73.30993)" fill="#262626"/>
<use data-text="e" xlink:href="#font_0_70" transform="matrix(-.00000028050003,-6.6,-6.6,.00000028050003,4.824602,69.27733)" fill="#262626"/>
<use data-text="i" xlink:href="#font_0_74" transform="matrix(-.00000028050003,-6.6,-6.6,.00000028050003,4.824602,65.607738)" fill="#262626"/>
<use data-text="g" xlink:href="#font_0_72" transform="matrix(-.00000028050003,-6.6,-6.6,.00000028050003,4.824602,63.772935)" fill="#262626"/>
<use data-text="h" xlink:href="#font_0_73" transform="matrix(-.00000028050003,-6.6,-6.6,.00000028050003,4.8246018,59.740335)" fill="#262626"/>
<use data-text="t" xlink:href="#font_0_85" transform="matrix(-.00000028050003,-6.6,-6.6,.00000028050003,4.8246018,55.707735)" fill="#262626"/>
<use data-text=" " xlink:href="#font_0_1" transform="matrix(-.00000028050003,-6.6,-6.6,.00000028050003,4.8246018,53.509935)" fill="#262626"/>
<use data-text="(" xlink:href="#font_0_9" transform="matrix(-.00000028050003,-6.6,-6.6,.00000028050003,4.824601,51.675134)" fill="#262626"/>
<use data-text="m" xlink:href="#font_0_78" transform="matrix(-.00000028050003,-6.6,-6.6,.00000028050003,4.824601,49.477334)" fill="#262626"/>
<use data-text=")" xlink:href="#font_0_10" transform="matrix(-.00000028050003,-6.6,-6.6,.00000028050003,4.824601,43.609933)" fill="#262626"/>
<path transform="matrix(.5,0,0,.5,-15.475397,-34.241)" stroke-width="2.5" stroke-linecap="butt" stroke-dasharray="2,2" stroke-linejoin="bevel" fill="none" stroke="#000000" d="M74.736 246.15H76.472 78.208 79.944 81.68 83.416 85.152 86.888 88.624 90.36 92.096 93.832 95.568 97.304 99.04 100.776 102.512 104.248 105.984 107.72 109.456 111.192 112.928 114.664 116.4 118.136L119.872 246.14984 121.608 246.15004 123.344 246.1719 125.08 246.22332 126.816 246.30794 128.552 246.35625 130.288 246.33797 132.024 246.3638 133.76 246.45075 135.496 246.4713 137.232 246.38237 138.968 246.35428 140.704 246.46204 142.44 246.59804 144.176 246.71417 145.912 246.98712 147.648 247.5108 149.384 248.06529 151.12 248.46273 152.856 248.74799 154.592 248.91394 156.328 248.91794 158.064 248.70539 159.8 248.19202 161.536 247.57656 163.272 247.73744 165.008 248.71031 166.744 249.31444 168.48 249.40592 170.216 250.05268 171.952 252.30852 173.688 255.09049 175.424 256.00474 177.16 254.63924 178.896 253.42797 180.632 256.19065 182.368 260.9235 184.104 261.92469 185.84 258.7066 187.576 252.97708 189.312 248.52312 191.048 248.69216 192.784 243.67675 194.52 234.97298 196.256 234.33669 197.992 229.93816 199.728 216.20328 201.464 211.87622 203.2 217.68027 204.936 215.45612 206.672 210.16938 208.408 202.3278 210.144 174.46387 211.88 125.4535 213.616 86.96752 215.352 113.87753 217.088 158.69568 218.824 164.19844 220.56 159.17752 222.296 150.57968 224.032 164.85979 225.768 191.45652 227.504 188.1869 229.24 155.97702 230.976 142.83248 232.712 157.37197 234.448 172.12822 236.184 179.11582 237.92 168.50826 239.656 160.24558 241.392 163.93494 243.128 174.20915 244.864 163.84896 246.6 158.06925 248.336 174.93256 250.072 172.35878 251.808 162.34673 253.544 162.83081 255.28 174.6711 257.016 164.92838 258.752 161.24544 260.488 166.21079 262.224 163.39305 263.96 160.6511 265.696 162.27198 267.432 164.55233 269.168 157.18529 270.904 165.6311 272.64 171.42317 274.376 152.09146 276.112 155.58956 277.848 167.47066 279.584 161.64304 281.32 162.73754 283.056 163.27518 284.792 155.35366 286.528 159.78633 288.264 173.24486 290 160.21218 291.736 145.54938 293.472 169.52614 295.208 180.9687 296.944 152.12807 298.68 142.11638 300.416 176.43682 302.152 175.22446 303.888 148.78842 305.624 150.84467 307.36 171.73288 309.096 171.36295 310.832 157.57602 312.568 156.72509 314.304 161.13616 316.04 168.5229 317.776 166.77437 319.512 159.45619 321.248 158.71724 322.984 167.2787 324.72 170.09978 326.456 159.66614 328.192 156.29532 329.928 163.70056 331.664 175.35518 333.4 166.28694 335.136 154.65134 336.872 166.41526 338.608 168.3256 340.344 161.89258 342.08 165.11429 343.816 170.4321 345.552 166.47626 347.288 164.9612 349.024 165.73332 350.76 168.98818 352.496 168.85549 354.232 166.61026 355.968 169.1452 357.704 171.34459 359.44 169.50461 361.176 170.45206 362.912 173.54886 364.648 170.69705 366.384 173.62363 368.12 176.2042 369.856 168.96906 371.592 169.26183 373.328 179.96266 375.064 178.61988 376.8 164.95653 378.536 170.19589 380.272 182.90923 382.008 178.02927 383.744 164.81342 385.48 173.19548 387.216 188.7075 388.952 180.89104 390.688 170.95806 392.424 178.28107 394.16 183.61663 395.896 179.60314 397.632 178.9631 399.368 182.06279 401.104 181.75926 402.84 180.90213 404.576 183.01583 406.312 183.38542 408.048 179.64081 409.784 181.04433 411.52 190.97963 413.256 183.21634 414.992 177.38338 416.728 189.10507 418.464 194.42833 420.2 184.40976 421.936 178.65345 423.672 189.90163 425.408 193.77799 427.144 182.98572 428.88 188.37239 430.616 191.88927 432.352 193.0329 434.088 191.82044 435.824 190.3061 437.56 189.35123 439.296 190.47708 441.032 199.18108 442.768 197.0382 444.504 187.28603 446.24 188.77123 447.976 202.21302 449.712 204.2948 451.448 191.11716 453.184 188.09827 454.92 203.0992 456.656 203.6039 458.392 190.05474 460.128 190.75792 461.864 207.69684 463.6 205.76654 465.336 190.65952 467.072 194.29946 468.808 207.7371 470.544 205.78658 472.28 194.26137 474.016 196.797 475.752 206.9773 477.488 204.83744 479.224 194.48548 480.96 198.53409 482.696 207.53189 484.432 202.9133 486.168 197.93523 487.904 201.96154 489.64 205.64415"/>
<path transform="matrix(.5,0,0,.5,-15.475397,-34.241)" stroke-width="2" stroke-linecap="butt" stroke-linejoin="round" fill="none" stroke="#d95319" d="M74.736 246.14745 76.472 245.87052 78.208 244.72884 79.944 243.96802 81.68 244.37844 83.416 245.01564 85.152 245.6505 86.888 245.394 88.624 246.87728 90.36 247.9756 92.096 246.58911 93.832 245.1603 95.568 246.76663 97.304 248.4485 99.04 245.44277 100.776 240.37368 102.512 241.27994 104.248 248.02976 105.984 250.33899 107.72 247.86623 109.456 243.0184 111.192 242.87485 112.928 244.92537 114.664 246.6849 116.4 245.98343 118.136 242.67584 119.872 242.09568 121.608 241.9869 123.344 245.05567 125.08 250.48737 126.816 252.43399 128.552 247.93206 130.288 242.6388 132.024 241.26407 133.76 243.42784 135.496 245.25196 137.232 246.3253 138.968 247.96595 140.704 252.95717 142.44 254.74594 144.176 248.13848 145.912 239.20764 147.648 236.98896 149.384 243.24835 151.12 249.13048 152.856 252.62599 154.592 250.94126 156.328 247.7951 158.064 246.48223 159.8 250.31295 161.536 249.99739 163.272 248.07178 165.008 248.52033 166.744 245.97168 168.48 246.26845 170.216 246.77738 171.952 248.63582 173.688 250.00911 175.424 256.20555 177.16 266.2537 178.896 265.81178 180.632 250.01432 182.368 243.90927 184.104 264.09999 185.84 277.2572 187.576 259.33988 189.312 243.18288 191.048 257.7354 192.784 258.75184 194.52 225.82982 196.256 204.82796 197.992 217.75849 199.728 232.00531 201.464 218.38057 203.2 204.11772 204.936 199.27812 206.672 203.3129 208.408 215.95465 210.144 184.08013 211.88 127.48813 213.616 131.11612 215.352 177.4291 217.088 185.72808 218.824 145.19046 220.56 111.943759 222.296 126.24673 224.032 170.10807 225.768 188.36296 227.504 182.73235 229.24 174.28902 230.976 158.76399 232.712 157.2293 234.448 173.30318 236.184 174.13143 237.92 158.81459 239.656 154.68997 241.392 161.01514 243.128 166.52858 244.864 166.58518 246.6 170.2464 248.336 181.6752 250.072 175.78449 251.808 169.3624 253.544 164.53287 255.28 156.57663 257.016 154.9723 258.752 165.56348 260.488 177.98314 262.224 169.89658 263.96 159.51062 265.696 159.77155 267.432 151.99103 269.168 143.75342 270.904 156.7114 272.64 172.87728 274.376 161.90451 276.112 156.62111 277.848 164.26955 279.584 160.89694 281.32 147.4606 283.056 149.91925 284.792 156.4062 286.528 158.2478 288.264 164.20835 290 149.3479 291.736 140.37967 293.472 169.16594 295.208 175.05048 296.944 144.79759 298.68 141.42549 300.416 179.92137 302.152 181.5498 303.888 150.16349 305.624 151.48519 307.36 175.42736 309.096 170.78369 310.832 151.62203 312.568 152.97428 314.304 161.5111 316.04 165.69394 317.776 174.75563 319.512 188.5922 321.248 181.64833 322.984 164.89488 324.72 155.16164 326.456 155.58153 328.192 166.86794 329.928 174.59809 331.664 181.30112 333.4 175.29225 335.136 163.70395 336.872 162.54413 338.608 165.04944 340.344 168.42398 342.08 172.09774 343.816 172.93149 345.552 167.90309 347.288 158.92212 349.024 166.47295 350.76 183.03179 352.496 174.78345 354.232 156.75128 355.968 166.50798 357.704 184.96466 359.44 181.7402 361.176 175.5355 362.912 182.98714 364.648 182.18721 366.384 169.0612 368.12 174.28284 369.856 179.42488 371.592 172.76688 373.328 175.46407 375.064 180.20157 376.8 176.61296 378.536 183.27222 380.272 188.55637 382.008 177.89519 383.744 165.32898 385.48 178.84683 387.216 199.0778 388.952 192.1932 390.688 167.10015 392.424 170.46395 394.16 195.98123 395.896 198.95709 397.632 181.62017 399.368 168.70876 401.104 173.8191 402.84 184.8857 404.576 199.84076 406.312 199.57347 408.048 188.80077 409.784 180.58032 411.52 185.23989 413.256 201.47664 414.992 193.87928 416.728 174.42482 418.464 170.65631 420.2 192.53095 421.936 199.83885 423.672 190.4634 425.408 180.7565 427.144 172.51709 428.88 181.16754 430.616 199.19814 432.352 219.25876 434.088 210.32552 435.824 184.55248 437.56 176.47005 439.296 176.06026 441.032 186.43935 442.768 198.94652 444.504 198.47135 446.24 197.01505 447.976 207.21303 449.712 214.7584 451.448 195.54714 453.184 189.42711 454.92 205.16036 456.656 208.81099 458.392 199.91567 460.128 202.03324 461.864 211.81444 463.6 202.63729 465.336 185.78339 467.072 200.75583 468.808 221.5189 470.544 211.71883 472.28 191.25269 474.016 197.82373 475.752 228.75817 477.488 226.16353 479.224 202.98775 480.96 203.6491 482.696 226.42612 484.432 237.08499 486.168 224.08969 487.904 208.90949 489.64 222.45809"/>
<path transform="matrix(.5,0,0,.5,-15.475397,-34.241)" d="M93.832 236.28446 92.096 238.08533 90.36 239.96784 88.624 239.36879 86.888 238.44492 85.152 239.51172 83.416 239.60585 81.68 239.37172 79.944 239.66077 78.208 241.35259 76.472 243.91722 74.736 246.13326V246.16164L76.472 247.82382 78.208 248.1051 79.944 248.27527 81.68 249.38513 83.416 250.42545 85.152 251.78929 86.888 252.34308 88.624 254.38578 90.36 255.98336 92.096 255.09288 93.832 254.03615 95.568 256.08778 97.304 258.20726 99.04 255.58702 100.776 250.90203 102.512 252.13248 104.248 259.25447 105.984 261.86058 107.72 259.75373 109.456 255.24863 111.192 255.40273 112.928 257.76219 114.664 259.80397 116.4 259.37028 118.136 256.32749 119.872 256.00434 121.608 256.14225 123.344 259.45008 125.08 265.1022 126.816 267.2493 128.552 262.93687 130.288 257.82505 132.024 256.61357 133.76 258.9589 135.496 260.9415 137.232 262.18217 138.968 263.9693 140.704 269.09428 142.44 271.0139 144.176 264.5159 145.912 255.70038 147.648 253.58634 149.384 259.95027 151.12 265.9319 152.856 269.5155 154.592 267.9143 156.328 264.85319 158.064 263.62287 159.8 267.52644 161.536 267.28984 163.272 265.43656 165.008 265.96104 166.744 263.49064 168.48 263.85826 170.216 264.43995 171.952 266.37623 173.688 267.82173 175.424 274.08244 177.16 284.2007 178.896 283.8314 180.632 268.09849 182.368 262.0543 184.104 282.30726 185.84 295.5279 187.576 277.67488 189.312 261.5854 191.048 276.203 192.784 277.28224 194.52 244.4289 196.256 223.49539 197.992 236.49394 199.728 250.80983 201.464 237.25226 203.2 223.0595 204.936 218.29514 206.672 222.41613 208.408 235.1377 210.144 203.3359 211.88 146.81983 213.616 150.5327 215.352 196.92989 217.088 205.31264 218.824 164.85259 220.56 131.68245 222.296 146.0622 224.032 189.99887 225.768 208.33153 227.504 202.77922 229.24 194.41997 230.976 178.97524 232.712 177.51975 234.448 193.67247 236.184 194.58525 237.92 179.35634 239.656 175.31027 241.392 181.7202 243.128 187.31328 244.864 187.454 246.6 191.20307 248.336 202.7234 250.072 196.92601 251.808 190.59038 253.544 185.85512 255.28 177.98868 257.016 176.47222 258.752 187.15352 260.488 199.66466 262.224 191.6651 263.96 181.37017 265.696 181.71591 267.432 174.01882 269.168 165.85845 270.904 178.90184 272.64 195.15097 274.376 184.265 276.112 179.06864 277.848 186.80318 279.584 183.51593 281.32 170.15807 283.056 172.69577 284.792 179.26326 286.528 181.18987 288.264 187.23654 290 172.46379 291.736 163.57802 293.472 192.4419 295.208 198.40259 296.944 168.22629 298.68 164.93468 300.416 203.51322 302.152 205.22364 303.888 173.91378 305.624 175.31496 307.36 199.33698 309.096 194.77529 310.832 175.69385 312.568 177.12242 314.304 185.73154 316.04 189.9837 317.776 199.1158 319.512 213.0208 321.248 206.14734 322.984 189.46155 324.72 179.79659 326.456 180.28472 328.192 191.6455 329.928 199.44655 331.664 206.21886 333.4 200.27481 335.136 188.75563 336.872 187.66718 338.608 190.24887 340.344 193.69855 342.08 197.4419 343.816 198.34552 345.552 193.38869 347.288 184.48236 349.024 192.10417 350.76 208.73177 352.496 200.5515 354.232 182.59108 355.968 192.42844 357.704 210.96253 359.44 207.81311 361.176 201.67482 362.912 209.1999 364.648 208.47672 366.384 195.42522 368.12 200.72324 369.856 205.93866 371.592 199.36005 373.328 202.12979 375.064 206.94025 376.8 203.43795 378.536 210.20178 380.272 215.59514 382.008 205.05045 383.744 192.59041 385.48 206.20644 387.216 226.53466 388.952 219.75412 390.688 194.77751 392.424 198.26342 394.16 223.91782 395.896 227.02855 397.632 209.82146 399.368 197.03342 401.104 202.2736 402.84 213.476 404.576 228.58014 406.312 228.46334 408.048 217.84528 409.784 209.78635 411.52 214.62519 413.256 231.04563 414.992 223.63555 416.728 204.39554 418.464 200.83354 420.2 222.93695 421.936 230.46662 423.672 221.29334 425.408 211.8191 427.144 203.80986 428.88 212.68547 430.616 230.93412 432.352 251.2044 434.088 242.53018 435.824 216.99124 437.56 209.12454 439.296 208.92343 441.032 219.49881 442.768 232.27333 444.504 232.02034 446.24 230.81366 447.976 241.26016 449.712 249.01909 451.448 230.00687 453.184 224.20552 454.92 240.24161 456.656 244.24787 458.392 235.56884 460.128 237.93175 461.864 248.10575 463.6 239.3656 465.336 222.87021 467.072 238.28775 468.808 259.64314 470.544 250.3234 472.28 230.3937 474.016 237.59671 475.752 269.18077 477.488 266.94508 479.224 244.25153 480.96 246.09523 482.696 269.77967 484.432 280.8545 486.168 268.6851 487.904 255.69135 489.64 269.89216V175.024L487.904 162.12764 486.168 179.4943 484.432 193.31548 482.696 183.07254 480.96 161.20294 479.224 161.72396 477.488 185.38199 475.752 188.33559 474.016 158.05075 472.28 152.11165 470.544 173.11425 468.808 183.39467 467.072 163.22389 465.336 148.69658 463.6 165.90897 461.864 175.52313 460.128 166.13472 458.392 164.2625 456.656 173.3741 454.92 170.07912 453.184 154.64868 451.448 161.0874 449.712 180.49771 447.976 173.16588 446.24 163.21645 444.504 164.92234 442.768 165.6197 441.032 153.37989 439.296 143.1971 437.56 143.81554 435.824 152.1137 434.088 178.12085 432.352 187.31311 430.616 167.46215 428.88 149.6496 427.144 141.2243 425.408 149.6939 423.672 159.63346 421.936 169.21109 420.2 162.12496 418.464 140.47908 416.728 144.45409 414.992 164.123 413.256 171.90764 411.52 155.8546 409.784 151.3743 408.048 159.75626 406.312 170.68361 404.576 171.10137 402.84 156.29541 401.104 145.36461 399.368 140.38408 397.632 153.41886 395.896 170.88562 394.16 168.04463 392.424 142.66448 390.688 139.42278 388.952 164.6323 387.216 171.62094 385.48 151.48723 383.744 138.06752 382.008 150.73993 380.272 161.51761 378.536 156.34265 376.8 149.78797 375.064 153.46289 373.328 148.79834 371.592 146.17372 369.856 152.91109 368.12 147.84244 366.384 142.6972 364.648 155.89772 362.912 156.77436 361.176 149.3962 359.44 155.66728 357.704 158.96683 355.968 140.58754 354.232 130.91147 352.496 149.0154 350.76 157.3318 349.024 140.84172 347.288 133.3619 345.552 142.4175 343.816 147.51747 342.08 146.75357 340.344 143.1494 338.608 139.84999 336.872 137.42108 335.136 138.65227 333.4 150.30968 331.664 156.38338 329.928 149.74964 328.192 142.0904 326.456 130.87834 324.72 130.52667 322.984 140.3282 321.248 157.1493 319.512 164.1636 317.776 150.39545 316.04 141.40418 314.304 137.29065 312.568 128.82611 310.832 127.55019 309.096 146.7921 307.36 151.51773 305.624 127.6554 303.888 126.41319 302.152 157.87599 300.416 156.32953 298.68 117.91631 296.944 121.368907 295.208 151.69837 293.472 145.88997 291.736 117.18131 290 126.23201 288.264 141.18015 286.528 135.30573 284.792 133.54915 283.056 127.14272 281.32 124.763149 279.584 138.27796 277.848 141.7359 276.112 134.1736 274.376 139.544 272.64 150.60358 270.904 134.52095 269.168 121.64841 267.432 129.96324 265.696 137.82718 263.96 137.65106 262.224 148.12805 260.488 156.30164 258.752 143.97345 257.016 133.47238 255.28 135.16457 253.544 143.2106 251.808 148.1344 250.072 154.64296 248.336 160.62702 246.6 149.28972 244.864 145.71636 243.128 145.74388 241.392 140.31006 239.656 134.06967 237.92 138.27283 236.184 153.67761 234.448 152.93387 232.712 136.93886 230.976 138.55277 229.24 154.15808 227.504 162.68547 225.768 168.3944 224.032 150.21724 222.296 106.43125 220.56 92.20508 218.824 125.52836 217.088 166.1435 215.352 157.92832 213.616 111.69955 211.88 108.15645 210.144 164.82434 208.408 196.7716 206.672 184.20966 204.936 180.26111 203.2 185.17594 201.464 199.50891 199.728 213.20079 197.992 199.02303 196.256 186.16053 194.52 207.23075 192.784 240.22142 191.048 239.26779 189.312 224.78037 187.576 241.00487 185.84 258.9865 184.104 245.8927 182.368 225.76427 180.632 231.93015 178.896 247.79215 177.16 248.30664 175.424 238.32865 173.688 232.19649 171.952 230.8954 170.216 229.11483 168.48 228.67868 166.744 228.45272 165.008 231.0796 163.272 230.70699 161.536 232.70494 159.8 233.09946 158.064 229.34159 156.328 230.73702 154.592 233.9682 152.856 235.7365 151.12 232.32909 149.384 226.54644 147.648 220.39156 145.912 222.71489 144.176 231.76103 142.44 238.478 140.704 236.82006 138.968 231.9626 137.232 230.46845 135.496 229.56241 133.76 227.89679 132.024 225.91458 130.288 227.45256 128.552 232.92725 126.816 237.61872 125.08 235.87253 123.344 230.66124 121.608 227.83153 119.872 228.18703 118.136 229.0242 116.4 232.59662 114.664 233.56584 112.928 232.08856 111.192 230.34696 109.456 230.78818 107.72 235.97872 105.984 238.8174 104.248 236.80506 102.512 230.4274 100.776 229.84532 99.04 235.29851 97.304 238.68975 95.568 237.4455Z" fill="#bf5700" fill-opacity=".14901962"/>
<path transform="matrix(.5,0,0,.5,-15.475397,-34.241)" d="M499 325V279.5H394.5V325Z" fill="#ffffff"/>
<use data-text="T" xlink:href="#font_0_53" transform="matrix(5.4,0,0,-5.4,200.2746,111.883998)"/>
<use data-text="r" xlink:href="#font_0_83" transform="matrix(5.4,0,0,-5.4,203.57399,111.883998)"/>
<use data-text="u" xlink:href="#font_0_86" transform="matrix(5.4,0,0,-5.4,205.67459,111.883998)"/>
<use data-text="e" xlink:href="#font_0_70" transform="matrix(5.4,0,0,-5.4,208.974,111.883998)"/>
<use data-text=" " xlink:href="#font_0_1" transform="matrix(5.4,0,0,-5.4,211.9764,111.883998)"/>
<use data-text="Q" xlink:href="#font_0_50" transform="matrix(5.4,0,0,-5.4,213.4776,111.883998)"/>
<use data-text="o" xlink:href="#font_0_80" transform="matrix(5.4,0,0,-5.4,217.6788,111.883998)"/>
<use data-text="I" xlink:href="#font_0_42" transform="matrix(5.4,0,0,-5.4,220.9782,111.883998)"/>
<use data-text="s" xlink:href="#font_0_84" transform="matrix(5.4,0,0,-5.4,222.4794,111.883998)"/>
<path transform="matrix(.5,0,0,.5,-15.475397,-34.241)" stroke-width="2.5" stroke-linecap="butt" stroke-dasharray="2,2" stroke-linejoin="bevel" fill="none" stroke="#000000" d="M398.5 288.25H428.5"/>
<use data-text="P" xlink:href="#font_0_49" transform="matrix(5.4,0,0,-5.4,200.2746,118.883998)"/>
<use data-text="r" xlink:href="#font_0_83" transform="matrix(5.4,0,0,-5.4,203.8764,118.883998)"/>
<use data-text="e" xlink:href="#font_0_70" transform="matrix(5.4,0,0,-5.4,205.977,118.883998)"/>
<use data-text="d" xlink:href="#font_0_69" transform="matrix(5.4,0,0,-5.4,208.9794,118.883998)"/>
<use data-text="." xlink:href="#font_0_15" transform="matrix(5.4,0,0,-5.4,212.2788,118.883998)"/>
<use data-text=" " xlink:href="#font_0_1" transform="matrix(5.4,0,0,-5.4,213.78,118.883998)"/>
<use data-text="Q" xlink:href="#font_0_50" transform="matrix(5.4,0,0,-5.4,215.2812,118.883998)"/>
<use data-text="o" xlink:href="#font_0_80" transform="matrix(5.4,0,0,-5.4,219.48239,118.883998)"/>
<use data-text="I" xlink:href="#font_0_42" transform="matrix(5.4,0,0,-5.4,222.7818,118.883998)"/>
<use data-text=" " xlink:href="#font_0_1" transform="matrix(5.4,0,0,-5.4,224.283,118.883998)"/>
<use data-text="#" xlink:href="#font_0_4" transform="matrix(5.4,0,0,-5.4,225.7842,118.883998)"/>
<use data-text="7" xlink:href="#font_0_24" transform="matrix(5.4,0,0,-5.4,228.78659,118.883998)"/>
<path transform="matrix(.5,0,0,.5,-15.475397,-34.241)" stroke-width="2" stroke-linecap="butt" stroke-linejoin="round" fill="none" stroke="#d95319" d="M398.5 302.25H428.5"/>
<use data-text="9" xlink:href="#font_0_26" transform="matrix(5.4,0,0,-5.4,200.2746,125.883998)"/>
<use data-text="5" xlink:href="#font_0_22" transform="matrix(5.4,0,0,-5.4,203.277,125.883998)"/>
<use data-text="%" xlink:href="#font_0_6" transform="matrix(5.4,0,0,-5.4,206.2794,125.883998)"/>
<use data-text=" " xlink:href="#font_0_1" transform="matrix(5.4,0,0,-5.4,211.08,125.883998)"/>
<use data-text="C" xlink:href="#font_0_36" transform="matrix(5.4,0,0,-5.4,212.58119,125.883998)"/>
<use data-text="I" xlink:href="#font_0_42" transform="matrix(5.4,0,0,-5.4,216.48,125.883998)"/>
<use data-text="s" xlink:href="#font_0_84" transform="matrix(5.4,0,0,-5.4,217.9812,125.883998)"/>
<path transform="matrix(.5,0,0,.5,-15.475397,-34.241)" d="M428.5 321.3125V311.1875H398.5V321.3125Z" fill="#bf5700" fill-opacity=".14901962"/>
<path transform="matrix(.5,0,0,.5,-15.475397,-34.241)" stroke-width=".5" stroke-linecap="butt" stroke-miterlimit="10" stroke-linejoin="miter" fill="none" stroke="#262626" d="M394.5 325V279.5H499V325Z"/>
</svg>
