<svg xmlns="http://www.w3.org/2000/svg" xmlns:xlink="http://www.w3.org/1999/xlink" xmlns:inkscape="http://www.inkscape.org/namespaces/inkscape" version="1.1" width="244" height="151" viewBox="0 0 244 151">
<defs>
<path id="font_0_17" d="M.272995 .723999C.19699097 .723999 .13198853 .69200137 .08898926 .6329956 .04798889 .5779877 .0289917 .48799134 .0289917 .34999085 .0289917 .22399903 .04499817 .13598633 .07899475 .08198547 .12098694 .01399231 .18998719-.023010254 .272995-.023010254 .34999085-.023010254 .41299439 .0079956059 .45700074 .066986087 .49699403 .12199402 .5169983 .21299744 .5169983 .34599305 .5169983 .47599793 .5009918 .56399539 .46699525 .61898806 .4249878 .68699648 .35598756 .723999 .272995 .723999M.272995 .61099246C.30899049 .61099246 .33799745 .59098818 .35499574 .55400088 .36898805 .5239868 .3769989 .44699098 .3769989 .34899903 .3769989 .2689972 .36999513 .19099427 .35899354 .1619873 .34298707 .11999512 .31298829 .09700012 .272995 .09700012 .23599243 .09700012 .20799256 .115997318 .19099427 .1519928 .1769867 .18199158 .16899109 .2559967 .16899109 .35099793 .16899109 .43499757 .17599488 .5149994 .18699646 .5439911 .20199585 .58699038 .23298645 .61099246 .272995 .61099246Z"/>
<path id="font_0_22" d="M.4889984 .70899966H.10998535L.04699707 .31399537H.17298889C.18798828 .34899903 .21998596 .36799623 .2630005 .36799623 .33399964 .36799623 .3769989 .31698609 .3769989 .23098755 .3769989 .147995 .33399964 .09700012 .2630005 .09700012 .20199585 .09700012 .16799927 .12799073 .16499329 .18499756H.026992798C.0289917 .06098938 .12298584-.023010254 .26098634-.023010254 .41299439-.023010254 .5169983 .08099365 .5169983 .23399353 .5169983 .37998963 .4269867 .47898866 .29599 .47898866 .24899292 .47898866 .21398926 .46699525 .17298889 .43598939L.19599915 .58399966H.4889984V.70899966Z"/>
<path id="font_0_18" d="M.23799134 .4889984V0H.37799073V.70899966H.2849884C.2630005 .625 .18998719 .58200076 .067993167 .58200076V.4889984H.23799134Z"/>
<path id="font_0_19" d="M.5119934 .125H.21099854C.22999573 .16299439 .2519989 .18399048 .35598756 .25898744 .47898866 .34899903 .5149994 .4019928 .5149994 .49899293 .5149994 .6359863 .41999818 .723999 .27198792 .723999 .125 .723999 .038986207 .6369934 .038986207 .4869995V.46199037H.17399597V.4850006C.17399597 .56399539 .21099854 .6100006 .2749939 .6100006 .33699037 .6100006 .375 .5669861 .375 .49598695 .375 .4169922 .35099793 .3880005 .19299317 .27598573 .07299805 .19400025 .035995485 .13198853 .02999878 0H.5119934V.125Z"/>
<path id="font_0_53" d="M.3849945 .60398867H.59799197V.72898867H.01399231V.60398867H.23498535V0H.3849945V.60398867Z"/>
<path id="font_0_74" d="M.20698548 .5399933H.066986087V0H.20698548V.5399933M.20698548 .72898867H.066986087V.60398867H.20698548V.72898867Z"/>
<path id="font_0_78" d="M.05999756 .5399933V0H.19999695V.32398988C.19999695 .3909912 .23599243 .42999269 .29599 .42999269 .34298707 .42999269 .37199403 .40299989 .37199403 .3600006V0H.5119934V.32398988C.5119934 .3899994 .5479889 .42999269 .60798647 .42999269 .6549988 .42999269 .6839905 .40299989 .6839905 .3600006V0H.82398989V.38198854C.82398989 .4869995 .7599945 .548996 .6519928 .548996 .58299258 .548996 .5359955 .5249939 .49398805 .46899415 .46798707 .519989 .4139862 .548996 .34700013 .548996 .2849884 .548996 .24499512 .5289917 .19898987 .47299195V.5399933H.05999756Z"/>
<path id="font_0_70" d="M.5239868 .22599793C.5249939 .23799134 .5249939 .24299622 .5249939 .25 .5249939 .3039856 .5169983 .35398866 .5039978 .3919983 .46798707 .48999024 .3809967 .548996 .27198792 .548996 .116989139 .548996 .021987915 .43699647 .021987915 .2559967 .021987915 .08299255 .115997318-.023010254 .2689972-.023010254 .3899994-.023010254 .48799134 .04499817 .5189972 .1519928H.3809967C.3639984 .10899353 .32499696 .083999637 .27398683 .083999637 .23399353 .083999637 .20199585 .100997928 .18199158 .1309967 .16899109 .15098572 .1639862 .1749878 .1619873 .22599793H.5239868M.1639862 .31900025C.17298889 .4019928 .20799256 .44198609 .269989 .44198609 .33399964 .44198609 .37199403 .39898683 .3789978 .31900025H.1639862Z"/>
<path id="font_0_1" d="M0 0Z"/>
<path id="font_0_9" d="M.20298767 .72898867C.08799744 .5549927 .039993287 .4189911 .039993287 .2649994 .039993287 .10998535 .08799744-.026000977 .20298767-.2000122H.30299378C.19599915 .005996704 .16299439 .116989139 .16299439 .2649994 .16299439 .4119873 .19699097 .5249939 .30299378 .72898867H.20298767Z"/>
<path id="font_0_84" d="M.5049896 .3659973C.5029907 .47999574 .4149933 .548996 .269989 .548996 .1329956 .548996 .04798889 .47999574 .04798889 .36898805 .04798889 .33299256 .05899048 .3019867 .07798767 .2809906 .09700012 .2619934 .11399841 .25299073 .1659851 .23599243L.33299256 .18399048C.36799623 .17298889 .37998963 .1619873 .37998963 .13999939 .37998963 .10699463 .34098817 .08699036 .27598573 .08699036 .23899842 .08699036 .21099854 .09298706 .19299317 .10598755 .17799378 .116989139 .17199707 .12799073 .1659851 .15699768H.0289917C.032989503 .037994386 .11999512-.023010254 .28399659-.023010254 .35899354-.023010254 .41600038-.007003784 .45599366 .024993897 .49598695 .056991579 .519989 .10699463 .519989 .1599884 .519989 .22999573 .4850006 .2749939 .4139862 .29599L.23699951 .34700013C.19799805 .35899354 .18798828 .36698915 .18798828 .3889923 .18798828 .4189911 .21998596 .43899537 .2689972 .43899537 .33599855 .43899537 .36898805 .4149933 .36999513 .3659973H.5049896Z"/>
<path id="font_0_10" d="M.12199402-.2000122C.23699951-.026000977 .2849884 .10998535 .2849884 .2639923 .2849884 .4189911 .23699951 .5549927 .12199402 .72898867H.021987915C.1289978 .522995 .1619873 .4119873 .1619873 .2639923 .1619873 .116989139 .12799073 .0039978029 .021987915-.2000122H.12199402Z"/>
<path id="font_0_14" d="M.2979889 .34199525H.025985718V.20698548H.2979889V.34199525Z"/>
<path id="font_0_15" d="M.21398926 .1459961H.06399536V0H.21398926V.1459961Z"/>
<path id="font_0_56" d="M.7299957 0 .9319916 .72898867H.772995L.6639862 .18199158 .54599 .72898867H.397995L.2849884 .18299866 .17199707 .72898867H.0129852299L.21899414 0H.35398866L.47299195 .56900027 .59498599 0H.7299957Z"/>
<path id="font_0_66" d="M.5239868 .016998291C.5 .039993287 .49198915 .055999757 .49198915 .08299255V.3829956C.49198915 .49299623 .4169922 .548996 .2709961 .548996 .125 .548996 .04899597 .4869995 .039993287 .3619995H.1749878C.18199158 .41799928 .20498657 .43598939 .27398683 .43598939 .32798768 .43598939 .35499574 .41799928 .35499574 .38198854 .35499574 .3639984 .34599305 .34899903 .33099366 .33999635 .31199647 .32998658 .31199647 .32998658 .24299622 .31900025L.18699646 .30899049C.07998657 .29100038 .027999878 .23599243 .027999878 .13899231 .027999878 .041992189 .09298706-.023010254 .19198609-.023010254 .2519989-.023010254 .30599977 .0019989014 .35598756 .053985597 .35598756 .025985718 .35899354 .015991211 .37199403 0H.5239868V.016998291M.35499574 .21699524C.35499574 .13598633 .31498719 .08999634 .24398804 .08999634 .19699097 .08999634 .16799927 .114990238 .16799927 .15499878 .16799927 .19699097 .18998719 .21699524 .24798584 .22898865L.29599 .23799134C.33299256 .24499512 .33898927 .24699402 .35499574 .25498963V.21699524Z"/>
<path id="font_0_87" d="M.34999085 0 .5359955 .5399933H.3880005L.2789917 .14498902 .1619873 .5399933H.01399231L.20298767 0H.34999085Z"/>
<path id="font_0_73" d="M.066986087 .72898867V0H.20698548V.32398988C.20698548 .38598634 .2519989 .42999269 .31498719 .42999269 .34599305 .42999269 .36898805 .4189911 .3849945 .39698792 .397995 .3789978 .40098573 .3639984 .40098573 .32998658V0H.54100039V.3619995C.54100039 .42900086 .522995 .47698976 .48599244 .5079956 .45498658 .5339966 .4099884 .548996 .36499024 .548996 .29599 .548996 .24598694 .5219879 .20698548 .46199037V.72898867H.066986087Z"/>
<path id="font_0_72" d="M.3999939 .5399933V.45700074C.36099244 .519989 .31799317 .548996 .26098634 .548996 .21299744 .548996 .1599884 .5249939 .12298584 .48599244 .068984989 .42999269 .040985109 .35198976 .040985109 .25698854 .040985109 .09098816 .1289978-.023010254 .2579956-.023010254 .31599427-.023010254 .35099793-.0040130617 .3999939 .054992677V-.018005372C.3999939-.08300781 .35398866-.12800598 .28799439-.12800598 .23799134-.12800598 .20698548-.10600281 .19599915-.06500244H.051986696C.052993776-.10700989 .067993167-.13600159 .10499573-.16600037 .147995-.20100403 .20698548-.21800232 .2829895-.21800232 .43899537-.21800232 .5329895-.14300537 .5329895-.018005372V.5399933H.3999939M.2869873 .43199159C.35299684 .43199159 .4019928 .35899354 .4019928 .25898744 .4019928 .16099549 .35499574 .09399414 .2849884 .09399414 .22399903 .09399414 .18099976 .16099549 .18099976 .25898744 .18099976 .36099244 .22399903 .43199159 .2869873 .43199159Z"/>
<path id="font_0_85" d="M.30099488 .5289917H.22299195V.673996H.08299255V.5289917H.01399231V.43598939H.08299255V.10398865C.08299255 .018997193 .12799073-.023010254 .21998596-.023010254 .2519989-.023010254 .2749939-.020004273 .30099488-.012008667V.085998538C.2869873 .083999637 .27999879 .08299255 .2689972 .08299255 .23199463 .08299255 .22299195 .09399414 .22299195 .14199829V.43598939H.30099488V.5289917Z"/>
<path id="font_0_83" d="M.06298828 .5399933V0H.20298767V.2869873C.20298767 .36898805 .24398804 .4099884 .32598878 .4099884 .34098817 .4099884 .35099793 .40899659 .36999513 .4059906V.5479889C.3619995 .548996 .35899354 .548996 .35299684 .548996 .2889862 .548996 .23399353 .5069885 .20298767 .43399049V.5399933H.06298828Z"/>
<path id="font_0_86" d="M.54100039 0V.5399933H.40098573V.20199585C.40098573 .13798523 .35699464 .09599304 .28799439 .09599304 .22799683 .09599304 .19799805 .12799073 .19799805 .19299317V.5399933H.057998659V.1639862C.057998659 .04399109 .12298584-.023010254 .23899842-.023010254 .31199647-.023010254 .36099244 .0029907227 .40098573 .06399536V0H.54100039Z"/>
<path id="font_0_50" d="M.6649933 .102996829C.71398928 .16299439 .7449951 .2630005 .7449951 .36099244 .7449951 .46798707 .70700076 .57099917 .6429901 .6399994 .5799866 .70799258 .49798585 .7409973 .3939972 .7409973 .2899933 .7409973 .20799256 .70799258 .14498902 .6399994 .07998657 .57099917 .042999269 .46798707 .042999269 .35899354 .042999269 .25 .08099365 .14698792 .14498902 .07798767 .20799256 .009994507 .2899933-.023010254 .3939972-.023010254 .46998597-.023010254 .5249939-.008010864 .58299258 .026992798L.6689911-.054000856 .7449951 .026992798 .6649933 .102996829M.47999574 .27799989 .4039917 .19699097 .48098756 .12399292C.45700074 .11199951 .4249878 .10499573 .3929901 .10499573 .272995 .10499573 .19299317 .20599365 .19299317 .35899354 .19299317 .5130005 .27198792 .61299136 .3939972 .61299136 .5159912 .61299136 .59498599 .5130005 .59498599 .35798646 .59498599 .2979889 .58399966 .24398804 .56199648 .19999695L.47999574 .27799989Z"/>
<path id="font_0_80" d="M.30099488 .548996C.13598633 .548996 .034988405 .43998719 .034988405 .2630005 .034988405 .084991458 .13598633-.023010254 .3019867-.023010254 .46699525-.023010254 .56900027 .084991458 .56900027 .25898744 .56900027 .44198609 .46998597 .548996 .30099488 .548996M.3019867 .43598939C.3789978 .43598939 .42900086 .36698915 .42900086 .26098634 .42900086 .1599884 .3769989 .08999634 .3019867 .08999634 .22599793 .08999634 .1749878 .15899658 .1749878 .2630005 .1749878 .36698915 .22599793 .43598939 .3019867 .43598939Z"/>
<path id="font_0_42" d="M.21299744 .72898867H.06298828V0H.21299744V.72898867Z"/>
<path id="font_0_49" d="M.22599793 .2599945H.41299439C.5469971 .2599945 .6329956 .35499574 .6329956 .5029907 .6329956 .6489868 .5499878 .72898867 .397995 .72898867H.07598877V0H.22599793V.2599945M.22599793 .3849945V.60398867H.3659973C.44599916 .60398867 .48298646 .56900027 .48298646 .49499513 .48298646 .41999818 .44599916 .3849945 .3659973 .3849945H.22599793Z"/>
<path id="font_0_69" d="M.40499879 0H.54499819V.72898867H.40499879V.46998597C.36999513 .5239868 .32398988 .548996 .2559967 .548996 .1269989 .548996 .0289917 .4249878 .0289917 .2619934 .0289917 .18899536 .050994874 .114990238 .08699036 .06298828 .12399292 .009994507 .18998719-.023010254 .2559967-.023010254 .32398988-.023010254 .36999513 .0009918213 .40499879 .054992677V0M.2869873 .43199159C.35798646 .43199159 .40499879 .3639984 .40499879 .2599945 .40499879 .1619873 .35699464 .09399414 .2869873 .09399414 .21699524 .09399414 .16899109 .16299439 .16899109 .2619934 .16899109 .36299134 .21699524 .43199159 .2869873 .43199159Z"/>
<path id="font_0_4" d="M.1459961-.03201294 .18598938 .17199707H.2889862L.24899292-.03201294H.35398866L.3939972 .17199707H.5130005V.2709961H.41299439L.44400025 .42399598H.5529938V.522995H.46299745L.49699403 .69699099H.3919983L.35798646 .522995H.25498963L.2889862 .69699099H.18399048L.1499939 .522995H.0309906V.42399598H.12998963L.099990848 .2709961H.0029907227V.17199707H.07998657L.039993287-.03201294H.1459961M.20498657 .2709961 .23498535 .42399598H.33799745L.30799867 .2709961H.20498657Z"/>
<path id="font_0_25" d="M.40899659 .38598634C.43299867 .39898683 .44400025 .4059906 .45498658 .41600038 .48399354 .44299317 .5009918 .48599244 .5009918 .5319977 .5009918 .6429901 .40499879 .723999 .27398683 .723999 .14199829 .723999 .04598999 .6429901 .04598999 .5309906 .04598999 .46299745 .07398987 .41999818 .13798523 .38598634 .055999757 .34098817 .021987915 .28799439 .021987915 .20399475 .021987915 .069992069 .125-.023010254 .27398683-.023010254 .42199708-.023010254 .5249939 .069992069 .5249939 .20399475 .5249939 .28799439 .4909973 .34098817 .40899659 .38598634M.2749939 .61099246C.33699037 .61099246 .37998963 .57299807 .37998963 .5179901 .37998963 .46398927 .33599855 .4249878 .2749939 .4249878 .21199036 .4249878 .16899109 .46299745 .16899109 .5189972 .16899109 .57299807 .21199036 .61099246 .2749939 .61099246M.272995 .32998658C.34199525 .32998658 .3849945 .28399659 .3849945 .20999146 .3849945 .14199829 .34098817 .09700012 .272995 .09700012 .20498657 .09700012 .1619873 .14199829 .1619873 .21199036 .1619873 .28399659 .20498657 .32998658 .272995 .32998658Z"/>
<path id="font_0_26" d="M.037994386 .16499329C.040985109 .055999757 .1329956-.024002076 .25498963-.024002076 .34599305-.024002076 .4149933 .01399231 .45700074 .085998538 .49398805 .14898682 .5159912 .2559967 .5159912 .36999513 .5159912 .47399903 .5 .55400088 .46699525 .60798647 .42199708 .6839905 .35198976 .723999 .2669983 .723999 .125 .723999 .027999878 .621994 .027999878 .47399903 .027999878 .32798768 .11399841 .22799683 .23999024 .22799683 .27598573 .22799683 .30999757 .23799134 .33198548 .2539978 .34498597 .2630005 .35299684 .27198792 .37599183 .2979889 .37599183 .16099549 .33799745 .09599304 .25898744 .09599304 .20899964 .09599304 .17599488 .12298584 .17298889 .16499329H.037994386M.2630005 .6100006C.33099366 .6100006 .37298585 .55799868 .37298585 .47399903 .37298585 .3959961 .32998658 .34399415 .2649994 .34399415 .20098877 .34399415 .16099549 .3939972 .16099549 .47599793 .16099549 .55799868 .19999695 .6100006 .2630005 .6100006Z"/>
<path id="font_0_6" d="M.20599365 .70098879C.10499573 .70098879 .021987915 .61898806 .021987915 .5189972 .021987915 .4189911 .10499573 .33699037 .20599365 .33699037 .30699159 .33699037 .3899994 .41799928 .3899994 .5169983 .3899994 .6199951 .30899049 .70098879 .20599365 .70098879M.20599365 .60198977C.2539978 .60198977 .29100038 .5649872 .29100038 .5179901 .29100038 .47200013 .25299073 .43499757 .20599365 .43499757 .15899658 .43499757 .12098694 .47200013 .12098694 .5189972 .12098694 .5649872 .15899658 .60198977 .20599365 .60198977M.60598757 .70899966 .20999146-.020004273H.2869873L.6819916 .70899966H.60598757M.67900088 .35198976C.57699587 .35198976 .49499513 .269989 .49499513 .16999817 .49499513 .068984989 .57699587-.013000488 .67900088-.013000488 .7799988-.013000488 .86299136 .068984989 .86299136 .16699219 .86299136 .2709961 .7819977 .35198976 .67900088 .35198976M.67900088 .25299073C.72698977 .25299073 .7639923 .21598816 .7639923 .16799927 .7639923 .12298584 .72499087 .084991458 .67900088 .084991458 .6319885 .084991458 .59399417 .12298584 .59399417 .16899109 .59399417 .21499634 .6319885 .25299073 .67900088 .25299073Z"/>
<path id="font_0_36" d="M.6819916 .48199464C.6769867 .54499819 .6639862 .58499148 .6329956 .6259918 .57699587 .69999697 .4869995 .7409973 .37799073 .7409973 .17199707 .7409973 .04399109 .59399417 .04399109 .35798646 .04399109 .12298584 .17098999-.023010254 .37399293-.023010254 .55599978-.023010254 .6759949 .08198547 .68499758 .24899292H.5389862C.5289917 .1559906 .47099305 .102996829 .37799073 .102996829 .2619934 .102996829 .19400025 .19699097 .19400025 .35598756 .19400025 .5169983 .2649994 .61299136 .3829956 .61299136 .46998597 .61299136 .5189972 .57099917 .5389862 .48199464H.6819916Z"/>
</defs>
<path transform="matrix(.5,0,0,.5,-15.475397,-34.241)" d="M0 0H1120V840H0Z" fill="#ffffff"/>
<path transform="matrix(.5,0,0,.5,-15.475397,-34.241)" d="M73 332.95H507V72.55H73Z" fill="#ffffff"/>
<path transform="matrix(.5,0,0,.5,-15.475397,-34.241)" stroke-width=".5" stroke-linecap="butt" stroke-linejoin="round" fill="none" stroke="#262626" stroke-opacity=".14901962" d="M73 332.95V72.55"/>
<path transform="matrix(.5,0,0,.5,-15.475397,-34.241)" stroke-width=".5" stroke-linecap="butt" stroke-linejoin="round" fill="none" stroke="#262626" stroke-opacity=".14901962" d="M159.8 332.95V72.55"/>
<path transform="matrix(.5,0,0,.5,-15.475397,-34.241)" stroke-width=".5" stroke-linecap="butt" stroke-linejoin="round" fill="none" stroke="#262626" stroke-opacity=".14901962" d="M246.6 332.95V72.55"/>
<path transform="matrix(.5,0,0,.5,-15.475397,-34.241)" stroke-width=".5" stroke-linecap="butt" stroke-linejoin="round" fill="none" stroke="#262626" stroke-opacity=".14901962" d="M333.4 332.95V72.55"/>
<path transform="matrix(.5,0,0,.5,-15.475397,-34.241)" stroke-width=".5" stroke-linecap="butt" stroke-linejoin="round" fill="none" stroke="#262626" stroke-opacity=".14901962" d="M420.2 332.95V72.55"/>
<path transform="matrix(.5,0,0,.5,-15.475397,-34.241)" stroke-width=".5" stroke-linecap="butt" stroke-linejoin="round" fill="none" stroke="#262626" stroke-opacity=".14901962" d="M507 332.95V72.55"/>
<path transform="matrix(.5,0,0,.5,-15.475397,-34.241)" stroke-width=".5" stroke-linecap="butt" stroke-linejoin="round" fill="none" stroke="#262626" stroke-opacity=".14901962" d="M507 332.95H73"/>
<path transform="matrix(.5,0,0,.5,-15.475397,-34.241)" stroke-width=".5" stroke-linecap="butt" stroke-linejoin="round" fill="none" stroke="#262626" stroke-opacity=".14901962" d="M507 280.87H73"/>
<path transform="matrix(.5,0,0,.5,-15.475397,-34.241)" stroke-width=".5" stroke-linecap="butt" stroke-linejoin="round" fill="none" stroke="#262626" stroke-opacity=".14901962" d="M507 228.79H73"/>
<path transform="matrix(.5,0,0,.5,-15.475397,-34.241)" stroke-width=".5" stroke-linecap="butt" stroke-linejoin="round" fill="none" stroke="#262626" stroke-opacity=".14901962" d="M507 176.71H73"/>
<path transform="matrix(.5,0,0,.5,-15.475397,-34.241)" stroke-width=".5" stroke-linecap="butt" stroke-linejoin="round" fill="none" stroke="#262626" stroke-opacity=".14901962" d="M507 124.63H73"/>
<path transform="matrix(.5,0,0,.5,-15.475397,-34.241)" stroke-width=".5" stroke-linecap="butt" stroke-linejoin="round" fill="none" stroke="#262626" stroke-opacity=".14901962" d="M507 72.55H73"/>
<path transform="matrix(.5,0,0,.5,-15.475397,-34.241)" stroke-width=".5" stroke-linecap="square" stroke-linejoin="round" fill="none" stroke="#262626" d="M73 332.95H507"/>
<path transform="matrix(.5,0,0,.5,-15.475397,-34.241)" stroke-width=".5" stroke-linecap="square" stroke-linejoin="round" fill="none" stroke="#262626" d="M73 72.55H507"/>
<path transform="matrix(.5,0,0,.5,-15.475397,-34.241)" stroke-width=".5" stroke-linecap="square" stroke-linejoin="round" fill="none" stroke="#262626" d="M73 332.95V328.61003"/>
<path transform="matrix(.5,0,0,.5,-15.475397,-34.241)" stroke-width=".5" stroke-linecap="square" stroke-linejoin="round" fill="none" stroke="#262626" d="M159.8 332.95V328.61003"/>
<path transform="matrix(.5,0,0,.5,-15.475397,-34.241)" stroke-width=".5" stroke-linecap="square" stroke-linejoin="round" fill="none" stroke="#262626" d="M246.6 332.95V328.61003"/>
<path transform="matrix(.5,0,0,.5,-15.475397,-34.241)" stroke-width=".5" stroke-linecap="square" stroke-linejoin="round" fill="none" stroke="#262626" d="M333.4 332.95V328.61003"/>
<path transform="matrix(.5,0,0,.5,-15.475397,-34.241)" stroke-width=".5" stroke-linecap="square" stroke-linejoin="round" fill="none" stroke="#262626" d="M420.2 332.95V328.61003"/>
<path transform="matrix(.5,0,0,.5,-15.475397,-34.241)" stroke-width=".5" stroke-linecap="square" stroke-linejoin="round" fill="none" stroke="#262626" d="M507 332.95V328.61003"/>
<path transform="matrix(.5,0,0,.5,-15.475397,-34.241)" stroke-width=".5" stroke-linecap="square" stroke-linejoin="round" fill="none" stroke="#262626" d="M73 72.55V76.89"/>
<path transform="matrix(.5,0,0,.5,-15.475397,-34.241)" stroke-width=".5" stroke-linecap="square" stroke-linejoin="round" fill="none" stroke="#262626" d="M159.8 72.55V76.89"/>
<path transform="matrix(.5,0,0,.5,-15.475397,-34.241)" stroke-width=".5" stroke-linecap="square" stroke-linejoin="round" fill="none" stroke="#262626" d="M246.6 72.55V76.89"/>
<path transform="matrix(.5,0,0,.5,-15.475397,-34.241)" stroke-width=".5" stroke-linecap="square" stroke-linejoin="round" fill="none" stroke="#262626" d="M333.4 72.55V76.89"/>
<path transform="matrix(.5,0,0,.5,-15.475397,-34.241)" stroke-width=".5" stroke-linecap="square" stroke-linejoin="round" fill="none" stroke="#262626" d="M420.2 72.55V76.89"/>
<path transform="matrix(.5,0,0,.5,-15.475397,-34.241)" stroke-width=".5" stroke-linecap="square" stroke-linejoin="round" fill="none" stroke="#262626" d="M507 72.55V76.89"/>
<use data-text="0" xlink:href="#font_0_17" transform="matrix(6,0,0,-6,19.274603,140.434)" fill="#262626"/>
<use data-text="5" xlink:href="#font_0_22" transform="matrix(6,0,0,-6,60.924608,140.434)" fill="#262626"/>
<use data-text="0" xlink:href="#font_0_17" transform="matrix(6,0,0,-6,64.260608,140.434)" fill="#262626"/>
<use data-text="1" xlink:href="#font_0_18" transform="matrix(6,0,0,-6,102.57461,140.434)" fill="#262626"/>
<use data-text="0" xlink:href="#font_0_17" transform="matrix(6,0,0,-6,105.91061,140.434)" fill="#262626"/>
<use data-text="0" xlink:href="#font_0_17" transform="matrix(6,0,0,-6,109.24661,140.434)" fill="#262626"/>
<use data-text="1" xlink:href="#font_0_18" transform="matrix(6,0,0,-6,145.9746,140.434)" fill="#262626"/>
<use data-text="5" xlink:href="#font_0_22" transform="matrix(6,0,0,-6,149.3106,140.434)" fill="#262626"/>
<use data-text="0" xlink:href="#font_0_17" transform="matrix(6,0,0,-6,152.64659,140.434)" fill="#262626"/>
<use data-text="2" xlink:href="#font_0_19" transform="matrix(6,0,0,-6,189.3746,140.434)" fill="#262626"/>
<use data-text="0" xlink:href="#font_0_17" transform="matrix(6,0,0,-6,192.7106,140.434)" fill="#262626"/>
<use data-text="0" xlink:href="#font_0_17" transform="matrix(6,0,0,-6,196.0466,140.434)" fill="#262626"/>
<use data-text="2" xlink:href="#font_0_19" transform="matrix(6,0,0,-6,232.7746,140.434)" fill="#262626"/>
<use data-text="5" xlink:href="#font_0_22" transform="matrix(6,0,0,-6,236.1106,140.434)" fill="#262626"/>
<use data-text="0" xlink:href="#font_0_17" transform="matrix(6,0,0,-6,239.4466,140.434)" fill="#262626"/>
<use data-text="T" xlink:href="#font_0_53" transform="matrix(6.6,0,0,-6.6,117.024707,148.934)" fill="#262626"/>
<use data-text="i" xlink:href="#font_0_74" transform="matrix(6.6,0,0,-6.6,121.057308,148.934)" fill="#262626"/>
<use data-text="m" xlink:href="#font_0_78" transform="matrix(6.6,0,0,-6.6,122.892108,148.934)" fill="#262626"/>
<use data-text="e" xlink:href="#font_0_70" transform="matrix(6.6,0,0,-6.6,128.7595,148.934)" fill="#262626"/>
<use data-text=" " xlink:href="#font_0_1" transform="matrix(6.6,0,0,-6.6,132.42911,148.934)" fill="#262626"/>
<use data-text="(" xlink:href="#font_0_9" transform="matrix(6.6,0,0,-6.6,134.2639,148.934)" fill="#262626"/>
<use data-text="s" xlink:href="#font_0_84" transform="matrix(6.6,0,0,-6.6,136.4617,148.934)" fill="#262626"/>
<use data-text=")" xlink:href="#font_0_10" transform="matrix(6.6,0,0,-6.6,140.1313,148.934)" fill="#262626"/>
<path transform="matrix(.5,0,0,.5,-15.475397,-34.241)" stroke-width=".5" stroke-linecap="square" stroke-linejoin="round" fill="none" stroke="#262626" d="M73 332.95V72.55"/>
<path transform="matrix(.5,0,0,.5,-15.475397,-34.241)" stroke-width=".5" stroke-linecap="square" stroke-linejoin="round" fill="none" stroke="#262626" d="M507 332.95V72.55"/>
<path transform="matrix(.5,0,0,.5,-15.475397,-34.241)" stroke-width=".5" stroke-linecap="square" stroke-linejoin="round" fill="none" stroke="#262626" d="M73 332.95H77.34"/>
<path transform="matrix(.5,0,0,.5,-15.475397,-34.241)" stroke-width=".5" stroke-linecap="square" stroke-linejoin="round" fill="none" stroke="#262626" d="M73 280.87H77.34"/>
<path transform="matrix(.5,0,0,.5,-15.475397,-34.241)" stroke-width=".5" stroke-linecap="square" stroke-linejoin="round" fill="none" stroke="#262626" d="M73 228.79H77.34"/>
<path transform="matrix(.5,0,0,.5,-15.475397,-34.241)" stroke-width=".5" stroke-linecap="square" stroke-linejoin="round" fill="none" stroke="#262626" d="M73 176.71H77.34"/>
<path transform="matrix(.5,0,0,.5,-15.475397,-34.241)" stroke-width=".5" stroke-linecap="square" stroke-linejoin="round" fill="none" stroke="#262626" d="M73 124.63H77.34"/>
<path transform="matrix(.5,0,0,.5,-15.475397,-34.241)" stroke-width=".5" stroke-linecap="square" stroke-linejoin="round" fill="none" stroke="#262626" d="M73 72.55H77.34"/>
<path transform="matrix(.5,0,0,.5,-15.475397,-34.241)" stroke-width=".5" stroke-linecap="square" stroke-linejoin="round" fill="none" stroke="#262626" d="M507 332.95H502.66"/>
<path transform="matrix(.5,0,0,.5,-15.475397,-34.241)" stroke-width=".5" stroke-linecap="square" stroke-linejoin="round" fill="none" stroke="#262626" d="M507 280.87H502.66"/>
<path transform="matrix(.5,0,0,.5,-15.475397,-34.241)" stroke-width=".5" stroke-linecap="square" stroke-linejoin="round" fill="none" stroke="#262626" d="M507 228.79H502.66"/>
<path transform="matrix(.5,0,0,.5,-15.475397,-34.241)" stroke-width=".5" stroke-linecap="square" stroke-linejoin="round" fill="none" stroke="#262626" d="M507 176.71H502.66"/>
<path transform="matrix(.5,0,0,.5,-15.475397,-34.241)" stroke-width=".5" stroke-linecap="square" stroke-linejoin="round" fill="none" stroke="#262626" d="M507 124.63H502.66"/>
<path transform="matrix(.5,0,0,.5,-15.475397,-34.241)" stroke-width=".5" stroke-linecap="square" stroke-linejoin="round" fill="none" stroke="#262626" d="M507 72.55H502.66"/>
<use data-text="-" xlink:href="#font_0_14" transform="matrix(6,0,0,-6,7.824602,134.48401)" fill="#262626"/>
<use data-text="0" xlink:href="#font_0_17" transform="matrix(6,0,0,-6,9.822602,134.48401)" fill="#262626"/>
<use data-text="." xlink:href="#font_0_15" transform="matrix(6,0,0,-6,13.158603,134.48401)" fill="#262626"/>
<use data-text="5" xlink:href="#font_0_22" transform="matrix(6,0,0,-6,14.826603,134.48401)" fill="#262626"/>
<use data-text="0" xlink:href="#font_0_17" transform="matrix(6,0,0,-6,15.324602,108.44399)" fill="#262626"/>
<use data-text="0" xlink:href="#font_0_17" transform="matrix(6,0,0,-6,10.324602,82.40399)" fill="#262626"/>
<use data-text="." xlink:href="#font_0_15" transform="matrix(6,0,0,-6,13.660603,82.40399)" fill="#262626"/>
<use data-text="5" xlink:href="#font_0_22" transform="matrix(6,0,0,-6,15.328603,82.40399)" fill="#262626"/>
<use data-text="1" xlink:href="#font_0_18" transform="matrix(6,0,0,-6,15.324602,56.364004)" fill="#262626"/>
<use data-text="1" xlink:href="#font_0_18" transform="matrix(6,0,0,-6,10.324602,30.323998)" fill="#262626"/>
<use data-text="." xlink:href="#font_0_15" transform="matrix(6,0,0,-6,13.660603,30.323998)" fill="#262626"/>
<use data-text="5" xlink:href="#font_0_22" transform="matrix(6,0,0,-6,15.328603,30.323998)" fill="#262626"/>
<use data-text="2" xlink:href="#font_0_19" transform="matrix(6,0,0,-6,15.324602,4.2840006)" fill="#262626"/>
<use data-text="W" xlink:href="#font_0_56" transform="matrix(-.00000028050003,-6.6,-6.6,.00000028050003,4.824603,92.383937)" fill="#262626"/>
<use data-text="a" xlink:href="#font_0_66" transform="matrix(-.00000028050003,-6.6,-6.6,.00000028050003,4.824603,86.153537)" fill="#262626"/>
<use data-text="v" xlink:href="#font_0_87" transform="matrix(-.00000028050003,-6.6,-6.6,.00000028050003,4.8246028,82.48393)" fill="#262626"/>
<use data-text="e" xlink:href="#font_0_70" transform="matrix(-.00000028050003,-6.6,-6.6,.00000028050003,4.8246028,78.81433)" fill="#262626"/>
<use data-text=" " xlink:href="#font_0_1" transform="matrix(-.00000028050003,-6.6,-6.6,.00000028050003,4.8246028,75.14473)" fill="#262626"/>
<use data-text="h" xlink:href="#font_0_73" transform="matrix(-.00000028050003,-6.6,-6.6,.00000028050003,4.824602,73.30993)" fill="#262626"/>
<use data-text="e" xlink:href="#font_0_70" transform="matrix(-.00000028050003,-6.6,-6.6,.00000028050003,4.824602,69.27733)" fill="#262626"/>
<use data-text="i" xlink:href="#font_0_74" transform="matrix(-.00000028050003,-6.6,-6.6,.00000028050003,4.824602,65.607738)" fill="#262626"/>
<use data-text="g" xlink:href="#font_0_72" transform="matrix(-.00000028050003,-6.6,-6.6,.00000028050003,4.824602,63.772935)" fill="#262626"/>
<use data-text="h" xlink:href="#font_0_73" transform="matrix(-.00000028050003,-6.6,-6.6,.00000028050003,4.8246018,59.740335)" fill="#262626"/>
<use data-text="t" xlink:href="#font_0_85" transform="matrix(-.00000028050003,-6.6,-6.6,.00000028050003,4.8246018,55.707735)" fill="#262626"/>
<use data-text=" " xlink:href="#font_0_1" transform="matrix(-.00000028050003,-6.6,-6.6,.00000028050003,4.8246018,53.509935)" fill="#262626"/>
<use data-text="(" xlink:href="#font_0_9" transform="matrix(-.00000028050003,-6.6,-6.6,.00000028050003,4.824601,51.675134)" fill="#262626"/>
<use data-text="m" xlink:href="#font_0_78" transform="matrix(-.00000028050003,-6.6,-6.6,.00000028050003,4.824601,49.477334)" fill="#262626"/>
<use data-text=")" xlink:href="#font_0_10" transform="matrix(-.00000028050003,-6.6,-6.6,.00000028050003,4.824601,43.609933)" fill="#262626"/>
<path transform="matrix(.5,0,0,.5,-15.475397,-34.241)" stroke-width="2.5" stroke-linecap="butt" stroke-dasharray="2,2" stroke-linejoin="bevel" fill="none" stroke="#000000" d="M74.736 280.87H76.472 78.208 79.944 81.68 83.416 85.152 86.888 88.624 90.36 92.096 93.832L95.568 280.87004H97.304 99.04L100.776 280.87007 102.512 280.87004 104.248 280.87013 105.984 280.87019 107.72 280.87025 109.456 280.87019 111.192 280.8704H112.928L114.664 280.87013 116.4 280.88905 118.136 280.92588 119.872 280.9979 121.608 281.05485 123.344 281.0959 125.08 281.12239 126.816 281.16798 128.552 281.19364 130.288 281.16777 132.024 281.1555 133.76 281.21174 135.496 281.36445 137.232 281.60359 138.968 282.02629 140.704 282.6223 142.44 283.29563 144.176 283.88914 145.912 284.2998 147.648 284.54695 149.384 284.44554 151.12 284.03834 152.856 283.58848 154.592 283.81959 156.328 284.90348 158.064 286.67283 159.8 288.90544 161.536 291.81318 163.272 295.4912 165.008 297.6905 166.744 297.5764 168.48 296.38984 170.216 295.71675 171.952 295.7069 173.688 293.6686 175.424 287.69685 177.16 279.50575 178.896 266.02589 180.632 249.44182 182.368 234.95066 184.104 219.13906 185.84 194.75965 187.576 160.21772 189.312 124.04085 191.048 100.78258 192.784 103.28856 194.52 122.3982 196.256 142.75731 197.992 153.80614 199.728 157.32617 201.464 162.4043 203.2 170.24007 204.936 179.85305 206.672 187.09568 208.408 190.54779 210.144 190.20223 211.88 188.24219 213.616 186.5332 215.352 185.92324 217.088 186.27812 218.824 185.12723 220.56 181.60935 222.296 178.14104 224.032 176.52234 225.768 177.25608 227.504 177.4829 229.24 175.78449 230.976 174.70278 232.712 174.4223 234.448 174.37657 236.184 173.68996 237.92 172.31206 239.656 172.07363 241.392 172.75756 243.128 172.37076 244.864 171.88008 246.6 171.7162 248.336 171.62415 250.072 172.2929 251.808 172.75356 253.544 172.90189 255.28 173.36731 257.016 174.08734 258.752 173.88166 260.488 173.69916 262.224 174.24321 263.96 175.72365 265.696 176.33214 267.432 176.28556 269.168 175.757 270.904 175.73688 272.64 176.69861 274.376 176.8661 276.112 175.486 277.848 173.43503 279.584 172.94438 281.32 173.84703 283.056 173.63652 284.792 172.699 286.528 171.02675 288.264 170.47435 290 170.50928 291.736 170.63594 293.472 171.25513 295.208 171.62886 296.944 172.08962 298.68 172.84058 300.416 173.2396 302.152 173.01165 303.888 173.31456 305.624 173.83329 307.36 174.53604 309.096 175.3799 310.832 176.16735 312.568 176.31815 314.304 176.87018 316.04 177.04505 317.776 177.06409 319.512 176.40528 321.248 176.45201 322.984 177.36896 324.72 177.6694 326.456 177.40705 328.192 177.57248 329.928 177.75498 331.664 177.12743 333.4 176.50354 335.136 176.77828 336.872 177.34537 338.608 177.79499 340.344 178.31587 342.08 179.06638 343.816 178.60564 345.552 178.15946 347.288 178.38668 349.024 178.65381 350.76 178.7626 352.496 178.63025 354.232 178.39014 355.968 178.6827 357.704 178.62807 359.44 178.71288 361.176 178.58945 362.912 179.61292 364.648 181.40988 366.384 181.74564 368.12 181.97214 369.856 182.55733 371.592 184.48293 373.328 185.05055 375.064 184.36458 376.8 183.95827 378.536 184.08106 380.272 183.83498 382.008 183.48372 383.744 183.40627 385.48 182.6162 387.216 181.99973 388.952 181.68917 390.688 182.94635 392.424 183.12279 394.16 181.99117 395.896 180.98734 397.632 181.52437 399.368 182.69345 401.104 182.23825 402.84 181.46894 404.576 181.34293 406.312 181.09702 408.048 179.55748 409.784 178.68389 411.52 178.05603 413.256 177.38878 414.992 176.70256 416.728 176.85929 418.464 177.03377 420.2 177.31136 421.936 176.87439 423.672 176.0559 425.408 176.69823 427.144 177.33814 428.88 177.38874 430.616 176.22522 432.352 175.4203 434.088 175.77709 435.824 176.52733 437.56 177.48288 439.296 178.7758 441.032 178.97223 442.768 178.32767 444.504 178.21549 446.24 179.07361 447.976 179.27973 449.712 179.43657 451.448 180.11376 453.184 180.38584 454.92 179.83669 456.656 180.00583 458.392 181.3582 460.128 182.65575 461.864 183.03232 463.6 182.53316 465.336 182.53098 467.072 182.7837 468.808 182.22135 470.544 180.89554 472.28 179.97289 474.016 180.1393 475.752 180.11429 477.488 179.48682 479.224 179.16751 480.96 179.80907 482.696 180.13182 484.432 179.85015 486.168 178.75922 487.904 178.23345 489.64 177.5469"/>
<path transform="matrix(.5,0,0,.5,-15.475397,-34.241)" stroke-width="2" stroke-linecap="butt" stroke-linejoin="round" fill="none" stroke="#d95319" d="M74.736 280.3177 76.472 279.43489 78.208 279.12083 79.944 279.76423 81.68 280.2762 83.416 280.35755 85.152 280.95664 86.888 281.51445 88.624 281.11164 90.36 280.85353 92.096 281.30278 93.832 281.22904 95.568 280.22087 97.304 280.03935 99.04 281.74009 100.776 283.31416 102.512 283.72386 104.248 284.1576 105.984 284.68965 107.72 284.5301 109.456 282.87828 111.192 280.2298 112.928 279.41413 114.664 281.1672 116.4 280.61528 118.136 280.32008 119.872 284.311 121.608 289.06013 123.344 290.4327 125.08 289.22038 126.816 286.21095 128.552 281.99803 130.288 280.12834 132.024 279.35639 133.76 277.8543 135.496 278.24595 137.232 281.81346 138.968 286.64909 140.704 288.9769 142.44 289.45869 144.176 287.3721 145.912 284.97789 147.648 285.4003 149.384 288.29948 151.12 289.40553 152.856 287.32514 154.592 285.95283 156.328 287.84635 158.064 291.39698 159.8 294.6123 161.536 293.04588 163.272 290.0852 165.008 289.12385 166.744 294.07624 168.48 298.634 170.216 300.75575 171.952 298.89549 173.688 294.09855 175.424 286.024 177.16 279.08866 178.896 269.5968 180.632 254.96416 182.368 235.16474 184.104 211.33379 185.84 184.09244 187.576 155.87215 189.312 129.38362 191.048 112.11687 192.784 110.09254 194.52 118.03565 196.256 130.85106 197.992 145.22068 199.728 157.58957 201.464 167.45475 203.2 175.01741 204.936 179.5637 206.672 181.63739 208.408 182.26564 210.144 182.45375 211.88 182.41222 213.616 181.4378 215.352 177.39757 217.088 172.42478 218.824 170.72312 220.56 174.18637 222.296 178.5298 224.032 180.42427 225.768 178.47229 227.504 175.90839 229.24 174.44394 230.976 175.2446 232.712 177.09395 234.448 177.94083 236.184 174.80644 237.92 171.60434 239.656 170.7674 241.392 168.9173 243.128 165.2991 244.864 163.98906 246.6 165.32604 248.336 168.78736 250.072 168.71558 251.808 168.37235 253.544 175.05074 255.28 183.5806 257.016 185.43773 258.752 182.4144 260.488 180.74784 262.224 180.78293 263.96 177.91252 265.696 168.7106 267.432 160.10884 269.168 157.99503 270.904 161.96498 272.64 168.15628 274.376 169.3445 276.112 170.75418 277.848 171.28903 279.584 168.46004 281.32 164.67426 283.056 167.99217 284.792 176.78528 286.528 182.91939 288.264 184.34035 290 181.48328 291.736 176.97154 293.472 170.83386 295.208 162.79541 296.944 154.6833 298.68 154.43112 300.416 162.45581 302.152 172.72081 303.888 175.3903 305.624 171.57968 307.36 171.44493 309.096 174.95058 310.832 180.85813 312.568 186.88556 314.304 191.26073 316.04 191.60222 317.776 190.1716 319.512 185.42206 321.248 176.76126 322.984 169.13053 324.72 165.027 326.456 166.37815 328.192 170.55727 329.928 177.32962 331.664 183.1906 333.4 187.99552 335.136 190.57167 336.872 189.74239 338.608 187.48636 340.344 187.07352 342.08 192.01508 343.816 195.31632 345.552 190.51789 347.288 178.0211 349.024 165.31179 350.76 158.02068 352.496 158.43552 354.232 164.31366 355.968 173.32677 357.704 185.36666 359.44 193.81554 361.176 190.7097 362.912 182.99 364.648 180.05388 366.384 185.27002 368.12 193.72644 369.856 196.64241 371.592 192.37703 373.328 182.84687 375.064 170.47806 376.8 161.25334 378.536 162.40097 380.272 172.88568 382.008 185.68373 383.744 192.09899 385.48 187.45722 387.216 175.38799 388.952 170.88558 390.688 179.48523 392.424 195.71309 394.16 203.00647 395.896 196.83104 397.632 184.0869 399.368 172.23355 401.104 161.65494 402.84 157.67728 404.576 164.9776 406.312 177.99773 408.048 186.53513 409.784 187.69887 411.52 182.67858 413.256 177.25556 414.992 172.97603 416.728 173.90576 418.464 181.79236 420.2 191.92122 421.936 196.34049 423.672 191.59027 425.408 185.01338 427.144 177.46173 428.88 173.54146 430.616 175.69017 432.352 182.59238 434.088 187.10855 435.824 185.51735 437.56 181.73796 439.296 178.56102 441.032 175.75882 442.768 176.6098 444.504 182.21031 446.24 193.93796 447.976 201.49065 449.712 201.23943 451.448 193.41739 453.184 185.79373 454.92 181.49396 456.656 182.68306 458.392 185.1829 460.128 187.87039 461.864 189.31702 463.6 191.36479 465.336 193.43607 467.072 196.1828 468.808 197.076 470.544 199.1422 472.28 204.9198 474.016 212.54204 475.752 214.96279 477.488 209.47104 479.224 201.16384 480.96 198.2329 482.696 198.04177 484.432 196.99538 486.168 194.81183 487.904 194.91872 489.64 193.17472"/>
<path transform="matrix(.5,0,0,.5,-15.475397,-34.241)" d="M107.72 294.98548 109.456 293.68223 111.192 291.36775 112.928 290.8865 114.664 292.97297 116.4 292.7396 118.136 292.7386 119.872 297.006 121.608 302.02354 123.344 303.6673 125.08 302.73265 126.816 299.99037 128.552 296.0343 130.288 294.41636 132.024 293.89567 133.76 292.6278 135.496 293.24436 137.232 297.0412 138.968 302.11079 140.704 304.66227 142.44 305.36595 144.176 303.50099 145.912 301.32157 147.648 301.94898 149.384 305.0527 151.12 306.35469 152.856 304.45887 154.592 303.26435 156.328 305.332 158.064 309.05268 159.8 312.4328 161.536 311.02595 163.272 308.21965 165.008 307.40849 166.744 312.50685 168.48 317.20478 170.216 319.4604 171.952 317.7306 173.688 313.05677 175.424 305.0992 177.16 298.27424 178.896 288.88899 180.632 274.3536 182.368 254.64794 184.104 230.90679 185.84 203.75362 187.576 175.61702 189.312 149.20949 191.048 132.0205 192.784 130.07321 194.52 138.09017 196.256 150.97672 197.992 165.4159 199.728 177.85367 201.464 187.78626 203.2 195.41522 204.936 200.02988 206.672 202.17336 208.408 202.86957 210.144 203.12154 211.88 203.14188 213.616 202.22499 215.352 198.24158 217.088 193.32408 218.824 191.67678 220.56 195.1939 222.296 199.59047 224.032 201.53704 225.768 199.63533 227.504 197.12187 229.24 195.70818 230.976 196.56098 232.712 198.4611 234.448 199.35744 236.184 196.27127 237.92 193.11536 239.656 192.32514 241.392 190.5206 243.128 186.94635 244.864 185.68085 246.6 187.0629 248.336 190.56938 250.072 190.5436 251.808 190.24662 253.544 196.96996 255.28 205.5442 257.016 207.44577 258.752 204.46854 260.488 202.84899 262.224 202.9316 263.96 200.10556 265.696 190.94846 267.432 182.39136 269.168 180.32183 270.904 184.33478 272.64 190.57189 274.376 191.80506 276.112 193.25904 277.848 193.83919 279.584 191.05764 281.32 187.31926 283.056 190.68407 284.792 199.52133 286.528 205.69855 288.264 207.16193 290 204.34648 291.736 199.8775 293.472 193.78472 295.208 185.79094 296.944 177.72199 298.68 177.51184 300.416 185.57726 302.152 195.88288 303.888 198.59403 305.624 194.82622 307.36 194.73647 309.096 198.2865 310.832 204.23873 312.568 210.31229 314.304 214.73307 316.04 215.11731 317.776 213.72878 319.512 209.02129 321.248 200.40325 322.984 192.81555 324.72 188.75502 326.456 190.14792 328.192 194.36739 329.928 201.17812 331.664 207.07617 333.4 211.91982 335.136 214.53607 336.872 213.74709 338.608 211.53232 340.344 211.16075 342.08 216.14243 343.816 219.48339 345.552 214.72696 347.288 202.27397 349.024 189.60971 350.76 182.36281 352.496 182.82259 354.232 188.74617 355.968 197.80449 357.704 209.8892 359.44 218.38286 361.176 215.3239 362.912 207.65204 364.648 204.76573 366.384 210.03304 368.12 218.54608 369.856 221.52092 371.592 217.31287 373.328 207.84664 375.064 195.54964 376.8 186.39484 378.536 187.60948 380.272 198.16759 382.008 211.03998 383.744 217.52791 385.48 212.96321 387.216 200.97589 388.952 196.55628 390.688 205.23685 392.424 221.54616 394.16 228.92313 395.896 222.83805 397.632 210.18619 399.368 198.43077 401.104 187.95693 402.84 184.09664 404.576 191.51038 406.312 204.64331 408.048 213.3063 409.784 214.61074 411.52 209.73625 413.256 204.4728 414.992 200.36493 416.728 201.4679 418.464 209.54892 420.2 219.90549 421.936 224.56147 423.672 220.04955 425.408 213.7463 427.144 206.51496 428.88 202.9229 430.616 205.39821 432.352 212.67078 434.088 217.59447 435.824 216.4165 437.56 213.05397 439.296 210.31037 441.032 207.97284 442.768 209.34455 444.504 215.48712 446.24 227.76667 447.976 235.9234 449.712 236.33086 451.448 229.24369 453.184 222.45168 454.92 219.03208 456.656 221.19155 458.392 224.86527 460.128 228.89871 461.864 231.87975 463.6 235.69367 465.336 239.60826 467.072 244.21488 468.808 246.99704 470.544 250.9572 472.28 258.5846 474.016 267.87626 475.752 271.7944 477.488 267.73484 479.224 260.76527 480.96 259.00279 482.696 259.90278 484.432 260.12684 486.168 259.69126 487.904 261.07579 489.64 261.06169V125.28774L487.904 128.76165 486.168 129.9324 484.432 133.86392 482.696 136.18076 480.96 137.463 479.224 141.56243 477.488 151.20725 475.752 158.13115 474.016 157.2078 472.28 151.25504 470.544 147.3272 468.808 147.15496 467.072 148.15074 465.336 147.26386 463.6 147.0359 461.864 146.7543 460.128 146.84206 458.392 145.50057 456.656 144.17459 454.92 143.95583 453.184 149.13579 451.448 157.59108 449.712 166.148 447.976 167.0579 446.24 160.10926 444.504 148.93352 442.768 143.87506 441.032 143.54482 439.296 146.81169 437.56 150.42197 435.824 154.6182 434.088 156.62264 432.352 152.51398 430.616 145.98212 428.88 144.16002 427.144 148.40851 425.408 156.28047 423.672 163.13101 421.936 168.1195 420.2 163.93695 418.464 154.03583 416.728 146.34365 414.992 145.58716 413.256 150.03832 411.52 155.62091 409.784 160.787 408.048 159.76395 406.312 151.35214 404.576 138.44486 402.84 131.25792 401.104 135.35297 399.368 146.03635 397.632 157.98761 395.896 170.82404 394.16 177.08983 392.424 169.88002 390.688 153.7336 388.952 145.21486 387.216 149.8001 385.48 161.95125 383.744 166.67006 382.008 160.3275 380.272 147.60378 378.536 137.19248 376.8 136.11186 375.064 145.40647 373.328 157.84709 371.592 167.44118 369.856 171.7639 368.12 168.90683 366.384 160.50699 364.648 155.34201 362.912 158.32798 361.176 166.09549 359.44 169.24822 357.704 160.84412 355.968 148.84906 354.232 139.88115 352.496 134.04843 350.76 133.67855 349.024 141.01387 347.288 153.76825 345.552 166.30879 343.816 171.14925 342.08 167.88771 340.344 162.98628 338.608 163.4404 336.872 165.73769 335.136 166.60726 333.4 164.07122 331.664 159.30503 329.928 153.48114 328.192 146.74716 326.456 142.60836 324.72 141.29898 322.984 145.4455 321.248 153.11928 319.512 161.82282 317.776 166.61443 316.04 168.0871 314.304 167.78838 312.568 163.45883 310.832 157.47751 309.096 151.61464 307.36 148.15341 305.624 148.33315 303.888 152.18659 302.152 149.55876 300.416 139.33435 298.68 131.35039 296.944 131.64464 295.208 139.79987 293.472 147.883 291.736 154.0656 290 158.62009 288.264 161.51879 286.528 160.14025 284.792 154.04923 283.056 145.30027 281.32 142.02925 279.584 145.86244 277.848 148.73888 276.112 148.24936 274.376 146.88396 272.64 145.74068 270.904 139.59519 269.168 135.66823 267.432 137.82633 265.696 146.47275 263.96 155.7195 262.224 158.63428 260.488 158.64669 258.752 160.36025 257.016 163.42969 255.28 161.61698 253.544 153.13155 251.808 146.49806 250.072 146.88756 248.336 147.00534 246.6 143.58916 244.864 142.29726 243.128 143.65184 241.392 147.314 239.656 149.20967 237.92 150.09333 236.184 153.34163 234.448 156.52419 232.712 155.72679 230.976 153.92823 229.24 153.17972 227.504 154.6949 225.768 157.30924 224.032 159.3115 222.296 157.46915 220.56 153.17885 218.824 149.76944 217.088 151.52548 215.352 156.55358 213.616 160.65062 211.88 161.68256 210.144 161.78594 208.408 161.66172 206.672 161.10143 204.936 159.09757 203.2 154.6196 201.464 147.12323 199.728 137.32546 197.992 125.02544 196.256 110.72541 194.52 97.981128 192.784 90.11187 191.048 92.213237 189.312 109.557758 187.576 136.12728 185.84 164.43128 184.104 191.76079 182.368 215.68154 180.632 235.57469 178.896 250.30463 177.16 259.90309 175.424 266.94877 173.688 275.14036 171.952 280.0604 170.216 282.0511 168.48 280.06327 166.744 275.64564 165.008 270.83918 163.272 271.9508 161.536 275.0658 159.8 276.7918 158.064 273.74128 156.328 270.3607 154.592 268.64128 152.856 270.19145 151.12 272.45637 149.384 271.54624 147.648 268.8516 145.912 268.63423 144.176 271.24324 142.44 273.5514 140.704 273.29154 138.968 271.1874 137.232 266.58567 135.496 263.24757 133.76 263.08079 132.024 264.8171 130.288 265.8403 128.552 267.96177 126.816 272.43156 125.08 275.70808 123.344 277.1981 121.608 276.09669 119.872 271.61598 118.136 267.90156 116.4 268.49095 114.664 269.36149 112.928 267.94178 111.192 269.09184 109.456 272.0743 107.72 274.0747 105.984 274.60383 104.248 274.4345 102.512 274.34486 100.776 274.29203 99.04 273.08168 97.304 271.7424 95.568 272.33314 93.832 273.81037 92.096 274.34193 90.36 274.35408 88.624 275.10206 86.888 276.06968 85.152 276.1355 83.416 276.14909 81.68 276.73759 79.944 276.98466 78.208 276.8119 76.472 277.69953 74.736 279.49559V281.1398L76.472 281.17027 78.208 281.42976 79.944 282.54383 81.68 283.81489 83.416 284.566 85.152 285.77778 86.888 286.9592 88.624 287.12123 90.36 287.35298 92.096 288.26365 93.832 288.64775 95.568 288.1086 97.304 288.33628 99.04 290.3985 100.776 292.3363 102.512 293.10289 104.248 293.88069 105.984 294.77543Z" fill="#bf5700" fill-opacity=".14901962"/>
<path transform="matrix(.5,0,0,.5,-15.475397,-34.241)" d="M499 325V279.5H394.5V325Z" fill="#ffffff"/>
<use data-text="T" xlink:href="#font_0_53" transform="matrix(5.4,0,0,-5.4,200.2746,111.883998)"/>
<use data-text="r" xlink:href="#font_0_83" transform="matrix(5.4,0,0,-5.4,203.57399,111.883998)"/>
<use data-text="u" xlink:href="#font_0_86" transform="matrix(5.4,0,0,-5.4,205.67459,111.883998)"/>
<use data-text="e" xlink:href="#font_0_70" transform="matrix(5.4,0,0,-5.4,208.974,111.883998)"/>
<use data-text=" " xlink:href="#font_0_1" transform="matrix(5.4,0,0,-5.4,211.9764,111.883998)"/>
<use data-text="Q" xlink:href="#font_0_50" transform="matrix(5.4,0,0,-5.4,213.4776,111.883998)"/>
<use data-text="o" xlink:href="#font_0_80" transform="matrix(5.4,0,0,-5.4,217.6788,111.883998)"/>
<use data-text="I" xlink:href="#font_0_42" transform="matrix(5.4,0,0,-5.4,220.9782,111.883998)"/>
<use data-text="s" xlink:href="#font_0_84" transform="matrix(5.4,0,0,-5.4,222.4794,111.883998)"/>
<path transform="matrix(.5,0,0,.5,-15.475397,-34.241)" stroke-width="2.5" stroke-linecap="butt" stroke-dasharray="2,2" stroke-linejoin="bevel" fill="none" stroke="#000000" d="M398.5 288.25H428.5"/>
<use data-text="P" xlink:href="#font_0_49" transform="matrix(5.4,0,0,-5.4,200.2746,118.883998)"/>
<use data-text="r" xlink:href="#font_0_83" transform="matrix(5.4,0,0,-5.4,203.8764,118.883998)"/>
<use data-text="e" xlink:href="#font_0_70" transform="matrix(5.4,0,0,-5.4,205.977,118.883998)"/>
<use data-text="d" xlink:href="#font_0_69" transform="matrix(5.4,0,0,-5.4,208.9794,118.883998)"/>
<use data-text="." xlink:href="#font_0_15" transform="matrix(5.4,0,0,-5.4,212.2788,118.883998)"/>
<use data-text=" " xlink:href="#font_0_1" transform="matrix(5.4,0,0,-5.4,213.78,118.883998)"/>
<use data-text="Q" xlink:href="#font_0_50" transform="matrix(5.4,0,0,-5.4,215.2812,118.883998)"/>
<use data-text="o" xlink:href="#font_0_80" transform="matrix(5.4,0,0,-5.4,219.48239,118.883998)"/>
<use data-text="I" xlink:href="#font_0_42" transform="matrix(5.4,0,0,-5.4,222.7818,118.883998)"/>
<use data-text=" " xlink:href="#font_0_1" transform="matrix(5.4,0,0,-5.4,224.283,118.883998)"/>
<use data-text="#" xlink:href="#font_0_4" transform="matrix(5.4,0,0,-5.4,225.7842,118.883998)"/>
<use data-text="8" xlink:href="#font_0_25" transform="matrix(5.4,0,0,-5.4,228.78659,118.883998)"/>
<path transform="matrix(.5,0,0,.5,-15.475397,-34.241)" stroke-width="2" stroke-linecap="butt" stroke-linejoin="round" fill="none" stroke="#d95319" d="M398.5 302.25H428.5"/>
<use data-text="9" xlink:href="#font_0_26" transform="matrix(5.4,0,0,-5.4,200.2746,125.883998)"/>
<use data-text="5" xlink:href="#font_0_22" transform="matrix(5.4,0,0,-5.4,203.277,125.883998)"/>
<use data-text="%" xlink:href="#font_0_6" transform="matrix(5.4,0,0,-5.4,206.2794,125.883998)"/>
<use data-text=" " xlink:href="#font_0_1" transform="matrix(5.4,0,0,-5.4,211.08,125.883998)"/>
<use data-text="C" xlink:href="#font_0_36" transform="matrix(5.4,0,0,-5.4,212.58119,125.883998)"/>
<use data-text="I" xlink:href="#font_0_42" transform="matrix(5.4,0,0,-5.4,216.48,125.883998)"/>
<use data-text="s" xlink:href="#font_0_84" transform="matrix(5.4,0,0,-5.4,217.9812,125.883998)"/>
<path transform="matrix(.5,0,0,.5,-15.475397,-34.241)" d="M428.5 321.3125V311.1875H398.5V321.3125Z" fill="#bf5700" fill-opacity=".14901962"/>
<path transform="matrix(.5,0,0,.5,-15.475397,-34.241)" stroke-width=".5" stroke-linecap="butt" stroke-miterlimit="10" stroke-linejoin="miter" fill="none" stroke="#262626" d="M394.5 325V279.5H499V325Z"/>
</svg>
