<svg xmlns="http://www.w3.org/2000/svg" xmlns:xlink="http://www.w3.org/1999/xlink" xmlns:inkscape="http://www.inkscape.org/namespaces/inkscape" version="1.1" width="244" height="151" viewBox="0 0 244 151">
<defs>
<path id="font_0_17" d="M.272995 .723999C.19699097 .723999 .13198853 .69200137 .08898926 .6329956 .04798889 .5779877 .0289917 .48799134 .0289917 .34999085 .0289917 .22399903 .04499817 .13598633 .07899475 .08198547 .12098694 .01399231 .18998719-.023010254 .272995-.023010254 .34999085-.023010254 .41299439 .0079956059 .45700074 .066986087 .49699403 .12199402 .5169983 .21299744 .5169983 .34599305 .5169983 .47599793 .5009918 .56399539 .46699525 .61898806 .4249878 .68699648 .35598756 .723999 .272995 .723999M.272995 .61099246C.30899049 .61099246 .33799745 .59098818 .35499574 .55400088 .36898805 .5239868 .3769989 .44699098 .3769989 .34899903 .3769989 .2689972 .36999513 .19099427 .35899354 .1619873 .34298707 .11999512 .31298829 .09700012 .272995 .09700012 .23599243 .09700012 .20799256 .115997318 .19099427 .1519928 .1769867 .18199158 .16899109 .2559967 .16899109 .35099793 .16899109 .43499757 .17599488 .5149994 .18699646 .5439911 .20199585 .58699038 .23298645 .61099246 .272995 .61099246Z"/>
<path id="font_0_22" d="M.4889984 .70899966H.10998535L.04699707 .31399537H.17298889C.18798828 .34899903 .21998596 .36799623 .2630005 .36799623 .33399964 .36799623 .3769989 .31698609 .3769989 .23098755 .3769989 .147995 .33399964 .09700012 .2630005 .09700012 .20199585 .09700012 .16799927 .12799073 .16499329 .18499756H.026992798C.0289917 .06098938 .12298584-.023010254 .26098634-.023010254 .41299439-.023010254 .5169983 .08099365 .5169983 .23399353 .5169983 .37998963 .4269867 .47898866 .29599 .47898866 .24899292 .47898866 .21398926 .46699525 .17298889 .43598939L.19599915 .58399966H.4889984V.70899966Z"/>
<path id="font_0_18" d="M.23799134 .4889984V0H.37799073V.70899966H.2849884C.2630005 .625 .18998719 .58200076 .067993167 .58200076V.4889984H.23799134Z"/>
<path id="font_0_19" d="M.5119934 .125H.21099854C.22999573 .16299439 .2519989 .18399048 .35598756 .25898744 .47898866 .34899903 .5149994 .4019928 .5149994 .49899293 .5149994 .6359863 .41999818 .723999 .27198792 .723999 .125 .723999 .038986207 .6369934 .038986207 .4869995V.46199037H.17399597V.4850006C.17399597 .56399539 .21099854 .6100006 .2749939 .6100006 .33699037 .6100006 .375 .5669861 .375 .49598695 .375 .4169922 .35099793 .3880005 .19299317 .27598573 .07299805 .19400025 .035995485 .13198853 .02999878 0H.5119934V.125Z"/>
<path id="font_0_53" d="M.3849945 .60398867H.59799197V.72898867H.01399231V.60398867H.23498535V0H.3849945V.60398867Z"/>
<path id="font_0_74" d="M.20698548 .5399933H.066986087V0H.20698548V.5399933M.20698548 .72898867H.066986087V.60398867H.20698548V.72898867Z"/>
<path id="font_0_78" d="M.05999756 .5399933V0H.19999695V.32398988C.19999695 .3909912 .23599243 .42999269 .29599 .42999269 .34298707 .42999269 .37199403 .40299989 .37199403 .3600006V0H.5119934V.32398988C.5119934 .3899994 .5479889 .42999269 .60798647 .42999269 .6549988 .42999269 .6839905 .40299989 .6839905 .3600006V0H.82398989V.38198854C.82398989 .4869995 .7599945 .548996 .6519928 .548996 .58299258 .548996 .5359955 .5249939 .49398805 .46899415 .46798707 .519989 .4139862 .548996 .34700013 .548996 .2849884 .548996 .24499512 .5289917 .19898987 .47299195V.5399933H.05999756Z"/>
<path id="font_0_70" d="M.5239868 .22599793C.5249939 .23799134 .5249939 .24299622 .5249939 .25 .5249939 .3039856 .5169983 .35398866 .5039978 .3919983 .46798707 .48999024 .3809967 .548996 .27198792 .548996 .116989139 .548996 .021987915 .43699647 .021987915 .2559967 .021987915 .08299255 .115997318-.023010254 .2689972-.023010254 .3899994-.023010254 .48799134 .04499817 .5189972 .1519928H.3809967C.3639984 .10899353 .32499696 .083999637 .27398683 .083999637 .23399353 .083999637 .20199585 .100997928 .18199158 .1309967 .16899109 .15098572 .1639862 .1749878 .1619873 .22599793H.5239868M.1639862 .31900025C.17298889 .4019928 .20799256 .44198609 .269989 .44198609 .33399964 .44198609 .37199403 .39898683 .3789978 .31900025H.1639862Z"/>
<path id="font_0_1" d="M0 0Z"/>
<path id="font_0_9" d="M.20298767 .72898867C.08799744 .5549927 .039993287 .4189911 .039993287 .2649994 .039993287 .10998535 .08799744-.026000977 .20298767-.2000122H.30299378C.19599915 .005996704 .16299439 .116989139 .16299439 .2649994 .16299439 .4119873 .19699097 .5249939 .30299378 .72898867H.20298767Z"/>
<path id="font_0_84" d="M.5049896 .3659973C.5029907 .47999574 .4149933 .548996 .269989 .548996 .1329956 .548996 .04798889 .47999574 .04798889 .36898805 .04798889 .33299256 .05899048 .3019867 .07798767 .2809906 .09700012 .2619934 .11399841 .25299073 .1659851 .23599243L.33299256 .18399048C.36799623 .17298889 .37998963 .1619873 .37998963 .13999939 .37998963 .10699463 .34098817 .08699036 .27598573 .08699036 .23899842 .08699036 .21099854 .09298706 .19299317 .10598755 .17799378 .116989139 .17199707 .12799073 .1659851 .15699768H.0289917C.032989503 .037994386 .11999512-.023010254 .28399659-.023010254 .35899354-.023010254 .41600038-.007003784 .45599366 .024993897 .49598695 .056991579 .519989 .10699463 .519989 .1599884 .519989 .22999573 .4850006 .2749939 .4139862 .29599L.23699951 .34700013C.19799805 .35899354 .18798828 .36698915 .18798828 .3889923 .18798828 .4189911 .21998596 .43899537 .2689972 .43899537 .33599855 .43899537 .36898805 .4149933 .36999513 .3659973H.5049896Z"/>
<path id="font_0_10" d="M.12199402-.2000122C.23699951-.026000977 .2849884 .10998535 .2849884 .2639923 .2849884 .4189911 .23699951 .5549927 .12199402 .72898867H.021987915C.1289978 .522995 .1619873 .4119873 .1619873 .2639923 .1619873 .116989139 .12799073 .0039978029 .021987915-.2000122H.12199402Z"/>
<path id="font_0_14" d="M.2979889 .34199525H.025985718V.20698548H.2979889V.34199525Z"/>
<path id="font_0_15" d="M.21398926 .1459961H.06399536V0H.21398926V.1459961Z"/>
<path id="font_0_56" d="M.7299957 0 .9319916 .72898867H.772995L.6639862 .18199158 .54599 .72898867H.397995L.2849884 .18299866 .17199707 .72898867H.0129852299L.21899414 0H.35398866L.47299195 .56900027 .59498599 0H.7299957Z"/>
<path id="font_0_66" d="M.5239868 .016998291C.5 .039993287 .49198915 .055999757 .49198915 .08299255V.3829956C.49198915 .49299623 .4169922 .548996 .2709961 .548996 .125 .548996 .04899597 .4869995 .039993287 .3619995H.1749878C.18199158 .41799928 .20498657 .43598939 .27398683 .43598939 .32798768 .43598939 .35499574 .41799928 .35499574 .38198854 .35499574 .3639984 .34599305 .34899903 .33099366 .33999635 .31199647 .32998658 .31199647 .32998658 .24299622 .31900025L.18699646 .30899049C.07998657 .29100038 .027999878 .23599243 .027999878 .13899231 .027999878 .041992189 .09298706-.023010254 .19198609-.023010254 .2519989-.023010254 .30599977 .0019989014 .35598756 .053985597 .35598756 .025985718 .35899354 .015991211 .37199403 0H.5239868V.016998291M.35499574 .21699524C.35499574 .13598633 .31498719 .08999634 .24398804 .08999634 .19699097 .08999634 .16799927 .114990238 .16799927 .15499878 .16799927 .19699097 .18998719 .21699524 .24798584 .22898865L.29599 .23799134C.33299256 .24499512 .33898927 .24699402 .35499574 .25498963V.21699524Z"/>
<path id="font_0_87" d="M.34999085 0 .5359955 .5399933H.3880005L.2789917 .14498902 .1619873 .5399933H.01399231L.20298767 0H.34999085Z"/>
<path id="font_0_73" d="M.066986087 .72898867V0H.20698548V.32398988C.20698548 .38598634 .2519989 .42999269 .31498719 .42999269 .34599305 .42999269 .36898805 .4189911 .3849945 .39698792 .397995 .3789978 .40098573 .3639984 .40098573 .32998658V0H.54100039V.3619995C.54100039 .42900086 .522995 .47698976 .48599244 .5079956 .45498658 .5339966 .4099884 .548996 .36499024 .548996 .29599 .548996 .24598694 .5219879 .20698548 .46199037V.72898867H.066986087Z"/>
<path id="font_0_72" d="M.3999939 .5399933V.45700074C.36099244 .519989 .31799317 .548996 .26098634 .548996 .21299744 .548996 .1599884 .5249939 .12298584 .48599244 .068984989 .42999269 .040985109 .35198976 .040985109 .25698854 .040985109 .09098816 .1289978-.023010254 .2579956-.023010254 .31599427-.023010254 .35099793-.0040130617 .3999939 .054992677V-.018005372C.3999939-.08300781 .35398866-.12800598 .28799439-.12800598 .23799134-.12800598 .20698548-.10600281 .19599915-.06500244H.051986696C.052993776-.10700989 .067993167-.13600159 .10499573-.16600037 .147995-.20100403 .20698548-.21800232 .2829895-.21800232 .43899537-.21800232 .5329895-.14300537 .5329895-.018005372V.5399933H.3999939M.2869873 .43199159C.35299684 .43199159 .4019928 .35899354 .4019928 .25898744 .4019928 .16099549 .35499574 .09399414 .2849884 .09399414 .22399903 .09399414 .18099976 .16099549 .18099976 .25898744 .18099976 .36099244 .22399903 .43199159 .2869873 .43199159Z"/>
<path id="font_0_85" d="M.30099488 .5289917H.22299195V.673996H.08299255V.5289917H.01399231V.43598939H.08299255V.10398865C.08299255 .018997193 .12799073-.023010254 .21998596-.023010254 .2519989-.023010254 .2749939-.020004273 .30099488-.012008667V.085998538C.2869873 .083999637 .27999879 .08299255 .2689972 .08299255 .23199463 .08299255 .22299195 .09399414 .22299195 .14199829V.43598939H.30099488V.5289917Z"/>
<path id="font_0_83" d="M.06298828 .5399933V0H.20298767V.2869873C.20298767 .36898805 .24398804 .4099884 .32598878 .4099884 .34098817 .4099884 .35099793 .40899659 .36999513 .4059906V.5479889C.3619995 .548996 .35899354 .548996 .35299684 .548996 .2889862 .548996 .23399353 .5069885 .20298767 .43399049V.5399933H.06298828Z"/>
<path id="font_0_86" d="M.54100039 0V.5399933H.40098573V.20199585C.40098573 .13798523 .35699464 .09599304 .28799439 .09599304 .22799683 .09599304 .19799805 .12799073 .19799805 .19299317V.5399933H.057998659V.1639862C.057998659 .04399109 .12298584-.023010254 .23899842-.023010254 .31199647-.023010254 .36099244 .0029907227 .40098573 .06399536V0H.54100039Z"/>
<path id="font_0_50" d="M.6649933 .102996829C.71398928 .16299439 .7449951 .2630005 .7449951 .36099244 .7449951 .46798707 .70700076 .57099917 .6429901 .6399994 .5799866 .70799258 .49798585 .7409973 .3939972 .7409973 .2899933 .7409973 .20799256 .70799258 .14498902 .6399994 .07998657 .57099917 .042999269 .46798707 .042999269 .35899354 .042999269 .25 .08099365 .14698792 .14498902 .07798767 .20799256 .009994507 .2899933-.023010254 .3939972-.023010254 .46998597-.023010254 .5249939-.008010864 .58299258 .026992798L.6689911-.054000856 .7449951 .026992798 .6649933 .102996829M.47999574 .27799989 .4039917 .19699097 .48098756 .12399292C.45700074 .11199951 .4249878 .10499573 .3929901 .10499573 .272995 .10499573 .19299317 .20599365 .19299317 .35899354 .19299317 .5130005 .27198792 .61299136 .3939972 .61299136 .5159912 .61299136 .59498599 .5130005 .59498599 .35798646 .59498599 .2979889 .58399966 .24398804 .56199648 .19999695L.47999574 .27799989Z"/>
<path id="font_0_80" d="M.30099488 .548996C.13598633 .548996 .034988405 .43998719 .034988405 .2630005 .034988405 .084991458 .13598633-.023010254 .3019867-.023010254 .46699525-.023010254 .56900027 .084991458 .56900027 .25898744 .56900027 .44198609 .46998597 .548996 .30099488 .548996M.3019867 .43598939C.3789978 .43598939 .42900086 .36698915 .42900086 .26098634 .42900086 .1599884 .3769989 .08999634 .3019867 .08999634 .22599793 .08999634 .1749878 .15899658 .1749878 .2630005 .1749878 .36698915 .22599793 .43598939 .3019867 .43598939Z"/>
<path id="font_0_42" d="M.21299744 .72898867H.06298828V0H.21299744V.72898867Z"/>
<path id="font_0_49" d="M.22599793 .2599945H.41299439C.5469971 .2599945 .6329956 .35499574 .6329956 .5029907 .6329956 .6489868 .5499878 .72898867 .397995 .72898867H.07598877V0H.22599793V.2599945M.22599793 .3849945V.60398867H.3659973C.44599916 .60398867 .48298646 .56900027 .48298646 .49499513 .48298646 .41999818 .44599916 .3849945 .3659973 .3849945H.22599793Z"/>
<path id="font_0_69" d="M.40499879 0H.54499819V.72898867H.40499879V.46998597C.36999513 .5239868 .32398988 .548996 .2559967 .548996 .1269989 .548996 .0289917 .4249878 .0289917 .2619934 .0289917 .18899536 .050994874 .114990238 .08699036 .06298828 .12399292 .009994507 .18998719-.023010254 .2559967-.023010254 .32398988-.023010254 .36999513 .0009918213 .40499879 .054992677V0M.2869873 .43199159C.35798646 .43199159 .40499879 .3639984 .40499879 .2599945 .40499879 .1619873 .35699464 .09399414 .2869873 .09399414 .21699524 .09399414 .16899109 .16299439 .16899109 .2619934 .16899109 .36299134 .21699524 .43199159 .2869873 .43199159Z"/>
<path id="font_0_4" d="M.1459961-.03201294 .18598938 .17199707H.2889862L.24899292-.03201294H.35398866L.3939972 .17199707H.5130005V.2709961H.41299439L.44400025 .42399598H.5529938V.522995H.46299745L.49699403 .69699099H.3919983L.35798646 .522995H.25498963L.2889862 .69699099H.18399048L.1499939 .522995H.0309906V.42399598H.12998963L.099990848 .2709961H.0029907227V.17199707H.07998657L.039993287-.03201294H.1459961M.20498657 .2709961 .23498535 .42399598H.33799745L.30799867 .2709961H.20498657Z"/>
<path id="font_0_26" d="M.037994386 .16499329C.040985109 .055999757 .1329956-.024002076 .25498963-.024002076 .34599305-.024002076 .4149933 .01399231 .45700074 .085998538 .49398805 .14898682 .5159912 .2559967 .5159912 .36999513 .5159912 .47399903 .5 .55400088 .46699525 .60798647 .42199708 .6839905 .35198976 .723999 .2669983 .723999 .125 .723999 .027999878 .621994 .027999878 .47399903 .027999878 .32798768 .11399841 .22799683 .23999024 .22799683 .27598573 .22799683 .30999757 .23799134 .33198548 .2539978 .34498597 .2630005 .35299684 .27198792 .37599183 .2979889 .37599183 .16099549 .33799745 .09599304 .25898744 .09599304 .20899964 .09599304 .17599488 .12298584 .17298889 .16499329H.037994386M.2630005 .6100006C.33099366 .6100006 .37298585 .55799868 .37298585 .47399903 .37298585 .3959961 .32998658 .34399415 .2649994 .34399415 .20098877 .34399415 .16099549 .3939972 .16099549 .47599793 .16099549 .55799868 .19999695 .6100006 .2630005 .6100006Z"/>
<path id="font_0_6" d="M.20599365 .70098879C.10499573 .70098879 .021987915 .61898806 .021987915 .5189972 .021987915 .4189911 .10499573 .33699037 .20599365 .33699037 .30699159 .33699037 .3899994 .41799928 .3899994 .5169983 .3899994 .6199951 .30899049 .70098879 .20599365 .70098879M.20599365 .60198977C.2539978 .60198977 .29100038 .5649872 .29100038 .5179901 .29100038 .47200013 .25299073 .43499757 .20599365 .43499757 .15899658 .43499757 .12098694 .47200013 .12098694 .5189972 .12098694 .5649872 .15899658 .60198977 .20599365 .60198977M.60598757 .70899966 .20999146-.020004273H.2869873L.6819916 .70899966H.60598757M.67900088 .35198976C.57699587 .35198976 .49499513 .269989 .49499513 .16999817 .49499513 .068984989 .57699587-.013000488 .67900088-.013000488 .7799988-.013000488 .86299136 .068984989 .86299136 .16699219 .86299136 .2709961 .7819977 .35198976 .67900088 .35198976M.67900088 .25299073C.72698977 .25299073 .7639923 .21598816 .7639923 .16799927 .7639923 .12298584 .72499087 .084991458 .67900088 .084991458 .6319885 .084991458 .59399417 .12298584 .59399417 .16899109 .59399417 .21499634 .6319885 .25299073 .67900088 .25299073Z"/>
<path id="font_0_36" d="M.6819916 .48199464C.6769867 .54499819 .6639862 .58499148 .6329956 .6259918 .57699587 .69999697 .4869995 .7409973 .37799073 .7409973 .17199707 .7409973 .04399109 .59399417 .04399109 .35798646 .04399109 .12298584 .17098999-.023010254 .37399293-.023010254 .55599978-.023010254 .6759949 .08198547 .68499758 .24899292H.5389862C.5289917 .1559906 .47099305 .102996829 .37799073 .102996829 .2619934 .102996829 .19400025 .19699097 .19400025 .35598756 .19400025 .5169983 .2649994 .61299136 .3829956 .61299136 .46998597 .61299136 .5189972 .57099917 .5389862 .48199464H.6819916Z"/>
</defs>
<path transform="matrix(.5,0,0,.5,-15.475397,-34.241)" d="M0 0H1120V840H0Z" fill="#ffffff"/>
<path transform="matrix(.5,0,0,.5,-15.475397,-34.241)" d="M73 332.95H507V72.55H73Z" fill="#ffffff"/>
<path transform="matrix(.5,0,0,.5,-15.475397,-34.241)" stroke-width=".5" stroke-linecap="butt" stroke-linejoin="round" fill="none" stroke="#262626" stroke-opacity=".14901962" d="M73 332.95V72.55"/>
<path transform="matrix(.5,0,0,.5,-15.475397,-34.241)" stroke-width=".5" stroke-linecap="butt" stroke-linejoin="round" fill="none" stroke="#262626" stroke-opacity=".14901962" d="M159.8 332.95V72.55"/>
<path transform="matrix(.5,0,0,.5,-15.475397,-34.241)" stroke-width=".5" stroke-linecap="butt" stroke-linejoin="round" fill="none" stroke="#262626" stroke-opacity=".14901962" d="M246.6 332.95V72.55"/>
<path transform="matrix(.5,0,0,.5,-15.475397,-34.241)" stroke-width=".5" stroke-linecap="butt" stroke-linejoin="round" fill="none" stroke="#262626" stroke-opacity=".14901962" d="M333.4 332.95V72.55"/>
<path transform="matrix(.5,0,0,.5,-15.475397,-34.241)" stroke-width=".5" stroke-linecap="butt" stroke-linejoin="round" fill="none" stroke="#262626" stroke-opacity=".14901962" d="M420.2 332.95V72.55"/>
<path transform="matrix(.5,0,0,.5,-15.475397,-34.241)" stroke-width=".5" stroke-linecap="butt" stroke-linejoin="round" fill="none" stroke="#262626" stroke-opacity=".14901962" d="M507 332.95V72.55"/>
<path transform="matrix(.5,0,0,.5,-15.475397,-34.241)" stroke-width=".5" stroke-linecap="butt" stroke-linejoin="round" fill="none" stroke="#262626" stroke-opacity=".14901962" d="M507 332.95H73"/>
<path transform="matrix(.5,0,0,.5,-15.475397,-34.241)" stroke-width=".5" stroke-linecap="butt" stroke-linejoin="round" fill="none" stroke="#262626" stroke-opacity=".14901962" d="M507 280.87H73"/>
<path transform="matrix(.5,0,0,.5,-15.475397,-34.241)" stroke-width=".5" stroke-linecap="butt" stroke-linejoin="round" fill="none" stroke="#262626" stroke-opacity=".14901962" d="M507 228.79H73"/>
<path transform="matrix(.5,0,0,.5,-15.475397,-34.241)" stroke-width=".5" stroke-linecap="butt" stroke-linejoin="round" fill="none" stroke="#262626" stroke-opacity=".14901962" d="M507 176.71H73"/>
<path transform="matrix(.5,0,0,.5,-15.475397,-34.241)" stroke-width=".5" stroke-linecap="butt" stroke-linejoin="round" fill="none" stroke="#262626" stroke-opacity=".14901962" d="M507 124.63H73"/>
<path transform="matrix(.5,0,0,.5,-15.475397,-34.241)" stroke-width=".5" stroke-linecap="butt" stroke-linejoin="round" fill="none" stroke="#262626" stroke-opacity=".14901962" d="M507 72.55H73"/>
<path transform="matrix(.5,0,0,.5,-15.475397,-34.241)" stroke-width=".5" stroke-linecap="square" stroke-linejoin="round" fill="none" stroke="#262626" d="M73 332.95H507"/>
<path transform="matrix(.5,0,0,.5,-15.475397,-34.241)" stroke-width=".5" stroke-linecap="square" stroke-linejoin="round" fill="none" stroke="#262626" d="M73 72.55H507"/>
<path transform="matrix(.5,0,0,.5,-15.475397,-34.241)" stroke-width=".5" stroke-linecap="square" stroke-linejoin="round" fill="none" stroke="#262626" d="M73 332.95V328.61003"/>
<path transform="matrix(.5,0,0,.5,-15.475397,-34.241)" stroke-width=".5" stroke-linecap="square" stroke-linejoin="round" fill="none" stroke="#262626" d="M159.8 332.95V328.61003"/>
<path transform="matrix(.5,0,0,.5,-15.475397,-34.241)" stroke-width=".5" stroke-linecap="square" stroke-linejoin="round" fill="none" stroke="#262626" d="M246.6 332.95V328.61003"/>
<path transform="matrix(.5,0,0,.5,-15.475397,-34.241)" stroke-width=".5" stroke-linecap="square" stroke-linejoin="round" fill="none" stroke="#262626" d="M333.4 332.95V328.61003"/>
<path transform="matrix(.5,0,0,.5,-15.475397,-34.241)" stroke-width=".5" stroke-linecap="square" stroke-linejoin="round" fill="none" stroke="#262626" d="M420.2 332.95V328.61003"/>
<path transform="matrix(.5,0,0,.5,-15.475397,-34.241)" stroke-width=".5" stroke-linecap="square" stroke-linejoin="round" fill="none" stroke="#262626" d="M507 332.95V328.61003"/>
<path transform="matrix(.5,0,0,.5,-15.475397,-34.241)" stroke-width=".5" stroke-linecap="square" stroke-linejoin="round" fill="none" stroke="#262626" d="M73 72.55V76.89"/>
<path transform="matrix(.5,0,0,.5,-15.475397,-34.241)" stroke-width=".5" stroke-linecap="square" stroke-linejoin="round" fill="none" stroke="#262626" d="M159.8 72.55V76.89"/>
<path transform="matrix(.5,0,0,.5,-15.475397,-34.241)" stroke-width=".5" stroke-linecap="square" stroke-linejoin="round" fill="none" stroke="#262626" d="M246.6 72.55V76.89"/>
<path transform="matrix(.5,0,0,.5,-15.475397,-34.241)" stroke-width=".5" stroke-linecap="square" stroke-linejoin="round" fill="none" stroke="#262626" d="M333.4 72.55V76.89"/>
<path transform="matrix(.5,0,0,.5,-15.475397,-34.241)" stroke-width=".5" stroke-linecap="square" stroke-linejoin="round" fill="none" stroke="#262626" d="M420.2 72.55V76.89"/>
<path transform="matrix(.5,0,0,.5,-15.475397,-34.241)" stroke-width=".5" stroke-linecap="square" stroke-linejoin="round" fill="none" stroke="#262626" d="M507 72.55V76.89"/>
<use data-text="0" xlink:href="#font_0_17" transform="matrix(6,0,0,-6,19.274603,140.434)" fill="#262626"/>
<use data-text="5" xlink:href="#font_0_22" transform="matrix(6,0,0,-6,60.924608,140.434)" fill="#262626"/>
<use data-text="0" xlink:href="#font_0_17" transform="matrix(6,0,0,-6,64.260608,140.434)" fill="#262626"/>
<use data-text="1" xlink:href="#font_0_18" transform="matrix(6,0,0,-6,102.57461,140.434)" fill="#262626"/>
<use data-text="0" xlink:href="#font_0_17" transform="matrix(6,0,0,-6,105.91061,140.434)" fill="#262626"/>
<use data-text="0" xlink:href="#font_0_17" transform="matrix(6,0,0,-6,109.24661,140.434)" fill="#262626"/>
<use data-text="1" xlink:href="#font_0_18" transform="matrix(6,0,0,-6,145.9746,140.434)" fill="#262626"/>
<use data-text="5" xlink:href="#font_0_22" transform="matrix(6,0,0,-6,149.3106,140.434)" fill="#262626"/>
<use data-text="0" xlink:href="#font_0_17" transform="matrix(6,0,0,-6,152.64659,140.434)" fill="#262626"/>
<use data-text="2" xlink:href="#font_0_19" transform="matrix(6,0,0,-6,189.3746,140.434)" fill="#262626"/>
<use data-text="0" xlink:href="#font_0_17" transform="matrix(6,0,0,-6,192.7106,140.434)" fill="#262626"/>
<use data-text="0" xlink:href="#font_0_17" transform="matrix(6,0,0,-6,196.0466,140.434)" fill="#262626"/>
<use data-text="2" xlink:href="#font_0_19" transform="matrix(6,0,0,-6,232.7746,140.434)" fill="#262626"/>
<use data-text="5" xlink:href="#font_0_22" transform="matrix(6,0,0,-6,236.1106,140.434)" fill="#262626"/>
<use data-text="0" xlink:href="#font_0_17" transform="matrix(6,0,0,-6,239.4466,140.434)" fill="#262626"/>
<use data-text="T" xlink:href="#font_0_53" transform="matrix(6.6,0,0,-6.6,117.024707,148.934)" fill="#262626"/>
<use data-text="i" xlink:href="#font_0_74" transform="matrix(6.6,0,0,-6.6,121.057308,148.934)" fill="#262626"/>
<use data-text="m" xlink:href="#font_0_78" transform="matrix(6.6,0,0,-6.6,122.892108,148.934)" fill="#262626"/>
<use data-text="e" xlink:href="#font_0_70" transform="matrix(6.6,0,0,-6.6,128.7595,148.934)" fill="#262626"/>
<use data-text=" " xlink:href="#font_0_1" transform="matrix(6.6,0,0,-6.6,132.42911,148.934)" fill="#262626"/>
<use data-text="(" xlink:href="#font_0_9" transform="matrix(6.6,0,0,-6.6,134.2639,148.934)" fill="#262626"/>
<use data-text="s" xlink:href="#font_0_84" transform="matrix(6.6,0,0,-6.6,136.4617,148.934)" fill="#262626"/>
<use data-text=")" xlink:href="#font_0_10" transform="matrix(6.6,0,0,-6.6,140.1313,148.934)" fill="#262626"/>
<path transform="matrix(.5,0,0,.5,-15.475397,-34.241)" stroke-width=".5" stroke-linecap="square" stroke-linejoin="round" fill="none" stroke="#262626" d="M73 332.95V72.55"/>
<path transform="matrix(.5,0,0,.5,-15.475397,-34.241)" stroke-width=".5" stroke-linecap="square" stroke-linejoin="round" fill="none" stroke="#262626" d="M507 332.95V72.55"/>
<path transform="matrix(.5,0,0,.5,-15.475397,-34.241)" stroke-width=".5" stroke-linecap="square" stroke-linejoin="round" fill="none" stroke="#262626" d="M73 332.95H77.34"/>
<path transform="matrix(.5,0,0,.5,-15.475397,-34.241)" stroke-width=".5" stroke-linecap="square" stroke-linejoin="round" fill="none" stroke="#262626" d="M73 280.87H77.34"/>
<path transform="matrix(.5,0,0,.5,-15.475397,-34.241)" stroke-width=".5" stroke-linecap="square" stroke-linejoin="round" fill="none" stroke="#262626" d="M73 228.79H77.34"/>
<path transform="matrix(.5,0,0,.5,-15.475397,-34.241)" stroke-width=".5" stroke-linecap="square" stroke-linejoin="round" fill="none" stroke="#262626" d="M73 176.71H77.34"/>
<path transform="matrix(.5,0,0,.5,-15.475397,-34.241)" stroke-width=".5" stroke-linecap="square" stroke-linejoin="round" fill="none" stroke="#262626" d="M73 124.63H77.34"/>
<path transform="matrix(.5,0,0,.5,-15.475397,-34.241)" stroke-width=".5" stroke-linecap="square" stroke-linejoin="round" fill="none" stroke="#262626" d="M73 72.55H77.34"/>
<path transform="matrix(.5,0,0,.5,-15.475397,-34.241)" stroke-width=".5" stroke-linecap="square" stroke-linejoin="round" fill="none" stroke="#262626" d="M507 332.95H502.66"/>
<path transform="matrix(.5,0,0,.5,-15.475397,-34.241)" stroke-width=".5" stroke-linecap="square" stroke-linejoin="round" fill="none" stroke="#262626" d="M507 280.87H502.66"/>
<path transform="matrix(.5,0,0,.5,-15.475397,-34.241)" stroke-width=".5" stroke-linecap="square" stroke-linejoin="round" fill="none" stroke="#262626" d="M507 228.79H502.66"/>
<path transform="matrix(.5,0,0,.5,-15.475397,-34.241)" stroke-width=".5" stroke-linecap="square" stroke-linejoin="round" fill="none" stroke="#262626" d="M507 176.71H502.66"/>
<path transform="matrix(.5,0,0,.5,-15.475397,-34.241)" stroke-width=".5" stroke-linecap="square" stroke-linejoin="round" fill="none" stroke="#262626" d="M507 124.63H502.66"/>
<path transform="matrix(.5,0,0,.5,-15.475397,-34.241)" stroke-width=".5" stroke-linecap="square" stroke-linejoin="round" fill="none" stroke="#262626" d="M507 72.55H502.66"/>
<use data-text="-" xlink:href="#font_0_14" transform="matrix(6,0,0,-6,7.824602,134.48401)" fill="#262626"/>
<use data-text="0" xlink:href="#font_0_17" transform="matrix(6,0,0,-6,9.822602,134.48401)" fill="#262626"/>
<use data-text="." xlink:href="#font_0_15" transform="matrix(6,0,0,-6,13.158603,134.48401)" fill="#262626"/>
<use data-text="5" xlink:href="#font_0_22" transform="matrix(6,0,0,-6,14.826603,134.48401)" fill="#262626"/>
<use data-text="0" xlink:href="#font_0_17" transform="matrix(6,0,0,-6,15.324602,108.44399)" fill="#262626"/>
<use data-text="0" xlink:href="#font_0_17" transform="matrix(6,0,0,-6,10.324602,82.40399)" fill="#262626"/>
<use data-text="." xlink:href="#font_0_15" transform="matrix(6,0,0,-6,13.660603,82.40399)" fill="#262626"/>
<use data-text="5" xlink:href="#font_0_22" transform="matrix(6,0,0,-6,15.328603,82.40399)" fill="#262626"/>
<use data-text="1" xlink:href="#font_0_18" transform="matrix(6,0,0,-6,15.324602,56.364004)" fill="#262626"/>
<use data-text="1" xlink:href="#font_0_18" transform="matrix(6,0,0,-6,10.324602,30.323998)" fill="#262626"/>
<use data-text="." xlink:href="#font_0_15" transform="matrix(6,0,0,-6,13.660603,30.323998)" fill="#262626"/>
<use data-text="5" xlink:href="#font_0_22" transform="matrix(6,0,0,-6,15.328603,30.323998)" fill="#262626"/>
<use data-text="2" xlink:href="#font_0_19" transform="matrix(6,0,0,-6,15.324602,4.2840006)" fill="#262626"/>
<use data-text="W" xlink:href="#font_0_56" transform="matrix(-.00000028050003,-6.6,-6.6,.00000028050003,4.824603,92.383937)" fill="#262626"/>
<use data-text="a" xlink:href="#font_0_66" transform="matrix(-.00000028050003,-6.6,-6.6,.00000028050003,4.824603,86.153537)" fill="#262626"/>
<use data-text="v" xlink:href="#font_0_87" transform="matrix(-.00000028050003,-6.6,-6.6,.00000028050003,4.8246028,82.48393)" fill="#262626"/>
<use data-text="e" xlink:href="#font_0_70" transform="matrix(-.00000028050003,-6.6,-6.6,.00000028050003,4.8246028,78.81433)" fill="#262626"/>
<use data-text=" " xlink:href="#font_0_1" transform="matrix(-.00000028050003,-6.6,-6.6,.00000028050003,4.8246028,75.14473)" fill="#262626"/>
<use data-text="h" xlink:href="#font_0_73" transform="matrix(-.00000028050003,-6.6,-6.6,.00000028050003,4.824602,73.30993)" fill="#262626"/>
<use data-text="e" xlink:href="#font_0_70" transform="matrix(-.00000028050003,-6.6,-6.6,.00000028050003,4.824602,69.27733)" fill="#262626"/>
<use data-text="i" xlink:href="#font_0_74" transform="matrix(-.00000028050003,-6.6,-6.6,.00000028050003,4.824602,65.607738)" fill="#262626"/>
<use data-text="g" xlink:href="#font_0_72" transform="matrix(-.00000028050003,-6.6,-6.6,.00000028050003,4.824602,63.772935)" fill="#262626"/>
<use data-text="h" xlink:href="#font_0_73" transform="matrix(-.00000028050003,-6.6,-6.6,.00000028050003,4.8246018,59.740335)" fill="#262626"/>
<use data-text="t" xlink:href="#font_0_85" transform="matrix(-.00000028050003,-6.6,-6.6,.00000028050003,4.8246018,55.707735)" fill="#262626"/>
<use data-text=" " xlink:href="#font_0_1" transform="matrix(-.00000028050003,-6.6,-6.6,.00000028050003,4.8246018,53.509935)" fill="#262626"/>
<use data-text="(" xlink:href="#font_0_9" transform="matrix(-.00000028050003,-6.6,-6.6,.00000028050003,4.824601,51.675134)" fill="#262626"/>
<use data-text="m" xlink:href="#font_0_78" transform="matrix(-.00000028050003,-6.6,-6.6,.00000028050003,4.824601,49.477334)" fill="#262626"/>
<use data-text=")" xlink:href="#font_0_10" transform="matrix(-.00000028050003,-6.6,-6.6,.00000028050003,4.824601,43.609933)" fill="#262626"/>
<path transform="matrix(.5,0,0,.5,-15.475397,-34.241)" stroke-width="2.5" stroke-linecap="butt" stroke-dasharray="2,2" stroke-linejoin="bevel" fill="none" stroke="#000000" d="M74.736 280.87H76.472 78.208 79.944 81.68 83.416 85.152 86.888 88.624 90.36 92.096 93.832 95.568 97.304 99.04 100.776 102.512 104.248L105.984 280.87049 107.72 280.87788 109.456 280.89353 111.192 280.9095 112.928 280.91859 114.664 280.92048 116.4 280.91325 118.136 280.868 119.872 280.80793 121.608 280.77516 123.344 280.74909 125.08 280.71208 126.816 280.71675 128.552 280.8059 130.288 280.8809 132.024 280.9545 133.76 281.0953 135.496 281.2709 137.232 281.50703 138.968 281.74317 140.704 281.88679 142.44 282.02915 144.176 282.20317 145.912 282.15699 147.648 282.11546 149.384 281.32344 151.12 278.13188 152.856 262.88276 154.592 235.52841 156.328 216.36057 158.064 203.87279 159.8 192.26782 161.536 185.24787 163.272 178.07053 165.008 173.63716 166.744 172.46932 168.48 171.05016 170.216 169.24398 171.952 168.04737 173.688 168.89443 175.424 170.7377 177.16 169.87598 178.896 166.79479 180.632 163.13788 182.368 163.79384 184.104 165.38767 185.84 165.3796 187.576 165.49877 189.312 167.43836 191.048 167.85924 192.784 167.36615 194.52 169.60597 196.256 173.67173 197.992 176.24413 199.728 179.29611 201.464 182.76036 203.2 182.5688 204.936 181.9334 206.672 180.70378 208.408 180.90918 210.144 182.07752 211.88 184.34888 213.616 185.80429 215.352 185.17549 217.088 182.58762 218.824 182.29653 220.56 182.32054 222.296 182.52597 224.032 181.75264 225.768 181.29405 227.504 181.10153 229.24 181.54518 230.976 183.35422 232.712 183.3992 234.448 183.17548 236.184 181.37444 237.92 178.87654 239.656 179.28212 241.392 182.38439 243.128 184.39014 244.864 182.75392 246.6 179.71993 248.336 181.75232 250.072 183.4197 251.808 180.55913 253.544 181.1979 255.28 182.65048 257.016 180.34323 258.752 180.0103 260.488 180.3919 262.224 178.85085 263.96 179.6098 265.696 181.15389 267.432 180.17621 269.168 180.25255 270.904 180.66487 272.64 180.80713 274.376 182.17168 276.112 182.81328 277.848 182.38462 279.584 183.01262 281.32 183.57701 283.056 183.5819 284.792 183.49184 286.528 182.67758 288.264 182.2402 290 182.1149 291.736 181.28243 293.472 180.9122 295.208 180.9896 296.944 179.77822 298.68 178.38011 300.416 177.864 302.152 177.413 303.888 176.14806 305.624 175.10805 307.36 173.97148 309.096 173.44403 310.832 173.5885 312.568 172.80335 314.304 171.16913 316.04 169.29004 317.776 168.1324 319.512 167.42765 321.248 166.37741 322.984 165.24485 324.72 163.79656 326.456 164.019 328.192 163.27335 329.928 161.2242 331.664 160.35025 333.4 160.40714 335.136 159.70673 336.872 159.00716 338.608 159.13483 340.344 159.56337 342.08 160.11573 343.816 160.82161 345.552 160.08333 347.288 159.5022 349.024 159.72046 350.76 160.09496 352.496 162.00955 354.232 163.33568 355.968 162.96788 357.704 162.73604 359.44 163.74109 361.176 165.23451 362.912 165.91144 364.648 166.43596 366.384 167.695 368.12 168.23197 369.856 168.67223 371.592 169.76358 373.328 171.12726 375.064 171.82787 376.8 172.67148 378.536 174.3492 380.272 175.95906 382.008 175.75617 383.744 175.66455 385.48 175.87311 387.216 176.67957 388.952 177.49996 390.688 178.32773 392.424 179.37622 394.16 178.73569 395.896 177.8326 397.632 177.49465 399.368 176.63086 401.104 175.86553 402.84 175.26668 404.576 174.4829 406.312 172.92902 408.048 171.29978 409.784 169.60356 411.52 168.93619 413.256 167.92638 414.992 165.59207 416.728 163.34311 418.464 161.38072 420.2 159.21056 421.936 157.05968 423.672 154.73659 425.408 151.78522 427.144 150.42337 428.88 149.15624 430.616 146.81803 432.352 145.52011 434.088 144.94237 435.824 143.52004 437.56 142.03874 439.296 140.91004 441.032 139.76615 442.768 138.75008 444.504 138.12143 446.24 137.28952 447.976 136.04315 449.712 134.98229 451.448 134.66574 453.184 134.62848 454.92 134.04892 456.656 133.70475 458.392 133.1106 460.128 132.43164 461.864 133.50821 463.6 134.40735 465.336 134.38211 467.072 134.48375 468.808 136.12683 470.544 139.14537 472.28 140.77942 474.016 141.13185 475.752 142.8382 477.488 145.67624 479.224 147.06214 480.96 148.03261 482.696 150.38085 484.432 152.27664 486.168 153.85355 487.904 156.99446 489.64 159.88516"/>
<path transform="matrix(.5,0,0,.5,-15.475397,-34.241)" stroke-width="2" stroke-linecap="butt" stroke-linejoin="round" fill="none" stroke="#d95319" d="M74.736 280.7964 76.472 280.6247 78.208 280.5827 79.944 280.98713 81.68 281.69483 83.416 281.84666 85.152 281.5732 86.888 281.2621 88.624 281.27494 90.36 281.99757 92.096 283.6731 93.832 284.75837 95.568 284.22966 97.304 282.9831 99.04 282.3886 100.776 282.93598 102.512 284.41035 104.248 287.00868 105.984 287.5325 107.72 288.49626 109.456 288.90235 111.192 286.1833 112.928 283.2705 114.664 283.00645 116.4 285.6331 118.136 288.4003 119.872 290.35163 121.608 291.47434 123.344 291.13319 125.08 290.32 126.816 289.17204 128.552 287.31669 130.288 284.51948 132.024 283.45768 133.76 286.71745 135.496 291.92546 137.232 294.01924 138.968 292.50315 140.704 290.91227 142.44 291.37425 144.176 292.37547 145.912 293.9152 147.648 292.37617 149.384 288.98365 151.12 283.84596 152.856 271.59394 154.592 247.2112 156.328 223.7269 158.064 207.92983 159.8 195.43498 161.536 185.95053 163.272 176.84584 165.008 170.37722 166.744 168.36269 168.48 168.09996 170.216 167.83878 171.952 165.08737 173.688 161.39723 175.424 160.53992 177.16 160.42292 178.896 158.60263 180.632 156.87754 182.368 159.26042 184.104 161.84949 185.84 161.99002 187.576 160.74933 189.312 160.51474 191.048 160.06615 192.784 159.7139 194.52 159.92566 196.256 161.16063 197.992 163.80934 199.728 167.85909 201.464 170.75714 203.2 169.29703 204.936 167.41794 206.672 164.4217 208.408 163.69736 210.144 164.79795 211.88 167.08582 213.616 169.00629 215.352 170.0363 217.088 169.9411 218.824 171.20172 220.56 170.85289 222.296 170.82753 224.032 171.5836 225.768 171.32007 227.504 171.05446 229.24 171.98523 230.976 174.74529 232.712 178.32726 234.448 181.20401 236.184 179.93222 237.92 174.33841 239.656 169.58878 241.392 168.55045 243.128 170.25193 244.864 170.54976 246.6 168.49457 248.336 168.73377 250.072 169.07534 251.808 167.89304 253.544 171.52637 255.28 173.0428 257.016 170.3318 258.752 171.23378 260.488 175.13492 262.224 176.21591 263.96 176.81244 265.696 177.16289 267.432 176.13608 269.168 177.33109 270.904 178.20554 272.64 174.87923 274.376 172.39759 276.112 173.31558 277.848 173.02756 279.584 170.21605 281.32 170.27202 283.056 171.26026 284.792 172.23107 286.528 174.51833 288.264 176.21134 290 175.90152 291.736 178.12957 293.472 181.01676 295.208 179.65847 296.944 177.75508 298.68 179.48001 300.416 179.31851 302.152 176.9255 303.888 176.15085 305.624 177.61219 307.36 176.59714 309.096 178.06003 310.832 184.64267 312.568 186.78865 314.304 183.54097 316.04 181.23133 317.776 181.56452 319.512 179.34337 321.248 177.6582 322.984 178.4211 324.72 180.8568 326.456 180.01348 328.192 176.5108 329.928 176.7016 331.664 180.04814 333.4 179.07604 335.136 178.44588 336.872 182.39426 338.608 184.04724 340.344 178.98477 342.08 175.29938 343.816 178.11956 345.552 176.82819 347.288 172.03324 349.024 170.29875 350.76 171.6644 352.496 173.51195 354.232 177.95864 355.968 181.01383 357.704 180.254 359.44 178.07422 361.176 176.84995 362.912 176.34755 364.648 176.70485 366.384 177.01645 368.12 175.12538 369.856 172.16408 371.592 172.54619 373.328 175.06368 375.064 174.55397 376.8 173.74362 378.536 175.85958 380.272 178.46143 382.008 177.61014 383.744 175.41449 385.48 172.88164 387.216 168.78896 388.952 167.74335 390.688 167.10048 392.424 167.5202 394.16 168.97449 395.896 168.96714 397.632 168.20465 399.368 170.40544 401.104 172.36687 402.84 171.97046 404.576 172.75041 406.312 172.69402 408.048 168.96268 409.784 165.02211 411.52 162.73427 413.256 163.44928 414.992 161.48255 416.728 157.61968 418.464 156.2258 420.2 155.93817 421.936 155.2293 423.672 154.4285 425.408 154.41657 427.144 153.97364 428.88 152.97061 430.616 152.92128 432.352 155.11698 434.088 157.85268 435.824 157.96114 437.56 154.01172 439.296 151.58826 441.032 152.4194 442.768 152.69298 444.504 152.2872 446.24 152.60684 447.976 154.95374 449.712 156.78614 451.448 157.04319 453.184 160.25133 454.92 164.74086 456.656 162.93018 458.392 156.65515 460.128 154.61428 461.864 153.64095 463.6 151.49402 465.336 148.55442 467.072 147.50678 468.808 150.13 470.544 153.90602 472.28 156.05641 474.016 154.98467 475.752 152.26155 477.488 152.62627 479.224 156.23352 480.96 157.38437 482.696 157.40477 484.432 155.6917 486.168 155.67586 487.904 157.25777 489.64 160.72518"/>
<path transform="matrix(.5,0,0,.5,-15.475397,-34.241)" d="M123.344 308.4075 125.08 307.9143 126.816 307.0688 128.552 305.50584 130.288 303.00245 132.024 302.2238 133.76 305.7427 135.496 311.18568 137.232 313.50007 138.968 312.19343 140.704 310.79817 142.44 311.45286 144.176 312.63526 145.912 314.34645 147.648 312.97615 149.384 309.75093 151.12 304.77696 152.856 292.68193 154.592 268.44758 156.328 245.11525 158.064 229.47624 159.8 217.14113 161.536 207.80446 163.272 198.83661 165.008 192.50185 166.744 190.61954 168.48 190.48006 170.216 190.33997 171.952 187.70066 173.688 184.10884 175.424 183.33917 177.16 183.30857 178.896 181.5726 180.632 179.92801 182.368 182.38498 184.104 185.04238 185.84 185.24877 187.576 184.06874 189.312 183.89368 191.048 183.50557 192.784 183.21639 194.52 183.49098 196.256 184.79059 197.992 187.50492 199.728 191.62186 201.464 194.583 203.2 193.1856 204.936 191.36554 206.672 188.42346 208.408 187.75008 210.144 188.89646 211.88 191.22801 213.616 193.18795 215.352 194.25461 217.088 194.1928 218.824 195.48525 220.56 195.166 222.296 195.16872 224.032 195.95272 225.768 195.71707 227.504 195.47884 229.24 196.43798 230.976 199.22666 232.712 202.83902 234.448 205.74642 236.184 204.5063 237.92 198.94486 239.656 194.22937 241.392 193.22649 243.128 194.96295 244.864 195.29564 246.6 193.278 248.336 193.55594 250.072 193.93405 251.808 192.79119 253.544 196.47403 255.28 198.04438 257.016 195.3866 258.752 196.34128 260.488 200.29592 262.224 201.4335 263.96 202.08351 265.696 202.48564 267.432 201.51645 269.168 202.77263 270.904 203.70314 272.64 200.43048 274.376 198.0021 276.112 198.97495 277.848 198.73836 279.584 195.97841 281.32 196.08434 283.056 197.12471 284.792 198.14955 286.528 200.48998 288.264 202.23278 290 201.97048 291.736 204.24793 293.472 207.18134 295.208 205.86852 296.944 204.01279 298.68 205.78479 300.416 205.66864 302.152 203.32418 303.888 202.60015 305.624 204.11 307.36 203.1449 309.096 204.66089 310.832 211.297 312.568 213.49402 314.304 210.29608 316.04 208.0378 317.776 208.4211 319.512 206.2477 321.248 204.6101 322.984 205.4245 324.72 207.91484 326.456 207.12274 328.192 203.67073 329.928 203.91567 331.664 207.31707 333.4 206.39223 335.136 205.81018 336.872 209.80792 338.608 211.50949 340.344 206.4971 342.08 202.86115 343.816 205.73046 345.552 204.49323 347.288 199.75812 349.024 198.07946 350.76 199.50568 352.496 201.41689 354.232 205.92775 355.968 209.04467 357.704 208.34925 359.44 206.23569 361.176 205.07636 362.912 204.63744 364.648 205.0542 366.384 205.42844 368.12 203.6092 369.856 200.727 371.592 201.17969 373.328 203.762 375.064 203.3169 376.8 202.58287 378.536 204.78438 380.272 207.47046 382.008 206.69693 383.744 204.5774 385.48 202.13459 387.216 198.13726 388.952 197.19844 390.688 196.66272 392.424 197.1927 394.16 198.76766 395.896 198.85616 397.632 198.16303 399.368 200.43163 401.104 202.45999 402.84 202.13272 404.576 202.97594 406.312 202.99602 408.048 199.34183 409.784 195.48072 411.52 193.28166 413.256 194.11048 414.992 192.27204 416.728 188.54962 418.464 187.30043 420.2 187.17891 421.936 186.64937 423.672 186.0293 425.408 186.196 427.144 185.9478 428.88 185.151 430.616 185.3039 432.352 187.70847 434.088 190.70792 435.824 191.141 437.56 187.55942 439.296 185.50879 441.032 186.70594 442.768 187.33528 444.504 187.36396 446.24 188.16648 447.976 190.9865 449.712 193.21006 451.448 193.82024 453.184 197.40174 454.92 202.31864 456.656 200.93488 458.392 195.06993 460.128 193.49474 461.864 193.086 463.6 191.57128 465.336 189.20658 467.072 188.76505 468.808 192.00225 470.544 196.49301 472.28 199.47978 474.016 199.55532 475.752 198.19589 477.488 200.24222 479.224 205.56468 480.96 208.35449 482.696 209.93958 484.432 209.67317 486.168 211.5074 487.904 214.98247 489.64 220.46245V100.9879L487.904 99.53308 486.168 99.84432 484.432 101.71023 482.696 104.86994 480.96 106.41426 479.224 106.90237 477.488 105.01035 475.752 106.32722 474.016 110.414028 472.28 112.633029 470.544 111.31904 468.808 108.25777 467.072 106.2485 465.336 107.90223 463.6 111.416759 461.864 114.195888 460.128 115.73383 458.392 118.24038 456.656 124.92548 454.92 127.16307 453.184 123.100917 451.448 120.26613 449.712 120.362239 447.976 118.92098 446.24 117.04721 444.504 117.21044 442.768 118.050678 441.032 118.132869 439.296 117.66774 437.56 120.46403 435.824 124.78127 434.088 124.99744 432.352 122.52547 430.616 120.53865 428.88 120.79023 427.144 121.999469 425.408 122.637149 423.672 122.82767 421.936 123.80921 420.2 124.69741 418.464 125.15116 416.728 126.68974 414.992 130.69306 413.256 132.78809 411.52 132.18686 409.784 134.5635 408.048 138.58351 406.312 142.392 404.576 142.52492 402.84 141.80818 401.104 142.27373 399.368 140.37923 397.632 138.24628 395.896 139.07813 394.16 139.18129 392.424 137.84769 390.688 137.53826 388.952 138.28827 387.216 139.44068 385.48 143.6287 383.744 146.25159 382.008 148.52335 380.272 149.45236 378.536 146.93476 376.8 144.90436 375.064 145.79102 373.328 146.36537 371.592 143.91268 369.856 143.60115 368.12 146.64157 366.384 148.60445 364.648 148.3555 362.912 148.05767 361.176 148.62354 359.44 149.91274 357.704 152.15877 355.968 152.98299 354.232 149.9895 352.496 145.60701 350.76 143.82314 349.024 142.51807 347.288 144.30835 345.552 149.16315 343.816 150.50867 342.08 147.73764 340.344 151.47246 338.608 156.58499 336.872 154.98059 335.136 151.08158 333.4 151.75983 331.664 152.77924 329.928 149.48752 328.192 149.35089 326.456 152.9042 324.72 153.79875 322.984 151.41768 321.248 150.70632 319.512 152.43904 317.776 154.70793 316.04 154.42487 314.304 156.78585 312.568 160.08325 310.832 157.98834 309.096 151.45919 307.36 150.0494 305.624 151.11438 303.888 149.70154 302.152 150.52686 300.416 152.9684 298.68 153.17522 296.944 151.49739 295.208 153.44841 293.472 154.85218 291.736 152.0112 290 149.83257 288.264 150.1899 286.528 148.54669 284.792 146.31258 283.056 145.39579 281.32 144.4597 279.584 144.4537 277.848 147.31674 276.112 147.65622 274.376 146.79306 272.64 149.32796 270.904 152.70793 269.168 151.88954 267.432 150.7557 265.696 151.84015 263.96 151.54138 262.224 150.99832 260.488 149.97393 258.752 146.12628 257.016 145.277 255.28 148.04122 253.544 146.57872 251.808 142.9949 250.072 144.21662 248.336 143.91159 246.6 143.71114 244.864 145.80387 243.128 145.54091 241.392 143.87442 239.656 144.9482 237.92 149.73195 236.184 155.35813 234.448 156.66162 232.712 153.8155 230.976 150.26392 229.24 147.53249 227.504 146.63008 225.768 146.92308 224.032 147.21448 222.296 146.48635 220.56 146.53978 218.824 146.9182 217.088 145.6894 215.352 145.818 213.616 144.82462 211.88 142.94364 210.144 140.69944 208.408 139.64463 206.672 140.41997 204.936 143.47037 203.2 145.40847 201.464 146.93129 199.728 144.09629 197.992 140.11377 196.256 137.53066 194.52 136.36035 192.784 136.21141 191.048 136.62673 189.312 137.13582 187.576 137.42992 185.84 138.73128 184.104 138.6566 182.368 136.13585 180.632 133.82706 178.896 135.63268 177.16 137.53726 175.424 137.74065 173.688 138.68564 171.952 142.47409 170.216 145.33759 168.48 145.71987 166.744 146.10582 165.008 148.2526 163.272 154.85507 161.536 164.09662 159.8 173.72884 158.064 186.3834 156.328 202.33853 154.592 225.97484 152.856 250.50597 151.12 262.91499 149.384 268.21638 147.648 271.77619 145.912 273.48396 144.176 272.11567 142.44 271.2956 140.704 271.0264 138.968 272.8129 137.232 274.53837 135.496 272.66523 133.76 267.6922 132.024 264.69157 130.288 266.03654 128.552 269.1275 126.816 271.27528 125.08 272.72569 123.344 273.85887 121.608 274.5323 119.872 273.75657 118.136 272.15925 116.4 269.75086 114.664 267.50727 112.928 268.18116 111.192 271.52006 109.456 274.67149 107.72 274.68855 105.984 274.15928 104.248 274.10603 102.512 272.02687 100.776 271.10627 99.04 271.11283 97.304 272.2785 95.568 274.13804 93.832 275.29005 92.096 274.84236 90.36 273.84037 88.624 273.85954 86.888 274.68519 85.152 275.8373 83.416 276.91346 81.68 277.48326 79.944 277.5065 78.208 277.89106 76.472 278.93733 74.736 280.12388V281.46888L76.472 282.31205 78.208 283.27436 79.944 284.46778 81.68 285.9064 83.416 286.77986 85.152 287.3091 86.888 287.83897 88.624 288.69038 90.36 290.1548 92.096 292.50386 93.832 294.2267 95.568 294.32124 97.304 293.68766 99.04 293.66438 100.776 294.7657 102.512 296.79383 104.248 299.9113 105.984 300.90574 107.72 302.304 109.456 303.13319 111.192 300.84654 112.928 298.35987 114.664 298.50559 116.4 301.51533 118.136 304.64134 119.872 306.9467 121.608 308.4164Z" fill="#bf5700" fill-opacity=".14901962"/>
<path transform="matrix(.5,0,0,.5,-15.475397,-34.241)" d="M499 325V279.5H394.5V325Z" fill="#ffffff"/>
<use data-text="T" xlink:href="#font_0_53" transform="matrix(5.4,0,0,-5.4,200.2746,111.883998)"/>
<use data-text="r" xlink:href="#font_0_83" transform="matrix(5.4,0,0,-5.4,203.57399,111.883998)"/>
<use data-text="u" xlink:href="#font_0_86" transform="matrix(5.4,0,0,-5.4,205.67459,111.883998)"/>
<use data-text="e" xlink:href="#font_0_70" transform="matrix(5.4,0,0,-5.4,208.974,111.883998)"/>
<use data-text=" " xlink:href="#font_0_1" transform="matrix(5.4,0,0,-5.4,211.9764,111.883998)"/>
<use data-text="Q" xlink:href="#font_0_50" transform="matrix(5.4,0,0,-5.4,213.4776,111.883998)"/>
<use data-text="o" xlink:href="#font_0_80" transform="matrix(5.4,0,0,-5.4,217.6788,111.883998)"/>
<use data-text="I" xlink:href="#font_0_42" transform="matrix(5.4,0,0,-5.4,220.9782,111.883998)"/>
<use data-text="s" xlink:href="#font_0_84" transform="matrix(5.4,0,0,-5.4,222.4794,111.883998)"/>
<path transform="matrix(.5,0,0,.5,-15.475397,-34.241)" stroke-width="2.5" stroke-linecap="butt" stroke-dasharray="2,2" stroke-linejoin="bevel" fill="none" stroke="#000000" d="M398.5 288.25H428.5"/>
<use data-text="P" xlink:href="#font_0_49" transform="matrix(5.4,0,0,-5.4,200.2746,118.883998)"/>
<use data-text="r" xlink:href="#font_0_83" transform="matrix(5.4,0,0,-5.4,203.8764,118.883998)"/>
<use data-text="e" xlink:href="#font_0_70" transform="matrix(5.4,0,0,-5.4,205.977,118.883998)"/>
<use data-text="d" xlink:href="#font_0_69" transform="matrix(5.4,0,0,-5.4,208.9794,118.883998)"/>
<use data-text="." xlink:href="#font_0_15" transform="matrix(5.4,0,0,-5.4,212.2788,118.883998)"/>
<use data-text=" " xlink:href="#font_0_1" transform="matrix(5.4,0,0,-5.4,213.78,118.883998)"/>
<use data-text="Q" xlink:href="#font_0_50" transform="matrix(5.4,0,0,-5.4,215.2812,118.883998)"/>
<use data-text="o" xlink:href="#font_0_80" transform="matrix(5.4,0,0,-5.4,219.48239,118.883998)"/>
<use data-text="I" xlink:href="#font_0_42" transform="matrix(5.4,0,0,-5.4,222.7818,118.883998)"/>
<use data-text=" " xlink:href="#font_0_1" transform="matrix(5.4,0,0,-5.4,224.283,118.883998)"/>
<use data-text="#" xlink:href="#font_0_4" transform="matrix(5.4,0,0,-5.4,225.7842,118.883998)"/>
<use data-text="2" xlink:href="#font_0_19" transform="matrix(5.4,0,0,-5.4,228.78659,118.883998)"/>
<path transform="matrix(.5,0,0,.5,-15.475397,-34.241)" stroke-width="2" stroke-linecap="butt" stroke-linejoin="round" fill="none" stroke="#d95319" d="M398.5 302.25H428.5"/>
<use data-text="9" xlink:href="#font_0_26" transform="matrix(5.4,0,0,-5.4,200.2746,125.883998)"/>
<use data-text="5" xlink:href="#font_0_22" transform="matrix(5.4,0,0,-5.4,203.277,125.883998)"/>
<use data-text="%" xlink:href="#font_0_6" transform="matrix(5.4,0,0,-5.4,206.2794,125.883998)"/>
<use data-text=" " xlink:href="#font_0_1" transform="matrix(5.4,0,0,-5.4,211.08,125.883998)"/>
<use data-text="C" xlink:href="#font_0_36" transform="matrix(5.4,0,0,-5.4,212.58119,125.883998)"/>
<use data-text="I" xlink:href="#font_0_42" transform="matrix(5.4,0,0,-5.4,216.48,125.883998)"/>
<use data-text="s" xlink:href="#font_0_84" transform="matrix(5.4,0,0,-5.4,217.9812,125.883998)"/>
<path transform="matrix(.5,0,0,.5,-15.475397,-34.241)" d="M428.5 321.3125V311.1875H398.5V321.3125Z" fill="#bf5700" fill-opacity=".14901962"/>
<path transform="matrix(.5,0,0,.5,-15.475397,-34.241)" stroke-width=".5" stroke-linecap="butt" stroke-miterlimit="10" stroke-linejoin="miter" fill="none" stroke="#262626" d="M394.5 325V279.5H499V325Z"/>
</svg>
