<svg xmlns="http://www.w3.org/2000/svg" xmlns:xlink="http://www.w3.org/1999/xlink" xmlns:inkscape="http://www.inkscape.org/namespaces/inkscape" version="1.1" width="244" height="151" viewBox="0 0 244 151">
<defs>
<path id="font_0_17" d="M.272995 .723999C.19699097 .723999 .13198853 .69200137 .08898926 .6329956 .04798889 .5779877 .0289917 .48799134 .0289917 .34999085 .0289917 .22399903 .04499817 .13598633 .07899475 .08198547 .12098694 .01399231 .18998719-.023010254 .272995-.023010254 .34999085-.023010254 .41299439 .0079956059 .45700074 .066986087 .49699403 .12199402 .5169983 .21299744 .5169983 .34599305 .5169983 .47599793 .5009918 .56399539 .46699525 .61898806 .4249878 .68699648 .35598756 .723999 .272995 .723999M.272995 .61099246C.30899049 .61099246 .33799745 .59098818 .35499574 .55400088 .36898805 .5239868 .3769989 .44699098 .3769989 .34899903 .3769989 .2689972 .36999513 .19099427 .35899354 .1619873 .34298707 .11999512 .31298829 .09700012 .272995 .09700012 .23599243 .09700012 .20799256 .115997318 .19099427 .1519928 .1769867 .18199158 .16899109 .2559967 .16899109 .35099793 .16899109 .43499757 .17599488 .5149994 .18699646 .5439911 .20199585 .58699038 .23298645 .61099246 .272995 .61099246Z"/>
<path id="font_0_22" d="M.4889984 .70899966H.10998535L.04699707 .31399537H.17298889C.18798828 .34899903 .21998596 .36799623 .2630005 .36799623 .33399964 .36799623 .3769989 .31698609 .3769989 .23098755 .3769989 .147995 .33399964 .09700012 .2630005 .09700012 .20199585 .09700012 .16799927 .12799073 .16499329 .18499756H.026992798C.0289917 .06098938 .12298584-.023010254 .26098634-.023010254 .41299439-.023010254 .5169983 .08099365 .5169983 .23399353 .5169983 .37998963 .4269867 .47898866 .29599 .47898866 .24899292 .47898866 .21398926 .46699525 .17298889 .43598939L.19599915 .58399966H.4889984V.70899966Z"/>
<path id="font_0_18" d="M.23799134 .4889984V0H.37799073V.70899966H.2849884C.2630005 .625 .18998719 .58200076 .067993167 .58200076V.4889984H.23799134Z"/>
<path id="font_0_19" d="M.5119934 .125H.21099854C.22999573 .16299439 .2519989 .18399048 .35598756 .25898744 .47898866 .34899903 .5149994 .4019928 .5149994 .49899293 .5149994 .6359863 .41999818 .723999 .27198792 .723999 .125 .723999 .038986207 .6369934 .038986207 .4869995V.46199037H.17399597V.4850006C.17399597 .56399539 .21099854 .6100006 .2749939 .6100006 .33699037 .6100006 .375 .5669861 .375 .49598695 .375 .4169922 .35099793 .3880005 .19299317 .27598573 .07299805 .19400025 .035995485 .13198853 .02999878 0H.5119934V.125Z"/>
<path id="font_0_53" d="M.3849945 .60398867H.59799197V.72898867H.01399231V.60398867H.23498535V0H.3849945V.60398867Z"/>
<path id="font_0_74" d="M.20698548 .5399933H.066986087V0H.20698548V.5399933M.20698548 .72898867H.066986087V.60398867H.20698548V.72898867Z"/>
<path id="font_0_78" d="M.05999756 .5399933V0H.19999695V.32398988C.19999695 .3909912 .23599243 .42999269 .29599 .42999269 .34298707 .42999269 .37199403 .40299989 .37199403 .3600006V0H.5119934V.32398988C.5119934 .3899994 .5479889 .42999269 .60798647 .42999269 .6549988 .42999269 .6839905 .40299989 .6839905 .3600006V0H.82398989V.38198854C.82398989 .4869995 .7599945 .548996 .6519928 .548996 .58299258 .548996 .5359955 .5249939 .49398805 .46899415 .46798707 .519989 .4139862 .548996 .34700013 .548996 .2849884 .548996 .24499512 .5289917 .19898987 .47299195V.5399933H.05999756Z"/>
<path id="font_0_70" d="M.5239868 .22599793C.5249939 .23799134 .5249939 .24299622 .5249939 .25 .5249939 .3039856 .5169983 .35398866 .5039978 .3919983 .46798707 .48999024 .3809967 .548996 .27198792 .548996 .116989139 .548996 .021987915 .43699647 .021987915 .2559967 .021987915 .08299255 .115997318-.023010254 .2689972-.023010254 .3899994-.023010254 .48799134 .04499817 .5189972 .1519928H.3809967C.3639984 .10899353 .32499696 .083999637 .27398683 .083999637 .23399353 .083999637 .20199585 .100997928 .18199158 .1309967 .16899109 .15098572 .1639862 .1749878 .1619873 .22599793H.5239868M.1639862 .31900025C.17298889 .4019928 .20799256 .44198609 .269989 .44198609 .33399964 .44198609 .37199403 .39898683 .3789978 .31900025H.1639862Z"/>
<path id="font_0_1" d="M0 0Z"/>
<path id="font_0_9" d="M.20298767 .72898867C.08799744 .5549927 .039993287 .4189911 .039993287 .2649994 .039993287 .10998535 .08799744-.026000977 .20298767-.2000122H.30299378C.19599915 .005996704 .16299439 .116989139 .16299439 .2649994 .16299439 .4119873 .19699097 .5249939 .30299378 .72898867H.20298767Z"/>
<path id="font_0_84" d="M.5049896 .3659973C.5029907 .47999574 .4149933 .548996 .269989 .548996 .1329956 .548996 .04798889 .47999574 .04798889 .36898805 .04798889 .33299256 .05899048 .3019867 .07798767 .2809906 .09700012 .2619934 .11399841 .25299073 .1659851 .23599243L.33299256 .18399048C.36799623 .17298889 .37998963 .1619873 .37998963 .13999939 .37998963 .10699463 .34098817 .08699036 .27598573 .08699036 .23899842 .08699036 .21099854 .09298706 .19299317 .10598755 .17799378 .116989139 .17199707 .12799073 .1659851 .15699768H.0289917C.032989503 .037994386 .11999512-.023010254 .28399659-.023010254 .35899354-.023010254 .41600038-.007003784 .45599366 .024993897 .49598695 .056991579 .519989 .10699463 .519989 .1599884 .519989 .22999573 .4850006 .2749939 .4139862 .29599L.23699951 .34700013C.19799805 .35899354 .18798828 .36698915 .18798828 .3889923 .18798828 .4189911 .21998596 .43899537 .2689972 .43899537 .33599855 .43899537 .36898805 .4149933 .36999513 .3659973H.5049896Z"/>
<path id="font_0_10" d="M.12199402-.2000122C.23699951-.026000977 .2849884 .10998535 .2849884 .2639923 .2849884 .4189911 .23699951 .5549927 .12199402 .72898867H.021987915C.1289978 .522995 .1619873 .4119873 .1619873 .2639923 .1619873 .116989139 .12799073 .0039978029 .021987915-.2000122H.12199402Z"/>
<path id="font_0_14" d="M.2979889 .34199525H.025985718V.20698548H.2979889V.34199525Z"/>
<path id="font_0_15" d="M.21398926 .1459961H.06399536V0H.21398926V.1459961Z"/>
<path id="font_0_56" d="M.7299957 0 .9319916 .72898867H.772995L.6639862 .18199158 .54599 .72898867H.397995L.2849884 .18299866 .17199707 .72898867H.0129852299L.21899414 0H.35398866L.47299195 .56900027 .59498599 0H.7299957Z"/>
<path id="font_0_66" d="M.5239868 .016998291C.5 .039993287 .49198915 .055999757 .49198915 .08299255V.3829956C.49198915 .49299623 .4169922 .548996 .2709961 .548996 .125 .548996 .04899597 .4869995 .039993287 .3619995H.1749878C.18199158 .41799928 .20498657 .43598939 .27398683 .43598939 .32798768 .43598939 .35499574 .41799928 .35499574 .38198854 .35499574 .3639984 .34599305 .34899903 .33099366 .33999635 .31199647 .32998658 .31199647 .32998658 .24299622 .31900025L.18699646 .30899049C.07998657 .29100038 .027999878 .23599243 .027999878 .13899231 .027999878 .041992189 .09298706-.023010254 .19198609-.023010254 .2519989-.023010254 .30599977 .0019989014 .35598756 .053985597 .35598756 .025985718 .35899354 .015991211 .37199403 0H.5239868V.016998291M.35499574 .21699524C.35499574 .13598633 .31498719 .08999634 .24398804 .08999634 .19699097 .08999634 .16799927 .114990238 .16799927 .15499878 .16799927 .19699097 .18998719 .21699524 .24798584 .22898865L.29599 .23799134C.33299256 .24499512 .33898927 .24699402 .35499574 .25498963V.21699524Z"/>
<path id="font_0_87" d="M.34999085 0 .5359955 .5399933H.3880005L.2789917 .14498902 .1619873 .5399933H.01399231L.20298767 0H.34999085Z"/>
<path id="font_0_73" d="M.066986087 .72898867V0H.20698548V.32398988C.20698548 .38598634 .2519989 .42999269 .31498719 .42999269 .34599305 .42999269 .36898805 .4189911 .3849945 .39698792 .397995 .3789978 .40098573 .3639984 .40098573 .32998658V0H.54100039V.3619995C.54100039 .42900086 .522995 .47698976 .48599244 .5079956 .45498658 .5339966 .4099884 .548996 .36499024 .548996 .29599 .548996 .24598694 .5219879 .20698548 .46199037V.72898867H.066986087Z"/>
<path id="font_0_72" d="M.3999939 .5399933V.45700074C.36099244 .519989 .31799317 .548996 .26098634 .548996 .21299744 .548996 .1599884 .5249939 .12298584 .48599244 .068984989 .42999269 .040985109 .35198976 .040985109 .25698854 .040985109 .09098816 .1289978-.023010254 .2579956-.023010254 .31599427-.023010254 .35099793-.0040130617 .3999939 .054992677V-.018005372C.3999939-.08300781 .35398866-.12800598 .28799439-.12800598 .23799134-.12800598 .20698548-.10600281 .19599915-.06500244H.051986696C.052993776-.10700989 .067993167-.13600159 .10499573-.16600037 .147995-.20100403 .20698548-.21800232 .2829895-.21800232 .43899537-.21800232 .5329895-.14300537 .5329895-.018005372V.5399933H.3999939M.2869873 .43199159C.35299684 .43199159 .4019928 .35899354 .4019928 .25898744 .4019928 .16099549 .35499574 .09399414 .2849884 .09399414 .22399903 .09399414 .18099976 .16099549 .18099976 .25898744 .18099976 .36099244 .22399903 .43199159 .2869873 .43199159Z"/>
<path id="font_0_85" d="M.30099488 .5289917H.22299195V.673996H.08299255V.5289917H.01399231V.43598939H.08299255V.10398865C.08299255 .018997193 .12799073-.023010254 .21998596-.023010254 .2519989-.023010254 .2749939-.020004273 .30099488-.012008667V.085998538C.2869873 .083999637 .27999879 .08299255 .2689972 .08299255 .23199463 .08299255 .22299195 .09399414 .22299195 .14199829V.43598939H.30099488V.5289917Z"/>
<path id="font_0_83" d="M.06298828 .5399933V0H.20298767V.2869873C.20298767 .36898805 .24398804 .4099884 .32598878 .4099884 .34098817 .4099884 .35099793 .40899659 .36999513 .4059906V.5479889C.3619995 .548996 .35899354 .548996 .35299684 .548996 .2889862 .548996 .23399353 .5069885 .20298767 .43399049V.5399933H.06298828Z"/>
<path id="font_0_86" d="M.54100039 0V.5399933H.40098573V.20199585C.40098573 .13798523 .35699464 .09599304 .28799439 .09599304 .22799683 .09599304 .19799805 .12799073 .19799805 .19299317V.5399933H.057998659V.1639862C.057998659 .04399109 .12298584-.023010254 .23899842-.023010254 .31199647-.023010254 .36099244 .0029907227 .40098573 .06399536V0H.54100039Z"/>
<path id="font_0_50" d="M.6649933 .102996829C.71398928 .16299439 .7449951 .2630005 .7449951 .36099244 .7449951 .46798707 .70700076 .57099917 .6429901 .6399994 .5799866 .70799258 .49798585 .7409973 .3939972 .7409973 .2899933 .7409973 .20799256 .70799258 .14498902 .6399994 .07998657 .57099917 .042999269 .46798707 .042999269 .35899354 .042999269 .25 .08099365 .14698792 .14498902 .07798767 .20799256 .009994507 .2899933-.023010254 .3939972-.023010254 .46998597-.023010254 .5249939-.008010864 .58299258 .026992798L.6689911-.054000856 .7449951 .026992798 .6649933 .102996829M.47999574 .27799989 .4039917 .19699097 .48098756 .12399292C.45700074 .11199951 .4249878 .10499573 .3929901 .10499573 .272995 .10499573 .19299317 .20599365 .19299317 .35899354 .19299317 .5130005 .27198792 .61299136 .3939972 .61299136 .5159912 .61299136 .59498599 .5130005 .59498599 .35798646 .59498599 .2979889 .58399966 .24398804 .56199648 .19999695L.47999574 .27799989Z"/>
<path id="font_0_80" d="M.30099488 .548996C.13598633 .548996 .034988405 .43998719 .034988405 .2630005 .034988405 .084991458 .13598633-.023010254 .3019867-.023010254 .46699525-.023010254 .56900027 .084991458 .56900027 .25898744 .56900027 .44198609 .46998597 .548996 .30099488 .548996M.3019867 .43598939C.3789978 .43598939 .42900086 .36698915 .42900086 .26098634 .42900086 .1599884 .3769989 .08999634 .3019867 .08999634 .22599793 .08999634 .1749878 .15899658 .1749878 .2630005 .1749878 .36698915 .22599793 .43598939 .3019867 .43598939Z"/>
<path id="font_0_42" d="M.21299744 .72898867H.06298828V0H.21299744V.72898867Z"/>
<path id="font_0_49" d="M.22599793 .2599945H.41299439C.5469971 .2599945 .6329956 .35499574 .6329956 .5029907 .6329956 .6489868 .5499878 .72898867 .397995 .72898867H.07598877V0H.22599793V.2599945M.22599793 .3849945V.60398867H.3659973C.44599916 .60398867 .48298646 .56900027 .48298646 .49499513 .48298646 .41999818 .44599916 .3849945 .3659973 .3849945H.22599793Z"/>
<path id="font_0_69" d="M.40499879 0H.54499819V.72898867H.40499879V.46998597C.36999513 .5239868 .32398988 .548996 .2559967 .548996 .1269989 .548996 .0289917 .4249878 .0289917 .2619934 .0289917 .18899536 .050994874 .114990238 .08699036 .06298828 .12399292 .009994507 .18998719-.023010254 .2559967-.023010254 .32398988-.023010254 .36999513 .0009918213 .40499879 .054992677V0M.2869873 .43199159C.35798646 .43199159 .40499879 .3639984 .40499879 .2599945 .40499879 .1619873 .35699464 .09399414 .2869873 .09399414 .21699524 .09399414 .16899109 .16299439 .16899109 .2619934 .16899109 .36299134 .21699524 .43199159 .2869873 .43199159Z"/>
<path id="font_0_4" d="M.1459961-.03201294 .18598938 .17199707H.2889862L.24899292-.03201294H.35398866L.3939972 .17199707H.5130005V.2709961H.41299439L.44400025 .42399598H.5529938V.522995H.46299745L.49699403 .69699099H.3919983L.35798646 .522995H.25498963L.2889862 .69699099H.18399048L.1499939 .522995H.0309906V.42399598H.12998963L.099990848 .2709961H.0029907227V.17199707H.07998657L.039993287-.03201294H.1459961M.20498657 .2709961 .23498535 .42399598H.33799745L.30799867 .2709961H.20498657Z"/>
<path id="font_0_23" d="M.5069885 .5479889C.5 .59399417 .4909973 .61698916 .47299195 .6429901 .43598939 .69400027 .37098695 .723999 .2939911 .723999 .20599365 .723999 .13398743 .68499758 .09098816 .6139984 .04899597 .54499819 .03199768 .46598817 .03199768 .33699037 .03199768 .21499634 .04699707 .13899231 .08299255 .08198547 .12399292 .015991211 .19799805-.023010254 .28199769-.023010254 .4229889-.023010254 .5189972 .08198547 .5189972 .23699951 .5189972 .37298585 .43499757 .46699525 .31298829 .46699525 .25498963 .46699525 .21598816 .44999696 .17199707 .4039917L.17298889 .4189911C.1749878 .4850006 .17799378 .5059967 .18798828 .5329895 .20698548 .58499148 .24099732 .61099246 .2899933 .61099246 .33499146 .61099246 .35899354 .59298709 .3769989 .5479889H.5069885M.27799989 .35598756C.34399415 .35598756 .38598634 .30599977 .38598634 .22698975 .38598634 .1519928 .33999635 .09700012 .27799989 .09700012 .21398926 .09700012 .16999817 .14898682 .16999817 .22499085 .16999817 .3019867 .21398926 .35598756 .27799989 .35598756Z"/>
<path id="font_0_26" d="M.037994386 .16499329C.040985109 .055999757 .1329956-.024002076 .25498963-.024002076 .34599305-.024002076 .4149933 .01399231 .45700074 .085998538 .49398805 .14898682 .5159912 .2559967 .5159912 .36999513 .5159912 .47399903 .5 .55400088 .46699525 .60798647 .42199708 .6839905 .35198976 .723999 .2669983 .723999 .125 .723999 .027999878 .621994 .027999878 .47399903 .027999878 .32798768 .11399841 .22799683 .23999024 .22799683 .27598573 .22799683 .30999757 .23799134 .33198548 .2539978 .34498597 .2630005 .35299684 .27198792 .37599183 .2979889 .37599183 .16099549 .33799745 .09599304 .25898744 .09599304 .20899964 .09599304 .17599488 .12298584 .17298889 .16499329H.037994386M.2630005 .6100006C.33099366 .6100006 .37298585 .55799868 .37298585 .47399903 .37298585 .3959961 .32998658 .34399415 .2649994 .34399415 .20098877 .34399415 .16099549 .3939972 .16099549 .47599793 .16099549 .55799868 .19999695 .6100006 .2630005 .6100006Z"/>
<path id="font_0_6" d="M.20599365 .70098879C.10499573 .70098879 .021987915 .61898806 .021987915 .5189972 .021987915 .4189911 .10499573 .33699037 .20599365 .33699037 .30699159 .33699037 .3899994 .41799928 .3899994 .5169983 .3899994 .6199951 .30899049 .70098879 .20599365 .70098879M.20599365 .60198977C.2539978 .60198977 .29100038 .5649872 .29100038 .5179901 .29100038 .47200013 .25299073 .43499757 .20599365 .43499757 .15899658 .43499757 .12098694 .47200013 .12098694 .5189972 .12098694 .5649872 .15899658 .60198977 .20599365 .60198977M.60598757 .70899966 .20999146-.020004273H.2869873L.6819916 .70899966H.60598757M.67900088 .35198976C.57699587 .35198976 .49499513 .269989 .49499513 .16999817 .49499513 .068984989 .57699587-.013000488 .67900088-.013000488 .7799988-.013000488 .86299136 .068984989 .86299136 .16699219 .86299136 .2709961 .7819977 .35198976 .67900088 .35198976M.67900088 .25299073C.72698977 .25299073 .7639923 .21598816 .7639923 .16799927 .7639923 .12298584 .72499087 .084991458 .67900088 .084991458 .6319885 .084991458 .59399417 .12298584 .59399417 .16899109 .59399417 .21499634 .6319885 .25299073 .67900088 .25299073Z"/>
<path id="font_0_36" d="M.6819916 .48199464C.6769867 .54499819 .6639862 .58499148 .6329956 .6259918 .57699587 .69999697 .4869995 .7409973 .37799073 .7409973 .17199707 .7409973 .04399109 .59399417 .04399109 .35798646 .04399109 .12298584 .17098999-.023010254 .37399293-.023010254 .55599978-.023010254 .6759949 .08198547 .68499758 .24899292H.5389862C.5289917 .1559906 .47099305 .102996829 .37799073 .102996829 .2619934 .102996829 .19400025 .19699097 .19400025 .35598756 .19400025 .5169983 .2649994 .61299136 .3829956 .61299136 .46998597 .61299136 .5189972 .57099917 .5389862 .48199464H.6819916Z"/>
</defs>
<path transform="matrix(.5,0,0,.5,-15.475397,-34.241)" d="M0 0H1120V840H0Z" fill="#ffffff"/>
<path transform="matrix(.5,0,0,.5,-15.475397,-34.241)" d="M73 332.95H507V72.55H73Z" fill="#ffffff"/>
<path transform="matrix(.5,0,0,.5,-15.475397,-34.241)" stroke-width=".5" stroke-linecap="butt" stroke-linejoin="round" fill="none" stroke="#262626" stroke-opacity=".14901962" d="M73 332.95V72.55"/>
<path transform="matrix(.5,0,0,.5,-15.475397,-34.241)" stroke-width=".5" stroke-linecap="butt" stroke-linejoin="round" fill="none" stroke="#262626" stroke-opacity=".14901962" d="M159.8 332.95V72.55"/>
<path transform="matrix(.5,0,0,.5,-15.475397,-34.241)" stroke-width=".5" stroke-linecap="butt" stroke-linejoin="round" fill="none" stroke="#262626" stroke-opacity=".14901962" d="M246.6 332.95V72.55"/>
<path transform="matrix(.5,0,0,.5,-15.475397,-34.241)" stroke-width=".5" stroke-linecap="butt" stroke-linejoin="round" fill="none" stroke="#262626" stroke-opacity=".14901962" d="M333.4 332.95V72.55"/>
<path transform="matrix(.5,0,0,.5,-15.475397,-34.241)" stroke-width=".5" stroke-linecap="butt" stroke-linejoin="round" fill="none" stroke="#262626" stroke-opacity=".14901962" d="M420.2 332.95V72.55"/>
<path transform="matrix(.5,0,0,.5,-15.475397,-34.241)" stroke-width=".5" stroke-linecap="butt" stroke-linejoin="round" fill="none" stroke="#262626" stroke-opacity=".14901962" d="M507 332.95V72.55"/>
<path transform="matrix(.5,0,0,.5,-15.475397,-34.241)" stroke-width=".5" stroke-linecap="butt" stroke-linejoin="round" fill="none" stroke="#262626" stroke-opacity=".14901962" d="M507 332.95H73"/>
<path transform="matrix(.5,0,0,.5,-15.475397,-34.241)" stroke-width=".5" stroke-linecap="butt" stroke-linejoin="round" fill="none" stroke="#262626" stroke-opacity=".14901962" d="M507 289.55H73"/>
<path transform="matrix(.5,0,0,.5,-15.475397,-34.241)" stroke-width=".5" stroke-linecap="butt" stroke-linejoin="round" fill="none" stroke="#262626" stroke-opacity=".14901962" d="M507 246.15H73"/>
<path transform="matrix(.5,0,0,.5,-15.475397,-34.241)" stroke-width=".5" stroke-linecap="butt" stroke-linejoin="round" fill="none" stroke="#262626" stroke-opacity=".14901962" d="M507 202.75H73"/>
<path transform="matrix(.5,0,0,.5,-15.475397,-34.241)" stroke-width=".5" stroke-linecap="butt" stroke-linejoin="round" fill="none" stroke="#262626" stroke-opacity=".14901962" d="M507 159.35H73"/>
<path transform="matrix(.5,0,0,.5,-15.475397,-34.241)" stroke-width=".5" stroke-linecap="butt" stroke-linejoin="round" fill="none" stroke="#262626" stroke-opacity=".14901962" d="M507 115.95H73"/>
<path transform="matrix(.5,0,0,.5,-15.475397,-34.241)" stroke-width=".5" stroke-linecap="butt" stroke-linejoin="round" fill="none" stroke="#262626" stroke-opacity=".14901962" d="M507 72.55H73"/>
<path transform="matrix(.5,0,0,.5,-15.475397,-34.241)" stroke-width=".5" stroke-linecap="square" stroke-linejoin="round" fill="none" stroke="#262626" d="M73 332.95H507"/>
<path transform="matrix(.5,0,0,.5,-15.475397,-34.241)" stroke-width=".5" stroke-linecap="square" stroke-linejoin="round" fill="none" stroke="#262626" d="M73 72.55H507"/>
<path transform="matrix(.5,0,0,.5,-15.475397,-34.241)" stroke-width=".5" stroke-linecap="square" stroke-linejoin="round" fill="none" stroke="#262626" d="M73 332.95V328.61"/>
<path transform="matrix(.5,0,0,.5,-15.475397,-34.241)" stroke-width=".5" stroke-linecap="square" stroke-linejoin="round" fill="none" stroke="#262626" d="M159.8 332.95V328.61"/>
<path transform="matrix(.5,0,0,.5,-15.475397,-34.241)" stroke-width=".5" stroke-linecap="square" stroke-linejoin="round" fill="none" stroke="#262626" d="M246.6 332.95V328.61"/>
<path transform="matrix(.5,0,0,.5,-15.475397,-34.241)" stroke-width=".5" stroke-linecap="square" stroke-linejoin="round" fill="none" stroke="#262626" d="M333.4 332.95V328.61"/>
<path transform="matrix(.5,0,0,.5,-15.475397,-34.241)" stroke-width=".5" stroke-linecap="square" stroke-linejoin="round" fill="none" stroke="#262626" d="M420.2 332.95V328.61"/>
<path transform="matrix(.5,0,0,.5,-15.475397,-34.241)" stroke-width=".5" stroke-linecap="square" stroke-linejoin="round" fill="none" stroke="#262626" d="M507 332.95V328.61"/>
<path transform="matrix(.5,0,0,.5,-15.475397,-34.241)" stroke-width=".5" stroke-linecap="square" stroke-linejoin="round" fill="none" stroke="#262626" d="M73 72.55V76.89"/>
<path transform="matrix(.5,0,0,.5,-15.475397,-34.241)" stroke-width=".5" stroke-linecap="square" stroke-linejoin="round" fill="none" stroke="#262626" d="M159.8 72.55V76.89"/>
<path transform="matrix(.5,0,0,.5,-15.475397,-34.241)" stroke-width=".5" stroke-linecap="square" stroke-linejoin="round" fill="none" stroke="#262626" d="M246.6 72.55V76.89"/>
<path transform="matrix(.5,0,0,.5,-15.475397,-34.241)" stroke-width=".5" stroke-linecap="square" stroke-linejoin="round" fill="none" stroke="#262626" d="M333.4 72.55V76.89"/>
<path transform="matrix(.5,0,0,.5,-15.475397,-34.241)" stroke-width=".5" stroke-linecap="square" stroke-linejoin="round" fill="none" stroke="#262626" d="M420.2 72.55V76.89"/>
<path transform="matrix(.5,0,0,.5,-15.475397,-34.241)" stroke-width=".5" stroke-linecap="square" stroke-linejoin="round" fill="none" stroke="#262626" d="M507 72.55V76.89"/>
<use data-text="0" xlink:href="#font_0_17" transform="matrix(6,0,0,-6,19.274603,140.434)" fill="#262626"/>
<use data-text="5" xlink:href="#font_0_22" transform="matrix(6,0,0,-6,60.924608,140.434)" fill="#262626"/>
<use data-text="0" xlink:href="#font_0_17" transform="matrix(6,0,0,-6,64.260608,140.434)" fill="#262626"/>
<use data-text="1" xlink:href="#font_0_18" transform="matrix(6,0,0,-6,102.57461,140.434)" fill="#262626"/>
<use data-text="0" xlink:href="#font_0_17" transform="matrix(6,0,0,-6,105.91061,140.434)" fill="#262626"/>
<use data-text="0" xlink:href="#font_0_17" transform="matrix(6,0,0,-6,109.24661,140.434)" fill="#262626"/>
<use data-text="1" xlink:href="#font_0_18" transform="matrix(6,0,0,-6,145.9746,140.434)" fill="#262626"/>
<use data-text="5" xlink:href="#font_0_22" transform="matrix(6,0,0,-6,149.3106,140.434)" fill="#262626"/>
<use data-text="0" xlink:href="#font_0_17" transform="matrix(6,0,0,-6,152.64659,140.434)" fill="#262626"/>
<use data-text="2" xlink:href="#font_0_19" transform="matrix(6,0,0,-6,189.3746,140.434)" fill="#262626"/>
<use data-text="0" xlink:href="#font_0_17" transform="matrix(6,0,0,-6,192.7106,140.434)" fill="#262626"/>
<use data-text="0" xlink:href="#font_0_17" transform="matrix(6,0,0,-6,196.0466,140.434)" fill="#262626"/>
<use data-text="2" xlink:href="#font_0_19" transform="matrix(6,0,0,-6,232.7746,140.434)" fill="#262626"/>
<use data-text="5" xlink:href="#font_0_22" transform="matrix(6,0,0,-6,236.1106,140.434)" fill="#262626"/>
<use data-text="0" xlink:href="#font_0_17" transform="matrix(6,0,0,-6,239.4466,140.434)" fill="#262626"/>
<use data-text="T" xlink:href="#font_0_53" transform="matrix(6.6,0,0,-6.6,117.024707,148.934)" fill="#262626"/>
<use data-text="i" xlink:href="#font_0_74" transform="matrix(6.6,0,0,-6.6,121.057308,148.934)" fill="#262626"/>
<use data-text="m" xlink:href="#font_0_78" transform="matrix(6.6,0,0,-6.6,122.892108,148.934)" fill="#262626"/>
<use data-text="e" xlink:href="#font_0_70" transform="matrix(6.6,0,0,-6.6,128.7595,148.934)" fill="#262626"/>
<use data-text=" " xlink:href="#font_0_1" transform="matrix(6.6,0,0,-6.6,132.42911,148.934)" fill="#262626"/>
<use data-text="(" xlink:href="#font_0_9" transform="matrix(6.6,0,0,-6.6,134.2639,148.934)" fill="#262626"/>
<use data-text="s" xlink:href="#font_0_84" transform="matrix(6.6,0,0,-6.6,136.4617,148.934)" fill="#262626"/>
<use data-text=")" xlink:href="#font_0_10" transform="matrix(6.6,0,0,-6.6,140.1313,148.934)" fill="#262626"/>
<path transform="matrix(.5,0,0,.5,-15.475397,-34.241)" stroke-width=".5" stroke-linecap="square" stroke-linejoin="round" fill="none" stroke="#262626" d="M73 332.95V72.55"/>
<path transform="matrix(.5,0,0,.5,-15.475397,-34.241)" stroke-width=".5" stroke-linecap="square" stroke-linejoin="round" fill="none" stroke="#262626" d="M507 332.95V72.55"/>
<path transform="matrix(.5,0,0,.5,-15.475397,-34.241)" stroke-width=".5" stroke-linecap="square" stroke-linejoin="round" fill="none" stroke="#262626" d="M73 332.95H77.34"/>
<path transform="matrix(.5,0,0,.5,-15.475397,-34.241)" stroke-width=".5" stroke-linecap="square" stroke-linejoin="round" fill="none" stroke="#262626" d="M73 289.55H77.34"/>
<path transform="matrix(.5,0,0,.5,-15.475397,-34.241)" stroke-width=".5" stroke-linecap="square" stroke-linejoin="round" fill="none" stroke="#262626" d="M73 246.15H77.34"/>
<path transform="matrix(.5,0,0,.5,-15.475397,-34.241)" stroke-width=".5" stroke-linecap="square" stroke-linejoin="round" fill="none" stroke="#262626" d="M73 202.75H77.34"/>
<path transform="matrix(.5,0,0,.5,-15.475397,-34.241)" stroke-width=".5" stroke-linecap="square" stroke-linejoin="round" fill="none" stroke="#262626" d="M73 159.35H77.34"/>
<path transform="matrix(.5,0,0,.5,-15.475397,-34.241)" stroke-width=".5" stroke-linecap="square" stroke-linejoin="round" fill="none" stroke="#262626" d="M73 115.95H77.34"/>
<path transform="matrix(.5,0,0,.5,-15.475397,-34.241)" stroke-width=".5" stroke-linecap="square" stroke-linejoin="round" fill="none" stroke="#262626" d="M73 72.55H77.34"/>
<path transform="matrix(.5,0,0,.5,-15.475397,-34.241)" stroke-width=".5" stroke-linecap="square" stroke-linejoin="round" fill="none" stroke="#262626" d="M507 332.95H502.66"/>
<path transform="matrix(.5,0,0,.5,-15.475397,-34.241)" stroke-width=".5" stroke-linecap="square" stroke-linejoin="round" fill="none" stroke="#262626" d="M507 289.55H502.66"/>
<path transform="matrix(.5,0,0,.5,-15.475397,-34.241)" stroke-width=".5" stroke-linecap="square" stroke-linejoin="round" fill="none" stroke="#262626" d="M507 246.15H502.66"/>
<path transform="matrix(.5,0,0,.5,-15.475397,-34.241)" stroke-width=".5" stroke-linecap="square" stroke-linejoin="round" fill="none" stroke="#262626" d="M507 202.75H502.66"/>
<path transform="matrix(.5,0,0,.5,-15.475397,-34.241)" stroke-width=".5" stroke-linecap="square" stroke-linejoin="round" fill="none" stroke="#262626" d="M507 159.35H502.66"/>
<path transform="matrix(.5,0,0,.5,-15.475397,-34.241)" stroke-width=".5" stroke-linecap="square" stroke-linejoin="round" fill="none" stroke="#262626" d="M507 115.95H502.66"/>
<path transform="matrix(.5,0,0,.5,-15.475397,-34.241)" stroke-width=".5" stroke-linecap="square" stroke-linejoin="round" fill="none" stroke="#262626" d="M507 72.55H502.66"/>
<use data-text="-" xlink:href="#font_0_14" transform="matrix(6,0,0,-6,7.824602,134.48401)" fill="#262626"/>
<use data-text="0" xlink:href="#font_0_17" transform="matrix(6,0,0,-6,9.822602,134.48401)" fill="#262626"/>
<use data-text="." xlink:href="#font_0_15" transform="matrix(6,0,0,-6,13.158603,134.48401)" fill="#262626"/>
<use data-text="5" xlink:href="#font_0_22" transform="matrix(6,0,0,-6,14.826603,134.48401)" fill="#262626"/>
<use data-text="0" xlink:href="#font_0_17" transform="matrix(6,0,0,-6,15.324602,112.78399)" fill="#262626"/>
<use data-text="0" xlink:href="#font_0_17" transform="matrix(6,0,0,-6,10.324602,91.08399)" fill="#262626"/>
<use data-text="." xlink:href="#font_0_15" transform="matrix(6,0,0,-6,13.660603,91.08399)" fill="#262626"/>
<use data-text="5" xlink:href="#font_0_22" transform="matrix(6,0,0,-6,15.328603,91.08399)" fill="#262626"/>
<use data-text="1" xlink:href="#font_0_18" transform="matrix(6,0,0,-6,15.324602,69.383998)" fill="#262626"/>
<use data-text="1" xlink:href="#font_0_18" transform="matrix(6,0,0,-6,10.324602,47.684003)" fill="#262626"/>
<use data-text="." xlink:href="#font_0_15" transform="matrix(6,0,0,-6,13.660603,47.684003)" fill="#262626"/>
<use data-text="5" xlink:href="#font_0_22" transform="matrix(6,0,0,-6,15.328603,47.684003)" fill="#262626"/>
<use data-text="2" xlink:href="#font_0_19" transform="matrix(6,0,0,-6,15.324602,25.983998)" fill="#262626"/>
<use data-text="2" xlink:href="#font_0_19" transform="matrix(6,0,0,-6,10.324602,4.2840006)" fill="#262626"/>
<use data-text="." xlink:href="#font_0_15" transform="matrix(6,0,0,-6,13.660603,4.2840006)" fill="#262626"/>
<use data-text="5" xlink:href="#font_0_22" transform="matrix(6,0,0,-6,15.328603,4.2840006)" fill="#262626"/>
<use data-text="W" xlink:href="#font_0_56" transform="matrix(-.00000028050003,-6.6,-6.6,.00000028050003,4.824603,92.383937)" fill="#262626"/>
<use data-text="a" xlink:href="#font_0_66" transform="matrix(-.00000028050003,-6.6,-6.6,.00000028050003,4.824603,86.153537)" fill="#262626"/>
<use data-text="v" xlink:href="#font_0_87" transform="matrix(-.00000028050003,-6.6,-6.6,.00000028050003,4.8246028,82.48393)" fill="#262626"/>
<use data-text="e" xlink:href="#font_0_70" transform="matrix(-.00000028050003,-6.6,-6.6,.00000028050003,4.8246028,78.81433)" fill="#262626"/>
<use data-text=" " xlink:href="#font_0_1" transform="matrix(-.00000028050003,-6.6,-6.6,.00000028050003,4.8246028,75.14473)" fill="#262626"/>
<use data-text="h" xlink:href="#font_0_73" transform="matrix(-.00000028050003,-6.6,-6.6,.00000028050003,4.824602,73.30993)" fill="#262626"/>
<use data-text="e" xlink:href="#font_0_70" transform="matrix(-.00000028050003,-6.6,-6.6,.00000028050003,4.824602,69.27733)" fill="#262626"/>
<use data-text="i" xlink:href="#font_0_74" transform="matrix(-.00000028050003,-6.6,-6.6,.00000028050003,4.824602,65.607738)" fill="#262626"/>
<use data-text="g" xlink:href="#font_0_72" transform="matrix(-.00000028050003,-6.6,-6.6,.00000028050003,4.824602,63.772935)" fill="#262626"/>
<use data-text="h" xlink:href="#font_0_73" transform="matrix(-.00000028050003,-6.6,-6.6,.00000028050003,4.8246018,59.740335)" fill="#262626"/>
<use data-text="t" xlink:href="#font_0_85" transform="matrix(-.00000028050003,-6.6,-6.6,.00000028050003,4.8246018,55.707735)" fill="#262626"/>
<use data-text=" " xlink:href="#font_0_1" transform="matrix(-.00000028050003,-6.6,-6.6,.00000028050003,4.8246018,53.509935)" fill="#262626"/>
<use data-text="(" xlink:href="#font_0_9" transform="matrix(-.00000028050003,-6.6,-6.6,.00000028050003,4.824601,51.675134)" fill="#262626"/>
<use data-text="m" xlink:href="#font_0_78" transform="matrix(-.00000028050003,-6.6,-6.6,.00000028050003,4.824601,49.477334)" fill="#262626"/>
<use data-text=")" xlink:href="#font_0_10" transform="matrix(-.00000028050003,-6.6,-6.6,.00000028050003,4.824601,43.609933)" fill="#262626"/>
<path transform="matrix(.5,0,0,.5,-15.475397,-34.241)" stroke-width="2.5" stroke-linecap="butt" stroke-dasharray="2,2" stroke-linejoin="bevel" fill="none" stroke="#000000" d="M74.736 289.55H76.472 78.208 79.944 81.68L83.416 289.55003H85.152 86.888L88.624 289.5501 90.36 289.55003 92.096 289.55183 93.832 289.60108 95.568 289.66987 97.304 289.7472 99.04 289.8107 100.776 289.89604 102.512 290.0272 104.248 290.21907 105.984 290.76939 107.72 291.5769 109.456 291.95179 111.192 291.53608 112.928 291.03077 114.664 290.43925 116.4 289.8614 118.136 288.59129 119.872 285.9694 121.608 281.59468 123.344 273.666 125.08 254.37348 126.816 221.54381 128.552 192.33133 130.288 172.06981 132.024 159.63138 133.76 154.2924 135.496 149.4824 137.232 144.21889 138.968 139.55487 140.704 134.95096 142.44 132.7853 144.176 134.19872 145.912 134.98781 147.648 134.91826 149.384 136.09874 151.12 139.46205 152.856 142.62892 154.592 145.46186 156.328 148.72013 158.064 151.38736 159.8 153.64102 161.536 157.82402 163.272 162.96744 165.008 166.7841 166.744 168.28061 168.48 169.21024 170.216 169.17617 171.952 168.89835 173.688 168.81847 175.424 167.63185 177.16 166.56816 178.896 167.0918 180.632 168.78347 182.368 169.99544 184.104 169.14871 185.84 167.54811 187.576 166.77993 189.312 166.89019 191.048 167.65225 192.784 168.38622 194.52 167.83634 196.256 167.00124 197.992 165.72733 199.728 164.19826 201.464 161.52758 203.2 158.68523 204.936 158.15326 206.672 158.95163 208.408 161.05228 210.144 162.9125 211.88 163.22565 213.616 161.18656 215.352 158.79285 217.088 158.53995 218.824 159.8009 220.56 160.47432 222.296 161.1513 224.032 162.05644 225.768 162.78258 227.504 163.19284 229.24 163.08374 230.976 164.59908 232.712 166.3244 234.448 166.9564 236.184 166.84506 237.92 167.01187 239.656 167.56079 241.392 169.41815 243.128 171.8006 244.864 173.0734 246.6 173.72159 248.336 173.97183 250.072 173.88977 251.808 173.30748 253.544 173.07209 255.28 173.79512 257.016 173.22026 258.752 171.69194 260.488 171.27756 262.224 170.7966 263.96 170.13706 265.696 170.26271 267.432 169.80844 269.168 168.67398 270.904 166.98998 272.64 166.30724 274.376 166.03693 276.112 164.7348 277.848 163.6851 279.584 163.86846 281.32 164.94573 283.056 165.39069 284.792 164.16677 286.528 162.73657 288.264 162.1491 290 161.9094 291.736 162.0492 293.472 161.61229 295.208 161.50168 296.944 160.91802 298.68 160.51174 300.416 160.42664 302.152 159.44313 303.888 159.08953 305.624 158.96227 307.36 158.52101 309.096 157.80475 310.832 157.38033 312.568 156.85268 314.304 156.50981 316.04 155.98944 317.776 156.33803 319.512 157.24529 321.248 158.28414 322.984 159.45856 324.72 159.89435 326.456 160.45433 328.192 161.7894 329.928 163.07448 331.664 164.7947 333.4 165.77622 335.136 166.01142 336.872 165.65332 338.608 165.93656 340.344 166.80657 342.08 167.90918 343.816 168.52133 345.552 168.45781 347.288 167.53842 349.024 166.85588 350.76 167.51248 352.496 168.52426 354.232 169.82032 355.968 170.25731 357.704 170.06122 359.44 169.74991 361.176 169.71674 362.912 169.91179 364.648 170.87422 366.384 172.12586 368.12 173.49901 369.856 174.32274 371.592 174.29557 373.328 173.77759 375.064 174.0805 376.8 174.8191 378.536 175.38501 380.272 174.99309 382.008 174.94356 383.744 175.9708 385.48 176.71007 387.216 177.08063 388.952 177.43303 390.688 177.35155 392.424 177.27327 394.16 178.47397 395.896 179.89612 397.632 179.53183 399.368 179.2749 401.104 180.37126 402.84 181.76004 404.576 182.24373 406.312 182.0194 408.048 181.70134 409.784 181.28256 411.52 182.54412 413.256 183.86339 414.992 184.73908 416.728 184.63843 418.464 185.37381 420.2 186.32425 421.936 187.04805 423.672 187.20145 425.408 187.177 427.144 187.64188 428.88 188.62659 430.616 189.22063 432.352 188.67925 434.088 188.23401 435.824 188.6624 437.56 189.45279 439.296 190.48232 441.032 191.67407 442.768 193.01959 444.504 193.52867 446.24 193.63115 447.976 194.63713 449.712 195.37267 451.448 195.71608 453.184 196.5683 454.92 197.1279 456.656 197.50206 458.392 198.00519 460.128 197.46367 461.864 196.54279 463.6 196.7026 465.336 197.08074 467.072 196.92957 468.808 196.9543 470.544 196.65003 472.28 196.30625 474.016 196.23517 475.752 196.39099 477.488 195.78876 479.224 195.21268 480.96 194.833 482.696 194.48656 484.432 194.83869 486.168 195.50484 487.904 197.04586 489.64 197.78267"/>
<path transform="matrix(.5,0,0,.5,-15.475397,-34.241)" stroke-width="2" stroke-linecap="butt" stroke-linejoin="round" fill="none" stroke="#d95319" d="M74.736 289.29219 76.472 288.75514 78.208 288.31849 79.944 288.06855 81.68 288.74794 83.416 290.1634 85.152 291.53349 86.888 292.7863 88.624 293.792 90.36 293.88346 92.096 293.0456 93.832 291.5883 95.568 290.95329 97.304 290.8039 99.04 291.652 100.776 292.4605 102.512 292.56385 104.248 293.6992 105.984 296.06938 107.72 297.22169 109.456 297.0174 111.192 297.2309 112.928 296.97663 114.664 295.11537 116.4 292.914 118.136 290.08998 119.872 284.29335 121.608 277.54338 123.344 267.97029 125.08 249.54427 126.816 222.38816 128.552 197.85137 130.288 180.48279 132.024 167.9247 133.76 159.5638 135.496 150.866 137.232 140.46227 138.968 131.74063 140.704 127.67732 142.44 127.4178 144.176 128.45978 145.912 131.23361 147.648 136.50351 149.384 141.55849 151.12 143.61185 152.856 143.45491 154.592 142.79257 156.328 144.6935 158.064 147.9205 159.8 152.71508 161.536 159.07251 163.272 164.68352 165.008 168.66481 166.744 168.75278 168.48 166.28252 170.216 164.93267 171.952 165.28569 173.688 167.86983 175.424 170.19062 177.16 170.34996 178.896 167.51169 180.632 163.89759 182.368 161.70294 184.104 161.54686 185.84 162.99591 187.576 166.22345 189.312 171.43146 191.048 174.19754 192.784 173.70972 194.52 170.1729 196.256 164.99321 197.992 160.59085 199.728 160.80068 201.464 166.537 203.2 172.93486 204.936 176.09793 206.672 174.32149 208.408 171.8007 210.144 169.16454 211.88 165.95305 213.616 162.34178 215.352 161.09093 217.088 164.2034 218.824 169.40283 220.56 170.5802 222.296 165.6777 224.032 158.76309 225.768 154.40143 227.504 154.35567 229.24 157.95671 230.976 162.47171 232.712 164.61234 234.448 164.22183 236.184 160.97205 237.92 157.36096 239.656 154.22893 241.392 154.1112 243.128 158.87493 244.864 164.87482 246.6 167.23867 248.336 166.23667 250.072 164.48513 251.808 163.68994 253.544 164.75972 255.28 166.94493 257.016 168.55355 258.752 167.23386 260.488 166.37233 262.224 165.83843 263.96 163.60839 265.696 160.00353 267.432 158.4863 269.168 159.68126 270.904 162.04247 272.64 164.01143 274.376 165.93448 276.112 164.44808 277.848 160.62807 279.584 157.19579 281.32 157.18592 283.056 161.80187 284.792 166.82625 286.528 168.49918 288.264 167.8649 290 166.51703 291.736 165.2772 293.472 162.97371 295.208 163.43848 296.944 166.25116 298.68 168.89264 300.416 171.6188 302.152 171.42919 303.888 168.24233 305.624 165.6121 307.36 164.22426 309.096 162.56258 310.832 161.2029 312.568 161.93683 314.304 164.96631 316.04 166.58562 317.776 165.18077 319.512 163.58399 321.248 164.13957 322.984 164.2773 324.72 164.19232 326.456 165.75527 328.192 166.67084 329.928 169.50812 331.664 171.2305 333.4 169.73107 335.136 166.4358 336.872 163.85474 338.608 163.04729 340.344 163.83719 342.08 166.6197 343.816 171.32808 345.552 173.35086 347.288 172.17125 349.024 170.55242 350.76 169.40792 352.496 168.65128 354.232 168.99953 355.968 171.28144 357.704 175.004 359.44 177.91316 361.176 177.61386 362.912 174.77698 364.648 171.30785 366.384 167.82701 368.12 165.54174 369.856 168.47074 371.592 174.087 373.328 178.5764 375.064 179.43651 376.8 173.94817 378.536 169.09609 380.272 168.3954 382.008 172.2901 383.744 178.05623 385.48 182.31092 387.216 184.65863 388.952 182.81871 390.688 177.43697 392.424 172.47463 394.16 174.30544 395.896 180.21942 397.632 186.9705 399.368 189.39783 401.104 187.60909 402.84 181.35688 404.576 172.97641 406.312 166.2787 408.048 166.966 409.784 174.08989 411.52 185.67566 413.256 194.43907 414.992 195.44005 416.728 190.9575 418.464 185.60977 420.2 182.9457 421.936 185.22632 423.672 189.31369 425.408 193.76216 427.144 194.51479 428.88 191.30236 430.616 186.67061 432.352 182.72414 434.088 182.39955 435.824 185.82477 437.56 192.48401 439.296 199.04016 441.032 202.35503 442.768 203.29247 444.504 199.97589 446.24 191.97086 447.976 185.4753 449.712 186.60475 451.448 194.74593 453.184 204.39113 454.92 209.81537 456.656 207.42783 458.392 201.88726 460.128 198.02558 461.864 198.0923 463.6 200.69228 465.336 204.37902 467.072 209.35459 468.808 214.43947 470.544 215.16226 472.28 211.62657 474.016 203.70394 475.752 197.3173 477.488 193.86577 479.224 196.0873 480.96 200.91426 482.696 206.50989 484.432 211.90984 486.168 212.79344 487.904 209.77962 489.64 205.8594"/>
<path transform="matrix(.5,0,0,.5,-15.475397,-34.241)" d="M93.832 298.4614 95.568 298.26234 97.304 298.56959 99.04 299.87138 100.776 301.12083 102.512 301.634 104.248 303.1596 105.984 305.91349 107.72 307.42845 109.456 307.5818 111.192 308.13529 112.928 308.20475 114.664 306.66096 116.4 304.75733 118.136 302.21488 119.872 296.7055 121.608 290.25053 123.344 280.96644 125.08 262.82496 126.816 235.95293 128.552 211.68244 130.288 194.56946 132.024 182.25965 133.76 174.13857 135.496 165.67725 137.232 155.51084 138.968 147.0266 140.704 143.19614 142.44 143.15703 144.176 144.40842 145.912 147.37433 147.648 152.83103 149.384 158.07788 151.12 160.31826 152.856 160.3479 154.592 159.86846 156.328 161.94509 158.064 165.32685 159.8 170.26384 161.536 176.7616 163.272 182.5112 165.008 186.63005 166.744 186.85019 168.48 184.50824 170.216 183.28322 171.952 183.75069 173.688 186.4426 175.424 188.86798 177.16 189.12725 178.896 186.38899 180.632 182.87252 182.368 180.77004 184.104 180.7027 185.84 182.23415 187.576 185.54184 189.312 190.8272 191.048 193.6688 192.784 193.25511 194.52 189.79065 196.256 184.6806 197.992 180.34609 199.728 180.61975 201.464 186.41643 203.2 192.86998 204.936 196.08998 206.672 194.36974 208.408 191.90328 210.144 189.32064 211.88 186.1614 213.616 182.60208 215.352 181.40174 217.088 184.5648 218.824 189.81243 220.56 191.03766 222.296 186.18526 224.032 179.32157 225.768 175.01314 227.504 175.02017 229.24 178.67354 230.976 183.23712 232.712 185.42913 234.448 185.08757 236.184 181.88806 237.92 178.32582 239.656 175.24457 241.392 175.17667 243.128 179.9899 244.864 186.03954 246.6 188.45075 248.336 187.49765 250.072 185.79483 251.808 185.04677 253.544 186.16292 255.28 188.39534 257.016 190.05118 258.752 188.7753 260.488 187.9572 262.224 187.46767 263.96 185.28006 265.696 181.71773 267.432 180.24146 269.168 181.47554 270.904 183.87633 272.64 185.88191 274.376 187.84227 276.112 186.39052 277.848 182.60485 279.584 179.20763 281.32 179.23265 283.056 183.88402 284.792 188.94388 286.528 190.6514 288.264 190.05005 290 188.73368 291.736 187.52553 293.472 185.25363 295.208 185.74983 296.944 188.59516 298.68 191.27075 300.416 194.03244 302.152 193.87793 303.888 190.7258 305.624 188.13101 307.36 186.7805 309.096 185.15828 310.832 183.84029 312.568 184.61736 314.304 187.69316 316.04 189.35678 317.776 187.99817 319.512 186.44568 321.248 187.04471 322.984 187.22551 324.72 187.18468 326.456 188.7964 328.192 189.75814 329.928 192.63962 331.664 194.40749 333.4 192.95459 335.136 189.70513 336.872 187.1688 338.608 186.40593 340.344 187.24269 342.08 190.07088 343.816 194.822 345.552 196.88854 347.288 195.75284 349.024 194.17984 350.76 193.08083 352.496 192.37471 354.232 192.77967 355.968 195.12136 357.704 198.90135 359.44 201.86444 361.176 201.6222 362.912 198.84323 364.648 195.43317 366.384 192.01299 368.12 189.79332 369.856 192.79169 371.592 198.4767 373.328 203.03319 375.064 203.95323 376.8 198.52928 378.536 193.74321 380.272 193.11557 382.008 197.0891 383.744 202.93814 385.48 207.2763 387.216 209.71901 388.952 207.97789 390.688 202.7045 392.424 197.86263 394.16 199.82305 395.896 205.87876 397.632 212.7805 399.368 215.3663 401.104 213.74465 402.84 207.66538 404.576 199.47689 406.312 192.99015 408.048 193.88463 409.784 201.23258 411.52 213.07166 413.256 222.11087 414.992 223.38922 416.728 219.1729 418.464 214.12885 420.2 211.76885 421.936 214.38326 423.672 218.79718 425.408 223.56304 427.144 224.6362 428.88 221.75839 430.616 217.46704 432.352 213.84262 434.088 213.83678 435.824 217.61682 437.56 224.63007 439.296 231.54444 441.032 235.22525 442.768 236.52951 444.504 233.5941 446.24 225.9544 447.976 219.84438 449.712 221.36569 451.448 229.91417 453.184 240.00305 454.92 245.82769 456.656 243.8585 458.392 238.70923 460.128 235.18788 461.864 235.5718 463.6 238.42581 465.336 242.35739 467.072 247.55086 468.808 252.87953 470.544 253.84529 472.28 250.57939 474.016 243.07939 475.752 237.21999 477.488 234.51857 479.224 237.67095 480.96 243.49599 482.696 250.203 484.432 256.74165 486.168 259.0445 487.904 258.05503 489.64 257.31394V154.40488L487.904 161.50421 486.168 166.5424 484.432 167.07804 482.696 162.81676 480.96 158.33254 479.224 154.50366 477.488 153.21297 475.752 157.41463 474.016 164.32846 472.28 172.67374 470.544 176.47924 468.808 175.9994 467.072 171.15833 465.336 166.40064 463.6 162.95876 461.864 160.6128 460.128 160.86327 458.392 165.06528 456.656 170.99718 454.92 173.80304 453.184 168.77919 451.448 159.57769 449.712 151.8438 447.976 151.10622 446.24 157.98729 444.504 166.35768 442.768 170.05544 441.032 169.4848 439.296 166.53588 437.56 160.33795 435.824 154.03273 434.088 150.96233 432.352 151.60569 430.616 155.87416 428.88 160.84633 427.144 164.39337 425.408 163.96129 423.672 159.83022 421.936 156.06935 420.2 154.12256 418.464 157.0907 416.728 162.74213 414.992 167.49086 413.256 166.76729 411.52 158.27967 409.784 146.94724 408.048 140.04738 406.312 139.56726 404.576 146.47592 402.84 155.04836 401.104 161.47354 399.368 163.42935 397.632 161.1605 395.896 154.56009 394.16 148.78783 392.424 147.08664 390.688 152.16942 388.952 157.65955 387.216 159.59824 385.48 157.34552 383.744 153.17432 382.008 147.49108 380.272 143.67522 378.536 144.44898 376.8 149.36705 375.064 154.9198 373.328 154.11962 371.592 149.69731 369.856 144.14978 368.12 141.29016 366.384 143.64105 364.648 147.18253 362.912 150.71073 361.176 153.60555 359.44 153.96189 357.704 151.10665 355.968 147.44152 354.232 145.2194 352.496 144.92783 350.76 145.73499 349.024 146.925 347.288 148.58966 345.552 149.81317 343.816 147.83414 342.08 143.16854 340.344 140.43169 338.608 139.68863 336.872 140.5407 335.136 143.16649 333.4 146.50754 331.664 148.05352 329.928 146.3766 328.192 143.58358 326.456 142.71411 324.72 141.19997 322.984 141.32909 321.248 141.23445 319.512 140.72229 317.776 142.36338 316.04 143.81447 314.304 142.23949 312.568 139.2563 310.832 138.56552 309.096 139.96689 307.36 141.66799 305.624 143.0932 303.888 145.75884 302.152 148.98044 300.416 149.20517 298.68 146.51451 296.944 143.90715 295.208 141.12714 293.472 140.69377 291.736 143.02889 290 144.3004 288.264 145.67974 286.528 146.34696 284.792 144.70859 283.056 139.71973 281.32 135.13918 279.584 135.18395 277.848 138.65129 276.112 142.50565 274.376 144.0267 272.64 142.14095 270.904 140.2086 269.168 137.88698 267.432 136.73113 265.696 138.28934 263.96 141.93672 262.224 144.20919 260.488 144.78746 258.752 145.6924 257.016 147.05591 255.28 145.49452 253.544 143.35652 251.808 142.3331 250.072 143.1754 248.336 144.9757 246.6 146.02658 244.864 143.71009 243.128 137.75995 241.392 133.04573 239.656 133.21327 237.92 136.39612 236.184 140.05603 234.448 143.35611 232.712 143.79553 230.976 141.7063 229.24 137.23989 227.504 133.69116 225.768 133.78972 224.032 138.20464 222.296 145.17015 220.56 150.12274 218.824 148.99323 217.088 143.842 215.352 140.78014 213.616 142.08152 211.88 145.74469 210.144 149.00843 208.408 151.69815 206.672 154.27323 204.936 156.1059 203.2 152.99976 201.464 146.65756 199.728 140.9816 197.992 140.8356 196.256 145.30582 194.52 150.55515 192.784 154.16436 191.048 154.72629 189.312 152.03572 187.576 146.90505 185.84 143.75766 184.104 142.391 182.368 142.63584 180.632 144.92267 178.896 148.63439 177.16 151.57266 175.424 151.51326 173.688 149.29705 171.952 146.82071 170.216 146.58209 168.48 148.05681 166.744 150.65537 165.008 150.69957 163.272 146.85584 161.536 141.38343 159.8 135.16629 158.064 130.51416 156.328 127.44189 154.592 125.716678 152.856 126.5619 151.12 126.905429 149.384 125.03908 147.648 120.176 145.912 115.09291 144.176 112.51114 142.44 111.678569 140.704 112.158519 138.968 116.45467 137.232 125.41372 135.496 136.05475 133.76 144.98903 132.024 153.58977 130.288 166.39612 128.552 184.02031 126.816 208.82338 125.08 236.26355 123.344 254.97409 121.608 264.83619 119.872 271.88114 118.136 277.9651 116.4 281.07066 114.664 283.56977 112.928 285.74848 111.192 286.3265 109.456 286.453 107.72 287.01496 105.984 286.22523 104.248 284.2388 102.512 283.49369 100.776 283.8002 99.04 283.43266 97.304 283.03819 95.568 283.64424 93.832 284.7152 92.096 286.62995 90.36 287.90657 88.624 288.22633 86.888 287.6563 85.152 286.93827 83.416 286.1935 81.68 285.46534 79.944 285.47557 78.208 286.43263 76.472 287.58753 74.736 288.75227V289.83207L76.472 289.92277 78.208 290.2043 79.944 290.66154 81.68 292.03056 83.416 294.13328 85.152 296.1287 86.888 297.91627 88.624 299.3577 90.36 299.86036 92.096 299.46128Z" fill="#bf5700" fill-opacity=".14901962"/>
<path transform="matrix(.5,0,0,.5,-15.475397,-34.241)" d="M499 325V279.5H394.5V325Z" fill="#ffffff"/>
<use data-text="T" xlink:href="#font_0_53" transform="matrix(5.4,0,0,-5.4,200.2746,111.883998)"/>
<use data-text="r" xlink:href="#font_0_83" transform="matrix(5.4,0,0,-5.4,203.57399,111.883998)"/>
<use data-text="u" xlink:href="#font_0_86" transform="matrix(5.4,0,0,-5.4,205.67459,111.883998)"/>
<use data-text="e" xlink:href="#font_0_70" transform="matrix(5.4,0,0,-5.4,208.974,111.883998)"/>
<use data-text=" " xlink:href="#font_0_1" transform="matrix(5.4,0,0,-5.4,211.9764,111.883998)"/>
<use data-text="Q" xlink:href="#font_0_50" transform="matrix(5.4,0,0,-5.4,213.4776,111.883998)"/>
<use data-text="o" xlink:href="#font_0_80" transform="matrix(5.4,0,0,-5.4,217.6788,111.883998)"/>
<use data-text="I" xlink:href="#font_0_42" transform="matrix(5.4,0,0,-5.4,220.9782,111.883998)"/>
<use data-text="s" xlink:href="#font_0_84" transform="matrix(5.4,0,0,-5.4,222.4794,111.883998)"/>
<path transform="matrix(.5,0,0,.5,-15.475397,-34.241)" stroke-width="2.5" stroke-linecap="butt" stroke-dasharray="2,2" stroke-linejoin="bevel" fill="none" stroke="#000000" d="M398.5 288.25H428.5"/>
<use data-text="P" xlink:href="#font_0_49" transform="matrix(5.4,0,0,-5.4,200.2746,118.883998)"/>
<use data-text="r" xlink:href="#font_0_83" transform="matrix(5.4,0,0,-5.4,203.8764,118.883998)"/>
<use data-text="e" xlink:href="#font_0_70" transform="matrix(5.4,0,0,-5.4,205.977,118.883998)"/>
<use data-text="d" xlink:href="#font_0_69" transform="matrix(5.4,0,0,-5.4,208.9794,118.883998)"/>
<use data-text="." xlink:href="#font_0_15" transform="matrix(5.4,0,0,-5.4,212.2788,118.883998)"/>
<use data-text=" " xlink:href="#font_0_1" transform="matrix(5.4,0,0,-5.4,213.78,118.883998)"/>
<use data-text="Q" xlink:href="#font_0_50" transform="matrix(5.4,0,0,-5.4,215.2812,118.883998)"/>
<use data-text="o" xlink:href="#font_0_80" transform="matrix(5.4,0,0,-5.4,219.48239,118.883998)"/>
<use data-text="I" xlink:href="#font_0_42" transform="matrix(5.4,0,0,-5.4,222.7818,118.883998)"/>
<use data-text=" " xlink:href="#font_0_1" transform="matrix(5.4,0,0,-5.4,224.283,118.883998)"/>
<use data-text="#" xlink:href="#font_0_4" transform="matrix(5.4,0,0,-5.4,225.7842,118.883998)"/>
<use data-text="6" xlink:href="#font_0_23" transform="matrix(5.4,0,0,-5.4,228.78659,118.883998)"/>
<path transform="matrix(.5,0,0,.5,-15.475397,-34.241)" stroke-width="2" stroke-linecap="butt" stroke-linejoin="round" fill="none" stroke="#d95319" d="M398.5 302.25H428.5"/>
<use data-text="9" xlink:href="#font_0_26" transform="matrix(5.4,0,0,-5.4,200.2746,125.883998)"/>
<use data-text="5" xlink:href="#font_0_22" transform="matrix(5.4,0,0,-5.4,203.277,125.883998)"/>
<use data-text="%" xlink:href="#font_0_6" transform="matrix(5.4,0,0,-5.4,206.2794,125.883998)"/>
<use data-text=" " xlink:href="#font_0_1" transform="matrix(5.4,0,0,-5.4,211.08,125.883998)"/>
<use data-text="C" xlink:href="#font_0_36" transform="matrix(5.4,0,0,-5.4,212.58119,125.883998)"/>
<use data-text="I" xlink:href="#font_0_42" transform="matrix(5.4,0,0,-5.4,216.48,125.883998)"/>
<use data-text="s" xlink:href="#font_0_84" transform="matrix(5.4,0,0,-5.4,217.9812,125.883998)"/>
<path transform="matrix(.5,0,0,.5,-15.475397,-34.241)" d="M428.5 321.3125V311.1875H398.5V321.3125Z" fill="#bf5700" fill-opacity=".14901962"/>
<path transform="matrix(.5,0,0,.5,-15.475397,-34.241)" stroke-width=".5" stroke-linecap="butt" stroke-miterlimit="10" stroke-linejoin="miter" fill="none" stroke="#262626" d="M394.5 325V279.5H499V325Z"/>
</svg>
