<svg xmlns="http://www.w3.org/2000/svg" xmlns:xlink="http://www.w3.org/1999/xlink" version="1.1" width="473" height="301" viewBox="0 0 473 301">
<defs>
<path id="font_0_17" d="M.272995 .723999C.19699097 .723999 .13198853 .69200137 .08898926 .6329956 .04798889 .5779877 .0289917 .48799134 .0289917 .34999085 .0289917 .22399903 .04499817 .13598633 .07899475 .08198547 .12098694 .01399231 .18998719-.023010254 .272995-.023010254 .34999085-.023010254 .41299439 .0079956059 .45700074 .066986087 .49699403 .12199402 .5169983 .21299744 .5169983 .34599305 .5169983 .47599793 .5009918 .56399539 .46699525 .61898806 .4249878 .68699648 .35598756 .723999 .272995 .723999M.272995 .61099246C.30899049 .61099246 .33799745 .59098818 .35499574 .55400088 .36898805 .5239868 .3769989 .44699098 .3769989 .34899903 .3769989 .2689972 .36999513 .19099427 .35899354 .1619873 .34298707 .11999512 .31298829 .09700012 .272995 .09700012 .23599243 .09700012 .20799256 .115997318 .19099427 .1519928 .1769867 .18199158 .16899109 .2559967 .16899109 .35099793 .16899109 .43499757 .17599488 .5149994 .18699646 .5439911 .20199585 .58699038 .23298645 .61099246 .272995 .61099246Z"/>
<path id="font_0_22" d="M.4889984 .70899966H.10998535L.04699707 .31399537H.17298889C.18798828 .34899903 .21998596 .36799623 .2630005 .36799623 .33399964 .36799623 .3769989 .31698609 .3769989 .23098755 .3769989 .147995 .33399964 .09700012 .2630005 .09700012 .20199585 .09700012 .16799927 .12799073 .16499329 .18499756H.026992798C.0289917 .06098938 .12298584-.023010254 .26098634-.023010254 .41299439-.023010254 .5169983 .08099365 .5169983 .23399353 .5169983 .37998963 .4269867 .47898866 .29599 .47898866 .24899292 .47898866 .21398926 .46699525 .17298889 .43598939L.19599915 .58399966H.4889984V.70899966Z"/>
<path id="font_0_18" d="M.23799134 .4889984V0H.37799073V.70899966H.2849884C.2630005 .625 .18998719 .58200076 .067993167 .58200076V.4889984H.23799134Z"/>
<path id="font_0_19" d="M.5119934 .125H.21099854C.22999573 .16299439 .2519989 .18399048 .35598756 .25898744 .47898866 .34899903 .5149994 .4019928 .5149994 .49899293 .5149994 .6359863 .41999818 .723999 .27198792 .723999 .125 .723999 .038986207 .6369934 .038986207 .4869995V.46199037H.17399597V.4850006C.17399597 .56399539 .21099854 .6100006 .2749939 .6100006 .33699037 .6100006 .375 .5669861 .375 .49598695 .375 .4169922 .35099793 .3880005 .19299317 .27598573 .07299805 .19400025 .035995485 .13198853 .02999878 0H.5119934V.125Z"/>
<path id="font_0_20" d="M.21699524 .31698609C.2709961 .31698609 .27398683 .31698609 .29899598 .30999757 .34599305 .29699708 .37599183 .2559967 .37599183 .20399475 .37599183 .14099121 .33198548 .09700012 .2709961 .09700012 .20498657 .09700012 .16899109 .1349945 .16499329 .20799256H.0289917C.02999878 .06599426 .12199402-.023010254 .2679901-.023010254 .4189911-.023010254 .5159912 .06599426 .5159912 .20399475 .5159912 .2869873 .47999574 .34098817 .3999939 .37998963 .46499635 .42099 .49299623 .46598817 .49299623 .5309906 .49299623 .6489868 .40499879 .723999 .2679901 .723999 .16499329 .723999 .085998538 .67900088 .054992677 .60198977 .041992189 .56799319 .037994386 .54499819 .037994386 .48599244H.16799927C.16899109 .5239868 .17199707 .54299929 .1789856 .5609894 .19198609 .59199526 .22399903 .61099246 .2649994 .61099246 .32099916 .61099246 .35299684 .57699587 .35299684 .5179901 .35299684 .44599916 .31199647 .41099549 .22898865 .41099549H.21699524V.31698609Z"/>
<path id="font_0_21" d="M.5219879 .272995H.44799806V.70899966H.2829895L.023986817 .2749939V.15699768H.30799867V0H.44799806V.15699768H.5219879V.272995M.30799867 .272995H.12298584L.30799867 .57598879V.272995Z"/>
<path id="font_0_53" d="M.3849945 .60398867H.59799197V.72898867H.01399231V.60398867H.23498535V0H.3849945V.60398867Z"/>
<path id="font_0_74" d="M.20698548 .5399933H.066986087V0H.20698548V.5399933M.20698548 .72898867H.066986087V.60398867H.20698548V.72898867Z"/>
<path id="font_0_78" d="M.05999756 .5399933V0H.19999695V.32398988C.19999695 .3909912 .23599243 .42999269 .29599 .42999269 .34298707 .42999269 .37199403 .40299989 .37199403 .3600006V0H.5119934V.32398988C.5119934 .3899994 .5479889 .42999269 .60798647 .42999269 .6549988 .42999269 .6839905 .40299989 .6839905 .3600006V0H.82398989V.38198854C.82398989 .4869995 .7599945 .548996 .6519928 .548996 .58299258 .548996 .5359955 .5249939 .49398805 .46899415 .46798707 .519989 .4139862 .548996 .34700013 .548996 .2849884 .548996 .24499512 .5289917 .19898987 .47299195V.5399933H.05999756Z"/>
<path id="font_0_70" d="M.5239868 .22599793C.5249939 .23799134 .5249939 .24299622 .5249939 .25 .5249939 .3039856 .5169983 .35398866 .5039978 .3919983 .46798707 .48999024 .3809967 .548996 .27198792 .548996 .116989139 .548996 .021987915 .43699647 .021987915 .2559967 .021987915 .08299255 .115997318-.023010254 .2689972-.023010254 .3899994-.023010254 .48799134 .04499817 .5189972 .1519928H.3809967C.3639984 .10899353 .32499696 .083999637 .27398683 .083999637 .23399353 .083999637 .20199585 .100997928 .18199158 .1309967 .16899109 .15098572 .1639862 .1749878 .1619873 .22599793H.5239868M.1639862 .31900025C.17298889 .4019928 .20799256 .44198609 .269989 .44198609 .33399964 .44198609 .37199403 .39898683 .3789978 .31900025H.1639862Z"/>
<path id="font_0_1" d="M0 0Z"/>
<path id="font_0_9" d="M.20298767 .72898867C.08799744 .5549927 .039993287 .4189911 .039993287 .2649994 .039993287 .10998535 .08799744-.026000977 .20298767-.2000122H.30299378C.19599915 .005996704 .16299439 .116989139 .16299439 .2649994 .16299439 .4119873 .19699097 .5249939 .30299378 .72898867H.20298767Z"/>
<path id="font_0_84" d="M.5049896 .3659973C.5029907 .47999574 .4149933 .548996 .269989 .548996 .1329956 .548996 .04798889 .47999574 .04798889 .36898805 .04798889 .33299256 .05899048 .3019867 .07798767 .2809906 .09700012 .2619934 .11399841 .25299073 .1659851 .23599243L.33299256 .18399048C.36799623 .17298889 .37998963 .1619873 .37998963 .13999939 .37998963 .10699463 .34098817 .08699036 .27598573 .08699036 .23899842 .08699036 .21099854 .09298706 .19299317 .10598755 .17799378 .116989139 .17199707 .12799073 .1659851 .15699768H.0289917C.032989503 .037994386 .11999512-.023010254 .28399659-.023010254 .35899354-.023010254 .41600038-.007003784 .45599366 .024993897 .49598695 .056991579 .519989 .10699463 .519989 .1599884 .519989 .22999573 .4850006 .2749939 .4139862 .29599L.23699951 .34700013C.19799805 .35899354 .18798828 .36698915 .18798828 .3889923 .18798828 .4189911 .21998596 .43899537 .2689972 .43899537 .33599855 .43899537 .36898805 .4149933 .36999513 .3659973H.5049896Z"/>
<path id="font_0_10" d="M.12199402-.2000122C.23699951-.026000977 .2849884 .10998535 .2849884 .2639923 .2849884 .4189911 .23699951 .5549927 .12199402 .72898867H.021987915C.1289978 .522995 .1619873 .4119873 .1619873 .2639923 .1619873 .116989139 .12799073 .0039978029 .021987915-.2000122H.12199402Z"/>
<path id="font_0_14" d="M.2979889 .34199525H.025985718V.20698548H.2979889V.34199525Z"/>
<path id="font_0_56" d="M.7299957 0 .9319916 .72898867H.772995L.6639862 .18199158 .54599 .72898867H.397995L.2849884 .18299866 .17199707 .72898867H.0129852299L.21899414 0H.35398866L.47299195 .56900027 .59498599 0H.7299957Z"/>
<path id="font_0_66" d="M.5239868 .016998291C.5 .039993287 .49198915 .055999757 .49198915 .08299255V.3829956C.49198915 .49299623 .4169922 .548996 .2709961 .548996 .125 .548996 .04899597 .4869995 .039993287 .3619995H.1749878C.18199158 .41799928 .20498657 .43598939 .27398683 .43598939 .32798768 .43598939 .35499574 .41799928 .35499574 .38198854 .35499574 .3639984 .34599305 .34899903 .33099366 .33999635 .31199647 .32998658 .31199647 .32998658 .24299622 .31900025L.18699646 .30899049C.07998657 .29100038 .027999878 .23599243 .027999878 .13899231 .027999878 .041992189 .09298706-.023010254 .19198609-.023010254 .2519989-.023010254 .30599977 .0019989014 .35598756 .053985597 .35598756 .025985718 .35899354 .015991211 .37199403 0H.5239868V.016998291M.35499574 .21699524C.35499574 .13598633 .31498719 .08999634 .24398804 .08999634 .19699097 .08999634 .16799927 .114990238 .16799927 .15499878 .16799927 .19699097 .18998719 .21699524 .24798584 .22898865L.29599 .23799134C.33299256 .24499512 .33898927 .24699402 .35499574 .25498963V.21699524Z"/>
<path id="font_0_87" d="M.34999085 0 .5359955 .5399933H.3880005L.2789917 .14498902 .1619873 .5399933H.01399231L.20298767 0H.34999085Z"/>
<path id="font_0_73" d="M.066986087 .72898867V0H.20698548V.32398988C.20698548 .38598634 .2519989 .42999269 .31498719 .42999269 .34599305 .42999269 .36898805 .4189911 .3849945 .39698792 .397995 .3789978 .40098573 .3639984 .40098573 .32998658V0H.54100039V.3619995C.54100039 .42900086 .522995 .47698976 .48599244 .5079956 .45498658 .5339966 .4099884 .548996 .36499024 .548996 .29599 .548996 .24598694 .5219879 .20698548 .46199037V.72898867H.066986087Z"/>
<path id="font_0_72" d="M.3999939 .5399933V.45700074C.36099244 .519989 .31799317 .548996 .26098634 .548996 .21299744 .548996 .1599884 .5249939 .12298584 .48599244 .068984989 .42999269 .040985109 .35198976 .040985109 .25698854 .040985109 .09098816 .1289978-.023010254 .2579956-.023010254 .31599427-.023010254 .35099793-.0040130617 .3999939 .054992677V-.018005372C.3999939-.08300781 .35398866-.12800598 .28799439-.12800598 .23799134-.12800598 .20698548-.10600281 .19599915-.06500244H.051986696C.052993776-.10700989 .067993167-.13600159 .10499573-.16600037 .147995-.20100403 .20698548-.21800232 .2829895-.21800232 .43899537-.21800232 .5329895-.14300537 .5329895-.018005372V.5399933H.3999939M.2869873 .43199159C.35299684 .43199159 .4019928 .35899354 .4019928 .25898744 .4019928 .16099549 .35499574 .09399414 .2849884 .09399414 .22399903 .09399414 .18099976 .16099549 .18099976 .25898744 .18099976 .36099244 .22399903 .43199159 .2869873 .43199159Z"/>
<path id="font_0_85" d="M.30099488 .5289917H.22299195V.673996H.08299255V.5289917H.01399231V.43598939H.08299255V.10398865C.08299255 .018997193 .12799073-.023010254 .21998596-.023010254 .2519989-.023010254 .2749939-.020004273 .30099488-.012008667V.085998538C.2869873 .083999637 .27999879 .08299255 .2689972 .08299255 .23199463 .08299255 .22299195 .09399414 .22299195 .14199829V.43598939H.30099488V.5289917Z"/>
<path id="font_0_83" d="M.06298828 .5399933V0H.20298767V.2869873C.20298767 .36898805 .24398804 .4099884 .32598878 .4099884 .34098817 .4099884 .35099793 .40899659 .36999513 .4059906V.5479889C.3619995 .548996 .35899354 .548996 .35299684 .548996 .2889862 .548996 .23399353 .5069885 .20298767 .43399049V.5399933H.06298828Z"/>
<path id="font_0_86" d="M.54100039 0V.5399933H.40098573V.20199585C.40098573 .13798523 .35699464 .09599304 .28799439 .09599304 .22799683 .09599304 .19799805 .12799073 .19799805 .19299317V.5399933H.057998659V.1639862C.057998659 .04399109 .12298584-.023010254 .23899842-.023010254 .31199647-.023010254 .36099244 .0029907227 .40098573 .06399536V0H.54100039Z"/>
<path id="font_0_50" d="M.6649933 .102996829C.71398928 .16299439 .7449951 .2630005 .7449951 .36099244 .7449951 .46798707 .70700076 .57099917 .6429901 .6399994 .5799866 .70799258 .49798585 .7409973 .3939972 .7409973 .2899933 .7409973 .20799256 .70799258 .14498902 .6399994 .07998657 .57099917 .042999269 .46798707 .042999269 .35899354 .042999269 .25 .08099365 .14698792 .14498902 .07798767 .20799256 .009994507 .2899933-.023010254 .3939972-.023010254 .46998597-.023010254 .5249939-.008010864 .58299258 .026992798L.6689911-.054000856 .7449951 .026992798 .6649933 .102996829M.47999574 .27799989 .4039917 .19699097 .48098756 .12399292C.45700074 .11199951 .4249878 .10499573 .3929901 .10499573 .272995 .10499573 .19299317 .20599365 .19299317 .35899354 .19299317 .5130005 .27198792 .61299136 .3939972 .61299136 .5159912 .61299136 .59498599 .5130005 .59498599 .35798646 .59498599 .2979889 .58399966 .24398804 .56199648 .19999695L.47999574 .27799989Z"/>
<path id="font_0_80" d="M.30099488 .548996C.13598633 .548996 .034988405 .43998719 .034988405 .2630005 .034988405 .084991458 .13598633-.023010254 .3019867-.023010254 .46699525-.023010254 .56900027 .084991458 .56900027 .25898744 .56900027 .44198609 .46998597 .548996 .30099488 .548996M.3019867 .43598939C.3789978 .43598939 .42900086 .36698915 .42900086 .26098634 .42900086 .1599884 .3769989 .08999634 .3019867 .08999634 .22599793 .08999634 .1749878 .15899658 .1749878 .2630005 .1749878 .36698915 .22599793 .43598939 .3019867 .43598939Z"/>
<path id="font_0_42" d="M.21299744 .72898867H.06298828V0H.21299744V.72898867Z"/>
<path id="font_0_49" d="M.22599793 .2599945H.41299439C.5469971 .2599945 .6329956 .35499574 .6329956 .5029907 .6329956 .6489868 .5499878 .72898867 .397995 .72898867H.07598877V0H.22599793V.2599945M.22599793 .3849945V.60398867H.3659973C.44599916 .60398867 .48298646 .56900027 .48298646 .49499513 .48298646 .41999818 .44599916 .3849945 .3659973 .3849945H.22599793Z"/>
<path id="font_0_69" d="M.40499879 0H.54499819V.72898867H.40499879V.46998597C.36999513 .5239868 .32398988 .548996 .2559967 .548996 .1269989 .548996 .0289917 .4249878 .0289917 .2619934 .0289917 .18899536 .050994874 .114990238 .08699036 .06298828 .12399292 .009994507 .18998719-.023010254 .2559967-.023010254 .32398988-.023010254 .36999513 .0009918213 .40499879 .054992677V0M.2869873 .43199159C.35798646 .43199159 .40499879 .3639984 .40499879 .2599945 .40499879 .1619873 .35699464 .09399414 .2869873 .09399414 .21699524 .09399414 .16899109 .16299439 .16899109 .2619934 .16899109 .36299134 .21699524 .43199159 .2869873 .43199159Z"/>
<path id="font_0_15" d="M.21398926 .1459961H.06399536V0H.21398926V.1459961Z"/>
<path id="font_0_4" d="M.1459961-.03201294 .18598938 .17199707H.2889862L.24899292-.03201294H.35398866L.3939972 .17199707H.5130005V.2709961H.41299439L.44400025 .42399598H.5529938V.522995H.46299745L.49699403 .69699099H.3919983L.35798646 .522995H.25498963L.2889862 .69699099H.18399048L.1499939 .522995H.0309906V.42399598H.12998963L.099990848 .2709961H.0029907227V.17199707H.07998657L.039993287-.03201294H.1459961M.20498657 .2709961 .23498535 .42399598H.33799745L.30799867 .2709961H.20498657Z"/>
<path id="font_0_26" d="M.037994386 .16499329C.040985109 .055999757 .1329956-.024002076 .25498963-.024002076 .34599305-.024002076 .4149933 .01399231 .45700074 .085998538 .49398805 .14898682 .5159912 .2559967 .5159912 .36999513 .5159912 .47399903 .5 .55400088 .46699525 .60798647 .42199708 .6839905 .35198976 .723999 .2669983 .723999 .125 .723999 .027999878 .621994 .027999878 .47399903 .027999878 .32798768 .11399841 .22799683 .23999024 .22799683 .27598573 .22799683 .30999757 .23799134 .33198548 .2539978 .34498597 .2630005 .35299684 .27198792 .37599183 .2979889 .37599183 .16099549 .33799745 .09599304 .25898744 .09599304 .20899964 .09599304 .17599488 .12298584 .17298889 .16499329H.037994386M.2630005 .6100006C.33099366 .6100006 .37298585 .55799868 .37298585 .47399903 .37298585 .3959961 .32998658 .34399415 .2649994 .34399415 .20098877 .34399415 .16099549 .3939972 .16099549 .47599793 .16099549 .55799868 .19999695 .6100006 .2630005 .6100006Z"/>
<path id="font_0_6" d="M.20599365 .70098879C.10499573 .70098879 .021987915 .61898806 .021987915 .5189972 .021987915 .4189911 .10499573 .33699037 .20599365 .33699037 .30699159 .33699037 .3899994 .41799928 .3899994 .5169983 .3899994 .6199951 .30899049 .70098879 .20599365 .70098879M.20599365 .60198977C.2539978 .60198977 .29100038 .5649872 .29100038 .5179901 .29100038 .47200013 .25299073 .43499757 .20599365 .43499757 .15899658 .43499757 .12098694 .47200013 .12098694 .5189972 .12098694 .5649872 .15899658 .60198977 .20599365 .60198977M.60598757 .70899966 .20999146-.020004273H.2869873L.6819916 .70899966H.60598757M.67900088 .35198976C.57699587 .35198976 .49499513 .269989 .49499513 .16999817 .49499513 .068984989 .57699587-.013000488 .67900088-.013000488 .7799988-.013000488 .86299136 .068984989 .86299136 .16699219 .86299136 .2709961 .7819977 .35198976 .67900088 .35198976M.67900088 .25299073C.72698977 .25299073 .7639923 .21598816 .7639923 .16799927 .7639923 .12298584 .72499087 .084991458 .67900088 .084991458 .6319885 .084991458 .59399417 .12298584 .59399417 .16899109 .59399417 .21499634 .6319885 .25299073 .67900088 .25299073Z"/>
<path id="font_0_36" d="M.6819916 .48199464C.6769867 .54499819 .6639862 .58499148 .6329956 .6259918 .57699587 .69999697 .4869995 .7409973 .37799073 .7409973 .17199707 .7409973 .04399109 .59399417 .04399109 .35798646 .04399109 .12298584 .17098999-.023010254 .37399293-.023010254 .55599978-.023010254 .6759949 .08198547 .68499758 .24899292H.5389862C.5289917 .1559906 .47099305 .102996829 .37799073 .102996829 .2619934 .102996829 .19400025 .19699097 .19400025 .35598756 .19400025 .5169983 .2649994 .61299136 .3829956 .61299136 .46998597 .61299136 .5189972 .57099917 .5389862 .48199464H.6819916Z"/>
</defs>
<path transform="matrix(1,0,0,1,-40.950796,-68.65)" d="M0 0H1120V840H0Z" fill="#ffffff"/>
<path transform="matrix(1,0,0,1,-40.950796,-68.65)" d="M73 332.95H507V72.55H73Z" fill="#ffffff"/>
<path transform="matrix(1,0,0,1,-40.950796,-68.65)" stroke-width=".5" stroke-linecap="butt" stroke-linejoin="round" fill="none" stroke="#323232" stroke-opacity=".14901962" d="M73 332.95V72.55"/>
<path transform="matrix(1,0,0,1,-40.950796,-68.65)" stroke-width=".5" stroke-linecap="butt" stroke-linejoin="round" fill="none" stroke="#323232" stroke-opacity=".14901962" d="M116.4 332.95V72.55"/>
<path transform="matrix(1,0,0,1,-40.950796,-68.65)" stroke-width=".5" stroke-linecap="butt" stroke-linejoin="round" fill="none" stroke="#323232" stroke-opacity=".14901962" d="M159.8 332.95V72.55"/>
<path transform="matrix(1,0,0,1,-40.950796,-68.65)" stroke-width=".5" stroke-linecap="butt" stroke-linejoin="round" fill="none" stroke="#323232" stroke-opacity=".14901962" d="M203.2 332.95V72.55"/>
<path transform="matrix(1,0,0,1,-40.950796,-68.65)" stroke-width=".5" stroke-linecap="butt" stroke-linejoin="round" fill="none" stroke="#323232" stroke-opacity=".14901962" d="M246.6 332.95V72.55"/>
<path transform="matrix(1,0,0,1,-40.950796,-68.65)" stroke-width=".5" stroke-linecap="butt" stroke-linejoin="round" fill="none" stroke="#323232" stroke-opacity=".14901962" d="M290 332.95V72.55"/>
<path transform="matrix(1,0,0,1,-40.950796,-68.65)" stroke-width=".5" stroke-linecap="butt" stroke-linejoin="round" fill="none" stroke="#323232" stroke-opacity=".14901962" d="M333.4 332.95V72.55"/>
<path transform="matrix(1,0,0,1,-40.950796,-68.65)" stroke-width=".5" stroke-linecap="butt" stroke-linejoin="round" fill="none" stroke="#323232" stroke-opacity=".14901962" d="M376.8 332.95V72.55"/>
<path transform="matrix(1,0,0,1,-40.950796,-68.65)" stroke-width=".5" stroke-linecap="butt" stroke-linejoin="round" fill="none" stroke="#323232" stroke-opacity=".14901962" d="M420.2 332.95V72.55"/>
<path transform="matrix(1,0,0,1,-40.950796,-68.65)" stroke-width=".5" stroke-linecap="butt" stroke-linejoin="round" fill="none" stroke="#323232" stroke-opacity=".14901962" d="M463.6 332.95V72.55"/>
<path transform="matrix(1,0,0,1,-40.950796,-68.65)" stroke-width=".5" stroke-linecap="butt" stroke-linejoin="round" fill="none" stroke="#323232" stroke-opacity=".14901962" d="M507 332.95V72.55"/>
<path transform="matrix(1,0,0,1,-40.950796,-68.65)" stroke-width=".5" stroke-linecap="butt" stroke-linejoin="round" fill="none" stroke="#323232" stroke-opacity=".14901962" d="M507 332.95H73"/>
<path transform="matrix(1,0,0,1,-40.950796,-68.65)" stroke-width=".5" stroke-linecap="butt" stroke-linejoin="round" fill="none" stroke="#323232" stroke-opacity=".14901962" d="M507 289.55H73"/>
<path transform="matrix(1,0,0,1,-40.950796,-68.65)" stroke-width=".5" stroke-linecap="butt" stroke-linejoin="round" fill="none" stroke="#323232" stroke-opacity=".14901962" d="M507 246.15H73"/>
<path transform="matrix(1,0,0,1,-40.950796,-68.65)" stroke-width=".5" stroke-linecap="butt" stroke-linejoin="round" fill="none" stroke="#323232" stroke-opacity=".14901962" d="M507 202.75H73"/>
<path transform="matrix(1,0,0,1,-40.950796,-68.65)" stroke-width=".5" stroke-linecap="butt" stroke-linejoin="round" fill="none" stroke="#323232" stroke-opacity=".14901962" d="M507 159.35H73"/>
<path transform="matrix(1,0,0,1,-40.950796,-68.65)" stroke-width=".5" stroke-linecap="butt" stroke-linejoin="round" fill="none" stroke="#323232" stroke-opacity=".14901962" d="M507 115.95H73"/>
<path transform="matrix(1,0,0,1,-40.950796,-68.65)" stroke-width=".5" stroke-linecap="butt" stroke-linejoin="round" fill="none" stroke="#323232" stroke-opacity=".14901962" d="M507 72.55H73"/>
<path transform="matrix(1,0,0,1,-40.950796,-68.65)" stroke-width=".5" stroke-linecap="square" stroke-linejoin="round" fill="none" stroke="#323232" d="M73 332.95H507"/>
<path transform="matrix(1,0,0,1,-40.950796,-68.65)" stroke-width=".5" stroke-linecap="square" stroke-linejoin="round" fill="none" stroke="#323232" d="M73 72.55H507"/>
<path transform="matrix(1,0,0,1,-40.950796,-68.65)" stroke-width=".5" stroke-linecap="square" stroke-linejoin="round" fill="none" stroke="#323232" d="M73 332.95V328.61"/>
<path transform="matrix(1,0,0,1,-40.950796,-68.65)" stroke-width=".5" stroke-linecap="square" stroke-linejoin="round" fill="none" stroke="#323232" d="M116.4 332.95V328.61"/>
<path transform="matrix(1,0,0,1,-40.950796,-68.65)" stroke-width=".5" stroke-linecap="square" stroke-linejoin="round" fill="none" stroke="#323232" d="M159.8 332.95V328.61"/>
<path transform="matrix(1,0,0,1,-40.950796,-68.65)" stroke-width=".5" stroke-linecap="square" stroke-linejoin="round" fill="none" stroke="#323232" d="M203.2 332.95V328.61"/>
<path transform="matrix(1,0,0,1,-40.950796,-68.65)" stroke-width=".5" stroke-linecap="square" stroke-linejoin="round" fill="none" stroke="#323232" d="M246.6 332.95V328.61"/>
<path transform="matrix(1,0,0,1,-40.950796,-68.65)" stroke-width=".5" stroke-linecap="square" stroke-linejoin="round" fill="none" stroke="#323232" d="M290 332.95V328.61"/>
<path transform="matrix(1,0,0,1,-40.950796,-68.65)" stroke-width=".5" stroke-linecap="square" stroke-linejoin="round" fill="none" stroke="#323232" d="M333.4 332.95V328.61"/>
<path transform="matrix(1,0,0,1,-40.950796,-68.65)" stroke-width=".5" stroke-linecap="square" stroke-linejoin="round" fill="none" stroke="#323232" d="M376.8 332.95V328.61"/>
<path transform="matrix(1,0,0,1,-40.950796,-68.65)" stroke-width=".5" stroke-linecap="square" stroke-linejoin="round" fill="none" stroke="#323232" d="M420.2 332.95V328.61"/>
<path transform="matrix(1,0,0,1,-40.950796,-68.65)" stroke-width=".5" stroke-linecap="square" stroke-linejoin="round" fill="none" stroke="#323232" d="M463.6 332.95V328.61"/>
<path transform="matrix(1,0,0,1,-40.950796,-68.65)" stroke-width=".5" stroke-linecap="square" stroke-linejoin="round" fill="none" stroke="#323232" d="M507 332.95V328.61"/>
<path transform="matrix(1,0,0,1,-40.950796,-68.65)" stroke-width=".5" stroke-linecap="square" stroke-linejoin="round" fill="none" stroke="#323232" d="M73 72.55V76.89"/>
<path transform="matrix(1,0,0,1,-40.950796,-68.65)" stroke-width=".5" stroke-linecap="square" stroke-linejoin="round" fill="none" stroke="#323232" d="M116.4 72.55V76.89"/>
<path transform="matrix(1,0,0,1,-40.950796,-68.65)" stroke-width=".5" stroke-linecap="square" stroke-linejoin="round" fill="none" stroke="#323232" d="M159.8 72.55V76.89"/>
<path transform="matrix(1,0,0,1,-40.950796,-68.65)" stroke-width=".5" stroke-linecap="square" stroke-linejoin="round" fill="none" stroke="#323232" d="M203.2 72.55V76.89"/>
<path transform="matrix(1,0,0,1,-40.950796,-68.65)" stroke-width=".5" stroke-linecap="square" stroke-linejoin="round" fill="none" stroke="#323232" d="M246.6 72.55V76.89"/>
<path transform="matrix(1,0,0,1,-40.950796,-68.65)" stroke-width=".5" stroke-linecap="square" stroke-linejoin="round" fill="none" stroke="#323232" d="M290 72.55V76.89"/>
<path transform="matrix(1,0,0,1,-40.950796,-68.65)" stroke-width=".5" stroke-linecap="square" stroke-linejoin="round" fill="none" stroke="#323232" d="M333.4 72.55V76.89"/>
<path transform="matrix(1,0,0,1,-40.950796,-68.65)" stroke-width=".5" stroke-linecap="square" stroke-linejoin="round" fill="none" stroke="#323232" d="M376.8 72.55V76.89"/>
<path transform="matrix(1,0,0,1,-40.950796,-68.65)" stroke-width=".5" stroke-linecap="square" stroke-linejoin="round" fill="none" stroke="#323232" d="M420.2 72.55V76.89"/>
<path transform="matrix(1,0,0,1,-40.950796,-68.65)" stroke-width=".5" stroke-linecap="square" stroke-linejoin="round" fill="none" stroke="#323232" d="M463.6 72.55V76.89"/>
<path transform="matrix(1,0,0,1,-40.950796,-68.65)" stroke-width=".5" stroke-linecap="square" stroke-linejoin="round" fill="none" stroke="#323232" d="M507 72.55V76.89"/>
<use data-text="0" xlink:href="#font_0_17" transform="matrix(12,0,0,-12,28.549206,280.7)" fill="#323232"/>
<use data-text="5" xlink:href="#font_0_22" transform="matrix(12,0,0,-12,71.9492,280.7)" fill="#323232"/>
<use data-text="1" xlink:href="#font_0_18" transform="matrix(12,0,0,-12,111.849208,280.7)" fill="#323232"/>
<use data-text="0" xlink:href="#font_0_17" transform="matrix(12,0,0,-12,118.52121,280.7)" fill="#323232"/>
<use data-text="1" xlink:href="#font_0_18" transform="matrix(12,0,0,-12,155.2492,280.7)" fill="#323232"/>
<use data-text="5" xlink:href="#font_0_22" transform="matrix(12,0,0,-12,161.9212,280.7)" fill="#323232"/>
<use data-text="2" xlink:href="#font_0_19" transform="matrix(12,0,0,-12,198.64922,280.7)" fill="#323232"/>
<use data-text="0" xlink:href="#font_0_17" transform="matrix(12,0,0,-12,205.32122,280.7)" fill="#323232"/>
<use data-text="2" xlink:href="#font_0_19" transform="matrix(12,0,0,-12,242.04921,280.7)" fill="#323232"/>
<use data-text="5" xlink:href="#font_0_22" transform="matrix(12,0,0,-12,248.7212,280.7)" fill="#323232"/>
<use data-text="3" xlink:href="#font_0_20" transform="matrix(12,0,0,-12,285.4492,280.7)" fill="#323232"/>
<use data-text="0" xlink:href="#font_0_17" transform="matrix(12,0,0,-12,292.1212,280.7)" fill="#323232"/>
<use data-text="3" xlink:href="#font_0_20" transform="matrix(12,0,0,-12,328.84919,280.7)" fill="#323232"/>
<use data-text="5" xlink:href="#font_0_22" transform="matrix(12,0,0,-12,335.52119,280.7)" fill="#323232"/>
<use data-text="4" xlink:href="#font_0_21" transform="matrix(12,0,0,-12,372.2492,280.7)" fill="#323232"/>
<use data-text="0" xlink:href="#font_0_17" transform="matrix(12,0,0,-12,378.9212,280.7)" fill="#323232"/>
<use data-text="4" xlink:href="#font_0_21" transform="matrix(12,0,0,-12,415.6492,280.7)" fill="#323232"/>
<use data-text="5" xlink:href="#font_0_22" transform="matrix(12,0,0,-12,422.3212,280.7)" fill="#323232"/>
<use data-text="5" xlink:href="#font_0_22" transform="matrix(12,0,0,-12,459.0492,280.7)" fill="#323232"/>
<use data-text="0" xlink:href="#font_0_17" transform="matrix(12,0,0,-12,465.7212,280.7)" fill="#323232"/>
<use data-text="T" xlink:href="#font_0_53" transform="matrix(13.2,0,0,-13.2,224.04943,297.7)" fill="#323232"/>
<use data-text="i" xlink:href="#font_0_74" transform="matrix(13.2,0,0,-13.2,232.11463,297.7)" fill="#323232"/>
<use data-text="m" xlink:href="#font_0_78" transform="matrix(13.2,0,0,-13.2,235.78423,297.7)" fill="#323232"/>
<use data-text="e" xlink:href="#font_0_70" transform="matrix(13.2,0,0,-13.2,247.51903,297.7)" fill="#323232"/>
<use data-text=" " xlink:href="#font_0_1" transform="matrix(13.2,0,0,-13.2,254.85823,297.7)" fill="#323232"/>
<use data-text="(" xlink:href="#font_0_9" transform="matrix(13.2,0,0,-13.2,258.52784,297.7)" fill="#323232"/>
<use data-text="s" xlink:href="#font_0_84" transform="matrix(13.2,0,0,-13.2,262.92344,297.7)" fill="#323232"/>
<use data-text=")" xlink:href="#font_0_10" transform="matrix(13.2,0,0,-13.2,270.26264,297.7)" fill="#323232"/>
<path transform="matrix(1,0,0,1,-40.950796,-68.65)" stroke-width=".5" stroke-linecap="square" stroke-linejoin="round" fill="none" stroke="#323232" d="M73 332.95V72.55"/>
<path transform="matrix(1,0,0,1,-40.950796,-68.65)" stroke-width=".5" stroke-linecap="square" stroke-linejoin="round" fill="none" stroke="#323232" d="M507 332.95V72.55"/>
<path transform="matrix(1,0,0,1,-40.950796,-68.65)" stroke-width=".5" stroke-linecap="square" stroke-linejoin="round" fill="none" stroke="#323232" d="M73 332.95H77.34"/>
<path transform="matrix(1,0,0,1,-40.950796,-68.65)" stroke-width=".5" stroke-linecap="square" stroke-linejoin="round" fill="none" stroke="#323232" d="M73 289.55H77.34"/>
<path transform="matrix(1,0,0,1,-40.950796,-68.65)" stroke-width=".5" stroke-linecap="square" stroke-linejoin="round" fill="none" stroke="#323232" d="M73 246.15H77.34"/>
<path transform="matrix(1,0,0,1,-40.950796,-68.65)" stroke-width=".5" stroke-linecap="square" stroke-linejoin="round" fill="none" stroke="#323232" d="M73 202.75H77.34"/>
<path transform="matrix(1,0,0,1,-40.950796,-68.65)" stroke-width=".5" stroke-linecap="square" stroke-linejoin="round" fill="none" stroke="#323232" d="M73 159.35H77.34"/>
<path transform="matrix(1,0,0,1,-40.950796,-68.65)" stroke-width=".5" stroke-linecap="square" stroke-linejoin="round" fill="none" stroke="#323232" d="M73 115.95H77.34"/>
<path transform="matrix(1,0,0,1,-40.950796,-68.65)" stroke-width=".5" stroke-linecap="square" stroke-linejoin="round" fill="none" stroke="#323232" d="M73 72.55H77.34"/>
<path transform="matrix(1,0,0,1,-40.950796,-68.65)" stroke-width=".5" stroke-linecap="square" stroke-linejoin="round" fill="none" stroke="#323232" d="M507 332.95H502.66"/>
<path transform="matrix(1,0,0,1,-40.950796,-68.65)" stroke-width=".5" stroke-linecap="square" stroke-linejoin="round" fill="none" stroke="#323232" d="M507 289.55H502.66"/>
<path transform="matrix(1,0,0,1,-40.950796,-68.65)" stroke-width=".5" stroke-linecap="square" stroke-linejoin="round" fill="none" stroke="#323232" d="M507 246.15H502.66"/>
<path transform="matrix(1,0,0,1,-40.950796,-68.65)" stroke-width=".5" stroke-linecap="square" stroke-linejoin="round" fill="none" stroke="#323232" d="M507 202.75H502.66"/>
<path transform="matrix(1,0,0,1,-40.950796,-68.65)" stroke-width=".5" stroke-linecap="square" stroke-linejoin="round" fill="none" stroke="#323232" d="M507 159.35H502.66"/>
<path transform="matrix(1,0,0,1,-40.950796,-68.65)" stroke-width=".5" stroke-linecap="square" stroke-linejoin="round" fill="none" stroke="#323232" d="M507 115.95H502.66"/>
<path transform="matrix(1,0,0,1,-40.950796,-68.65)" stroke-width=".5" stroke-linecap="square" stroke-linejoin="round" fill="none" stroke="#323232" d="M507 72.55H502.66"/>
<use data-text="-" xlink:href="#font_0_14" transform="matrix(12,0,0,-12,15.649204,268.80003)" fill="#323232"/>
<use data-text="1" xlink:href="#font_0_18" transform="matrix(12,0,0,-12,19.645205,268.80003)" fill="#323232"/>
<use data-text="0" xlink:href="#font_0_17" transform="matrix(12,0,0,-12,20.649205,225.39998)" fill="#323232"/>
<use data-text="1" xlink:href="#font_0_18" transform="matrix(12,0,0,-12,20.649205,181.99999)" fill="#323232"/>
<use data-text="2" xlink:href="#font_0_19" transform="matrix(12,0,0,-12,20.649205,138.59999)" fill="#323232"/>
<use data-text="3" xlink:href="#font_0_20" transform="matrix(12,0,0,-12,20.649205,95.200008)" fill="#323232"/>
<use data-text="4" xlink:href="#font_0_21" transform="matrix(12,0,0,-12,20.649205,51.799997)" fill="#323232"/>
<use data-text="5" xlink:href="#font_0_22" transform="matrix(12,0,0,-12,20.649205,8.400002)" fill="#323232"/>
<use data-text="W" xlink:href="#font_0_56" transform="matrix(-.0000005775,-13.2,-13.2,.0000005775,9.649206,184.59987)" fill="#323232"/>
<use data-text="a" xlink:href="#font_0_66" transform="matrix(-.0000005775,-13.2,-13.2,.0000005775,9.649206,172.13907)" fill="#323232"/>
<use data-text="v" xlink:href="#font_0_87" transform="matrix(-.0000005775,-13.2,-13.2,.0000005775,9.649206,164.79987)" fill="#323232"/>
<use data-text="e" xlink:href="#font_0_70" transform="matrix(-.0000005775,-13.2,-13.2,.0000005775,9.649205,157.46067)" fill="#323232"/>
<use data-text=" " xlink:href="#font_0_1" transform="matrix(-.0000005775,-13.2,-13.2,.0000005775,9.649205,150.12146)" fill="#323232"/>
<use data-text="h" xlink:href="#font_0_73" transform="matrix(-.0000005775,-13.2,-13.2,.0000005775,9.649204,146.45186)" fill="#323232"/>
<use data-text="e" xlink:href="#font_0_70" transform="matrix(-.0000005775,-13.2,-13.2,.0000005775,9.649204,138.38666)" fill="#323232"/>
<use data-text="i" xlink:href="#font_0_74" transform="matrix(-.0000005775,-13.2,-13.2,.0000005775,9.649204,131.04747)" fill="#323232"/>
<use data-text="g" xlink:href="#font_0_72" transform="matrix(-.0000005775,-13.2,-13.2,.0000005775,9.649204,127.37787)" fill="#323232"/>
<use data-text="h" xlink:href="#font_0_73" transform="matrix(-.0000005775,-13.2,-13.2,.0000005775,9.649203,119.31267)" fill="#323232"/>
<use data-text="t" xlink:href="#font_0_85" transform="matrix(-.0000005775,-13.2,-13.2,.0000005775,9.649203,111.24747)" fill="#323232"/>
<use data-text=" " xlink:href="#font_0_1" transform="matrix(-.0000005775,-13.2,-13.2,.0000005775,9.649203,106.85187)" fill="#323232"/>
<use data-text="(" xlink:href="#font_0_9" transform="matrix(-.0000005775,-13.2,-13.2,.0000005775,9.649202,103.18227)" fill="#323232"/>
<use data-text="m" xlink:href="#font_0_78" transform="matrix(-.0000005775,-13.2,-13.2,.0000005775,9.649202,98.78667)" fill="#323232"/>
<use data-text=")" xlink:href="#font_0_10" transform="matrix(-.0000005775,-13.2,-13.2,.0000005775,9.649202,87.051868)" fill="#323232"/>
<path transform="matrix(1,0,0,1,-40.950796,-68.65)" stroke-width="2.5" stroke-linecap="butt" stroke-dasharray="2,2" stroke-linejoin="bevel" fill="none" stroke="#000000" d="M81.68 289.55H90.36L99.04 289.35685 107.72 285.98658 116.4 278.62596 125.08 267.5969 133.76 253.30698 142.44 236.23894 151.12 219.03278 159.8 203.97936 168.48 191.16683 177.16 180.64363 185.84 172.39929 194.52 165.34398 203.2 156.90995 211.88 147.65398 220.56 138.33773 229.24 129.66037 237.92 122.499919 246.6 119.908557 255.28 121.863338 263.96 127.616397 272.64 136.37113 281.32 144.68839 290 149.07138 298.68 148.86057 307.36 145.10613 316.04 138.60144 324.72 131.91715 333.4 128.47608 342.08 129.84885 350.76 134.70468 359.44 142.20278 368.12 150.88628 376.8 157.17848 385.48 158.7711 394.16 156.85326 402.84 152.36042 411.52 146.14749 420.2 141.7398 428.88 141.91259 437.56 145.93265 446.24 152.64054 454.92 161.38445 463.6 169.03472 472.28 172.70754 480.96 172.22641 489.64 169.05672 498.32 163.95745 507 159.18085"/>
<path transform="matrix(1,0,0,1,-40.950796,-68.65)" stroke-width="2" stroke-linecap="butt" stroke-linejoin="round" fill="none" stroke="#d95319" d="M81.68 289.55H90.36L99.04 289.46534 107.72 286.0546 116.4 278.7913 125.08 268.10655 133.76 254.28505 142.44 237.39078 151.12 220.24088 159.8 205.15094 168.48 192.50855 177.16 182.24399 185.84 174.21685 194.52 167.35227 203.2 159.14821 211.88 150.04039 220.56 140.46596 229.24 131.40178 237.92 124.045658 246.6 121.53113 255.28 123.70597 263.96 129.2784 272.64 137.58423 281.32 145.5962 290 149.96184 298.68 149.84223 307.36 146.02356 316.04 139.56459 324.72 132.83406 333.4 129.50173 342.08 130.80908 350.76 135.6994 359.44 142.9997 368.12 151.69821 376.8 157.90644 385.48 159.5269 394.16 157.69347 402.84 153.30078 411.52 147.22847 420.2 142.78182 428.88 143.05519 437.56 147.33972 446.24 154.09935 454.92 162.85533 463.6 170.63582 472.28 174.26325 480.96 173.81278 489.64 170.78691 498.32 165.98859 507 161.28435"/>
<path transform="matrix(1,0,0,1,-40.950796,-68.65)" d="M99.04 289.4806 107.72 289.70829 116.4 286.84913 125.08 277.8029 133.76 264.58226 142.44 248.07382 151.12 231.68289 159.8 218.04203 168.48 206.30402 177.16 196.66745 185.84 189.06529 194.52 182.56819 203.2 175.02239 211.88 166.29692 220.56 157.0717 229.24 148.31839 237.92 141.28032 246.6 139.16307 255.28 141.6335 263.96 147.49266 272.64 156.0401 281.32 164.28745 290 168.90842 298.68 169.00585 307.36 165.41634 316.04 159.22064 324.72 152.72208 333.4 149.6072 342.08 151.12879 350.76 156.21295 359.44 163.71527 368.12 172.58457 376.8 178.96659 385.48 180.76564 394.16 179.09438 402.84 174.98307 411.52 169.06735 420.2 164.77329 428.88 165.21811 437.56 169.7022 446.24 176.87403 454.92 186.07073 463.6 194.01036 472.28 197.79778 480.96 197.69995 489.64 196.07112 498.32 195.05106 507 193.71349V128.85521L498.32 136.92612 489.64 145.5027 480.96 149.92559 472.28 150.72872 463.6 147.26128 454.92 139.63994 446.24 131.32469 437.56 124.97727 428.88 120.892269 420.2 120.79033 411.52 125.3896 402.84 131.61852 394.16 136.29254 385.48 138.28816 376.8 136.84629 368.12 130.81185 359.44 122.28413 350.76 115.185848 342.08 110.489368 333.4 109.39625 324.72 112.94604 316.04 119.908557 307.36 126.6308 298.68 130.67862 290 131.01528 281.32 126.90498 272.64 119.12834 263.96 111.06412 255.28 105.778438 246.6 103.899188 237.92 106.81098 229.24 114.48517 220.56 123.86022 211.88 133.78385 203.2 143.27405 194.52 152.13632 185.84 159.36838 177.16 167.82051 168.48 178.71309 159.8 192.25986 151.12 208.79888 142.44 226.70775 133.76 243.98784 125.08 258.41023 116.4 270.73347 107.72 282.40095 99.04 289.4501 90.36 289.55Z" fill="#bf5700" fill-opacity=".14901962"/>
<path transform="matrix(1,0,0,1,-40.950796,-68.65)" stroke-width="2.5" stroke-linecap="butt" stroke-dasharray="2,2" stroke-linejoin="bevel" fill="none" stroke="#000000" d="M81.68 289.55H90.36L99.04 289.51325 107.72 288.80107 116.4 287.052 125.08 284.13713 133.76 279.96766 142.44 274.49317 151.12 268.20094 159.8 261.83454 168.48 255.68148 177.16 250.00385 185.84 245.09175 194.52 241.41898 203.2 238.28917 211.88 235.43132 220.56 232.72113 229.24 230.08495 237.92 227.26174 246.6 225.07915 255.28 224.21144 263.96 224.8907 272.64 227.10279 281.32 229.83216 290 232.15425 298.68 233.11277 307.36 232.45745 316.04 230.10953 324.72 226.8258 333.4 223.5725 342.08 221.62879 350.76 221.4066 359.44 222.99315 368.12 225.92174 376.8 229.0606 385.48 231.03835 394.16 231.20662 402.84 229.45775 411.52 225.98622 420.2 221.97856 428.88 218.82917 437.56 217.63224 446.24 218.5495 454.92 221.46782 463.6 225.2662 472.28 228.485 480.96 229.58089 489.64 228.37076 498.32 225.03899 507 220.44162"/>
<path transform="matrix(1,0,0,1,-40.950796,-68.65)" stroke-width="2" stroke-linecap="butt" stroke-linejoin="round" fill="none" stroke="#7e2f8e" d="M81.68 289.55H90.36L99.04 289.54475 107.72 288.89628 116.4 287.19587 125.08 284.38404 133.76 280.31263 142.44 274.9812 151.12 268.61006 159.8 262.15345 168.48 256.01194 177.16 250.23386 185.84 245.39781 194.52 241.83538 203.2 238.73877 211.88 236.01912 220.56 233.28397 229.24 230.67229 237.92 227.83551 246.6 225.64116 255.28 224.86916 263.96 225.54415 272.64 227.63504 281.32 230.3154 290 232.70293 298.68 233.61925 307.36 232.93346 316.04 230.53887 324.72 227.17646 333.4 223.8519 342.08 221.83861 350.76 221.51576 359.44 223.06278 368.12 225.98964 376.8 229.14354 385.48 231.03821 394.16 231.1391 402.84 229.40689 411.52 225.94428 420.2 221.86595 428.88 218.6777 437.56 217.44173 446.24 218.23525 454.92 221.0433 463.6 224.79045 472.28 227.99745 480.96 229.10375 489.64 227.8623 498.32 224.4689 507 219.85045"/>
<path transform="matrix(1,0,0,1,-40.950796,-68.65)" d="M116.4 279.1361 107.72 285.24238 99.04 289.5295 90.36 289.55 99.04 289.56 107.72 292.55018 116.4 295.25566 125.08 294.08378 133.76 290.613 142.44 285.66673 151.12 280.05473 159.8 275.04649 168.48 269.8089 177.16 264.6587 185.84 260.24763 194.52 257.05259 203.2 254.61376 211.88 252.27628 220.56 249.89086 229.24 247.59029 237.92 245.0714 246.6 243.27429 255.28 242.79805 263.96 243.7601 272.64 246.09287 281.32 249.00867 290 251.65181 298.68 252.78577 307.36 252.33046 316.04 250.1996 324.72 247.0692 333.4 243.96204 342.08 242.16759 350.76 242.04904 359.44 243.80045 368.12 246.91416 376.8 250.25435 385.48 252.35955 394.16 252.63785 402.84 251.19237 411.52 247.89452 420.2 243.97582 428.88 240.95554 437.56 239.9309 446.24 241.15377 454.92 244.4071 463.6 248.30736 472.28 251.65705 480.96 253.05583 489.64 253.17749 498.32 253.55695 507 252.39203V187.30886L498.32 195.38086 489.64 202.54714 480.96 205.15166 472.28 204.33785 463.6 201.27353 454.92 197.67949 446.24 195.31673 437.56 194.95258 428.88 196.39989 420.2 199.7561 411.52 203.99404 402.84 207.62142 394.16 209.64035 385.48 209.71688 376.8 208.03273 368.12 205.06514 359.44 202.3251 350.76 200.98247 342.08 201.50965 333.4 203.74175 324.72 207.2837 316.04 210.87815 307.36 213.53647 298.68 214.45273 290 213.75402 281.32 211.62215 272.64 209.17722 263.96 207.3282 255.28 206.94026 246.6 208.00803 237.92 210.59961 229.24 213.7543 220.56 216.67708 211.88 219.76197 203.2 222.86377 194.52 226.61817 185.84 230.54802 177.16 235.80902 168.48 242.21498 159.8 249.2604 151.12 257.16535 142.44 264.29573 133.76 270.01228 125.08 274.6843Z" fill="#bf5700" fill-opacity=".14901962"/>
<path transform="matrix(1,0,0,1,-40.950796,-68.65)" stroke-width="2.5" stroke-linecap="butt" stroke-dasharray="2,2" stroke-linejoin="bevel" fill="none" stroke="#000000" d="M81.68 289.55H90.36L99.04 289.5464 107.72 289.47926 116.4 289.3197 125.08 289.05918 133.76 288.692 142.44 288.21675 151.12 287.68446 159.8 287.17549 168.48 286.7349 177.16 286.38603 185.84 286.11933 194.52 285.88978 203.2 285.60685 211.88 285.2683 220.56 284.9421 229.24 284.7013 237.92 284.552 246.6 284.51795 255.28 284.57319 263.96 284.6177 272.64 284.59266 281.32 284.49235 290 284.32484 298.68 284.127 307.36 284.05436 316.04 284.12788 324.72 284.2129 333.4 284.19078 342.08 284.01716 350.76 283.5781 359.44 282.99568 368.12 282.5445 376.8 282.33576 385.48 282.34886 394.16 282.6701 402.84 283.1277 411.52 283.37364 420.2 283.25053 428.88 282.75614 437.56 281.8502 446.24 280.79216 454.92 280.00868 463.6 279.69303 472.28 279.83985 480.96 280.4477 489.64 281.26387 498.32 281.79847 507 281.75254"/>
<path transform="matrix(1,0,0,1,-40.950796,-68.65)" stroke-width="2" stroke-linecap="butt" stroke-linejoin="round" fill="none" stroke="#4dbeee" d="M81.68 289.55H90.36L99.04 289.55574 107.72 289.49009 116.4 289.35319 125.08 289.15217 133.76 288.7838 142.44 288.3164 151.12 287.7418 159.8 287.20329 168.48 286.74543 177.16 286.33634 185.84 286.03974 194.52 285.7781 203.2 285.48347 211.88 285.14723 220.56 284.76606 229.24 284.51219 237.92 284.32005 246.6 284.25013 255.28 284.31489 263.96 284.39106 272.64 284.39155 281.32 284.29405 290 284.11228 298.68 283.90165 307.36 283.7827 316.04 283.84645 324.72 283.9252 333.4 283.89607 342.08 283.73554 350.76 283.27687 359.44 282.68269 368.12 282.22328 376.8 282.00688 385.48 282.00505 394.16 282.3258 402.84 282.79106 411.52 283.04859 420.2 282.92814 428.88 282.45155 437.56 281.54179 446.24 280.48823 454.92 279.69267 463.6 279.3764 472.28 279.5178 480.96 280.13288 489.64 280.92219 498.32 281.44767 507 281.41548"/>
<path transform="matrix(1,0,0,1,-40.950796,-68.65)" d="M125.08 298.86677 133.76 299.10099 142.44 299.02079 151.12 299.20603 159.8 300.11488 168.48 300.5598 177.16 300.7768 185.84 300.90538 194.52 301.01078 203.2 301.37568 211.88 301.42393 220.56 301.3908 229.24 301.4503 237.92 301.5744 246.6 301.90318 255.28 302.27079 263.96 302.65824 272.64 302.91694 281.32 303.09855 290 303.1909 298.68 303.222 307.36 303.38456 316.04 303.74073 324.72 304.0571 333.4 304.264 342.08 304.32096 350.76 304.0643 359.44 303.6902 368.12 303.42497 376.8 303.37336 385.48 303.53697 394.16 304.01405 402.84 304.7621 411.52 305.16828 420.2 305.18617 428.88 304.87303 437.56 304.15534 446.24 303.49348 454.92 303.1314 463.6 302.9455 472.28 303.2228 480.96 304.1437 489.64 306.27293 498.32 310.71708 507 314.05628V248.77466L498.32 252.17824 489.64 255.57147 480.96 256.12205 472.28 255.81278 463.6 255.8073 454.92 256.25395 446.24 257.483 437.56 258.92826 428.88 260.0301 420.2 260.67008 411.52 260.92893 402.84 260.82005 394.16 260.63758 385.48 260.47315 376.8 260.6404 368.12 261.02159 359.44 261.6752 350.76 262.48939 342.08 263.15016 333.4 263.52815 324.72 263.7933 316.04 263.95216 307.36 264.18089 298.68 264.58128 290 265.03364 281.32 265.48954 272.64 265.86616 263.96 266.12385 255.28 266.35899 246.6 266.59706 237.92 267.06565 229.24 267.5741 220.56 268.14128 211.88 268.8705 203.2 269.59126 194.52 270.54545 185.84 271.1741 177.16 271.89585 168.48 272.931 159.8 274.29173 151.12 276.2776 142.44 277.612 133.76 278.4666 125.08 279.4376 116.4 281.2842 107.72 285.8348 99.04 289.5405 90.36 289.55 99.04 289.57099 107.72 293.14537 116.4 297.42219Z" fill="#bf5700" fill-opacity=".14901962"/>
<path transform="matrix(1,0,0,1,-40.950796,-68.65)" d="M185.5 154V80.5H81V154Z" fill="#ffffff"/>
<use data-text="T" xlink:href="#font_0_53" transform="matrix(10.8,0,0,-10.8,77.0492,24.599999)"/>
<use data-text="r" xlink:href="#font_0_83" transform="matrix(10.8,0,0,-10.8,83.648,24.599999)"/>
<use data-text="u" xlink:href="#font_0_86" transform="matrix(10.8,0,0,-10.8,87.849208,24.599999)"/>
<use data-text="e" xlink:href="#font_0_70" transform="matrix(10.8,0,0,-10.8,94.448009,24.599999)"/>
<use data-text=" " xlink:href="#font_0_1" transform="matrix(10.8,0,0,-10.8,100.452808,24.599999)"/>
<use data-text="Q" xlink:href="#font_0_50" transform="matrix(10.8,0,0,-10.8,103.4552,24.599999)"/>
<use data-text="o" xlink:href="#font_0_80" transform="matrix(10.8,0,0,-10.8,111.857608,24.599999)"/>
<use data-text="I" xlink:href="#font_0_42" transform="matrix(10.8,0,0,-10.8,118.456409,24.599999)"/>
<use data-text="s" xlink:href="#font_0_84" transform="matrix(10.8,0,0,-10.8,121.4588,24.599999)"/>
<path transform="matrix(1,0,0,1,-40.950796,-68.65)" stroke-width="2.5" stroke-linecap="butt" stroke-dasharray="2,2" stroke-linejoin="bevel" fill="none" stroke="#000000" d="M85 89.25H115"/>
<use data-text="P" xlink:href="#font_0_49" transform="matrix(10.8,0,0,-10.8,77.0492,38.6)"/>
<use data-text="r" xlink:href="#font_0_83" transform="matrix(10.8,0,0,-10.8,84.2528,38.6)"/>
<use data-text="e" xlink:href="#font_0_70" transform="matrix(10.8,0,0,-10.8,88.454,38.6)"/>
<use data-text="d" xlink:href="#font_0_69" transform="matrix(10.8,0,0,-10.8,94.4588,38.6)"/>
<use data-text="." xlink:href="#font_0_15" transform="matrix(10.8,0,0,-10.8,101.0576,38.6)"/>
<use data-text=" " xlink:href="#font_0_1" transform="matrix(10.8,0,0,-10.8,104.060009,38.6)"/>
<use data-text="Q" xlink:href="#font_0_50" transform="matrix(10.8,0,0,-10.8,107.06241,38.6)"/>
<use data-text="o" xlink:href="#font_0_80" transform="matrix(10.8,0,0,-10.8,115.464809,38.6)"/>
<use data-text="I" xlink:href="#font_0_42" transform="matrix(10.8,0,0,-10.8,122.06361,38.6)"/>
<use data-text=" " xlink:href="#font_0_1" transform="matrix(10.8,0,0,-10.8,125.06601,38.6)"/>
<use data-text="#" xlink:href="#font_0_4" transform="matrix(10.8,0,0,-10.8,128.0684,38.6)"/>
<use data-text="1" xlink:href="#font_0_18" transform="matrix(10.8,0,0,-10.8,134.07321,38.6)"/>
<path transform="matrix(1,0,0,1,-40.950796,-68.65)" stroke-width="2" stroke-linecap="butt" stroke-linejoin="round" fill="none" stroke="#d95319" d="M85 103.25H115"/>
<use data-text="P" xlink:href="#font_0_49" transform="matrix(10.8,0,0,-10.8,77.0492,52.6)"/>
<use data-text="r" xlink:href="#font_0_83" transform="matrix(10.8,0,0,-10.8,84.2528,52.6)"/>
<use data-text="e" xlink:href="#font_0_70" transform="matrix(10.8,0,0,-10.8,88.454,52.6)"/>
<use data-text="d" xlink:href="#font_0_69" transform="matrix(10.8,0,0,-10.8,94.4588,52.6)"/>
<use data-text="." xlink:href="#font_0_15" transform="matrix(10.8,0,0,-10.8,101.0576,52.6)"/>
<use data-text=" " xlink:href="#font_0_1" transform="matrix(10.8,0,0,-10.8,104.060009,52.6)"/>
<use data-text="Q" xlink:href="#font_0_50" transform="matrix(10.8,0,0,-10.8,107.06241,52.6)"/>
<use data-text="o" xlink:href="#font_0_80" transform="matrix(10.8,0,0,-10.8,115.464809,52.6)"/>
<use data-text="I" xlink:href="#font_0_42" transform="matrix(10.8,0,0,-10.8,122.06361,52.6)"/>
<use data-text=" " xlink:href="#font_0_1" transform="matrix(10.8,0,0,-10.8,125.06601,52.6)"/>
<use data-text="#" xlink:href="#font_0_4" transform="matrix(10.8,0,0,-10.8,128.0684,52.6)"/>
<use data-text="2" xlink:href="#font_0_19" transform="matrix(10.8,0,0,-10.8,134.07321,52.6)"/>
<path transform="matrix(1,0,0,1,-40.950796,-68.65)" stroke-width="2" stroke-linecap="butt" stroke-linejoin="round" fill="none" stroke="#7e2f8e" d="M85 117.25H115"/>
<use data-text="P" xlink:href="#font_0_49" transform="matrix(10.8,0,0,-10.8,77.0492,66.6)"/>
<use data-text="r" xlink:href="#font_0_83" transform="matrix(10.8,0,0,-10.8,84.2528,66.6)"/>
<use data-text="e" xlink:href="#font_0_70" transform="matrix(10.8,0,0,-10.8,88.454,66.6)"/>
<use data-text="d" xlink:href="#font_0_69" transform="matrix(10.8,0,0,-10.8,94.4588,66.6)"/>
<use data-text="." xlink:href="#font_0_15" transform="matrix(10.8,0,0,-10.8,101.0576,66.6)"/>
<use data-text=" " xlink:href="#font_0_1" transform="matrix(10.8,0,0,-10.8,104.060009,66.6)"/>
<use data-text="Q" xlink:href="#font_0_50" transform="matrix(10.8,0,0,-10.8,107.06241,66.6)"/>
<use data-text="o" xlink:href="#font_0_80" transform="matrix(10.8,0,0,-10.8,115.464809,66.6)"/>
<use data-text="I" xlink:href="#font_0_42" transform="matrix(10.8,0,0,-10.8,122.06361,66.6)"/>
<use data-text=" " xlink:href="#font_0_1" transform="matrix(10.8,0,0,-10.8,125.06601,66.6)"/>
<use data-text="#" xlink:href="#font_0_4" transform="matrix(10.8,0,0,-10.8,128.0684,66.6)"/>
<use data-text="3" xlink:href="#font_0_20" transform="matrix(10.8,0,0,-10.8,134.07321,66.6)"/>
<path transform="matrix(1,0,0,1,-40.950796,-68.65)" stroke-width="2" stroke-linecap="butt" stroke-linejoin="round" fill="none" stroke="#4dbeee" d="M85 131.25H115"/>
<use data-text="9" xlink:href="#font_0_26" transform="matrix(10.8,0,0,-10.8,77.0492,80.6)"/>
<use data-text="5" xlink:href="#font_0_22" transform="matrix(10.8,0,0,-10.8,83.054,80.6)"/>
<use data-text="%" xlink:href="#font_0_6" transform="matrix(10.8,0,0,-10.8,89.05881,80.6)"/>
<use data-text=" " xlink:href="#font_0_1" transform="matrix(10.8,0,0,-10.8,98.66,80.6)"/>
<use data-text="C" xlink:href="#font_0_36" transform="matrix(10.8,0,0,-10.8,101.6624,80.6)"/>
<use data-text="I" xlink:href="#font_0_42" transform="matrix(10.8,0,0,-10.8,109.46001,80.6)"/>
<use data-text="s" xlink:href="#font_0_84" transform="matrix(10.8,0,0,-10.8,112.4624,80.6)"/>
<path transform="matrix(1,0,0,1,-40.950796,-68.65)" d="M115 150.3125V140.1875H85V150.3125Z" fill="#bf5700" fill-opacity=".14901962"/>
<path transform="matrix(1,0,0,1,-40.950796,-68.65)" stroke-width=".5" stroke-linecap="butt" stroke-miterlimit="10" stroke-linejoin="miter" fill="none" stroke="#323232" d="M81 154V80.5H185.5V154Z"/>
</svg>
