<svg xmlns="http://www.w3.org/2000/svg" xmlns:xlink="http://www.w3.org/1999/xlink" version="1.1" width="241.695" height="197.513" viewBox="0 0 241.695 197.513">
<defs>
<path id="font_0_24" d="M.08898926 .53396609C.11299133 .58496096 .1499939 .6359558 .22200012 .6359558 .31599427 .6359558 .35798646 .5499573 .35798646 .4719696 .35798646 .3799591 .29599 .30397035 .23899842 .23796082 .18199158 .17097473 .12098694 .10696411 .06298828 .04096985 .053985597 .031967164 .049987794 .025970459 .049987794 .012969971V.0009765625H.42099L.44898988 .17596436H.42399598C.41600038 .12997437 .42099 .07997131 .36999513 .07997131H.32998658C.30099488 .07896423 .27198792 .07797241 .24299622 .07797241 .20399475 .07797241 .1659851 .07896423 .12799073 .07896423L.19699097 .14497376C.22499085 .17196656 .2519989 .19897461 .2809906 .2239685 .35499574 .28996278 .44898988 .361969 .44898988 .47296144 .44898988 .585968 .35299684 .66796877 .23999024 .66796877 .14399719 .66796877 .049987794 .59495547 .049987794 .48796083 .049987794 .46296693 .05999756 .43096925 .101989749 .43096925 .13198853 .43096925 .15499878 .45196534 .15499878 .4819641 .15499878 .5089569 .1349945 .5349579 .10398865 .5349579 .09899902 .5349579 .09399414 .53396609 .08898926 .53396609Z"/>
<path id="font_0_8" d="M.08198547 .12043762C.08699036 .11843872 .09298706 .1174469 .09899902 .1174469 .12799073 .1174469 .14898682 .138443 .14898682 .16743469 .14898682 .19543457 .12599182 .21542359 .099990848 .21542359 .07299805 .21542359 .049987794 .19642639 .049987794 .16444397 .049987794 .061447145 .13198853-.01953125 .23298645-.01953125 .35398866-.01953125 .44898988 .08345032 .44898988 .20443726 .44898988 .30641175 .37998963 .42140199 .2599945 .42140199 .21199036 .42140199 .16699219 .40341188 .13198853 .3704071V.5647583C.1559906 .5587616 .17999268 .5527649 .20498657 .5517578H.21699524C.2869873 .5517578 .35299684 .5817566 .3999939 .6367798 .4039917 .64282229 .4099884 .64886477 .4099884 .6559143V.65792849C.40899659 .66296389 .40499879 .6669922 .3999939 .6669922 .3880005 .6669922 .36499024 .65289309 .34700013 .64785769 .31799317 .63879397 .2869873 .6347656 .2559967 .6347656 .21099854 .6347656 .17098999 .6458435 .12799073 .6599426 .12298584 .66197207 .117996219 .6649933 .11299133 .6660156H.11099243C.10598755 .6660156 .101989749 .66197207 .100997928 .65693667V.33641053C.100997928 .32740785 .10398865 .3204193 .11399841 .3204193 .12599182 .3204193 .13699341 .34240724 .14199829 .3474121 .16999817 .3804016 .21299744 .39941407 .25698854 .39941407H.2599945C.34700013 .3973999 .3600006 .28541566 .3600006 .20942688 .3600006 .14144898 .35598756 .05645752 .2789917 .018463135 .2630005 .010467529 .24499512 .007461548 .22799683 .007461548 .16299439 .007461548 .09899902 .05744934 .08198547 .12043762Z"/>
<path id="font_0_25" d="M.23599243 .6669922C.042999269 .64997866 .038986207 .41381837 .038986207 .31575013 .038986207 .22268677 .04699707 .11361694 .10998535 .03956604 .14199829 .0015258789 .19699097-.022460938 .24699402-.022460938 .33299256-.022460938 .39898683 .032546998 .42999269 .10960388 .45700074 .1786499 .45999146 .25471498 .45999146 .3277588 .45999146 .42182923 .44999696 .53590396 .3889923 .60494998 .35499574 .6439514 .30099488 .66796877 .25 .66796877 .24499512 .667984 .24099732 .6669922 .23599243 .6669922M.12298584 .25871278C.12199402 .26771546 .12199402 .27572633 .12199402 .284729V.33276368C.12199402 .38079835 .12199402 .42782594 .1269989 .4758606 .12998963 .5138855 .13398743 .55592349 .15499878 .5889435 .1769867 .6219635 .21199036 .644989 .25099183 .644989 .36799623 .644989 .37599183 .4988861 .37599183 .3998108V.3527832C.37599183 .3257599 .3769989 .29673768 .3769989 .26672364 .3769989 .1386261 .3600006 .0005340576 .25 .0005340576 .115997318 .0005340576 .1289978 .19467163 .12298584 .25871278Z"/>
<path id="font_0_20" d="M.08799744 .6767578 .054992677 .4702301H.07998657C.08799744 .5122986 .085998538 .56536868 .1289978 .56536868H.15499878C.1789856 .56536868 .20199585 .5673828 .22599793 .5673828H.4099884C.35699464 .49526979 .30099488 .42216493 .25898744 .3430481 .20999146 .24990845 .1749878 .13673401 .1749878 .030578614 .1749878 .0005340576 .19400025-.021484375 .22299195-.021484375H.22499085C.25099183-.020492554 .2679901 .0005340576 .2679901 .029586792V.047607423C.2679901 .16278076 .2689972 .30499269 .33499146 .410141 .34799195 .43017579 .3619995 .4492035 .37599183 .4682312L.46998597 .6003723C.47799684 .6113739 .4850006 .6163788 .4850006 .6333771V.6453247C.40098573 .6453247 .33898927 .64237979 .23399353 .64237979 .1749878 .64237979 .115997318 .64826968 .11299133 .6767578H.08799744Z"/>
<path id="font_0_14" d="M.08999634 .60298159V.57199099C.1329956 .57199099 .18099976 .5769806 .21998596 .59799197V.07597351C.21998596 .036972047 .18199158 .030975342 .14299011 .030975342 .12599182 .030975342 .10899353 .031967164 .09498596 .031967164V.0009765625H.41999818V.031967164C.40299989 .031967164 .38598634 .030975342 .36999513 .030975342 .32998658 .030975342 .29499818 .036972047 .29499818 .07496643V.6509857C.29499818 .6599884 .2919922 .6669922 .2809906 .6669922 .2669983 .6669922 .25 .647995 .23899842 .63998416 .19499207 .61099246 .14099121 .60298159 .08999634 .60298159Z"/>
<path id="font_0_17" d="M.1309967 .10644531C.10598755 .10342407 .085998538 .080322269 .085998538 .0552063 .085998538 .03010559 .10598755 .0009765625 .13699341 .0009765625 .1639862 .0009765625 .19198609 .022064209 .19198609 .053207399 .19198609 .07929993 .17199707 .107421878 .13999939 .107421878 .13699341 .107437137 .13398743 .10644531 .1309967 .10644531Z"/>
<path id="font_0_9" d="M.027999878 .16601563H.2939911V.07498169C.2939911 .033966066 .2630005 .031967164 .21099854 .031967164H.19699097V.0009765625H.46899415V.031967164C.45599366 .031967164 .44299317 .030975342 .43099977 .030975342 .39898683 .030975342 .37199403 .036972047 .37199403 .07498169V.16601563H.47099305V.19700623H.37199403V.6447449C.37199403 .6487427 .37298585 .65374758 .37298585 .6587372 .37298585 .66973879 .36999513 .6777344 .35798646 .6777344 .34098817 .6777344 .33898927 .6707306 .33198548 .65974429 .23799134 .51782229 .14399719 .37490846 .050994874 .23298645 .038986207 .21499634 .026992798 .2000122 .026992798 .18400574 .026992798 .17800904 .027999878 .17201233 .027999878 .16601563M.055999757 .19700623 .2999878 .5677948V.19700623H.055999757Z"/>
<path id="font_0_21" d="M.1329956 .33070375H.13198853C.13198853 .41975404 .13598633 .5218506 .19999695 .5909271 .22898865 .6209564 .2649994 .64198306 .30799867 .64198306 .34199525 .64198306 .375 .6289673 .394989 .60194399 .3919983 .6029358 .3880005 .6029358 .3849945 .6029358 .35899354 .6029358 .33999635 .58291628 .33999635 .55688479 .33999635 .53086856 .3600006 .510849 .38598634 .510849 .41299439 .510849 .43199159 .52885439 .43199159 .5628967 .43199159 .63597109 .3639984 .6669922 .3039856 .6669922 .13699341 .6669922 .041992189 .47779847 .041992189 .32670594 .041992189 .18962097 .070999149-.021484375 .25498963-.021484375 .3769989-.021484375 .45700074 .092559818 .45700074 .20463562 .45700074 .30969239 .3849945 .4267578 .2659912 .4267578 .20799256 .4267578 .15098572 .39575196 .1329956 .33070375M.13398743 .21263123V.22264099C.13398743 .29067994 .1579895 .40475465 .25698854 .40475465 .3659973 .40475465 .36698915 .27166749 .36698915 .21063233V.19262696C.36698915 .12557984 .36099244 .006515503 .25299073 .006515503 .1659851 .006515503 .13899231 .10256958 .1349945 .1816101 .1349945 .19161988 .1349945 .20262146 .13398743 .21263123Z"/>
<path id="font_0_7" d="M.18598938 .33676148V.3347473C.11299133 .30873109 .041992189 .2336731 .041992189 .15161133V.14060974C.04798889 .041534425 .1519928-.021484375 .24699402-.021484375 .34298707-.021484375 .45700074 .045532228 .45700074 .16362 .45700074 .24067688 .4189911 .2957306 .34498597 .3397522 .33299256 .34776307 .32199098 .35676576 .30899049 .3627777 .36898805 .4008026 .42900086 .44082643 .42900086 .51989749 .42900086 .60595706 .34498597 .6669922 .25099183 .6669922 .1619873 .6669922 .068984989 .60494998 .068984989 .49787904 .068984989 .42282105 .12399292 .3717804 .18598938 .33676148M.09199524 .14060974C.09199524 .14460755 .09098816 .1486206 .09098816 .15261841 .09098816 .22267151 .14099121 .27770997 .19599915 .31274415 .19999695 .31474305 .20498657 .31874085 .20999146 .31874085 .21998596 .31874085 .25 .2957306 .2679901 .28271485 .30699159 .2586975 .40699769 .21066284 .40699769 .14060974 .40699769 .056549074 .33198548 .006515503 .2519989 .006515503 .17999268 .006515503 .102996829 .05253601 .09199524 .14060974M.11399841 .52989199V.5389099C.11399841 .60595706 .19099427 .64198306 .24598694 .64198306 .31199647 .64198306 .37298585 .60395815 .3849945 .52789309 .3849945 .52389529 .38598634 .5208893 .38598634 .5168915 .38598634 .45884706 .34098817 .41481019 .2979889 .38578797 .29499818 .38378907 .29100038 .37979127 .28599549 .37979127 .2769928 .37979127 .25099183 .4008026 .23699951 .4098053 .18499756 .44284059 .12098694 .4718628 .11399841 .52989199Z"/>
<clipPath id="clip_1">
<path transform="matrix(1,0,0,-1,46.096,162.093)" d="M0 0H194.27399V161.39575H0Z"/>
</clipPath>
<path id="font_0_1" d="M.033996583 .68359377V.6525879C.04699707 .6525879 .05999756 .6535797 .07199097 .6535797 .10798645 .6535797 .13699341 .6485901 .13699341 .60861209V.07493591C.13699341 .036972047 .10398865 .030975342 .069992069 .030975342 .056991579 .030975342 .04499817 .031967164 .033996583 .031967164V.0009765625H.32899476V.031967164H.29499818C.25299073 .031967164 .22599793 .033966066 .22599793 .07594299V.31677247H.4099884C.5049896 .323761 .6239929 .38174439 .6239929 .49667359 .6239929 .60261538 .5189972 .67259219 .41799928 .68258669 .40299989 .68356326 .3889923 .6845703 .37399293 .6845703 .35398866 .6845856 .33399964 .68359377 .31498719 .68359377H.033996583M.22299195 .34277345V.62060549C.22299195 .647583 .23999024 .650589 .25898744 .6525879H.33399964C.3899994 .6525879 .45498658 .650589 .49398805 .6036072 .5179901 .57463076 .5209961 .5346527 .5209961 .4986725 .5209961 .46269227 .5179901 .42471314 .49598695 .3947296 .46199037 .35176087 .4039917 .34277345 .35299684 .34277345H.22299195Z"/>
<path id="font_0_4" d="M.11199951 .3812256C.13699341 .41223146 .18099976 .426239 .21798706 .426239 .2919922 .426239 .32499696 .3592224 .32499696 .288208V.26220704C.20999146 .26220704 .040985109 .22619629 .040985109 .095214847V.08721924C.04899597 .010223389 .1459961-.009765625 .20298767-.009765625 .2539978-.009765625 .31900025 .024230957 .33198548 .07522583H.33299256C.33898927 .032226564 .3659973-.004776001 .41099549-.004776001 .45199586-.004776001 .48799134 .02822876 .49299623 .07322693V.14620972H.46798707V.095214847C.46798707 .068222049 .46299745 .02722168 .43199159 .02722168 .3999939 .02722168 .394989 .066223148 .394989 .09321594V.26020814C.394989 .27320863 .3959961 .28520204 .3959961 .29821778 .3959961 .39523316 .30499269 .4482422 .22200012 .4482422 .15899658 .4482422 .069992069 .41723634 .069992069 .33721925 .069992069 .30822755 .09098816 .28923036 .116989139 .28923036 .14498902 .28923036 .1619873 .31123353 .1619873 .3352356 .1619873 .3642273 .13899231 .38124085 .11199951 .38124085V.3812256M.32499696 .24121094V.14021302C.32499696 .07122803 .2769928 .016220093 .21199036 .01222229H.20799256C.16099549 .01222229 .11898804 .049224855 .11898804 .097213748V.10221863C.12599182 .2032013 .23899842 .23820496 .32499696 .24121094Z"/>
<path id="font_0_18" d="M.026992798 .43138124V.4003601H.041992189C.07499695 .4003601 .10499573 .39735414 .10499573 .35029603V.074020389C.10499573 .032974245 .07699585 .031967164 .032989503 .031967164H.026992798V.0009765625H.2689972V.031967164C.25698854 .031967164 .24299622 .030975342 .23098755 .030975342 .19898987 .030975342 .17199707 .035980226 .17199707 .073013309V.20614624C.17199707 .2912445 .19198609 .42037965 .2899933 .42037965 .2939911 .42037965 .29699708 .42037965 .30099488 .41937257V.41836549C.28599549 .41236878 .27799989 .39634706 .27799989 .38032533 .27799989 .35731507 .29299928 .34129334 .31599427 .33728028 .34498597 .33728028 .3639984 .3553009 .3639984 .38032533 .3639984 .42037965 .32598878 .4423828 .2899933 .4423828 .23098755 .4423828 .17799378 .38934327 .16799927 .33528138L.16699219 .4423828 .026992798 .43138124Z"/>
<path id="font_0_11" d="M.03199768 .43138124V.4003601H.04699707C.07998657 .4003601 .10998535 .39735414 .10998535 .35029603V.074020389C.10998535 .032974245 .08198547 .031967164 .037994386 .031967164H.03199768V.0009765625H.2579956V.031967164H.23199463C.20399475 .031967164 .17999268 .035980226 .17999268 .073013309V.25621034C.17999268 .32928468 .21998596 .42037965 .31599427 .42037965 .37998963 .42037965 .3869934 .35430909 .3869934 .30825807V.070007327C.3869934 .033966066 .35699464 .031967164 .32398988 .031967164H.30899049V.0009765625H.5349884V.031967164H.5089874C.48098756 .031967164 .45700074 .035980226 .45700074 .073013309V.25621034C.45700074 .32928468 .49699403 .42037965 .59298709 .42037965 .6569977 .42037965 .6639862 .35430909 .6639862 .30825807V.070007327C.6639862 .033966066 .6339874 .031967164 .6009979 .031967164H.58599856V.0009765625H.81199648V.031967164H.79100039C.7609863 .031967164 .73399356 .034973146 .73399356 .070007327V.2962494C.73399356 .33328248 .7319946 .36631776 .70799258 .4003601 .6819916 .43338014 .6389923 .4423828 .598999 .4423828 .5339966 .4423828 .48098756 .4043579 .45399476 .34629823 .43499757 .41737367 .3899994 .4423828 .32099916 .4423828 .25698854 .4423828 .19599915 .402359 .1749878 .34028626L.17399597 .4423828 .03199768 .43138124Z"/>
<path id="font_0_6" d="M.11199951 .23242188H.3999939C.41099549 .23242188 .41600038 .2394104 .41600038 .250412 .41600038 .35630799 .35099793 .4482422 .23899842 .4482422 .115997318 .4482422 .027999878 .33932496 .027999878 .22039795 .027999878 .12832642 .07899475 .04624939 .16699219 .006225586 .18998719-.003768921 .21699524-.009765625 .24198914-.009765625H.24499512C.32199098-.009765625 .38598634 .0332489 .41299439 .110305789 .4139862 .11331177 .4139862 .11730957 .4139862 .12031555 .4139862 .12731934 .4099884 .13232422 .40299989 .13232422 .3880005 .13232422 .38198854 .0993042 .37599183 .08828735 .35099793 .04425049 .30299378 .0152282719 .25099183 .0152282719 .21398926 .0152282719 .18199158 .036239625 .15499878 .06326294 .114990238 .109313968 .11199951 .17436219 .11199951 .23242188M.11299133 .25341798C.11299133 .33033753 .1539917 .426239 .23599243 .426239H.24099732C.33898927 .41723634 .33799745 .3133545 .34799195 .25341798H.11299133Z"/>
<path id="font_0_22" d="M.14898682 .6152344C.14898682 .54644778 .11999512 .421875 .017990113 .421875V.39987184H.10398865V.1421051C.10398865 .10914612 .10598755 .076171878 .12199402 .047195436 .14399719 .007232666 .19099427-.009765625 .23498535-.009765625 .31698609-.009765625 .33299256 .08216858 .33299256 .14511109V.18206787H.30799867C.30799867 .16708374 .30899049 .15209961 .30899049 .1361084 .30899049 .09214783 .29899598 .0152282719 .23999024 .0152282719 .18299866 .0152282719 .17399597 .08416748 .17399597 .12911988V.39987184H.31599427V.43066407H.17399597V.6152344H.14898682Z"/>
<path id="font_0_5" d="M.3039856 .6843109V.6533203H.31999208C.35499574 .6533203 .38198854 .6493225 .38198854 .5913391L.3809967 .38136292C.35699464 .42137147 .2999878 .4423828 .2539978 .4423828 .1309967 .4423828 .032989503 .3363495 .032989503 .21530152 .032989503 .10826111 .114990238-.009765625 .24699402-.009765625 .29899598-.009765625 .34599305 .0152282719 .3789978 .055236818V-.009765625L.5269928 .0012207031V.032226564H.5099945C.47898866 .032226564 .44898988 .035232545 .44898988 .08224487V.6953125L.3039856 .6843109M.116989139 .19128418V.20629883C.116989139 .2803192 .12599182 .35534669 .19499207 .4013672 .21499634 .41337586 .23799134 .42037965 .26098634 .42037965 .30999757 .42037965 .37998963 .38035584 .37998963 .31733705 .37998963 .30433656 .3789978 .2913208 .3789978 .2783203V.11225891C.3789978 .09925842 .37399293 .09025574 .36698915 .08024597 .34098817 .041244508 .2979889 .01222229 .25099183 .01222229 .17799378 .01222229 .13198853 .07925415 .12098694 .14826966 .11898804 .16227722 .11898804 .17729187 .116989139 .19128418Z"/>
<path id="font_0_10" d="M.036987306 .430542V.3995819H.055999757C.084991458 .3995819 .11099243 .3955841 .11099243 .34962464V.07292175C.11099243 .037963869 .09298706 .031967164 .032989503 .031967164V.0009765625H.24798584V.031967164H.22799683C.20199585 .031967164 .17799378 .034973146 .17799378 .06692505V.44154359L.036987306 .430542M.12098694 .6689453C.09599304 .66589358 .07598877 .64382937 .07598877 .61672976 .07598877 .5876312 .100997928 .5635376 .1289978 .5635376 .1559906 .5635376 .18199158 .58561709 .18199158 .61672976 .18199158 .64582827 .15699768 .6699219 .1289978 .6699219 .12599182 .66993716 .12399292 .6689453 .12098694 .6689453Z"/>
<path id="font_0_12" d="M.03199768 .43138124V.4003601H.04699707C.07998657 .4003601 .10998535 .39735414 .10998535 .35029603V.074020389C.10998535 .032974245 .08198547 .031967164 .037994386 .031967164H.03199768V.0009765625H.2579956V.031967164H.23199463C.20399475 .031967164 .17999268 .035980226 .17999268 .073013309V.25621034C.17999268 .3282776 .21699524 .42037965 .31599427 .42037965 .37998963 .42037965 .38598634 .3513031 .38598634 .30825807V.069000247C.38598634 .034973146 .35699464 .031967164 .32598878 .031967164H.30799867V.0009765625H.5339966V.031967164H.5089874C.48199464 .031967164 .45599366 .035980226 .45599366 .070007327V.28923036C.45599366 .32226563 .45498658 .35630799 .43899537 .38633729 .41600038 .43037416 .36499024 .4423828 .31900025 .4423828 .2579956 .4423828 .19499207 .4003601 .1749878 .34028626L.17399597 .4423828 .03199768 .43138124Z"/>
<path id="font_0_19" d="M.17599488 .4482422C.13899231 .44422914 .099990848 .4372406 .070999149 .41223146 .04699707 .39123536 .032989503 .35723878 .032989503 .32522584 .032989503 .15423584 .31098939 .25123597 .31098939 .10122681 .31098939 .040222169 .2559967 .01222229 .20098877 .01222229 .125 .01222229 .07398987 .066223148 .05999756 .15222168 .057998659 .16122437 .056991579 .17022705 .04499817 .17022705 .036987306 .17022705 .032989503 .16423035 .032989503 .15722656V-.00077819827C.033996583-.0057678224 .036987306-.008773804 .041992189-.009765625H.04399109C.05999756-.009765625 .07598877 .02722168 .08799744 .030227662H.08898926C.09700012 .030227662 .12399292 .0052337648 .14498902-.0017700195 .1619873-.0077667238 .17999268-.009765625 .19799805-.009765625 .2809906-.009765625 .3600006 .034225465 .3600006 .12623596 .3600006 .19223023 .31199647 .24623108 .24598694 .26322938 .18399048 .28022767 .08198547 .28022767 .08198547 .3532257 .08198547 .4142151 .14898682 .42921449 .19299317 .42921449 .24198914 .42921449 .30999757 .40220643 .30999757 .3162079 .30999757 .30722047 .31098939 .2992096 .32199098 .2992096 .33198548 .2992096 .33599855 .30722047 .33599855 .31721498 .33599855 .32221986 .33499146 .32720948 .33499146 .33120729V.4342041C.33499146 .44023133 .33198548 .4482422 .32398988 .4482422 .30799867 .4482422 .2979889 .42323304 .2869873 .42323304H.28599549C.27799989 .42323304 .2619934 .43623353 .25 .44023133 .23199463 .44621278 .21199036 .44921876 .19299317 .44921876 .18699646 .449234 .18199158 .4482422 .17599488 .4482422Z"/>
<path id="font_0_13" d="M.23498535 .4482422C.10899353 .43522645 .027999878 .3292389 .027999878 .21322632 .027999878 .100234989 .116989139-.009765625 .25-.009765625 .36999513-.009765625 .47099305 .08822632 .47099305 .2142334 .47099305 .33320619 .3809967 .44921876 .24798584 .44921876 .24398804 .449234 .23899842 .4482422 .23498535 .4482422M.11199951 .19023133V.23423767C.11199951 .31021119 .13598633 .4262085 .24899292 .4262085 .32998658 .4262085 .37599183 .35821534 .3849945 .2822113 .3869934 .2602234 .3869934 .23921204 .3869934 .21722412 .3869934 .15222168 .37998963 .07122803 .31599427 .034225465 .29599 .021224976 .27398683 .0152282719 .25099183 .0152282719 .17799378 .0152282719 .1269989 .07221985 .115997318 .15022278 .11399841 .16322327 .11399841 .17721558 .11199951 .19021607V.19023133Z"/>
<path id="font_0_15" d="M.31698609 .75C.30299378 .74497988 .2849884 .72499087 .272995 .7129822 .1499939 .5899811 .099990848 .4199829 .099990848 .25097657 .099990848 .06997681 .15899658-.123031619 .30599977-.24102783 .31098939-.24403382 .31698609-.24902344 .32299806-.24902344 .32899476-.24902344 .33198548-.24302674 .33198548-.23902893 .33198548-.22802735 .30499269-.20703125 .2939911-.19403076 .19099427-.07102966 .15899658 .0929718 .15899658 .24998474 .15899658 .41497804 .19198609 .5959778 .31599427 .71998599 .32199098 .72598269 .33198548 .73298647 .33198548 .74098208 .33198548 .7469635 .32699586 .75097659 .32099916 .75097659 .31999208 .7509918 .31799317 .75 .31698609 .75Z"/>
<path id="font_2_1" d="M.3889923 .27801515 .18899536 .47720338C.1769867 .48919679 .1749878 .49121095 .16699219 .49121095 .15699768 .49121095 .14698792 .48220826 .14698792 .47120667 .14698792 .46420289 .14898682 .46218873 .1599884 .45118714L.3600006 .24998474 .1599884 .048797609C.14898682 .03779602 .14698792 .03578186 .14698792 .028778077 .14698792 .01777649 .15699768 .0087890629 .16699219 .0087890629 .1749878 .0087890629 .1769867 .010787964 .18899536 .022781373L.3880005 .2219696 .59498599 .014785767C.5970001 .0137786869 .60398867 .0087890629 .6100006 .0087890629 .621994 .0087890629 .6299896 .01777649 .6299896 .028778077 .6299896 .030776978 .6299896 .03479004 .6269989 .039794923 .6259918 .041793825 .46699525 .19894409 .4169922 .24998474L.59999087 .4331665C.6049957 .43917848 .6199951 .45217896 .625 .45819093 .6259918 .46018983 .6299896 .46420289 .6299896 .47120667 .6299896 .48220826 .621994 .49121095 .6100006 .49121095 .60198977 .49121095 .59799197 .48719789 .58699038 .4761963L.3889923 .27801515Z"/>
<path id="font_3_2" d="M.2939911 .64004519C.2939911 .66400149 .2939911 .6660156 .2709961 .6660156 .20899964 .60227969 .12098694 .60227969 .08898926 .60227969V.57128909C.10899353 .57128909 .16799927 .57128909 .21998596 .5972748V.07902527C.21998596 .042999269 .21699524 .0309906 .1269989 .0309906H.09498596V0C.12998963 .0029907227 .21699524 .0029907227 .25698854 .0029907227 .29699708 .0029907227 .38398744 .0029907227 .4189911 0V.0309906H.3869934C.29699708 .0309906 .2939911 .041992189 .2939911 .07902527V.64004519Z"/>
<path id="font_3_1" d="M.45999146 .31976319C.45999146 .39982606 .45498658 .47988893 .41999818 .5539398 .37399293 .65000918 .2919922 .6660156 .25 .6660156 .18998719 .6660156 .116989139 .64001467 .07598877 .54693606 .04399109 .47789 .038986207 .39982606 .038986207 .31976319 .038986207 .24472046 .042999269 .15464783 .083999637 .07859802 .1269989-.0024719239 .19999695-.022460938 .24899292-.022460938 .30299378-.022460938 .3789978-.0014648438 .4229889 .09359741 .45498658 .16265869 .45999146 .2407074 .45999146 .31976319M.24899292-.00047302247C.20999146-.00047302247 .15098572 .024551392 .1329956 .12062073 .12199402 .18066406 .12199402 .2727356 .12199402 .3317871 .12199402 .39582826 .12199402 .46188355 .12998963 .5159149 .14898682 .63500979 .22399903 .64401248 .24899292 .64401248 .28199769 .64401248 .34799195 .6259918 .36698915 .52693179 .3769989 .47088624 .3769989 .39482118 .3769989 .3317871 .3769989 .25672914 .3769989 .18867493 .3659973 .12461853 .35099793 .029556275 .2939911-.00047302247 .24899292-.00047302247Z"/>
<path id="font_4_1" d="M.1499939 .3274536C.1499939 .40945436 .15699768 .48303224 .19499207 .543869 .22898865 .5978699 .2829895 .63505557 .34700013 .63505557 .3769989 .63505557 .4169922 .62701418 .43699647 .5998688 .4119873 .5978699 .3909912 .5808716 .3909912 .5518799 .3909912 .5268707 .4079895 .5048828 .43798829 .5048828 .46798707 .5048828 .48599244 .5248718 .48599244 .5538788 .48599244 .6119385 .44400025 .6640625 .34498597 .6640625 .20098877 .6640625 .053985597 .5318756 .053985597 .3174591 .053985597 .05845642 .17599488-.01953125 .28599549-.01953125 .4079895-.01953125 .5139923 .07345581 .5139923 .20445252 .5139923 .33145143 .41299439 .42546083 .29599 .42546083 .21598816 .42546083 .17199707 .37245179 .1499939 .3274536M.28599549 .012466431C.23599243 .012466431 .19699097 .04145813 .17599488 .08546448 .16099549 .11546326 .15299988 .16545105 .15299988 .22544861 .15299988 .32244874 .21099854 .39746095 .29100038 .39746095 .33699037 .39746095 .36799623 .37945558 .3929901 .342453 .4169922 .30445863 .41799928 .26245118 .41799928 .20445252 .41799928 .14746094 .41799928 .10545349 .3909912 .066467288 .36698915 .031463624 .33499146 .012466431 .28599549 .012466431Z"/>
<path id="font_0_16" d="M.06199646 .7499695C.057998659 .7479706 .055999757 .7449646 .055999757 .7419739 .055999757 .7299652 .07899475 .7129669 .08999634 .7009735 .19699097 .57696536 .22898865 .40797425 .22898865 .24996948 .22898865 .088974 .19599915-.09402466 .07598877-.21403504 .068984989-.22102356 .055999757-.23103333 .055999757-.23902893 .055999757-.24403382 .06098938-.24902344 .066986087-.24902344H.067993167C.07998657-.24702454 .099990848-.22602844 .11199951-.21403504 .23799134-.088027957 .28799439 .081970218 .28799439 .25196839 .28799439 .43597413 .22799683 .6189728 .08198547 .7429657 .07699585 .7459717 .07199097 .75097659 .06599426 .75097659 .06498718 .75097659 .06399536 .75097659 .06199646 .7499695Z"/>
<path id="font_0_3" d="M.054992677 .6777344 .035995485 .45280458H.06098938C.06498718 .50479128 .067993167 .5757599 .09899902 .6097412 .1329956 .6447296 .18998719 .64772036 .23599243 .64772036H.26098634C.28799439 .64772036 .31599427 .64772036 .31599427 .613739V.07695007C.31599427 .036972047 .27598573 .030975342 .23999024 .030975342 .22698975 .030975342 .21398926 .031967164 .20399475 .031967164H.17098999V.0009765625H.5499878V.031967164H.48199464C.44299317 .031967164 .40499879 .035964967 .40499879 .07695007V.613739C.40499879 .6427307 .42199708 .64772036 .45999146 .64772036H.4850006C.5309906 .64772036 .58799746 .6447296 .621994 .6097412 .6529999 .5757599 .6559906 .50479128 .6599884 .45280458H.68499758L.66600039 .6777344H.054992677Z"/>
<path id="font_0_2" d="M.115997318 .048538209C.1789856-.00048828127 .22799683-.021484375 .30499269-.021484375 .42399598-.021484375 .49899293 .08557129 .49899293 .18765259 .49899293 .27072145 .45199586 .34777833 .37199403 .3808136 .31098939 .40582276 .23498535 .40382386 .18199158 .43585206 .14199829 .46087647 .11898804 .50390627 .11898804 .5479431 .11898804 .6269989 .18598938 .67803958 .25698854 .67803958 .35598756 .67803958 .4249878 .59898379 .44099427 .49890138 .44400025 .48388673 .44099427 .4568634 .45899964 .4568634 .46998597 .4568634 .47099305 .46588136 .47099305 .47488404V.6920471C.47099305 .6990509 .46899415 .7060547 .46099855 .7060547 .44599916 .7060547 .43499757 .67803958 .4269867 .66503909 .42099 .6560364 .4139862 .6460266 .4099884 .63601687 .36898805 .6770477 .32199098 .7060547 .25498963 .7060547 .15699768 .7060547 .054992677 .63801577 .054992677 .51091006 .054992677 .40682984 .1309967 .33877564 .22898865 .31774903 .25 .3127594 .269989 .30674745 .29100038 .30174256 .34700013 .2887268 .40299989 .27471925 .4269867 .20266724 .43199159 .18765259 .43499757 .17164612 .43499757 .15663147 .43499757 .08157349 .38398744 .009506226 .2999878 .009506226 .19999695 .009506226 .102996829 .06254578 .08299255 .17764282 .08198547 .18664551 .08099365 .19665528 .07998657 .20567322V.212677C.07998657 .22268677 .07499695 .22767639 .066986087 .22767639 .056991579 .22767639 .054992677 .21968079 .054992677 .212677V-.0074920656C.054992677-.01449585 .056991579-.021484375 .06498718-.021484375 .07998657-.021484375 .09098816 .006515503 .09899902 .019515992 .10499573 .028518677 .11199951 .038528444 .115997318 .048538209Z"/>
<path id="font_0_23" d="M.10899353 .5799408C.14299011 .6269684 .19699097 .64198306 .25099183 .64198306 .30999757 .64198306 .33699037 .5819397 .33699037 .5319061 .33699037 .4688568 .31599427 .38679505 .24899292 .3667755 .22599793 .3607788 .16699219 .3677826 .16699219 .34877015V.34576417C.16799927 .33876039 .1749878 .3377533 .18299866 .3377533H.19499207C.20599365 .3377533 .21798706 .33876039 .22999573 .33876039 .32798768 .33885194 .35398866 .24575806 .35398866 .17367554V.15866089C.35299684 .09460449 .32499696 .006515503 .23899842 .006515503 .18399048 .006515503 .116989139 .03253174 .08799744 .08358765 .09098816 .08358765 .09399414 .08258057 .09799194 .08258057 .12998963 .08258057 .15299988 .10760498 .15299988 .13864136 .15299988 .16667176 .13398743 .18969727 .10598755 .19369507H.099990848C.05999756 .19369507 .041992189 .16566468 .041992189 .13464356 .041992189 .029525757 .15499878-.021484375 .24299622-.021484375 .35099793-.021484375 .45700074 .057556154 .45700074 .17268372 .45700074 .2657776 .37799073 .33683778 .2889862 .3528595 .3619995 .378891 .42999269 .4399414 .42999269 .52697756 .42999269 .61499026 .33898927 .6669922 .24499512 .6669922 .16799927 .6669922 .068984989 .62498477 .068984989 .5299835 .068984989 .49798585 .09298706 .47898866 .11999512 .47898866 .14698792 .47898866 .16999817 .49897767 .16999817 .5289917 .16999817 .5599823 .147995 .5799866 .116989139 .5799866L.10899353 .5799408Z"/>
</defs>
<path transform="matrix(1,0,0,-1,46.096,162.093)" d="M0 0H194.27399V161.39575H0Z" fill="#e5e5e5"/>
<path transform="matrix(1,0,0,-1,46.096,162.093)" stroke-width=".3985" stroke-linecap="butt" stroke-miterlimit="10" stroke-linejoin="miter" fill="none" stroke="#ffffff" d="M9.96277 0V161.39575M34.86969 0V161.39575M59.77661 0V161.39575M84.68353 0V161.39575M109.59045 0V161.39575M134.49738 0V161.39575M159.4043 0V161.39575M184.31122 0V161.39575"/>
<path transform="matrix(1,0,0,-1,46.096,162.093)" stroke-width=".3985" stroke-linecap="butt" stroke-miterlimit="10" stroke-linejoin="miter" fill="none" stroke="#ffffff" d="M0 0H194.27399M0 29.34468H194.27399M0 58.68936H194.27399M0 88.03404H194.27399M0 117.37872H194.27399M0 146.7234H194.27399"/>
<path transform="matrix(1,0,0,-1,46.096,162.093)" stroke-width=".19925" stroke-linecap="butt" stroke-miterlimit="10" stroke-linejoin="miter" fill="none" stroke="#555555" d="M9.96277-4.25267V0M34.86969-4.25267V0M59.77661-4.25267V0M84.68353-4.25267V0M109.59045-4.25267V0M134.49738-4.25267V0M159.4043-4.25267V0M184.31122-4.25267V0"/>
<path transform="matrix(1,0,0,-1,46.096,162.093)" stroke-width=".19925" stroke-linecap="butt" stroke-miterlimit="10" stroke-linejoin="miter" fill="none" stroke="#555555" d="M-4.25183 0H0M-4.25183 29.34468H0M-4.25183 58.68936H0M-4.25183 88.03404H0M-4.25183 117.37872H0M-4.25183 146.7234H0"/>
<path transform="matrix(1,0,0,-1,46.096,162.093)" stroke-width=".3985" stroke-linecap="butt" stroke-miterlimit="10" stroke-linejoin="miter" fill="none" stroke="#ffffff" d="M0 0V161.39575H194.27399V0H0Z"/>
<use data-text="2" xlink:href="#font_0_24" transform="matrix(9.9626,0,0,-9.9626,51.079004,176.256)"/>
<use data-text="5" xlink:href="#font_0_8" transform="matrix(9.9626,0,0,-9.9626,56.060304,176.256)"/>
<use data-text="5" xlink:href="#font_0_8" transform="matrix(9.9626,0,0,-9.9626,75.985,176.256)"/>
<use data-text="0" xlink:href="#font_0_25" transform="matrix(9.9626,0,0,-9.9626,80.9663,176.256)"/>
<use data-text="7" xlink:href="#font_0_20" transform="matrix(9.9626,0,0,-9.9626,100.892,176.256)"/>
<use data-text="5" xlink:href="#font_0_8" transform="matrix(9.9626,0,0,-9.9626,105.8733,176.256)"/>
<use data-text="1" xlink:href="#font_0_14" transform="matrix(9.9626,0,0,-9.9626,123.309,176.256)"/>
<use data-text="0" xlink:href="#font_0_25" transform="matrix(9.9626,0,0,-9.9626,128.2903,176.256)"/>
<use data-text="0" xlink:href="#font_0_25" transform="matrix(9.9626,0,0,-9.9626,133.27159,176.256)"/>
<use data-text="1" xlink:href="#font_0_14" transform="matrix(9.9626,0,0,-9.9626,148.215,176.256)"/>
<use data-text="2" xlink:href="#font_0_24" transform="matrix(9.9626,0,0,-9.9626,153.19629,176.256)"/>
<use data-text="5" xlink:href="#font_0_8" transform="matrix(9.9626,0,0,-9.9626,158.17758,176.256)"/>
<use data-text="1" xlink:href="#font_0_14" transform="matrix(9.9626,0,0,-9.9626,173.12201,176.256)"/>
<use data-text="5" xlink:href="#font_0_8" transform="matrix(9.9626,0,0,-9.9626,178.1033,176.256)"/>
<use data-text="0" xlink:href="#font_0_25" transform="matrix(9.9626,0,0,-9.9626,183.0846,176.256)"/>
<use data-text="1" xlink:href="#font_0_14" transform="matrix(9.9626,0,0,-9.9626,198.02802,176.256)"/>
<use data-text="7" xlink:href="#font_0_20" transform="matrix(9.9626,0,0,-9.9626,203.00931,176.256)"/>
<use data-text="5" xlink:href="#font_0_8" transform="matrix(9.9626,0,0,-9.9626,207.9906,176.256)"/>
<use data-text="2" xlink:href="#font_0_24" transform="matrix(9.9626,0,0,-9.9626,222.935,176.256)"/>
<use data-text="0" xlink:href="#font_0_25" transform="matrix(9.9626,0,0,-9.9626,227.91629,176.256)"/>
<use data-text="0" xlink:href="#font_0_25" transform="matrix(9.9626,0,0,-9.9626,232.89759,176.256)"/>
<use data-text="0" xlink:href="#font_0_25" transform="matrix(9.9626,0,0,-9.9626,20.619002,165.289)"/>
<use data-text="." xlink:href="#font_0_17" transform="matrix(9.9626,0,0,-9.9626,25.600302,165.289)"/>
<use data-text="0" xlink:href="#font_0_25" transform="matrix(9.9626,0,0,-9.9626,28.369906,165.289)"/>
<use data-text="0" xlink:href="#font_0_25" transform="matrix(9.9626,0,0,-9.9626,33.351205,165.289)"/>
<use data-text="0" xlink:href="#font_0_25" transform="matrix(9.9626,0,0,-9.9626,20.619002,135.944)"/>
<use data-text="." xlink:href="#font_0_17" transform="matrix(9.9626,0,0,-9.9626,25.600302,135.944)"/>
<use data-text="0" xlink:href="#font_0_25" transform="matrix(9.9626,0,0,-9.9626,28.369906,135.944)"/>
<use data-text="2" xlink:href="#font_0_24" transform="matrix(9.9626,0,0,-9.9626,33.351205,135.944)"/>
<use data-text="0" xlink:href="#font_0_25" transform="matrix(9.9626,0,0,-9.9626,20.619002,106.6)"/>
<use data-text="." xlink:href="#font_0_17" transform="matrix(9.9626,0,0,-9.9626,25.600302,106.6)"/>
<use data-text="0" xlink:href="#font_0_25" transform="matrix(9.9626,0,0,-9.9626,28.369906,106.6)"/>
<use data-text="4" xlink:href="#font_0_9" transform="matrix(9.9626,0,0,-9.9626,33.351205,106.6)"/>
<use data-text="0" xlink:href="#font_0_25" transform="matrix(9.9626,0,0,-9.9626,20.619002,77.256)"/>
<use data-text="." xlink:href="#font_0_17" transform="matrix(9.9626,0,0,-9.9626,25.600302,77.256)"/>
<use data-text="0" xlink:href="#font_0_25" transform="matrix(9.9626,0,0,-9.9626,28.369906,77.256)"/>
<use data-text="6" xlink:href="#font_0_21" transform="matrix(9.9626,0,0,-9.9626,33.351205,77.256)"/>
<use data-text="0" xlink:href="#font_0_25" transform="matrix(9.9626,0,0,-9.9626,20.619002,47.910997)"/>
<use data-text="." xlink:href="#font_0_17" transform="matrix(9.9626,0,0,-9.9626,25.600302,47.910997)"/>
<use data-text="0" xlink:href="#font_0_25" transform="matrix(9.9626,0,0,-9.9626,28.369906,47.910997)"/>
<use data-text="8" xlink:href="#font_0_7" transform="matrix(9.9626,0,0,-9.9626,33.351205,47.910997)"/>
<use data-text="0" xlink:href="#font_0_25" transform="matrix(9.9626,0,0,-9.9626,20.619002,18.567002)"/>
<use data-text="." xlink:href="#font_0_17" transform="matrix(9.9626,0,0,-9.9626,25.600302,18.567002)"/>
<use data-text="1" xlink:href="#font_0_14" transform="matrix(9.9626,0,0,-9.9626,28.369906,18.567002)"/>
<use data-text="0" xlink:href="#font_0_25" transform="matrix(9.9626,0,0,-9.9626,33.351205,18.567002)"/>
<g clip-path="url(#clip_1)">
<path transform="matrix(1,0,0,-1,46.096,162.093)" stroke-width=".59776" stroke-linecap="butt" stroke-miterlimit="10" stroke-linejoin="miter" fill="none" stroke="#e24a33" d="M9.96277 12.05624 34.86969 20.34584 59.77661 28.30928 84.68353 35.96738 109.59045 43.8517 134.49738 51.68419 159.4043 59.36046 184.31122 66.96822"/>
<path transform="matrix(1,0,0,-1,46.096,162.093)" stroke-width=".59776" stroke-linecap="butt" stroke-miterlimit="10" stroke-linejoin="miter" fill="none" stroke="#348abd" d="M9.96277 16.1463 34.86969 27.12836 59.77661 38.25694 84.68353 49.21391 109.59045 60.53925 134.49738 71.2897 159.4043 82.42732 184.31122 93.3979"/>
<path transform="matrix(1,0,0,-1,46.096,162.093)" stroke-width=".59776" stroke-linecap="butt" stroke-miterlimit="10" stroke-linejoin="miter" fill="none" stroke="#988ed5" d="M9.96277 18.85439 34.86969 32.59067 59.77661 45.97678 84.68353 59.80624 109.59045 73.07826 134.49738 86.92682 159.4043 100.30246 184.31122 113.8694"/>
<path transform="matrix(1,0,0,-1,46.096,162.093)" stroke-width=".59776" stroke-linecap="butt" stroke-miterlimit="10" stroke-linejoin="miter" fill="none" stroke="#777777" d="M9.96277 21.47984 34.86969 37.61198 59.77661 53.87885 84.68353 69.75249 109.59045 86.12415 134.49738 101.97891 159.4043 118.14021 184.31122 134.31179"/>
<path transform="matrix(1,0,0,-1,46.096,162.093)" stroke-width=".59776" stroke-linecap="butt" stroke-miterlimit="10" stroke-linejoin="miter" fill="none" stroke="#fbc15e" d="M9.96277 24.01216 34.86969 42.67422 59.77661 61.45476 84.68353 79.91289 109.59045 98.62164 134.49738 117.24046 159.4043 135.88278 184.31122 154.5169"/>
</g>
<path transform="matrix(1,0,0,-1,46.096,162.093)" d="M12.9516 12.05624C12.9516 13.70695 11.61346 15.04507 9.96277 15.04507 8.31206 15.04507 6.97394 13.70695 6.97394 12.05624 6.97394 10.40553 8.31206 9.06741 9.96277 9.06741 11.61346 9.06741 12.9516 10.40553 12.9516 12.05624ZM9.96277 12.05624" fill="#e24a33"/>
<path transform="matrix(1,0,0,-1,46.096,162.093)" stroke-width=".59776" stroke-linecap="butt" stroke-miterlimit="10" stroke-linejoin="miter" fill="none" stroke="#e24a33" d="M12.9516 12.05624C12.9516 13.70695 11.61346 15.04507 9.96277 15.04507 8.31206 15.04507 6.97394 13.70695 6.97394 12.05624 6.97394 10.40553 8.31206 9.06741 9.96277 9.06741 11.61346 9.06741 12.9516 10.40553 12.9516 12.05624ZM9.96277 12.05624"/>
<path transform="matrix(1,0,0,-1,46.096,162.093)" d="M37.85852 20.34584C37.85852 21.99654 36.52039 23.33467 34.86969 23.33467 33.21898 23.33467 31.88086 21.99654 31.88086 20.34584 31.88086 18.69513 33.21898 17.35701 34.86969 17.35701 36.52039 17.35701 37.85852 18.69513 37.85852 20.34584ZM34.86969 20.34584" fill="#e24a33"/>
<path transform="matrix(1,0,0,-1,46.096,162.093)" stroke-width=".59776" stroke-linecap="butt" stroke-miterlimit="10" stroke-linejoin="miter" fill="none" stroke="#e24a33" d="M37.85852 20.34584C37.85852 21.99654 36.52039 23.33467 34.86969 23.33467 33.21898 23.33467 31.88086 21.99654 31.88086 20.34584 31.88086 18.69513 33.21898 17.35701 34.86969 17.35701 36.52039 17.35701 37.85852 18.69513 37.85852 20.34584ZM34.86969 20.34584"/>
<path transform="matrix(1,0,0,-1,46.096,162.093)" d="M62.76544 28.30928C62.76544 29.95999 61.4273 31.29811 59.77661 31.29811 58.1259 31.29811 56.78778 29.95999 56.78778 28.30928 56.78778 26.65857 58.1259 25.32045 59.77661 25.32045 61.4273 25.32045 62.76544 26.65857 62.76544 28.30928ZM59.77661 28.30928" fill="#e24a33"/>
<path transform="matrix(1,0,0,-1,46.096,162.093)" stroke-width=".59776" stroke-linecap="butt" stroke-miterlimit="10" stroke-linejoin="miter" fill="none" stroke="#e24a33" d="M62.76544 28.30928C62.76544 29.95999 61.4273 31.29811 59.77661 31.29811 58.1259 31.29811 56.78778 29.95999 56.78778 28.30928 56.78778 26.65857 58.1259 25.32045 59.77661 25.32045 61.4273 25.32045 62.76544 26.65857 62.76544 28.30928ZM59.77661 28.30928"/>
<path transform="matrix(1,0,0,-1,46.096,162.093)" d="M87.67236 35.96738C87.67236 37.61807 86.33423 38.9562 84.68353 38.9562 83.03282 38.9562 81.6947 37.61807 81.6947 35.96738 81.6947 34.31667 83.03282 32.97855 84.68353 32.97855 86.33423 32.97855 87.67236 34.31667 87.67236 35.96738ZM84.68353 35.96738" fill="#e24a33"/>
<path transform="matrix(1,0,0,-1,46.096,162.093)" stroke-width=".59776" stroke-linecap="butt" stroke-miterlimit="10" stroke-linejoin="miter" fill="none" stroke="#e24a33" d="M87.67236 35.96738C87.67236 37.61807 86.33423 38.9562 84.68353 38.9562 83.03282 38.9562 81.6947 37.61807 81.6947 35.96738 81.6947 34.31667 83.03282 32.97855 84.68353 32.97855 86.33423 32.97855 87.67236 34.31667 87.67236 35.96738ZM84.68353 35.96738"/>
<path transform="matrix(1,0,0,-1,46.096,162.093)" d="M112.57928 43.8517C112.57928 45.5024 111.24115 46.84053 109.59045 46.84053 107.93974 46.84053 106.60162 45.5024 106.60162 43.8517 106.60162 42.20099 107.93974 40.86287 109.59045 40.86287 111.24115 40.86287 112.57928 42.20099 112.57928 43.8517ZM109.59045 43.8517" fill="#e24a33"/>
<path transform="matrix(1,0,0,-1,46.096,162.093)" stroke-width=".59776" stroke-linecap="butt" stroke-miterlimit="10" stroke-linejoin="miter" fill="none" stroke="#e24a33" d="M112.57928 43.8517C112.57928 45.5024 111.24115 46.84053 109.59045 46.84053 107.93974 46.84053 106.60162 45.5024 106.60162 43.8517 106.60162 42.20099 107.93974 40.86287 109.59045 40.86287 111.24115 40.86287 112.57928 42.20099 112.57928 43.8517ZM109.59045 43.8517"/>
<path transform="matrix(1,0,0,-1,46.096,162.093)" d="M137.4862 51.68419C137.4862 53.3349 136.14807 54.67302 134.49738 54.67302 132.84667 54.67302 131.50855 53.3349 131.50855 51.68419 131.50855 50.0335 132.84667 48.69536 134.49738 48.69536 136.14807 48.69536 137.4862 50.0335 137.4862 51.68419ZM134.49738 51.68419" fill="#e24a33"/>
<path transform="matrix(1,0,0,-1,46.096,162.093)" stroke-width=".59776" stroke-linecap="butt" stroke-miterlimit="10" stroke-linejoin="miter" fill="none" stroke="#e24a33" d="M137.4862 51.68419C137.4862 53.3349 136.14807 54.67302 134.49738 54.67302 132.84667 54.67302 131.50855 53.3349 131.50855 51.68419 131.50855 50.0335 132.84667 48.69536 134.49738 48.69536 136.14807 48.69536 137.4862 50.0335 137.4862 51.68419ZM134.49738 51.68419"/>
<path transform="matrix(1,0,0,-1,46.096,162.093)" d="M162.39313 59.36046C162.39313 61.01117 161.055 62.34929 159.4043 62.34929 157.75359 62.34929 156.41547 61.01117 156.41547 59.36046 156.41547 57.70976 157.75359 56.37163 159.4043 56.37163 161.055 56.37163 162.39313 57.70976 162.39313 59.36046ZM159.4043 59.36046" fill="#e24a33"/>
<path transform="matrix(1,0,0,-1,46.096,162.093)" stroke-width=".59776" stroke-linecap="butt" stroke-miterlimit="10" stroke-linejoin="miter" fill="none" stroke="#e24a33" d="M162.39313 59.36046C162.39313 61.01117 161.055 62.34929 159.4043 62.34929 157.75359 62.34929 156.41547 61.01117 156.41547 59.36046 156.41547 57.70976 157.75359 56.37163 159.4043 56.37163 161.055 56.37163 162.39313 57.70976 162.39313 59.36046ZM159.4043 59.36046"/>
<path transform="matrix(1,0,0,-1,46.096,162.093)" d="M187.30005 66.96822C187.30005 68.61893 185.96192 69.95705 184.31122 69.95705 182.6605 69.95705 181.32239 68.61893 181.32239 66.96822 181.32239 65.3175 182.6605 63.97939 184.31122 63.97939 185.96192 63.97939 187.30005 65.3175 187.30005 66.96822ZM184.31122 66.96822" fill="#e24a33"/>
<path transform="matrix(1,0,0,-1,46.096,162.093)" stroke-width=".59776" stroke-linecap="butt" stroke-miterlimit="10" stroke-linejoin="miter" fill="none" stroke="#e24a33" d="M187.30005 66.96822C187.30005 68.61893 185.96192 69.95705 184.31122 69.95705 182.6605 69.95705 181.32239 68.61893 181.32239 66.96822 181.32239 65.3175 182.6605 63.97939 184.31122 63.97939 185.96192 63.97939 187.30005 65.3175 187.30005 66.96822ZM184.31122 66.96822"/>
<path transform="matrix(1,0,0,-1,46.096,162.093)" stroke-width=".59776" stroke-linecap="butt" stroke-miterlimit="10" stroke-linejoin="miter" fill="none" stroke="#e24a33" d=""/>
<path transform="matrix(1,0,0,-1,46.096,162.093)" d="M12.9516 16.1463C12.9516 17.79701 11.61346 19.13513 9.96277 19.13513 8.31206 19.13513 6.97394 17.79701 6.97394 16.1463 6.97394 14.49559 8.31206 13.15747 9.96277 13.15747 11.61346 13.15747 12.9516 14.49559 12.9516 16.1463ZM9.96277 16.1463" fill="#348abd"/>
<path transform="matrix(1,0,0,-1,46.096,162.093)" stroke-width=".59776" stroke-linecap="butt" stroke-miterlimit="10" stroke-linejoin="miter" fill="none" stroke="#348abd" d="M12.9516 16.1463C12.9516 17.79701 11.61346 19.13513 9.96277 19.13513 8.31206 19.13513 6.97394 17.79701 6.97394 16.1463 6.97394 14.49559 8.31206 13.15747 9.96277 13.15747 11.61346 13.15747 12.9516 14.49559 12.9516 16.1463ZM9.96277 16.1463"/>
<path transform="matrix(1,0,0,-1,46.096,162.093)" d="M37.85852 27.12836C37.85852 28.77907 36.52039 30.11719 34.86969 30.11719 33.21898 30.11719 31.88086 28.77907 31.88086 27.12836 31.88086 25.47766 33.21898 24.13953 34.86969 24.13953 36.52039 24.13953 37.85852 25.47766 37.85852 27.12836ZM34.86969 27.12836" fill="#348abd"/>
<path transform="matrix(1,0,0,-1,46.096,162.093)" stroke-width=".59776" stroke-linecap="butt" stroke-miterlimit="10" stroke-linejoin="miter" fill="none" stroke="#348abd" d="M37.85852 27.12836C37.85852 28.77907 36.52039 30.11719 34.86969 30.11719 33.21898 30.11719 31.88086 28.77907 31.88086 27.12836 31.88086 25.47766 33.21898 24.13953 34.86969 24.13953 36.52039 24.13953 37.85852 25.47766 37.85852 27.12836ZM34.86969 27.12836"/>
<path transform="matrix(1,0,0,-1,46.096,162.093)" d="M62.76544 38.25694C62.76544 39.90765 61.4273 41.24577 59.77661 41.24577 58.1259 41.24577 56.78778 39.90765 56.78778 38.25694 56.78778 36.60623 58.1259 35.26811 59.77661 35.26811 61.4273 35.26811 62.76544 36.60623 62.76544 38.25694ZM59.77661 38.25694" fill="#348abd"/>
<path transform="matrix(1,0,0,-1,46.096,162.093)" stroke-width=".59776" stroke-linecap="butt" stroke-miterlimit="10" stroke-linejoin="miter" fill="none" stroke="#348abd" d="M62.76544 38.25694C62.76544 39.90765 61.4273 41.24577 59.77661 41.24577 58.1259 41.24577 56.78778 39.90765 56.78778 38.25694 56.78778 36.60623 58.1259 35.26811 59.77661 35.26811 61.4273 35.26811 62.76544 36.60623 62.76544 38.25694ZM59.77661 38.25694"/>
<path transform="matrix(1,0,0,-1,46.096,162.093)" d="M87.67236 49.21391C87.67236 50.86462 86.33423 52.20274 84.68353 52.20274 83.03282 52.20274 81.6947 50.86462 81.6947 49.21391 81.6947 47.56322 83.03282 46.22508 84.68353 46.22508 86.33423 46.22508 87.67236 47.56322 87.67236 49.21391ZM84.68353 49.21391" fill="#348abd"/>
<path transform="matrix(1,0,0,-1,46.096,162.093)" stroke-width=".59776" stroke-linecap="butt" stroke-miterlimit="10" stroke-linejoin="miter" fill="none" stroke="#348abd" d="M87.67236 49.21391C87.67236 50.86462 86.33423 52.20274 84.68353 52.20274 83.03282 52.20274 81.6947 50.86462 81.6947 49.21391 81.6947 47.56322 83.03282 46.22508 84.68353 46.22508 86.33423 46.22508 87.67236 47.56322 87.67236 49.21391ZM84.68353 49.21391"/>
<path transform="matrix(1,0,0,-1,46.096,162.093)" d="M112.57928 60.53925C112.57928 62.18994 111.24115 63.52808 109.59045 63.52808 107.93974 63.52808 106.60162 62.18994 106.60162 60.53925 106.60162 58.88853 107.93974 57.55042 109.59045 57.55042 111.24115 57.55042 112.57928 58.88853 112.57928 60.53925ZM109.59045 60.53925" fill="#348abd"/>
<path transform="matrix(1,0,0,-1,46.096,162.093)" stroke-width=".59776" stroke-linecap="butt" stroke-miterlimit="10" stroke-linejoin="miter" fill="none" stroke="#348abd" d="M112.57928 60.53925C112.57928 62.18994 111.24115 63.52808 109.59045 63.52808 107.93974 63.52808 106.60162 62.18994 106.60162 60.53925 106.60162 58.88853 107.93974 57.55042 109.59045 57.55042 111.24115 57.55042 112.57928 58.88853 112.57928 60.53925ZM109.59045 60.53925"/>
<path transform="matrix(1,0,0,-1,46.096,162.093)" d="M137.4862 71.2897C137.4862 72.94041 136.14807 74.27853 134.49738 74.27853 132.84667 74.27853 131.50855 72.94041 131.50855 71.2897 131.50855 69.63899 132.84667 68.30087 134.49738 68.30087 136.14807 68.30087 137.4862 69.63899 137.4862 71.2897ZM134.49738 71.2897" fill="#348abd"/>
<path transform="matrix(1,0,0,-1,46.096,162.093)" stroke-width=".59776" stroke-linecap="butt" stroke-miterlimit="10" stroke-linejoin="miter" fill="none" stroke="#348abd" d="M137.4862 71.2897C137.4862 72.94041 136.14807 74.27853 134.49738 74.27853 132.84667 74.27853 131.50855 72.94041 131.50855 71.2897 131.50855 69.63899 132.84667 68.30087 134.49738 68.30087 136.14807 68.30087 137.4862 69.63899 137.4862 71.2897ZM134.49738 71.2897"/>
<path transform="matrix(1,0,0,-1,46.096,162.093)" d="M162.39313 82.42732C162.39313 84.07803 161.055 85.41615 159.4043 85.41615 157.75359 85.41615 156.41547 84.07803 156.41547 82.42732 156.41547 80.77661 157.75359 79.43849 159.4043 79.43849 161.055 79.43849 162.39313 80.77661 162.39313 82.42732ZM159.4043 82.42732" fill="#348abd"/>
<path transform="matrix(1,0,0,-1,46.096,162.093)" stroke-width=".59776" stroke-linecap="butt" stroke-miterlimit="10" stroke-linejoin="miter" fill="none" stroke="#348abd" d="M162.39313 82.42732C162.39313 84.07803 161.055 85.41615 159.4043 85.41615 157.75359 85.41615 156.41547 84.07803 156.41547 82.42732 156.41547 80.77661 157.75359 79.43849 159.4043 79.43849 161.055 79.43849 162.39313 80.77661 162.39313 82.42732ZM159.4043 82.42732"/>
<path transform="matrix(1,0,0,-1,46.096,162.093)" d="M187.30005 93.3979C187.30005 95.04861 185.96192 96.38673 184.31122 96.38673 182.6605 96.38673 181.32239 95.04861 181.32239 93.3979 181.32239 91.74721 182.6605 90.40907 184.31122 90.40907 185.96192 90.40907 187.30005 91.74721 187.30005 93.3979ZM184.31122 93.3979" fill="#348abd"/>
<path transform="matrix(1,0,0,-1,46.096,162.093)" stroke-width=".59776" stroke-linecap="butt" stroke-miterlimit="10" stroke-linejoin="miter" fill="none" stroke="#348abd" d="M187.30005 93.3979C187.30005 95.04861 185.96192 96.38673 184.31122 96.38673 182.6605 96.38673 181.32239 95.04861 181.32239 93.3979 181.32239 91.74721 182.6605 90.40907 184.31122 90.40907 185.96192 90.40907 187.30005 91.74721 187.30005 93.3979ZM184.31122 93.3979"/>
<path transform="matrix(1,0,0,-1,46.096,162.093)" stroke-width=".59776" stroke-linecap="butt" stroke-miterlimit="10" stroke-linejoin="miter" fill="none" stroke="#348abd" d=""/>
<path transform="matrix(1,0,0,-1,46.096,162.093)" d="M12.9516 18.85439C12.9516 20.5051 11.61346 21.84322 9.96277 21.84322 8.31206 21.84322 6.97394 20.5051 6.97394 18.85439 6.97394 17.20367 8.31206 15.86555 9.96277 15.86555 11.61346 15.86555 12.9516 17.20367 12.9516 18.85439ZM9.96277 18.85439" fill="#988ed5"/>
<path transform="matrix(1,0,0,-1,46.096,162.093)" stroke-width=".59776" stroke-linecap="butt" stroke-miterlimit="10" stroke-linejoin="miter" fill="none" stroke="#988ed5" d="M12.9516 18.85439C12.9516 20.5051 11.61346 21.84322 9.96277 21.84322 8.31206 21.84322 6.97394 20.5051 6.97394 18.85439 6.97394 17.20367 8.31206 15.86555 9.96277 15.86555 11.61346 15.86555 12.9516 17.20367 12.9516 18.85439ZM9.96277 18.85439"/>
<path transform="matrix(1,0,0,-1,46.096,162.093)" d="M37.85852 32.59067C37.85852 34.24136 36.52039 35.5795 34.86969 35.5795 33.21898 35.5795 31.88086 34.24136 31.88086 32.59067 31.88086 30.93996 33.21898 29.60184 34.86969 29.60184 36.52039 29.60184 37.85852 30.93996 37.85852 32.59067ZM34.86969 32.59067" fill="#988ed5"/>
<path transform="matrix(1,0,0,-1,46.096,162.093)" stroke-width=".59776" stroke-linecap="butt" stroke-miterlimit="10" stroke-linejoin="miter" fill="none" stroke="#988ed5" d="M37.85852 32.59067C37.85852 34.24136 36.52039 35.5795 34.86969 35.5795 33.21898 35.5795 31.88086 34.24136 31.88086 32.59067 31.88086 30.93996 33.21898 29.60184 34.86969 29.60184 36.52039 29.60184 37.85852 30.93996 37.85852 32.59067ZM34.86969 32.59067"/>
<path transform="matrix(1,0,0,-1,46.096,162.093)" d="M62.76544 45.97678C62.76544 47.62749 61.4273 48.9656 59.77661 48.9656 58.1259 48.9656 56.78778 47.62749 56.78778 45.97678 56.78778 44.32608 58.1259 42.98795 59.77661 42.98795 61.4273 42.98795 62.76544 44.32608 62.76544 45.97678ZM59.77661 45.97678" fill="#988ed5"/>
<path transform="matrix(1,0,0,-1,46.096,162.093)" stroke-width=".59776" stroke-linecap="butt" stroke-miterlimit="10" stroke-linejoin="miter" fill="none" stroke="#988ed5" d="M62.76544 45.97678C62.76544 47.62749 61.4273 48.9656 59.77661 48.9656 58.1259 48.9656 56.78778 47.62749 56.78778 45.97678 56.78778 44.32608 58.1259 42.98795 59.77661 42.98795 61.4273 42.98795 62.76544 44.32608 62.76544 45.97678ZM59.77661 45.97678"/>
<path transform="matrix(1,0,0,-1,46.096,162.093)" d="M87.67236 59.80624C87.67236 61.45695 86.33423 62.79507 84.68353 62.79507 83.03282 62.79507 81.6947 61.45695 81.6947 59.80624 81.6947 58.15555 83.03282 56.81741 84.68353 56.81741 86.33423 56.81741 87.67236 58.15555 87.67236 59.80624ZM84.68353 59.80624" fill="#988ed5"/>
<path transform="matrix(1,0,0,-1,46.096,162.093)" stroke-width=".59776" stroke-linecap="butt" stroke-miterlimit="10" stroke-linejoin="miter" fill="none" stroke="#988ed5" d="M87.67236 59.80624C87.67236 61.45695 86.33423 62.79507 84.68353 62.79507 83.03282 62.79507 81.6947 61.45695 81.6947 59.80624 81.6947 58.15555 83.03282 56.81741 84.68353 56.81741 86.33423 56.81741 87.67236 58.15555 87.67236 59.80624ZM84.68353 59.80624"/>
<path transform="matrix(1,0,0,-1,46.096,162.093)" d="M112.57928 73.07826C112.57928 74.72896 111.24115 76.0671 109.59045 76.0671 107.93974 76.0671 106.60162 74.72896 106.60162 73.07826 106.60162 71.42755 107.93974 70.08943 109.59045 70.08943 111.24115 70.08943 112.57928 71.42755 112.57928 73.07826ZM109.59045 73.07826" fill="#988ed5"/>
<path transform="matrix(1,0,0,-1,46.096,162.093)" stroke-width=".59776" stroke-linecap="butt" stroke-miterlimit="10" stroke-linejoin="miter" fill="none" stroke="#988ed5" d="M112.57928 73.07826C112.57928 74.72896 111.24115 76.0671 109.59045 76.0671 107.93974 76.0671 106.60162 74.72896 106.60162 73.07826 106.60162 71.42755 107.93974 70.08943 109.59045 70.08943 111.24115 70.08943 112.57928 71.42755 112.57928 73.07826ZM109.59045 73.07826"/>
<path transform="matrix(1,0,0,-1,46.096,162.093)" d="M137.4862 86.92682C137.4862 88.57753 136.14807 89.91565 134.49738 89.91565 132.84667 89.91565 131.50855 88.57753 131.50855 86.92682 131.50855 85.27611 132.84667 83.93799 134.49738 83.93799 136.14807 83.93799 137.4862 85.27611 137.4862 86.92682ZM134.49738 86.92682" fill="#988ed5"/>
<path transform="matrix(1,0,0,-1,46.096,162.093)" stroke-width=".59776" stroke-linecap="butt" stroke-miterlimit="10" stroke-linejoin="miter" fill="none" stroke="#988ed5" d="M137.4862 86.92682C137.4862 88.57753 136.14807 89.91565 134.49738 89.91565 132.84667 89.91565 131.50855 88.57753 131.50855 86.92682 131.50855 85.27611 132.84667 83.93799 134.49738 83.93799 136.14807 83.93799 137.4862 85.27611 137.4862 86.92682ZM134.49738 86.92682"/>
<path transform="matrix(1,0,0,-1,46.096,162.093)" d="M162.39313 100.30246C162.39313 101.95317 161.055 103.29129 159.4043 103.29129 157.75359 103.29129 156.41547 101.95317 156.41547 100.30246 156.41547 98.65176 157.75359 97.31363 159.4043 97.31363 161.055 97.31363 162.39313 98.65176 162.39313 100.30246ZM159.4043 100.30246" fill="#988ed5"/>
<path transform="matrix(1,0,0,-1,46.096,162.093)" stroke-width=".59776" stroke-linecap="butt" stroke-miterlimit="10" stroke-linejoin="miter" fill="none" stroke="#988ed5" d="M162.39313 100.30246C162.39313 101.95317 161.055 103.29129 159.4043 103.29129 157.75359 103.29129 156.41547 101.95317 156.41547 100.30246 156.41547 98.65176 157.75359 97.31363 159.4043 97.31363 161.055 97.31363 162.39313 98.65176 162.39313 100.30246ZM159.4043 100.30246"/>
<path transform="matrix(1,0,0,-1,46.096,162.093)" d="M187.30005 113.8694C187.30005 115.5201 185.96192 116.85823 184.31122 116.85823 182.6605 116.85823 181.32239 115.5201 181.32239 113.8694 181.32239 112.21869 182.6605 110.88057 184.31122 110.88057 185.96192 110.88057 187.30005 112.21869 187.30005 113.8694ZM184.31122 113.8694" fill="#988ed5"/>
<path transform="matrix(1,0,0,-1,46.096,162.093)" stroke-width=".59776" stroke-linecap="butt" stroke-miterlimit="10" stroke-linejoin="miter" fill="none" stroke="#988ed5" d="M187.30005 113.8694C187.30005 115.5201 185.96192 116.85823 184.31122 116.85823 182.6605 116.85823 181.32239 115.5201 181.32239 113.8694 181.32239 112.21869 182.6605 110.88057 184.31122 110.88057 185.96192 110.88057 187.30005 112.21869 187.30005 113.8694ZM184.31122 113.8694"/>
<path transform="matrix(1,0,0,-1,46.096,162.093)" stroke-width=".59776" stroke-linecap="butt" stroke-miterlimit="10" stroke-linejoin="miter" fill="none" stroke="#988ed5" d=""/>
<path transform="matrix(1,0,0,-1,46.096,162.093)" d="M12.9516 21.47984C12.9516 23.13055 11.61346 24.46867 9.96277 24.46867 8.31206 24.46867 6.97394 23.13055 6.97394 21.47984 6.97394 19.82913 8.31206 18.49101 9.96277 18.49101 11.61346 18.49101 12.9516 19.82913 12.9516 21.47984ZM9.96277 21.47984" fill="#777777"/>
<path transform="matrix(1,0,0,-1,46.096,162.093)" stroke-width=".59776" stroke-linecap="butt" stroke-miterlimit="10" stroke-linejoin="miter" fill="none" stroke="#777777" d="M12.9516 21.47984C12.9516 23.13055 11.61346 24.46867 9.96277 24.46867 8.31206 24.46867 6.97394 23.13055 6.97394 21.47984 6.97394 19.82913 8.31206 18.49101 9.96277 18.49101 11.61346 18.49101 12.9516 19.82913 12.9516 21.47984ZM9.96277 21.47984"/>
<path transform="matrix(1,0,0,-1,46.096,162.093)" d="M37.85852 37.61198C37.85852 39.2627 36.52039 40.60081 34.86969 40.60081 33.21898 40.60081 31.88086 39.2627 31.88086 37.61198 31.88086 35.96127 33.21898 34.62315 34.86969 34.62315 36.52039 34.62315 37.85852 35.96127 37.85852 37.61198ZM34.86969 37.61198" fill="#777777"/>
<path transform="matrix(1,0,0,-1,46.096,162.093)" stroke-width=".59776" stroke-linecap="butt" stroke-miterlimit="10" stroke-linejoin="miter" fill="none" stroke="#777777" d="M37.85852 37.61198C37.85852 39.2627 36.52039 40.60081 34.86969 40.60081 33.21898 40.60081 31.88086 39.2627 31.88086 37.61198 31.88086 35.96127 33.21898 34.62315 34.86969 34.62315 36.52039 34.62315 37.85852 35.96127 37.85852 37.61198ZM34.86969 37.61198"/>
<path transform="matrix(1,0,0,-1,46.096,162.093)" d="M62.76544 53.87885C62.76544 55.52956 61.4273 56.86768 59.77661 56.86768 58.1259 56.86768 56.78778 55.52956 56.78778 53.87885 56.78778 52.22813 58.1259 50.89001 59.77661 50.89001 61.4273 50.89001 62.76544 52.22813 62.76544 53.87885ZM59.77661 53.87885" fill="#777777"/>
<path transform="matrix(1,0,0,-1,46.096,162.093)" stroke-width=".59776" stroke-linecap="butt" stroke-miterlimit="10" stroke-linejoin="miter" fill="none" stroke="#777777" d="M62.76544 53.87885C62.76544 55.52956 61.4273 56.86768 59.77661 56.86768 58.1259 56.86768 56.78778 55.52956 56.78778 53.87885 56.78778 52.22813 58.1259 50.89001 59.77661 50.89001 61.4273 50.89001 62.76544 52.22813 62.76544 53.87885ZM59.77661 53.87885"/>
<path transform="matrix(1,0,0,-1,46.096,162.093)" d="M87.67236 69.75249C87.67236 71.4032 86.33423 72.74132 84.68353 72.74132 83.03282 72.74132 81.6947 71.4032 81.6947 69.75249 81.6947 68.10179 83.03282 66.76366 84.68353 66.76366 86.33423 66.76366 87.67236 68.10179 87.67236 69.75249ZM84.68353 69.75249" fill="#777777"/>
<path transform="matrix(1,0,0,-1,46.096,162.093)" stroke-width=".59776" stroke-linecap="butt" stroke-miterlimit="10" stroke-linejoin="miter" fill="none" stroke="#777777" d="M87.67236 69.75249C87.67236 71.4032 86.33423 72.74132 84.68353 72.74132 83.03282 72.74132 81.6947 71.4032 81.6947 69.75249 81.6947 68.10179 83.03282 66.76366 84.68353 66.76366 86.33423 66.76366 87.67236 68.10179 87.67236 69.75249ZM84.68353 69.75249"/>
<path transform="matrix(1,0,0,-1,46.096,162.093)" d="M112.57928 86.12415C112.57928 87.77484 111.24115 89.11298 109.59045 89.11298 107.93974 89.11298 106.60162 87.77484 106.60162 86.12415 106.60162 84.47343 107.93974 83.13531 109.59045 83.13531 111.24115 83.13531 112.57928 84.47343 112.57928 86.12415ZM109.59045 86.12415" fill="#777777"/>
<path transform="matrix(1,0,0,-1,46.096,162.093)" stroke-width=".59776" stroke-linecap="butt" stroke-miterlimit="10" stroke-linejoin="miter" fill="none" stroke="#777777" d="M112.57928 86.12415C112.57928 87.77484 111.24115 89.11298 109.59045 89.11298 107.93974 89.11298 106.60162 87.77484 106.60162 86.12415 106.60162 84.47343 107.93974 83.13531 109.59045 83.13531 111.24115 83.13531 112.57928 84.47343 112.57928 86.12415ZM109.59045 86.12415"/>
<path transform="matrix(1,0,0,-1,46.096,162.093)" d="M137.4862 101.97891C137.4862 103.62961 136.14807 104.96774 134.49738 104.96774 132.84667 104.96774 131.50855 103.62961 131.50855 101.97891 131.50855 100.3282 132.84667 98.99008 134.49738 98.99008 136.14807 98.99008 137.4862 100.3282 137.4862 101.97891ZM134.49738 101.97891" fill="#777777"/>
<path transform="matrix(1,0,0,-1,46.096,162.093)" stroke-width=".59776" stroke-linecap="butt" stroke-miterlimit="10" stroke-linejoin="miter" fill="none" stroke="#777777" d="M137.4862 101.97891C137.4862 103.62961 136.14807 104.96774 134.49738 104.96774 132.84667 104.96774 131.50855 103.62961 131.50855 101.97891 131.50855 100.3282 132.84667 98.99008 134.49738 98.99008 136.14807 98.99008 137.4862 100.3282 137.4862 101.97891ZM134.49738 101.97891"/>
<path transform="matrix(1,0,0,-1,46.096,162.093)" d="M162.39313 118.14021C162.39313 119.79091 161.055 121.12904 159.4043 121.12904 157.75359 121.12904 156.41547 119.79091 156.41547 118.14021 156.41547 116.4895 157.75359 115.15138 159.4043 115.15138 161.055 115.15138 162.39313 116.4895 162.39313 118.14021ZM159.4043 118.14021" fill="#777777"/>
<path transform="matrix(1,0,0,-1,46.096,162.093)" stroke-width=".59776" stroke-linecap="butt" stroke-miterlimit="10" stroke-linejoin="miter" fill="none" stroke="#777777" d="M162.39313 118.14021C162.39313 119.79091 161.055 121.12904 159.4043 121.12904 157.75359 121.12904 156.41547 119.79091 156.41547 118.14021 156.41547 116.4895 157.75359 115.15138 159.4043 115.15138 161.055 115.15138 162.39313 116.4895 162.39313 118.14021ZM159.4043 118.14021"/>
<path transform="matrix(1,0,0,-1,46.096,162.093)" d="M187.30005 134.31179C187.30005 135.9625 185.96192 137.30062 184.31122 137.30062 182.6605 137.30062 181.32239 135.9625 181.32239 134.31179 181.32239 132.66107 182.6605 131.32295 184.31122 131.32295 185.96192 131.32295 187.30005 132.66107 187.30005 134.31179ZM184.31122 134.31179" fill="#777777"/>
<path transform="matrix(1,0,0,-1,46.096,162.093)" stroke-width=".59776" stroke-linecap="butt" stroke-miterlimit="10" stroke-linejoin="miter" fill="none" stroke="#777777" d="M187.30005 134.31179C187.30005 135.9625 185.96192 137.30062 184.31122 137.30062 182.6605 137.30062 181.32239 135.9625 181.32239 134.31179 181.32239 132.66107 182.6605 131.32295 184.31122 131.32295 185.96192 131.32295 187.30005 132.66107 187.30005 134.31179ZM184.31122 134.31179"/>
<path transform="matrix(1,0,0,-1,46.096,162.093)" stroke-width=".59776" stroke-linecap="butt" stroke-miterlimit="10" stroke-linejoin="miter" fill="none" stroke="#777777" d=""/>
<path transform="matrix(1,0,0,-1,46.096,162.093)" d="M12.9516 24.01216C12.9516 25.66286 11.61346 27.00099 9.96277 27.00099 8.31206 27.00099 6.97394 25.66286 6.97394 24.01216 6.97394 22.36145 8.31206 21.02333 9.96277 21.02333 11.61346 21.02333 12.9516 22.36145 12.9516 24.01216ZM9.96277 24.01216" fill="#fbc15e"/>
<path transform="matrix(1,0,0,-1,46.096,162.093)" stroke-width=".59776" stroke-linecap="butt" stroke-miterlimit="10" stroke-linejoin="miter" fill="none" stroke="#fbc15e" d="M12.9516 24.01216C12.9516 25.66286 11.61346 27.00099 9.96277 27.00099 8.31206 27.00099 6.97394 25.66286 6.97394 24.01216 6.97394 22.36145 8.31206 21.02333 9.96277 21.02333 11.61346 21.02333 12.9516 22.36145 12.9516 24.01216ZM9.96277 24.01216"/>
<path transform="matrix(1,0,0,-1,46.096,162.093)" d="M37.85852 42.67422C37.85852 44.32494 36.52039 45.66306 34.86969 45.66306 33.21898 45.66306 31.88086 44.32494 31.88086 42.67422 31.88086 41.02351 33.21898 39.6854 34.86969 39.6854 36.52039 39.6854 37.85852 41.02351 37.85852 42.67422ZM34.86969 42.67422" fill="#fbc15e"/>
<path transform="matrix(1,0,0,-1,46.096,162.093)" stroke-width=".59776" stroke-linecap="butt" stroke-miterlimit="10" stroke-linejoin="miter" fill="none" stroke="#fbc15e" d="M37.85852 42.67422C37.85852 44.32494 36.52039 45.66306 34.86969 45.66306 33.21898 45.66306 31.88086 44.32494 31.88086 42.67422 31.88086 41.02351 33.21898 39.6854 34.86969 39.6854 36.52039 39.6854 37.85852 41.02351 37.85852 42.67422ZM34.86969 42.67422"/>
<path transform="matrix(1,0,0,-1,46.096,162.093)" d="M62.76544 61.45476C62.76544 63.10545 61.4273 64.44359 59.77661 64.44359 58.1259 64.44359 56.78778 63.10545 56.78778 61.45476 56.78778 59.80405 58.1259 58.46593 59.77661 58.46593 61.4273 58.46593 62.76544 59.80405 62.76544 61.45476ZM59.77661 61.45476" fill="#fbc15e"/>
<path transform="matrix(1,0,0,-1,46.096,162.093)" stroke-width=".59776" stroke-linecap="butt" stroke-miterlimit="10" stroke-linejoin="miter" fill="none" stroke="#fbc15e" d="M62.76544 61.45476C62.76544 63.10545 61.4273 64.44359 59.77661 64.44359 58.1259 64.44359 56.78778 63.10545 56.78778 61.45476 56.78778 59.80405 58.1259 58.46593 59.77661 58.46593 61.4273 58.46593 62.76544 59.80405 62.76544 61.45476ZM59.77661 61.45476"/>
<path transform="matrix(1,0,0,-1,46.096,162.093)" d="M87.67236 79.91289C87.67236 81.5636 86.33423 82.90172 84.68353 82.90172 83.03282 82.90172 81.6947 81.5636 81.6947 79.91289 81.6947 78.26218 83.03282 76.92406 84.68353 76.92406 86.33423 76.92406 87.67236 78.26218 87.67236 79.91289ZM84.68353 79.91289" fill="#fbc15e"/>
<path transform="matrix(1,0,0,-1,46.096,162.093)" stroke-width=".59776" stroke-linecap="butt" stroke-miterlimit="10" stroke-linejoin="miter" fill="none" stroke="#fbc15e" d="M87.67236 79.91289C87.67236 81.5636 86.33423 82.90172 84.68353 82.90172 83.03282 82.90172 81.6947 81.5636 81.6947 79.91289 81.6947 78.26218 83.03282 76.92406 84.68353 76.92406 86.33423 76.92406 87.67236 78.26218 87.67236 79.91289ZM84.68353 79.91289"/>
<path transform="matrix(1,0,0,-1,46.096,162.093)" d="M112.57928 98.62164C112.57928 100.27235 111.24115 101.61047 109.59045 101.61047 107.93974 101.61047 106.60162 100.27235 106.60162 98.62164 106.60162 96.97093 107.93974 95.63281 109.59045 95.63281 111.24115 95.63281 112.57928 96.97093 112.57928 98.62164ZM109.59045 98.62164" fill="#fbc15e"/>
<path transform="matrix(1,0,0,-1,46.096,162.093)" stroke-width=".59776" stroke-linecap="butt" stroke-miterlimit="10" stroke-linejoin="miter" fill="none" stroke="#fbc15e" d="M112.57928 98.62164C112.57928 100.27235 111.24115 101.61047 109.59045 101.61047 107.93974 101.61047 106.60162 100.27235 106.60162 98.62164 106.60162 96.97093 107.93974 95.63281 109.59045 95.63281 111.24115 95.63281 112.57928 96.97093 112.57928 98.62164ZM109.59045 98.62164"/>
<path transform="matrix(1,0,0,-1,46.096,162.093)" d="M137.4862 117.24046C137.4862 118.89117 136.14807 120.2293 134.49738 120.2293 132.84667 120.2293 131.50855 118.89117 131.50855 117.24046 131.50855 115.58975 132.84667 114.25163 134.49738 114.25163 136.14807 114.25163 137.4862 115.58975 137.4862 117.24046ZM134.49738 117.24046" fill="#fbc15e"/>
<path transform="matrix(1,0,0,-1,46.096,162.093)" stroke-width=".59776" stroke-linecap="butt" stroke-miterlimit="10" stroke-linejoin="miter" fill="none" stroke="#fbc15e" d="M137.4862 117.24046C137.4862 118.89117 136.14807 120.2293 134.49738 120.2293 132.84667 120.2293 131.50855 118.89117 131.50855 117.24046 131.50855 115.58975 132.84667 114.25163 134.49738 114.25163 136.14807 114.25163 137.4862 115.58975 137.4862 117.24046ZM134.49738 117.24046"/>
<path transform="matrix(1,0,0,-1,46.096,162.093)" d="M162.39313 135.88278C162.39313 137.5335 161.055 138.87162 159.4043 138.87162 157.75359 138.87162 156.41547 137.5335 156.41547 135.88278 156.41547 134.23207 157.75359 132.89395 159.4043 132.89395 161.055 132.89395 162.39313 134.23207 162.39313 135.88278ZM159.4043 135.88278" fill="#fbc15e"/>
<path transform="matrix(1,0,0,-1,46.096,162.093)" stroke-width=".59776" stroke-linecap="butt" stroke-miterlimit="10" stroke-linejoin="miter" fill="none" stroke="#fbc15e" d="M162.39313 135.88278C162.39313 137.5335 161.055 138.87162 159.4043 138.87162 157.75359 138.87162 156.41547 137.5335 156.41547 135.88278 156.41547 134.23207 157.75359 132.89395 159.4043 132.89395 161.055 132.89395 162.39313 134.23207 162.39313 135.88278ZM159.4043 135.88278"/>
<path transform="matrix(1,0,0,-1,46.096,162.093)" d="M187.30005 154.5169C187.30005 156.16762 185.96192 157.50574 184.31122 157.50574 182.6605 157.50574 181.32239 156.16762 181.32239 154.5169 181.32239 152.86621 182.6605 151.52808 184.31122 151.52808 185.96192 151.52808 187.30005 152.86621 187.30005 154.5169ZM184.31122 154.5169" fill="#fbc15e"/>
<path transform="matrix(1,0,0,-1,46.096,162.093)" stroke-width=".59776" stroke-linecap="butt" stroke-miterlimit="10" stroke-linejoin="miter" fill="none" stroke="#fbc15e" d="M187.30005 154.5169C187.30005 156.16762 185.96192 157.50574 184.31122 157.50574 182.6605 157.50574 181.32239 156.16762 181.32239 154.5169 181.32239 152.86621 182.6605 151.52808 184.31122 151.52808 185.96192 151.52808 187.30005 152.86621 187.30005 154.5169ZM184.31122 154.5169"/>
<path transform="matrix(1,0,0,-1,46.096,162.093)" stroke-width=".59776" stroke-linecap="butt" stroke-miterlimit="10" stroke-linejoin="miter" fill="none" stroke="#fbc15e" d=""/>
<use data-text="P" xlink:href="#font_0_1" transform="matrix(9.9626,0,0,-9.9626,80.418,191.203)"/>
<use data-text="a" xlink:href="#font_0_4" transform="matrix(9.9626,0,0,-9.9626,86.91361,191.203)"/>
<use data-text="r" xlink:href="#font_0_18" transform="matrix(9.9626,0,0,-9.9626,91.89491,191.203)"/>
<use data-text="a" xlink:href="#font_0_4" transform="matrix(9.9626,0,0,-9.9626,95.800258,191.203)"/>
<use data-text="m" xlink:href="#font_0_11" transform="matrix(9.9626,0,0,-9.9626,100.781558,191.203)"/>
<use data-text="e" xlink:href="#font_0_6" transform="matrix(9.9626,0,0,-9.9626,109.0804,191.203)"/>
<use data-text="t" xlink:href="#font_0_22" transform="matrix(9.9626,0,0,-9.9626,113.50379,191.203)"/>
<use data-text="e" xlink:href="#font_0_6" transform="matrix(9.9626,0,0,-9.9626,117.37924,191.203)"/>
<use data-text="r" xlink:href="#font_0_18" transform="matrix(9.9626,0,0,-9.9626,121.802639,191.203)"/>
<use data-text="d" xlink:href="#font_0_5" transform="matrix(9.9626,0,0,-9.9626,129.02553,191.203)"/>
<use data-text="i" xlink:href="#font_0_10" transform="matrix(9.9626,0,0,-9.9626,134.55477,191.203)"/>
<use data-text="m" xlink:href="#font_0_11" transform="matrix(9.9626,0,0,-9.9626,137.32437,191.203)"/>
<use data-text="e" xlink:href="#font_0_6" transform="matrix(9.9626,0,0,-9.9626,145.63318,191.203)"/>
<use data-text="n" xlink:href="#font_0_12" transform="matrix(9.9626,0,0,-9.9626,150.05658,191.203)"/>
<use data-text="s" xlink:href="#font_0_19" transform="matrix(9.9626,0,0,-9.9626,155.58582,191.203)"/>
<use data-text="i" xlink:href="#font_0_10" transform="matrix(9.9626,0,0,-9.9626,159.51108,191.203)"/>
<use data-text="o" xlink:href="#font_0_13" transform="matrix(9.9626,0,0,-9.9626,162.28069,191.203)"/>
<use data-text="n" xlink:href="#font_0_12" transform="matrix(9.9626,0,0,-9.9626,167.26198,191.203)"/>
<use data-text="(" xlink:href="#font_0_15" transform="matrix(9.9626,0,0,-9.9626,176.10877,191.203)"/>
<use data-text="&#x00d7;" xlink:href="#font_2_1" transform="matrix(9.9626,0,0,-9.9626,179.992,191.203)"/>
<use data-text="1" xlink:href="#font_3_2" transform="matrix(9.9626,0,0,-9.9626,187.741,191.203)"/>
<use data-text="0" xlink:href="#font_3_1" transform="matrix(9.9626,0,0,-9.9626,192.72229,191.203)"/>
<use data-text="6" xlink:href="#font_4_1" transform="matrix(6.9738,0,0,-6.9738,197.704,187.588)"/>
<use data-text=")" xlink:href="#font_0_16" transform="matrix(9.9626,0,0,-9.9626,202.17299,191.203)"/>
<use data-text="T" xlink:href="#font_0_3" transform="matrix(0,-9.9626,-9.9626,-0,11.290001,100.23801)"/>
<use data-text="i" xlink:href="#font_0_10" transform="matrix(0,-9.9626,-9.9626,-0,11.290001,93.04501)"/>
<use data-text="m" xlink:href="#font_0_11" transform="matrix(0,-9.9626,-9.9626,-0,11.290001,90.275409)"/>
<use data-text="e" xlink:href="#font_0_6" transform="matrix(0,-9.9626,-9.9626,-0,11.290001,81.97656)"/>
<use data-text="(" xlink:href="#font_0_15" transform="matrix(0,-9.9626,-9.9626,-0,11.290001,74.23562)"/>
<use data-text="s" xlink:href="#font_0_19" transform="matrix(0,-9.9626,-9.9626,-0,11.290001,70.36017)"/>
<use data-text=")" xlink:href="#font_0_16" transform="matrix(0,-9.9626,-9.9626,-0,11.290001,66.434909)"/>
<path transform="matrix(1,0,0,-1,46.096,162.093)" d="M6.02722 90.6664H74.12904V156.35483H6.02722Z" fill="#e5e5e5" fill-opacity=".8"/>
<path transform="matrix(1,0,0,-1,46.096,162.093)" stroke-width=".3985" stroke-linecap="butt" stroke-miterlimit="10" stroke-linejoin="miter" fill="none" stroke="#cccccc" d="M6.02722 90.6664H74.12904V156.35483H6.02722Z"/>
<path transform="matrix(1,0,0,-1,55.411,13.903)" stroke-width=".59776" stroke-linecap="butt" stroke-miterlimit="10" stroke-linejoin="miter" fill="none" stroke="#e24a33" d="M0 0H8.50412 17.00826"/>
<path transform="matrix(1,0,0,-1,55.411,13.903)" d="M11.49295 0C11.49295 1.6507 10.15482 2.98883 8.50412 2.98883 6.85341 2.98883 5.51529 1.6507 5.51529 0 5.51529-1.6507 6.85341-2.98883 8.50412-2.98883 10.15482-2.98883 11.49295-1.6507 11.49295 0ZM8.50412 0" fill="#e24a33" fill-opacity=".8"/>
<path transform="matrix(1,0,0,-1,55.411,13.903)" stroke-width=".59776" stroke-linecap="butt" stroke-miterlimit="10" stroke-linejoin="miter" fill="none" stroke="#e24a33" d="M11.49295 0C11.49295 1.6507 10.15482 2.98883 8.50412 2.98883 6.85341 2.98883 5.51529 1.6507 5.51529 0 5.51529-1.6507 6.85341-2.98883 8.50412-2.98883 10.15482-2.98883 11.49295-1.6507 11.49295 0ZM8.50412 0"/>
<use data-text="1" xlink:href="#font_0_14" transform="matrix(9.9626,0,0,-9.9626,74.711,16.587006)"/>
<use data-text="S" xlink:href="#font_0_2" transform="matrix(9.9626,0,0,-9.9626,83.00984,16.587006)"/>
<use data-text="e" xlink:href="#font_0_6" transform="matrix(9.9626,0,0,-9.9626,88.539089,16.587006)"/>
<use data-text="n" xlink:href="#font_0_12" transform="matrix(9.9626,0,0,-9.9626,92.96248,16.587006)"/>
<use data-text="s" xlink:href="#font_0_19" transform="matrix(9.9626,0,0,-9.9626,98.49172,16.587006)"/>
<use data-text="o" xlink:href="#font_0_13" transform="matrix(9.9626,0,0,-9.9626,102.416988,16.587006)"/>
<use data-text="r" xlink:href="#font_0_18" transform="matrix(9.9626,0,0,-9.9626,107.398288,16.587006)"/>
<path transform="matrix(1,0,0,-1,55.410997,26.244)" stroke-width=".59776" stroke-linecap="butt" stroke-miterlimit="10" stroke-linejoin="miter" fill="none" stroke="#348abd" d="M0 0H8.50412 17.00826"/>
<path transform="matrix(1,0,0,-1,55.410997,26.244)" d="M11.49295 0C11.49295 1.6507 10.15482 2.98883 8.50412 2.98883 6.85341 2.98883 5.51529 1.6507 5.51529 0 5.51529-1.6507 6.85341-2.98883 8.50412-2.98883 10.15482-2.98883 11.49295-1.6507 11.49295 0ZM8.50412 0" fill="#348abd" fill-opacity=".8"/>
<path transform="matrix(1,0,0,-1,55.410997,26.244)" stroke-width=".59776" stroke-linecap="butt" stroke-miterlimit="10" stroke-linejoin="miter" fill="none" stroke="#348abd" d="M11.49295 0C11.49295 1.6507 10.15482 2.98883 8.50412 2.98883 6.85341 2.98883 5.51529 1.6507 5.51529 0 5.51529-1.6507 6.85341-2.98883 8.50412-2.98883 10.15482-2.98883 11.49295-1.6507 11.49295 0ZM8.50412 0"/>
<use data-text="2" xlink:href="#font_0_24" transform="matrix(9.9626,0,0,-9.9626,74.711,28.927002)"/>
<use data-text="S" xlink:href="#font_0_2" transform="matrix(9.9626,0,0,-9.9626,83.00984,28.927002)"/>
<use data-text="e" xlink:href="#font_0_6" transform="matrix(9.9626,0,0,-9.9626,88.539089,28.927002)"/>
<use data-text="n" xlink:href="#font_0_12" transform="matrix(9.9626,0,0,-9.9626,92.96248,28.927002)"/>
<use data-text="s" xlink:href="#font_0_19" transform="matrix(9.9626,0,0,-9.9626,98.49172,28.927002)"/>
<use data-text="o" xlink:href="#font_0_13" transform="matrix(9.9626,0,0,-9.9626,102.416988,28.927002)"/>
<use data-text="r" xlink:href="#font_0_18" transform="matrix(9.9626,0,0,-9.9626,107.398288,28.927002)"/>
<use data-text="s" xlink:href="#font_0_19" transform="matrix(9.9626,0,0,-9.9626,111.30363,28.927002)"/>
<path transform="matrix(1,0,0,-1,55.410997,38.584)" stroke-width=".59776" stroke-linecap="butt" stroke-miterlimit="10" stroke-linejoin="miter" fill="none" stroke="#988ed5" d="M0 0H8.50412 17.00826"/>
<path transform="matrix(1,0,0,-1,55.410997,38.584)" d="M11.49295 0C11.49295 1.6507 10.15482 2.98883 8.50412 2.98883 6.85341 2.98883 5.51529 1.6507 5.51529 0 5.51529-1.6507 6.85341-2.98883 8.50412-2.98883 10.15482-2.98883 11.49295-1.6507 11.49295 0ZM8.50412 0" fill="#988ed5" fill-opacity=".8"/>
<path transform="matrix(1,0,0,-1,55.410997,38.584)" stroke-width=".59776" stroke-linecap="butt" stroke-miterlimit="10" stroke-linejoin="miter" fill="none" stroke="#988ed5" d="M11.49295 0C11.49295 1.6507 10.15482 2.98883 8.50412 2.98883 6.85341 2.98883 5.51529 1.6507 5.51529 0 5.51529-1.6507 6.85341-2.98883 8.50412-2.98883 10.15482-2.98883 11.49295-1.6507 11.49295 0ZM8.50412 0"/>
<use data-text="3" xlink:href="#font_0_23" transform="matrix(9.9626,0,0,-9.9626,74.711,41.268007)"/>
<use data-text="S" xlink:href="#font_0_2" transform="matrix(9.9626,0,0,-9.9626,83.00984,41.268007)"/>
<use data-text="e" xlink:href="#font_0_6" transform="matrix(9.9626,0,0,-9.9626,88.539089,41.268007)"/>
<use data-text="n" xlink:href="#font_0_12" transform="matrix(9.9626,0,0,-9.9626,92.96248,41.268007)"/>
<use data-text="s" xlink:href="#font_0_19" transform="matrix(9.9626,0,0,-9.9626,98.49172,41.268007)"/>
<use data-text="o" xlink:href="#font_0_13" transform="matrix(9.9626,0,0,-9.9626,102.416988,41.268007)"/>
<use data-text="r" xlink:href="#font_0_18" transform="matrix(9.9626,0,0,-9.9626,107.398288,41.268007)"/>
<use data-text="s" xlink:href="#font_0_19" transform="matrix(9.9626,0,0,-9.9626,111.30363,41.268007)"/>
<path transform="matrix(1,0,0,-1,55.410997,50.925)" stroke-width=".59776" stroke-linecap="butt" stroke-miterlimit="10" stroke-linejoin="miter" fill="none" stroke="#777777" d="M0 0H8.50412 17.00826"/>
<path transform="matrix(1,0,0,-1,55.410997,50.925)" d="M11.49295 0C11.49295 1.6507 10.15482 2.98883 8.50412 2.98883 6.85341 2.98883 5.51529 1.6507 5.51529 0 5.51529-1.6507 6.85341-2.98883 8.50412-2.98883 10.15482-2.98883 11.49295-1.6507 11.49295 0ZM8.50412 0" fill="#777777" fill-opacity=".8"/>
<path transform="matrix(1,0,0,-1,55.410997,50.925)" stroke-width=".59776" stroke-linecap="butt" stroke-miterlimit="10" stroke-linejoin="miter" fill="none" stroke="#777777" d="M11.49295 0C11.49295 1.6507 10.15482 2.98883 8.50412 2.98883 6.85341 2.98883 5.51529 1.6507 5.51529 0 5.51529-1.6507 6.85341-2.98883 8.50412-2.98883 10.15482-2.98883 11.49295-1.6507 11.49295 0ZM8.50412 0"/>
<use data-text="4" xlink:href="#font_0_9" transform="matrix(9.9626,0,0,-9.9626,74.711,53.608)"/>
<use data-text="S" xlink:href="#font_0_2" transform="matrix(9.9626,0,0,-9.9626,83.00984,53.608)"/>
<use data-text="e" xlink:href="#font_0_6" transform="matrix(9.9626,0,0,-9.9626,88.539089,53.608)"/>
<use data-text="n" xlink:href="#font_0_12" transform="matrix(9.9626,0,0,-9.9626,92.96248,53.608)"/>
<use data-text="s" xlink:href="#font_0_19" transform="matrix(9.9626,0,0,-9.9626,98.49172,53.608)"/>
<use data-text="o" xlink:href="#font_0_13" transform="matrix(9.9626,0,0,-9.9626,102.416988,53.608)"/>
<use data-text="r" xlink:href="#font_0_18" transform="matrix(9.9626,0,0,-9.9626,107.398288,53.608)"/>
<use data-text="s" xlink:href="#font_0_19" transform="matrix(9.9626,0,0,-9.9626,111.30363,53.608)"/>
<path transform="matrix(1,0,0,-1,55.410997,63.265)" stroke-width=".59776" stroke-linecap="butt" stroke-miterlimit="10" stroke-linejoin="miter" fill="none" stroke="#fbc15e" d="M0 0H8.50412 17.00826"/>
<path transform="matrix(1,0,0,-1,55.410997,63.265)" d="M11.49295 0C11.49295 1.6507 10.15482 2.98883 8.50412 2.98883 6.85341 2.98883 5.51529 1.6507 5.51529 0 5.51529-1.6507 6.85341-2.98883 8.50412-2.98883 10.15482-2.98883 11.49295-1.6507 11.49295 0ZM8.50412 0" fill="#fbc15e" fill-opacity=".8"/>
<path transform="matrix(1,0,0,-1,55.410997,63.265)" stroke-width=".59776" stroke-linecap="butt" stroke-miterlimit="10" stroke-linejoin="miter" fill="none" stroke="#fbc15e" d="M11.49295 0C11.49295 1.6507 10.15482 2.98883 8.50412 2.98883 6.85341 2.98883 5.51529 1.6507 5.51529 0 5.51529-1.6507 6.85341-2.98883 8.50412-2.98883 10.15482-2.98883 11.49295-1.6507 11.49295 0ZM8.50412 0"/>
<use data-text="5" xlink:href="#font_0_8" transform="matrix(9.9626,0,0,-9.9626,74.711,65.949008)"/>
<use data-text="S" xlink:href="#font_0_2" transform="matrix(9.9626,0,0,-9.9626,83.00984,65.949008)"/>
<use data-text="e" xlink:href="#font_0_6" transform="matrix(9.9626,0,0,-9.9626,88.539089,65.949008)"/>
<use data-text="n" xlink:href="#font_0_12" transform="matrix(9.9626,0,0,-9.9626,92.96248,65.949008)"/>
<use data-text="s" xlink:href="#font_0_19" transform="matrix(9.9626,0,0,-9.9626,98.49172,65.949008)"/>
<use data-text="o" xlink:href="#font_0_13" transform="matrix(9.9626,0,0,-9.9626,102.416988,65.949008)"/>
<use data-text="r" xlink:href="#font_0_18" transform="matrix(9.9626,0,0,-9.9626,107.398288,65.949008)"/>
<use data-text="s" xlink:href="#font_0_19" transform="matrix(9.9626,0,0,-9.9626,111.30363,65.949008)"/>
</svg>
