<?xml version="1.0" encoding="utf-8"?>
<!-- Generator: Adobe Illustrator 23.0.2, SVG Export Plug-In . SVG Version: 6.00 Build 0)  -->
<svg version="1.1" id="Layer_1" xmlns="http://www.w3.org/2000/svg" xmlns:xlink="http://www.w3.org/1999/xlink" x="0px" y="0px"
	 viewBox="0 0 792 288" style="enable-background:new 0 0 792 288;" xml:space="preserve">
<style type="text/css">
	.st0{fill:#333F48;}
	.st1{fill:#BF5700;}
</style>
<g>
	<path class="st0" d="M130.79,89.81c0,6.63-3.39,10.26-10.8,11.49c-6.06,0-10.2-4.53-10.2-10.59c0-6.63,3.39-10.26,10.8-11.49
		C126.66,79.22,130.79,83.75,130.79,89.81z M120.75,99.65c4.62,0,6.6-3.99,6.6-8.85c0-4.38-1.95-9.93-7.47-9.93
		c-4.62,0-6.63,3.96-6.63,8.85C113.25,94.19,115.26,99.65,120.75,99.65z"/>
	<path class="st0" d="M145.79,96.86c0,1.2,0.21,1.74,0.51,2.19h1.68l0.12,1.11l-4.02,0.75l-0.93-2.31l-3.87,2.61
		c-3.81,0-6.24-2.85-6.24-6.99c0-4.86,2.97-7.41,7.35-8.01c0.6,0,1.86,0.48,2.55,0.81v-5.67l-2.1,0.06l-0.15-1.02l3.6-0.93l1.5-0.12
		V96.86z M142.05,97.58l0.9-0.72v-7.95c-0.66-0.75-1.71-1.2-2.97-1.2c-2.4,0-3.93,2.19-3.93,5.73c0,3.33,1.32,5.37,3.12,5.37
		C139.98,98.81,141,98.42,142.05,97.58z"/>
	<path class="st0" d="M152.1,93.11c0,3.42,1.83,5.85,4.98,5.85c1.2,0,2.64-0.57,3.75-1.26l0.48,1.14c-1.44,0.99-3.33,1.83-5.25,2.37
		c-3.63,0-6.9-2.58-6.9-7.29c0-4.44,2.67-6.81,6.78-7.71c3.96,0,5.31,2.49,5.31,5.64v1.26H152.1z M158.13,91.61
		c0-2.31-0.45-3.9-2.76-3.9c-1.83,0-3,1.71-3.24,4.2L158.13,91.61z"/>
	<path class="st0" d="M166.56,100.7l-3.45,0.09l-0.15-1.05l2.1-0.3V88.49l-2.1,0.18l-0.15-1.05l3.6-0.93l1.29-0.09l0.15,2.52
		l4.44-2.91c3.84,0,4.47,1.29,4.47,4.89v8.34l2.28,0.3l-0.15,1.05l-3.45-0.09l-2.88,0.09l-0.15-1.05l1.5-0.3v-8.58
		c0-1.56-0.69-2.25-1.98-2.25c-1.05,0-2.1,0.66-3.12,1.35l-0.9,0.6v8.88l1.65,0.3l-0.15,1.05L166.56,100.7z"/>
	<path class="st0" d="M191.94,100.7l-4.14,0.09l-0.15-1.08l2.7-0.39V81.17l-2.7-0.39l0.15-1.05l4.14,0.09l4.11-0.09l0.15,1.05
		l-2.7,0.39v18.15l2.7,0.39l-0.15,1.08L191.94,100.7z"/>
	<path class="st0" d="M201.75,100.7l-3.45,0.09l-0.15-1.05l2.1-0.3V88.49l-2.1,0.18L198,87.62l3.6-0.93l1.29-0.09l0.15,2.52
		l4.44-2.91c3.84,0,4.47,1.29,4.47,4.89v8.34l2.28,0.3l-0.15,1.05l-3.45-0.09l-2.88,0.09l-0.15-1.05l1.5-0.3v-8.58
		c0-1.56-0.69-2.25-1.98-2.25c-1.05,0-2.1,0.66-3.12,1.35l-0.9,0.6v8.88l1.65,0.3l-0.15,1.05L201.75,100.7z"/>
	<path class="st0" d="M223.44,88.34c-0.3-0.18-1.2-0.66-2.28-0.66c-1.17,0-2.28,0.63-2.28,1.77c0,0.96,0.75,1.56,2.1,2.25l2.31,1.17
		c2.01,1.02,2.82,2.16,2.82,3.87c0,2.7-2.19,3.72-5.64,4.47c-1.83,0-3.78-0.9-4.56-1.35l-0.57-3.39h1.92l1.02,2.49
		c0.63,0.42,1.5,0.75,2.46,0.75c1.59,0,2.4-1.02,2.4-2.28c0-1.17-0.63-1.68-2.19-2.49l-2.37-1.23c-1.29-0.66-2.52-1.8-2.52-3.48
		c0-2.1,1.95-3.27,5.43-4.02c1.62,0,3.36,0.72,4.23,1.35v3h-1.59L223.44,88.34z"/>
	<path class="st0" d="M227.07,88.37v-0.51l1.05-1.05h1.95v-1.95l1.95-1.95h0.78v4.11h4.53v1.35h-4.5v8.79c0,0.87,0.33,1.8,1.59,1.8
		c0.87,0,1.53-0.3,2.37-0.72l0.51,1.02l-3.51,1.95c-3.36,0-3.81-1.2-3.81-3.9v-8.94H227.07z"/>
	<path class="st0" d="M242.19,100.7l-3.45,0.09l-0.15-1.05l2.1-0.3V88.49l-2.1,0.18l-0.15-1.05l3.6-0.93l1.5-0.12v12.87l2.25,0.3
		l-0.15,1.05L242.19,100.7z M240.69,80.06l2.16-0.15l0.84,0.15l0.15,1.68l-0.33,1.44l-2.13,0.18l-0.81-0.18l-0.18-1.68L240.69,80.06
		z"/>
	<path class="st0" d="M246.24,88.37v-0.51l1.05-1.05h1.95v-1.95l1.95-1.95h0.78v4.11h4.53v1.35H252v8.79c0,0.87,0.33,1.8,1.59,1.8
		c0.87,0,1.53-0.3,2.37-0.72l0.51,1.02l-3.51,1.95c-3.36,0-3.81-1.2-3.81-3.9v-8.94H246.24z"/>
	<path class="st0" d="M270.96,96.86c0,1.29,0.15,1.77,0.36,2.25h1.5l0.12,1.05l-3.87,0.75l-0.84-2.43l-4.35,2.73
		c-3.96,0-4.62-1.41-4.62-4.89v-7.83l-2.1,0.15L257,87.47l3.6-0.78l1.5-0.12v9.99c0,1.56,0.66,2.25,2.13,2.25
		c0.93,0,2.13-0.75,3.27-1.5l0.6-0.39v-8.43l-1.8,0.15l-0.15-1.17l3.3-0.78l1.5-0.12V96.86z"/>
	<path class="st0" d="M273.69,88.37v-0.51l1.05-1.05h1.95v-1.95l1.95-1.95h0.78v4.11h4.53v1.35h-4.5v8.79c0,0.87,0.33,1.8,1.59,1.8
		c0.87,0,1.53-0.3,2.37-0.72l0.51,1.02l-3.51,1.95c-3.36,0-3.81-1.2-3.81-3.9v-8.94H273.69z"/>
	<path class="st0" d="M287.3,93.11c0,3.42,1.83,5.85,4.98,5.85c1.2,0,2.64-0.57,3.75-1.26l0.48,1.14c-1.44,0.99-3.33,1.83-5.25,2.37
		c-3.63,0-6.9-2.58-6.9-7.29c0-4.44,2.67-6.81,6.78-7.71c3.96,0,5.31,2.49,5.31,5.64v1.26H287.3z M293.33,91.61
		c0-2.31-0.45-3.9-2.76-3.9c-1.83,0-3,1.71-3.24,4.2L293.33,91.61z"/>
	<path class="st0" d="M311,86.96h3.75v1.41H311v11.07l3.45,0.21l-0.15,1.14l-4.65-0.09l-3.45,0.09l-0.15-1.05l2.1-0.3V88.37h-2.64
		v-0.51l0.9-1.05h1.74v-0.3c0-1.8,0.57-2.97,1.65-4.2l2.52-2.85h3.78v2.4h-3.9l-0.57,0.81c-0.42,0.57-0.63,1.44-0.63,3.39V86.96z"/>
	<path class="st0" d="M329.96,93.41c0,4.47-2.73,7.05-7.38,7.8c-3.99,0-6.69-3.09-6.69-7.17c0-4.5,2.73-7.05,7.38-7.83
		C327.26,86.21,329.96,89.33,329.96,93.41z M323.33,99.74c2.4,0,3.63-2.46,3.63-5.7c0-3.81-1.83-6.36-4.44-6.36
		c-2.43,0-3.63,2.46-3.63,5.73C318.89,96.83,320.66,99.74,323.33,99.74z"/>
	<path class="st0" d="M336.32,90.56l3.42-4.2h2.4v3h-2.22c-0.72,0.15-2.04,1.14-2.85,2.13l-0.6,0.72v7.14l3.15,0.3l-0.15,1.14
		l-4.35-0.09l-3.36,0.09l-0.15-1.05l2.1-0.3V88.49l-2.1,0.18l-0.15-1.05l3.6-0.93l1.2-0.09L336.32,90.56z"/>
	<path class="st0" d="M369.86,94.64l-0.78,4.32c-1.62,0.78-4.77,1.98-7.29,2.34c-5.58,0-10.8-3.78-10.8-10.77
		s4.65-10.41,11.34-11.31c3.12,0,5.88,1.41,7.17,2.34v4.05h-1.65l-0.96-2.79c-0.81-0.87-2.52-2.04-4.98-2.04
		c-4.44,0-7.47,3.15-7.47,9.03c0,4.86,2.97,9.84,8.22,9.84c1.8,0,3.12-0.99,3.93-1.68l1.62-3.33H369.86z"/>
	<path class="st0" d="M386.03,93.41c0,4.47-2.73,7.05-7.38,7.8c-3.99,0-6.69-3.09-6.69-7.17c0-4.5,2.73-7.05,7.38-7.83
		C383.33,86.21,386.03,89.33,386.03,93.41z M379.4,99.74c2.4,0,3.63-2.46,3.63-5.7c0-3.81-1.83-6.36-4.44-6.36
		c-2.43,0-3.63,2.46-3.63,5.73C374.96,96.83,376.73,99.74,379.4,99.74z"/>
	<path class="st0" d="M408.38,100.7l-2.85,0.09l-0.15-1.05l1.5-0.3v-8.58c0-1.56-0.66-2.25-1.74-2.25c-0.9,0-2.01,0.6-3.06,1.35
		l-0.9,0.63v8.85l1.35,0.3l-0.15,1.05l-2.55-0.09l-2.7,0.09l-0.15-1.05l1.35-0.3v-8.58c0-1.56-0.66-2.25-1.74-2.25
		c-0.9,0-2.01,0.6-3.06,1.35l-0.9,0.63v8.85l1.5,0.3l-0.15,1.05l-2.7-0.09l-3.45,0.09l-0.15-1.05l2.1-0.3V88.49l-2.1,0.18
		l-0.15-1.05l3.6-0.93l1.29-0.09l0.15,2.49l4.14-2.88c2.91,0,3.99,0.87,4.32,2.94l4.23-2.94c3.84,0,4.47,1.44,4.47,5.25v7.98
		l2.25,0.3l-0.15,1.05L408.38,100.7z"/>
	<path class="st0" d="M418.04,100.58v5.76l3.15,0.3l-0.15,1.05l-4.35-0.09l-3.45,0.09l-0.15-1.05l2.1-0.3V88.46l-2.1,0.18
		l-0.15-1.02l3.6-0.93l1.29-0.09l0.15,2.49l3.84-2.88c3.87,0,6.12,2.64,6.12,6.99c0,5.1-3.06,7.41-7.53,8.01
		C419.57,101.21,418.73,100.97,418.04,100.58z M421.82,88.46c-0.81,0-1.77,0.54-2.88,1.38l-0.9,0.69v7.53
		c0.69,1.05,1.92,1.65,3.27,1.65c2.16,0,3.63-2.13,3.63-5.58C424.94,90.62,423.62,88.46,421.82,88.46z"/>
	<path class="st0" d="M443.03,96.86c0,1.29,0.15,1.77,0.36,2.25h1.5l0.12,1.05l-3.87,0.75l-0.84-2.43l-4.35,2.73
		c-3.96,0-4.62-1.41-4.62-4.89v-7.83l-2.1,0.15l-0.15-1.17l3.6-0.78l1.5-0.12v9.99c0,1.56,0.66,2.25,2.13,2.25
		c0.93,0,2.13-0.75,3.27-1.5l0.6-0.39v-8.43l-1.8,0.15l-0.15-1.17l3.3-0.78l1.5-0.12V96.86z"/>
	<path class="st0" d="M445.76,88.37v-0.51l1.05-1.05h1.95v-1.95l1.95-1.95h0.78v4.11h4.53v1.35h-4.5v8.79c0,0.87,0.33,1.8,1.59,1.8
		c0.87,0,1.53-0.3,2.37-0.72l0.51,1.02l-3.51,1.95c-3.36,0-3.81-1.2-3.81-3.9v-8.94H445.76z"/>
	<path class="st0" d="M463.04,86.21c3.78,0,4.74,0.96,4.74,4.77v5.88c0,1.29,0.21,1.77,0.51,2.25h1.5l0.12,1.05l-3.87,0.75
		l-0.93-2.31l-3.57,2.61c-2.58,0-4.41-1.44-4.41-3.84c0-1.08,0.39-1.86,1.05-2.76l6.75-2.25v-1.5c0-1.8-0.15-2.88-1.77-2.88
		c-0.81,0-1.8,0.27-2.46,0.54l-0.51,2.37h-2.58v-2.28L463.04,86.21z M464.93,93.56l-4.35,1.8c-0.45,0.45-0.6,1.05-0.6,1.68
		c0,1.53,0.87,2.07,1.74,2.07c0.84,0,1.56-0.51,1.95-0.78l1.26-0.87V93.56z"/>
	<path class="st0" d="M470.06,88.37v-0.51l1.05-1.05h1.95v-1.95l1.95-1.95h0.78v4.11h4.53v1.35h-4.5v8.79c0,0.87,0.33,1.8,1.59,1.8
		c0.87,0,1.53-0.3,2.37-0.72l0.51,1.02l-3.51,1.95c-3.36,0-3.81-1.2-3.81-3.9v-8.94H470.06z"/>
	<path class="st0" d="M485.18,100.7l-3.45,0.09l-0.15-1.05l2.1-0.3V88.49l-2.1,0.18l-0.15-1.05l3.6-0.93l1.5-0.12v12.87l2.25,0.3
		l-0.15,1.05L485.18,100.7z M483.68,80.06l2.16-0.15l0.84,0.15l0.15,1.68l-0.33,1.44l-2.13,0.18l-0.81-0.18l-0.18-1.68L483.68,80.06
		z"/>
	<path class="st0" d="M504.05,93.41c0,4.47-2.73,7.05-7.38,7.8c-3.99,0-6.69-3.09-6.69-7.17c0-4.5,2.73-7.05,7.38-7.83
		C501.35,86.21,504.05,89.33,504.05,93.41z M497.42,99.74c2.4,0,3.63-2.46,3.63-5.7c0-3.81-1.83-6.36-4.44-6.36
		c-2.43,0-3.63,2.46-3.63,5.73C492.98,96.83,494.75,99.74,497.42,99.74z"/>
	<path class="st0" d="M509.3,100.7l-3.45,0.09l-0.15-1.05l2.1-0.3V88.49l-2.1,0.18l-0.15-1.05l3.6-0.93l1.29-0.09l0.15,2.52
		l4.44-2.91c3.84,0,4.47,1.29,4.47,4.89v8.34l2.28,0.3l-0.15,1.05l-3.45-0.09l-2.88,0.09l-0.15-1.05l1.5-0.3v-8.58
		c0-1.56-0.69-2.25-1.98-2.25c-1.05,0-2.1,0.66-3.12,1.35l-0.9,0.6v8.88l1.65,0.3l-0.15,1.05L509.3,100.7z"/>
	<path class="st0" d="M529.1,86.21c3.78,0,4.74,0.96,4.74,4.77v5.88c0,1.29,0.21,1.77,0.51,2.25h1.5l0.12,1.05l-3.87,0.75
		l-0.93-2.31l-3.57,2.61c-2.58,0-4.41-1.44-4.41-3.84c0-1.08,0.39-1.86,1.05-2.76l6.75-2.25v-1.5c0-1.8-0.15-2.88-1.77-2.88
		c-0.81,0-1.8,0.27-2.46,0.54l-0.51,2.37h-2.58v-2.28L529.1,86.21z M530.99,93.56l-4.35,1.8c-0.45,0.45-0.6,1.05-0.6,1.68
		c0,1.53,0.87,2.07,1.74,2.07c0.84,0,1.56-0.51,1.95-0.78l1.26-0.87V93.56z"/>
	<path class="st0" d="M540.77,100.7l-3.45,0.09l-0.15-1.05l2.1-0.3V81.38l-2.1,0.06l-0.15-1.05l3.6-0.93l1.5-0.12v20.1l2.25,0.3
		l-0.15,1.05L540.77,100.7z"/>
	<path class="st0" d="M125.7,111.23l0.3,5.4h-1.02l-1.68-3.9l-7.95-0.09v7.98l4.2-0.12l1.2-3.15h1.05l-0.3,3.75l0.3,4.05h-1.05
		l-1.2-3.15l-4.2-0.12v9l8.25-0.09l2.01-4.05h1.14l-1.05,5.55l-11.91-0.09l-4.14,0.09l-0.15-1.05l2.7-0.39v-18.18l-2.7-0.39
		l0.15-1.05l4.14,0.09L125.7,111.23z"/>
	<path class="st0" d="M131.7,132.2l-3.45,0.09l-0.15-1.05l2.1-0.3v-10.95l-2.1,0.18l-0.15-1.05l3.6-0.93l1.29-0.09l0.15,2.52
		l4.44-2.91c3.84,0,4.47,1.29,4.47,4.89v8.34l2.28,0.3l-0.15,1.05l-3.45-0.09l-2.88,0.09l-0.15-1.05l1.5-0.3v-8.58
		c0-1.56-0.69-2.25-1.98-2.25c-1.05,0-2.1,0.66-3.12,1.35l-0.9,0.6v8.88l1.65,0.3l-0.15,1.05L131.7,132.2z"/>
	<path class="st0" d="M155.85,119.54l1.62-1.83h1.8v2.43h-1.8l-0.99,0.48c0.18,0.45,0.3,0.93,0.3,1.44c0,2.55-1.77,4.35-5.85,5.4
		c-0.42,0-0.81,0-1.17-0.06l-1.62,1.86c0,0.63,0.45,1.05,1.17,1.05h5.49c2.73,0,3.93,1.26,3.93,3.09c0,2.46-3.12,4.86-7.65,6.21
		c-4.35,0-6.54-1.35-6.54-4.14v-0.51l3.27-2.52c-2.1-0.78-2.25-1.74-2.25-3.12v-0.18l3-2.07c-1.89-0.66-3.12-2.1-3.12-3.96
		c0-2.55,1.74-4.35,5.85-5.4C153.24,117.71,154.89,118.4,155.85,119.54z M148.89,132.71c-1.53,1.68-1.65,2.22-1.65,2.64
		c0,1.41,1.62,2.49,4.08,2.49s4.56-1.59,4.56-3.6c0-1.08-0.81-1.53-2.85-1.53H148.89z M150.84,119.09c-1.62,0-2.55,1.26-2.55,3.18
		c0,1.44,0.63,3.78,3.09,3.78c1.62,0,2.55-1.11,2.55-2.85C153.93,121.64,153.3,119.09,150.84,119.09z"/>
	<path class="st0" d="M164.07,132.2l-3.45,0.09l-0.15-1.05l2.1-0.3v-10.95l-2.1,0.18l-0.15-1.05l3.6-0.93l1.5-0.12v12.87l2.25,0.3
		l-0.15,1.05L164.07,132.2z M162.57,111.56l2.16-0.15l0.84,0.15l0.15,1.68l-0.33,1.44l-2.13,0.18l-0.81-0.18l-0.18-1.68
		L162.57,111.56z"/>
	<path class="st0" d="M172.92,132.2l-3.45,0.09l-0.15-1.05l2.1-0.3v-10.95l-2.1,0.18l-0.15-1.05l3.6-0.93l1.29-0.09l0.15,2.52
		l4.44-2.91c3.84,0,4.47,1.29,4.47,4.89v8.34l2.28,0.3l-0.15,1.05l-3.45-0.09l-2.88,0.09l-0.15-1.05l1.5-0.3v-8.58
		c0-1.56-0.69-2.25-1.98-2.25c-1.05,0-2.1,0.66-3.12,1.35l-0.9,0.6v8.88l1.65,0.3l-0.15,1.05L172.92,132.2z"/>
	<path class="st0" d="M189.3,124.61c0,3.42,1.83,5.85,4.98,5.85c1.2,0,2.64-0.57,3.75-1.26l0.48,1.14
		c-1.44,0.99-3.33,1.83-5.25,2.37c-3.63,0-6.9-2.58-6.9-7.29c0-4.44,2.67-6.81,6.78-7.71c3.96,0,5.31,2.49,5.31,5.64v1.26H189.3z
		 M195.33,123.11c0-2.31-0.45-3.9-2.76-3.9c-1.83,0-3,1.71-3.24,4.2L195.33,123.11z"/>
	<path class="st0" d="M203.4,124.61c0,3.42,1.83,5.85,4.98,5.85c1.2,0,2.64-0.57,3.75-1.26l0.48,1.14
		c-1.44,0.99-3.33,1.83-5.25,2.37c-3.63,0-6.9-2.58-6.9-7.29c0-4.44,2.67-6.81,6.78-7.71c3.96,0,5.31,2.49,5.31,5.64v1.26H203.4z
		 M209.43,123.11c0-2.31-0.45-3.9-2.76-3.9c-1.83,0-3,1.71-3.24,4.2L209.43,123.11z"/>
	<path class="st0" d="M218.97,122.06l3.42-4.2h2.4v3h-2.22c-0.72,0.15-2.04,1.14-2.85,2.13l-0.6,0.72v7.14l3.15,0.3l-0.15,1.14
		l-4.35-0.09l-3.36,0.09l-0.15-1.05l2.1-0.3v-10.95l-2.1,0.18l-0.15-1.05l3.6-0.93l1.2-0.09L218.97,122.06z"/>
	<path class="st0" d="M229.89,132.2l-3.45,0.09l-0.15-1.05l2.1-0.3v-10.95l-2.1,0.18l-0.15-1.05l3.6-0.93l1.5-0.12v12.87l2.25,0.3
		l-0.15,1.05L229.89,132.2z M228.39,111.56l2.16-0.15l0.84,0.15l0.15,1.68l-0.33,1.44l-2.13,0.18l-0.81-0.18l-0.18-1.68
		L228.39,111.56z"/>
	<path class="st0" d="M238.74,132.2l-3.45,0.09l-0.15-1.05l2.1-0.3v-10.95l-2.1,0.18l-0.15-1.05l3.6-0.93l1.29-0.09l0.15,2.52
		l4.44-2.91c3.84,0,4.47,1.29,4.47,4.89v8.34l2.28,0.3l-0.15,1.05l-3.45-0.09l-2.88,0.09l-0.15-1.05l1.5-0.3v-8.58
		c0-1.56-0.69-2.25-1.98-2.25c-1.05,0-2.1,0.66-3.12,1.35l-0.9,0.6v8.88l1.65,0.3l-0.15,1.05L238.74,132.2z"/>
	<path class="st0" d="M262.89,119.54l1.62-1.83h1.8v2.43h-1.8l-0.99,0.48c0.18,0.45,0.3,0.93,0.3,1.44c0,2.55-1.77,4.35-5.85,5.4
		c-0.42,0-0.81,0-1.17-0.06l-1.62,1.86c0,0.63,0.45,1.05,1.17,1.05h5.49c2.73,0,3.93,1.26,3.93,3.09c0,2.46-3.12,4.86-7.65,6.21
		c-4.35,0-6.54-1.35-6.54-4.14v-0.51l3.27-2.52c-2.1-0.78-2.25-1.74-2.25-3.12v-0.18l3-2.07c-1.89-0.66-3.12-2.1-3.12-3.96
		c0-2.55,1.74-4.35,5.85-5.4C260.28,117.71,261.93,118.4,262.89,119.54z M255.93,132.71c-1.53,1.68-1.65,2.22-1.65,2.64
		c0,1.41,1.62,2.49,4.08,2.49s4.56-1.59,4.56-3.6c0-1.08-0.81-1.53-2.85-1.53H255.93z M257.88,119.09c-1.62,0-2.55,1.26-2.55,3.18
		c0,1.44,0.63,3.78,3.09,3.78c1.62,0,2.55-1.11,2.55-2.85C260.97,121.64,260.34,119.09,257.88,119.09z"/>
	<path class="st0" d="M280.47,117.71c3.78,0,4.74,0.96,4.74,4.77v5.88c0,1.29,0.21,1.77,0.51,2.25h1.5l0.12,1.05l-3.87,0.75
		l-0.93-2.31l-3.57,2.61c-2.58,0-4.41-1.44-4.41-3.84c0-1.08,0.39-1.86,1.05-2.76l6.75-2.25v-1.5c0-1.8-0.15-2.88-1.77-2.88
		c-0.81,0-1.8,0.27-2.46,0.54l-0.51,2.37h-2.58v-2.28L280.47,117.71z M282.36,125.06l-4.35,1.8c-0.45,0.45-0.6,1.05-0.6,1.68
		c0,1.53,0.87,2.07,1.74,2.07c0.84,0,1.56-0.51,1.95-0.78l1.26-0.87V125.06z"/>
	<path class="st0" d="M292.14,132.2l-3.45,0.09l-0.15-1.05l2.1-0.3v-10.95l-2.1,0.18l-0.15-1.05l3.6-0.93l1.29-0.09l0.15,2.52
		l4.44-2.91c3.84,0,4.47,1.29,4.47,4.89v8.34l2.28,0.3l-0.15,1.05l-3.45-0.09l-2.88,0.09l-0.15-1.05l1.5-0.3v-8.58
		c0-1.56-0.69-2.25-1.98-2.25c-1.05,0-2.1,0.66-3.12,1.35l-0.9,0.6v8.88l1.65,0.3l-0.15,1.05L292.14,132.2z"/>
	<path class="st0" d="M318.33,128.36c0,1.2,0.21,1.74,0.51,2.19h1.68l0.12,1.11l-4.02,0.75l-0.93-2.31l-3.87,2.61
		c-3.81,0-6.24-2.85-6.24-6.99c0-4.86,2.97-7.41,7.35-8.01c0.6,0,1.86,0.48,2.55,0.81v-5.67l-2.1,0.06l-0.15-1.02l3.6-0.93l1.5-0.12
		V128.36z M314.58,129.08l0.9-0.72v-7.95c-0.66-0.75-1.71-1.2-2.97-1.2c-2.4,0-3.93,2.19-3.93,5.73c0,3.33,1.32,5.37,3.12,5.37
		C312.51,130.31,313.53,129.92,314.58,129.08z"/>
	<path class="st0" d="M332.79,129.26c0.9,1.11,2.55,1.89,4.23,1.89c2.58,0,4.08-1.62,4.08-3.81c0-2.04-1.32-3.21-3.12-3.99
		l-3.63-1.59c-2.16-0.93-3.93-2.31-3.93-4.98c0-3.27,3-5.19,7.17-6.06c1.89,0,3.99,0.63,5.49,1.74v4.05h-1.5l-0.87-2.73
		c-0.78-0.81-1.74-1.47-3.54-1.47c-2.37,0-3.78,1.29-3.78,3.3c0,1.65,1.17,2.67,2.82,3.39l3.45,1.5c2.37,1.02,4.44,2.52,4.41,5.58
		c0,2.82-1.92,5.55-7.56,6.72c-2.76,0-4.62-0.78-6.21-2.04l-0.66-4.05h2.1L332.79,129.26z"/>
	<path class="st0" d="M354.87,119.78c-0.48-0.36-0.93-0.48-1.74-0.48c-2.04,0-3.6,2.28-3.6,5.55c0,3.21,1.74,5.61,4.68,5.61
		c1.14,0,2.34-0.57,3.39-1.26l0.48,1.14c-1.38,0.99-2.91,1.74-4.89,2.37c-3.84,0-6.69-2.52-6.69-7.14c0-4.71,3.45-6.96,7.14-7.86
		c1.38,0,3.24,0.69,4.14,1.5v3h-2.22L354.87,119.78z"/>
	<path class="st0" d="M363.48,132.2l-3.45,0.09l-0.15-1.05l2.1-0.3v-10.95l-2.1,0.18l-0.15-1.05l3.6-0.93l1.5-0.12v12.87l2.25,0.3
		l-0.15,1.05L363.48,132.2z M361.98,111.56l2.16-0.15l0.84,0.15l0.15,1.68l-0.33,1.44l-2.13,0.18l-0.81-0.18l-0.18-1.68
		L361.98,111.56z"/>
	<path class="st0" d="M371.22,124.61c0,3.42,1.83,5.85,4.98,5.85c1.2,0,2.64-0.57,3.75-1.26l0.48,1.14
		c-1.44,0.99-3.33,1.83-5.25,2.37c-3.63,0-6.9-2.58-6.9-7.29c0-4.44,2.67-6.81,6.78-7.71c3.96,0,5.31,2.49,5.31,5.64v1.26H371.22z
		 M377.25,123.11c0-2.31-0.45-3.9-2.76-3.9c-1.83,0-3,1.71-3.24,4.2L377.25,123.11z"/>
	<path class="st0" d="M385.68,132.2l-3.45,0.09l-0.15-1.05l2.1-0.3v-10.95l-2.1,0.18l-0.15-1.05l3.6-0.93l1.29-0.09l0.15,2.52
		l4.44-2.91c3.84,0,4.47,1.29,4.47,4.89v8.34l2.28,0.3l-0.15,1.05l-3.45-0.09l-2.88,0.09l-0.15-1.05l1.5-0.3v-8.58
		c0-1.56-0.69-2.25-1.98-2.25c-1.05,0-2.1,0.66-3.12,1.35l-0.9,0.6v8.88l1.65,0.3l-0.15,1.05L385.68,132.2z"/>
	<path class="st0" d="M407.64,119.78c-0.48-0.36-0.93-0.48-1.74-0.48c-2.04,0-3.6,2.28-3.6,5.55c0,3.21,1.74,5.61,4.68,5.61
		c1.14,0,2.34-0.57,3.39-1.26l0.48,1.14c-1.38,0.99-2.91,1.74-4.89,2.37c-3.84,0-6.69-2.52-6.69-7.14c0-4.71,3.45-6.96,7.14-7.86
		c1.38,0,3.24,0.69,4.14,1.5v3h-2.22L407.64,119.78z"/>
	<path class="st0" d="M415.59,124.61c0,3.42,1.83,5.85,4.98,5.85c1.2,0,2.64-0.57,3.75-1.26l0.48,1.14
		c-1.44,0.99-3.33,1.83-5.25,2.37c-3.63,0-6.9-2.58-6.9-7.29c0-4.44,2.67-6.81,6.78-7.71c3.96,0,5.31,2.49,5.31,5.64v1.26H415.59z
		 M421.62,123.11c0-2.31-0.45-3.9-2.76-3.9c-1.83,0-3,1.71-3.24,4.2L421.62,123.11z"/>
	<path class="st0" d="M434.85,119.84c-0.3-0.18-1.2-0.66-2.28-0.66c-1.17,0-2.28,0.63-2.28,1.77c0,0.96,0.75,1.56,2.1,2.25
		l2.31,1.17c2.01,1.02,2.82,2.16,2.82,3.87c0,2.7-2.19,3.72-5.64,4.47c-1.83,0-3.78-0.9-4.56-1.35l-0.57-3.39h1.92l1.02,2.49
		c0.63,0.42,1.5,0.75,2.46,0.75c1.59,0,2.4-1.02,2.4-2.28c0-1.17-0.63-1.68-2.19-2.49l-2.37-1.23c-1.29-0.66-2.52-1.8-2.52-3.48
		c0-2.1,1.95-3.27,5.43-4.02c1.62,0,3.36,0.72,4.23,1.35v3h-1.59L434.85,119.84z"/>
</g>
<g>
	<g>
		<polygon class="st1" points="74.93,72.04 74.97,72.04 74.97,72.02 74.93,72.02 74.93,72.04 		"/>
		<path class="st1" d="M80.38,67.5c-1.14-0.17-2.21-0.34-3.19-0.34c-0.52,0-0.98,0.05-1.39,0.15l-0.23-6.36v-1.05
			c0.45-0.19,0.99-0.28,1.69-0.28c0.89,0,1.9,0.15,2.98,0.31c0.95,0.14,1.92,0.28,2.92,0.34l0.27,7.6
			C82.4,67.81,81.38,67.65,80.38,67.5L80.38,67.5z M69.52,67.5c-1,0.16-2.03,0.31-3.05,0.37l0.27-7.6c1-0.06,1.97-0.2,2.92-0.34
			c1.08-0.16,2.09-0.31,2.98-0.31c0.69,0,1.24,0.09,1.68,0.28v1.05L74.1,67.3c-0.41-0.1-0.86-0.15-1.39-0.15
			C71.74,67.15,70.66,67.32,69.52,67.5L69.52,67.5z M85.68,63.01v-1.45h-0.89V59.1h-0.6c-1.27,0-2.54-0.19-3.77-0.37
			c-1.12-0.16-2.18-0.32-3.15-0.32c-0.92,0-1.68,0.14-2.31,0.44c-0.63-0.3-1.39-0.44-2.31-0.44c-0.98,0-2.04,0.16-3.16,0.32
			c-1.23,0.18-2.5,0.37-3.77,0.37h-0.6v2.47h-0.89v1.45h0.89v1.96h-0.88v1.45h0.88v2.68h0.6c1.36,0,2.7-0.21,3.99-0.41
			c1.09-0.17,2.12-0.33,3-0.33c0.71,0,1.24,0.1,1.66,0.32v0h1.16v0c0.41-0.21,0.95-0.32,1.66-0.32c0.88,0,1.91,0.16,3.01,0.33
			c1.29,0.2,2.63,0.41,3.99,0.41h0.6v-2.68h0.88v-1.45h-0.88v-1.96H85.68L85.68,63.01z"/>
		<path class="st1" d="M69.69,61.01c-0.06,0.01-0.12,0.02-0.18,0.03c-0.57,0.08-1.14,0.17-1.72,0.23l-0.03,0.97
			c0.64-0.07,1.27-0.16,1.9-0.25c0.01,0,0.03,0,0.04-0.01V61.01L69.69,61.01z"/>
		<path class="st1" d="M70.41,60.91v0.97c1.03-0.14,1.96-0.25,2.78-0.18l0.03-0.96C72.36,60.68,71.4,60.78,70.41,60.91L70.41,60.91z
			"/>
		<path class="st1" d="M69.69,65.42c-0.06,0.01-0.12,0.02-0.18,0.03c-0.62,0.09-1.25,0.18-1.88,0.25l-0.04,0.97
			c0.7-0.07,1.38-0.17,2.06-0.27c0.01,0,0.03,0,0.04-0.01V65.42L69.69,65.42z"/>
		<path class="st1" d="M70.41,65.32v0.97c0.96-0.13,1.85-0.23,2.62-0.19l0.03-0.96C72.24,65.1,71.34,65.19,70.41,65.32L70.41,65.32z
			"/>
		<path class="st1" d="M69.54,63.24v0.97c0.04-0.01,0.07-0.01,0.11-0.02c1.29-0.19,2.47-0.36,3.46-0.29l0.03-0.96
			C72.04,62.88,70.81,63.05,69.54,63.24L69.54,63.24z"/>
		<path class="st1" d="M68.82,63.34c-0.37,0.05-0.74,0.1-1.11,0.14l-0.04,0.97c0.39-0.04,0.77-0.09,1.14-0.14V63.34L68.82,63.34z"/>
		<path class="st1" d="M79.05,60.85c-0.83-0.1-1.64-0.16-2.38-0.11l0.03,0.96c0.7-0.06,1.49,0.01,2.34,0.12V60.85L79.05,60.85z"/>
		<path class="st1" d="M82.11,61.27c-0.58-0.07-1.16-0.15-1.72-0.23c-0.21-0.03-0.41-0.06-0.62-0.09v0.97
			c0.16,0.02,0.32,0.04,0.48,0.07c0.62,0.09,1.25,0.18,1.9,0.25L82.11,61.27L82.11,61.27z"/>
		<path class="st1" d="M78.85,63.04c-0.73-0.08-1.44-0.13-2.1-0.09l0.03,0.96c0.62-0.04,1.32,0.01,2.06,0.1V63.04L78.85,63.04z"/>
		<path class="st1" d="M82.19,63.49c-0.61-0.07-1.21-0.16-1.8-0.24c-0.27-0.04-0.55-0.08-0.82-0.12v0.97
			c0.22,0.03,0.45,0.06,0.68,0.1c0.65,0.1,1.31,0.19,1.98,0.26L82.19,63.49L82.19,63.49z"/>
		<path class="st1" d="M80.29,66.41c0.66,0.1,1.33,0.19,2.01,0.26l-0.03-0.97c-0.64-0.07-1.26-0.16-1.88-0.25
			c-0.03,0-0.06-0.01-0.09-0.01V66.41L80.29,66.41z"/>
		<path class="st1" d="M79.57,65.33c-0.96-0.13-1.89-0.23-2.74-0.19l0.04,0.96c0.8-0.04,1.71,0.06,2.71,0.2V65.33L79.57,65.33z"/>
		<path class="st1" d="M73.7,80.88l1.25-3.13l1.25,3.13l3.37,0.22l-2.59,2.16l0.83,3.27l-2.86-1.8l-2.86,1.8l0.83-3.27l-2.6-2.16
			L73.7,80.88L73.7,80.88z M66.06,79.77L66.06,79.77l5.45,3.96l-2.1,6.45c0,0.01,0.01,0.02,0.02,0.03c0.01,0.01,0.02,0.01,0.03,0.01
			l5.49-3.99l5.49,3.99c0.01,0,0.02,0,0.03,0c0.02-0.01,0.02-0.04,0.01-0.06l-2.09-6.43l5.44-3.96v0c0.03-0.01,0.04-0.03,0.03-0.06
			c-0.01-0.02-0.04-0.04-0.06-0.03v0h-6.73L75,73.28h0c0-0.03-0.02-0.05-0.05-0.05c-0.03,0-0.05,0.02-0.05,0.05h0l-2.08,6.4h-6.73
			l0,0c-0.03-0.01-0.05,0-0.06,0.03C66.02,79.74,66.03,79.76,66.06,79.77L66.06,79.77z"/>
		<path class="st1" d="M88.46,87.86c-0.49,0.54-1.13,0.92-1.83,1.09c0.1-0.72,0.41-1.39,0.9-1.93c0.5-0.54,1.13-0.92,1.83-1.09
			C89.27,86.65,88.96,87.32,88.46,87.86L88.46,87.86z M85.83,83.63c-0.09-0.73,0.03-1.46,0.36-2.11c0.48,0.54,0.79,1.21,0.89,1.94
			c0.1,0.72-0.03,1.46-0.36,2.1C86.24,85.02,85.93,84.35,85.83,83.63L85.83,83.63z M87.29,78.12c-0.14-0.72-0.05-1.46,0.23-2.12
			c0.51,0.51,0.86,1.17,1,1.89c0.14,0.72,0.06,1.46-0.23,2.12C87.78,79.49,87.43,78.83,87.29,78.12L87.29,78.12z M90.77,79.72
			c0.05,0.73-0.12,1.45-0.48,2.08c-0.37,0.63-0.91,1.13-1.57,1.45c-0.05-0.73,0.11-1.45,0.48-2.08
			C89.57,80.53,90.12,80.04,90.77,79.72L90.77,79.72z M85.43,93.41c-0.59,0.43-1.29,0.66-2.02,0.69c0.25-0.69,0.69-1.28,1.28-1.71
			c0.59-0.43,1.29-0.67,2.02-0.69C86.47,92.39,86.03,92.98,85.43,93.41L85.43,93.41z M83.73,88.72c0.06-0.73,0.33-1.42,0.79-1.99
			c0.36,0.63,0.52,1.35,0.47,2.08c-0.06,0.73-0.33,1.42-0.79,1.99C83.84,90.18,83.67,89.46,83.73,88.72L83.73,88.72z M81.83,93.63
			c-0.21,0.7-0.62,1.32-1.18,1.78c-0.22-0.69-0.23-1.43-0.03-2.13c0.21-0.71,0.62-1.32,1.18-1.78
			C82.03,92.19,82.04,92.93,81.83,93.63L81.83,93.63z M82.93,96.81c-0.38,0.62-0.94,1.11-1.61,1.41c-0.46,0.21-0.96,0.31-1.47,0.31
			l0,0c-0.22,0-0.44-0.02-0.65-0.06c0.38-0.62,0.94-1.11,1.61-1.41C81.48,96.77,82.22,96.68,82.93,96.81L82.93,96.81z M76.64,97.1
			c0.35-0.65,0.88-1.17,1.52-1.5c0.07,0.72-0.07,1.45-0.42,2.09c-0.34,0.64-0.87,1.16-1.52,1.5C76.16,98.47,76.3,97.74,76.64,97.1
			L76.64,97.1z M68.51,98.22c-0.67-0.3-1.23-0.79-1.61-1.41c0.71-0.13,1.45-0.04,2.12,0.26c0.67,0.3,1.22,0.79,1.61,1.41
			C69.91,98.6,69.17,98.51,68.51,98.22L68.51,98.22z M68,93.63c-0.21-0.7-0.2-1.45,0.03-2.13c0.56,0.46,0.97,1.07,1.18,1.78
			c0.21,0.71,0.19,1.45-0.03,2.13C68.61,94.95,68.2,94.33,68,93.63L68,93.63z M71.66,95.6c0.64,0.33,1.17,0.85,1.52,1.5
			c0.35,0.65,0.49,1.38,0.41,2.1c-0.64-0.34-1.17-0.86-1.52-1.5C71.73,97.04,71.59,96.31,71.66,95.6L71.66,95.6z M64.39,93.41
			c-0.59-0.43-1.04-1.02-1.28-1.71c0.73,0.02,1.42,0.25,2.02,0.69c0.59,0.43,1.04,1.02,1.28,1.71
			C65.68,94.08,64.99,93.84,64.39,93.41L64.39,93.41z M65.31,86.74c0.45,0.57,0.73,1.25,0.79,1.99c0.06,0.73-0.11,1.45-0.47,2.08
			c-0.46-0.57-0.73-1.26-0.79-1.99C64.79,88.09,64.95,87.37,65.31,86.74L65.31,86.74z M61.36,87.86c-0.49-0.54-0.8-1.22-0.9-1.94
			c0.7,0.17,1.34,0.54,1.83,1.09c0.49,0.54,0.8,1.21,0.9,1.93C62.49,88.78,61.85,88.4,61.36,87.86L61.36,87.86z M61.11,83.25
			c-0.65-0.31-1.2-0.81-1.57-1.45c-0.37-0.63-0.54-1.36-0.48-2.08c0.65,0.31,1.2,0.81,1.57,1.44C61,81.8,61.16,82.52,61.11,83.25
			L61.11,83.25z M61.31,77.88c0.14-0.72,0.49-1.37,1-1.88c0.29,0.67,0.37,1.4,0.23,2.12c-0.14,0.72-0.49,1.37-1,1.89
			C61.25,79.33,61.17,78.6,61.31,77.88L61.31,77.88z M62.75,83.46c0.1-0.73,0.41-1.4,0.89-1.94c0.33,0.65,0.45,1.38,0.36,2.11
			c-0.1,0.73-0.41,1.4-0.89,1.94C62.78,84.92,62.66,84.19,62.75,83.46L62.75,83.46z M88.47,84.37c1.12-0.34,2.06-1.08,2.65-2.08
			c0.59-1.01,0.77-2.19,0.51-3.33l-0.11-0.5l-0.49,0.15c-0.57,0.17-1.09,0.44-1.54,0.8c0.11-0.56,0.1-1.14-0.01-1.71
			c-0.22-1.15-0.86-2.16-1.81-2.85l-0.42-0.3l-0.27,0.44c-0.62,0.99-0.84,2.17-0.62,3.32c0.22,1.14,0.86,2.15,1.8,2.84
			c-0.17,0.39-0.29,0.8-0.35,1.23c-0.28-0.76-0.75-1.45-1.39-1.97L86,80.06l-0.3,0.42c-0.68,0.95-0.97,2.11-0.82,3.27
			c0.15,1.16,0.73,2.21,1.64,2.95l0.02,0.01c-0.27,0.36-0.47,0.75-0.62,1.17c-0.11-0.8-0.44-1.57-0.96-2.22l-0.32-0.41l-0.38,0.35
			c-0.86,0.79-1.39,1.87-1.48,3.03c-0.09,1.16,0.26,2.31,0.99,3.22l0.02,0.02c-0.33,0.29-0.62,0.64-0.85,1.02
			c0.05-0.81-0.1-1.63-0.47-2.37l-0.23-0.46l-0.44,0.26c-1.01,0.59-1.74,1.54-2.08,2.66c-0.33,1.12-0.22,2.31,0.3,3.36l0.01,0.03
			c-0.39,0.22-0.74,0.5-1.04,0.82c0.22-0.78,0.23-1.62,0.02-2.42l-0.13-0.5l-0.49,0.16c-1.11,0.38-2.02,1.15-2.58,2.18
			c-0.53,0.99-0.68,2.14-0.42,3.24c-0.15,0.1-0.3,0.21-0.46,0.32c-0.16-0.11-0.32-0.21-0.46-0.32c0.26-1.1,0.12-2.25-0.42-3.24
			c-0.56-1.03-1.47-1.8-2.58-2.18l-0.49-0.16l-0.13,0.5c-0.21,0.8-0.2,1.63,0.02,2.42c-0.31-0.32-0.66-0.6-1.04-0.82l0.01-0.03
			c0.52-1.05,0.63-2.24,0.3-3.36c-0.33-1.12-1.07-2.07-2.08-2.66l-0.44-0.26l-0.23,0.46c-0.37,0.74-0.53,1.56-0.47,2.37
			c-0.23-0.38-0.52-0.72-0.85-1.02l0.02-0.02c0.73-0.92,1.08-2.06,0.99-3.23c-0.09-1.17-0.62-2.24-1.48-3.03l-0.38-0.35l-0.32,0.41
			c-0.52,0.65-0.84,1.42-0.96,2.22c-0.15-0.42-0.36-0.81-0.62-1.17l0.02-0.01c0.9-0.75,1.48-1.8,1.64-2.95
			c0.15-1.16-0.14-2.32-0.82-3.27l-0.3-0.42l-0.4,0.33c-0.64,0.53-1.12,1.21-1.39,1.97c-0.06-0.42-0.17-0.84-0.35-1.23
			c0.94-0.69,1.58-1.7,1.8-2.84c0.22-1.15,0-2.33-0.62-3.32l-0.27-0.44l-0.42,0.3c-0.95,0.69-1.59,1.7-1.81,2.85
			c-0.11,0.57-0.11,1.15-0.01,1.71c-0.45-0.36-0.98-0.63-1.54-0.8l-0.49-0.15l-0.11,0.5c-0.26,1.14-0.08,2.33,0.51,3.33
			c0.59,1.01,1.53,1.75,2.65,2.08l0.44,0.13c0.04,0.37,0.14,0.73,0.27,1.07c-0.62-0.4-1.33-0.64-2.08-0.7l-0.51-0.04l-0.01,0.52
			c-0.02,1.17,0.41,2.29,1.19,3.16c0.78,0.87,1.86,1.39,3.02,1.49l0.45,0.04c0.12,0.35,0.28,0.68,0.48,0.99
			c-0.51-0.19-1.04-0.29-1.6-0.29c-0.2,0-0.39,0.01-0.58,0.04l-0.51,0.07l0.1,0.5c0.23,1.15,0.87,2.16,1.81,2.85
			c0.78,0.57,1.72,0.87,2.69,0.87c0.19,0,0.38-0.01,0.57-0.04l0.45-0.06c0.19,0.32,0.42,0.61,0.68,0.87
			c-0.73-0.11-1.48-0.04-2.19,0.2l-0.49,0.17l0.2,0.47c0.46,1.08,1.3,1.93,2.36,2.41c0.59,0.26,1.22,0.4,1.86,0.4
			c0.51,0,1.02-0.09,1.51-0.25l0.36-0.12c0.6,0.51,1.28,1.02,2.21,1.66c-0.43,0.28-0.89,0.59-1.42,0.92l0.91,0.56
			c0.51-0.33,0.96-0.63,1.38-0.9c0.41,0.28,0.87,0.57,1.38,0.9l0.91-0.56c-0.52-0.34-0.99-0.64-1.42-0.92
			c0.93-0.64,1.61-1.15,2.21-1.66l0.36,0.12c0.49,0.17,0.99,0.25,1.51,0.25l0,0c0.64,0,1.27-0.13,1.86-0.39
			c1.06-0.48,1.9-1.33,2.36-2.41l0.2-0.47l-0.49-0.17c-0.71-0.25-1.46-0.31-2.19-0.2c0.26-0.26,0.49-0.56,0.68-0.88l0.45,0.06
			c0.19,0.02,0.38,0.04,0.57,0.04c0,0,0,0,0,0c0.97,0,1.9-0.3,2.69-0.87c0.94-0.69,1.59-1.7,1.81-2.85l0.1-0.5l-0.51-0.07
			c-0.19-0.02-0.39-0.04-0.58-0.04c-0.55,0-1.09,0.1-1.6,0.29c0.2-0.31,0.37-0.64,0.49-0.99L86.16,90c1.17-0.1,2.24-0.63,3.02-1.49
			c0.78-0.86,1.2-1.98,1.19-3.16l-0.01-0.52l-0.51,0.04c-0.75,0.06-1.46,0.3-2.08,0.7c0.13-0.35,0.22-0.71,0.27-1.07L88.47,84.37
			L88.47,84.37z"/>
		<path class="st1" d="M88.59,94.55c-0.98,1.44-2.1,2.77-3.46,4.06c-4.18,3.84-8.87,5.96-10.19,6.51
			c-1.32-0.55-6.01-2.67-10.19-6.51c-1.35-1.3-2.48-2.63-3.46-4.06c-4.74-6.95-5.37-15-5.37-21.26l0,0l19.02-1.06l19.01,1.06
			C93.96,79.55,93.33,87.61,88.59,94.55L88.59,94.55z M56.94,57.13c3.54-0.39,11.48-1.18,18.01-1.18c6.52,0,14.47,0.79,18.01,1.18
			l0.99,13.93h-19h-19L56.94,57.13L56.94,57.13z M95.89,55.52l-0.84-0.11C94.93,55.4,83.7,54,74.96,54c0,0,0,0-0.01,0
			c0,0,0,0-0.01,0c-8.75,0-19.98,1.4-20.09,1.41l-0.84,0.11v15.54H54v2.17c0,6.55,0.65,15.01,5.71,22.42
			c1.04,1.53,2.23,2.93,3.65,4.3l0,0c0.01,0.01,0.02,0.02,0.03,0.02c2.74,2.64,6.37,5.13,11.56,8.02V108c0,0,0,0,0,0c0,0,0,0,0,0
			v-0.01c5.19-2.89,8.81-5.38,11.56-8.02c0.01-0.01,0.02-0.02,0.03-0.02v0c1.42-1.37,2.6-2.78,3.65-4.3
			c5.06-7.41,5.71-15.87,5.71-22.42v-0.31l0,0V55.52L95.89,55.52z"/>
	</g>
	<g>
		<path class="st1" d="M125.94,71.07l-1.88,0.06l-0.1-0.7l0.98-0.2v-5.72c0-1.04-0.48-1.5-1.28-1.5c-0.6,0-1.38,0.44-2.12,0.9
			l-0.6,0.38v5.94l1.1,0.2l-0.1,0.7l-1.9-0.06l-2.1,0.06l-0.1-0.7l1.2-0.2V57.99l-0.72,0.12l-4.06-0.06v12.12l2.3,0.26l-0.1,0.7
			l-3.24-0.06l-3.36,0.06l-0.1-0.7l2.4-0.26V58.05l-3,0.06l-0.92,2.5h-0.78v-3.54l5.74,0.04l4.92-0.04l2.14-0.24h0.68v6.48l2.92-1.9
			c2.56,0,2.98,0.96,2.98,3.5v5.32l1.5,0.2l-0.1,0.7L125.94,71.07z"/>
		<path class="st1" d="M131.14,66.01c0,2.28,1.22,3.9,3.32,3.9c0.8,0,1.76-0.38,2.5-0.84l0.32,0.76c-0.96,0.66-2.22,1.22-3.5,1.58
			c-2.42,0-4.6-1.72-4.6-4.86c0-2.96,1.78-4.54,4.52-5.14c2.64,0,3.54,1.66,3.54,3.76v0.84H131.14z M135.16,65.01
			c0-1.54-0.3-2.6-1.84-2.6c-1.22,0-2,1.14-2.16,2.8L135.16,65.01z"/>
		<path class="st1" d="M151.06,57.79l0.1-0.7l2.56,0.06l2.34-0.06l0.1,0.7l-1.7,0.26v8.16c0,2.6-1.06,4.34-5.04,5.26
			c-3.94,0-5.34-2.12-5.34-5.3v-8.12l-1.8-0.26l0.1-0.7l2.76,0.06l2.74-0.06l0.1,0.7l-1.7,0.26v8.42c0,2.48,1.06,3.9,3.34,3.9
			c2.08,0,3.24-1.4,3.24-3.96v-8.36L151.06,57.79z"/>
		<path class="st1" d="M158.86,71.07l-2.3,0.06l-0.1-0.7l1.4-0.2v-7.3l-1.4,0.12l-0.1-0.7l2.4-0.62l0.86-0.06l0.1,1.68l2.96-1.94
			c2.56,0,2.98,0.86,2.98,3.26v5.56l1.52,0.2l-0.1,0.7l-2.3-0.06l-1.92,0.06l-0.1-0.7l1-0.2v-5.72c0-1.04-0.46-1.5-1.32-1.5
			c-0.7,0-1.4,0.44-2.08,0.9l-0.6,0.4v5.92l1.1,0.2l-0.1,0.7L158.86,71.07z"/>
		<path class="st1" d="M170.32,71.07l-2.3,0.06l-0.1-0.7l1.4-0.2v-7.3l-1.4,0.12l-0.1-0.7l2.4-0.62l1-0.08v8.58l1.5,0.2l-0.1,0.7
			L170.32,71.07z M169.32,57.31l1.44-0.1l0.56,0.1l0.1,1.12l-0.22,0.96l-1.42,0.12l-0.54-0.12l-0.12-1.12L169.32,57.31z"/>
		<path class="st1" d="M178.34,69.83l2.42-7.24l-0.92-0.2l0.1-0.7l1.76,0.06l1.66-0.06l0.1,0.7l-1.28,0.2l-3.28,8.22l-1.46,0.6
			l-3.48-8.82l-1.24-0.2l0.1-0.7l2.3,0.06l2.1-0.06l0.1,0.7l-1.32,0.2l2.18,5.86L178.34,69.83z"/>
		<path class="st1" d="M185.42,66.01c0,2.28,1.22,3.9,3.32,3.9c0.8,0,1.76-0.38,2.5-0.84l0.32,0.76c-0.96,0.66-2.22,1.22-3.5,1.58
			c-2.42,0-4.6-1.72-4.6-4.86c0-2.96,1.78-4.54,4.52-5.14c2.64,0,3.54,1.66,3.54,3.76v0.84H185.42z M189.44,65.01
			c0-1.54-0.3-2.6-1.84-2.6c-1.22,0-2,1.14-2.16,2.8L189.44,65.01z"/>
		<path class="st1" d="M196,64.31l2.28-2.8h1.6v2h-1.48c-0.48,0.1-1.36,0.76-1.9,1.42l-0.4,0.48v4.76l2.1,0.2l-0.1,0.76l-2.9-0.06
			l-2.24,0.06l-0.1-0.7l1.4-0.2v-7.3l-1.4,0.12l-0.1-0.7l2.4-0.62l0.8-0.06L196,64.31z"/>
		<path class="st1" d="M206.18,62.83c-0.2-0.12-0.8-0.44-1.52-0.44c-0.78,0-1.52,0.42-1.52,1.18c0,0.64,0.5,1.04,1.4,1.5l1.54,0.78
			c1.34,0.68,1.88,1.44,1.88,2.58c0,1.8-1.46,2.48-3.76,2.98c-1.22,0-2.52-0.6-3.04-0.9l-0.38-2.26h1.28l0.68,1.66
			c0.42,0.28,1,0.5,1.64,0.5c1.06,0,1.6-0.68,1.6-1.52c0-0.78-0.42-1.12-1.46-1.66l-1.58-0.82c-0.86-0.44-1.68-1.2-1.68-2.32
			c0-1.4,1.3-2.18,3.62-2.68c1.08,0,2.24,0.48,2.82,0.9v2h-1.06L206.18,62.83z"/>
		<path class="st1" d="M211.7,71.07l-2.3,0.06l-0.1-0.7l1.4-0.2v-7.3l-1.4,0.12l-0.1-0.7l2.4-0.62l1-0.08v8.58l1.5,0.2l-0.1,0.7
			L211.7,71.07z M210.7,57.31l1.44-0.1l0.56,0.1l0.1,1.12l-0.22,0.96l-1.42,0.12l-0.54-0.12l-0.12-1.12L210.7,57.31z"/>
		<path class="st1" d="M221.62,75.82v-2h1.72l1.98-3.02l-0.8,0.24l-3.36-8.42h-3.02v6.1c0,0.58,0.22,1.2,1.06,1.2
			c0.58,0,1.2-0.28,1.76-0.56l0.34,0.68l-2.52,1.38c-2.24,0-2.54-0.8-2.54-2.6v-5.96h-1.94v-0.34l0.7-0.7h1.3v-1.3l1.3-1.3h0.52v2.5
			h6.3l0.1,0.68l-1.32,0.2l2.22,5.86l0.16,1.38l2.48-7.24l-0.92-0.2l0.1-0.7l1.76,0.06l1.66-0.06l0.1,0.7l-1.28,0.2l-3.24,8.18
			L224,75.82H221.62z"/>
		<path class="st1" d="M243.94,66.21c0,2.98-1.82,4.7-4.92,5.2c-2.66,0-4.46-2.06-4.46-4.78c0-3,1.82-4.7,4.92-5.22
			C242.14,61.41,243.94,63.49,243.94,66.21z M239.52,70.43c1.6,0,2.42-1.64,2.42-3.8c0-2.54-1.22-4.24-2.96-4.24
			c-1.62,0-2.42,1.64-2.42,3.82C236.56,68.49,237.74,70.43,239.52,70.43z"/>
		<path class="st1" d="M248.44,61.91h2.5v0.94h-2.5v7.38l2.3,0.14l-0.1,0.76l-3.1-0.06l-2.3,0.06l-0.1-0.7l1.4-0.2v-7.38h-1.76
			v-0.34l0.6-0.7h1.16v-0.2c0-1.2,0.38-1.98,1.1-2.8l1.68-1.9h2.52v1.6h-2.6l-0.38,0.54c-0.28,0.38-0.42,0.96-0.42,2.26V61.91z"/>
		<path class="st1" d="M266.24,71.13L263,71.07l-3.36,0.06l-0.1-0.7l2.4-0.26V58.05l-3,0.04l-0.92,2.54h-0.78v-3.54l5.74,0.06
			l5.76-0.06v3.54h-0.78l-0.92-2.54l-3-0.04v12.12l2.3,0.26L266.24,71.13z"/>
		<path class="st1" d="M269.79,66.01c0,2.28,1.22,3.9,3.32,3.9c0.8,0,1.76-0.38,2.5-0.84l0.32,0.76c-0.96,0.66-2.22,1.22-3.5,1.58
			c-2.42,0-4.6-1.72-4.6-4.86c0-2.96,1.78-4.54,4.52-5.14c2.64,0,3.54,1.66,3.54,3.76v0.84H269.79z M273.82,65.01
			c0-1.54-0.3-2.6-1.84-2.6c-1.22,0-2,1.14-2.16,2.8L273.82,65.01z"/>
		<path class="st1" d="M280.46,70.43l-0.1,0.7l-1.56-0.06l-2.06,0.06l-0.1-0.7l1.4-0.2l2.96-3.64l-2.9-3.98l-1.24-0.2l0.1-0.72
			l2.3,0.06l1.9-0.06l0.1,0.72l-0.78,0.2l1.48,2.22l0.16,0.52l1.9-2.74l-0.98-0.2l0.1-0.72l1.56,0.06l2.06-0.06l0.1,0.72l-1.44,0.2
			l-2.64,3.2l3.14,4.42l1.24,0.2l-0.1,0.7l-2.3-0.06l-1.9,0.06l-0.1-0.7l0.82-0.2l-1.78-2.58l-0.16-0.46l-2.12,3.04L280.46,70.43z"
			/>
		<path class="st1" d="M291.79,61.41c2.52,0,3.16,0.64,3.16,3.18v3.92c0,0.86,0.14,1.18,0.34,1.5h1l0.08,0.7l-2.58,0.5l-0.62-1.54
			l-2.38,1.74c-1.72,0-2.94-0.96-2.94-2.56c0-0.72,0.26-1.24,0.7-1.84l4.5-1.5v-1c0-1.2-0.1-1.92-1.18-1.92
			c-0.54,0-1.2,0.18-1.64,0.36l-0.34,1.58h-1.72v-1.52L291.79,61.41z M293.06,66.31l-2.9,1.2c-0.3,0.3-0.4,0.7-0.4,1.12
			c0,1.02,0.58,1.38,1.16,1.38c0.56,0,1.04-0.34,1.3-0.52l0.84-0.58V66.31z"/>
		<path class="st1" d="M302.58,62.83c-0.2-0.12-0.8-0.44-1.52-0.44c-0.78,0-1.52,0.42-1.52,1.18c0,0.64,0.5,1.04,1.4,1.5l1.54,0.78
			c1.34,0.68,1.88,1.44,1.88,2.58c0,1.8-1.46,2.48-3.76,2.98c-1.22,0-2.52-0.6-3.04-0.9l-0.38-2.26h1.28l0.68,1.66
			c0.42,0.28,1,0.5,1.64,0.5c1.06,0,1.6-0.68,1.6-1.52c0-0.78-0.42-1.12-1.46-1.66l-1.58-0.82c-0.86-0.44-1.68-1.2-1.68-2.32
			c0-1.4,1.3-2.18,3.62-2.68c1.08,0,2.24,0.48,2.82,0.9v2h-1.06L302.58,62.83z"/>
		<path class="st1" d="M314.44,61.41c2.52,0,3.16,0.64,3.16,3.18v3.92c0,0.86,0.14,1.18,0.34,1.5h1l0.08,0.7l-2.58,0.5l-0.62-1.54
			l-2.38,1.74c-1.72,0-2.94-0.96-2.94-2.56c0-0.72,0.26-1.24,0.7-1.84l4.5-1.5v-1c0-1.2-0.1-1.92-1.18-1.92
			c-0.54,0-1.2,0.18-1.64,0.36l-0.34,1.58h-1.72v-1.52L314.44,61.41z M315.7,66.31l-2.9,1.2c-0.3,0.3-0.4,0.7-0.4,1.12
			c0,1.02,0.58,1.38,1.16,1.38c0.56,0,1.04-0.34,1.3-0.52l0.84-0.58V66.31z"/>
		<path class="st1" d="M318.91,62.85v-0.34l0.7-0.7h1.3v-1.3l1.3-1.3h0.52v2.74h3.02v0.9h-3v5.86c0,0.58,0.22,1.2,1.06,1.2
			c0.58,0,1.02-0.2,1.58-0.48l0.34,0.68l-2.34,1.3c-2.24,0-2.54-0.8-2.54-2.6v-5.96H318.91z"/>
		<path class="st1" d="M334.2,66.43l-1.3,3.74l1.74,0.26l-0.1,0.7l-2.4-0.06l-2.14,0.06l-0.1-0.7l1.56-0.22l4.96-12.96l1.2-0.34
			l5.22,13.3l1.56,0.22l-0.1,0.7l-2.76-0.06l-2.64,0.06l-0.1-0.7l1.7-0.26l-1.36-3.74H334.2z M336.86,60.21l-0.14-1.08l-2.2,6.36
			h4.26L336.86,60.21z"/>
		<path class="st1" d="M352.9,68.51c0,0.86,0.1,1.18,0.24,1.5h1l0.08,0.7l-2.58,0.5l-0.56-1.62l-2.9,1.82
			c-2.64,0-3.08-0.94-3.08-3.26v-5.22l-1.4,0.1l-0.1-0.78l2.4-0.52l1-0.08v6.66c0,1.04,0.44,1.5,1.42,1.5c0.62,0,1.42-0.5,2.18-1
			l0.4-0.26v-5.62l-1.2,0.1l-0.1-0.78l2.2-0.52l1-0.08V68.51z"/>
		<path class="st1" d="M360.52,62.83c-0.2-0.12-0.8-0.44-1.52-0.44c-0.78,0-1.52,0.42-1.52,1.18c0,0.64,0.5,1.04,1.4,1.5l1.54,0.78
			c1.34,0.68,1.88,1.44,1.88,2.58c0,1.8-1.46,2.48-3.76,2.98c-1.22,0-2.52-0.6-3.04-0.9l-0.38-2.26h1.28l0.68,1.66
			c0.42,0.28,1,0.5,1.64,0.5c1.06,0,1.6-0.68,1.6-1.52c0-0.78-0.42-1.12-1.46-1.66l-1.58-0.82c-0.86-0.44-1.68-1.2-1.68-2.32
			c0-1.4,1.3-2.18,3.62-2.68c1.08,0,2.24,0.48,2.82,0.9v2h-1.06L360.52,62.83z"/>
		<path class="st1" d="M362.93,62.85v-0.34l0.7-0.7h1.3v-1.3l1.3-1.3h0.52v2.74h3.02v0.9h-3v5.86c0,0.58,0.22,1.2,1.06,1.2
			c0.58,0,1.02-0.2,1.58-0.48l0.34,0.68l-2.34,1.3c-2.24,0-2.54-0.8-2.54-2.6v-5.96H362.93z"/>
		<path class="st1" d="M373.31,71.07l-2.3,0.06l-0.1-0.7l1.4-0.2v-7.3l-1.4,0.12l-0.1-0.7l2.4-0.62l1-0.08v8.58l1.5,0.2l-0.1,0.7
			L373.31,71.07z M372.31,57.31l1.44-0.1l0.56,0.1l0.1,1.12l-0.22,0.96l-1.42,0.12l-0.54-0.12l-0.12-1.12L372.31,57.31z"/>
		<path class="st1" d="M379.01,71.07l-2.3,0.06l-0.1-0.7l1.4-0.2v-7.3l-1.4,0.12l-0.1-0.7l2.4-0.62l0.86-0.06l0.1,1.68l2.96-1.94
			c2.56,0,2.98,0.86,2.98,3.26v5.56l1.52,0.2l-0.1,0.7l-2.3-0.06l-1.92,0.06l-0.1-0.7l1-0.2v-5.72c0-1.04-0.46-1.5-1.32-1.5
			c-0.7,0-1.4,0.44-2.08,0.9l-0.6,0.4v5.92l1.1,0.2l-0.1,0.7L379.01,71.07z"/>
	</g>
</g>
</svg>
