<svg xmlns="http://www.w3.org/2000/svg" xmlns:xlink="http://www.w3.org/1999/xlink" version="1.1" width="121.06pt" height="17.33pt" viewBox="0 0 121.06 17.33">
<defs>
<path id="font_0_49" d="M.3619995 .6748047C.1659851 .6748047 .056991579 .5627899 .056991579 .33589173 .056991579 .10998535 .16499329 0 .3619995 0H.45399476C.651001 0 .7589874 .10998535 .7589874 .33589173 .7589874 .5627899 .6499939 .6748047 .45399476 .6748047H.3619995M.45399476 .5567932C.58399966 .5567932 .6399994 .49082948 .6399994 .3368988 .6399994 .18196106 .58399966 .117996219 .45399476 .117996219H.3619995C.23098755 .117996219 .1749878 .18196106 .1749878 .33589173 .1749878 .49082948 .23199463 .5567932 .3619995 .5567932H.45399476Z"/>
<path id="font_0_50" d="M.07998657 .6748047V.5567932H.43099977C.49499513 .5567932 .5239868 .5158539 .5239868 .4669037 .5239868 .41996766 .49699403 .37402345 .42999269 .37402345H.18699646C.11299133 .37402345 .08099365 .34301759 .08099365 .26701356V0H.19898987V.24401856C.19898987 .25601197 .20498657 .26101686 .21598816 .26101686H.42599488C.58399966 .26101686 .6429901 .37101747 .6429901 .4729004 .6429901 .5807953 .5779877 .6748047 .42599488 .6748047H.07998657Z"/>
<path id="font_0_54" d="M.0289917 .6748047V.5567932H.22599793V0H.34498597V.5567932H.5419922V.6748047H.0289917Z"/>
<path id="font_0_43" d="M.08198547 .6748047V0H.19999695V.6748047H.08198547Z"/>
<path id="font_0_47" d="M.19799805 .5295868C.19799805 .555542 .21499634 .57250979 .24598694 .57250979 .272995 .57250979 .28799439 .558548 .29299928 .5365753L.3889923 .12423706C.40899659 .03727722 .45799256-.01171875 .5519867-.01171875 .644989-.01171875 .69099429 .03527832 .71199038 .12423706L.8089905 .5365753C.81399539 .558548 .8279877 .57250979 .85598757 .57250979 .8869934 .57250979 .9039917 .555542 .9039917 .5295868V0H1.0209961V.535553C1.0209961 .6255188 .96798709 .68652346 .85899356 .68652346 .7619934 .68652346 .71199038 .6385193 .69299319 .55352786L.59799197 .14086914C.59199526 .117248538 .5779877 .103271488 .5529938 .103271488 .5279999 .103271488 .5139923 .117248538 .5079956 .1412201L.41299439 .5535431C.3939972 .6385193 .33898927 .68652346 .24299622 .68652346 .13398743 .68652346 .08099365 .6255188 .08099365 .5355835V0H.19799805V.5295868Z"/>
<path id="font_0_55" d="M.07699585 .6748047V.21495056C.07699585 .07299805 .15098572 0 .29499818 0H.43699647C.58099368 0 .6559906 .07299805 .6559906 .21495056V.6748047H.5399933V.22395325C.5399933 .15698242 .5049896 .117996219 .42900086 .117996219H.30899049C.23098755 .117996219 .19699097 .15698242 .19699097 .22395325V.6748047H.07699585Z"/>
<path id="font_0_53" d="M.26098634 .6748047C.11099243 .6748047 .050994874 .59280398 .050994874 .48095704 .050994874 .38713075 .09298706 .2861328 .272995 .2861328H.42999269C.5130005 .2861328 .5359955 .24609375 .5359955 .20205689 .5359955 .15301514 .5069885 .117996219 .44299317 .117996219H.06298828V0H.43899537C.59298709 0 .6539917 .083999637 .6539917 .19805908 .6539917 .29512025 .61099246 .39712525 .4269867 .39712525H.2689972C.18998719 .39712525 .16899109 .43605042 .16899109 .47695924 .16899109 .52386477 .19599915 .5567932 .25698854 .5567932H.6029968V.6748047H.26098634Z"/>
</defs>
<use data-text="O" xlink:href="#font_0_49" transform="matrix(24.7871,0,0,-24.7871,0,17.032998)"/>
<use data-text="P" xlink:href="#font_0_50" transform="matrix(24.7871,0,0,-24.7871,20.226273,17.032998)"/>
<use data-text="T" xlink:href="#font_0_54" transform="matrix(24.7871,0,0,-24.7871,37.056715,17.032998)"/>
<use data-text="I" xlink:href="#font_0_43" transform="matrix(24.7871,0,0,-24.7871,51.210149,17.032998)"/>
<use data-text="M" xlink:href="#font_0_47" transform="matrix(24.7871,0,0,-24.7871,58.175325,17.032998)"/>
<use data-text="U" xlink:href="#font_0_55" transform="matrix(24.7871,0,0,-24.7871,85.49071,17.032998)"/>
<use data-text="S" xlink:href="#font_0_53" transform="matrix(24.7871,0,0,-24.7871,103.634868,17.032998)"/>
</svg>
