<svg xmlns="http://www.w3.org/2000/svg" xmlns:xlink="http://www.w3.org/1999/xlink" version="1.1" viewBox="1.36 0.01 118.48 25.07">
<defs>
<path id="font_0_49" d="M.3619995 .6748047C.1659851 .6748047 .056991579 .5627899 .056991579 .33589173 .056991579 .10998535 .16499329 0 .3619995 0H.45399476C.651001 0 .7589874 .10998535 .7589874 .33589173 .7589874 .5627899 .6499939 .6748047 .45399476 .6748047H.3619995M.45399476 .5567932C.58399966 .5567932 .6399994 .49082948 .6399994 .3368988 .6399994 .18196106 .58399966 .117996219 .45399476 .117996219H.3619995C.23098755 .117996219 .1749878 .18196106 .1749878 .33589173 .1749878 .49082948 .23199463 .5567932 .3619995 .5567932H.45399476Z"/>
<path id="font_0_50" d="M.07998657 .6748047V.5567932H.43099977C.49499513 .5567932 .5239868 .5158539 .5239868 .4669037 .5239868 .41996766 .49699403 .37402345 .42999269 .37402345H.18699646C.11299133 .37402345 .08099365 .34301759 .08099365 .26701356V0H.19898987V.24401856C.19898987 .25601197 .20498657 .26101686 .21598816 .26101686H.42599488C.58399966 .26101686 .6429901 .37101747 .6429901 .4729004 .6429901 .5807953 .5779877 .6748047 .42599488 .6748047H.07998657Z"/>
<path id="font_0_54" d="M.0289917 .6748047V.5567932H.22599793V0H.34498597V.5567932H.5419922V.6748047H.0289917Z"/>
<path id="font_0_43" d="M.08198547 .6748047V0H.19999695V.6748047H.08198547Z"/>
<path id="font_0_47" d="M.19799805 .5295868C.19799805 .555542 .21499634 .57250979 .24598694 .57250979 .272995 .57250979 .28799439 .558548 .29299928 .5365753L.3889923 .12423706C.40899659 .03727722 .45799256-.01171875 .5519867-.01171875 .644989-.01171875 .69099429 .03527832 .71199038 .12423706L.8089905 .5365753C.81399539 .558548 .8279877 .57250979 .85598757 .57250979 .8869934 .57250979 .9039917 .555542 .9039917 .5295868V0H1.0209961V.535553C1.0209961 .6255188 .96798709 .68652346 .85899356 .68652346 .7619934 .68652346 .71199038 .6385193 .69299319 .55352786L.59799197 .14086914C.59199526 .117248538 .5779877 .103271488 .5529938 .103271488 .5279999 .103271488 .5139923 .117248538 .5079956 .1412201L.41299439 .5535431C.3939972 .6385193 .33898927 .68652346 .24299622 .68652346 .13398743 .68652346 .08099365 .6255188 .08099365 .5355835V0H.19799805V.5295868Z"/>
<path id="font_0_55" d="M.07699585 .6748047V.21495056C.07699585 .07299805 .15098572 0 .29499818 0H.43699647C.58099368 0 .6559906 .07299805 .6559906 .21495056V.6748047H.5399933V.22395325C.5399933 .15698242 .5049896 .117996219 .42900086 .117996219H.30899049C.23098755 .117996219 .19699097 .15698242 .19699097 .22395325V.6748047H.07699585Z"/>
<path id="font_0_53" d="M.26098634 .6748047C.11099243 .6748047 .050994874 .59280398 .050994874 .48095704 .050994874 .38713075 .09298706 .2861328 .272995 .2861328H.42999269C.5130005 .2861328 .5359955 .24609375 .5359955 .20205689 .5359955 .15301514 .5069885 .117996219 .44299317 .117996219H.06298828V0H.43899537C.59298709 0 .6539917 .083999637 .6539917 .19805908 .6539917 .29512025 .61099246 .39712525 .4269867 .39712525H.2689972C.18998719 .39712525 .16899109 .43605042 .16899109 .47695924 .16899109 .52386477 .19599915 .5567932 .25698854 .5567932H.6029968V.6748047H.26098634Z"/>
<path id="font_0_36" d="M.13798523 .6748047C.099990848 .6748047 .08198547 .6567993 .08198547 .61979678V.054992677C.08198547 .017990113 .099990848 0 .13798523 0H.43798829C.5970001 0 .6639862 .07798767 .6639862 .18598938 .6639862 .2639923 .6279907 .3139801 .56399539 .33998109 .6269989 .36499024 .6609955 .4119568 .6609955 .48986817 .6609955 .5997925 .59399417 .6748047 .43499757 .6748047H.13798523M.19799805 .2919922H.44099427C.5099945 .2919922 .54499819 .2619934 .54499819 .20498657 .54499819 .1499939 .5119934 .116989139 .44099427 .116989139H.21099854C.20298767 .116989139 .19799805 .11999512 .19799805 .12799073V.2919922M.19799805 .54681399C.19799805 .5547943 .20298767 .5587921 .21099854 .5587921H.43899537C.5109863 .5587921 .5419922 .5238342 .5419922 .4709015 .5419922 .4159546 .5079956 .38998414 .43798829 .38998414H.19799805V.54681399Z"/>
<path id="font_0_39" d="M.2829895 .6748047C.12399292 .6748047 .056991579 .59880068 .056991579 .49093629 .056991579 .417099 .08898926 .36514283 .1519928 .33914186 .08999634 .31315614 .054992677 .26112367 .054992677 .18405152 .054992677 .07899475 .11999512 0 .27999879 0H.621994V.117996219H.27999879C.21099854 .117996219 .17799378 .15002442 .17799378 .20307923 .17799378 .25811769 .21299744 .28515626 .2809906 .28515626H.6159973V.39215089H.28399659C.21598816 .39215089 .18099976 .417099 .18099976 .47198487 .18099976 .52386477 .21199036 .5567932 .2829895 .5567932H.62098696V.6748047H.2829895Z"/>
<path id="font_0_59" d="M.0129852299 .6748047 .2849884 .2909088V0H.4039917V.2909088L.6759949 .6748047H.5359955L.34498597 .38587953 .1559906 .6748047H.0129852299Z"/>
<path id="font_0_48" d="M.19898987 .5335846C.19898987 .5575409 .21299744 .57250979 .23999024 .57250979 .26098634 .57250979 .272995 .5635376 .28199769 .54356387L.47898866 .11325073C.5069885 .03627014 .5499878-.01171875 .6439972-.01171875 .7480011-.01171875 .798996 .04727173 .798996 .13621521V.6748047H.6799927V.14123535C.6799927 .118255618 .6649933 .103271488 .6399994 .103271488 .6179962 .103271488 .6049957 .11526489 .5970001 .1312561L.3999939 .56188967C.37199403 .6385193 .32998658 .68652346 .23599243 .68652346 .1309967 .68652346 .08099365 .6275177 .08099365 .5395355V0H.19898987V.5335846Z"/>
<path id="font_0_38" d="M.13798523 .6748047C.099990848 .6748047 .08198547 .6567993 .08198547 .61979678V.054992677C.08198547 .017990113 .099990848 0 .13798523 0H.37599183C.57398989 0 .6799927 .10998535 .6799927 .3368988 .6799927 .5648041 .57299807 .6748047 .37599183 .6748047H.13798523M.19999695 .5447998C.19999695 .5538025 .20399475 .5567932 .21299744 .5567932H.37599183C.5069885 .5567932 .56199648 .4918213 .56199648 .33789063 .56199648 .18296814 .5069885 .117996219 .37599183 .117996219H.21299744C.20399475 .117996219 .19999695 .12098694 .19999695 .12998963V.5447998Z"/>
<path id="font_0_40" d="M.32499696 .6748047C.1459961 .6748047 .07598877 .5767975 .07598877 .441864V0H.19400025V.26689149H.6009979V.37890626H.19400025V.44285584C.19400025 .50582888 .22599793 .5567932 .33299256 .5567932H.6049957V.6748047H.32499696Z"/>
<path id="font_0_52" d="M.07998657 .6748047V.5567932H.44999696C.5149994 .5567932 .5439911 .5158539 .5439911 .46791078 .5439911 .41996766 .5169983 .37402345 .44999696 .37402345H.18699646C.11299133 .37402345 .08099365 .34301759 .08099365 .26701356V0H.19898987V.24401856C.19898987 .25601197 .20498657 .26101686 .21598816 .26101686H.3919983L.54599 0H.6769867L.519989 .27001954C.6230011 .29901124 .6629944 .3889923 .6629944 .4729004 .6629944 .5807953 .59799197 .6748047 .44599916 .6748047H.07998657Z"/>
<path id="font_0_57" d="M.03199768 .6748047 .08999634 .14123535C.099990848 .05027771 .13999939-.01171875 .24398804-.01171875 .33399964-.01171875 .3849945 .03327942 .40299989 .1252594L.48199464 .536911C.4869995 .5605316 .5009918 .57250979 .522995 .57250979 .54499819 .57250979 .55999758 .5605316 .56399539 .5365753L.6380005 .12524414C.6549988 .030273438 .70799258-.01171875 .79299929-.01171875 .8989868-.01171875 .94099429 .05227661 .95098879 .1412201L1.0139923 .6748047H.8909912L.83399966 .14823914C.83099368 .119262699 .81900027 .103271488 .79299929 .103271488 .7689972 .103271488 .7539978 .116256717 .75 .14024353L.6749878 .55389407C.6589966 .6405182 .6119995 .68652346 .5239868 .68652346 .43598939 .68652346 .38598634 .6405182 .36898805 .5535431L.2889862 .14021302C.28399659 .115249637 .269989 .103271488 .24699402 .103271488 .22099304 .103271488 .20899964 .11924744 .20599365 .14820862L.1559906 .6748047H.03199768Z"/>
<path id="font_0_35" d="M.36299134 .54252627C.36999513 .55851748 .3809967 .56552127 .39698792 .56552127 .41299439 .56552127 .42399598 .55851748 .42999269 .54252627L.6349945 0H.7659912L.5379944 .5995178C.5139923 .66252139 .46798707 .68652346 .397995 .68652346 .32699586 .68652346 .2809906 .66252139 .2559967 .5995178L.018997193 0H.14898682L.36299134 .54252627Z"/>
<path id="font_0_46" d="M.07499695 .6748047V.23295594C.07499695 .09799194 .14498902 0 .32398988 0H.59298709V.117996219H.33099366C.22499085 .117996219 .19299317 .16897583 .19299317 .23394776V.6748047H.07499695Z"/>
</defs>
<use data-text="O" xlink:href="#font_0_49" transform="matrix(24.7871,0,0,-24.7871,0,17.027)"/>
<use data-text="P" xlink:href="#font_0_50" transform="matrix(24.7871,0,0,-24.7871,20.226273,17.027)"/>
<use data-text="T" xlink:href="#font_0_54" transform="matrix(24.7871,0,0,-24.7871,37.056715,17.027)"/>
<use data-text="I" xlink:href="#font_0_43" transform="matrix(24.7871,0,0,-24.7871,51.210149,17.027)"/>
<use data-text="M" xlink:href="#font_0_47" transform="matrix(24.7871,0,0,-24.7871,58.175325,17.027)"/>
<use data-text="U" xlink:href="#font_0_55" transform="matrix(24.7871,0,0,-24.7871,85.49071,17.027)"/>
<use data-text="S" xlink:href="#font_0_53" transform="matrix(24.7871,0,0,-24.7871,103.634868,17.027)"/>
<use data-text="B" xlink:href="#font_0_36" transform="matrix(6.9738,0,0,-6.9738,.78900149,24.997002)"/>
<use data-text="E" xlink:href="#font_0_39" transform="matrix(6.9738,0,0,-6.9738,5.8031618,24.997002)"/>
<use data-text="Y" xlink:href="#font_0_59" transform="matrix(6.9738,0,0,-6.9738,10.636005,24.997002)"/>
<use data-text="O" xlink:href="#font_0_49" transform="matrix(6.9738,0,0,-6.9738,14.959759,24.997002)"/>
<use data-text="N" xlink:href="#font_0_48" transform="matrix(6.9738,0,0,-6.9738,20.65038,24.997002)"/>
<use data-text="D" xlink:href="#font_0_38" transform="matrix(6.9738,0,0,-6.9738,26.78035,24.997002)"/>
<use data-text="F" xlink:href="#font_0_40" transform="matrix(6.9738,0,0,-6.9738,33.77507,24.997002)"/>
<use data-text="O" xlink:href="#font_0_49" transform="matrix(6.9738,0,0,-6.9738,38.3987,24.997002)"/>
<use data-text="R" xlink:href="#font_0_52" transform="matrix(6.9738,0,0,-6.9738,44.08932,24.997002)"/>
<use data-text="W" xlink:href="#font_0_57" transform="matrix(6.9738,0,0,-6.9738,48.991907,24.997002)"/>
<use data-text="A" xlink:href="#font_0_35" transform="matrix(6.9738,0,0,-6.9738,56.08426,24.997002)"/>
<use data-text="R" xlink:href="#font_0_52" transform="matrix(6.9738,0,0,-6.9738,61.55172,24.997002)"/>
<use data-text="D" xlink:href="#font_0_38" transform="matrix(6.9738,0,0,-6.9738,66.53101,24.997002)"/>
<use data-text="S" xlink:href="#font_0_53" transform="matrix(6.9738,0,0,-6.9738,73.525737,24.997002)"/>
<use data-text="I" xlink:href="#font_0_43" transform="matrix(6.9738,0,0,-6.9738,78.428318,24.997002)"/>
<use data-text="M" xlink:href="#font_0_47" transform="matrix(6.9738,0,0,-6.9738,80.387958,24.997002)"/>
<use data-text="U" xlink:href="#font_0_55" transform="matrix(6.9738,0,0,-6.9738,88.07308,24.997002)"/>
<use data-text="L" xlink:href="#font_0_46" transform="matrix(6.9738,0,0,-6.9738,93.1779,24.997002)"/>
<use data-text="A" xlink:href="#font_0_35" transform="matrix(6.9738,0,0,-6.9738,97.51561,24.997002)"/>
<use data-text="T" xlink:href="#font_0_54" transform="matrix(6.9738,0,0,-6.9738,102.50885,24.997002)"/>
<use data-text="I" xlink:href="#font_0_43" transform="matrix(6.9738,0,0,-6.9738,106.49089,24.997002)"/>
<use data-text="O" xlink:href="#font_0_49" transform="matrix(6.9738,0,0,-6.9738,108.45052,24.997002)"/>
<use data-text="N" xlink:href="#font_0_48" transform="matrix(6.9738,0,0,-6.9738,114.14114,24.997002)"/>
</svg>