<svg xmlns="http://www.w3.org/2000/svg" xmlns:xlink="http://www.w3.org/1999/xlink" viewBox="37.33 38.68 309.85 168.5" xmlns:v="https://vecta.io/nano"><style><![CDATA[.B{fill:none}.C{stroke:#000}.D{stroke-width:.102}.E{stroke-width:.071}]]></style><path d="M253.012 144.883c.027-.012.05-.024.074-.039l-.219.09c.051-.004.102-.028.145-.051zM149.938 60.387c.05-.289.382-.625.546-.785.11-.11.215-.098.301-.184.098-.094.086-.219.242-.363.289-.266 1.012-.801 1.641-1.032a6.58 6.58 0 0 1 1.707-.351c.031-.211.082-.477.309-.692.394-.375 1.242-.656 2.238-1.035 1.449-.547 4.398-1.582 5.933-1.851 1.086-.192 2.063-.09 2.598-.055.293.02.359.086.582.106.262.023.637.027.899 0 .222-.024.347-.118.586-.133.3-.02.695-.043 1.109.082.402.117 1.059.453 1.488.722.102-.031.215-.05.352-.062.301-.02.722-.027 1.14.082.496.129 1.121.543 1.641.738.465.176.941.231 1.324.399.34.148.785.445.887.531.035.027.004.019.039.051.133.121 1.051.722 1.285.968a1.12 1.12 0 0 1 .094.11l.281.109a8.15 8.15 0 0 1 1.469.969c.113.098.105.168.16.223.043.043.098.054.133.093s.019.082.078.145c.109.117.547.367.664.476.059.059.02.082.09.133.156.114.617.211 1.035.449.59.34 1.609 1.204 2.199 1.563.418.258.645.277 1.032.531a20.25 20.25 0 0 1 1.683 1.336c.039.043-.004.028.039.067.149.14 1.254.808 1.574 1.101a1.07 1.07 0 0 1 .352.074c.301.118.492.422 1.008.715.879.504 3.39 1.695 4.211 2.016.41.156.472.097.793.211.441.156 1.179.547 1.644.715.36.132.578.211.926.265.395.063.973-.043 1.324.055.242.066.442.187.602.316l.176-.039c.562-.109 1.871-.086 2.597-.078.574.004 1.039.149 1.457.078.36-.058.489-.258.926-.394.574-.184 1.867-.516 2.617-.645a2 2 0 0 1 .125-.152c.114-.113.164-.137.371-.211.395-.145 1.547-.32 2.094-.504a4.18 4.18 0 0 0 .981-.449c.933-.528 4.097-2.578 4.566-2.953.133-.106.019-.071.148-.172.438-.348 3.786-2.328 4.09-2.582.067-.055.016-.043.055-.082.082-.082.351-.332.543-.438.101-.054.207-.101.312-.133.028-.031.055-.058.09-.089.203-.192.582-.414.871-.555.27-.133.43-.125.797-.293.606-.277 1.801-1.02 2.649-1.402.769-.352 1.429-.61 2.222-.848.848-.254 1.723-.422 2.731-.609l3.812-.583c.672-.05 1.145-.046 1.563.028.328.055.461.234.793.289.433.07 1.426.019 1.644 0 .074-.008.051-.027.106-.027.093.003.308.039.449.105l.062.035c.079-.031.161-.058.235-.078.168-.035.308-.023.504 0 .242.031.496.094.847.215.493.168 1.25.644 1.879.793.602.14 1.442.051 1.801.105a1.06 1.06 0 0 1 .371.106c.262.117.723.465 1.086.637.344.168.711.238 1.035.398.313.156.539.402.871.555.368.172.84.226 1.246.398.422.18.899.527 1.247.66.257.102.457.067.66.16l.222.121c.203-.015.364.032.594.133.332.149.789.59 1.191.797.383.192.77.235 1.168.422.43.207.774.508 1.325.797l2.675 1.219 1.586.605c.489.153.965.203 1.434.348s1.043.445 1.375.5c.211.039.313-.067.477-.024l.046.012a1.21 1.21 0 0 1 .215-.039c.172-.016.25.016.477.078.398.113 1.215.578 1.828.688.594.109 1.176-.051 1.801 0 .664.058 1.621.379 2.066.347.262-.019.297-.172.531-.215.317-.054.918-.003 1.27 0 .273.008.414.059.687.028.364-.043.872-.27 1.325-.344.464-.078 1-.035 1.429-.105.254-.043.504-.129.727-.192.051-.066.113-.133.195-.195.285-.223.875-.508 1.352-.664s1.113-.149 1.508-.266c.304-.086.433-.18.714-.316l1.301-.688c.625-.39 1.5-1.187 2.172-1.535.547-.289 1.098-.305 1.535-.531.278-.145.543-.387.762-.567l.023-.054c.114-.242.34-.563.543-.731a1.29 1.29 0 0 1 .582-.265c.2-.032.426-.016.61.054.191.075.394.235.519.383.11.141.176.32.211.477.031.144.055.246 0 .426-.054.167-.211.464-.375.722l.059.059c.125.144.223.359.262.531.039.145.003.191 0 .422l-.051 2.594-.321 3.922-.019 5.101c.098.074.187.16.25.227.082.089.117.156.156.265.051.141.067.246.082.532.028.558-.012 2.062-.054 2.914l-.161 1.878-.023 6.223-.035.406c.054.102.094.211.117.34.047.223.008.293 0 .793l-.156 8.582c.019.352.082.262.105.504.035.402.016 1.223 0 1.828-.019.594.028 1.324-.105 1.774l-.035.105c.144.199.234.504.25.707.015.168-.059.145-.079.449-.058.868-.082 5.141-.027 6.383.027.641.109.754.133 1.219v1.906c-.024.215-.039.289-.106.422-.011.027-.027.051-.043.078.04.203.055.442.04.602-.012.097-.032.176-.063.25.16.883-.039 4.644.004 5.812l.105 1.219v2.941l-.132 3.153-.043.273c.082.176.144.395.152.551.012.188-.098.246-.129.504-.062.461-.062 1.156-.082 2.25l-.051 8.582-.027.297c.062.094.109.199.148.39.106.528.063 1.817.028 2.7l-.239 2.543-.082 3.097c.043.414.196.528.239.848.05.375.07.953 0 1.273-.051.235-.211.325-.262.528-.031.117-.027.261-.023.406.023.02.039.039.058.059a1 1 0 0 1 .266.531c.09.445.015 1.449 0 2.094l-.082 1.613.054 2.41c-.015.211-.027.25-.078.371a1.38 1.38 0 0 1-.281.41.59.59 0 0 1-.105.094c-.055.188-.145.418-.344.602-.293.269-.922.535-1.43.714-.516.184-1.25.243-1.641.372-.265.085-.363.214-.585.265-.247.055-.567.039-.848.027l-.223-.011c-.09.043-.191.07-.289.094-.226.054-.512.039-.742 0-.219-.036-.449-.118-.609-.211-.133-.079-.215-.188-.305-.278l-.223-.25c-.082-.074-.172-.109-.254-.199a1.93 1.93 0 0 1-.289-.453c-.086-.188-.086-.5-.187-.649-.082-.117-.219-.109-.317-.222-.125-.145-.269-.422-.343-.61-.067-.16-.028-.265-.106-.453-.121-.273-.535-.75-.664-1.058-.098-.239-.109-.407-.133-.633l-.011-.137c-.114-.062-.219-.137-.297-.203-.133-.125-.184-.215-.266-.426-.125-.336-.172-1.074-.316-1.535-.129-.422-.352-.695-.477-1.14-.144-.52-.289-1.461-.289-1.825v-.09a.48.48 0 0 1-.062-.07c-.211-.273-.422-1.144-.61-1.418-.109-.164-.215-.14-.316-.277-.141-.184-.258-.574-.41-.781l-.059-.067-.059-.035c-.296-.168-.91-.641-1.097-.809-.094-.082-.051-.105-.149-.171-.187-.125-.84-.305-1.109-.45a1.79 1.79 0 0 1-.324-.203c-.27-.176-.571-.394-.86-.492-.488-.16-1.207-.078-1.589-.211a1.39 1.39 0 0 1-.481-.269l-.367-.028c-.324-.031-.567-.148-.953-.183-.496-.047-1.129-.09-1.828 0-.864.109-2.215.617-2.993.742l-.89.109c-.039.047-.078.094-.125.133-.239.215-.563.281-1.031.449-.704.254-2.219.586-2.942.875-.508.203-.766.442-1.137.61-.343.156-.699.207-1.007.371-.153.078-.297.203-.434.32-.012.031-.027.062-.043.094a1.08 1.08 0 0 1-.383.465c-.402.293-1.512.609-2.144 1.007-.598.371-1.235.954-1.578 1.282-.223.214-.286.375-.438.519-.141.133-.297.203-.437.328-.145.133-.239.282-.411.438-.214.195-.711.543-.808.637-.031.031-.012.027-.039.054-.067.063-.301.184-.461.356-.215.226-.461.761-.676.941-.121.098-.234.137-.348.164-.175.348-.468.789-.531.883-.023.035-.015.012-.039.039-.078.09-.465.621-.57.73-.047.047-.043.008-.094.067-.152.172-.883 1.351-1.008 1.496-.031.039-.019 0-.051.039a15.02 15.02 0 0 0-.98 1.535c-.086.188-.031.231-.106.399-.113.257-.402.754-.609 1.031-.176.234-.402.32-.531.558-.141.262-.11.715-.238.981a1.53 1.53 0 0 1-.438.543c-.055.043-.117.082-.18.113.008.047.012.094.016.141.02.238-.063.496-.133.742s-.129.469-.289.742c-.207.344-.715.918-.941 1.149-.133.136-.242.191-.305.254-.035.039-.043.07-.066.093s-.043.008-.067.039c-.039.059-.019.196-.105.371-.164.329-.758 1.274-1.047 1.547a.8.8 0 0 1-.449.239c-.207.054-.477.046-.743.027-.292-.02-.625-.035-.953-.156-.371-.145-1.015-.586-1.152-.703-.047-.043-.023-.043-.051-.079-.051-.07-.133-.195-.254-.304-.136-.129-.414-.27-.593-.418-.129-.031-.266-.082-.387-.153-.211-.121-.414-.336-.594-.543-.191-.214-.348-.543-.519-.726-.137-.149-.262-.188-.411-.332-.183-.18-.41-.508-.593-.699-.157-.168-.289-.235-.438-.414-.183-.219-.426-.579-.558-.848-.114-.227-.118-.484-.223-.648-.09-.137-.277-.239-.332-.305-.027-.031-.024-.047-.039-.067-.02-.015-.047-.019-.067-.039-.019-.015-.023-.047-.039-.066s-.047-.02-.066-.039-.023-.035-.055-.078c-.066-.098-.316-.336-.394-.559-.016-.043-.032-.086-.043-.137a1.29 1.29 0 0 1-.18-.097c-.137-.086-.184-.113-.359-.332-.395-.481-1.793-2.723-2.051-3.031-.074-.086-.047-.004-.121-.094-.266-.321-1.699-2.754-2.133-3.242-.191-.219-.305-.188-.41-.305a.98.98 0 0 1-.199-.344 1.12 1.12 0 0 1-.145-.133c-.309-.332-.516-1.015-.875-1.539-.394-.578-1.082-1.191-1.43-1.773-.3-.508-.39-1.11-.609-1.508-.105-.195-.246-.352-.367-.492a1.04 1.04 0 0 1-.27-.203c-.285-.305-.488-1.106-.793-1.578-.293-.45-.73-.915-.996-1.204-.183-.203-.324-.261-.461-.437-.148-.191-.25-.504-.386-.676-.106-.137-.188-.117-.329-.305-.21-.277-.695-1.062-.996-1.636a1.66 1.66 0 0 1-.261-.188c-.176-.156-.371-.515-.438-.597-.023-.028-.015-.008-.039-.039-.086-.102-.387-.61-.676-.887-.328-.313-1.078-.723-1.23-.863-.055-.047-.016-.051-.07-.09-.118-.09-.543-.301-.848-.399-.313-.101-.707-.097-1.004-.187-.27-.074-.441-.227-.715-.289-.308-.071-.547-.063-1.058-.078l-.442-.008c-.035.039-.078.082-.137.129-.386.304-1.683.773-2.195 1.086-.351.207-.418.371-.742.554-.43.242-1.352.504-1.695.715-.211.129-.247.211-.387.36-.172.183-.453.457-.582.687-.11.199-.09.418-.184.609s-.16.371-.383.543c-.105.078-.253.168-.421.25-.012.055-.032.11-.059.168a1.54 1.54 0 0 1-.305.41c-.152.149-.441.313-.57.438-.086.086-.121.176-.172.223-.035.035-.051.007-.094.066-.109.156-.32.832-.554 1.246-.25.442-.75 1.113-.926 1.309-.078.086-.106.035-.16.121-.114.172-.242.781-.371 1.058-.102.219-.246.446-.317.516-.035.035-.054.004-.082.043-.054.078-.066.395-.156.582-.098.199-.164.375-.41.566a2.78 2.78 0 0 1-.305.211 4.19 4.19 0 0 1-.371.801c-.23.395-.836 1.059-.941 1.18-.028.035-.012.008-.039.039-.094.117-.508.613-.793 1.062-.379.586-.856 1.668-1.247 2.25-.3.45-.679.856-.859 1.047-.094.098-.113.082-.199.172-.149.145-.512.57-.625.676-.047.043-.047.019-.09.066-.094.09-.25.418-.437.567a1.77 1.77 0 0 1-.743.347c-.339.071-.828.043-1.191 0-.328-.043-.629-.093-.902-.238-.282-.156-.547-.418-.754-.676s-.36-.605-.477-.875c-.074-.168-.133-.332-.172-.484a1.37 1.37 0 0 1-.07-.078c-.375-.442-1.18-1.953-1.535-2.649-.254-.492-.41-.8-.531-1.191l-.165-.645a2.29 2.29 0 0 1-.347-.234c-.207-.168-.297-.402-.543-.648-.332-.332-1.106-.887-1.363-1.153-.145-.148-.067-.238-.254-.332-.129-.066-.368-.125-.653-.176-.008.004-.011.004-.019.008-.16.059-.371.071-.555.078s-.297-.062-.531-.027c-.367.055-1.18.418-1.535.477-.219.039-.266-.067-.477 0-.332.109-1.023.687-1.449.902l-.195.195c-.266.254-.973.77-1.18.965-.102.098-.094.129-.172.199-.102.094-.281.188-.41.305-.137.125-.246.305-.383.438s-.328.25-.437.359c-.09.082-.071.113-.2.223-.289.246-1.343 1.015-1.828 1.246-.332.156-.535.175-.82.211-.297.039-.606.023-.926 0-.344-.024-.765-.036-1.062-.157-.262-.109-.504-.359-.649-.492-.097-.09-.105-.137-.199-.222-.133-.129-.418-.297-.566-.465-.141-.157-.254-.321-.321-.504l-.051-.16c-.136-.075-.273-.161-.355-.239a.76.76 0 0 1-.211-.343c-.055-.153-.023-.313-.082-.528-.078-.308-.223-.769-.422-1.168-.223-.437-.711-.961-.875-1.351-.125-.289-.129-.477-.16-.766-.02-.172-.027-.387-.035-.598-.227-.253-.375-.675-.488-1.097-.133-.492-.079-1.074-.211-1.723-.164-.785-.559-2.078-.77-2.676-.133-.371-.266-.496-.344-.769s-.101-.528-.132-.871c-.04-.438-.059-1.157-.055-1.563.008-.301.082-.492.055-.719-.016-.113-.063-.222-.11-.332-.137-.062-.273-.148-.355-.222-.114-.098-.153-.184-.215-.328-.078-.192-.125-.375-.184-.743-.101-.64-.125-2.351-.265-3.019-.086-.414-.184-.578-.317-.848s-.363-.504-.476-.769c-.114-.254-.168-.512-.215-.793-.047-.305.055-.637-.051-.981-.129-.406-.547-1.027-.754-1.285-.129-.156-.238-.176-.332-.277s-.125-.227-.226-.332-.293-.207-.411-.309c-.129.035-.324.16-.535.309-.004.035-.012.07-.023.109-.141.555-1.082 2.149-1.43 2.942l-.555 1.457-.449 1.695c-.172.5-.461 1.004-.586 1.402-.093.309-.07.582-.156.793-.059.149-.137.262-.227.36-.062.168-.125.351-.171.558-.145.625-.227 1.695-.399 2.356-.14.543-.359.859-.504 1.379-.164.593-.179 1.418-.398 2.011-.192.528-.528 1.133-.778 1.41.004.075 0 .157 0 .262-.003.293.016.777-.078 1.215-.113.508-.48 1.027-.609 1.645-.149.691-.016 1.793-.16 2.328a1.77 1.77 0 0 1-.41.757c-.032.032-.059.055-.09.079.074.046.133.097.168.144.07.102.051.231.027.32a.33.33 0 0 1-.121.18c-.039.25-.125.574-.219.871-.133.418-.433.957-.531 1.352-.078.316-.023.625-.078.847-.043.172-.078.329-.172.411-.086.074-.25.093-.344.078-.082-.012-.152-.071-.199-.117-.043-.04-.059-.024-.082-.133-.066-.356-.102-2.703-.035-3.602-.055-.078-.09-.219-.074-.312.011-.078.086-.168.144-.227-.019-.019-.035-.043-.051-.062-.129-.196-.207-.403-.238-.77-.051-.59.051-1.875.211-2.621a3.54 3.54 0 0 1 .199-.602c-.054-.019-.101-.054-.14-.144-.141-.348-.141-2.152-.051-2.543.039-.168.113-.211.172-.25.039-.031.105.016.117-.027.027-.086-.215-.395-.262-.676-.066-.36-.027-.852 0-1.352l.055-.996c-.039-.09-.067-.219-.063-.332.008-.129.102-.312.157-.457.007-.051.019-.094.031-.133-.008-.101-.082-.082-.106-.179-.05-.204-.011-.825 0-1.192l.051-.926c0-.132-.027-.113-.027-.293.004-.441.168-1.925.187-2.832l-.054-2.464.015-.403c-.062-.105-.117-.226-.152-.355-.102-.324-.094-.883-.082-1.164.008-.188.086-.286.082-.422s-.086-.223-.109-.399c-.028-.257-.016-.695 0-1.058l.074-1.055c-.039-.625-.008-2.586 0-3.656l.011-1.828c-.035-.106-.066-.231-.093-.391-.188-1.113-.09-4.973 0-6.277.051-.735.183-.992.238-1.457l.078-1.246c-.019-.211-.109-.297-.133-.477a2.24 2.24 0 0 1-.152-.5c-.121-.641-.035-2.047 0-2.781.023-.547.109-.813.133-1.324v-2.172c-.035-.532-.156-.934-.188-1.403s-.035-1.043 0-1.429c.032-.297.047-.5.157-.735-.082-.343-.051-.871-.028-1.191.016-.25.082-.32.106-.609.035-.481.008-1.293 0-2.149l-.078-3.918c.015-.473.082-.555.105-.953s0-1.09.004-1.606c-.18-.25-.328-.578-.402-.96-.086-.461-.024-1.094 0-1.668l.16-1.856v-1.906l-.082-2.25c.035-.703.144-1.594.265-2.039a1.33 1.33 0 0 1 .063-.188 4.88 4.88 0 0 1-.051-.449c-.078-.996-.062-4.195-.027-5.535l.051-1.395c-.047-.078-.09-.164-.126-.254-.085-.226-.132-.449-.132-.769.004-.43.218-1.055.265-1.641.051-.64.012-1.191 0-2.066l-.133-4.77.016-.113c-.012-.027-.019-.055-.027-.082a1.83 1.83 0 0 1-.051-.715 2.01 2.01 0 0 1 .164-.57c-.144-.242-.277-.66-.226-.949zm0 0" fill="#4a90e2" fill-opacity=".75"/><g stroke-width=".75" class="B C"><path d="M150 60v97.949M285 59.25v98.25M150 60c4.418-3.309 8.297-5.094 11.805-5.805 20.316-4.093 28.011 27.996 53.593 8.805m0 0c30-22.5 39.602 18.75 69.602-3.75m-135 98.699c15.898-75 7.648 15.75 25.648-7.5m0 0c9.75-6.75 8.786 6.66 13.774 7.711 4.984 1.043 14.726-35.461 27.476-12.961m0 0c30.75 47.25 10.5 6.75 44.25-.75m0 0c2.25-.75 9.75-.75 12 4.5s2.043 15.91 11.852 8.551"/><path stroke-dasharray=".84375,2.5125" d="M150.148 71.699l135 .75"/><path d="M233.398 58.199v13.5m3-6h-6m-43.5 47.25l19.856 22.426"/></g><path d="M200.469 131.996c3.043 1.297 5.468 2.797 7.281 4.505-1.477-2.009-2.672-4.598-3.586-7.774" stroke-width=".751" class="B C"/><g stroke-width=".75" class="B C"><path d="M74.398 91.199c29.704-22.273 35.29-6.621 75.278-2.375m-7.176 1.777c3.109-1.121 5.91-1.672 8.398-1.652-2.445-.465-5.082-1.555-7.914-3.258m-65.586 27.258c43.5 116.25 413.25 135 207.602-3.597"/><path d="M293.176 111.887c-3.27-.493-5.992-1.337-8.176-2.535 1.93 1.57 3.739 3.781 5.418 6.625"/></g><use xlink:href="#B"/><use xlink:href="#B" class="B C D"/><use xlink:href="#C"/><use xlink:href="#C" class="B C E"/><use xlink:href="#B" x="152.25"/><use xlink:href="#B" x="152.25" class="B C D"/><use xlink:href="#C" x="152.25"/><use xlink:href="#C" x="152.25" class="B C E"/><use xlink:href="#B" x="75" y="72"/><use xlink:href="#B" x="75" y="72" class="B C D"/><use xlink:href="#D"/><use xlink:href="#D" class="B C E"/><use xlink:href="#B" x="75.75" y="-60.75"/><use xlink:href="#B" x="75.75" y="-60.75" class="B C D"/><use xlink:href="#E"/><use xlink:href="#E" class="B C E"/><use xlink:href="#F"/><use xlink:href="#F" class="B C D"/><use xlink:href="#G"/><use xlink:href="#G" class="B C D"/><path d="M157.504 110.727h-.918v-8.051h.988v2.871c.418-.524.949-.785 1.598-.785.359 0 .699.074 1.019.218a2.04 2.04 0 0 1 .789.61c.203.262.372.578.489.945s.176.766.176 1.188c0 1-.247 1.773-.743 2.316s-1.086.82-1.777.82-1.23-.289-1.621-.863zm-.012-2.961c0 .699.094 1.207.285 1.515.313.512.735.766 1.266.766.43 0 .805-.188 1.117-.563.317-.375.473-.937.473-1.679 0-.762-.149-1.325-.453-1.688s-.664-.543-1.094-.543-.805.188-1.121.567-.473.914-.473 1.625zm9.164 2.242c-.367.312-.722.531-1.062.66s-.699.191-1.086.191c-.641 0-1.133-.156-1.477-.468s-.519-.715-.519-1.203c0-.286.066-.543.195-.778a1.67 1.67 0 0 1 .508-.574 2.45 2.45 0 0 1 .715-.32c.195-.055.488-.102.879-.149.8-.097 1.386-.211 1.765-.344l.004-.257c0-.403-.094-.688-.281-.852-.25-.223-.629-.332-1.125-.332-.465 0-.809.082-1.031.246s-.383.449-.493.863l-.964-.132c.086-.414.23-.747.433-1s.492-.454.875-.59.82-.207 1.324-.207c.496 0 .903.058 1.211.176s.543.265.688.445.25.398.308.668c.032.172.047.472.047.914v1.316l.063 1.75c.043.239.129.473.254.696h-1.035a2.08 2.08 0 0 1-.196-.719zm-.082-2.207c-.359.144-.898.269-1.617.371-.406.058-.691.125-.863.199s-.297.18-.387.324c-.094.137-.141.293-.141.465a.85.85 0 0 0 .297.66c.203.176.496.266.879.266s.723-.082 1.016-.25a1.56 1.56 0 0 0 .656-.684c.106-.226.16-.554.16-.992zm4.692 2.043l.14.871a3.71 3.71 0 0 1-.746.09c-.359 0-.637-.059-.836-.172s-.336-.262-.418-.445-.121-.575-.121-1.168v-3.356h-.723v-.769h.723v-1.446l.985-.594v2.04h.996v.769h-.996v3.41c0 .281.015.461.05.543s.094.145.168.192c.082.05.196.074.34.074a3.75 3.75 0 0 0 .438-.039zm.964.883v-8.051h.989v2.886a2.2 2.2 0 0 1 1.746-.8c.433 0 .808.086 1.129.258a1.47 1.47 0 0 1 .679.703c.136.301.207.738.207 1.308v3.696h-.988v-3.696c0-.496-.105-.855-.324-1.078-.211-.226-.512-.34-.906-.34a1.61 1.61 0 0 0-.828.231c-.258.148-.442.355-.551.617s-.164.617-.164 1.074v3.192zm6.215 2.246l-.113-.926c.219.058.406.086.566.086.219 0 .395-.035.528-.11a.87.87 0 0 0 .324-.308c.062-.098.164-.344.305-.735.015-.054.047-.136.086-.242l-2.215-5.843h1.066l1.215 3.378.422 1.352a13.52 13.52 0 0 1 .406-1.332l1.246-3.398h.992l-2.222 5.929-.555 1.324c-.176.329-.375.567-.601.715-.227.157-.5.231-.813.231-.191 0-.402-.039-.637-.121zm5.668-2.246v-5.832h.883v.816a2.1 2.1 0 0 1 .731-.688c.304-.175.652-.261 1.039-.261.433 0 .785.09 1.058.269.281.18.477.43.59.754.461-.683 1.063-1.023 1.801-1.023.578 0 1.023.16 1.336.484.312.316.465.809.465 1.477v4.004h-.981v-3.676c0-.395-.035-.68-.101-.852a.81.81 0 0 0-.344-.422 1.1 1.1 0 0 0-.594-.16 1.39 1.39 0 0 0-1.023.414c-.27.27-.407.707-.407 1.309v3.387h-.988v-3.789c0-.442-.082-.77-.242-.989s-.426-.332-.789-.332c-.281 0-.539.074-.777.223s-.403.359-.508.64-.16.688-.16 1.219v3.028zm13.364-1.879l1.023.129c-.164.593-.461 1.058-.895 1.386s-.996.496-1.671.496c-.852 0-1.532-.261-2.032-.785s-.75-1.265-.75-2.215c0-.98.254-1.742.762-2.285s1.16-.812 1.965-.812c.781 0 1.418.265 1.91.797s.742 1.277.742 2.242l-.004.261h-4.351c.035.641.219 1.133.543 1.473a1.62 1.62 0 0 0 1.219.512c.363 0 .675-.098.929-.285s.461-.496.61-.914zm-3.247-1.598h3.258c-.043-.492-.168-.859-.375-1.105a1.51 1.51 0 0 0-1.222-.571c-.453 0-.836.153-1.149.457s-.476.711-.512 1.219zm7.668 2.594l.145.871a3.71 3.71 0 0 1-.746.09c-.359 0-.641-.059-.836-.172s-.336-.262-.418-.445-.121-.575-.121-1.168v-3.356h-.727v-.769h.727v-1.446l.984-.594v2.04h.992v.769h-.992v3.41c0 .281.016.461.047.543.039.082.094.145.172.192s.195.074.34.074c.109 0 .254-.016.433-.039zm.957.883v-5.832h.891v.882c.227-.414.434-.687.625-.816s.406-.199.637-.199c.332 0 .672.105 1.015.32l-.339.914c-.243-.141-.485-.211-.727-.211a.93.93 0 0 0-.582.195c-.172.129-.293.309-.367.54-.11.351-.164.734-.164 1.152v3.055zm0 0"/><path d="M206.57 112.973l-.113-.926c.219.058.406.086.566.086.219 0 .395-.035.528-.11a.87.87 0 0 0 .324-.308c.063-.098.164-.344.305-.735.015-.054.047-.136.086-.242l-2.215-5.843h1.066l1.215 3.378.422 1.352a13.52 13.52 0 0 1 .406-1.332l1.246-3.398h.992l-2.222 5.929-.555 1.324c-.176.329-.375.567-.601.715-.227.157-.5.231-.813.231-.191 0-.402-.039-.637-.121zm-169.238-7.645l3.094-8.055h1.148l3.297 8.055h-1.215l-.937-2.441h-3.371l-.883 2.441zm2.324-3.308h2.731l-.84-2.231-.57-1.668c-.106.516-.25 1.027-.434 1.539zm0 0"/><path d="M46.508 105.328h-.918v-8.055h.988v2.875c.418-.523.949-.785 1.598-.785.359 0 .699.071 1.015.219a1.99 1.99 0 0 1 .793.609c.207.258.371.575.489.946s.175.765.175 1.187c0 .996-.246 1.77-.742 2.317s-1.086.82-1.777.82-1.231-.289-1.621-.863zm-.012-2.961c0 .699.094 1.203.285 1.516.313.508.735.762 1.266.762.43 0 .805-.184 1.117-.559s.473-.938.473-1.68c0-.761-.153-1.324-.453-1.687s-.664-.543-1.094-.543-.805.187-1.121.566c-.317.371-.473.914-.473 1.625zm4.961 1.219l.977-.152c.054.39.207.691.457.898s.605.313 1.054.313.789-.09 1.012-.274.328-.406.328-.652a.6.6 0 0 0-.293-.528c-.133-.089-.469-.199-1.008-.336-.726-.183-1.23-.339-1.511-.472s-.493-.321-.637-.555a1.48 1.48 0 0 1-.215-.785c0-.262.059-.5.176-.719a1.59 1.59 0 0 1 .488-.554c.156-.114.363-.211.629-.286a2.89 2.89 0 0 1 .856-.121c.457 0 .859.063 1.203.196s.605.312.769.539c.164.222.278.523.34.902l-.969.129c-.043-.297-.172-.531-.383-.703s-.503-.25-.89-.25c-.453 0-.778.074-.973.222-.191.153-.289.329-.289.528 0 .129.039.246.121.347s.207.196.379.262c.098.039.391.121.871.254l1.461.461a1.47 1.47 0 0 1 .656.516c.157.23.235.511.235.847 0 .328-.098.641-.289.934s-.469.515-.832.676-.774.238-1.231.238c-.758 0-1.336-.16-1.734-.473s-.649-.785-.758-1.402zm5.652-1.176c0-1.082.301-1.879.903-2.398.5-.434 1.113-.649 1.832-.649.804 0 1.457.262 1.968.789s.762 1.25.762 2.176c0 .75-.113 1.344-.34 1.774a2.36 2.36 0 0 1-.984 1c-.426.238-.895.359-1.406.359-.817 0-1.477-.266-1.981-.789s-.754-1.277-.754-2.262zm1.016 0c0 .746.164 1.309.488 1.68s.739.555 1.231.555.898-.184 1.226-.559.489-.941.489-1.707c0-.723-.164-1.27-.497-1.637a1.54 1.54 0 0 0-1.218-.562 1.57 1.57 0 0 0-1.231.554c-.324.371-.488.93-.488 1.676zm5.598 2.918v-5.836h.89v.887c.227-.414.434-.688.625-.82a1.1 1.1 0 0 1 .637-.196c.336 0 .672.106 1.016.317l-.34.918c-.242-.145-.485-.215-.723-.215a.92.92 0 0 0-.582.199c-.176.129-.297.309-.371.539-.109.352-.164.734-.164 1.152v3.055zm4.668 0h-.918v-8.055h.992v2.875c.414-.523.949-.785 1.597-.785a2.38 2.38 0 0 1 1.016.219c.32.141.586.344.789.609.211.258.375.575.492.946s.176.765.176 1.187c0 .996-.25 1.77-.742 2.317s-1.09.82-1.781.82a1.86 1.86 0 0 1-1.621-.863zm-.008-2.961c0 .699.094 1.203.285 1.516.309.508.73.762 1.262.762.433 0 .804-.184 1.121-.559s.472-.938.472-1.68c0-.761-.152-1.324-.457-1.687s-.664-.543-1.093-.543-.805.187-1.121.566c-.313.371-.469.914-.469 1.625zm5.359-3.957v-1.137h.988v1.137zm0 6.918v-5.836h.988v5.836zm2.492 0v-5.836h.891v.832c.43-.64 1.047-.961 1.859-.961.352 0 .672.063.965.192s.52.289.664.492.25.449.309.73c.035.184.055.504.055.961v3.59h-.989v-3.551c0-.402-.039-.703-.117-.898-.074-.203-.211-.363-.41-.481s-.422-.179-.688-.179c-.421 0-.785.133-1.093.402s-.453.774-.453 1.52v3.187zm6.078.484l.961.141c.039.297.153.512.336.649.243.183.579.273 1.004.273.457 0 .813-.09 1.059-.273s.418-.438.508-.77c.05-.199.074-.625.07-1.27-.434.512-.969.766-1.613.766-.805 0-1.426-.289-1.864-.867s-.66-1.273-.66-2.082c0-.559.102-1.07.301-1.539a2.45 2.45 0 0 1 .875-1.094c.387-.258.836-.383 1.352-.383.687 0 1.257.278 1.703.832v-.703h.91v5.043c0 .91-.094 1.551-.277 1.93a2.01 2.01 0 0 1-.879.898c-.403.223-.895.332-1.481.332-.695 0-1.258-.156-1.683-.472s-.637-.782-.622-1.411zm.817-3.507c0 .765.152 1.324.457 1.675a1.45 1.45 0 0 0 1.144.528 1.46 1.46 0 0 0 1.141-.52c.309-.351.461-.902.461-1.648 0-.715-.16-1.254-.477-1.617a1.46 1.46 0 0 0-1.144-.543c-.438 0-.813.179-1.121.539s-.461.883-.461 1.586zm8.828 3.023v-8.055h3.023c.614 0 1.106.082 1.477.247a1.89 1.89 0 0 1 .871.753c.215.336.32.692.32 1.063a1.8 1.8 0 0 1-.281.969c-.187.304-.469.55-.844.738.485.141.86.387 1.122.73a1.96 1.96 0 0 1 .394 1.219c0 .379-.082.731-.242 1.055s-.352.57-.586.746-.531.312-.887.402-.785.133-1.297.133zm1.066-4.672h1.743c.472 0 .808-.031 1.015-.09.27-.082.473-.214.61-.402s.207-.422.207-.703c0-.27-.063-.504-.192-.703-.129-.207-.308-.344-.547-.418s-.648-.117-1.226-.117h-1.61zm0 3.719h2.004l.727-.035c.246-.047.449-.117.613-.223a1.12 1.12 0 0 0 .406-.445 1.36 1.36 0 0 0 .161-.68c0-.301-.075-.558-.231-.781a1.18 1.18 0 0 0-.641-.465c-.273-.094-.664-.137-1.175-.137h-1.864zm12.227-1.871l1.066.269c-.222.875-.625 1.543-1.207 2.004s-1.289.688-2.129.688c-.867 0-1.574-.176-2.117-.527s-.957-.868-1.242-1.54-.422-1.39-.422-2.156c0-.84.156-1.57.477-2.195a3.29 3.29 0 0 1 1.367-1.422 4.02 4.02 0 0 1 1.957-.488c.805 0 1.48.207 2.031.617s.934.984 1.149 1.73l-1.051.246c-.184-.585-.457-1.011-.813-1.281s-.8-.402-1.339-.402c-.618 0-1.137.148-1.555.445s-.703.699-.871 1.199-.254 1.012-.254 1.543c0 .684.098 1.286.297 1.797s.511.891.933 1.141.875.379 1.368.379c.597 0 1.101-.172 1.515-.516s.695-.855.84-1.531zm1.859 1.082l.977-.152c.055.39.207.691.457.898s.602.313 1.055.313.789-.09 1.007-.274.333-.406.333-.652c0-.223-.098-.399-.293-.528-.133-.089-.473-.199-1.012-.336-.723-.183-1.227-.339-1.508-.472s-.492-.321-.637-.555a1.47 1.47 0 0 1-.215-.785c0-.262.059-.5.176-.719.121-.226.281-.41.489-.554.152-.114.363-.211.624-.286.27-.082.555-.121.86-.121.457 0 .855.063 1.203.196s.602.312.766.539c.168.222.281.523.343.902l-.968.129c-.043-.297-.172-.531-.383-.703s-.508-.25-.891-.25c-.453 0-.777.074-.972.222-.196.153-.293.329-.293.528a.56.56 0 0 0 .121.347c.082.106.207.196.379.262.101.039.39.121.875.254l1.46.461c.278.117.497.289.653.516s.238.511.238.847a1.66 1.66 0 0 1-.293.934c-.187.289-.465.515-.828.676s-.773.238-1.23.238c-.758 0-1.336-.16-1.735-.473s-.648-.785-.758-1.402zm0 0"/><defs ><path id="B" d="M143.16 100.293l-.191 1.16h.445c.113-.648.305-1.414.547-1.976h-6.617v.421h.601c.598.024.625.164.457 1.149l-1.019 5.723c-.18 1.019-.281 1.16-.84 1.187h-.691v.383h3.8v-.422h-.597c-.602-.027-.625-.168-.461-1.148l1.172-6.657c1.109-.175 2.257-.152 3.394.18zm0 0"/><path id="C" d="M146.227 109.035l-.258 1.133a2.08 2.08 0 0 0-.055.453c0 .199.082.313.215.313.203 0 .57-.231 1.301-.836l-.063-.188c-.211.176-.472.418-.668.418-.078 0-.133-.082-.133-.207 0-.043 0-.07.008-.098l.821-3.382-.09-.079-.293.161c-.367-.133-.516-.168-.758-.168-.25 0-.43.043-.672.16-.551.273-.848.543-1.07.98-.391.793-.668 1.867-.668 2.563 0 .39.133.695.304.695.329 0 1.043-.465 2.079-1.918zm.429-1.875c-.199.973-.367 1.438-.672 1.902-.507.747-1.05 1.266-1.336 1.266-.109 0-.164-.117-.164-.355 0-.575.25-1.618.563-2.332.215-.489.422-.653.848-.653.207 0 .367.039.761.172zm0 0"/><path id="D" d="M220.906 176.41l-.109-.098c-.461.231-.785.313-1.426.376l-.035.187h.426c.215 0 .304.063.304.215 0 .062-.007.16-.019.215l-.899 4.918c-.011.023-.011.062-.011.086 0 .351.429.644.922.644.328 0 .785-.168 1.168-.445.855-.61 1.445-1.832 1.445-3.008 0-.34-.078-.688-.188-.82-.062-.082-.179-.125-.312-.125-.215 0-.481.07-.731.195-.457.238-.75.508-1.304 1.215zm.778 2.66c.23 0 .347.207.347.645 0 .57-.187 1.336-.457 1.918-.293.613-.652.902-1.133.902-.41 0-.632-.207-.632-.582 0-.305.132-1.562.855-2.32.293-.305.758-.563 1.02-.563zm0 0"/><path id="E" d="M219.836 48.785c-.047.453-.102.766-.199 1.176.34.16.644.242.957.242.437 0 .847-.16 1.301-.519s.644-.688.644-1.133c0-.481-.285-.739-.945-.863l-.387-.075c-.535-.097-.703-.25-.703-.613 0-.473.402-.84.91-.84.367 0 .707.16.848.402v.489h.207c.035-.313.07-.551.168-1.008-.348-.168-.598-.238-.891-.238-.465 0-1.012.265-1.437.695a1.02 1.02 0 0 0-.332.785c0 .5.277.785.867.903l.562.105c.391.07.535.23.535.578 0 .582-.41.977-1.043.977a1.26 1.26 0 0 1-.839-.313v-.75zm0 0"/><path id="F" d="M218.184 86.168c2.472 0 2.878 1.695 2.496 3.863-.305 1.797-1.235 3.633-3.313 3.903l-.156.867 3.953.074.524-1.922v-.039h-.243v.039c-.281.676-.316.891-1.082.891h-1.633c1.836-.715 3.036-2.27 3.368-4.117.484-2.754-1.317-3.903-3.852-3.903-2.562 0-4.883 1.059-5.383 3.903-.328 1.835.332 3.402 1.914 4.117h-1.644c-.778 0-.754-.254-.805-.93h-.254l-.113 1.961 3.965-.074.152-.867c-2-.27-2.242-2.129-1.926-3.942.395-2.23 1.606-3.824 4.032-3.824zm0 0"/><path id="G" d="M239.742 61.465c-.422 0-1.836.879-2.258 1.148v.075l.153.14v.027c.293-.117 1.058-.828 1.187-.23-.027.84-.574 3.941-.844 4.945v.129c.27-.129.641-.242.918-.32.207-1.594.36-5.277 2.579-5.317.574 0 .89.309.89.895.039 2.168-1.504 5.981-1.211 8.043.305-.141.688-.254 1.008-.305-.547-1.554 1.148-6.695 1.172-8.07.027-.789-.484-1.16-1.234-1.16-.969 0-1.852.625-2.426 1.351v-.027c.207-.816.41-1.324.066-1.324zm0 0"/></defs></svg>