<svg width="569" height="500" xmlns="http://www.w3.org/2000/svg" xmlns:xlink="http://www.w3.org/1999/xlink" xml:space="preserve" overflow="hidden"><defs><clipPath id="clip0"><rect x="363" y="92" width="569" height="500"/></clipPath></defs><g clip-path="url(#clip0)" transform="translate(-363 -92)"><path d="M870.589 498.528C870.682 498.486 870.761 498.445 870.843 498.394L870.09 498.703C870.265 498.689 870.441 498.607 870.589 498.528ZM515.921 207.785C516.093 206.791 517.236 205.635 517.8 205.084 518.178 204.706 518.54 204.747 518.835 204.451 519.172 204.128 519.131 203.698 519.669 203.202 520.663 202.287 523.151 200.446 525.315 199.651 527.21 198.99 529.186 198.584 531.189 198.444 531.295 197.717 531.471 196.802 532.252 196.063 533.608 194.772 536.525 193.805 539.952 192.501 544.938 190.619 555.086 187.057 560.368 186.132 564.104 185.471 567.466 185.822 569.307 185.943 570.315 186.012 570.542 186.239 571.31 186.307 572.211 186.386 573.502 186.4 574.403 186.307 575.166 186.225 575.596 185.901 576.42 185.85 577.451 185.781 578.811 185.702 580.235 186.132 581.619 186.534 583.879 187.691 585.355 188.616 585.706 188.51 586.095 188.444 586.566 188.403 587.602 188.334 589.05 188.31 590.489 188.685 592.196 189.129 594.346 190.554 596.135 191.225 597.736 191.83 599.373 192.019 600.692 192.597 601.861 193.107 603.393 194.129 603.743 194.424 603.864 194.517 603.757 194.49 603.878 194.6 604.335 195.016 607.494 197.084 608.299 197.93 608.415 198.049 608.523 198.176 608.623 198.31L609.589 198.685C611.39 199.61 613.084 200.728 614.644 202.019 615.033 202.356 615.005 202.596 615.195 202.786 615.342 202.934 615.532 202.971 615.652 203.106 615.772 203.24 615.717 203.388 615.92 203.604 616.295 204.008 617.803 204.868 618.205 205.243 618.408 205.446 618.274 205.525 618.515 205.7 619.052 206.092 620.638 206.427 622.077 207.245 624.106 208.415 627.613 211.388 629.643 212.624 631.081 213.511 631.862 213.576 633.194 214.451 635.204 215.879 637.137 217.414 638.985 219.047 639.119 219.195 638.971 219.144 639.119 219.278 639.632 219.759 643.435 222.058 644.535 223.067 644.95 223.083 645.36 223.169 645.746 223.321 646.782 223.727 647.439 224.773 649.215 225.782 652.239 227.515 660.879 231.614 663.704 232.718 665.116 233.255 665.329 233.052 666.433 233.445 667.951 233.981 670.49 235.326 672.09 235.904 673.329 236.359 674.079 236.631 675.276 236.817 676.635 237.033 678.625 236.669 679.832 237.006 680.664 237.233 681.353 237.649 681.904 238.093L682.509 237.958C684.443 237.584 688.946 237.663 691.445 237.69 693.42 237.704 695.02 238.203 696.458 237.958 697.697 237.759 698.141 237.071 699.644 236.603 701.62 235.969 706.069 234.827 708.65 234.384 708.784 234.202 708.928 234.028 709.08 233.861 709.472 233.472 709.644 233.39 710.356 233.134 711.715 232.635 715.679 232.033 717.561 231.401 718.748 231.034 719.883 230.514 720.937 229.855 724.147 228.039 735.035 220.985 736.648 219.694 737.105 219.329 736.713 219.45 737.157 219.102 738.665 217.905 750.184 211.092 751.231 210.218 751.461 210.029 751.286 210.07 751.42 209.936 751.702 209.654 752.628 208.793 753.288 208.429 753.635 208.243 754.001 208.081 754.362 207.971 754.458 207.865 754.551 207.772 754.672 207.665 755.37 207.005 756.674 206.24 757.669 205.755 758.597 205.298 759.148 205.325 760.411 204.747 762.496 203.794 766.608 201.238 769.526 199.923 772.172 198.712 774.443 197.824 777.171 197.005 780.089 196.131 783.1 195.553 786.569 194.909L799.685 192.904C801.997 192.731 803.625 192.745 805.063 193 806.192 193.19 806.65 193.805 807.791 193.994 809.282 194.235 812.698 194.06 813.449 193.994 813.704 193.967 813.625 193.902 813.814 193.902 814.134 193.912 814.873 194.036 815.358 194.263L815.571 194.383C815.843 194.276 816.126 194.184 816.381 194.115 816.959 193.994 817.44 194.036 818.114 194.115 818.948 194.221 819.821 194.438 821.029 194.854 822.725 195.432 825.33 197.07 827.495 197.583 829.566 198.065 832.457 197.758 833.692 197.944 834.136 197.987 834.568 198.11 834.969 198.31 835.87 198.712 837.456 199.909 838.705 200.501 839.888 201.08 841.152 201.32 842.266 201.871 843.344 202.407 844.121 203.253 845.263 203.781 846.53 204.372 848.153 204.558 849.551 205.15 851.003 205.769 852.644 206.963 853.842 207.421 854.726 207.772 855.414 207.651 856.112 207.971L856.877 208.387C857.575 208.336 858.129 208.497 858.92 208.845 860.063 209.358 861.635 210.875 863.018 211.587 864.336 212.249 865.668 212.397 867.037 213.04 868.517 213.752 869.7 214.788 871.596 215.782L880.801 219.977 886.259 222.058C887.941 222.585 889.579 222.757 891.192 223.256 892.806 223.755 894.782 224.787 895.924 224.976 896.649 225.11 897.001 224.745 897.565 224.893L897.724 224.935C897.965 224.868 898.213 224.823 898.463 224.8 899.055 224.745 899.323 224.855 900.105 225.069 901.474 225.458 904.285 227.058 906.394 227.436 908.438 227.811 910.441 227.261 912.591 227.436 914.876 227.636 918.169 228.741 919.7 228.631 920.601 228.565 920.722 228.039 921.528 227.89 922.618 227.704 924.686 227.88 925.897 227.89 926.837 227.918 927.322 228.094 928.261 227.987 929.514 227.839 931.261 227.058 932.821 226.803 934.417 226.535 936.261 226.683 937.738 226.442 938.612 226.294 939.471 225.998 940.239 225.782 940.415 225.555 940.628 225.324 940.91 225.11 941.891 224.343 943.921 223.363 945.562 222.826 947.203 222.288 949.392 222.313 950.75 221.91 951.797 221.614 952.241 221.291 953.207 220.823L957.684 218.456C959.835 217.113 962.846 214.371 965.158 213.174 967.041 212.18 968.936 212.125 970.44 211.346 971.396 210.848 972.308 210.015 973.062 209.396L973.141 209.21C973.533 208.377 974.311 207.273 975.009 206.695 975.59 206.227 976.279 205.914 977.012 205.783 977.7 205.673 978.478 205.728 979.111 205.968 979.768 206.226 980.466 206.778 980.897 207.287 981.275 207.772 981.502 208.387 981.623 208.927 981.729 209.424 981.812 209.775 981.623 210.394 981.437 210.968 980.897 211.991 980.332 212.878L980.536 213.081C980.966 213.576 981.303 214.316 981.437 214.908 981.571 215.407 981.447 215.565 981.437 216.36L981.262 225.286 980.157 238.782 980.091 256.333C980.428 256.588 980.735 256.883 980.952 257.114 981.234 257.42 981.354 257.651 981.489 258.026 981.664 258.511 981.719 258.873 981.771 259.856 981.867 261.777 981.729 266.952 981.585 269.883L981.031 276.345 980.952 297.758 980.832 299.155C981.017 299.506 981.155 299.881 981.234 300.325 981.396 301.093 981.262 301.333 981.234 303.053L980.697 332.583C980.763 333.795 980.98 333.485 981.059 334.318 981.179 335.7 981.114 338.525 981.059 340.607 980.993 342.651 981.155 345.163 980.697 346.712L980.577 347.073C981.072 347.758 981.382 348.807 981.437 349.506 981.489 350.084 981.234 350.005 981.165 351.051 980.966 354.037 980.883 368.741 981.072 373.014 981.165 375.219 981.447 375.608 981.53 377.209L981.53 383.766C981.447 384.507 981.396 384.762 981.165 385.219 981.127 385.312 981.072 385.394 981.017 385.487 981.155 386.186 981.207 387.008 981.155 387.559 981.114 387.893 981.045 388.164 980.938 388.419 981.489 391.457 980.804 404.398 980.952 408.417L981.313 412.612 981.313 422.732 980.859 433.581 980.711 434.52C980.993 435.125 981.207 435.88 981.234 436.416 981.275 437.063 980.897 437.262 980.79 438.15 980.577 439.736 980.577 442.128 980.508 445.892L980.332 475.422 980.239 476.444C980.452 476.768 980.615 477.129 980.749 477.786 981.114 479.603 980.966 484.037 980.845 487.077L980.022 495.827 979.74 506.483C979.888 507.907 980.414 508.299 980.562 509.401 980.735 510.691 980.804 512.68 980.562 513.781 980.387 514.59 979.837 514.899 979.661 515.598 979.555 516 979.568 516.495 979.582 516.995 979.661 517.064 979.716 517.129 979.782 517.198 980.264 517.7 980.585 518.337 980.697 519.025 981.007 520.556 980.749 524.011 980.697 526.23L980.414 531.78 980.601 540.073C980.549 540.799 980.508 540.934 980.332 541.35 980.098 541.875 979.77 542.352 979.365 542.76 979.258 542.882 979.137 542.99 979.004 543.083 978.815 543.731 978.505 544.522 977.82 545.155 976.812 546.08 974.648 546.996 972.9 547.612 971.125 548.245 968.599 548.448 967.254 548.891 966.341 549.185 966.004 549.629 965.241 549.804 964.391 549.993 963.289 549.938 962.323 549.897L961.555 549.859C961.245 550.007 960.898 550.1 960.561 550.182 959.783 550.368 958.799 550.316 958.008 550.182 957.254 550.058 956.463 549.776 955.912 549.457 955.454 549.185 955.172 548.809 954.863 548.499L954.096 547.639C953.814 547.385 953.504 547.265 953.221 546.955 952.819 546.484 952.484 545.959 952.227 545.396 951.931 544.749 951.931 543.676 951.584 543.162 951.302 542.76 950.831 542.788 950.493 542.399 950.063 541.9 949.567 540.947 949.313 540.3 949.082 539.749 949.216 539.388 948.948 538.742 948.532 537.802 947.107 536.161 946.663 535.1 946.326 534.278 946.288 533.701 946.206 532.923L946.168 532.451C945.776 532.238 945.414 531.98 945.145 531.753 944.688 531.323 944.512 531.013 944.23 530.287 943.8 529.131 943.639 526.591 943.143 525.006 942.699 523.553 941.932 522.614 941.502 521.082 941.006 519.294 940.508 516.055 940.508 514.803L940.508 514.494C940.429 514.42 940.358 514.34 940.294 514.253 939.568 513.313 938.842 510.316 938.195 509.373 937.82 508.809 937.456 508.892 937.107 508.42 936.622 507.787 936.22 506.445 935.697 505.733L935.494 505.502 935.291 505.381C934.272 504.804 932.16 503.177 931.516 502.598 931.193 502.316 931.341 502.237 931.004 502.01 930.36 501.58 928.113 500.961 927.188 500.462 926.793 500.269 926.418 500.034 926.072 499.763 925.144 499.157 924.109 498.407 923.113 498.07 921.435 497.519 918.961 497.802 917.646 497.344 917.038 497.149 916.476 496.834 915.991 496.418L914.728 496.322C913.614 496.215 912.777 495.813 911.449 495.693 909.742 495.531 907.564 495.383 905.159 495.693 902.186 496.067 897.538 497.816 894.861 498.246L891.798 498.621C891.664 498.782 891.529 498.944 891.367 499.078 890.545 499.818 889.431 500.045 887.82 500.624 885.398 501.497 880.185 502.639 877.697 503.634 875.95 504.332 875.061 505.154 873.785 505.733 872.604 506.27 871.38 506.445 870.32 507.009 869.793 507.278 869.298 507.708 868.827 508.11 868.785 508.217 868.734 508.323 868.679 508.433 868.4 509.082 867.943 509.636 867.361 510.034 865.977 511.042 862.159 512.13 859.984 513.499 857.926 514.776 855.734 516.782 854.554 517.91 853.786 518.646 853.569 519.201 853.046 519.696 852.561 520.154 852.025 520.395 851.543 520.825 851.044 521.282 850.72 521.795 850.129 522.332 849.393 523.003 847.682 524.2 847.348 524.523 847.242 524.63 847.307 524.616 847.214 524.71 846.984 524.927 846.179 525.343 845.628 525.934 844.888 526.712 844.042 528.553 843.302 529.172 842.885 529.509 842.497 529.643 842.104 529.736 841.502 530.934 840.495 532.451 840.278 532.775 840.198 532.896 840.225 532.817 840.143 532.909 839.875 533.219 838.543 535.045 838.182 535.42 838.021 535.583 838.034 535.448 837.859 535.652 837.335 536.243 834.82 540.3 834.39 540.799 834.283 540.934 834.324 540.799 834.214 540.934 832.985 542.624 831.858 544.388 830.843 546.215 830.547 546.862 830.736 547.01 830.478 547.588 830.089 548.472 829.094 550.182 828.382 551.135 827.777 551.941 826.999 552.237 826.555 553.055 826.07 553.957 826.176 555.516 825.736 556.431 825.385 557.162 824.869 557.801 824.23 558.299 824.039 558.447 823.826 558.581 823.609 558.688 823.637 558.85 823.651 559.011 823.664 559.173 823.733 559.993 823.448 560.88 823.207 561.726 822.966 562.573 822.763 563.34 822.213 564.279 821.501 565.464 819.753 567.438 818.975 568.234 818.517 568.701 818.142 568.891 817.925 569.107 817.805 569.241 817.777 569.348 817.698 569.427 817.619 569.506 817.55 569.455 817.468 569.561 817.334 569.764 817.402 570.235 817.107 570.838 816.542 571.97 814.498 575.221 813.504 576.162 813.092 576.596 812.549 576.885 811.959 576.984 811.247 577.169 810.317 577.142 809.402 577.076 808.398 577.008 807.252 576.956 806.123 576.54 804.846 576.041 802.631 574.523 802.159 574.121 801.997 573.973 802.08 573.973 801.983 573.849 801.808 573.608 801.526 573.177 801.11 572.802 800.642 572.359 799.685 571.874 799.069 571.365 798.625 571.258 798.154 571.083 797.738 570.838 797.011 570.422 796.313 569.682 795.694 568.97 795.037 568.234 794.497 567.101 793.908 566.472 793.436 565.959 793.006 565.825 792.494 565.33 791.864 564.709 791.083 563.581 790.453 562.924 789.913 562.346 789.459 562.115 788.946 561.499 788.316 560.746 787.48 559.507 787.026 558.581 786.634 557.801 786.62 556.917 786.258 556.352 785.949 555.88 785.306 555.53 785.116 555.302 785.024 555.196 785.034 555.141 784.982 555.072 784.913 555.02 784.821 555.007 784.752 554.938 784.686 554.886 784.673 554.776 784.618 554.711 784.563 554.646 784.456 554.642 784.391 554.577 784.325 554.511 784.312 554.456 784.202 554.307 783.974 553.97 783.114 553.152 782.845 552.385 782.79 552.237 782.735 552.089 782.697 551.913 782.482 551.819 782.275 551.707 782.078 551.579 781.607 551.283 781.445 551.19 780.842 550.437 779.484 548.781 774.673 541.068 773.786 540.007 773.531 539.712 773.624 539.994 773.37 539.684 772.454 538.58 767.524 530.208 766.03 528.529 765.373 527.776 764.981 527.882 764.619 527.48 764.312 527.135 764.079 526.732 763.934 526.296 763.755 526.158 763.588 526.005 763.435 525.838 762.372 524.695 761.66 522.346 760.425 520.542 759.068 518.553 756.702 516.444 755.504 514.442 754.472 512.694 754.163 510.622 753.408 509.253 753.047 508.582 752.562 508.041 752.146 507.56 751.8 507.379 751.487 507.143 751.216 506.861 750.236 505.812 749.538 503.055 748.488 501.432 747.48 499.883 745.977 498.284 745.061 497.288 744.431 496.59 743.946 496.391 743.475 495.785 742.965 495.128 742.614 494.051 742.146 493.459 741.782 492.988 741.5 493.057 741.015 492.41 740.291 491.456 738.623 488.755 737.587 486.78 737.267 486.594 736.967 486.377 736.689 486.133 736.084 485.597 735.413 484.362 735.182 484.079 735.104 483.982 735.13 484.051 735.049 483.945 734.752 483.594 733.716 481.846 732.722 480.893 731.593 479.816 729.012 478.405 728.49 477.923 728.3 477.762 728.435 477.748 728.249 477.614 727.843 477.304 726.38 476.578 725.331 476.241 724.253 475.893 722.898 475.907 721.877 475.597 720.947 475.343 720.359 474.816 719.416 474.603 718.356 474.359 717.534 474.386 715.775 474.335L714.255 474.307C714.134 474.441 713.987 474.589 713.784 474.751 712.455 475.797 707.992 477.411 706.231 478.487 705.022 479.2 704.792 479.764 703.677 480.394 702.197 481.226 699.025 482.129 697.845 482.854 697.119 483.298 696.995 483.58 696.513 484.093 695.922 484.723 694.955 485.665 694.51 486.457 694.132 487.142 694.201 487.895 693.877 488.552 693.554 489.209 693.327 489.829 692.56 490.421 692.199 490.689 691.689 490.999 691.111 491.281 691.07 491.47 691.001 491.659 690.908 491.859 690.639 492.385 690.285 492.862 689.859 493.27 689.336 493.782 688.341 494.347 687.897 494.777 687.602 495.073 687.481 495.383 687.306 495.545 687.185 495.665 687.13 495.569 686.982 495.772 686.607 496.308 685.881 498.634 685.076 500.058 684.216 501.58 682.495 503.889 681.89 504.563 681.621 504.859 681.525 504.683 681.339 504.979 680.946 505.571 680.506 507.666 680.062 508.62 679.711 509.373 679.216 510.154 678.972 510.395 678.852 510.515 678.786 510.409 678.69 510.543 678.504 510.811 678.463 511.903 678.152 512.546 677.815 513.23 677.588 513.836 676.742 514.494 676.409 514.759 676.058 515.001 675.693 515.219 675.365 516.18 674.937 517.105 674.416 517.975 673.625 519.335 671.539 521.619 671.178 522.036 671.082 522.157 671.137 522.064 671.044 522.17 670.721 522.573 669.296 524.279 668.315 525.824 667.011 527.841 665.37 531.564 664.024 533.566 662.992 535.114 661.688 536.512 661.069 537.169 660.745 537.506 660.68 537.451 660.384 537.76 659.872 538.26 658.622 539.722 658.233 540.086 658.072 540.234 658.072 540.152 657.924 540.313 657.601 540.623 657.064 541.752 656.42 542.265 655.673 542.857 654.798 543.266 653.863 543.458 652.697 543.704 651.014 543.607 649.765 543.458 648.636 543.31 647.601 543.138 646.662 542.64 645.691 542.103 644.779 541.202 644.067 540.313 643.355 539.426 642.828 538.233 642.426 537.303 642.171 536.725 641.968 536.161 641.834 535.638 641.75 535.552 641.67 535.461 641.593 535.37 640.302 533.848 637.533 528.649 636.312 526.254 635.438 524.561 634.9 523.502 634.484 522.157L633.917 519.937C633.495 519.706 633.095 519.436 632.723 519.131 632.01 518.553 631.7 517.748 630.854 516.902 629.711 515.759 627.048 513.849 626.164 512.934 625.665 512.425 625.934 512.116 625.29 511.793 624.847 511.565 624.024 511.363 623.043 511.187 623.016 511.201 623.006 511.201 622.978 511.215 622.428 511.418 621.701 511.459 621.068 511.483 620.435 511.507 620.046 511.27 619.242 511.39 617.978 511.579 615.181 512.828 613.96 513.031 613.205 513.165 613.044 512.8 612.318 513.031 611.176 513.406 608.798 515.395 607.332 516.134L606.661 516.806C605.746 517.68 603.314 519.456 602.601 520.126 602.25 520.463 602.277 520.57 602.009 520.811 601.658 521.134 601.042 521.457 600.599 521.86 600.126 522.291 599.752 522.91 599.28 523.367 598.809 523.825 598.152 524.227 597.777 524.602 597.467 524.885 597.532 524.992 597.088 525.37 596.094 526.216 592.468 528.862 590.799 529.657 589.657 530.195 588.957 530.26 587.977 530.384 586.956 530.518 585.892 530.463 584.791 530.384 583.607 530.301 582.159 530.26 581.136 529.843 580.235 529.468 579.403 528.608 578.904 528.15 578.569 527.841 578.542 527.679 578.218 527.386 577.761 526.942 576.781 526.364 576.272 525.786 575.786 525.246 575.397 524.682 575.166 524.052L574.991 523.502C574.523 523.243 574.052 522.948 573.77 522.679 573.426 522.359 573.175 521.951 573.043 521.499 572.854 520.972 572.964 520.422 572.761 519.683 572.493 518.622 571.994 517.036 571.31 515.663 570.542 514.16 568.863 512.357 568.299 511.014 567.869 510.02 567.854 509.373 567.748 508.378 567.679 507.787 567.655 507.047 567.627 506.321 566.846 505.45 566.337 503.999 565.949 502.546 565.491 500.854 565.677 498.851 565.223 496.618 564.658 493.917 563.299 489.467 562.573 487.41 562.115 486.133 561.657 485.703 561.389 484.764 561.121 483.824 561.042 482.947 560.935 481.767 560.798 480.26 560.732 477.786 560.746 476.389 560.774 475.353 561.028 474.696 560.935 473.915 560.88 473.526 560.718 473.151 560.557 472.772 560.086 472.559 559.617 472.263 559.335 472.009 558.943 471.671 558.808 471.376 558.595 470.88 558.327 470.219 558.165 469.59 557.962 468.324 557.615 466.121 557.532 460.234 557.05 457.936 556.754 456.511 556.417 455.946 555.959 455.018 555.502 454.088 554.711 453.283 554.322 452.372 553.929 451.497 553.743 450.61 553.582 449.643 553.42 448.593 553.771 447.451 553.406 446.267 552.963 444.87 551.524 442.733 550.812 441.846 550.368 441.309 549.993 441.24 549.67 440.892 549.347 440.545 549.24 440.111 548.891 439.75 548.544 439.389 547.884 439.038 547.478 438.687 547.034 438.808 546.363 439.238 545.637 439.75 545.623 439.87 545.595 439.991 545.557 440.125 545.073 442.035 541.835 447.52 540.637 450.248L538.728 455.262 537.182 461.094C536.591 462.815 535.597 464.548 535.166 465.918 534.846 466.981 534.925 467.92 534.629 468.647 534.426 469.16 534.158 469.548 533.848 469.885 533.635 470.463 533.419 471.094 533.26 471.806 532.762 473.956 532.478 477.638 531.887 479.912 531.405 481.781 530.652 482.868 530.153 484.658 529.588 486.697 529.537 489.536 528.783 491.577 528.123 493.394 526.966 495.476 526.106 496.429 526.12 496.687 526.106 496.969 526.106 497.33 526.096 498.339 526.161 500.003 525.838 501.511 525.449 503.259 524.186 505.044 523.742 507.171 523.23 509.549 523.687 513.34 523.192 515.182 522.943 516.152 522.459 517.048 521.781 517.786 521.671 517.896 521.578 517.976 521.471 518.058 521.726 518.216 521.93 518.392 522.05 518.553 522.291 518.904 522.225 519.349 522.143 519.655 522.078 519.902 521.93 520.121 521.726 520.274 521.591 521.134 521.296 522.249 520.972 523.271 520.515 524.71 519.483 526.564 519.145 527.923 518.877 529.01 519.066 530.074 518.877 530.838 518.729 531.429 518.608 531.969 518.285 532.252 517.989 532.506 517.425 532.571 517.102 532.52 516.82 532.478 516.579 532.276 516.416 532.117 516.268 531.98 516.213 532.035 516.134 531.66 515.907 530.435 515.783 522.36 516.014 519.266 515.825 518.997 515.704 518.512 515.759 518.192 515.797 517.924 516.055 517.614 516.255 517.411 516.189 517.346 516.134 517.263 516.079 517.198 515.636 516.523 515.367 515.811 515.261 514.549 515.085 512.518 515.436 508.096 515.986 505.529 516.152 504.82 516.381 504.127 516.672 503.459 516.485 503.393 516.323 503.273 516.189 502.962 515.704 501.765 515.704 495.558 516.014 494.212 516.148 493.635 516.403 493.487 516.606 493.353 516.741 493.246 516.968 493.408 517.009 493.26 517.102 492.964 516.268 491.9 516.107 490.933 515.88 489.695 516.014 488.002 516.107 486.281L516.296 482.854C516.162 482.545 516.066 482.101 516.079 481.712 516.107 481.268 516.43 480.638 516.62 480.139 516.644 479.964 516.686 479.816 516.727 479.682 516.699 479.334 516.444 479.4 516.361 479.066 516.189 478.364 516.323 476.228 516.361 474.964L516.537 471.778C516.537 471.324 516.444 471.389 516.444 470.77 516.458 469.252 517.023 464.146 517.088 461.025L516.902 452.547 516.954 451.16C516.741 450.799 516.55 450.383 516.43 449.939 516.079 448.823 516.107 446.901 516.148 445.933 516.176 445.286 516.444 444.949 516.43 444.482 516.416 444.014 516.134 443.714 516.055 443.108 515.959 442.224 516 440.717 516.055 439.468L516.31 435.838C516.176 433.688 516.282 426.939 516.31 423.258L516.348 416.968C516.227 416.603 516.121 416.173 516.028 415.623 515.381 411.793 515.718 398.511 516.028 394.024 516.203 391.495 516.658 390.611 516.847 389.01L517.116 384.724C517.05 383.997 516.741 383.701 516.658 383.082 516.416 382.531 516.241 381.954 516.134 381.361 515.718 379.156 516.014 374.318 516.134 371.793 516.213 369.91 516.509 368.995 516.593 367.237L516.593 359.763C516.471 357.933 516.055 356.549 515.945 354.936 515.835 353.322 515.825 351.346 515.945 350.019 516.055 348.996 516.107 348.298 516.485 347.49 516.203 346.309 516.31 344.493 516.389 343.391 516.444 342.531 516.672 342.29 516.754 341.296 516.875 339.641 516.782 336.847 516.754 333.901L516.485 320.42C516.537 318.792 516.768 318.51 516.847 317.141 516.926 315.771 516.847 313.39 516.861 311.615 516.241 310.754 515.732 309.626 515.477 308.311 515.182 306.725 515.395 304.547 515.477 302.572L516.028 296.186 516.028 289.627 515.746 281.885C515.866 279.467 516.241 276.4 516.658 274.869 516.714 274.649 516.787 274.433 516.875 274.223 516.793 273.71 516.734 273.195 516.699 272.677 516.43 269.25 516.485 258.243 516.606 253.632L516.782 248.832C516.62 248.563 516.471 248.268 516.348 247.958 516.055 247.181 515.894 246.413 515.894 245.312 515.907 243.832 516.644 241.682 516.806 239.666 516.981 237.463 516.847 235.567 516.806 232.556L516.348 216.143 516.403 215.755C516.361 215.662 516.337 215.565 516.31 215.473 516.09 214.672 516.03 213.836 516.134 213.012 516.224 212.334 516.414 211.673 516.699 211.051 516.203 210.218 515.746 208.779 515.921 207.785Z" fill="#4A90E2" fill-opacity="0.75" transform="matrix(1.0002 0 0 1 -101.435 -40.3741)"/><path d="M516.134 206.454 516.134 543.486M980.656 203.874 980.656 541.941M516.134 206.454C531.337 195.068 544.684 188.926 556.754 186.479 626.659 172.396 653.137 282.811 741.163 216.776M741.163 216.776C844.389 139.357 877.429 281.293 980.656 203.874M516.134 543.486C570.838 285.419 542.451 597.681 604.387 517.68M604.387 517.68C637.935 494.453 634.618 540.596 651.782 544.213 668.931 547.801 702.452 422.195 746.324 499.615M746.324 499.615C852.131 662.198 782.453 522.841 898.583 497.034M898.583 497.034C906.326 494.453 932.133 494.453 939.874 512.518 947.616 530.583 946.904 567.263 980.656 541.941" stroke="#000000" stroke-width="2.58068" fill="none" transform="matrix(1.0002 0 0 1 -101.435 -40.3741)"/><path d="M516.644 246.708 981.165 249.289" stroke="#000000" stroke-width="2.58068" stroke-dasharray="2.90326 8.64525" fill="none" transform="matrix(1.0002 0 0 1 -101.435 -40.3741)"/><path d="M803.099 200.257 803.099 246.708M813.422 226.064 792.776 226.064M643.096 388.646 711.42 465.812" stroke="#000000" stroke-width="2.58068" fill="none" transform="matrix(1.0002 0 0 1 -101.435 -40.3741)"/><path d="M689.794 454.184C700.264 458.648 708.608 463.809 714.846 469.686 709.764 462.774 705.653 453.864 702.507 442.936" stroke="#000000" stroke-width="2.58412" fill="none" transform="matrix(1.0002 0 0 1 -101.435 -40.3741)"/><path d="M255.996 313.806C358.205 237.167 377.425 291.024 515.02 305.634M490.328 311.749C501.026 307.891 510.663 305.995 519.224 306.064 510.811 304.465 501.738 300.713 491.993 294.854M266.319 388.646C415.997 788.65 1688.27 853.167 980.656 376.27" stroke="#000000" stroke-width="2.58068" fill="none" transform="matrix(1.0002 0 0 1 -101.435 -40.3741)"/><path d="M1008.78 384.992C997.537 383.295 988.17 380.391 980.656 376.27 987.297 381.671 993.521 389.279 999.298 399.065" stroke="#000000" stroke-width="2.58068" fill="none" transform="matrix(1.0002 0 0 1 -101.435 -40.3741)"/><path d="M492.599 345.098 491.941 349.089 493.473 349.089C493.862 346.86 494.522 344.224 495.355 342.29L472.586 342.29 472.586 343.738 474.655 343.738C476.713 343.821 476.805 344.303 476.228 347.692L472.721 367.384C472.101 370.891 471.754 371.376 469.83 371.469L467.453 371.469 467.453 372.787 480.528 372.787 480.528 371.335 478.474 371.335C476.403 371.242 476.324 370.756 476.888 367.384L480.92 344.479C484.737 343.876 488.686 343.956 492.599 345.098Z" transform="matrix(1.0002 0 0 1 -101.435 -40.3741)"/><path d="M492.599 345.098 491.941 349.089 493.473 349.089C493.862 346.86 494.522 344.224 495.355 342.29L472.586 342.29 472.586 343.738 474.655 343.738C476.713 343.821 476.805 344.303 476.228 347.692L472.721 367.384C472.101 370.891 471.754 371.376 469.83 371.469L467.453 371.469 467.453 372.787 480.528 372.787 480.528 371.335 478.474 371.335C476.403 371.242 476.324 370.756 476.888 367.384L480.92 344.479C484.737 343.876 488.686 343.956 492.599 345.098Z" stroke="#000000" stroke-width="0.350971" fill="none" transform="matrix(1.0002 0 0 1 -101.435 -40.3741)"/><path d="M503.153 375.178 502.264 379.077C502.144 379.588 502.081 380.111 502.075 380.635 502.075 381.32 502.357 381.713 502.815 381.713 503.514 381.713 504.776 380.917 507.291 378.835L507.075 378.189C506.349 378.794 505.45 379.628 504.776 379.628 504.508 379.628 504.319 379.346 504.319 378.915 504.319 378.767 504.319 378.674 504.346 378.578L507.171 366.941 506.861 366.669 505.854 367.223C504.59 366.765 504.078 366.645 503.245 366.645 502.385 366.645 501.765 366.793 500.933 367.195 499.037 368.134 498.015 369.064 497.251 370.567 495.906 373.296 494.953 376.992 494.953 379.387 494.953 380.728 495.41 381.778 495.999 381.778 497.13 381.778 499.587 380.178 503.153 375.178ZM504.628 368.727C503.944 372.075 503.366 373.675 502.316 375.271 500.572 377.841 498.703 379.628 497.719 379.628 497.344 379.628 497.154 379.225 497.154 378.406 497.154 376.428 498.015 372.838 499.092 370.381 499.831 368.699 500.544 368.134 502.01 368.134 502.722 368.134 503.273 368.269 504.628 368.727Z" transform="matrix(1.0002 0 0 1 -101.435 -40.3741)"/><path d="M503.153 375.178 502.264 379.077C502.144 379.588 502.081 380.111 502.075 380.635 502.075 381.32 502.357 381.713 502.815 381.713 503.514 381.713 504.776 380.917 507.291 378.835L507.075 378.189C506.349 378.794 505.45 379.628 504.776 379.628 504.508 379.628 504.319 379.346 504.319 378.915 504.319 378.767 504.319 378.674 504.346 378.578L507.171 366.941 506.861 366.669 505.854 367.223C504.59 366.765 504.078 366.645 503.245 366.645 502.385 366.645 501.765 366.793 500.933 367.195 499.037 368.134 498.015 369.064 497.251 370.567 495.906 373.296 494.953 376.992 494.953 379.387 494.953 380.728 495.41 381.778 495.999 381.778 497.13 381.778 499.587 380.178 503.153 375.178ZM504.628 368.727C503.944 372.075 503.366 373.675 502.316 375.271 500.572 377.841 498.703 379.628 497.719 379.628 497.344 379.628 497.154 379.225 497.154 378.406 497.154 376.428 498.015 372.838 499.092 370.381 499.831 368.699 500.544 368.134 502.01 368.134 502.722 368.134 503.273 368.269 504.628 368.727Z" stroke="#000000" stroke-width="0.244304" fill="none" transform="matrix(1.0002 0 0 1 -101.435 -40.3741)"/><path d="M492.599 345.098 491.941 349.089 493.473 349.089C493.862 346.86 494.522 344.224 495.355 342.29L472.586 342.29 472.586 343.738 474.655 343.738C476.713 343.821 476.805 344.303 476.228 347.692L472.721 367.384C472.101 370.891 471.754 371.376 469.83 371.469L467.453 371.469 467.453 372.787 480.528 372.787 480.528 371.335 478.474 371.335C476.403 371.242 476.324 370.756 476.888 367.384L480.92 344.479C484.737 343.876 488.686 343.956 492.599 345.098Z" transform="matrix(1.0002 0 0 1 422.545 -40.3741)"/><path d="M492.599 345.098 491.941 349.089 493.473 349.089C493.862 346.86 494.522 344.224 495.355 342.29L472.586 342.29 472.586 343.738 474.655 343.738C476.713 343.821 476.805 344.303 476.228 347.692L472.721 367.384C472.101 370.891 471.754 371.376 469.83 371.469L467.453 371.469 467.453 372.787 480.528 372.787 480.528 371.335 478.474 371.335C476.403 371.242 476.324 370.756 476.888 367.384L480.92 344.479C484.737 343.876 488.686 343.956 492.599 345.098Z" stroke="#000000" stroke-width="0.350971" fill="none" transform="matrix(1.0002 0 0 1 422.545 -40.3741)"/><path d="M503.153 375.178 502.264 379.077C502.144 379.588 502.081 380.111 502.075 380.635 502.075 381.32 502.357 381.713 502.815 381.713 503.514 381.713 504.776 380.917 507.291 378.835L507.075 378.189C506.349 378.794 505.45 379.628 504.776 379.628 504.508 379.628 504.319 379.346 504.319 378.915 504.319 378.767 504.319 378.674 504.346 378.578L507.171 366.941 506.861 366.669 505.854 367.223C504.59 366.765 504.078 366.645 503.245 366.645 502.385 366.645 501.765 366.793 500.933 367.195 499.037 368.134 498.015 369.064 497.251 370.567 495.906 373.296 494.953 376.992 494.953 379.387 494.953 380.728 495.41 381.778 495.999 381.778 497.13 381.778 499.587 380.178 503.153 375.178ZM504.628 368.727C503.944 372.075 503.366 373.675 502.316 375.271 500.572 377.841 498.703 379.628 497.719 379.628 497.344 379.628 497.154 379.225 497.154 378.406 497.154 376.428 498.015 372.838 499.092 370.381 499.831 368.699 500.544 368.134 502.01 368.134 502.722 368.134 503.273 368.269 504.628 368.727Z" transform="matrix(1.0002 0 0 1 422.545 -40.3741)"/><path d="M503.153 375.178 502.264 379.077C502.144 379.588 502.081 380.111 502.075 380.635 502.075 381.32 502.357 381.713 502.815 381.713 503.514 381.713 504.776 380.917 507.291 378.835L507.075 378.189C506.349 378.794 505.45 379.628 504.776 379.628 504.508 379.628 504.319 379.346 504.319 378.915 504.319 378.767 504.319 378.674 504.346 378.578L507.171 366.941 506.861 366.669 505.854 367.223C504.59 366.765 504.078 366.645 503.245 366.645 502.385 366.645 501.765 366.793 500.933 367.195 499.037 368.134 498.015 369.064 497.251 370.567 495.906 373.296 494.953 376.992 494.953 379.387 494.953 380.728 495.41 381.778 495.999 381.778 497.13 381.778 499.587 380.178 503.153 375.178ZM504.628 368.727C503.944 372.075 503.366 373.675 502.316 375.271 500.572 377.841 498.703 379.628 497.719 379.628 497.344 379.628 497.154 379.225 497.154 378.406 497.154 376.428 498.015 372.838 499.092 370.381 499.831 368.699 500.544 368.134 502.01 368.134 502.722 368.134 503.273 368.269 504.628 368.727Z" stroke="#000000" stroke-width="0.244304" fill="none" transform="matrix(1.0002 0 0 1 422.545 -40.3741)"/><path d="M492.599 345.098 491.941 349.089 493.473 349.089C493.862 346.86 494.522 344.224 495.355 342.29L472.586 342.29 472.586 343.738 474.655 343.738C476.713 343.821 476.805 344.303 476.228 347.692L472.721 367.384C472.101 370.891 471.754 371.376 469.83 371.469L467.453 371.469 467.453 372.787 480.528 372.787 480.528 371.335 478.474 371.335C476.403 371.242 476.324 370.756 476.888 367.384L480.92 344.479C484.737 343.876 488.686 343.956 492.599 345.098Z" transform="matrix(1.0002 0 0 1 156.681 207.373)"/><path d="M492.599 345.098 491.941 349.089 493.473 349.089C493.862 346.86 494.522 344.224 495.355 342.29L472.586 342.29 472.586 343.738 474.655 343.738C476.713 343.821 476.805 344.303 476.228 347.692L472.721 367.384C472.101 370.891 471.754 371.376 469.83 371.469L467.453 371.469 467.453 372.787 480.528 372.787 480.528 371.335 478.474 371.335C476.403 371.242 476.324 370.756 476.888 367.384L480.92 344.479C484.737 343.876 488.686 343.956 492.599 345.098Z" stroke="#000000" stroke-width="0.350971" fill="none" transform="matrix(1.0002 0 0 1 156.681 207.373)"/><path d="M760.115 607.009 759.74 606.672C758.154 607.466 757.039 607.748 754.833 607.965L754.713 608.609 756.178 608.609C756.919 608.609 757.225 608.826 757.225 609.349 757.225 609.562 757.201 609.899 757.159 610.088L754.066 627.01C754.028 627.089 754.028 627.225 754.028 627.307 754.028 628.514 755.504 629.522 757.201 629.522 758.329 629.522 759.902 628.944 761.219 627.991 764.161 625.892 766.191 621.687 766.191 617.641 766.191 616.471 765.923 615.274 765.545 614.82 765.332 614.538 764.929 614.39 764.471 614.39 763.731 614.39 762.816 614.63 761.955 615.06 760.383 615.879 759.375 616.809 757.469 619.242ZM762.792 616.161C763.583 616.161 763.986 616.874 763.986 618.381 763.986 620.342 763.342 622.978 762.414 624.981 761.405 627.089 760.17 628.084 758.515 628.084 757.104 628.084 756.34 627.372 756.34 626.082 756.34 625.032 756.795 620.707 759.282 618.099 760.291 617.05 761.89 616.161 762.792 616.161Z" transform="matrix(1.0002 0 0 1 -101.435 -40.3741)"/><path d="M760.115 607.009 759.74 606.672C758.154 607.466 757.039 607.748 754.833 607.965L754.713 608.609 756.178 608.609C756.919 608.609 757.225 608.826 757.225 609.349 757.225 609.562 757.201 609.899 757.159 610.088L754.066 627.01C754.028 627.089 754.028 627.225 754.028 627.307 754.028 628.514 755.504 629.522 757.201 629.522 758.329 629.522 759.902 628.944 761.219 627.991 764.161 625.892 766.191 621.687 766.191 617.641 766.191 616.471 765.923 615.274 765.545 614.82 765.332 614.538 764.929 614.39 764.471 614.39 763.731 614.39 762.816 614.63 761.955 615.06 760.383 615.879 759.375 616.809 757.469 619.242ZM762.792 616.161C763.583 616.161 763.986 616.874 763.986 618.381 763.986 620.342 763.342 622.978 762.414 624.981 761.405 627.089 760.17 628.084 758.515 628.084 757.104 628.084 756.34 627.372 756.34 626.082 756.34 625.032 756.795 620.707 759.282 618.099 760.291 617.05 761.89 616.161 762.792 616.161Z" stroke="#000000" stroke-width="0.244304" fill="none" transform="matrix(1.0002 0 0 1 -101.435 -40.3741)"/><path d="M492.599 345.098 491.941 349.089 493.473 349.089C493.862 346.86 494.522 344.224 495.355 342.29L472.586 342.29 472.586 343.738 474.655 343.738C476.713 343.821 476.805 344.303 476.228 347.692L472.721 367.384C472.101 370.891 471.754 371.376 469.83 371.469L467.453 371.469 467.453 372.787 480.528 372.787 480.528 371.335 478.474 371.335C476.403 371.242 476.324 370.756 476.888 367.384L480.92 344.479C484.737 343.876 488.686 343.956 492.599 345.098Z" transform="matrix(1.0002 0 0 1 159.26 -249.409)"/><path d="M492.599 345.098 491.941 349.089 493.473 349.089C493.862 346.86 494.522 344.224 495.355 342.29L472.586 342.29 472.586 343.738 474.655 343.738C476.713 343.821 476.805 344.303 476.228 347.692L472.721 367.384C472.101 370.891 471.754 371.376 469.83 371.469L467.453 371.469 467.453 372.787 480.528 372.787 480.528 371.335 478.474 371.335C476.403 371.242 476.324 370.756 476.888 367.384L480.92 344.479C484.737 343.876 488.686 343.956 492.599 345.098Z" stroke="#000000" stroke-width="0.350971" fill="none" transform="matrix(1.0002 0 0 1 159.26 -249.409)"/><path d="M756.433 167.864C756.271 169.423 756.082 170.5 755.748 171.911 756.919 172.461 757.964 172.743 759.041 172.743 760.545 172.743 761.955 172.193 763.518 170.957 765.081 169.722 765.734 168.59 765.734 167.059 765.734 165.404 764.753 164.516 762.483 164.09L761.15 163.832C759.31 163.498 758.731 162.971 758.731 161.722 758.731 160.094 760.115 158.832 761.862 158.832 763.126 158.832 764.295 159.382 764.781 160.215L764.781 161.898 765.493 161.898C765.614 160.821 765.734 160.001 766.071 158.43 764.874 157.852 764.013 157.61 763.005 157.61 761.405 157.61 759.523 158.522 758.061 160.001 757.304 160.693 756.887 161.679 756.919 162.703 756.919 164.423 757.871 165.404 759.902 165.81L761.835 166.172C763.181 166.412 763.676 166.963 763.676 168.16 763.676 170.163 762.266 171.522 760.088 171.522 759.025 171.529 757.998 171.145 757.201 170.445L757.201 167.864Z" transform="matrix(1.0002 0 0 1 -101.435 -40.3741)"/><path d="M756.433 167.864C756.271 169.423 756.082 170.5 755.748 171.911 756.919 172.461 757.964 172.743 759.041 172.743 760.545 172.743 761.955 172.193 763.518 170.957 765.081 169.722 765.734 168.59 765.734 167.059 765.734 165.404 764.753 164.516 762.483 164.09L761.15 163.832C759.31 163.498 758.731 162.971 758.731 161.722 758.731 160.094 760.115 158.832 761.862 158.832 763.126 158.832 764.295 159.382 764.781 160.215L764.781 161.898 765.493 161.898C765.614 160.821 765.734 160.001 766.071 158.43 764.874 157.852 764.013 157.61 763.005 157.61 761.405 157.61 759.523 158.522 758.061 160.001 757.304 160.693 756.887 161.679 756.919 162.703 756.919 164.423 757.871 165.404 759.902 165.81L761.835 166.172C763.181 166.412 763.676 166.963 763.676 168.16 763.676 170.163 762.266 171.522 760.088 171.522 759.025 171.529 757.998 171.145 757.201 170.445L757.201 167.864Z" stroke="#000000" stroke-width="0.244304" fill="none" transform="matrix(1.0002 0 0 1 -101.435 -40.3741)"/><path d="M750.749 296.495C759.255 296.495 760.652 302.327 759.338 309.788 758.288 315.971 755.088 322.288 747.937 323.217L747.401 326.201 761.003 326.455 762.806 319.842 762.806 319.708 761.969 319.708 761.969 319.842C761.003 322.167 760.882 322.908 758.246 322.908L752.628 322.908C758.945 320.448 763.074 315.097 764.216 308.741 765.882 299.265 759.685 295.311 750.962 295.311 742.146 295.311 734.16 298.956 732.44 308.741 731.311 315.056 733.582 320.448 739.026 322.908L733.369 322.908C730.692 322.908 730.774 322.033 730.599 319.708L729.724 319.708 729.336 326.455 742.979 326.201 743.503 323.217C736.62 322.288 735.788 315.892 736.875 309.653 738.235 301.98 742.401 296.495 750.749 296.495Z" transform="matrix(1.0002 0 0 1 -101.435 -40.3741)"/><path d="M750.749 296.495C759.255 296.495 760.652 302.327 759.338 309.788 758.288 315.971 755.088 322.288 747.937 323.217L747.401 326.201 761.003 326.455 762.806 319.842 762.806 319.708 761.969 319.708 761.969 319.842C761.003 322.167 760.882 322.908 758.246 322.908L752.628 322.908C758.945 320.448 763.074 315.097 764.216 308.741 765.882 299.265 759.685 295.311 750.962 295.311 742.146 295.311 734.16 298.956 732.44 308.741 731.311 315.056 733.582 320.448 739.026 322.908L733.369 322.908C730.692 322.908 730.774 322.033 730.599 319.708L729.724 319.708 729.336 326.455 742.979 326.201 743.503 323.217C736.62 322.288 735.788 315.892 736.875 309.653 738.235 301.98 742.401 296.495 750.749 296.495Z" stroke="#000000" stroke-width="0.350971" fill="none" transform="matrix(1.0002 0 0 1 -101.435 -40.3741)"/><path d="M824.928 211.494C823.475 211.494 818.61 214.52 817.158 215.445L817.158 215.703 817.684 216.185 817.684 216.277C818.693 215.875 821.326 213.428 821.769 215.486 821.676 218.377 819.794 229.047 818.865 232.501L818.865 232.945C819.794 232.501 821.07 232.113 822.024 231.844 822.736 226.36 823.262 213.686 830.898 213.549 832.873 213.549 833.96 214.613 833.96 216.628 834.094 224.088 828.785 237.209 829.793 244.304 830.843 243.818 832.16 243.429 833.262 243.254 831.379 237.907 837.211 220.218 837.294 215.486 837.387 212.771 835.629 211.494 833.048 211.494 829.714 211.494 826.675 213.645 824.701 216.143L824.701 216.05C825.413 213.243 826.111 211.494 824.928 211.494Z" transform="matrix(1.0002 0 0 1 -101.435 -40.3741)"/><path d="M824.928 211.494C823.475 211.494 818.61 214.52 817.158 215.445L817.158 215.703 817.684 216.185 817.684 216.277C818.693 215.875 821.326 213.428 821.769 215.486 821.676 218.377 819.794 229.047 818.865 232.501L818.865 232.945C819.794 232.501 821.07 232.113 822.024 231.844 822.736 226.36 823.262 213.686 830.898 213.549 832.873 213.549 833.96 214.613 833.96 216.628 834.094 224.088 828.785 237.209 829.793 244.304 830.843 243.818 832.16 243.429 833.262 243.254 831.379 237.907 837.211 220.218 837.294 215.486 837.387 212.771 835.629 211.494 833.048 211.494 829.714 211.494 826.675 213.645 824.701 216.143L824.701 216.05C825.413 213.243 826.111 211.494 824.928 211.494Z" stroke="#000000" stroke-width="0.350971" fill="none" transform="matrix(1.0002 0 0 1 -101.435 -40.3741)"/><path d="M541.955 381 538.797 381 538.797 353.298 542.196 353.298 542.196 363.177C543.635 361.373 545.461 360.476 547.695 360.476 548.93 360.476 550.1 360.73 551.2 361.226 552.266 361.69 553.198 362.411 553.915 363.325 554.615 364.226 555.196 365.313 555.598 366.576 556.001 367.838 556.204 369.212 556.204 370.663 556.204 374.105 555.354 376.765 553.647 378.633 551.941 380.501 549.911 381.454 547.533 381.454 545.155 381.454 543.3 380.46 541.955 378.485ZM541.914 370.811C541.914 373.217 542.237 374.965 542.894 376.024 543.972 377.786 545.423 378.66 547.251 378.66 548.73 378.66 550.021 378.013 551.094 376.724 552.185 375.433 552.722 373.499 552.722 370.946 552.722 368.324 552.209 366.387 551.163 365.137 550.117 363.889 548.878 363.27 547.399 363.27 545.919 363.27 544.629 363.916 543.542 365.22 542.454 366.525 541.914 368.366 541.914 370.811ZM573.447 378.526C572.183 379.6 570.962 380.353 569.792 380.797 568.622 381.241 567.386 381.454 566.055 381.454 563.85 381.454 562.156 380.917 560.973 379.844 559.789 378.77 559.187 377.384 559.187 375.704 559.187 374.721 559.414 373.837 559.859 373.027 560.28 372.243 560.878 371.567 561.606 371.053 562.362 370.556 563.193 370.184 564.066 369.951 564.737 369.762 565.746 369.601 567.091 369.439 569.843 369.105 571.86 368.713 573.164 368.256L573.177 367.371C573.177 365.985 572.854 365.003 572.211 364.439 571.351 363.672 570.046 363.297 568.34 363.297 566.74 363.297 565.557 363.579 564.792 364.143 564.028 364.707 563.475 365.689 563.096 367.113L559.779 366.659C560.075 365.234 560.571 364.088 561.269 363.218 561.967 362.347 562.962 361.655 564.279 361.188 565.598 360.72 567.101 360.476 568.836 360.476 570.542 360.476 571.942 360.675 573.002 361.081 574.062 361.487 574.871 361.993 575.369 362.612 575.869 363.232 576.23 363.982 576.43 364.91 576.54 365.503 576.591 366.535 576.591 368.055L576.591 372.584 576.808 378.605C576.956 379.428 577.252 380.233 577.682 381L574.121 381C573.749 380.223 573.521 379.385 573.447 378.526ZM573.164 370.933C571.929 371.428 570.074 371.858 567.6 372.209 566.203 372.408 565.223 372.639 564.63 372.893 564.039 373.148 563.609 373.512 563.299 374.009 562.976 374.48 562.814 375.017 562.814 375.608 562.799 376.48 563.174 377.313 563.836 377.879 564.534 378.485 565.543 378.794 566.86 378.794 568.179 378.794 569.348 378.512 570.356 377.934 571.335 377.403 572.123 376.581 572.613 375.581 572.978 374.803 573.164 373.675 573.164 372.168ZM589.308 377.962 589.791 380.959C588.947 381.148 588.087 381.252 587.224 381.268 585.988 381.268 585.032 381.065 584.347 380.677 583.662 380.288 583.191 379.776 582.909 379.146 582.627 378.516 582.492 377.167 582.492 375.127L582.492 363.579 580.005 363.579 580.005 360.933 582.492 360.933 582.492 355.957 585.881 353.913 585.881 360.933 589.308 360.933 589.308 363.579 585.881 363.579 585.881 375.312C585.881 376.28 585.933 376.899 586.053 377.181 586.174 377.463 586.377 377.68 586.631 377.841 586.914 378.013 587.306 378.096 587.802 378.096 588.306 378.081 588.809 378.036 589.308 377.962ZM592.626 381 592.626 353.298 596.029 353.298 596.029 363.228C597.505 361.439 599.718 360.425 602.036 360.476 603.527 360.476 604.817 360.771 605.922 361.363 606.953 361.879 607.777 362.732 608.258 363.782 608.726 364.817 608.97 366.322 608.97 368.283L608.97 381 605.57 381 605.57 368.283C605.57 366.576 605.209 365.34 604.456 364.573 603.73 363.796 602.693 363.404 601.338 363.404 600.334 363.406 599.349 363.68 598.489 364.198 597.602 364.707 596.968 365.419 596.593 366.322 596.218 367.223 596.029 368.445 596.029 370.017L596.029 381ZM614.011 388.728 613.622 385.542C614.376 385.742 615.019 385.838 615.569 385.838 616.323 385.838 616.929 385.718 617.387 385.46 617.844 385.21 618.228 384.845 618.501 384.4 618.714 384.062 619.065 383.216 619.551 381.871 619.603 381.686 619.713 381.402 619.847 381.038L612.225 360.933 615.893 360.933 620.074 372.556 621.525 377.209C621.913 375.657 622.379 374.128 622.923 372.625L627.211 360.933 630.624 360.933 622.978 381.334 621.068 385.89C620.463 387.021 619.778 387.841 619 388.35 618.219 388.89 617.28 389.145 616.202 389.145 615.545 389.145 614.82 389.01 614.011 388.728ZM633.514 381 633.514 360.933 636.552 360.933 636.552 363.741C637.187 362.759 638.051 361.947 639.068 361.373 640.113 360.771 641.311 360.476 642.642 360.476 644.133 360.476 645.343 360.785 646.284 361.401 647.25 362.02 647.924 362.881 648.313 363.995 649.9 361.645 651.971 360.476 654.511 360.476 656.499 360.476 658.03 361.026 659.107 362.14 660.181 363.228 660.707 364.924 660.707 367.223L660.707 381 657.332 381 657.332 368.352C657.332 366.992 657.212 366.012 656.985 365.419 656.769 364.814 656.351 364.301 655.801 363.968 655.186 363.594 654.477 363.403 653.756 363.418 652.437 363.386 651.163 363.902 650.237 364.842 649.308 365.771 648.837 367.274 648.837 369.346L648.837 381 645.436 381 645.436 367.962C645.436 366.442 645.154 365.313 644.604 364.559 644.054 363.806 643.138 363.418 641.889 363.418 640.923 363.418 640.034 363.672 639.216 364.185 638.397 364.697 637.828 365.419 637.467 366.387 637.106 367.353 636.917 368.754 636.917 370.581L636.917 381ZM679.498 374.535 683.018 374.979C682.454 377.019 681.432 378.619 679.938 379.748 678.445 380.876 676.512 381.454 674.189 381.454 671.257 381.454 668.917 380.556 667.197 378.753 665.477 376.951 664.616 374.401 664.616 371.132 664.616 367.759 665.491 365.137 667.238 363.27 668.986 361.401 671.23 360.476 674 360.476 676.687 360.476 678.879 361.387 680.571 363.218 682.265 365.048 683.125 367.611 683.125 370.933L683.111 371.83 668.14 371.83C668.26 374.036 668.893 375.729 670.008 376.899 671.092 378.056 672.617 378.696 674.203 378.66 675.451 378.66 676.525 378.323 677.399 377.68 678.273 377.037 678.986 375.973 679.498 374.535ZM668.326 369.036 679.536 369.036C679.388 367.343 678.958 366.081 678.245 365.234 677.231 363.955 675.673 363.227 674.041 363.27 672.482 363.27 671.164 363.796 670.087 364.842 669.01 365.888 668.45 367.288 668.326 369.036ZM694.711 377.962 695.21 380.959C694.366 381.148 693.506 381.252 692.643 381.268 691.407 381.268 690.437 381.065 689.766 380.677 689.094 380.288 688.609 379.776 688.327 379.146 688.045 378.516 687.911 377.167 687.911 375.127L687.911 363.579 685.41 363.579 685.41 360.933 687.911 360.933 687.911 355.957 691.297 353.913 691.297 360.933 694.711 360.933 694.711 363.579 691.297 363.579 691.297 375.312C691.297 376.28 691.352 376.899 691.458 377.181 691.592 377.463 691.782 377.68 692.051 377.841 692.319 378.003 692.722 378.096 693.22 378.096 693.595 378.096 694.094 378.041 694.711 377.962ZM698.004 381 698.004 360.933 701.069 360.933 701.069 363.968C701.85 362.543 702.562 361.604 703.22 361.16 703.877 360.716 704.616 360.476 705.412 360.476 706.554 360.476 707.723 360.837 708.904 361.576L707.737 364.721C706.901 364.236 706.069 363.995 705.236 363.995 704.512 363.986 703.806 364.222 703.234 364.666 702.641 365.11 702.225 365.73 701.97 366.525 701.592 367.732 701.406 369.05 701.406 370.488L701.406 381Z" transform="matrix(1.0002 0 0 1 -101.435 -40.3741)"/><path d="M710.786 388.728 710.397 385.542C711.151 385.742 711.795 385.838 712.345 385.838 713.098 385.838 713.705 385.718 714.162 385.46 714.619 385.21 715.004 384.845 715.276 384.4 715.493 384.062 715.841 383.216 716.326 381.871 716.378 381.686 716.488 381.402 716.622 381.038L709.001 360.933 712.668 360.933 716.849 372.556 718.301 377.209C718.687 375.657 719.154 374.128 719.698 372.625L723.985 360.933 727.399 360.933 719.753 381.334 717.843 385.89C717.238 387.021 716.554 387.841 715.775 388.35 714.994 388.89 714.055 389.145 712.978 389.145 712.321 389.145 711.595 389.01 710.786 388.728ZM128.456 362.423 139.102 334.706 143.052 334.706 154.396 362.423 150.216 362.423 146.991 354.023 135.392 354.023 132.354 362.423ZM136.453 351.04 145.849 351.04 142.959 343.363 140.997 337.624C140.633 339.4 140.137 341.158 139.505 342.92Z" transform="matrix(1.0002 0 0 1 -101.435 -40.3741)"/><path d="M160.029 362.423 156.87 362.423 156.87 334.706 160.27 334.706 160.27 344.599C161.708 342.799 163.536 341.898 165.768 341.898 167.004 341.898 168.174 342.142 169.261 342.651 170.334 343.106 171.273 343.827 171.99 344.747 172.702 345.635 173.266 346.726 173.672 348.002 174.079 349.278 174.275 350.634 174.275 352.087 174.275 355.514 173.428 358.177 171.722 360.058 170.015 361.941 167.984 362.881 165.607 362.881 163.23 362.881 161.371 361.886 160.029 359.911ZM159.988 352.235C159.988 354.639 160.311 356.374 160.969 357.451 162.046 359.199 163.498 360.072 165.325 360.072 166.805 360.072 168.094 359.439 169.169 358.149 170.242 356.859 170.796 354.922 170.796 352.369 170.796 349.75 170.269 347.813 169.237 346.563 168.204 345.315 166.952 344.696 165.472 344.696 163.993 344.696 162.703 345.339 161.616 346.643 160.525 347.919 159.988 349.788 159.988 352.235ZM177.059 356.429 180.42 355.906C180.606 357.247 181.132 358.284 181.992 358.996 182.853 359.708 184.074 360.072 185.619 360.072 187.164 360.072 188.334 359.763 189.101 359.13 189.868 358.497 190.231 357.733 190.231 356.886 190.246 356.144 189.86 355.45 189.222 355.07 188.764 354.764 187.608 354.385 185.754 353.913 183.255 353.284 181.521 352.747 180.554 352.29 179.588 351.831 178.858 351.185 178.362 350.38 177.868 349.567 177.612 348.63 177.623 347.679 177.623 346.778 177.826 345.958 178.228 345.205 178.63 344.447 179.205 343.793 179.908 343.298 180.444 342.906 181.156 342.572 182.072 342.314 183.027 342.029 184.02 341.889 185.017 341.898 186.589 341.898 187.973 342.115 189.156 342.572 190.341 343.03 191.238 343.645 191.802 344.427 192.367 345.191 192.759 346.226 192.973 347.531L189.638 347.975C189.49 346.953 189.046 346.147 188.321 345.555 187.595 344.964 186.589 344.696 185.258 344.696 183.699 344.696 182.581 344.95 181.909 345.459 181.253 345.985 180.915 346.591 180.915 347.276 180.915 347.72 181.05 348.122 181.332 348.47 181.614 348.817 182.044 349.144 182.636 349.372 182.973 349.506 183.981 349.788 185.633 350.246L190.66 351.831C191.568 352.194 192.352 352.81 192.918 353.607 193.458 354.398 193.726 355.366 193.726 356.522 193.726 357.651 193.389 358.727 192.731 359.735 192.074 360.744 191.118 361.508 189.868 362.061 188.62 362.615 187.205 362.881 185.633 362.881 183.025 362.881 181.036 362.33 179.667 361.253 178.297 360.176 177.434 358.552 177.059 356.429ZM196.506 352.383C196.506 348.659 197.542 345.917 199.613 344.131 201.334 342.638 203.443 341.898 205.917 341.898 208.683 341.898 210.93 342.799 212.689 344.613 214.447 346.426 215.311 348.914 215.311 352.101 215.311 354.681 214.922 356.724 214.14 358.205 213.387 359.668 212.207 360.868 210.755 361.645 209.29 362.464 207.675 362.881 205.917 362.881 203.106 362.881 200.834 361.965 199.101 360.166 197.366 358.366 196.506 355.772 196.506 352.383ZM200.002 352.383C200.002 354.95 200.566 356.886 201.682 358.163 202.796 359.439 204.224 360.072 205.917 360.072 207.61 360.072 209.007 359.439 210.136 358.149 211.264 356.859 211.819 354.912 211.819 352.276 211.819 349.788 211.254 347.906 210.108 346.643 209.08 345.392 207.536 344.68 205.917 344.709 204.29 344.674 202.734 345.374 201.682 346.616 200.566 347.892 200.002 349.816 200.002 352.383ZM219.264 362.423 219.264 342.342 222.326 342.342 222.326 345.394C223.108 343.97 223.82 343.026 224.477 342.572 225.12 342.126 225.887 341.891 226.669 341.898 227.825 341.898 228.982 342.263 230.165 342.989L228.995 346.147C228.163 345.648 227.326 345.408 226.507 345.408 225.781 345.399 225.074 345.641 224.505 346.092 223.899 346.536 223.483 347.156 223.228 347.947 222.854 349.158 222.664 350.473 222.664 351.91L222.664 362.423ZM235.326 362.423 232.168 362.423 232.168 334.706 235.581 334.706 235.581 344.599C237.006 342.799 238.847 341.898 241.076 341.898 242.283 341.889 243.476 342.146 244.572 342.651 245.673 343.136 246.588 343.835 247.287 344.747 248.013 345.635 248.577 346.726 248.98 348.002 249.382 349.278 249.586 350.634 249.586 352.087 249.586 355.514 248.725 358.177 247.033 360.058 245.339 361.941 243.282 362.881 240.904 362.881 238.651 362.942 236.534 361.814 235.326 359.911ZM235.299 352.235C235.299 354.639 235.622 356.374 236.28 357.451 237.343 359.199 238.792 360.072 240.622 360.072 242.112 360.072 243.388 359.439 244.48 358.149 245.57 356.859 246.103 354.922 246.103 352.369 246.103 349.75 245.58 347.813 244.531 346.563 243.481 345.315 242.246 344.696 240.77 344.696 239.294 344.696 238 345.339 236.913 346.643 235.835 347.919 235.299 349.788 235.299 352.235ZM253.739 338.619 253.739 334.706 257.138 334.706 257.138 338.619ZM253.739 362.423 253.739 342.342 257.138 342.342 257.138 362.423ZM262.313 362.423 262.313 342.342 265.379 342.342 265.379 345.205C266.859 343.002 268.982 341.898 271.776 341.898 272.987 341.898 274.089 342.115 275.096 342.559 276.104 343.002 276.886 343.553 277.381 344.252 277.877 344.95 278.241 345.796 278.444 346.764 278.564 347.397 278.633 348.497 278.633 350.07L278.633 362.423 275.23 362.423 275.23 350.204C275.23 348.821 275.096 347.785 274.828 347.115 274.573 346.415 274.102 345.865 273.417 345.459 272.732 345.053 271.965 344.843 271.049 344.843 269.601 344.843 268.348 345.301 267.289 346.226 266.229 347.152 265.73 348.889 265.73 351.456L265.73 362.423ZM283.227 364.088 286.534 364.573C286.668 365.596 287.06 366.335 287.69 366.807 288.526 367.436 289.682 367.746 291.145 367.746 292.718 367.746 293.942 367.436 294.788 366.807 295.635 366.177 296.227 365.299 296.537 364.157 296.709 363.473 296.791 362.006 296.777 359.787 295.284 361.549 293.443 362.423 291.227 362.423 288.457 362.423 286.32 361.428 284.814 359.439 283.306 357.451 282.543 355.06 282.543 352.276 282.543 350.352 282.894 348.594 283.578 346.98 284.194 345.459 285.241 344.151 286.589 343.216 287.921 342.328 289.465 341.898 291.241 341.898 293.605 341.898 295.567 342.854 297.101 344.761L297.101 342.342 300.232 342.342 300.232 359.694C300.232 362.826 299.908 365.031 299.279 366.335 298.627 367.662 297.567 368.745 296.255 369.425 294.867 370.192 293.175 370.567 291.158 370.567 288.767 370.567 286.829 370.03 285.368 368.944 283.905 367.856 283.176 366.253 283.227 364.088ZM286.038 352.021C286.038 354.653 286.561 356.577 287.611 357.785 288.578 358.958 290.027 359.627 291.547 359.601 293.059 359.626 294.5 358.969 295.474 357.812 296.537 356.604 297.059 354.708 297.059 352.142 297.059 349.682 296.509 347.827 295.419 346.577 294.458 345.388 293.01 344.701 291.482 344.709 289.975 344.709 288.684 345.325 287.625 346.563 286.565 347.803 286.038 349.602 286.038 352.021ZM316.414 362.423 316.414 334.706 326.816 334.706C328.929 334.706 330.623 334.988 331.899 335.556 333.143 336.088 334.191 336.993 334.896 338.147 335.635 339.304 335.997 340.528 335.997 341.805 335.999 342.986 335.663 344.143 335.03 345.139 334.386 346.185 333.416 347.032 332.126 347.679 333.795 348.164 335.085 349.01 335.987 350.191 336.896 351.397 337.373 352.875 337.342 354.385 337.342 355.689 337.06 356.9 336.51 358.015 335.959 359.13 335.298 359.976 334.493 360.582 333.688 361.188 332.666 361.655 331.441 361.965 330.216 362.275 328.74 362.423 326.978 362.423ZM320.083 346.347 326.08 346.347C327.704 346.347 328.86 346.24 329.572 346.037 330.502 345.755 331.2 345.301 331.672 344.654 332.143 344.008 332.384 343.202 332.384 342.235 332.384 341.307 332.167 340.501 331.723 339.816 331.279 339.104 330.664 338.633 329.841 338.377 329.019 338.123 327.611 337.975 325.623 337.975L320.083 337.975ZM320.083 359.144 326.978 359.144 329.48 359.023C330.326 358.861 331.025 358.621 331.589 358.256 332.186 357.883 332.669 357.353 332.986 356.724 333.372 356.006 333.563 355.2 333.54 354.385 333.54 353.349 333.282 352.465 332.745 351.697 332.216 350.926 331.437 350.361 330.54 350.098 329.6 349.774 328.255 349.627 326.496 349.627L320.083 349.627ZM362.154 352.706 365.823 353.631C365.058 356.642 363.672 358.941 361.669 360.527 359.666 362.113 357.234 362.895 354.343 362.895 351.36 362.895 348.927 362.288 347.06 361.081 345.191 359.873 343.766 358.094 342.786 355.782 341.805 353.47 341.334 350.999 341.334 348.363 341.334 345.473 341.871 342.961 342.975 340.81 344.006 338.737 345.647 337.029 347.679 335.918 349.744 334.795 352.062 334.217 354.412 334.239 357.182 334.239 359.505 334.951 361.401 336.362 363.297 337.772 364.615 339.747 365.354 342.314L361.738 343.161C361.105 341.147 360.166 339.682 358.941 338.753 357.716 337.824 356.188 337.37 354.333 337.37 352.207 337.37 350.421 337.879 348.982 338.901 347.545 339.923 346.563 341.307 345.985 343.026 345.408 344.747 345.112 346.508 345.112 348.336 345.112 350.689 345.449 352.761 346.133 354.519 346.819 356.277 347.892 357.585 349.345 358.445 350.796 359.305 352.355 359.749 354.051 359.749 356.105 359.749 357.84 359.157 359.264 357.974 360.689 356.79 361.655 355.032 362.154 352.706ZM368.551 356.429 371.913 355.906C372.102 357.247 372.625 358.284 373.485 358.996 374.346 359.708 375.557 360.072 377.116 360.072 378.674 360.072 379.831 359.763 380.58 359.13 381.33 358.497 381.727 357.733 381.727 356.886 381.727 356.119 381.389 355.514 380.718 355.07 380.261 354.764 379.091 354.385 377.236 353.913 374.748 353.284 373.014 352.747 372.047 352.29 371.081 351.831 370.354 351.185 369.855 350.38 369.359 349.567 369.103 348.63 369.116 347.679 369.116 346.778 369.318 345.958 369.721 345.205 370.137 344.427 370.687 343.793 371.404 343.298 371.927 342.906 372.652 342.572 373.55 342.314 374.48 342.032 375.46 341.898 376.51 341.898 378.082 341.898 379.452 342.115 380.649 342.572 381.847 343.03 382.721 343.645 383.285 344.427 383.863 345.191 384.251 346.226 384.466 347.531L381.134 347.975C380.986 346.953 380.543 346.147 379.817 345.555 379.091 344.964 378.068 344.696 376.751 344.696 375.192 344.696 374.077 344.95 373.406 345.459 372.732 345.985 372.398 346.591 372.398 347.276 372.398 347.71 372.545 348.13 372.814 348.47 373.096 348.834 373.526 349.144 374.119 349.372 374.466 349.506 375.46 349.788 377.129 350.246L382.153 351.831C383.109 352.235 383.863 352.826 384.4 353.607 384.937 354.388 385.219 355.366 385.219 356.522 385.214 357.67 384.862 358.79 384.21 359.735 383.567 360.73 382.611 361.508 381.361 362.061 380.113 362.615 378.701 362.881 377.129 362.881 374.521 362.881 372.532 362.33 371.16 361.253 369.786 360.176 368.93 358.552 368.551 356.429Z" transform="matrix(1.0002 0 0 1 -101.435 -40.3741)"/><path d="M1967.21 1080.57 2052.18 1080.57 2052.18 1149.54 1967.21 1149.54Z" fill="#FFFFFF" transform="matrix(1 0 0 1.00077 -1638.74 -855.351)"/><path d="M1953.22 1373.45 2181.12 1373.45 2181.12 1482.4 1953.22 1482.4Z" fill="#FFFFFF" transform="matrix(1 0 0 1.00077 -1638.74 -855.351)"/><path d="M2519.99 1199.52 2604.95 1199.52 2604.95 1268.49 2519.99 1268.49Z" fill="#FFFFFF" transform="matrix(1 0 0 1.00077 -1638.74 -855.351)"/><path d="M2518.99 1186.52 2552.97 1186.52 2552.97 1221.51 2518.99 1221.51Z" fill="#FFFFFF" transform="matrix(1 0 0 1.00077 -1638.74 -855.351)"/><path d="M2055.17 1081.57 2140.14 1081.57 2140.14 1150.54 2055.17 1150.54Z" fill="#77ACE9" transform="matrix(1 0 0 1.00077 -1638.74 -855.351)"/></g></svg>