<svg xmlns="http://www.w3.org/2000/svg" xmlns:xlink="http://www.w3.org/1999/xlink" version="1.1" width="483.494pt" height="219.094pt" viewBox="0 0 483.494 219.094">
<defs>
<path id="font_0_5" d="M.44898988 .20022583C.44898988 .3193512 .36698915 .41944886 .25898744 .41944886 .21099854 .41944886 .16799927 .40345765 .13198853 .36842347V.5637665C.1519928 .5577698 .18499756 .55078127 .21699524 .55078127 .33999635 .55078127 .4099884 .6417694 .4099884 .6547699 .4099884 .6607666 .40699769 .6657715 .3999939 .6657715 .39898683 .6657715 .39698792 .6657715 .3919983 .66278079 .37199403 .6537781 .32299806 .6337738 .2559967 .6337738 .21598816 .6337738 .16999817 .6407776 .12298584 .6617737 .114990238 .66477969 .11299133 .66477969 .11099243 .66477969 .100997928 .66477969 .100997928 .6567688 .100997928 .6407776V.34439088C.100997928 .32637025 .100997928 .31835938 .114990238 .31835938 .12199402 .31835938 .12399292 .32136537 .12799073 .32736207 .13899231 .3433838 .17599488 .39746095 .25698854 .39746095 .30899049 .39746095 .33399964 .35139466 .34199525 .33337403 .35798646 .29632569 .3600006 .25727845 .3600006 .20722962 .3600006 .17222595 .3600006 .11222839 .33599855 .07035828 .31199647 .031463624 .2749939 .0055389406 .22898865 .0055389406 .1559906 .0055389406 .09899902 .058380128 .08198547 .11723328 .084991458 .1162262 .08799744 .115234378 .09899902 .115234378 .13198853 .115234378 .14898682 .14022827 .14898682 .16423035 .14898682 .18823242 .13198853 .21322632 .09899902 .21322632 .084991458 .21322632 .049987794 .20622254 .049987794 .16023255 .049987794 .07434082 .11898804-.022460938 .23098755-.022460938 .34700013-.022460938 .44898988 .073349 .44898988 .20022583Z"/>
<path id="font_0_1" d="M.45999146 .31976319C.45999146 .39982606 .45498658 .47988893 .41999818 .5539398 .37399293 .65000918 .2919922 .6660156 .25 .6660156 .18998719 .6660156 .116989139 .64001467 .07598877 .54693606 .04399109 .47789 .038986207 .39982606 .038986207 .31976319 .038986207 .24472046 .042999269 .15464783 .083999637 .07859802 .1269989-.0024719239 .19999695-.022460938 .24899292-.022460938 .30299378-.022460938 .3789978-.0014648438 .4229889 .09359741 .45498658 .16265869 .45999146 .2407074 .45999146 .31976319M.24899292-.00047302247C.20999146-.00047302247 .15098572 .024551392 .1329956 .12062073 .12199402 .18066406 .12199402 .2727356 .12199402 .3317871 .12199402 .39582826 .12199402 .46188355 .12998963 .5159149 .14898682 .63500979 .22399903 .64401248 .24899292 .64401248 .28199769 .64401248 .34799195 .6259918 .36698915 .52693179 .3769989 .47088624 .3769989 .39482118 .3769989 .3317871 .3769989 .25672914 .3769989 .18867493 .3659973 .12461853 .35099793 .029556275 .2939911-.00047302247 .24899292-.00047302247Z"/>
<path id="font_0_2" d="M.2939911 .64004519C.2939911 .66400149 .2939911 .6660156 .2709961 .6660156 .20899964 .60227969 .12098694 .60227969 .08898926 .60227969V.57128909C.10899353 .57128909 .16799927 .57128909 .21998596 .5972748V.07902527C.21998596 .042999269 .21699524 .0309906 .1269989 .0309906H.09498596V0C.12998963 .0029907227 .21699524 .0029907227 .25698854 .0029907227 .29699708 .0029907227 .38398744 .0029907227 .4189911 0V.0309906H.3869934C.29699708 .0309906 .2939911 .041992189 .2939911 .07902527V.64004519Z"/>
<path id="font_1_2" d="M.20298767 .0009918213C.20298767 .066986087 .17799378 .10598755 .13899231 .10598755 .10598755 .10598755 .085998538 .08099365 .085998538 .052993776 .085998538 .025985718 .10598755 0 .13899231 0 .15098572 0 .1639862 .0039978029 .17399597 .0129852299 .1769867 .01499939 .17799378 .015991211 .1789856 .015991211 .17999268 .015991211 .18099976 .01499939 .18099976 .0009918213 .18099976-.07316589 .1459961-.13328552 .11299133-.16635132 .101989749-.17736817 .101989749-.17936707 .101989749-.18237305 .101989749-.18936157 .10699463-.19335938 .11199951-.19335938 .12298584-.19335938 .20298767-.116256717 .20298767 .0009918213Z"/>
<path id="font_0_3" d="M.1269989 .07699585 .23298645 .18003845C.3889923 .31811524 .44898988 .3721466 .44898988 .47216798 .44898988 .5860901 .35899354 .6660156 .23699951 .6660156 .12399292 .6660156 .049987794 .57411196 .049987794 .48516847 .049987794 .4291687 .099990848 .4291687 .102996829 .4291687 .11999512 .4291687 .15499878 .44117738 .15499878 .48217774 .15499878 .5081787 .13699341 .5341797 .101989749 .5341797 .09399414 .5341797 .09199524 .5341797 .08898926 .5331726 .11199951 .59806826 .1659851 .63500979 .22399903 .63500979 .31498719 .63500979 .35798646 .5541382 .35798646 .47216798 .35798646 .39215089 .30799867 .31311036 .25299073 .25108338L.06098938 .036987306C.049987794 .025985718 .049987794 .023986817 .049987794 0H.42099L.44898988 .17404175H.42399598C.4189911 .14402771 .4119873 .1000061 .4019928 .084991458 .394989 .07699585 .32899476 .07699585 .30699159 .07699585H.1269989Z"/>
<path id="font_1_1" d="M.19198609 .052993776C.19198609 .08198547 .16799927 .10598755 .13899231 .10598755 .10998535 .10598755 .085998538 .08198547 .085998538 .052993776 .085998538 .023986817 .10998535 0 .13899231 0 .16799927 0 .19198609 .023986817 .19198609 .052993776Z"/>
<path id="font_0_4" d="M.2939911 .16503906V.07800293C.2939911 .041992189 .2919922 .0309906 .21798706 .0309906H.19699097V0C.23799134 .0029907227 .2899933 .0029907227 .33198548 .0029907227 .37399293 .0029907227 .4269867 .0029907227 .46798707 0V.0309906H.44699098C.37298585 .0309906 .37098695 .041992189 .37098695 .07800293V.16503906H.47099305V.19602967H.37098695V.65075686C.37098695 .67074587 .37098695 .6767578 .35499574 .6767578 .34599305 .6767578 .34298707 .6767578 .33499146 .66474917L.027999878 .19602967V.16503906H.2939911M.2999878 .19602967H.055999757L.2999878 .5688019V.19602967Z"/>
<path id="font_0_6" d="M.13198853 .327713V.35173036C.13198853 .6047821 .2559967 .64100649 .30699159 .64100649 .33099366 .64100649 .37298585 .634964 .394989 .6007538 .37998963 .6007538 .33999635 .6007538 .33999635 .5557556 .33999635 .524765 .3639984 .5097656 .38598634 .5097656 .4019928 .5097656 .43199159 .51875308 .43199159 .5577545 .43199159 .6178589 .3880005 .6660156 .30499269 .6660156 .1769867 .6660156 .041992189 .5367584 .041992189 .31570436 .041992189 .048553468 .1579895-.022460938 .25099183-.022460938 .3619995-.022460938 .45700074 .07156372 .45700074 .2036438 .45700074 .33070375 .36799623 .4267578 .25698854 .4267578 .18899536 .4267578 .1519928 .37573243 .13198853 .327713M.25099183 .0055389406C.18798828 .0055389406 .1579895 .06556702 .1519928 .080566409 .13398743 .127594 .13398743 .2076416 .13398743 .22564698 .13398743 .30369569 .1659851 .40374757 .2559967 .40374757 .27198792 .40374757 .31799317 .40374757 .34899903 .34172059 .36698915 .30470277 .36698915 .2536621 .36698915 .20463562 .36698915 .15661621 .36698915 .10658264 .34999085 .0705719 .31999208 .010528564 .27398683 .0055389406 .25099183 .0055389406Z"/>
<path id="font_0_7" d="M.16299439 .4569702C.116989139 .486969 .11299133 .52098086 .11299133 .5379791 .11299133 .598999 .17799378 .64100649 .24899292 .64100649 .32199098 .64100649 .38598634 .58898928 .38598634 .51698306 .38598634 .45996095 .34700013 .4119568 .2869873 .37695313L.16299439 .4569702M.30899049 .36193849C.3809967 .3989563 .42999269 .45095826 .42999269 .51698306 .42999269 .6090088 .34098817 .6660156 .25 .6660156 .1499939 .6660156 .068984989 .59199526 .068984989 .49897767 .068984989 .4809723 .070999149 .43595887 .11299133 .38894654 .12399292 .37695313 .16099549 .35194398 .18598938 .33494569 .12799073 .30592347 .041992189 .24984741 .041992189 .15072632 .041992189 .04458618 .14399719-.022460938 .24899292-.022460938 .3619995-.022460938 .45700074 .06060791 .45700074 .16773987 .45700074 .20379639 .44599916 .24885559 .4079895 .2909088 .3889923 .31193543 .37298585 .3219452 .30899049 .36193849M.20899964 .3199463 .33198548 .24183655C.3600006 .2228241 .40699769 .19277954 .40699769 .13169861 .40699769 .05760193 .33198548 .0055389406 .25 .0055389406 .1639862 .0055389406 .09199524 .067611698 .09199524 .15072632 .09199524 .20880127 .12399292 .27288819 .20899964 .3199463Z"/>
<clipPath id="clip_2">
<path transform="matrix(1,0,0,-1,46.101,183.509)" d="M0 0H194.27155V161.39575H0Z"/>
</clipPath>
<path id="font_3_4" d="M.054992677 .6777344 .035995485 .45280458H.06098938C.06498718 .50479128 .067993167 .5757599 .09899902 .6097412 .1329956 .6447296 .18998719 .64772036 .23599243 .64772036H.26098634C.28799439 .64772036 .31599427 .64772036 .31599427 .613739V.07695007C.31599427 .036972047 .27598573 .030975342 .23999024 .030975342 .22698975 .030975342 .21398926 .031967164 .20399475 .031967164H.17098999V.0009765625H.5499878V.031967164H.48199464C.44299317 .031967164 .40499879 .035964967 .40499879 .07695007V.613739C.40499879 .6427307 .42199708 .64772036 .45999146 .64772036H.4850006C.5309906 .64772036 .58799746 .6447296 .621994 .6097412 .6529999 .5757599 .6559906 .50479128 .6599884 .45280458H.68499758L.66600039 .6777344H.054992677Z"/>
<path id="font_3_7" d="M.036987306 .430542V.3995819H.055999757C.084991458 .3995819 .11099243 .3955841 .11099243 .34962464V.07292175C.11099243 .037963869 .09298706 .031967164 .032989503 .031967164V.0009765625H.24798584V.031967164H.22799683C.20199585 .031967164 .17799378 .034973146 .17799378 .06692505V.44154359L.036987306 .430542M.12098694 .6689453C.09599304 .66589358 .07598877 .64382937 .07598877 .61672976 .07598877 .5876312 .100997928 .5635376 .1289978 .5635376 .1559906 .5635376 .18199158 .58561709 .18199158 .61672976 .18199158 .64582827 .15699768 .6699219 .1289978 .6699219 .12599182 .66993716 .12399292 .6689453 .12098694 .6689453Z"/>
<path id="font_3_9" d="M.03199768 .43138124V.4003601H.04699707C.07998657 .4003601 .10998535 .39735414 .10998535 .35029603V.074020389C.10998535 .032974245 .08198547 .031967164 .037994386 .031967164H.03199768V.0009765625H.2579956V.031967164H.23199463C.20399475 .031967164 .17999268 .035980226 .17999268 .073013309V.25621034C.17999268 .32928468 .21998596 .42037965 .31599427 .42037965 .37998963 .42037965 .3869934 .35430909 .3869934 .30825807V.070007327C.3869934 .033966066 .35699464 .031967164 .32398988 .031967164H.30899049V.0009765625H.5349884V.031967164H.5089874C.48098756 .031967164 .45700074 .035980226 .45700074 .073013309V.25621034C.45700074 .32928468 .49699403 .42037965 .59298709 .42037965 .6569977 .42037965 .6639862 .35430909 .6639862 .30825807V.070007327C.6639862 .033966066 .6339874 .031967164 .6009979 .031967164H.58599856V.0009765625H.81199648V.031967164H.79100039C.7609863 .031967164 .73399356 .034973146 .73399356 .070007327V.2962494C.73399356 .33328248 .7319946 .36631776 .70799258 .4003601 .6819916 .43338014 .6389923 .4423828 .598999 .4423828 .5339966 .4423828 .48098756 .4043579 .45399476 .34629823 .43499757 .41737367 .3899994 .4423828 .32099916 .4423828 .25698854 .4423828 .19599915 .402359 .1749878 .34028626L.17399597 .4423828 .03199768 .43138124Z"/>
<path id="font_3_6" d="M.11199951 .23242188H.3999939C.41099549 .23242188 .41600038 .2394104 .41600038 .250412 .41600038 .35630799 .35099793 .4482422 .23899842 .4482422 .115997318 .4482422 .027999878 .33932496 .027999878 .22039795 .027999878 .12832642 .07899475 .04624939 .16699219 .006225586 .18998719-.003768921 .21699524-.009765625 .24198914-.009765625H.24499512C.32199098-.009765625 .38598634 .0332489 .41299439 .110305789 .4139862 .11331177 .4139862 .11730957 .4139862 .12031555 .4139862 .12731934 .4099884 .13232422 .40299989 .13232422 .3880005 .13232422 .38198854 .0993042 .37599183 .08828735 .35099793 .04425049 .30299378 .0152282719 .25099183 .0152282719 .21398926 .0152282719 .18199158 .036239625 .15499878 .06326294 .114990238 .109313968 .11199951 .17436219 .11199951 .23242188M.11299133 .25341798C.11299133 .33033753 .1539917 .426239 .23599243 .426239H.24099732C.33898927 .41723634 .33799745 .3133545 .34799195 .25341798H.11299133Z"/>
<path id="font_3_3" d="M.115997318 .048538209C.1789856-.00048828127 .22799683-.021484375 .30499269-.021484375 .42399598-.021484375 .49899293 .08557129 .49899293 .18765259 .49899293 .27072145 .45199586 .34777833 .37199403 .3808136 .31098939 .40582276 .23498535 .40382386 .18199158 .43585206 .14199829 .46087647 .11898804 .50390627 .11898804 .5479431 .11898804 .6269989 .18598938 .67803958 .25698854 .67803958 .35598756 .67803958 .4249878 .59898379 .44099427 .49890138 .44400025 .48388673 .44099427 .4568634 .45899964 .4568634 .46998597 .4568634 .47099305 .46588136 .47099305 .47488404V.6920471C.47099305 .6990509 .46899415 .7060547 .46099855 .7060547 .44599916 .7060547 .43499757 .67803958 .4269867 .66503909 .42099 .6560364 .4139862 .6460266 .4099884 .63601687 .36898805 .6770477 .32199098 .7060547 .25498963 .7060547 .15699768 .7060547 .054992677 .63801577 .054992677 .51091006 .054992677 .40682984 .1309967 .33877564 .22898865 .31774903 .25 .3127594 .269989 .30674745 .29100038 .30174256 .34700013 .2887268 .40299989 .27471925 .4269867 .20266724 .43199159 .18765259 .43499757 .17164612 .43499757 .15663147 .43499757 .08157349 .38398744 .009506226 .2999878 .009506226 .19999695 .009506226 .102996829 .06254578 .08299255 .17764282 .08198547 .18664551 .08099365 .19665528 .07998657 .20567322V.212677C.07998657 .22268677 .07499695 .22767639 .066986087 .22767639 .056991579 .22767639 .054992677 .21968079 .054992677 .212677V-.0074920656C.054992677-.01449585 .056991579-.021484375 .06498718-.021484375 .07998657-.021484375 .09098816 .006515503 .09899902 .019515992 .10499573 .028518677 .11199951 .038528444 .115997318 .048538209Z"/>
<path id="font_3_17" d="M.14898682 .6152344C.14898682 .54644778 .11999512 .421875 .017990113 .421875V.39987184H.10398865V.1421051C.10398865 .10914612 .10598755 .076171878 .12199402 .047195436 .14399719 .007232666 .19099427-.009765625 .23498535-.009765625 .31698609-.009765625 .33299256 .08216858 .33299256 .14511109V.18206787H.30799867C.30799867 .16708374 .30899049 .15209961 .30899049 .1361084 .30899049 .09214783 .29899598 .0152282719 .23999024 .0152282719 .18299866 .0152282719 .17399597 .08416748 .17399597 .12911988V.39987184H.31599427V.43066407H.17399597V.6152344H.14898682Z"/>
<path id="font_3_12" d="M.026992798 .43138124V.4003601H.04598999C.07598877 .4003601 .10499573 .39736939 .10499573 .35734559V-.12220764C.10499573-.15835572 .07899475-.16236878 .049987794-.16236878H.026992798V-.19335938H.25299073V-.16236878H.22898865C.19898987-.16236878 .1749878-.15835572 .1749878-.12220764L.17599488 .051239015C.19898987 .010223389 .25498963-.009765625 .2979889-.009765625 .42199708-.009765625 .5209961 .09625244 .5209961 .21730042 .5209961 .3373413 .42799378 .4423828 .31098939 .4423828 .2559967 .4423828 .20799256 .41838075 .17199707 .3773651V.4423828L.026992798 .43138124M.43598939 .19929505C.43099977 .12626648 .3919983 .021224976 .30099488 .01222229H.29499818C.2519989 .01222229 .21299744 .036239625 .18899536 .072250369 .18099976 .08325195 .1749878 .09326172 .1749878 .10725403V.27531434C.1749878 .28833009 .17399597 .30133058 .17399597 .31433106 .17399597 .36735536 .24198914 .41737367 .30099488 .41737367 .4019928 .41737367 .43699647 .28633119 .43699647 .21530152 .43699647 .21029663 .43699647 .20429993 .43598939 .19929505Z"/>
<path id="font_3_16" d="M.17599488 .4482422C.13899231 .44422914 .099990848 .4372406 .070999149 .41223146 .04699707 .39123536 .032989503 .35723878 .032989503 .32522584 .032989503 .15423584 .31098939 .25123597 .31098939 .10122681 .31098939 .040222169 .2559967 .01222229 .20098877 .01222229 .125 .01222229 .07398987 .066223148 .05999756 .15222168 .057998659 .16122437 .056991579 .17022705 .04499817 .17022705 .036987306 .17022705 .032989503 .16423035 .032989503 .15722656V-.00077819827C.033996583-.0057678224 .036987306-.008773804 .041992189-.009765625H.04399109C.05999756-.009765625 .07598877 .02722168 .08799744 .030227662H.08898926C.09700012 .030227662 .12399292 .0052337648 .14498902-.0017700195 .1619873-.0077667238 .17999268-.009765625 .19799805-.009765625 .2809906-.009765625 .3600006 .034225465 .3600006 .12623596 .3600006 .19223023 .31199647 .24623108 .24598694 .26322938 .18399048 .28022767 .08198547 .28022767 .08198547 .3532257 .08198547 .4142151 .14898682 .42921449 .19299317 .42921449 .24198914 .42921449 .30999757 .40220643 .30999757 .3162079 .30999757 .30722047 .31098939 .2992096 .32199098 .2992096 .33198548 .2992096 .33599855 .30722047 .33599855 .31721498 .33599855 .32221986 .33499146 .32720948 .33499146 .33120729V.4342041C.33499146 .44023133 .33198548 .4482422 .32398988 .4482422 .30799867 .4482422 .2979889 .42323304 .2869873 .42323304H.28599549C.27799989 .42323304 .2619934 .43623353 .25 .44023133 .23199463 .44621278 .21199036 .44921876 .19299317 .44921876 .18699646 .449234 .18199158 .4482422 .17599488 .4482422Z"/>
<path id="font_1_3" d="M.7559967 .577652C.7659912 .61763 .7839966 .64860537 .8639984 .6516113 .86898806 .6516113 .8809967 .65260317 .8809967 .6716156 .8809967 .6726074 .8809967 .6826172 .8679962 .6826172 .83499148 .6826172 .7999878 .6796112 .7669983 .6796112 .73298647 .6796112 .69799807 .6826172 .6649933 .6826172 .6589966 .6826172 .6469879 .6826172 .6469879 .6626129 .6469879 .6516113 .6569977 .6516113 .6649933 .6516113 .7220001 .65060427 .73298647 .6296234 .73298647 .6076355 .73298647 .6046295 .73098757 .5896454 .7299957 .5866394L.6179962 .141922 .39698792 .66360476C.3889923 .6816101 .3880005 .6826172 .36499024 .6826172H.23098755C.21099854 .6826172 .20199585 .6826172 .20199585 .6626129 .20199585 .6516113 .21099854 .6516113 .22999573 .6516113 .23498535 .6516113 .2979889 .6516113 .2979889 .64260867L.1639862 .10594177C.1539917 .065963748 .13699341 .033996583 .055999757 .0309906 .049987794 .0309906 .038986207 .02999878 .038986207 .010986328 .038986207 .0039978029 .04399109 0 .051986696 0 .083999637 0 .11898804 .0029907227 .1519928 .0029907227 .18598938 .0029907227 .22200012 0 .25498963 0 .2599945 0 .272995 0 .272995 .019989014 .272995 .02999878 .2639923 .0309906 .25299073 .0309906 .19499207 .032989503 .18699646 .054977418 .18699646 .07496643 .18699646 .081954959 .18798828 .08695984 .19099427 .09794617L.32299806 .6256256C.32699586 .6196289 .32699586 .61763 .33198548 .6076355L.58099368 .018997193C.58799746 .0019989014 .59098818 0 .59999087 0 .61099246 0 .61099246 .0029907227 .6159973 .020996094L.7559967 .577652Z"/>
<path id="font_4_1" d="M.24598694 .39465333H.34799195C.36698915 .39465333 .37998963 .39465333 .37998963 .4166565 .37998963 .43066407 .36698915 .43066407 .34999085 .43066407H.25498963L.2919922 .57850649C.29299928 .58351138 .29499818 .588501 .29499818 .5924988 .29499818 .6104889 .2809906 .6244812 .26098634 .6244812 .23599243 .6244812 .22099304 .6074829 .21398926 .58151248 .20698548 .5565338 .21998596 .6044922 .17599488 .43066407H.07398987C.054992677 .43066407 .041992189 .43066407 .041992189 .4086609 .041992189 .39465333 .053985597 .39465333 .07199097 .39465333H.16699219L.10798645 .15901184C.101989749 .13404846 .09298706 .098098758 .09298706 .085128787 .09298706 .0262146 .14299011-.009765625 .19999695-.009765625 .31098939-.009765625 .37399293 .13005066 .37399293 .14303589 .37399293 .15602112 .36099244 .15602112 .35798646 .15602112 .34599305 .15602112 .34498597 .15402222 .33699037 .13703919 .30899049 .074142459 .2579956 .018234253 .20298767 .018234253 .18199158 .018234253 .16799927 .031204224 .16799927 .06715393 .16799927 .07713318 .17199707 .098098758 .17399597 .10809326L.24598694 .39465333Z"/>
<path id="font_3_13" d="M.31698609 .75C.30299378 .74497988 .2849884 .72499087 .272995 .7129822 .1499939 .5899811 .099990848 .4199829 .099990848 .25097657 .099990848 .06997681 .15899658-.123031619 .30599977-.24102783 .31098939-.24403382 .31698609-.24902344 .32299806-.24902344 .32899476-.24902344 .33198548-.24302674 .33198548-.23902893 .33198548-.22802735 .30499269-.20703125 .2939911-.19403076 .19099427-.07102966 .15899658 .0929718 .15899658 .24998474 .15899658 .41497804 .19198609 .5959778 .31599427 .71998599 .32199098 .72598269 .33198548 .73298647 .33198548 .74098208 .33198548 .7469635 .32699586 .75097659 .32099916 .75097659 .31999208 .7509918 .31799317 .75 .31698609 .75Z"/>
<path id="font_3_14" d="M.06199646 .7499695C.057998659 .7479706 .055999757 .7449646 .055999757 .7419739 .055999757 .7299652 .07899475 .7129669 .08999634 .7009735 .19699097 .57696536 .22898865 .40797425 .22898865 .24996948 .22898865 .088974 .19599915-.09402466 .07598877-.21403504 .068984989-.22102356 .055999757-.23103333 .055999757-.23902893 .055999757-.24403382 .06098938-.24902344 .066986087-.24902344H.067993167C.07998657-.24702454 .099990848-.22602844 .11199951-.21403504 .23799134-.088027957 .28799439 .081970218 .28799439 .25196839 .28799439 .43597413 .22799683 .6189728 .08198547 .7429657 .07699585 .7459717 .07199097 .75097659 .06599426 .75097659 .06498718 .75097659 .06399536 .75097659 .06199646 .7499695Z"/>
<path id="font_3_11" d="M.23498535 .4482422C.10899353 .43522645 .027999878 .3292389 .027999878 .21322632 .027999878 .100234989 .116989139-.009765625 .25-.009765625 .36999513-.009765625 .47099305 .08822632 .47099305 .2142334 .47099305 .33320619 .3809967 .44921876 .24798584 .44921876 .24398804 .449234 .23899842 .4482422 .23498535 .4482422M.11199951 .19023133V.23423767C.11199951 .31021119 .13598633 .4262085 .24899292 .4262085 .32998658 .4262085 .37599183 .35821534 .3849945 .2822113 .3869934 .2602234 .3869934 .23921204 .3869934 .21722412 .3869934 .15222168 .37998963 .07122803 .31599427 .034225465 .29599 .021224976 .27398683 .0152282719 .25099183 .0152282719 .17799378 .0152282719 .1269989 .07221985 .115997318 .15022278 .11399841 .16322327 .11399841 .17721558 .11199951 .19021607V.19023133Z"/>
<path id="font_3_5" d="M.11199951 .3812256C.13699341 .41223146 .18099976 .426239 .21798706 .426239 .2919922 .426239 .32499696 .3592224 .32499696 .288208V.26220704C.20999146 .26220704 .040985109 .22619629 .040985109 .095214847V.08721924C.04899597 .010223389 .1459961-.009765625 .20298767-.009765625 .2539978-.009765625 .31900025 .024230957 .33198548 .07522583H.33299256C.33898927 .032226564 .3659973-.004776001 .41099549-.004776001 .45199586-.004776001 .48799134 .02822876 .49299623 .07322693V.14620972H.46798707V.095214847C.46798707 .068222049 .46299745 .02722168 .43199159 .02722168 .3999939 .02722168 .394989 .066223148 .394989 .09321594V.26020814C.394989 .27320863 .3959961 .28520204 .3959961 .29821778 .3959961 .39523316 .30499269 .4482422 .22200012 .4482422 .15899658 .4482422 .069992069 .41723634 .069992069 .33721925 .069992069 .30822755 .09098816 .28923036 .116989139 .28923036 .14498902 .28923036 .1619873 .31123353 .1619873 .3352356 .1619873 .3642273 .13899231 .38124085 .11199951 .38124085V.3812256M.32499696 .24121094V.14021302C.32499696 .07122803 .2769928 .016220093 .21199036 .01222229H.20799256C.16099549 .01222229 .11898804 .049224855 .11898804 .097213748V.10221863C.12599182 .2032013 .23899842 .23820496 .32499696 .24121094Z"/>
<path id="font_3_8" d="M.032989503 .68429568V.6532898H.04798889C.084991458 .6532898 .11099243 .64927676 .11099243 .6012573V.0960083C.11099243 .08900452 .11199951 .08200073 .11199951 .07398987 .11199951 .035964967 .084991458 .031967164 .056991579 .031967164H.032989503V.0009765625H.2559967V.031967164H.23098755C.20199585 .031967164 .17799378 .035964967 .17799378 .07499695V.6953125L.032989503 .68429568Z"/>
<clipPath id="clip_5">
<path transform="matrix(1,0,0,-1,282.88999,183.509)" d="M0 0H194.27155V161.39636H0Z"/>
</clipPath>
<path id="font_6_1" d="M.74398806 .2263794C.7599945 .2263794 .7839966 .2263794 .7839966 .25038148 .7839966 .27539063 .7609863 .27539063 .74398806 .27539063H.147995C.13198853 .27539063 .10798645 .27539063 .10798645 .25138856 .10798645 .2263794 .1309967 .2263794 .147995 .2263794H.74398806Z"/>
<path id="font_7_2" d="M.33499146 .63612368C.33499146 .6630554 .33299256 .6640625 .30499269 .6640625 .24099732 .6014404 .1499939 .6004486 .10899353 .6004486V.5644531C.1329956 .5644531 .19898987 .5644531 .2539978 .592453V.08203125C.2539978 .04899597 .2539978 .035995485 .1539917 .035995485H.115997318V0C.13398743 .0009918213 .25698854 .0039978029 .2939911 .0039978029 .32499696 .0039978029 .45098878 .0009918213 .47299195 0V.035995485H.43499757C.33499146 .035995485 .33499146 .04899597 .33499146 .08203125V.63612368Z"/>
<path id="font_7_1" d="M.5159912 .31925965C.5159912 .42918397 .5029907 .50813296 .45700074 .5780945 .42599488 .62405398 .3639984 .6640625 .28399659 .6640625 .051986696 .6640625 .051986696 .39120484 .051986696 .31925965 .051986696 .2472992 .051986696-.01953125 .28399659-.01953125 .5159912-.01953125 .5159912 .2472992 .5159912 .31925965M.28399659 .008468628C.23799134 .008468628 .1769867 .035446168 .15699768 .117385867 .14299011 .17634583 .14299011 .25830079 .14299011 .33224488 .14299011 .40519715 .14299011 .4811554 .1579895 .53611758 .1789856 .6150665 .24299622 .63604739 .28399659 .63604739 .33799745 .63604739 .3899994 .6030731 .4079895 .545105 .42399598 .4911499 .4249878 .41918946 .4249878 .33224488 .4249878 .25830079 .4249878 .18434143 .4119873 .12138367 .3919983 .030441285 .32398988 .008468628 .28399659 .008468628Z"/>
<path id="font_3_15" d="M.026992798 .43138124V.4003601H.041992189C.07499695 .4003601 .10499573 .39735414 .10499573 .35029603V.074020389C.10499573 .032974245 .07699585 .031967164 .032989503 .031967164H.026992798V.0009765625H.2689972V.031967164C.25698854 .031967164 .24299622 .030975342 .23098755 .030975342 .19898987 .030975342 .17199707 .035980226 .17199707 .073013309V.20614624C.17199707 .2912445 .19198609 .42037965 .2899933 .42037965 .2939911 .42037965 .29699708 .42037965 .30099488 .41937257V.41836549C.28599549 .41236878 .27799989 .39634706 .27799989 .38032533 .27799989 .35731507 .29299928 .34129334 .31599427 .33728028 .34498597 .33728028 .3639984 .3553009 .3639984 .38032533 .3639984 .42037965 .32598878 .4423828 .2899933 .4423828 .23098755 .4423828 .17799378 .38934327 .16799927 .33528138L.16699219 .4423828 .026992798 .43138124Z"/>
<path id="font_3_2" d="M.036987306 .68359377V.6525879C.049987794 .6525879 .06298828 .6535797 .07499695 .6535797 .11099243 .6535797 .13999939 .6485901 .13999939 .60861209V.10292053C.13999939 .037963869 .07998657 .031967164 .036987306 .031967164V.0009765625H.2709961V.031967164C.22599793 .031967164 .16699219 .037963869 .16699219 .106918338 .16699219 .11592102 .16799927 .12591553 .16799927 .13490296L.16899109 .6465912C.17399597 .62561038 .18399048 .60562136 .19198609 .5856323 .2619934 .40074159 .33399964 .21685791 .4059906 .033966066 .4099884 .022964478 .4149933 .0009765625 .42999269 .0009765625H.43099977C.44599916 .0029754639 .44999696 .025970459 .45498658 .037963869 .5269928 .22485352 .60198977 .41374208 .6729889 .60162356 .6799927 .61860659 .6879883 .63560488 .69299319 .6535797L.69400027 .076934818C.69400027 .036972047 .6619873 .030975342 .6299896 .030975342 .6159973 .030975342 .6029968 .031967164 .59098818 .031967164V.0009765625H.8779907V.031967164C.8659973 .031967164 .8529968 .030975342 .84098818 .030975342 .80599978 .030975342 .7749939 .035964967 .7749939 .07493591V.60861209C.7749939 .64759829 .8069916 .6535797 .84098818 .6535797 .85398867 .6535797 .86698916 .6525879 .8779907 .6525879V.68359377H.70399478L.68499758 .68058779 .6749878 .6645813 .45799256 .10192871 .23999024 .6645813 .22999573 .68058779 .21099854 .68359377H.036987306Z"/>
<path id="font_3_18" d="M.016998291 .43066407V.3996582H.036987306C.08898926 .3996582 .102996829 .37867738 .12599182 .34970094L.21998596 .22680664C.22399903 .22280884 .23199463 .21481323 .23199463 .20881653 .23098755 .2038269 .22299195 .1958313 .21998596 .1918335 .1599884 .12289429 .115997318 .031967164 .011993408 .031967164V.0009765625H.19099427V.031967164C.17199707 .031967164 .1619873 .049957277 .1619873 .063934329 .1619873 .08392334 .1769867 .09791565 .18899536 .11289978 .20098877 .12788391 .21299744 .14387512 .22599793 .15885926 .23399353 .16885376 .24299622 .17784119 .24899292 .18884278 .27398683 .16186524 .29499818 .12988281 .31698609 .10090637L.33599855 .075927738C.33999635 .07093811 .34700013 .063934329 .34700013 .0569458 .34700013 .04095459 .32499696 .031967164 .31098939 .031967164V.0009765625H.5159912V.031967164H.49798585C.48098756 .031967164 .46199037 .032974245 .44699098 .04095459 .42900086 .049957277 .4169922 .06893921 .40499879 .08392334 .37199403 .12788391 .33699037 .17184448 .3039856 .21582031L.29499818 .22779846C.29299928 .22979737 .29100038 .23280335 .2899933 .23579407 .2899933 .24179077 .29699708 .24778748 .2999878 .25178529L.33099366 .28974916C.34899903 .31173707 .36499024 .33570863 .38598634 .35569764 .4169922 .383667 .45599366 .3996582 .49798585 .3996582V.43066407H.31999208V.3996582C.33999635 .39466859 .34799195 .38467408 .34799195 .36868287 .34799195 .33970643 .31599427 .31373597 .29899598 .29075624 .2919922 .28175355 .2769928 .2607727 .27198792 .2607727 .2659912 .2607727 .2519989 .28375245 .24299622 .29473878 .22099304 .3227234 .18598938 .35868836 .18598938 .3756714 .18598938 .39067079 .20799256 .39865113 .22099304 .3996582V.43066407H.016998291Z"/>
<path id="font_3_1" d="M.032989503 .68066409V.6496582C.04598999 .6496582 .05899048 .65065 .070999149 .65065 .10699463 .65065 .13598633 .6456604 .13598633 .6056824V.07495117C.13598633 .036972047 .102996829 .030975342 .068984989 .030975342 .055999757 .030975342 .04399109 .031967164 .032989503 .031967164V.0009765625H.60899356L.651001 .25889588H.6259918C.61099246 .16792298 .598999 .06796265 .48999024 .03996277 .45899964 .032974245 .4269867 .031967164 .394989 .031967164H.2669983C.24699402 .031967164 .22499085 .033966066 .22499085 .063964847V.3388672H.31698609C.35198976 .3388672 .3909912 .3358612 .4099884 .3048706 .42199708 .2838745 .4229889 .2568817 .4229889 .23190308V.22190857H.44799806V.48677064H.4229889V.47677613C.4229889 .42282105 .41099549 .3798523 .35198976 .3718567 .33299256 .3698578 .31399537 .3698578 .29499818 .3698578H.22499085V.61468508C.22499085 .6486511 .24598694 .6496582 .2669983 .6496582H.3869934C.44599916 .6496582 .5189972 .6496582 .55799868 .59669497 .58799746 .5567169 .59298709 .5037689 .598999 .4557953H.6239929L.59599307 .68066409H.032989503Z"/>
<path id="font_3_10" d="M.03199768 .43138124V.4003601H.04699707C.07998657 .4003601 .10998535 .39735414 .10998535 .35029603V.074020389C.10998535 .032974245 .08198547 .031967164 .037994386 .031967164H.03199768V.0009765625H.2579956V.031967164H.23199463C.20399475 .031967164 .17999268 .035980226 .17999268 .073013309V.25621034C.17999268 .3282776 .21699524 .42037965 .31599427 .42037965 .37998963 .42037965 .38598634 .3513031 .38598634 .30825807V.069000247C.38598634 .034973146 .35699464 .031967164 .32598878 .031967164H.30799867V.0009765625H.5339966V.031967164H.5089874C.48199464 .031967164 .45599366 .035980226 .45599366 .070007327V.28923036C.45599366 .32226563 .45498658 .35630799 .43899537 .38633729 .41600038 .43037416 .36499024 .4423828 .31900025 .4423828 .2579956 .4423828 .19499207 .4003601 .1749878 .34028626L.17399597 .4423828 .03199768 .43138124Z"/>
</defs>
<path transform="matrix(1,0,0,-1,46.101,183.509)" d="M0 0H194.27155V161.39575H0Z" fill="#e5e5e5"/>
<path transform="matrix(1,0,0,-1,46.101,183.509)" stroke-width=".3985" stroke-linecap="butt" stroke-miterlimit="10" stroke-linejoin="miter" fill="none" stroke="#ffffff" d="M8.83052 0V161.39575M52.98314 0V161.39575M97.13577 0V161.39575M141.28839 0V161.39575M185.44103 0V161.39575"/>
<path transform="matrix(1,0,0,-1,46.101,183.509)" stroke-width=".3985" stroke-linecap="butt" stroke-miterlimit="10" stroke-linejoin="miter" fill="none" stroke="#ffffff" d="M0 0H194.27155M0 26.89929H194.27155M0 53.79858H194.27155M0 80.69788H194.27155M0 107.59717H194.27155M0 134.49646H194.27155M0 161.39575H194.27155"/>
<path transform="matrix(1,0,0,-1,46.101,183.509)" stroke-width=".19925" stroke-linecap="butt" stroke-miterlimit="10" stroke-linejoin="miter" fill="none" stroke="#262626" d="M8.83052-4.25256V0M52.98314-4.25256V0M97.13577-4.25256V0M141.28839-4.25256V0M185.44103-4.25256V0"/>
<path transform="matrix(1,0,0,-1,46.101,183.509)" stroke-width=".19925" stroke-linecap="butt" stroke-miterlimit="10" stroke-linejoin="miter" fill="none" stroke="#262626" d="M-2.83482 6.72482H0M-2.83482 13.44965H0M-2.83482 20.17447H0M-2.83482 33.62411H0M-2.83482 40.34894H0M-2.83482 47.07376H0M-2.83482 60.5234H0M-2.83482 67.24823H0M-2.83482 73.97305H0M-2.83482 87.4227H0M-2.83482 94.14752H0M-2.83482 100.87234H0M-2.83482 114.32199H0M-2.83482 121.04681H0M-2.83482 127.77164H0M-2.83482 141.22129H0M-2.83482 147.9461H0M-2.83482 154.67093H0"/>
<path transform="matrix(1,0,0,-1,46.101,183.509)" stroke-width=".19925" stroke-linecap="butt" stroke-miterlimit="10" stroke-linejoin="miter" fill="none" stroke="#262626" d="M-4.25182 0H0M-4.25182 26.89929H0M-4.25182 53.79858H0M-4.25182 80.69788H0M-4.25182 107.59717H0M-4.25182 134.49646H0M-4.25182 161.39575H0"/>
<path transform="matrix(1,0,0,-1,46.101,183.509)" stroke-width=".3985" stroke-linecap="butt" stroke-miterlimit="10" stroke-linejoin="miter" fill="none" stroke="#ffffff" d="M0 0V161.39575H194.27155V0H0Z"/>
<use data-text="5" xlink:href="#font_0_5" transform="matrix(9.9626,0,0,-9.9626,47.459005,197.701)"/>
<use data-text="0" xlink:href="#font_0_1" transform="matrix(9.9626,0,0,-9.9626,52.440305,197.701)"/>
<use data-text="0" xlink:href="#font_0_1" transform="matrix(9.9626,0,0,-9.9626,57.421606,197.701)"/>
<use data-text="1" xlink:href="#font_0_2" transform="matrix(9.9626,0,0,-9.9626,87.737,197.701)"/>
<use data-text="," xlink:href="#font_1_2" transform="matrix(9.9626,0,0,-9.9626,92.718,197.701)"/>
<use data-text="0" xlink:href="#font_0_1" transform="matrix(9.9626,0,0,-9.9626,95.486,197.701)"/>
<use data-text="0" xlink:href="#font_0_1" transform="matrix(9.9626,0,0,-9.9626,100.4673,197.701)"/>
<use data-text="0" xlink:href="#font_0_1" transform="matrix(9.9626,0,0,-9.9626,105.4486,197.701)"/>
<use data-text="1" xlink:href="#font_0_2" transform="matrix(9.9626,0,0,-9.9626,131.889,197.701)"/>
<use data-text="," xlink:href="#font_1_2" transform="matrix(9.9626,0,0,-9.9626,136.87001,197.701)"/>
<use data-text="5" xlink:href="#font_0_5" transform="matrix(9.9626,0,0,-9.9626,139.63802,197.701)"/>
<use data-text="0" xlink:href="#font_0_1" transform="matrix(9.9626,0,0,-9.9626,144.61931,197.701)"/>
<use data-text="0" xlink:href="#font_0_1" transform="matrix(9.9626,0,0,-9.9626,149.6006,197.701)"/>
<use data-text="2" xlink:href="#font_0_3" transform="matrix(9.9626,0,0,-9.9626,176.041,197.701)"/>
<use data-text="," xlink:href="#font_1_2" transform="matrix(9.9626,0,0,-9.9626,181.022,197.701)"/>
<use data-text="0" xlink:href="#font_0_1" transform="matrix(9.9626,0,0,-9.9626,183.79001,197.701)"/>
<use data-text="0" xlink:href="#font_0_1" transform="matrix(9.9626,0,0,-9.9626,188.7713,197.701)"/>
<use data-text="0" xlink:href="#font_0_1" transform="matrix(9.9626,0,0,-9.9626,193.7526,197.701)"/>
<use data-text="2" xlink:href="#font_0_3" transform="matrix(9.9626,0,0,-9.9626,220.193,197.701)"/>
<use data-text="," xlink:href="#font_1_2" transform="matrix(9.9626,0,0,-9.9626,225.174,197.701)"/>
<use data-text="5" xlink:href="#font_0_5" transform="matrix(9.9626,0,0,-9.9626,227.942,197.701)"/>
<use data-text="0" xlink:href="#font_0_1" transform="matrix(9.9626,0,0,-9.9626,232.9233,197.701)"/>
<use data-text="0" xlink:href="#font_0_1" transform="matrix(9.9626,0,0,-9.9626,237.90459,197.701)"/>
<use data-text="0" xlink:href="#font_0_1" transform="matrix(9.9626,0,0,-9.9626,33.349004,186.71901)"/>
<use data-text="0" xlink:href="#font_0_1" transform="matrix(9.9626,0,0,-9.9626,20.619002,159.82)"/>
<use data-text="." xlink:href="#font_1_1" transform="matrix(9.9626,0,0,-9.9626,25.6,159.82)"/>
<use data-text="0" xlink:href="#font_0_1" transform="matrix(9.9626,0,0,-9.9626,28.367,159.82)"/>
<use data-text="2" xlink:href="#font_0_3" transform="matrix(9.9626,0,0,-9.9626,33.348299,159.82)"/>
<use data-text="0" xlink:href="#font_0_1" transform="matrix(9.9626,0,0,-9.9626,20.619002,132.92099)"/>
<use data-text="." xlink:href="#font_1_1" transform="matrix(9.9626,0,0,-9.9626,25.6,132.92099)"/>
<use data-text="0" xlink:href="#font_0_1" transform="matrix(9.9626,0,0,-9.9626,28.367,132.92099)"/>
<use data-text="4" xlink:href="#font_0_4" transform="matrix(9.9626,0,0,-9.9626,33.348299,132.92099)"/>
<use data-text="0" xlink:href="#font_0_1" transform="matrix(9.9626,0,0,-9.9626,20.619002,106.021999)"/>
<use data-text="." xlink:href="#font_1_1" transform="matrix(9.9626,0,0,-9.9626,25.6,106.021999)"/>
<use data-text="0" xlink:href="#font_0_1" transform="matrix(9.9626,0,0,-9.9626,28.367,106.021999)"/>
<use data-text="6" xlink:href="#font_0_6" transform="matrix(9.9626,0,0,-9.9626,33.348299,106.021999)"/>
<use data-text="0" xlink:href="#font_0_1" transform="matrix(9.9626,0,0,-9.9626,20.619002,79.123)"/>
<use data-text="." xlink:href="#font_1_1" transform="matrix(9.9626,0,0,-9.9626,25.6,79.123)"/>
<use data-text="0" xlink:href="#font_0_1" transform="matrix(9.9626,0,0,-9.9626,28.367,79.123)"/>
<use data-text="8" xlink:href="#font_0_7" transform="matrix(9.9626,0,0,-9.9626,33.348299,79.123)"/>
<use data-text="0" xlink:href="#font_0_1" transform="matrix(9.9626,0,0,-9.9626,25.600003,52.225008)"/>
<use data-text="." xlink:href="#font_1_1" transform="matrix(9.9626,0,0,-9.9626,30.581004,52.225008)"/>
<use data-text="1" xlink:href="#font_0_2" transform="matrix(9.9626,0,0,-9.9626,33.349008,52.225008)"/>
<use data-text="0" xlink:href="#font_0_1" transform="matrix(9.9626,0,0,-9.9626,20.619002,25.326004)"/>
<use data-text="." xlink:href="#font_1_1" transform="matrix(9.9626,0,0,-9.9626,25.6,25.326004)"/>
<use data-text="1" xlink:href="#font_0_2" transform="matrix(9.9626,0,0,-9.9626,28.367,25.326004)"/>
<use data-text="2" xlink:href="#font_0_3" transform="matrix(9.9626,0,0,-9.9626,33.348299,25.326004)"/>
<g clip-path="url(#clip_2)">
<path transform="matrix(1,0,0,-1,46.101,183.509)" stroke-width=".59776" stroke-linecap="butt" stroke-miterlimit="10" stroke-linejoin="miter" fill="none" stroke="#e24a33" d="M8.83052 27.86702 52.98314 54.35382 97.13577 92.87163 141.28839 113.9099 185.44103 142.01085"/>
</g>
<path transform="matrix(1,0,0,-1,46.101,183.509)" d="M11.81935 27.86702C11.81935 29.51772 10.48123 30.85585 8.83052 30.85585 7.17981 30.85585 5.84169 29.51772 5.84169 27.86702 5.84169 26.21631 7.17981 24.87819 8.83052 24.87819 10.48123 24.87819 11.81935 26.21631 11.81935 27.86702ZM8.83052 27.86702" fill="#e24a33"/>
<path transform="matrix(1,0,0,-1,46.101,183.509)" stroke-width=".59776" stroke-linecap="butt" stroke-miterlimit="10" stroke-linejoin="miter" fill="none" stroke="#e24a33" d="M11.81935 27.86702C11.81935 29.51772 10.48123 30.85585 8.83052 30.85585 7.17981 30.85585 5.84169 29.51772 5.84169 27.86702 5.84169 26.21631 7.17981 24.87819 8.83052 24.87819 10.48123 24.87819 11.81935 26.21631 11.81935 27.86702ZM8.83052 27.86702"/>
<path transform="matrix(1,0,0,-1,46.101,183.509)" d="M55.97197 54.35382C55.97197 56.00452 54.63385 57.34265 52.98314 57.34265 51.33244 57.34265 49.99431 56.00452 49.99431 54.35382 49.99431 52.70311 51.33244 51.36499 52.98314 51.36499 54.63385 51.36499 55.97197 52.70311 55.97197 54.35382ZM52.98314 54.35382" fill="#e24a33"/>
<path transform="matrix(1,0,0,-1,46.101,183.509)" stroke-width=".59776" stroke-linecap="butt" stroke-miterlimit="10" stroke-linejoin="miter" fill="none" stroke="#e24a33" d="M55.97197 54.35382C55.97197 56.00452 54.63385 57.34265 52.98314 57.34265 51.33244 57.34265 49.99431 56.00452 49.99431 54.35382 49.99431 52.70311 51.33244 51.36499 52.98314 51.36499 54.63385 51.36499 55.97197 52.70311 55.97197 54.35382ZM52.98314 54.35382"/>
<path transform="matrix(1,0,0,-1,46.101,183.509)" d="M100.1246 92.87163C100.1246 94.52234 98.78648 95.86046 97.13577 95.86046 95.48506 95.86046 94.14694 94.52234 94.14694 92.87163 94.14694 91.22092 95.48506 89.8828 97.13577 89.8828 98.78648 89.8828 100.1246 91.22092 100.1246 92.87163ZM97.13577 92.87163" fill="#e24a33"/>
<path transform="matrix(1,0,0,-1,46.101,183.509)" stroke-width=".59776" stroke-linecap="butt" stroke-miterlimit="10" stroke-linejoin="miter" fill="none" stroke="#e24a33" d="M100.1246 92.87163C100.1246 94.52234 98.78648 95.86046 97.13577 95.86046 95.48506 95.86046 94.14694 94.52234 94.14694 92.87163 94.14694 91.22092 95.48506 89.8828 97.13577 89.8828 98.78648 89.8828 100.1246 91.22092 100.1246 92.87163ZM97.13577 92.87163"/>
<path transform="matrix(1,0,0,-1,46.101,183.509)" d="M144.27722 113.9099C144.27722 115.5606 142.9391 116.89873 141.28839 116.89873 139.6377 116.89873 138.29956 115.5606 138.29956 113.9099 138.29956 112.25919 139.6377 110.92107 141.28839 110.92107 142.9391 110.92107 144.27722 112.25919 144.27722 113.9099ZM141.28839 113.9099" fill="#e24a33"/>
<path transform="matrix(1,0,0,-1,46.101,183.509)" stroke-width=".59776" stroke-linecap="butt" stroke-miterlimit="10" stroke-linejoin="miter" fill="none" stroke="#e24a33" d="M144.27722 113.9099C144.27722 115.5606 142.9391 116.89873 141.28839 116.89873 139.6377 116.89873 138.29956 115.5606 138.29956 113.9099 138.29956 112.25919 139.6377 110.92107 141.28839 110.92107 142.9391 110.92107 144.27722 112.25919 144.27722 113.9099ZM141.28839 113.9099"/>
<path transform="matrix(1,0,0,-1,46.101,183.509)" d="M188.42986 142.01085C188.42986 143.66156 187.09174 144.99968 185.44103 144.99968 183.79032 144.99968 182.4522 143.66156 182.4522 142.01085 182.4522 140.36016 183.79032 139.02202 185.44103 139.02202 187.09174 139.02202 188.42986 140.36016 188.42986 142.01085ZM185.44103 142.01085" fill="#e24a33"/>
<path transform="matrix(1,0,0,-1,46.101,183.509)" stroke-width=".59776" stroke-linecap="butt" stroke-miterlimit="10" stroke-linejoin="miter" fill="none" stroke="#e24a33" d="M188.42986 142.01085C188.42986 143.66156 187.09174 144.99968 185.44103 144.99968 183.79032 144.99968 182.4522 143.66156 182.4522 142.01085 182.4522 140.36016 183.79032 139.02202 185.44103 139.02202 187.09174 139.02202 188.42986 140.36016 188.42986 142.01085ZM185.44103 142.01085"/>
<path transform="matrix(1,0,0,-1,46.101,183.509)" stroke-width=".59776" stroke-linecap="butt" stroke-miterlimit="10" stroke-linejoin="miter" fill="none" stroke="#e24a33" d=""/>
<use data-text="T" xlink:href="#font_3_4" transform="matrix(9.9626,0,0,-9.9626,111.168,213.338)" fill="#262626"/>
<use data-text="i" xlink:href="#font_3_7" transform="matrix(9.9626,0,0,-9.9626,118.361,213.338)" fill="#262626"/>
<use data-text="m" xlink:href="#font_3_9" transform="matrix(9.9626,0,0,-9.9626,121.1306,213.338)" fill="#262626"/>
<use data-text="e" xlink:href="#font_3_6" transform="matrix(9.9626,0,0,-9.9626,129.42945,213.338)" fill="#262626"/>
<use data-text="S" xlink:href="#font_3_3" transform="matrix(9.9626,0,0,-9.9626,137.1704,213.338)" fill="#262626"/>
<use data-text="t" xlink:href="#font_3_17" transform="matrix(9.9626,0,0,-9.9626,142.69963,213.338)" fill="#262626"/>
<use data-text="e" xlink:href="#font_3_6" transform="matrix(9.9626,0,0,-9.9626,146.57509,213.338)" fill="#262626"/>
<use data-text="p" xlink:href="#font_3_12" transform="matrix(9.9626,0,0,-9.9626,150.99849,213.338)" fill="#262626"/>
<use data-text="s" xlink:href="#font_3_16" transform="matrix(9.9626,0,0,-9.9626,156.52773,213.338)" fill="#262626"/>
<use data-text="N" xlink:href="#font_1_3" transform="matrix(9.9626,0,0,-9.9626,163.791,213.338)" fill="#262626"/>
<use data-text="t" xlink:href="#font_4_1" transform="matrix(6.9738,0,0,-6.9738,171.795,214.832)" fill="#262626"/>
<use data-text="T" xlink:href="#font_3_4" transform="matrix(0,-9.9626,-9.9626,-0,11.290001,121.654)" fill="#262626"/>
<use data-text="i" xlink:href="#font_3_7" transform="matrix(0,-9.9626,-9.9626,-0,11.290001,114.461)" fill="#262626"/>
<use data-text="m" xlink:href="#font_3_9" transform="matrix(0,-9.9626,-9.9626,-0,11.290001,111.6914)" fill="#262626"/>
<use data-text="e" xlink:href="#font_3_6" transform="matrix(0,-9.9626,-9.9626,-0,11.290001,103.39255)" fill="#262626"/>
<use data-text="(" xlink:href="#font_3_13" transform="matrix(0,-9.9626,-9.9626,-0,11.290001,95.65161)" fill="#262626"/>
<use data-text="s" xlink:href="#font_3_16" transform="matrix(0,-9.9626,-9.9626,-0,11.290001,91.77616)" fill="#262626"/>
<use data-text=")" xlink:href="#font_3_14" transform="matrix(0,-9.9626,-9.9626,-0,11.290001,87.85089)" fill="#262626"/>
<use data-text="T" xlink:href="#font_3_4" transform="matrix(9.9626,0,0,-9.9626,118.75,12.619003)"/>
<use data-text="o" xlink:href="#font_3_11" transform="matrix(9.9626,0,0,-9.9626,125.116107,12.619003)"/>
<use data-text="t" xlink:href="#font_3_17" transform="matrix(9.9626,0,0,-9.9626,130.0974,12.619003)"/>
<use data-text="a" xlink:href="#font_3_5" transform="matrix(9.9626,0,0,-9.9626,133.97286,12.619003)"/>
<use data-text="l" xlink:href="#font_3_8" transform="matrix(9.9626,0,0,-9.9626,138.95415,12.619003)"/>
<use data-text="T" xlink:href="#font_3_4" transform="matrix(9.9626,0,0,-9.9626,145.0413,12.619003)"/>
<use data-text="i" xlink:href="#font_3_7" transform="matrix(9.9626,0,0,-9.9626,152.2343,12.619003)"/>
<use data-text="m" xlink:href="#font_3_9" transform="matrix(9.9626,0,0,-9.9626,155.0039,12.619003)"/>
<use data-text="e" xlink:href="#font_3_6" transform="matrix(9.9626,0,0,-9.9626,163.30275,12.619003)"/>
<path transform="matrix(1,0,0,-1,282.88999,183.509)" d="M0 0H194.27155V161.39636H0Z" fill="#e5e5e5"/>
<path transform="matrix(1,0,0,-1,282.88999,183.509)" stroke-width=".3985" stroke-linecap="butt" stroke-miterlimit="10" stroke-linejoin="miter" fill="none" stroke="#ffffff" d="M8.83052 0V161.39636M52.98314 0V161.39636M97.13577 0V161.39636M141.28839 0V161.39636M185.44103 0V161.39636"/>
<path transform="matrix(1,0,0,-1,282.88999,183.509)" stroke-width=".3985" stroke-linecap="butt" stroke-miterlimit="10" stroke-linejoin="miter" fill="none" stroke="#ffffff" d="M0 0H194.27155M0 32.27927H194.27155M0 64.55853H194.27155M0 96.83781H194.27155M0 129.11708H194.27155M0 161.39636H194.27155"/>
<path transform="matrix(1,0,0,-1,282.88999,183.509)" stroke-width=".19925" stroke-linecap="butt" stroke-miterlimit="10" stroke-linejoin="miter" fill="none" stroke="#262626" d="M8.83052-4.25218V0M52.98314-4.25218V0M97.13577-4.25218V0M141.28839-4.25218V0M185.44103-4.25218V0"/>
<path transform="matrix(1,0,0,-1,282.88999,183.509)" stroke-width=".19925" stroke-linecap="butt" stroke-miterlimit="10" stroke-linejoin="miter" fill="none" stroke="#262626" d="M-2.83482 8.06981H0M-2.83482 16.13963H0M-2.83482 24.20944H0M-2.83482 40.34909H0M-2.83482 48.4189H0M-2.83482 56.48872H0M-2.83482 72.62836H0M-2.83482 80.69818H0M-2.83482 88.76799H0M-2.83482 104.90762H0M-2.83482 112.97745H0M-2.83482 121.04727H0M-2.83482 137.1869H0M-2.83482 145.25672H0M-2.83482 153.32654H0"/>
<path transform="matrix(1,0,0,-1,282.88999,183.509)" stroke-width=".19925" stroke-linecap="butt" stroke-miterlimit="10" stroke-linejoin="miter" fill="none" stroke="#262626" d="M-4.25182 0H0M-4.25182 32.27927H0M-4.25182 64.55853H0M-4.25182 96.83781H0M-4.25182 129.11708H0M-4.25182 161.39636H0"/>
<path transform="matrix(1,0,0,-1,282.88999,183.509)" stroke-width=".3985" stroke-linecap="butt" stroke-miterlimit="10" stroke-linejoin="miter" fill="none" stroke="#ffffff" d="M0 0V161.39636H194.27155V0H0Z"/>
<use data-text="5" xlink:href="#font_0_5" transform="matrix(9.9626,0,0,-9.9626,284.248,197.701)"/>
<use data-text="0" xlink:href="#font_0_1" transform="matrix(9.9626,0,0,-9.9626,289.22929,197.701)"/>
<use data-text="0" xlink:href="#font_0_1" transform="matrix(9.9626,0,0,-9.9626,294.21058,197.701)"/>
<use data-text="1" xlink:href="#font_0_2" transform="matrix(9.9626,0,0,-9.9626,324.526,197.701)"/>
<use data-text="," xlink:href="#font_1_2" transform="matrix(9.9626,0,0,-9.9626,329.507,197.701)"/>
<use data-text="0" xlink:href="#font_0_1" transform="matrix(9.9626,0,0,-9.9626,332.274,197.701)"/>
<use data-text="0" xlink:href="#font_0_1" transform="matrix(9.9626,0,0,-9.9626,337.25529,197.701)"/>
<use data-text="0" xlink:href="#font_0_1" transform="matrix(9.9626,0,0,-9.9626,342.23658,197.701)"/>
<use data-text="1" xlink:href="#font_0_2" transform="matrix(9.9626,0,0,-9.9626,368.67799,197.701)"/>
<use data-text="," xlink:href="#font_1_2" transform="matrix(9.9626,0,0,-9.9626,373.65898,197.701)"/>
<use data-text="5" xlink:href="#font_0_5" transform="matrix(9.9626,0,0,-9.9626,376.42698,197.701)"/>
<use data-text="0" xlink:href="#font_0_1" transform="matrix(9.9626,0,0,-9.9626,381.40827,197.701)"/>
<use data-text="0" xlink:href="#font_0_1" transform="matrix(9.9626,0,0,-9.9626,386.38957,197.701)"/>
<use data-text="2" xlink:href="#font_0_3" transform="matrix(9.9626,0,0,-9.9626,412.83,197.701)"/>
<use data-text="," xlink:href="#font_1_2" transform="matrix(9.9626,0,0,-9.9626,417.81098,197.701)"/>
<use data-text="0" xlink:href="#font_0_1" transform="matrix(9.9626,0,0,-9.9626,420.57899,197.701)"/>
<use data-text="0" xlink:href="#font_0_1" transform="matrix(9.9626,0,0,-9.9626,425.56028,197.701)"/>
<use data-text="0" xlink:href="#font_0_1" transform="matrix(9.9626,0,0,-9.9626,430.54158,197.701)"/>
<use data-text="2" xlink:href="#font_0_3" transform="matrix(9.9626,0,0,-9.9626,456.982,197.701)"/>
<use data-text="," xlink:href="#font_1_2" transform="matrix(9.9626,0,0,-9.9626,461.96299,197.701)"/>
<use data-text="5" xlink:href="#font_0_5" transform="matrix(9.9626,0,0,-9.9626,464.731,197.701)"/>
<use data-text="0" xlink:href="#font_0_1" transform="matrix(9.9626,0,0,-9.9626,469.71229,197.701)"/>
<use data-text="0" xlink:href="#font_0_1" transform="matrix(9.9626,0,0,-9.9626,474.69358,197.701)"/>
<use data-text="0" xlink:href="#font_0_1" transform="matrix(9.9626,0,0,-9.9626,270.13798,186.71901)"/>
<use data-text="0" xlink:href="#font_0_1" transform="matrix(9.9626,0,0,-9.9626,262.38899,154.44)"/>
<use data-text="." xlink:href="#font_1_1" transform="matrix(9.9626,0,0,-9.9626,267.36997,154.44)"/>
<use data-text="2" xlink:href="#font_0_3" transform="matrix(9.9626,0,0,-9.9626,270.13798,154.44)"/>
<use data-text="0" xlink:href="#font_0_1" transform="matrix(9.9626,0,0,-9.9626,262.38899,122.161998)"/>
<use data-text="." xlink:href="#font_1_1" transform="matrix(9.9626,0,0,-9.9626,267.36997,122.161998)"/>
<use data-text="4" xlink:href="#font_0_4" transform="matrix(9.9626,0,0,-9.9626,270.13798,122.161998)"/>
<use data-text="0" xlink:href="#font_0_1" transform="matrix(9.9626,0,0,-9.9626,262.38899,89.882999)"/>
<use data-text="." xlink:href="#font_1_1" transform="matrix(9.9626,0,0,-9.9626,267.36997,89.882999)"/>
<use data-text="6" xlink:href="#font_0_6" transform="matrix(9.9626,0,0,-9.9626,270.13798,89.882999)"/>
<use data-text="0" xlink:href="#font_0_1" transform="matrix(9.9626,0,0,-9.9626,262.38899,57.604005)"/>
<use data-text="." xlink:href="#font_1_1" transform="matrix(9.9626,0,0,-9.9626,267.36997,57.604005)"/>
<use data-text="8" xlink:href="#font_0_7" transform="matrix(9.9626,0,0,-9.9626,270.13798,57.604005)"/>
<use data-text="1" xlink:href="#font_0_2" transform="matrix(9.9626,0,0,-9.9626,270.13798,25.324997)"/>
<g clip-path="url(#clip_5)">
<path transform="matrix(1,0,0,-1,282.88999,183.509)" stroke-width=".59776" stroke-linecap="butt" stroke-miterlimit="10" stroke-linejoin="miter" fill="none" stroke="#e24a33" d="M8.83052 83.60141 52.98314 81.53104 97.13577 92.87198 141.28839 85.43274 185.44103 85.20682"/>
</g>
<path transform="matrix(1,0,0,-1,282.88999,183.509)" d="M11.81935 83.60141C11.81935 85.2521 10.48123 86.59024 8.83052 86.59024 7.17981 86.59024 5.84169 85.2521 5.84169 83.60141 5.84169 81.9507 7.17981 80.61258 8.83052 80.61258 10.48123 80.61258 11.81935 81.9507 11.81935 83.60141ZM8.83052 83.60141" fill="#e24a33"/>
<path transform="matrix(1,0,0,-1,282.88999,183.509)" stroke-width=".59776" stroke-linecap="butt" stroke-miterlimit="10" stroke-linejoin="miter" fill="none" stroke="#e24a33" d="M11.81935 83.60141C11.81935 85.2521 10.48123 86.59024 8.83052 86.59024 7.17981 86.59024 5.84169 85.2521 5.84169 83.60141 5.84169 81.9507 7.17981 80.61258 8.83052 80.61258 10.48123 80.61258 11.81935 81.9507 11.81935 83.60141ZM8.83052 83.60141"/>
<path transform="matrix(1,0,0,-1,282.88999,183.509)" d="M55.97197 81.53104C55.97197 83.18173 54.63385 84.51987 52.98314 84.51987 51.33244 84.51987 49.99431 83.18173 49.99431 81.53104 49.99431 79.88033 51.33244 78.5422 52.98314 78.5422 54.63385 78.5422 55.97197 79.88033 55.97197 81.53104ZM52.98314 81.53104" fill="#e24a33"/>
<path transform="matrix(1,0,0,-1,282.88999,183.509)" stroke-width=".59776" stroke-linecap="butt" stroke-miterlimit="10" stroke-linejoin="miter" fill="none" stroke="#e24a33" d="M55.97197 81.53104C55.97197 83.18173 54.63385 84.51987 52.98314 84.51987 51.33244 84.51987 49.99431 83.18173 49.99431 81.53104 49.99431 79.88033 51.33244 78.5422 52.98314 78.5422 54.63385 78.5422 55.97197 79.88033 55.97197 81.53104ZM52.98314 81.53104"/>
<path transform="matrix(1,0,0,-1,282.88999,183.509)" d="M100.1246 92.87198C100.1246 94.52269 98.78648 95.86081 97.13577 95.86081 95.48506 95.86081 94.14694 94.52269 94.14694 92.87198 94.14694 91.22127 95.48506 89.88315 97.13577 89.88315 98.78648 89.88315 100.1246 91.22127 100.1246 92.87198ZM97.13577 92.87198" fill="#e24a33"/>
<path transform="matrix(1,0,0,-1,282.88999,183.509)" stroke-width=".59776" stroke-linecap="butt" stroke-miterlimit="10" stroke-linejoin="miter" fill="none" stroke="#e24a33" d="M100.1246 92.87198C100.1246 94.52269 98.78648 95.86081 97.13577 95.86081 95.48506 95.86081 94.14694 94.52269 94.14694 92.87198 94.14694 91.22127 95.48506 89.88315 97.13577 89.88315 98.78648 89.88315 100.1246 91.22127 100.1246 92.87198ZM97.13577 92.87198"/>
<path transform="matrix(1,0,0,-1,282.88999,183.509)" d="M144.27722 85.43274C144.27722 87.08345 142.9391 88.42157 141.28839 88.42157 139.6377 88.42157 138.29956 87.08345 138.29956 85.43274 138.29956 83.78203 139.6377 82.44391 141.28839 82.44391 142.9391 82.44391 144.27722 83.78203 144.27722 85.43274ZM141.28839 85.43274" fill="#e24a33"/>
<path transform="matrix(1,0,0,-1,282.88999,183.509)" stroke-width=".59776" stroke-linecap="butt" stroke-miterlimit="10" stroke-linejoin="miter" fill="none" stroke="#e24a33" d="M144.27722 85.43274C144.27722 87.08345 142.9391 88.42157 141.28839 88.42157 139.6377 88.42157 138.29956 87.08345 138.29956 85.43274 138.29956 83.78203 139.6377 82.44391 141.28839 82.44391 142.9391 82.44391 144.27722 83.78203 144.27722 85.43274ZM141.28839 85.43274"/>
<path transform="matrix(1,0,0,-1,282.88999,183.509)" d="M188.42986 85.20682C188.42986 86.85753 187.09174 88.19565 185.44103 88.19565 183.79032 88.19565 182.4522 86.85753 182.4522 85.20682 182.4522 83.55612 183.79032 82.21799 185.44103 82.21799 187.09174 82.21799 188.42986 83.55612 188.42986 85.20682ZM185.44103 85.20682" fill="#e24a33"/>
<path transform="matrix(1,0,0,-1,282.88999,183.509)" stroke-width=".59776" stroke-linecap="butt" stroke-miterlimit="10" stroke-linejoin="miter" fill="none" stroke="#e24a33" d="M188.42986 85.20682C188.42986 86.85753 187.09174 88.19565 185.44103 88.19565 183.79032 88.19565 182.4522 86.85753 182.4522 85.20682 182.4522 83.55612 183.79032 82.21799 185.44103 82.21799 187.09174 82.21799 188.42986 83.55612 188.42986 85.20682ZM185.44103 85.20682"/>
<path transform="matrix(1,0,0,-1,282.88999,183.509)" stroke-width=".59776" stroke-linecap="butt" stroke-miterlimit="10" stroke-linejoin="miter" fill="none" stroke="#e24a33" d=""/>
<use data-text="T" xlink:href="#font_3_4" transform="matrix(9.9626,0,0,-9.9626,347.95698,213.338)" fill="#262626"/>
<use data-text="i" xlink:href="#font_3_7" transform="matrix(9.9626,0,0,-9.9626,355.14997,213.338)" fill="#262626"/>
<use data-text="m" xlink:href="#font_3_9" transform="matrix(9.9626,0,0,-9.9626,357.91957,213.338)" fill="#262626"/>
<use data-text="e" xlink:href="#font_3_6" transform="matrix(9.9626,0,0,-9.9626,366.2184,213.338)" fill="#262626"/>
<use data-text="S" xlink:href="#font_3_3" transform="matrix(9.9626,0,0,-9.9626,373.95936,213.338)" fill="#262626"/>
<use data-text="t" xlink:href="#font_3_17" transform="matrix(9.9626,0,0,-9.9626,379.4886,213.338)" fill="#262626"/>
<use data-text="e" xlink:href="#font_3_6" transform="matrix(9.9626,0,0,-9.9626,383.36405,213.338)" fill="#262626"/>
<use data-text="p" xlink:href="#font_3_12" transform="matrix(9.9626,0,0,-9.9626,387.78746,213.338)" fill="#262626"/>
<use data-text="s" xlink:href="#font_3_16" transform="matrix(9.9626,0,0,-9.9626,393.31669,213.338)" fill="#262626"/>
<use data-text="N" xlink:href="#font_1_3" transform="matrix(9.9626,0,0,-9.9626,400.58,213.338)" fill="#262626"/>
<use data-text="t" xlink:href="#font_4_1" transform="matrix(6.9738,0,0,-6.9738,408.58399,214.832)" fill="#262626"/>
<use data-text="T" xlink:href="#font_3_4" transform="matrix(0,-9.9626,-9.9626,-0,253.06,135.62799)" fill="#262626"/>
<use data-text="i" xlink:href="#font_3_7" transform="matrix(0,-9.9626,-9.9626,-0,253.06,128.435)" fill="#262626"/>
<use data-text="m" xlink:href="#font_3_9" transform="matrix(0,-9.9626,-9.9626,-0,253.06,125.665409)" fill="#262626"/>
<use data-text="e" xlink:href="#font_3_6" transform="matrix(0,-9.9626,-9.9626,-0,253.06,117.36655)" fill="#262626"/>
<use data-text="(" xlink:href="#font_3_13" transform="matrix(0,-9.9626,-9.9626,-0,253.06,109.62561)" fill="#262626"/>
<use data-text="1" xlink:href="#font_0_2" transform="matrix(0,-9.9626,-9.9626,-0,253.06,105.74698)" fill="#262626"/>
<use data-text="0" xlink:href="#font_0_1" transform="matrix(0,-9.9626,-9.9626,-0,253.06,100.765689)" fill="#262626"/>
<use data-text="&#x2212;" xlink:href="#font_6_1" transform="matrix(0,-6.9738,-6.9738,-0,249.445,95.783969)" fill="#262626"/>
<use data-text="1" xlink:href="#font_7_2" transform="matrix(0,-6.9738,-6.9738,-0,249.445,89.55795)" fill="#262626"/>
<use data-text="0" xlink:href="#font_7_1" transform="matrix(0,-6.9738,-6.9738,-0,249.445,85.582889)" fill="#262626"/>
<use data-text="s" xlink:href="#font_3_16" transform="matrix(0,-9.9626,-9.9626,-0,253.06,77.79697)" fill="#262626"/>
<use data-text=")" xlink:href="#font_3_14" transform="matrix(0,-9.9626,-9.9626,-0,253.06,73.871707)" fill="#262626"/>
<use data-text="T" xlink:href="#font_3_4" transform="matrix(9.9626,0,0,-9.9626,323.763,10.682007)"/>
<use data-text="i" xlink:href="#font_3_7" transform="matrix(9.9626,0,0,-9.9626,330.956,10.682007)"/>
<use data-text="m" xlink:href="#font_3_9" transform="matrix(9.9626,0,0,-9.9626,333.7256,10.682007)"/>
<use data-text="e" xlink:href="#font_3_6" transform="matrix(9.9626,0,0,-9.9626,342.02445,10.682007)"/>
<use data-text="p" xlink:href="#font_3_12" transform="matrix(9.9626,0,0,-9.9626,349.76539,10.682007)"/>
<use data-text="e" xlink:href="#font_3_6" transform="matrix(9.9626,0,0,-9.9626,355.57359,10.682007)"/>
<use data-text="r" xlink:href="#font_3_15" transform="matrix(9.9626,0,0,-9.9626,359.99699,10.682007)"/>
<use data-text="M" xlink:href="#font_3_2" transform="matrix(9.9626,0,0,-9.9626,367.21986,10.682007)"/>
<use data-text="a" xlink:href="#font_3_5" transform="matrix(9.9626,0,0,-9.9626,376.34559,10.682007)"/>
<use data-text="t" xlink:href="#font_3_17" transform="matrix(9.9626,0,0,-9.9626,381.32688,10.682007)"/>
<use data-text="r" xlink:href="#font_3_15" transform="matrix(9.9626,0,0,-9.9626,385.20234,10.682007)"/>
<use data-text="i" xlink:href="#font_3_7" transform="matrix(9.9626,0,0,-9.9626,389.10768,10.682007)"/>
<use data-text="x" xlink:href="#font_3_18" transform="matrix(9.9626,0,0,-9.9626,391.87727,10.682007)"/>
<use data-text="E" xlink:href="#font_3_1" transform="matrix(9.9626,0,0,-9.9626,400.46504,10.682007)"/>
<use data-text="l" xlink:href="#font_3_8" transform="matrix(9.9626,0,0,-9.9626,407.2396,10.682007)"/>
<use data-text="e" xlink:href="#font_3_6" transform="matrix(9.9626,0,0,-9.9626,410.0092,10.682007)"/>
<use data-text="m" xlink:href="#font_3_9" transform="matrix(9.9626,0,0,-9.9626,414.4326,10.682007)"/>
<use data-text="e" xlink:href="#font_3_6" transform="matrix(9.9626,0,0,-9.9626,422.73146,10.682007)"/>
<use data-text="n" xlink:href="#font_3_10" transform="matrix(9.9626,0,0,-9.9626,427.15486,10.682007)"/>
<use data-text="t" xlink:href="#font_3_17" transform="matrix(9.9626,0,0,-9.9626,432.40513,10.682007)"/>
</svg>
