<svg xmlns="http://www.w3.org/2000/svg" xmlns:xlink="http://www.w3.org/1999/xlink" version="1.1" width="338.122" height="220.506" viewBox="0 0 338.122 220.506">
<defs>
<path id="font_0_4" d="M.2939911 .64004519C.2939911 .66400149 .2939911 .6660156 .2709961 .6660156 .20899964 .60227969 .12098694 .60227969 .08898926 .60227969V.57128909C.10899353 .57128909 .16799927 .57128909 .21998596 .5972748V.07902527C.21998596 .042999269 .21699524 .0309906 .1269989 .0309906H.09498596V0C.12998963 .0029907227 .21699524 .0029907227 .25698854 .0029907227 .29699708 .0029907227 .38398744 .0029907227 .4189911 0V.0309906H.3869934C.29699708 .0309906 .2939911 .041992189 .2939911 .07902527V.64004519Z"/>
<path id="font_0_3" d="M.45999146 .31976319C.45999146 .39982606 .45498658 .47988893 .41999818 .5539398 .37399293 .65000918 .2919922 .6660156 .25 .6660156 .18998719 .6660156 .116989139 .64001467 .07598877 .54693606 .04399109 .47789 .038986207 .39982606 .038986207 .31976319 .038986207 .24472046 .042999269 .15464783 .083999637 .07859802 .1269989-.0024719239 .19999695-.022460938 .24899292-.022460938 .30299378-.022460938 .3789978-.0014648438 .4229889 .09359741 .45498658 .16265869 .45999146 .2407074 .45999146 .31976319M.24899292-.00047302247C.20999146-.00047302247 .15098572 .024551392 .1329956 .12062073 .12199402 .18066406 .12199402 .2727356 .12199402 .3317871 .12199402 .39582826 .12199402 .46188355 .12998963 .5159149 .14898682 .63500979 .22399903 .64401248 .24899292 .64401248 .28199769 .64401248 .34799195 .6259918 .36698915 .52693179 .3769989 .47088624 .3769989 .39482118 .3769989 .3317871 .3769989 .25672914 .3769989 .18867493 .3659973 .12461853 .35099793 .029556275 .2939911-.00047302247 .24899292-.00047302247Z"/>
<path id="font_1_1" d="M.74398806 .2263794C.7599945 .2263794 .7839966 .2263794 .7839966 .25038148 .7839966 .27539063 .7609863 .27539063 .74398806 .27539063H.147995C.13198853 .27539063 .10798645 .27539063 .10798645 .25138856 .10798645 .2263794 .1309967 .2263794 .147995 .2263794H.74398806Z"/>
<path id="font_2_3" d="M.5049896 .18203736H.47099305C.46798707 .16001892 .45799256 .100997928 .44499208 .09098816 .43699647 .084991458 .3600006 .084991458 .34599305 .084991458H.1619873C.2669983 .17803955 .3019867 .20603943 .3619995 .25306703 .43598939 .312088 .5049896 .374115 .5049896 .46914674 .5049896 .5900879 .39898683 .6640625 .2709961 .6640625 .14698792 .6640625 .06298828 .57710269 .06298828 .4851532 .06298828 .43414308 .10598755 .42915345 .115997318 .42915345 .13999939 .42915345 .16899109 .44615174 .16899109 .48214723 .16899109 .5001526 .1619873 .53515627 .10998535 .53515627 .14099121 .6060791 .20899964 .62805178 .2559967 .62805178 .35598756 .62805178 .4079895 .5501404 .4079895 .46914674 .4079895 .38212586 .34599305 .3130951 .31399537 .27708436L.07299805 .038986207C.06298828 .02999878 .06298828 .027999878 .06298828 0H.47499085L.5049896 .18203736Z"/>
<path id="font_2_2" d="M.33499146 .63612368C.33499146 .6630554 .33299256 .6640625 .30499269 .6640625 .24099732 .6014404 .1499939 .6004486 .10899353 .6004486V.5644531C.1329956 .5644531 .19898987 .5644531 .2539978 .592453V.08203125C.2539978 .04899597 .2539978 .035995485 .1539917 .035995485H.115997318V0C.13398743 .0009918213 .25698854 .0039978029 .2939911 .0039978029 .32499696 .0039978029 .45098878 .0009918213 .47299195 0V.035995485H.43499757C.33499146 .035995485 .33499146 .04899597 .33499146 .08203125V.63612368Z"/>
<path id="font_2_1" d="M.5159912 .31925965C.5159912 .42918397 .5029907 .50813296 .45700074 .5780945 .42599488 .62405398 .3639984 .6640625 .28399659 .6640625 .051986696 .6640625 .051986696 .39120484 .051986696 .31925965 .051986696 .2472992 .051986696-.01953125 .28399659-.01953125 .5159912-.01953125 .5159912 .2472992 .5159912 .31925965M.28399659 .008468628C.23799134 .008468628 .1769867 .035446168 .15699768 .117385867 .14299011 .17634583 .14299011 .25830079 .14299011 .33224488 .14299011 .40519715 .14299011 .4811554 .1579895 .53611758 .1789856 .6150665 .24299622 .63604739 .28399659 .63604739 .33799745 .63604739 .3899994 .6030731 .4079895 .545105 .42399598 .4911499 .4249878 .41918946 .4249878 .33224488 .4249878 .25830079 .4249878 .18434143 .4119873 .12138367 .3919983 .030441285 .32398988 .008468628 .28399659 .008468628Z"/>
<clipPath id="clip_3">
<path transform="matrix(1,0,0,-1,173.363,568.723)" d="M-126.57191 385.21894H67.69922V546.6154H-126.57191Z"/>
</clipPath>
<path id="font_4_1" d="M.03199768 .031967164V.0009765625H.24798584V.031967164C.21598816 .031967164 .1749878 .046951295 .17298889 .08190918 .17298889 .09190369 .17799378 .10089111 .18099976 .10987854 .19198609 .14285279 .20199585 .17581177 .21499634 .20777893 .21798706 .21676636 .21798706 .22875977 .23199463 .22875977H.45899964C.47099305 .22875977 .47200013 .21777344 .47599793 .20878601L.49699403 .1458435C.5069885 .11987305 .5249939 .08190918 .5249939 .060943605V.0569458C.5159912 .032974245 .47698976 .031967164 .44799806 .031967164H.44198609V.0009765625H.71699526V.031967164H.6879883C.6649933 .031967164 .6409912 .033966066 .6289978 .045959474 .6179962 .057937623 .6139984 .074920658 .60798647 .089904788 .5569916 .23875427 .5059967 .38876344 .45298768 .53778079 .43499757 .5897827 .41099549 .6447754 .397995 .6977844 .3939972 .7107849 .3880005 .7167969 .37399293 .7167969 .35398866 .7167969 .34999085 .6957855 .34399415 .67578127 .28799439 .5067749 .22599793 .33976747 .16899109 .17181397L.147995 .11187744C.14199829 .09390259 .13598633 .075927738 .12199402 .061935426 .09899902 .037963869 .06399536 .031967164 .03199768 .031967164M.23298645 .25976563 .34498597 .58477786 .45799256 .25976563H.23298645Z"/>
<path id="font_4_30" d="M.026992798 .43138124V.4003601H.041992189C.07499695 .4003601 .10499573 .39735414 .10499573 .35029603V.074020389C.10499573 .032974245 .07699585 .031967164 .032989503 .031967164H.026992798V.0009765625H.2689972V.031967164C.25698854 .031967164 .24299622 .030975342 .23098755 .030975342 .19898987 .030975342 .17199707 .035980226 .17199707 .073013309V.20614624C.17199707 .2912445 .19198609 .42037965 .2899933 .42037965 .2939911 .42037965 .29699708 .42037965 .30099488 .41937257V.41836549C.28599549 .41236878 .27799989 .39634706 .27799989 .38032533 .27799989 .35731507 .29299928 .34129334 .31599427 .33728028 .34498597 .33728028 .3639984 .3553009 .3639984 .38032533 .3639984 .42037965 .32598878 .4423828 .2899933 .4423828 .23098755 .4423828 .17799378 .38934327 .16799927 .33528138L.16699219 .4423828 .026992798 .43138124Z"/>
<path id="font_4_23" d="M.036987306 .430542V.3995819H.055999757C.084991458 .3995819 .11099243 .3955841 .11099243 .34962464V.07292175C.11099243 .037963869 .09298706 .031967164 .032989503 .031967164V.0009765625H.24798584V.031967164H.22799683C.20199585 .031967164 .17799378 .034973146 .17799378 .06692505V.44154359L.036987306 .430542M.12098694 .6689453C.09599304 .66589358 .07598877 .64382937 .07598877 .61672976 .07598877 .5876312 .100997928 .5635376 .1289978 .5635376 .1559906 .5635376 .18199158 .58561709 .18199158 .61672976 .18199158 .64582827 .15699768 .6699219 .1289978 .6699219 .12599182 .66993716 .12399292 .6689453 .12098694 .6689453Z"/>
<path id="font_4_33" d="M.14898682 .6152344C.14898682 .54644778 .11999512 .421875 .017990113 .421875V.39987184H.10398865V.1421051C.10398865 .10914612 .10598755 .076171878 .12199402 .047195436 .14399719 .007232666 .19099427-.009765625 .23498535-.009765625 .31698609-.009765625 .33299256 .08216858 .33299256 .14511109V.18206787H.30799867C.30799867 .16708374 .30899049 .15209961 .30899049 .1361084 .30899049 .09214783 .29899598 .0152282719 .23999024 .0152282719 .18299866 .0152282719 .17399597 .08416748 .17399597 .12911988V.39987184H.31599427V.43066407H.17399597V.6152344H.14898682Z"/>
<path id="font_4_22" d="M.03199768 .6843109V.6533203H.04699707C.083999637 .6533203 .10998535 .6493225 .10998535 .6013336V.09603882C.10998535 .089035037 .11099243 .08201599 .11099243 .074020389 .11099243 .035980226 .083999637 .031967164 .055999757 .031967164H.03199768V.0009765625H.2579956V.031967164H.23199463C.20399475 .031967164 .17999268 .035980226 .17999268 .073013309V.25621034C.17999268 .3282776 .21699524 .42037965 .31599427 .42037965 .37998963 .42037965 .38598634 .3513031 .38598634 .30825807V.069000247C.38598634 .034973146 .35699464 .031967164 .32598878 .031967164H.30799867V.0009765625H.5339966V.031967164H.5089874C.48199464 .031967164 .45599366 .035980226 .45599366 .070007327V.28923036C.45599366 .32226563 .45498658 .3553009 .43998719 .38534547 .41600038 .42938233 .3659973 .4423828 .31999208 .4423828 .2619934 .4423828 .19699097 .40335084 .17799378 .3473053L.1769867 .6953125 .03199768 .6843109Z"/>
<path id="font_4_25" d="M.03199768 .43138124V.4003601H.04699707C.07998657 .4003601 .10998535 .39735414 .10998535 .35029603V.074020389C.10998535 .032974245 .08198547 .031967164 .037994386 .031967164H.03199768V.0009765625H.2579956V.031967164H.23199463C.20399475 .031967164 .17999268 .035980226 .17999268 .073013309V.25621034C.17999268 .32928468 .21998596 .42037965 .31599427 .42037965 .37998963 .42037965 .3869934 .35430909 .3869934 .30825807V.070007327C.3869934 .033966066 .35699464 .031967164 .32398988 .031967164H.30899049V.0009765625H.5349884V.031967164H.5089874C.48098756 .031967164 .45700074 .035980226 .45700074 .073013309V.25621034C.45700074 .32928468 .49699403 .42037965 .59298709 .42037965 .6569977 .42037965 .6639862 .35430909 .6639862 .30825807V.070007327C.6639862 .033966066 .6339874 .031967164 .6009979 .031967164H.58599856V.0009765625H.81199648V.031967164H.79100039C.7609863 .031967164 .73399356 .034973146 .73399356 .070007327V.2962494C.73399356 .33328248 .7319946 .36631776 .70799258 .4003601 .6819916 .43338014 .6389923 .4423828 .598999 .4423828 .5339966 .4423828 .48098756 .4043579 .45399476 .34629823 .43499757 .41737367 .3899994 .4423828 .32099916 .4423828 .25698854 .4423828 .19599915 .402359 .1749878 .34028626L.17399597 .4423828 .03199768 .43138124Z"/>
<path id="font_4_19" d="M.11199951 .23242188H.3999939C.41099549 .23242188 .41600038 .2394104 .41600038 .250412 .41600038 .35630799 .35099793 .4482422 .23899842 .4482422 .115997318 .4482422 .027999878 .33932496 .027999878 .22039795 .027999878 .12832642 .07899475 .04624939 .16699219 .006225586 .18998719-.003768921 .21699524-.009765625 .24198914-.009765625H.24499512C.32199098-.009765625 .38598634 .0332489 .41299439 .110305789 .4139862 .11331177 .4139862 .11730957 .4139862 .12031555 .4139862 .12731934 .4099884 .13232422 .40299989 .13232422 .3880005 .13232422 .38198854 .0993042 .37599183 .08828735 .35099793 .04425049 .30299378 .0152282719 .25099183 .0152282719 .21398926 .0152282719 .18199158 .036239625 .15499878 .06326294 .114990238 .109313968 .11199951 .17436219 .11199951 .23242188M.11299133 .25341798C.11299133 .33033753 .1539917 .426239 .23599243 .426239H.24099732C.33898927 .41723634 .33799745 .3133545 .34799195 .25341798H.11299133Z"/>
<path id="font_4_17" d="M.35899354 .38723756C.33299256 .38523866 .31199647 .36923219 .31199647 .3412323 .31199647 .3142395 .33099366 .29522706 .35798646 .29522706 .3880005 .29522706 .4039917 .31723023 .4039917 .3452301V.3512268C.3939972 .4242401 .30899049 .4482422 .25099183 .4482422 .1289978 .4482422 .032989503 .3412323 .032989503 .21723938 .032989503 .10423279 .12098694-.009765625 .25-.009765625 .31599427-.009765625 .3809967 .026229859 .4079895 .096221927 .4099884 .10223389 .4149933 .11123657 .4149933 .1182251 .4149933 .12522888 .4099884 .13023377 .40299989 .13023377 .3880005 .13023377 .3789978 .09222412 .37199403 .07922363 .34799195 .040222169 .30699159 .016220093 .2619934 .0152282719 .15499878 .0152282719 .12199402 .1222229 .116989139 .20123291V.21322632C.116989139 .29322816 .13598633 .41323854 .24598694 .42323304H.2539978C.29100038 .42323304 .32998658 .41223146 .35899354 .38723756Z"/>
<path id="font_4_26" d="M.03199768 .43138124V.4003601H.04699707C.07998657 .4003601 .10998535 .39735414 .10998535 .35029603V.074020389C.10998535 .032974245 .08198547 .031967164 .037994386 .031967164H.03199768V.0009765625H.2579956V.031967164H.23199463C.20399475 .031967164 .17999268 .035980226 .17999268 .073013309V.25621034C.17999268 .3282776 .21699524 .42037965 .31599427 .42037965 .37998963 .42037965 .38598634 .3513031 .38598634 .30825807V.069000247C.38598634 .034973146 .35699464 .031967164 .32598878 .031967164H.30799867V.0009765625H.5339966V.031967164H.5089874C.48199464 .031967164 .45599366 .035980226 .45599366 .070007327V.28923036C.45599366 .32226563 .45498658 .35630799 .43899537 .38633729 .41600038 .43037416 .36499024 .4423828 .31900025 .4423828 .2579956 .4423828 .19499207 .4003601 .1749878 .34028626L.17399597 .4423828 .03199768 .43138124Z"/>
<path id="font_4_31" d="M.17599488 .4482422C.13899231 .44422914 .099990848 .4372406 .070999149 .41223146 .04699707 .39123536 .032989503 .35723878 .032989503 .32522584 .032989503 .15423584 .31098939 .25123597 .31098939 .10122681 .31098939 .040222169 .2559967 .01222229 .20098877 .01222229 .125 .01222229 .07398987 .066223148 .05999756 .15222168 .057998659 .16122437 .056991579 .17022705 .04499817 .17022705 .036987306 .17022705 .032989503 .16423035 .032989503 .15722656V-.00077819827C.033996583-.0057678224 .036987306-.008773804 .041992189-.009765625H.04399109C.05999756-.009765625 .07598877 .02722168 .08799744 .030227662H.08898926C.09700012 .030227662 .12399292 .0052337648 .14498902-.0017700195 .1619873-.0077667238 .17999268-.009765625 .19799805-.009765625 .2809906-.009765625 .3600006 .034225465 .3600006 .12623596 .3600006 .19223023 .31199647 .24623108 .24598694 .26322938 .18399048 .28022767 .08198547 .28022767 .08198547 .3532257 .08198547 .4142151 .14898682 .42921449 .19299317 .42921449 .24198914 .42921449 .30999757 .40220643 .30999757 .3162079 .30999757 .30722047 .31098939 .2992096 .32199098 .2992096 .33198548 .2992096 .33599855 .30722047 .33599855 .31721498 .33599855 .32221986 .33499146 .32720948 .33499146 .33120729V.4342041C.33499146 .44023133 .33198548 .4482422 .32398988 .4482422 .30799867 .4482422 .2979889 .42323304 .2869873 .42323304H.28599549C.27799989 .42323304 .2619934 .43623353 .25 .44023133 .23199463 .44621278 .21199036 .44921876 .19299317 .44921876 .18699646 .449234 .18199158 .4482422 .17599488 .4482422Z"/>
<path id="font_4_34" d="M.018997193 .43066407V.3996582H.034988405C.06298828 .3996582 .084991458 .39665223 .101989749 .3586731 .147995 .24871826 .19198609 .13775635 .23899842 .027801514 .24198914 .019805909 .24899292 .00881958 .24899292-.00018310547 .24899292-.0011749268 .24798584-.0031738282 .24798584-.004180908 .24099732-.025177002 .23098755-.045166017 .22200012-.06515503 .20199585-.11413574 .17298889-.18211365 .11099243-.18211365 .09599304-.18211365 .07598877-.17611695 .06399536-.16412354 .08299255-.16111756 .102996829-.15011597 .102996829-.12213135 .102996829-.10014343 .08799744-.08215332 .06599426-.08015442 .034988405-.08015442 .018997193-.09814453 .018997193-.12313843 .018997193-.17311096 .06599426-.20410156 .11099243-.20410156H.11199951C.18399048-.20410156 .22200012-.13012696 .24699402-.07115173L.2769928 .0008239746C.31199647 .08677673 .34799195 .17274475 .38398744 .25871278L.4079895 .3156891C.4249878 .3626709 .45098878 .3996582 .5079956 .3996582V.43066407H.34700013V.3996582C.36999513 .3996582 .3929901 .383667 .3929901 .3586731 .3929901 .3456726 .3869934 .33268739 .38198854 .32069398 .35299684 .25271607 .32699586 .18374634 .29699708 .11576843 .2939911 .106781009 .2889862 .09777832 .2869873 .088775638H.28599549C.2789917 .11177063 .2679901 .13276673 .25898744 .15475464 .23298645 .21972656 .20199585 .28570558 .17799378 .35168458 .1749878 .3586731 .17098999 .36567689 .17098999 .3736725V.3776703C.1769867 .3996582 .20599365 .3996582 .22599793 .3996582V.43066407H.018997193Z"/>
<path id="font_4_28" d="M.31698609 .75C.30299378 .74497988 .2849884 .72499087 .272995 .7129822 .1499939 .5899811 .099990848 .4199829 .099990848 .25097657 .099990848 .06997681 .15899658-.123031619 .30599977-.24102783 .31098939-.24403382 .31698609-.24902344 .32299806-.24902344 .32899476-.24902344 .33198548-.24302674 .33198548-.23902893 .33198548-.22802735 .30499269-.20703125 .2939911-.19403076 .19099427-.07102966 .15899658 .0929718 .15899658 .24998474 .15899658 .41497804 .19198609 .5959778 .31599427 .71998599 .32199098 .72598269 .33198548 .73298647 .33198548 .74098208 .33198548 .7469635 .32699586 .75097659 .32099916 .75097659 .31999208 .7509918 .31799317 .75 .31698609 .75Z"/>
<path id="font_4_4" d="M.032989503 .68066409V.6496582C.04598999 .6496582 .05899048 .65065 .070999149 .65065 .10699463 .65065 .13598633 .6456604 .13598633 .60572817V.07499695C.13598633 .036972047 .102996829 .030975342 .068984989 .030975342 .055999757 .030975342 .04399109 .031967164 .032989503 .031967164V.0009765625H.35299684V.031967164C.33898927 .031967164 .32199098 .030975342 .30499269 .030975342 .25498963 .030975342 .22499085 .034973146 .22499085 .08100891V.32617188H.30899049C.34298707 .32617188 .38398744 .3241577 .40299989 .2951355 .4169922 .27313233 .41799928 .24511719 .41799928 .2190857V.20909119H.44299317V.4739685H.41799928V.463974C.41799928 .4120636 .4079895 .36714173 .34700013 .35916139 .32899476 .35716249 .30999757 .35716249 .2919922 .35716249H.22499085V.61372378C.22499085 .6476593 .24499512 .6496582 .2659912 .6496582H.3829956C.43499757 .6496582 .49798585 .6476593 .5359955 .60873416 .57398989 .5688019 .5779877 .50790408 .58499148 .45599366H.6100006L.58200076 .68066409H.032989503Z"/>
<path id="font_4_7" d="M.032989503 .68359377V.6525879C.04598999 .6525879 .05899048 .6535797 .070999149 .6535797 .10699463 .6535797 .13598633 .6485901 .13598633 .60861209V.07493591C.13598633 .036972047 .102996829 .030975342 .068984989 .030975342 .055999757 .030975342 .04399109 .031967164 .032989503 .031967164V.0009765625H.55400088L.58200076 .25883485H.5569916C.548996 .17788697 .5359955 .061950685 .42099 .03996277 .3919983 .031967164 .36299134 .031967164 .33399964 .031967164H.2599945C.23999024 .033966066 .22499085 .038970949 .22499085 .06594849V.60861209C.22499085 .6485901 .26098634 .6535797 .2939911 .6535797 .30499269 .6535797 .31498719 .6525879 .32398988 .6525879H.35299684V.68359377H.032989503Z"/>
<path id="font_4_9" d="M.37098695 .7060547C.28199769 .69303897 .20698548 .6640167 .147995 .5939636 .08699036 .52290347 .054992677 .4308319 .054992677 .33876039 .054992677 .16662598 .17799378-.021484375 .3899994-.021484375 .58599856-.021484375 .7220001 .15762329 .7220001 .34176637 .7220001 .52490237 .58699038 .70703127 .38598634 .70703127 .3809967 .7070465 .37599183 .7060547 .37098695 .7060547M.1579895 .3277588V.34477235C.1579895 .45985414 .18199158 .59095767 .29699708 .6569977 .32499696 .6720123 .35598756 .6810303 .3880005 .6810303 .47299195 .6810303 .54499819 .6209717 .58399966 .5409241 .61099246 .48587037 .61898806 .41682435 .61898806 .3587799 .61898806 .22668457 .58799746 .061553956 .43399049 .010513306 .41999818 .006515503 .40499879 .004501343 .3909912 .004501343 .24598694 .004501343 .1769867 .15362549 .1619873 .27471925 .1599884 .2927246 .1599884 .30973817 .1579895 .3277588Z"/>
<path id="font_4_10" d="M.033996583 .68359377V.6525879C.04699707 .6525879 .05999756 .6535797 .07199097 .6535797 .10798645 .6535797 .13699341 .6485901 .13699341 .60861209V.07493591C.13699341 .036972047 .10398865 .030975342 .069992069 .030975342 .056991579 .030975342 .04499817 .031967164 .033996583 .031967164V.0009765625H.32899476V.031967164H.29499818C.25299073 .031967164 .22599793 .033966066 .22599793 .07594299V.31677247H.4099884C.5049896 .323761 .6239929 .38174439 .6239929 .49667359 .6239929 .60261538 .5189972 .67259219 .41799928 .68258669 .40299989 .68356326 .3889923 .6845703 .37399293 .6845703 .35398866 .6845856 .33399964 .68359377 .31498719 .68359377H.033996583M.22299195 .34277345V.62060549C.22299195 .647583 .23999024 .650589 .25898744 .6525879H.33399964C.3899994 .6525879 .45498658 .650589 .49398805 .6036072 .5179901 .57463076 .5209961 .5346527 .5209961 .4986725 .5209961 .46269227 .5179901 .42471314 .49598695 .3947296 .46199037 .35176087 .4039917 .34277345 .35299684 .34277345H.22299195Z"/>
<path id="font_4_32" d="M.42900086 .7499695C.4189911 .7439575 .41299439 .71595767 .4059906 .69996646L.35198976 .55496218C.2789917 .35995484 .20498657 .16595459 .13198853-.029052735L.05999756-.22105408C.05899048-.22605896 .055999757-.23104859 .055999757-.23605347V-.23805237C.055999757-.24404907 .05899048-.24804688 .06498718-.24804688H.067993167C.07899475-.24604798 .08699036-.21305847 .09399414-.1950531L.15699768-.026046753C.23098755 .16894531 .3039856 .36495973 .3769989 .5599518L.43998719 .7269592C.44198609 .7299652 .44299317 .733963 .44299317 .7379608V.7399597C.44299317 .7459564 .43899537 .75097659 .43299867 .75097659 .43199159 .75097659 .42999269 .75097659 .42900086 .7499695Z"/>
<path id="font_4_16" d="M.026992798 .6843109V.6533203H.04399109C.07499695 .6533203 .10499573 .65031436 .10499573 .6033325V.0012207031L.1289978 .0032196046 .14199829 .020233155 .1659851 .0622406H.16799927C.19198609 .014221191 .25099183-.009765625 .30099488-.009765625 .4249878-.009765625 .5209961 .09825134 .5209961 .21730042 .5209961 .33233644 .43299867 .4423828 .30499269 .4423828 .25299073 .4423828 .20698548 .41737367 .17199707 .37835694V.6953125L.026992798 .6843109M.43598939 .19229126C.43199159 .14427185 .4269867 .102264408 .39698792 .06524658 .37199403 .033233644 .33399964 .01222229 .2939911 .01222229 .25099183 .01222229 .21199036 .037231447 .18899536 .07324219 .18099976 .08425903 .1749878 .09326172 .1749878 .10826111V.27531434C.1749878 .28833009 .17399597 .30133058 .17399597 .31433106 .17399597 .37435914 .24699402 .42037965 .30299378 .42037965 .41099549 .42037965 .43699647 .29432679 .43699647 .21530152 .43699647 .20729065 .43699647 .20028687 .43598939 .19229126Z"/>
<path id="font_4_29" d="M.06199646 .7499695C.057998659 .7479706 .055999757 .7449646 .055999757 .7419739 .055999757 .7299652 .07899475 .7129669 .08999634 .7009735 .19699097 .57696536 .22898865 .40797425 .22898865 .24996948 .22898865 .088974 .19599915-.09402466 .07598877-.21403504 .068984989-.22102356 .055999757-.23103333 .055999757-.23902893 .055999757-.24403382 .06098938-.24902344 .066986087-.24902344H.067993167C.07998657-.24702454 .099990848-.22602844 .11199951-.21403504 .23799134-.088027957 .28799439 .081970218 .28799439 .25196839 .28799439 .43597413 .22799683 .6189728 .08198547 .7429657 .07699585 .7459717 .07199097 .75097659 .06599426 .75097659 .06498718 .75097659 .06399536 .75097659 .06199646 .7499695Z"/>
<path id="font_4_20" d="M.11099243 .43066407H.032989503V.3996582H.11099243V.06893921C.11099243 .034973146 .08198547 .031967164 .051986696 .031967164H.033996583V.0009765625H.2749939V.031967164H.24299622C.22099304 .031967164 .19799805 .032974245 .18598938 .04396057 .17799378 .052947999 .17799378 .06593323 .17799378 .077926639V.3996582H.2919922V.43066407H.1749878V.56185916C.1749878 .61694338 .21299744 .6840515 .2669983 .6840515 .2769928 .6840515 .29100038 .68203738 .29899598 .6760254 .27999879 .6710205 .2689972 .6529999 .2689972 .63397219 .2689972 .6079254 .2889862 .5908966 .31298829 .5908966 .33898927 .5908966 .35798646 .6109314 .35798646 .6329651 .35798646 .68104556 .30799867 .7060547 .2669983 .7060547 .17599488 .7060547 .11099243 .634964 .11099243 .53782656V.43066407Z"/>
<path id="font_4_27" d="M.23498535 .4482422C.10899353 .43522645 .027999878 .3292389 .027999878 .21322632 .027999878 .100234989 .116989139-.009765625 .25-.009765625 .36999513-.009765625 .47099305 .08822632 .47099305 .2142334 .47099305 .33320619 .3809967 .44921876 .24798584 .44921876 .24398804 .449234 .23899842 .4482422 .23498535 .4482422M.11199951 .19023133V.23423767C.11199951 .31021119 .13598633 .4262085 .24899292 .4262085 .32998658 .4262085 .37599183 .35821534 .3849945 .2822113 .3869934 .2602234 .3869934 .23921204 .3869934 .21722412 .3869934 .15222168 .37998963 .07122803 .31599427 .034225465 .29599 .021224976 .27398683 .0152282719 .25099183 .0152282719 .17799378 .0152282719 .1269989 .07221985 .115997318 .15022278 .11399841 .16322327 .11399841 .17721558 .11199951 .19021607V.19023133Z"/>
<path id="font_4_15" d="M.11199951 .3812256C.13699341 .41223146 .18099976 .426239 .21798706 .426239 .2919922 .426239 .32499696 .3592224 .32499696 .288208V.26220704C.20999146 .26220704 .040985109 .22619629 .040985109 .095214847V.08721924C.04899597 .010223389 .1459961-.009765625 .20298767-.009765625 .2539978-.009765625 .31900025 .024230957 .33198548 .07522583H.33299256C.33898927 .032226564 .3659973-.004776001 .41099549-.004776001 .45199586-.004776001 .48799134 .02822876 .49299623 .07322693V.14620972H.46798707V.095214847C.46798707 .068222049 .46299745 .02722168 .43199159 .02722168 .3999939 .02722168 .394989 .066223148 .394989 .09321594V.26020814C.394989 .27320863 .3959961 .28520204 .3959961 .29821778 .3959961 .39523316 .30499269 .4482422 .22200012 .4482422 .15899658 .4482422 .069992069 .41723634 .069992069 .33721925 .069992069 .30822755 .09098816 .28923036 .116989139 .28923036 .14498902 .28923036 .1619873 .31123353 .1619873 .3352356 .1619873 .3642273 .13899231 .38124085 .11199951 .38124085V.3812256M.32499696 .24121094V.14021302C.32499696 .07122803 .2769928 .016220093 .21199036 .01222229H.20799256C.16099549 .01222229 .11898804 .049224855 .11898804 .097213748V.10221863C.12599182 .2032013 .23899842 .23820496 .32499696 .24121094Z"/>
<path id="font_4_11" d="M.033996583 .68359377V.6525879C.04699707 .6525879 .05999756 .6535797 .07199097 .6535797 .10798645 .6535797 .13699341 .6485901 .13699341 .6085663V.07450867C.13699341 .036514284 .10398865 .03050232 .069992069 .03050232 .056991579 .03050232 .04499817 .0315094 .033996583 .0315094V.00050354006H.32598878V.0315094H.2919922C.25 .0315094 .22299195 .0335083 .22299195 .07551575V.33151246H.33699037C.40299989 .33151246 .46299745 .2935028 .46998597 .21650696V.1335144C.46998597 .06550598 .49899293-.021484375 .6349945-.021484375 .6819916-.021484375 .723999 .009506226 .7319946 .08250427V.087509158C.7319946 .09550476 .72898867 .10551453 .7200012 .10551453 .70199587 .10551453 .7049866 .053512575 .68899539 .028503418 .6769867 .012512207 .6589966 .00050354006 .6399994 .00050354006 .59098818 .00050354006 .58299258 .06651306 .57598879 .10551453L.56399539 .1835022C.5529938 .25350953 .5299988 .30751039 .43499757 .34051515 .45399476 .34750367 .47399903 .35150147 .49299623 .35951234 .548996 .38452149 .60398867 .4295349 .6100006 .49453736V.5025482C.6100006 .61756899 .47399903 .6755829 .37998963 .68258669 .36299134 .68359377 .34700013 .68359377 .32998658 .68359377H.033996583M.22299195 .35351563V.61557009C.22299195 .6415863 .23298645 .650589 .2579956 .6525879H.33099366C.4119873 .6525879 .5069885 .63157656 .5069885 .50354006 .5069885 .3645172 .39698792 .35351563 .30899049 .35351563H.22299195Z"/>
<path id="font_4_21" d="M.10499573 .43066407H.026992798V.3996582H.10499573V.06893921C.10499573 .034973146 .07598877 .031967164 .04499817 .031967164H.026992798V.0009765625H.25V.031967164H.22599793C.19799805 .031967164 .17199707 .034973146 .17199707 .06893921V.3996582H.38198854V.06893921C.38198854 .034973146 .35299684 .031967164 .32199098 .031967164H.3039856V.0009765625H.5269928V.031967164H.5019989C.47299195 .031967164 .44898988 .035964967 .44898988 .07493591V.69503787C.43798829 .69403079 .42599488 .6900177 .4149933 .6900177H.41099549C.40299989 .6910248 .3939972 .69602969 .38598634 .69802859 .36898805 .7030487 .35198976 .7050476 .33399964 .7060547H.31799317C.21998596 .7060547 .10499573 .65496829 .10499573 .5398102V.43066407M.38198854 .43066407H.16899109V.5107727C.16899109 .5207825 .16799927 .5317993 .16799927 .54281619 .16799927 .615921 .21899414 .673996 .30599977 .684021H.31698609C.33898927 .684021 .3600006 .67900088 .38198854 .67601016 .36698915 .6639862 .35699464 .65397647 .35699464 .63394168 .35699464 .621933 .3619995 .60791018 .37199403 .5998993 .3769989 .5968933 .3809967 .5948944 .38198854 .58787539V.43066407Z"/>
<path id="font_4_24" d="M.032989503 .68429568V.6532898H.04798889C.084991458 .6532898 .11099243 .64927676 .11099243 .6012573V.0960083C.11099243 .08900452 .11199951 .08200073 .11199951 .07398987 .11199951 .035964967 .084991458 .031967164 .056991579 .031967164H.032989503V.0009765625H.2559967V.031967164H.23098755C.20199585 .031967164 .17799378 .035964967 .17799378 .07499695V.6953125L.032989503 .68429568Z"/>
<path id="font_5_1" d="M.6439972 .6795349H.038986207V.63253787H.14698792V.04699707H.038986207V0C.07699585 .0029907227 .17799378 .0029907227 .22200012 .0029907227 .2709961 .0029907227 .37998963 .0029907227 .42399598 0V.04699707H.2889862V.31640626H.33898927C.43499757 .31640626 .44400025 .27349855 .44400025 .19966126H.4909973V.4804535H.44400025C.44400025 .40641786 .43598939 .36340333 .33898927 .36340333H.2889862V.63253787H.42900086C.58999636 .63253787 .61299136 .5554962 .6279907 .4384308H.6749878L.6439972 .6795349Z"/>
<path id="font_4_18" d="M.1309967 .4296875C.10598755 .42668153 .085998538 .40370179 .085998538 .37872315 .085998538 .35372926 .10598755 .3247528 .13699341 .3247528 .1639862 .3247528 .19198609 .34573365 .19198609 .37672425 .19198609 .40267945 .17199707 .43066407 .13999939 .43066407 .13699341 .43067933 .13398743 .4296875 .1309967 .4296875M.1309967 .105895999C.10598755 .10290527 .085998538 .07991028 .085998538 .05493164 .085998538 .029953003 .10598755 .0009765625 .13699341 .0009765625 .1639862 .0009765625 .19198609 .021957398 .19198609 .05293274 .19198609 .07891846 .17199707 .106903079 .13999939 .106903079 .13699341 .106903079 .13398743 .105895999 .1309967 .105895999Z"/>
<path id="font_4_13" d="M.054992677 .6777344 .035995485 .45280458H.06098938C.06498718 .50479128 .067993167 .5757599 .09899902 .6097412 .1329956 .6447296 .18998719 .64772036 .23599243 .64772036H.26098634C.28799439 .64772036 .31599427 .64772036 .31599427 .613739V.07695007C.31599427 .036972047 .27598573 .030975342 .23999024 .030975342 .22698975 .030975342 .21398926 .031967164 .20399475 .031967164H.17098999V.0009765625H.5499878V.031967164H.48199464C.44299317 .031967164 .40499879 .035964967 .40499879 .07695007V.613739C.40499879 .6427307 .42199708 .64772036 .45999146 .64772036H.4850006C.5309906 .64772036 .58799746 .6447296 .621994 .6097412 .6529999 .5757599 .6559906 .50479128 .6599884 .45280458H.68499758L.66600039 .6777344H.054992677Z"/>
<path id="font_0_1" d="M.33099366-.2400055C.33099366-.23701477 .33099366-.23500061 .31399537-.21800232 .18899536-.0920105 .15699768 .09700012 .15699768 .25 .15699768 .42399598 .19499207 .59799197 .31799317 .72299197 .33099366 .73498538 .33099366 .7369995 .33099366 .73999026 .33099366 .746994 .32699586 .75 .32099916 .75 .31098939 .75 .22099304 .6819916 .1619873 .5549927 .11099243 .44499208 .09899902 .33399964 .09899902 .25 .09899902 .17199707 .10998535 .050994874 .16499329-.06201172 .22499085-.18501282 .31098939-.25 .32099916-.25 .32699586-.25 .33099366-.24700928 .33099366-.2400055Z"/>
<path id="font_5_3" d="M.11399841 .3561554V.04699707H.04499817V0C.07299805 .0009918213 .1329956 .0029907227 .17098999 .0029907227 .20999146 .0029907227 .2689972 .0009918213 .29699708 0V.04699707H.22799683V.25610353C.22799683 .36515809 .31498719 .41418458 .3769989 .41418458 .41099549 .41418458 .43299867 .3941803 .43299867 .31713868V.04699707H.3639984V0C.3919983 .0009918213 .45199586 .0029907227 .48999024 .0029907227 .5289917 .0029907227 .58799746 .0009918213 .6159973 0V.04699707H.5469971V.25610353C.5469971 .36515809 .6339874 .41418458 .69599917 .41418458 .7299957 .41418458 .7519989 .3941803 .7519989 .31713868V.04699707H.68299868V0C.71099856 .0009918213 .7709961 .0029907227 .8089905 .0029907227 .84799197 .0029907227 .9069977 .0009918213 .93499758 0V.04699707H.8659973V.30613709C.8659973 .40919496 .8149872 .4501953 .71199038 .4501953 .62098696 .4501953 .56900027 .400177 .54299929 .3541565 .522995 .44718934 .43099977 .4501953 .3929901 .4501953 .30599977 .4501953 .24899292 .40518189 .21699524 .34214784V.4501953L.04499817 .44218446V.39518739C.10699463 .39518739 .11399841 .39518739 .11399841 .3561554Z"/>
<path id="font_0_2" d="M.2889862 .25C.2889862 .32798768 .27799989 .44898988 .22299195 .56199648 .16299439 .68499758 .07699585 .75 .066986087 .75 .06098938 .75 .056991579 .74598696 .056991579 .73999026 .056991579 .7369995 .056991579 .73498538 .07598877 .71699526 .17399597 .6179962 .23098755 .45899964 .23098755 .25 .23098755 .07899475 .19400025-.09700012 .069992069-.2230072 .056991579-.23500061 .056991579-.23701477 .056991579-.2400055 .056991579-.2460022 .06098938-.25 .066986087-.25 .07699585-.25 .16699219-.18200684 .22599793-.055007936 .2769928 .054992677 .2889862 .16600037 .2889862 .25Z"/>
<path id="font_4_12" d="M.115997318 .048538209C.1789856-.00048828127 .22799683-.021484375 .30499269-.021484375 .42399598-.021484375 .49899293 .08557129 .49899293 .18765259 .49899293 .27072145 .45199586 .34777833 .37199403 .3808136 .31098939 .40582276 .23498535 .40382386 .18199158 .43585206 .14199829 .46087647 .11898804 .50390627 .11898804 .5479431 .11898804 .6269989 .18598938 .67803958 .25698854 .67803958 .35598756 .67803958 .4249878 .59898379 .44099427 .49890138 .44400025 .48388673 .44099427 .4568634 .45899964 .4568634 .46998597 .4568634 .47099305 .46588136 .47099305 .47488404V.6920471C.47099305 .6990509 .46899415 .7060547 .46099855 .7060547 .44599916 .7060547 .43499757 .67803958 .4269867 .66503909 .42099 .6560364 .4139862 .6460266 .4099884 .63601687 .36898805 .6770477 .32199098 .7060547 .25498963 .7060547 .15699768 .7060547 .054992677 .63801577 .054992677 .51091006 .054992677 .40682984 .1309967 .33877564 .22898865 .31774903 .25 .3127594 .269989 .30674745 .29100038 .30174256 .34700013 .2887268 .40299989 .27471925 .4269867 .20266724 .43199159 .18765259 .43499757 .17164612 .43499757 .15663147 .43499757 .08157349 .38398744 .009506226 .2999878 .009506226 .19999695 .009506226 .102996829 .06254578 .08299255 .17764282 .08198547 .18664551 .08099365 .19665528 .07998657 .20567322V.212677C.07998657 .22268677 .07499695 .22767639 .066986087 .22767639 .056991579 .22767639 .054992677 .21968079 .054992677 .212677V-.0074920656C.054992677-.01449585 .056991579-.021484375 .06498718-.021484375 .07998657-.021484375 .09098816 .006515503 .09899902 .019515992 .10499573 .028518677 .11199951 .038528444 .115997318 .048538209Z"/>
<path id="font_4_2" d="M.035995485 .68359377V.6525879C.04899597 .6525879 .06199646 .6535797 .07398987 .6535797 .10998535 .6535797 .13899231 .6485901 .13899231 .60861209V.07493591C.13899231 .036956788 .10598755 .030975342 .07199097 .030975342 .05899048 .030975342 .04699707 .031967164 .035995485 .031967164V.0009765625H.35099793C.37199403 .0009918213 .3919983 0 .41299439 0 .519989 0 .6519928 .049957277 .6519928 .18984986 .6519928 .2857666 .5389862 .35671998 .45799256 .35671998V.35871888C.5329895 .36671449 .6239929 .4296875 .6239929 .51464846V.52163699C.6159973 .6365814 .4869995 .6845703 .3869934 .6845703 .36698915 .6845856 .34700013 .68359377 .32798768 .68359377H.035995485M.22200012 .34472657H.40098573C.49798585 .34472657 .5509949 .27078248 .5509949 .1878357 .5509949 .09890747 .4869995 .030975342 .3849945 .030975342 .36898805 .030975342 .35299684 .031967164 .33699037 .031967164H.2599945C.23899842 .031967164 .22200012 .037963869 .22200012 .063949588V.34472657M.22200012 .36671449V.6156006C.22200012 .6455841 .23599243 .650589 .2579956 .6525879H.3849945C.44299317 .6525879 .4869995 .6315918 .5149994 .5726166 .5219879 .55462649 .5269928 .53364565 .5269928 .5136566 .526001 .4256897 .44799806 .36572267 .36299134 .36572267 .35198976 .36572267 .34098817 .36671449 .32998658 .36671449H.22200012Z"/>
<path id="font_4_5" d="M.59399417 .06349182C.6069946 .038497926 .6439972 .00050354006 .6569977 .00050354006 .6629944 .00050354006 .66600039 .006515503 .66600039 .014511108V.1844635C.66600039 .1904602 .6649933 .19746399 .6649933 .20446778 .6649933 .23945618 .69099429 .24145508 .7350006 .24145508V.27246095H.45199586V.24145508C.46499635 .24145508 .48098756 .2424469 .49699403 .2424469 .54499819 .2424469 .57699587 .23945618 .57699587 .19445801V.16847229C.57699587 .15647888 .5779877 .1454773 .5779877 .13348389 .5779877 .04849243 .5 .009506226 .42099 .009506226 .32899476 .009506226 .24198914 .0644989 .19898987 .1454773 .1659851 .2074585 .1579895 .27746583 .1579895 .34655763 .1579895 .44470216 .17799378 .5478668 .25898744 .6159668 .3019867 .65200808 .35899354 .6750488 .4149933 .6750488 .5249939 .6750488 .59999087 .5839081 .6269989 .4747467 .6329956 .45472718 .6269989 .41867066 .651001 .41867066 .6619873 .41867066 .66600039 .42567445 .66600039 .43569947V.6900482C.66600039 .697052 .6649933 .7060547 .6539917 .7060547 .6389923 .7060547 .59199526 .62698367 .58898928 .6199646 .57299807 .63298037 .55999758 .64801028 .5439911 .661026 .5009918 .6920471 .45199586 .7060547 .39898683 .7060547 .20399475 .7060547 .054992677 .5288391 .054992677 .34155274V.3265381C.06199646 .14247132 .21199036-.021484375 .4059906-.021484375 .47898866-.021484375 .5469971-.00048828127 .59399417 .06349182Z"/>
<path id="font_4_3" d="M.032989503 .68066409V.6496582C.04598999 .6496582 .05899048 .65065 .070999149 .65065 .10699463 .65065 .13598633 .6456604 .13598633 .6056824V.07495117C.13598633 .036972047 .102996829 .030975342 .068984989 .030975342 .055999757 .030975342 .04399109 .031967164 .032989503 .031967164V.0009765625H.60899356L.651001 .25889588H.6259918C.61099246 .16792298 .598999 .06796265 .48999024 .03996277 .45899964 .032974245 .4269867 .031967164 .394989 .031967164H.2669983C.24699402 .031967164 .22499085 .033966066 .22499085 .063964847V.3388672H.31698609C.35198976 .3388672 .3909912 .3358612 .4099884 .3048706 .42199708 .2838745 .4229889 .2568817 .4229889 .23190308V.22190857H.44799806V.48677064H.4229889V.47677613C.4229889 .42282105 .41099549 .3798523 .35198976 .3718567 .33299256 .3698578 .31399537 .3698578 .29499818 .3698578H.22499085V.61468508C.22499085 .6486511 .24598694 .6496582 .2669983 .6496582H.3869934C.44599916 .6496582 .5189972 .6496582 .55799868 .59669497 .58799746 .5567169 .59298709 .5037689 .598999 .4557953H.6239929L.59599307 .68066409H.032989503Z"/>
<path id="font_4_8" d="M.036987306 .68359377V.6525879C.049987794 .6525879 .06298828 .6535797 .07499695 .6535797 .11099243 .6535797 .13999939 .6485901 .13999939 .60861209V.10292053C.13999939 .037963869 .07998657 .031967164 .036987306 .031967164V.0009765625H.2709961V.031967164C.22599793 .031967164 .16699219 .037963869 .16699219 .106918338 .16699219 .11592102 .16799927 .12591553 .16799927 .13490296L.16899109 .6465912C.17399597 .62561038 .18399048 .60562136 .19198609 .5856323 .2619934 .40074159 .33399964 .21685791 .4059906 .033966066 .4099884 .022964478 .4149933 .0009765625 .42999269 .0009765625H.43099977C.44599916 .0029754639 .44999696 .025970459 .45498658 .037963869 .5269928 .22485352 .60198977 .41374208 .6729889 .60162356 .6799927 .61860659 .6879883 .63560488 .69299319 .6535797L.69400027 .076934818C.69400027 .036972047 .6619873 .030975342 .6299896 .030975342 .6159973 .030975342 .6029968 .031967164 .59098818 .031967164V.0009765625H.8779907V.031967164C.8659973 .031967164 .8529968 .030975342 .84098818 .030975342 .80599978 .030975342 .7749939 .035964967 .7749939 .07493591V.60861209C.7749939 .64759829 .8069916 .6535797 .84098818 .6535797 .85398867 .6535797 .86698916 .6525879 .8779907 .6525879V.68359377H.70399478L.68499758 .68058779 .6749878 .6645813 .45799256 .10192871 .23999024 .6645813 .22999573 .68058779 .21099854 .68359377H.036987306Z"/>
<path id="font_4_14" d="M.018997193 .68359377V.6525879H.041992189C.06498718 .6525879 .08898926 .65159609 .102996829 .6385956 .114990238 .6265869 .11898804 .6075897 .125 .59158328 .18399048 .4475708 .23599243 .2995453 .29100038 .15452576L.35099793-.0034942628C.35598756-.015487671 .36099244-.021484375 .375-.021484375 .3880005-.021484375 .3929901-.015487671 .397995-.0034942628L.4059906 .018508912C.47698976 .2025299 .5469971 .38755799 .6159973 .57058718 .6319885 .61257937 .6519928 .6525879 .7299957 .6525879V.68359377H.5189972V.6525879C.548996 .6525879 .59199526 .6385956 .59199526 .60258486V.60058596C.59098818 .5925751 .58699038 .58457949 .58499148 .5775757L.57199099 .5435791C.5569916 .50556948 .54299929 .466568 .5279999 .42855836L.44400025 .20654297C.43099977 .17152405 .4189911 .13552857 .4039917 .10151672 .3880005 .13853455 .375 .17753601 .36099244 .2155304 .31098939 .34655763 .2599945 .47756959 .21099854 .6095886 .20899964 .6135864 .20799256 .6185913 .20799256 .62358096V.6265869C.21299744 .6525879 .2599945 .6525879 .2889862 .6525879V.68359377H.018997193Z"/>
<path id="font_4_6" d="M.0289917 .68359377V.6525879C.041992189 .6525879 .055999757 .6535797 .069992069 .6535797 .10499573 .6535797 .13598633 .6485901 .13598633 .61161807V.07493591C.13598633 .036972047 .10398865 .030975342 .070999149 .030975342 .055999757 .030975342 .040985109 .031967164 .0289917 .031967164V.0009765625H.33198548V.031967164C.31900025 .031967164 .30499269 .030975342 .2919922 .030975342 .25698854 .030975342 .22499085 .036972047 .22499085 .07493591V.61161807C.22499085 .6485901 .25898744 .6535797 .29299928 .6535797 .30599977 .6535797 .31999208 .6525879 .33198548 .6525879V.68359377H.0289917Z"/>
<path id="font_5_2" d="M.41799928 .042999269V-.006011963L.6009979 0V.04699707C.5389862 .04699707 .5319977 .04699707 .5319977 .086013797V.69433596L.35499574 .6863251V.639328C.4169922 .639328 .42399598 .639328 .42399598 .600296V.40518189C.37399293 .44418336 .32199098 .4501953 .2889862 .4501953 .14299011 .4501953 .037994386 .36218263 .037994386 .22116089 .037994386 .089141849 .12998963-.005859375 .27799989-.005859375 .33898927-.006011963 .3869934 .017990113 .41799928 .042999269M.41799928 .35316468V.103027347C.40499879 .085006717 .3639984 .02999878 .28799439 .02999878 .1659851 .02999878 .1659851 .15104676 .1659851 .2210846 .1659851 .26911927 .1659851 .32313539 .19198609 .36216737 .22099304 .40419007 .2679901 .41418458 .29899598 .41418458 .35598756 .41418458 .3959961 .38217164 .41799928 .35316468Z"/>
<path id="font_1_2" d="M.32299806 .24900818C.40499879 .28497315 .44198609 .29896546 .46699525 .31095887 .48599244 .3189392 .49499513 .322937 .49499513 .34191896 .49499513 .35891725 .48199464 .37390138 .46398927 .37390138 .45700074 .37390138 .45498658 .37390138 .44299317 .36489869L.30699159 .27398683 .32199098 .42185975C.32398988 .4398346 .32199098 .46484376 .2919922 .46484376 .27999879 .46484376 .26098634 .4568329 .26098634 .43484498 .26098634 .42585755 .2649994 .39587403 .2659912 .38587953 .2679901 .36889649 .2749939 .29696656 .2769928 .27398683L.14199829 .36489869C.13198853 .3708954 .1289978 .37390138 .11999512 .37390138 .101989749 .37390138 .08898926 .35891725 .08898926 .34191896 .08898926 .3219452 .100997928 .3169403 .10998535 .3129425L.26098634 .25C.1789856 .21403504 .14199829 .20004273 .116989139 .18806458 .09799194 .18006897 .08898926 .17607117 .08898926 .15708924 .08898926 .1401062 .101989749 .12510681 .11999512 .12510681 .1269989 .12510681 .1289978 .12510681 .14099121 .1341095L.2769928 .22502136 .26098634 .06416321C.26098634 .042175294 .27999879 .034179689 .2919922 .034179689 .3039856 .034179689 .32299806 .042175294 .32299806 .06416321 .32299806 .073150638 .31900025 .103134158 .31799317 .11312866 .31599427 .1301117 .30899049 .20204163 .30699159 .22502136L.4269867 .14509583C.45298768 .12510681 .45498658 .12510681 .46398927 .12510681 .48199464 .12510681 .49499513 .1401062 .49499513 .15708924 .49499513 .17706299 .48298646 .18206787 .47399903 .18606568L.32299806 .24900818Z"/>
</defs>
<path transform="matrix(1,0,0,-1,173.363,568.723)" d="M-126.57191 385.21894H67.69922V546.6154H-126.57191Z" fill="#e5e5e5"/>
<path transform="matrix(1,0,0,-1,173.363,568.723)" stroke-width=".3985" stroke-linecap="butt" stroke-miterlimit="10" stroke-linejoin="miter" fill="none" stroke="#ffffff" d="M-117.73999 385.21894V546.6154M-58.87 385.21894V546.6154M0 385.21894V546.6154M58.87 385.21894V546.6154"/>
<path transform="matrix(1,0,0,-1,173.363,568.723)" stroke-width=".3985" stroke-linecap="butt" stroke-miterlimit="10" stroke-linejoin="miter" fill="none" stroke="#ffffff" d="M-126.57191 420.65806H67.69922M-126.57191 462.72386H67.69922M-126.57191 504.78968H67.69922"/>
<path transform="matrix(1,0,0,-1,173.363,568.723)" stroke-width=".19925" stroke-linecap="butt" stroke-miterlimit="10" stroke-linejoin="miter" fill="none" stroke="#555555" d="M-117.73999 380.9845V385.21894M-58.87 380.9845V385.21894M0 380.9845V385.21894M58.87 380.9845V385.21894"/>
<path transform="matrix(1,0,0,-1,173.363,568.723)" stroke-width=".19925" stroke-linecap="butt" stroke-miterlimit="10" stroke-linejoin="miter" fill="none" stroke="#555555" d="M-130.8154 420.65806H-126.57191M-130.8154 462.72386H-126.57191M-130.8154 504.78968H-126.57191"/>
<path transform="matrix(1,0,0,-1,173.363,568.723)" stroke-width=".3985" stroke-linecap="butt" stroke-miterlimit="10" stroke-linejoin="miter" fill="none" stroke="#ffffff" d="M-126.57191 385.21894V546.6154H67.69922V385.21894H-126.57191Z"/>
<use data-text="1" xlink:href="#font_0_4" transform="matrix(9.9626,0,0,-9.9626,45.295015,199.87003)"/>
<use data-text="0" xlink:href="#font_0_3" transform="matrix(9.9626,0,0,-9.9626,50.276315,199.87003)"/>
<use data-text="&#x2212;" xlink:href="#font_1_1" transform="matrix(6.9738,0,0,-6.9738,55.258016,195.75702)"/>
<use data-text="2" xlink:href="#font_2_3" transform="matrix(6.9738,0,0,-6.9738,61.484018,195.75702)"/>
<use data-text="1" xlink:href="#font_0_4" transform="matrix(9.9626,0,0,-9.9626,104.16401,199.87003)"/>
<use data-text="0" xlink:href="#font_0_3" transform="matrix(9.9626,0,0,-9.9626,109.14531,199.87003)"/>
<use data-text="&#x2212;" xlink:href="#font_1_1" transform="matrix(6.9738,0,0,-6.9738,114.12701,195.75702)"/>
<use data-text="1" xlink:href="#font_2_2" transform="matrix(6.9738,0,0,-6.9738,120.354007,195.75702)"/>
<use data-text="1" xlink:href="#font_0_4" transform="matrix(9.9626,0,0,-9.9626,166.147,199.87003)"/>
<use data-text="0" xlink:href="#font_0_3" transform="matrix(9.9626,0,0,-9.9626,171.1283,199.87003)"/>
<use data-text="0" xlink:href="#font_2_1" transform="matrix(6.9738,0,0,-6.9738,176.11,195.75702)"/>
<use data-text="1" xlink:href="#font_0_4" transform="matrix(9.9626,0,0,-9.9626,225.016,199.87003)"/>
<use data-text="0" xlink:href="#font_0_3" transform="matrix(9.9626,0,0,-9.9626,229.9973,199.87003)"/>
<use data-text="1" xlink:href="#font_2_2" transform="matrix(6.9738,0,0,-6.9738,234.979,195.75702)"/>
<use data-text="1" xlink:href="#font_0_4" transform="matrix(9.9626,0,0,-9.9626,20.627015,152.37403)"/>
<use data-text="0" xlink:href="#font_0_3" transform="matrix(9.9626,0,0,-9.9626,25.608315,152.37403)"/>
<use data-text="1" xlink:href="#font_2_2" transform="matrix(6.9738,0,0,-6.9738,30.590014,148.26102)"/>
<use data-text="0" xlink:href="#font_2_1" transform="matrix(6.9738,0,0,-6.9738,34.56508,148.26102)"/>
<use data-text="1" xlink:href="#font_0_4" transform="matrix(9.9626,0,0,-9.9626,20.627015,110.30901)"/>
<use data-text="0" xlink:href="#font_0_3" transform="matrix(9.9626,0,0,-9.9626,25.608315,110.30901)"/>
<use data-text="1" xlink:href="#font_2_2" transform="matrix(6.9738,0,0,-6.9738,30.590014,106.195018)"/>
<use data-text="1" xlink:href="#font_2_2" transform="matrix(6.9738,0,0,-6.9738,34.56508,106.195018)"/>
<use data-text="1" xlink:href="#font_0_4" transform="matrix(9.9626,0,0,-9.9626,20.627015,68.24402)"/>
<use data-text="0" xlink:href="#font_0_3" transform="matrix(9.9626,0,0,-9.9626,25.608315,68.24402)"/>
<use data-text="1" xlink:href="#font_2_2" transform="matrix(6.9738,0,0,-6.9738,30.590014,64.13002)"/>
<use data-text="2" xlink:href="#font_2_3" transform="matrix(6.9738,0,0,-6.9738,34.56508,64.13002)"/>
<g clip-path="url(#clip_3)">
<path transform="matrix(1,0,0,-1,173.363,568.723)" stroke-width=".59776" stroke-linecap="butt" stroke-miterlimit="10" stroke-linejoin="miter" fill="none" stroke="#000000" d="M-117.73999 432.70668 34.06294 541.18838H58.87"/>
</g>
<path transform="matrix(1,0,0,-1,173.363,568.723)" d="M-55.15042 472.86067H-49.17276V478.83833H-55.15042Z" fill="#1f77b4"/>
<path transform="matrix(1,0,0,-1,173.363,568.723)" stroke-width=".59776" stroke-linecap="butt" stroke-miterlimit="10" stroke-linejoin="miter" fill="none" stroke="#1f77b4" d="M-55.15042 472.86067H-49.17276V478.83833H-55.15042Z"/>
<path transform="matrix(1,0,0,-1,173.363,568.723)" stroke-width=".59776" stroke-linecap="butt" stroke-miterlimit="10" stroke-linejoin="miter" fill="none" stroke="#1f77b4" d=""/>
<path transform="matrix(1,0,0,-1,173.363,568.723)" d="M-20.71017 497.4194H-14.73251V503.39707H-20.71017ZM-14.73251 503.39707" fill="#ff7f0e"/>
<path transform="matrix(1,0,0,-1,173.363,568.723)" stroke-width=".59776" stroke-linecap="butt" stroke-miterlimit="10" stroke-linejoin="miter" fill="none" stroke="#ff7f0e" d="M-20.71017 497.4194H-14.73251V503.39707H-20.71017ZM-14.73251 503.39707"/>
<path transform="matrix(1,0,0,-1,173.363,568.723)" stroke-width=".59776" stroke-linecap="butt" stroke-miterlimit="10" stroke-linejoin="miter" fill="none" stroke="#ff7f0e" d=""/>
<path transform="matrix(1,0,0,-1,173.363,568.723)" d="M-31.4514 421.23765C-31.4514 422.88835-32.78952 424.22648-34.44023 424.22648-36.09093 424.22648-37.42906 422.88835-37.42906 421.23765-37.42906 419.58695-36.09093 418.2488-34.44023 418.2488-32.78952 418.2488-31.4514 419.58695-31.4514 421.23765ZM-34.44023 421.23765" fill="#9467bd"/>
<path transform="matrix(1,0,0,-1,173.363,568.723)" stroke-width=".59776" stroke-linecap="butt" stroke-miterlimit="10" stroke-linejoin="miter" fill="none" stroke="#9467bd" d="M-31.4514 421.23765C-31.4514 422.88835-32.78952 424.22648-34.44023 424.22648-36.09093 424.22648-37.42906 422.88835-37.42906 421.23765-37.42906 419.58695-36.09093 418.2488-34.44023 418.2488-32.78952 418.2488-31.4514 419.58695-31.4514 421.23765ZM-34.44023 421.23765"/>
<path transform="matrix(1,0,0,-1,173.363,568.723)" stroke-width=".59776" stroke-linecap="butt" stroke-miterlimit="10" stroke-linejoin="miter" fill="none" stroke="#9467bd" d=""/>
<path transform="matrix(1,0,0,-1,173.363,568.723)" d="M-34.44023 423.9922-31.85182 419.50895H-37.02864Z" fill="#e377c2"/>
<path transform="matrix(1,0,0,-1,173.363,568.723)" stroke-width=".59776" stroke-linecap="butt" stroke-miterlimit="10" stroke-linejoin="miter" fill="none" stroke="#e377c2" d="M-34.44023 423.9922-31.85182 419.50895H-37.02864Z"/>
<path transform="matrix(1,0,0,-1,173.363,568.723)" stroke-width=".59776" stroke-linecap="butt" stroke-miterlimit="10" stroke-linejoin="miter" fill="none" stroke="#e377c2" d=""/>
<path transform="matrix(1,0,0,-1,173.363,568.723)" d="M-17.2156 504.48374-14.6272 500.0005H-19.80402Z" fill="#8c564b"/>
<path transform="matrix(1,0,0,-1,173.363,568.723)" stroke-width=".59776" stroke-linecap="butt" stroke-miterlimit="10" stroke-linejoin="miter" fill="none" stroke="#8c564b" d="M-17.2156 504.48374-14.6272 500.0005H-19.80402Z"/>
<path transform="matrix(1,0,0,-1,173.363,568.723)" stroke-width=".59776" stroke-linecap="butt" stroke-miterlimit="10" stroke-linejoin="miter" fill="none" stroke="#8c564b" d=""/>
<path transform="matrix(1,0,0,-1,173.363,568.723)" d="M-52.16159 478.7042-49.91997 475.71537-52.16159 472.72654-54.40321 475.71537Z" fill="#bcbd22"/>
<path transform="matrix(1,0,0,-1,173.363,568.723)" stroke-width=".59776" stroke-linecap="butt" stroke-miterlimit="10" stroke-linejoin="miter" fill="none" stroke="#bcbd22" d="M-52.16159 478.7042-49.91997 475.71537-52.16159 472.72654-54.40321 475.71537Z"/>
<path transform="matrix(1,0,0,-1,173.363,568.723)" stroke-width=".59776" stroke-linecap="butt" stroke-miterlimit="10" stroke-linejoin="miter" fill="none" stroke="#bcbd22" d=""/>
<use data-text="A" xlink:href="#font_4_1" transform="matrix(9.9626,0,0,-9.9626,66.87301,214.19602)"/>
<use data-text="r" xlink:href="#font_4_30" transform="matrix(9.9626,0,0,-9.9626,74.34496,214.19602)"/>
<use data-text="i" xlink:href="#font_4_23" transform="matrix(9.9626,0,0,-9.9626,78.250308,214.19602)"/>
<use data-text="t" xlink:href="#font_4_33" transform="matrix(9.9626,0,0,-9.9626,81.019908,214.19602)"/>
<use data-text="h" xlink:href="#font_4_22" transform="matrix(9.9626,0,0,-9.9626,84.895359,214.19602)"/>
<use data-text="m" xlink:href="#font_4_25" transform="matrix(9.9626,0,0,-9.9626,90.4246,214.19602)"/>
<use data-text="e" xlink:href="#font_4_19" transform="matrix(9.9626,0,0,-9.9626,98.72344,214.19602)"/>
<use data-text="t" xlink:href="#font_4_33" transform="matrix(9.9626,0,0,-9.9626,103.146839,214.19602)"/>
<use data-text="i" xlink:href="#font_4_23" transform="matrix(9.9626,0,0,-9.9626,107.022289,214.19602)"/>
<use data-text="c" xlink:href="#font_4_17" transform="matrix(9.9626,0,0,-9.9626,109.791889,214.19602)"/>
<use data-text="i" xlink:href="#font_4_23" transform="matrix(9.9626,0,0,-9.9626,117.53282,214.19602)"/>
<use data-text="n" xlink:href="#font_4_26" transform="matrix(9.9626,0,0,-9.9626,120.30242,214.19602)"/>
<use data-text="t" xlink:href="#font_4_33" transform="matrix(9.9626,0,0,-9.9626,125.562679,214.19602)"/>
<use data-text="e" xlink:href="#font_4_19" transform="matrix(9.9626,0,0,-9.9626,129.43814,214.19602)"/>
<use data-text="n" xlink:href="#font_4_26" transform="matrix(9.9626,0,0,-9.9626,133.86154,214.19602)"/>
<use data-text="s" xlink:href="#font_4_31" transform="matrix(9.9626,0,0,-9.9626,139.39078,214.19602)"/>
<use data-text="i" xlink:href="#font_4_23" transform="matrix(9.9626,0,0,-9.9626,143.31604,214.19602)"/>
<use data-text="t" xlink:href="#font_4_33" transform="matrix(9.9626,0,0,-9.9626,146.08563,214.19602)"/>
<use data-text="y" xlink:href="#font_4_34" transform="matrix(9.9626,0,0,-9.9626,149.68216,214.19602)"/>
<use data-text="(" xlink:href="#font_4_28" transform="matrix(9.9626,0,0,-9.9626,158.25995,214.19602)"/>
<use data-text="F" xlink:href="#font_4_4" transform="matrix(9.9626,0,0,-9.9626,162.1354,214.19602)"/>
<use data-text="L" xlink:href="#font_4_7" transform="matrix(9.9626,0,0,-9.9626,168.64099,214.19602)"/>
<use data-text="O" xlink:href="#font_4_9" transform="matrix(9.9626,0,0,-9.9626,174.86762,214.19602)"/>
<use data-text="P" xlink:href="#font_4_10" transform="matrix(9.9626,0,0,-9.9626,182.61853,214.19602)"/>
<use data-text="s" xlink:href="#font_4_31" transform="matrix(9.9626,0,0,-9.9626,189.3931,214.19602)"/>
<use data-text="/" xlink:href="#font_4_32" transform="matrix(9.9626,0,0,-9.9626,193.31836,214.19602)"/>
<use data-text="b" xlink:href="#font_4_16" transform="matrix(9.9626,0,0,-9.9626,198.29965,214.19602)"/>
<use data-text="y" xlink:href="#font_4_34" transform="matrix(9.9626,0,0,-9.9626,203.55988,214.19602)"/>
<use data-text="t" xlink:href="#font_4_33" transform="matrix(9.9626,0,0,-9.9626,208.81018,214.19602)"/>
<use data-text="e" xlink:href="#font_4_19" transform="matrix(9.9626,0,0,-9.9626,212.68564,214.19602)"/>
<use data-text=")" xlink:href="#font_4_29" transform="matrix(9.9626,0,0,-9.9626,217.11899,214.19602)"/>
<use data-text="P" xlink:href="#font_4_10" transform="matrix(0,-9.9626,-9.9626,-0,11.290009,155.60102)"/>
<use data-text="e" xlink:href="#font_4_19" transform="matrix(0,-9.9626,-9.9626,-0,11.290009,149.1054)"/>
<use data-text="r" xlink:href="#font_4_30" transform="matrix(0,-9.9626,-9.9626,-0,11.290009,144.68199)"/>
<use data-text="f" xlink:href="#font_4_20" transform="matrix(0,-9.9626,-9.9626,-0,11.290009,140.77666)"/>
<use data-text="o" xlink:href="#font_4_27" transform="matrix(0,-9.9626,-9.9626,-0,11.290009,137.7281)"/>
<use data-text="r" xlink:href="#font_4_30" transform="matrix(0,-9.9626,-9.9626,-0,11.290009,132.7468)"/>
<use data-text="m" xlink:href="#font_4_25" transform="matrix(0,-9.9626,-9.9626,-0,11.290009,128.84146)"/>
<use data-text="a" xlink:href="#font_4_15" transform="matrix(0,-9.9626,-9.9626,-0,11.290009,120.54262)"/>
<use data-text="n" xlink:href="#font_4_26" transform="matrix(0,-9.9626,-9.9626,-0,11.290009,115.56132)"/>
<use data-text="c" xlink:href="#font_4_17" transform="matrix(0,-9.9626,-9.9626,-0,11.290009,110.032077)"/>
<use data-text="e" xlink:href="#font_4_19" transform="matrix(0,-9.9626,-9.9626,-0,11.290009,105.60868)"/>
<use data-text="(" xlink:href="#font_4_28" transform="matrix(0,-9.9626,-9.9626,-0,11.290009,97.85778)"/>
<use data-text="F" xlink:href="#font_4_4" transform="matrix(0,-9.9626,-9.9626,-0,11.290009,93.98233)"/>
<use data-text="L" xlink:href="#font_4_7" transform="matrix(0,-9.9626,-9.9626,-0,11.290009,87.47675)"/>
<use data-text="O" xlink:href="#font_4_9" transform="matrix(0,-9.9626,-9.9626,-0,11.290009,81.25013)"/>
<use data-text="P" xlink:href="#font_4_10" transform="matrix(0,-9.9626,-9.9626,-0,11.290009,73.49923)"/>
<use data-text="s" xlink:href="#font_4_31" transform="matrix(0,-9.9626,-9.9626,-0,11.290009,66.72466)"/>
<use data-text="/" xlink:href="#font_4_32" transform="matrix(0,-9.9626,-9.9626,-0,11.290009,62.7994)"/>
<use data-text="s" xlink:href="#font_4_31" transform="matrix(0,-9.9626,-9.9626,-0,11.290009,57.8181)"/>
<use data-text=")" xlink:href="#font_4_29" transform="matrix(0,-9.9626,-9.9626,-0,11.290009,53.892839)"/>
<use data-text="R" xlink:href="#font_4_11" transform="matrix(9.9626,0,0,-9.9626,106.03701,10.68103)"/>
<use data-text="o" xlink:href="#font_4_27" transform="matrix(9.9626,0,0,-9.9626,113.369487,10.68103)"/>
<use data-text="o" xlink:href="#font_4_27" transform="matrix(9.9626,0,0,-9.9626,118.62974,10.68103)"/>
<use data-text="f" xlink:href="#font_4_21" transform="matrix(9.9626,0,0,-9.9626,123.61104,10.68103)"/>
<use data-text="i" xlink:href="#font_4_23" transform="matrix(9.9626,0,0,-9.9626,129.14029,10.68103)"/>
<use data-text="n" xlink:href="#font_4_26" transform="matrix(9.9626,0,0,-9.9626,131.90988,10.68103)"/>
<use data-text="e" xlink:href="#font_4_19" transform="matrix(9.9626,0,0,-9.9626,137.43912,10.68103)"/>
<use data-text="A" xlink:href="#font_4_1" transform="matrix(9.9626,0,0,-9.9626,145.18009,10.68103)"/>
<use data-text="n" xlink:href="#font_4_26" transform="matrix(9.9626,0,0,-9.9626,152.65204,10.68103)"/>
<use data-text="a" xlink:href="#font_4_15" transform="matrix(9.9626,0,0,-9.9626,158.18128,10.68103)"/>
<use data-text="l" xlink:href="#font_4_24" transform="matrix(9.9626,0,0,-9.9626,163.16257,10.68103)"/>
<use data-text="y" xlink:href="#font_4_34" transform="matrix(9.9626,0,0,-9.9626,165.93216,10.68103)"/>
<use data-text="s" xlink:href="#font_4_31" transform="matrix(9.9626,0,0,-9.9626,171.19242,10.68103)"/>
<use data-text="i" xlink:href="#font_4_23" transform="matrix(9.9626,0,0,-9.9626,175.11768,10.68103)"/>
<use data-text="s" xlink:href="#font_4_31" transform="matrix(9.9626,0,0,-9.9626,177.8873,10.68103)"/>
<path transform="matrix(1,0,0,-1,173.363,568.723)" d="M73.72636 453.60435H164.06192V546.41616H73.72636Z" fill="#e5e5e5" fill-opacity=".8"/>
<path transform="matrix(1,0,0,-1,173.363,568.723)" stroke-width=".3985" stroke-linecap="butt" stroke-miterlimit="10" stroke-linejoin="miter" fill="none" stroke="#cccccc" d="M73.72636 453.60435H164.06192V546.41616H73.72636Z"/>
<path transform="matrix(1,0,0,-1,250.37599,30.477036)" stroke-width=".59776" stroke-linecap="butt" stroke-miterlimit="10" stroke-linejoin="miter" fill="none" stroke="#000000" d="M0 0H8.50412 17.00826"/>
<use data-text="R" xlink:href="#font_4_11" transform="matrix(9.9626,0,0,-9.9626,269.675,33.160036)"/>
<use data-text="o" xlink:href="#font_4_27" transform="matrix(9.9626,0,0,-9.9626,277.00749,33.160036)"/>
<use data-text="o" xlink:href="#font_4_27" transform="matrix(9.9626,0,0,-9.9626,282.26774,33.160036)"/>
<use data-text="f" xlink:href="#font_4_21" transform="matrix(9.9626,0,0,-9.9626,287.24903,33.160036)"/>
<use data-text="i" xlink:href="#font_4_23" transform="matrix(9.9626,0,0,-9.9626,292.77827,33.160036)"/>
<use data-text="n" xlink:href="#font_4_26" transform="matrix(9.9626,0,0,-9.9626,295.54786,33.160036)"/>
<use data-text="e" xlink:href="#font_4_19" transform="matrix(9.9626,0,0,-9.9626,301.0771,33.160036)"/>
<path transform="matrix(1,0,0,-1,250.37598,43.122037)" stroke-width=".59776" stroke-linecap="butt" stroke-miterlimit="10" stroke-linejoin="miter" fill="none" stroke="#1f77b4" d=""/>
<path transform="matrix(1,0,0,-1,250.37598,43.122037)" d="M5.51529-2.98883H11.49295V2.98883H5.51529Z" fill="#1f77b4" fill-opacity=".8"/>
<path transform="matrix(1,0,0,-1,250.37598,43.122037)" stroke-width=".59776" stroke-linecap="butt" stroke-miterlimit="10" stroke-linejoin="miter" fill="none" stroke="#1f77b4" d="M5.51529-2.98883H11.49295V2.98883H5.51529Z"/>
<use data-text="F" xlink:href="#font_5_1" transform="matrix(9.9626,0,0,-9.9626,269.675,46.11104)"/>
<use data-text=":" xlink:href="#font_4_18" transform="matrix(9.9626,0,0,-9.9626,276.884,46.11104)"/>
<use data-text="F" xlink:href="#font_4_4" transform="matrix(9.9626,0,0,-9.9626,284.077,46.11104)"/>
<use data-text="F" xlink:href="#font_4_4" transform="matrix(9.9626,0,0,-9.9626,290.58259,46.11104)"/>
<use data-text="T" xlink:href="#font_4_13" transform="matrix(9.9626,0,0,-9.9626,297.08818,46.11104)"/>
<use data-text="(" xlink:href="#font_0_1" transform="matrix(9.9626,0,0,-9.9626,304.275,46.11104)"/>
<use data-text="m" xlink:href="#font_5_3" transform="matrix(9.9626,0,0,-9.9626,308.149,46.11104)"/>
<use data-text=")" xlink:href="#font_0_2" transform="matrix(9.9626,0,0,-9.9626,317.697,46.11104)"/>
<path transform="matrix(1,0,0,-1,250.37598,55.768037)" stroke-width=".59776" stroke-linecap="butt" stroke-miterlimit="10" stroke-linejoin="miter" fill="none" stroke="#ff7f0e" d=""/>
<path transform="matrix(1,0,0,-1,250.37598,55.768037)" d="M5.51529-2.98883H11.49295V2.98883H5.51529ZM11.49295 2.98883" fill="#ff7f0e" fill-opacity=".8"/>
<path transform="matrix(1,0,0,-1,250.37598,55.768037)" stroke-width=".59776" stroke-linecap="butt" stroke-miterlimit="10" stroke-linejoin="miter" fill="none" stroke="#ff7f0e" d="M5.51529-2.98883H11.49295V2.98883H5.51529ZM11.49295 2.98883"/>
<use data-text="F" xlink:href="#font_5_1" transform="matrix(9.9626,0,0,-9.9626,269.675,58.45204)"/>
<use data-text=":" xlink:href="#font_4_18" transform="matrix(9.9626,0,0,-9.9626,276.884,58.45204)"/>
<use data-text="S" xlink:href="#font_4_12" transform="matrix(9.9626,0,0,-9.9626,284.077,58.45204)"/>
<use data-text="B" xlink:href="#font_4_2" transform="matrix(9.9626,0,0,-9.9626,289.60624,58.45204)"/>
<use data-text="G" xlink:href="#font_4_5" transform="matrix(9.9626,0,0,-9.9626,296.65977,58.45204)"/>
<use data-text="E" xlink:href="#font_4_3" transform="matrix(9.9626,0,0,-9.9626,304.4804,58.45204)"/>
<use data-text="M" xlink:href="#font_4_8" transform="matrix(9.9626,0,0,-9.9626,311.25498,58.45204)"/>
<use data-text="V" xlink:href="#font_4_14" transform="matrix(9.9626,0,0,-9.9626,320.3807,58.45204)"/>
<path transform="matrix(1,0,0,-1,250.37598,68.41403)" stroke-width=".59776" stroke-linecap="butt" stroke-miterlimit="10" stroke-linejoin="miter" fill="none" stroke="#9467bd" d=""/>
<path transform="matrix(1,0,0,-1,250.37598,68.41403)" d="M11.49295 0C11.49295 1.6507 10.15482 2.98883 8.50412 2.98883 6.85341 2.98883 5.51529 1.6507 5.51529 0 5.51529-1.6507 6.85341-2.98883 8.50412-2.98883 10.15482-2.98883 11.49295-1.6507 11.49295 0ZM8.50412 0" fill="#9467bd" fill-opacity=".8"/>
<path transform="matrix(1,0,0,-1,250.37598,68.41403)" stroke-width=".59776" stroke-linecap="butt" stroke-miterlimit="10" stroke-linejoin="miter" fill="none" stroke="#9467bd" d="M11.49295 0C11.49295 1.6507 10.15482 2.98883 8.50412 2.98883 6.85341 2.98883 5.51529 1.6507 5.51529 0 5.51529-1.6507 6.85341-2.98883 8.50412-2.98883 10.15482-2.98883 11.49295-1.6507 11.49295 0ZM8.50412 0"/>
<use data-text="F" xlink:href="#font_5_1" transform="matrix(9.9626,0,0,-9.9626,269.675,71.40303)"/>
<use data-text=":" xlink:href="#font_4_18" transform="matrix(9.9626,0,0,-9.9626,276.884,71.40303)"/>
<use data-text="I" xlink:href="#font_4_6" transform="matrix(9.9626,0,0,-9.9626,284.077,71.40303)"/>
<use data-text="F" xlink:href="#font_4_4" transform="matrix(9.9626,0,0,-9.9626,287.6735,71.40303)"/>
<use data-text="F" xlink:href="#font_4_4" transform="matrix(9.9626,0,0,-9.9626,294.17909,71.40303)"/>
<use data-text="T" xlink:href="#font_4_13" transform="matrix(9.9626,0,0,-9.9626,300.68467,71.40303)"/>
<use data-text="(" xlink:href="#font_0_1" transform="matrix(9.9626,0,0,-9.9626,307.872,71.40303)"/>
<use data-text="d" xlink:href="#font_5_2" transform="matrix(9.9626,0,0,-9.9626,311.746,71.40303)"/>
<use data-text=")" xlink:href="#font_0_2" transform="matrix(9.9626,0,0,-9.9626,318.111,71.40303)"/>
<path transform="matrix(1,0,0,-1,250.37598,81.365039)" stroke-width=".59776" stroke-linecap="butt" stroke-miterlimit="10" stroke-linejoin="miter" fill="none" stroke="#e377c2" d=""/>
<path transform="matrix(1,0,0,-1,250.37598,81.365039)" d="M8.50412 2.98883 11.09253-1.49442H5.91571Z" fill="#e377c2" fill-opacity=".8"/>
<path transform="matrix(1,0,0,-1,250.37598,81.365039)" stroke-width=".59776" stroke-linecap="butt" stroke-miterlimit="10" stroke-linejoin="miter" fill="none" stroke="#e377c2" d="M8.50412 2.98883 11.09253-1.49442H5.91571Z"/>
<use data-text="F" xlink:href="#font_5_1" transform="matrix(9.9626,0,0,-9.9626,269.675,84.354038)"/>
<use data-text="&#x2217;" xlink:href="#font_1_2" transform="matrix(6.9738,0,0,-6.9738,276.884,80.73903)"/>
<use data-text=":" xlink:href="#font_4_18" transform="matrix(9.9626,0,0,-9.9626,281.465,84.354038)"/>
<use data-text="F" xlink:href="#font_4_4" transform="matrix(9.9626,0,0,-9.9626,288.658,84.354038)"/>
<use data-text="F" xlink:href="#font_4_4" transform="matrix(9.9626,0,0,-9.9626,295.16358,84.354038)"/>
<use data-text="T" xlink:href="#font_4_13" transform="matrix(9.9626,0,0,-9.9626,301.66917,84.354038)"/>
<use data-text="(" xlink:href="#font_0_1" transform="matrix(9.9626,0,0,-9.9626,308.85499,84.354038)"/>
<use data-text="d" xlink:href="#font_5_2" transform="matrix(9.9626,0,0,-9.9626,312.72898,84.354038)"/>
<use data-text=")" xlink:href="#font_0_2" transform="matrix(9.9626,0,0,-9.9626,319.09397,84.354038)"/>
<path transform="matrix(1,0,0,-1,250.37598,94.01103)" stroke-width=".59776" stroke-linecap="butt" stroke-miterlimit="10" stroke-linejoin="miter" fill="none" stroke="#8c564b" d=""/>
<path transform="matrix(1,0,0,-1,250.37598,94.01103)" d="M8.50412 2.98883 11.09253-1.49442H5.91571Z" fill="#8c564b" fill-opacity=".8"/>
<path transform="matrix(1,0,0,-1,250.37598,94.01103)" stroke-width=".59776" stroke-linecap="butt" stroke-miterlimit="10" stroke-linejoin="miter" fill="none" stroke="#8c564b" d="M8.50412 2.98883 11.09253-1.49442H5.91571Z"/>
<use data-text="F" xlink:href="#font_5_1" transform="matrix(9.9626,0,0,-9.9626,269.675,96.69403)"/>
<use data-text="&#x2217;" xlink:href="#font_1_2" transform="matrix(6.9738,0,0,-6.9738,276.884,93.07903)"/>
<use data-text=":" xlink:href="#font_4_18" transform="matrix(9.9626,0,0,-9.9626,281.465,96.69403)"/>
<use data-text="S" xlink:href="#font_4_12" transform="matrix(9.9626,0,0,-9.9626,288.658,96.69403)"/>
<use data-text="B" xlink:href="#font_4_2" transform="matrix(9.9626,0,0,-9.9626,294.18724,96.69403)"/>
<use data-text="G" xlink:href="#font_4_5" transform="matrix(9.9626,0,0,-9.9626,301.24076,96.69403)"/>
<use data-text="E" xlink:href="#font_4_3" transform="matrix(9.9626,0,0,-9.9626,309.0614,96.69403)"/>
<use data-text="M" xlink:href="#font_4_8" transform="matrix(9.9626,0,0,-9.9626,315.83598,96.69403)"/>
<use data-text="V" xlink:href="#font_4_14" transform="matrix(9.9626,0,0,-9.9626,324.9617,96.69403)"/>
<path transform="matrix(1,0,0,-1,250.37598,106.65604)" stroke-width=".59776" stroke-linecap="butt" stroke-miterlimit="10" stroke-linejoin="miter" fill="none" stroke="#bcbd22" d=""/>
<path transform="matrix(1,0,0,-1,250.37598,106.65604)" d="M8.50412 2.98883 10.74574 0 8.50412-2.98883 6.2625 0Z" fill="#bcbd22" fill-opacity=".8"/>
<path transform="matrix(1,0,0,-1,250.37598,106.65604)" stroke-width=".59776" stroke-linecap="butt" stroke-miterlimit="10" stroke-linejoin="miter" fill="none" stroke="#bcbd22" d="M8.50412 2.98883 10.74574 0 8.50412-2.98883 6.2625 0Z"/>
<use data-text="F" xlink:href="#font_5_1" transform="matrix(9.9626,0,0,-9.9626,269.675,109.64504)"/>
<use data-text="&#x2217;" xlink:href="#font_1_2" transform="matrix(6.9738,0,0,-6.9738,276.884,106.030048)"/>
<use data-text=":" xlink:href="#font_4_18" transform="matrix(9.9626,0,0,-9.9626,281.465,109.64504)"/>
<use data-text="I" xlink:href="#font_4_6" transform="matrix(9.9626,0,0,-9.9626,288.658,109.64504)"/>
<use data-text="F" xlink:href="#font_4_4" transform="matrix(9.9626,0,0,-9.9626,292.2545,109.64504)"/>
<use data-text="F" xlink:href="#font_4_4" transform="matrix(9.9626,0,0,-9.9626,298.76008,109.64504)"/>
<use data-text="T" xlink:href="#font_4_13" transform="matrix(9.9626,0,0,-9.9626,305.26567,109.64504)"/>
<use data-text="(" xlink:href="#font_0_1" transform="matrix(9.9626,0,0,-9.9626,312.452,109.64504)"/>
<use data-text="m" xlink:href="#font_5_3" transform="matrix(9.9626,0,0,-9.9626,316.326,109.64504)"/>
<use data-text=")" xlink:href="#font_0_2" transform="matrix(9.9626,0,0,-9.9626,325.874,109.64504)"/>
</svg>
