<?xml version="1.0" encoding="utf-8" standalone="no"?>
<!DOCTYPE svg PUBLIC "-//W3C//DTD SVG 1.1//EN"
  "http://www.w3.org/Graphics/SVG/1.1/DTD/svg11.dtd">
<svg xmlns:xlink="http://www.w3.org/1999/xlink" width="1008pt" height="432pt" viewBox="0 0 1008 432" xmlns="http://www.w3.org/2000/svg" version="1.1">
 <metadata>
  <rdf:RDF xmlns:dc="http://purl.org/dc/elements/1.1/" xmlns:cc="http://creativecommons.org/ns#" xmlns:rdf="http://www.w3.org/1999/02/22-rdf-syntax-ns#">
   <cc:Work>
    <dc:type rdf:resource="http://purl.org/dc/dcmitype/StillImage"/>
    <dc:date>2026-03-04T06:17:43.858397</dc:date>
    <dc:format>image/svg+xml</dc:format>
    <dc:creator>
     <cc:Agent>
      <dc:title>Matplotlib v3.10.8, https://matplotlib.org/</dc:title>
     </cc:Agent>
    </dc:creator>
   </cc:Work>
  </rdf:RDF>
 </metadata>
 <defs>
  <style type="text/css">*{stroke-linejoin: round; stroke-linecap: butt}</style>
 </defs>
 <g id="figure_1">
  <g id="patch_1">
   <path d="M 0 432 
L 1008 432 
L 1008 0 
L 0 0 
z
" style="fill: #ffffff"/>
  </g>
  <g id="axes_1">
   <g id="patch_2">
    <path d="M 83.086509 362.22 
L 494.28 362.22 
L 494.28 56.664 
L 83.086509 56.664 
z
" style="fill: #ffffff"/>
   </g>
   <g id="matplotlib.axis_1">
    <g id="xtick_1">
     <g id="line2d_1">
      <path d="M 91.963435 362.22 
L 91.963435 56.664 
" clip-path="url(#p995ae43a07)" style="fill: none; stroke: #cccccc; stroke-opacity: 0.3; stroke-width: 1.5; stroke-linecap: round"/>
     </g>
     <g id="text_1">
      <!-- $\mathdefault{5.2}$ -->
      <g style="fill: #262626" transform="translate(77.690935 387.257422) scale(0.165 -0.165)">
       <defs>
        <path id="DejaVuSans-Bold-35" d="M 678 4666 
L 3669 4666 
L 3669 3781 
L 1638 3781 
L 1638 3059 
Q 1775 3097 1914 3117 
Q 2053 3138 2203 3138 
Q 3056 3138 3531 2711 
Q 4006 2284 4006 1522 
Q 4006 766 3489 337 
Q 2972 -91 2053 -91 
Q 1656 -91 1267 -14 
Q 878 63 494 219 
L 494 1166 
Q 875 947 1217 837 
Q 1559 728 1863 728 
Q 2300 728 2551 942 
Q 2803 1156 2803 1522 
Q 2803 1891 2551 2103 
Q 2300 2316 1863 2316 
Q 1603 2316 1309 2248 
Q 1016 2181 678 2041 
L 678 4666 
z
" transform="scale(0.015625)"/>
        <path id="DejaVuSans-Bold-2e" d="M 653 1209 
L 1778 1209 
L 1778 0 
L 653 0 
L 653 1209 
z
" transform="scale(0.015625)"/>
        <path id="DejaVuSans-Bold-32" d="M 1844 884 
L 3897 884 
L 3897 0 
L 506 0 
L 506 884 
L 2209 2388 
Q 2438 2594 2547 2791 
Q 2656 2988 2656 3200 
Q 2656 3528 2436 3728 
Q 2216 3928 1850 3928 
Q 1569 3928 1234 3808 
Q 900 3688 519 3450 
L 519 4475 
Q 925 4609 1322 4679 
Q 1719 4750 2100 4750 
Q 2938 4750 3402 4381 
Q 3866 4013 3866 3353 
Q 3866 2972 3669 2642 
Q 3472 2313 2841 1759 
L 1844 884 
z
" transform="scale(0.015625)"/>
       </defs>
       <use xlink:href="#DejaVuSans-Bold-35" transform="translate(0 0.78125)"/>
       <use xlink:href="#DejaVuSans-Bold-2e" transform="translate(69.580078 0.78125)"/>
       <use xlink:href="#DejaVuSans-Bold-32" transform="translate(103.068359 0.78125)"/>
      </g>
     </g>
    </g>
    <g id="xtick_2">
     <g id="line2d_2">
      <path d="M 163.911288 362.22 
L 163.911288 56.664 
" clip-path="url(#p995ae43a07)" style="fill: none; stroke: #cccccc; stroke-opacity: 0.3; stroke-width: 1.5; stroke-linecap: round"/>
     </g>
     <g id="text_2">
      <!-- $\mathdefault{5.3}$ -->
      <g style="fill: #262626" transform="translate(149.226288 387.257422) scale(0.165 -0.165)">
       <defs>
        <path id="DejaVuSans-Bold-33" d="M 2981 2516 
Q 3453 2394 3698 2092 
Q 3944 1791 3944 1325 
Q 3944 631 3412 270 
Q 2881 -91 1863 -91 
Q 1503 -91 1142 -33 
Q 781 25 428 141 
L 428 1069 
Q 766 900 1098 814 
Q 1431 728 1753 728 
Q 2231 728 2486 893 
Q 2741 1059 2741 1369 
Q 2741 1688 2480 1852 
Q 2219 2016 1709 2016 
L 1228 2016 
L 1228 2791 
L 1734 2791 
Q 2188 2791 2409 2933 
Q 2631 3075 2631 3366 
Q 2631 3634 2415 3781 
Q 2200 3928 1806 3928 
Q 1516 3928 1219 3862 
Q 922 3797 628 3669 
L 628 4550 
Q 984 4650 1334 4700 
Q 1684 4750 2022 4750 
Q 2931 4750 3382 4451 
Q 3834 4153 3834 3553 
Q 3834 3144 3618 2883 
Q 3403 2622 2981 2516 
z
" transform="scale(0.015625)"/>
       </defs>
       <use xlink:href="#DejaVuSans-Bold-35" transform="translate(0 0.78125)"/>
       <use xlink:href="#DejaVuSans-Bold-2e" transform="translate(69.580078 0.78125)"/>
       <use xlink:href="#DejaVuSans-Bold-33" transform="translate(107.568359 0.78125)"/>
      </g>
     </g>
    </g>
    <g id="xtick_3">
     <g id="line2d_3">
      <path d="M 235.859141 362.22 
L 235.859141 56.664 
" clip-path="url(#p995ae43a07)" style="fill: none; stroke: #cccccc; stroke-opacity: 0.3; stroke-width: 1.5; stroke-linecap: round"/>
     </g>
     <g id="text_3">
      <!-- $\mathdefault{5.4}$ -->
      <g style="fill: #262626" transform="translate(221.174141 387.257422) scale(0.165 -0.165)">
       <defs>
        <path id="DejaVuSans-Bold-34" d="M 2356 3675 
L 1038 1722 
L 2356 1722 
L 2356 3675 
z
M 2156 4666 
L 3494 4666 
L 3494 1722 
L 4159 1722 
L 4159 850 
L 3494 850 
L 3494 0 
L 2356 0 
L 2356 850 
L 288 850 
L 288 1881 
L 2156 4666 
z
" transform="scale(0.015625)"/>
       </defs>
       <use xlink:href="#DejaVuSans-Bold-35" transform="translate(0 0.09375)"/>
       <use xlink:href="#DejaVuSans-Bold-2e" transform="translate(69.580078 0.09375)"/>
       <use xlink:href="#DejaVuSans-Bold-34" transform="translate(107.568359 0.09375)"/>
      </g>
     </g>
    </g>
    <g id="xtick_4">
     <g id="line2d_4">
      <path d="M 307.806994 362.22 
L 307.806994 56.664 
" clip-path="url(#p995ae43a07)" style="fill: none; stroke: #cccccc; stroke-opacity: 0.3; stroke-width: 1.5; stroke-linecap: round"/>
     </g>
     <g id="text_4">
      <!-- $\mathdefault{5.5}$ -->
      <g style="fill: #262626" transform="translate(293.121994 387.257422) scale(0.165 -0.165)">
       <use xlink:href="#DejaVuSans-Bold-35" transform="translate(0 0.09375)"/>
       <use xlink:href="#DejaVuSans-Bold-2e" transform="translate(69.580078 0.09375)"/>
       <use xlink:href="#DejaVuSans-Bold-35" transform="translate(107.568359 0.09375)"/>
      </g>
     </g>
    </g>
    <g id="xtick_5">
     <g id="line2d_5">
      <path d="M 379.754847 362.22 
L 379.754847 56.664 
" clip-path="url(#p995ae43a07)" style="fill: none; stroke: #cccccc; stroke-opacity: 0.3; stroke-width: 1.5; stroke-linecap: round"/>
     </g>
     <g id="text_5">
      <!-- $\mathdefault{5.6}$ -->
      <g style="fill: #262626" transform="translate(365.069847 387.257422) scale(0.165 -0.165)">
       <defs>
        <path id="DejaVuSans-Bold-36" d="M 2316 2303 
Q 2000 2303 1842 2098 
Q 1684 1894 1684 1484 
Q 1684 1075 1842 870 
Q 2000 666 2316 666 
Q 2634 666 2792 870 
Q 2950 1075 2950 1484 
Q 2950 1894 2792 2098 
Q 2634 2303 2316 2303 
z
M 3803 4544 
L 3803 3681 
Q 3506 3822 3243 3889 
Q 2981 3956 2731 3956 
Q 2194 3956 1894 3657 
Q 1594 3359 1544 2772 
Q 1750 2925 1990 3001 
Q 2231 3078 2516 3078 
Q 3231 3078 3670 2659 
Q 4109 2241 4109 1563 
Q 4109 813 3618 361 
Q 3128 -91 2303 -91 
Q 1394 -91 895 523 
Q 397 1138 397 2266 
Q 397 3422 980 4083 
Q 1563 4744 2578 4744 
Q 2900 4744 3203 4694 
Q 3506 4644 3803 4544 
z
" transform="scale(0.015625)"/>
       </defs>
       <use xlink:href="#DejaVuSans-Bold-35" transform="translate(0 0.875)"/>
       <use xlink:href="#DejaVuSans-Bold-2e" transform="translate(69.580078 0.875)"/>
       <use xlink:href="#DejaVuSans-Bold-36" transform="translate(107.568359 0.875)"/>
      </g>
     </g>
    </g>
    <g id="xtick_6">
     <g id="line2d_6">
      <path d="M 451.7027 362.22 
L 451.7027 56.664 
" clip-path="url(#p995ae43a07)" style="fill: none; stroke: #cccccc; stroke-opacity: 0.3; stroke-width: 1.5; stroke-linecap: round"/>
     </g>
     <g id="text_6">
      <!-- $\mathdefault{5.7}$ -->
      <g style="fill: #262626" transform="translate(437.0177 387.257422) scale(0.165 -0.165)">
       <defs>
        <path id="DejaVuSans-Bold-37" d="M 428 4666 
L 3944 4666 
L 3944 3988 
L 2125 0 
L 953 0 
L 2675 3781 
L 428 3781 
L 428 4666 
z
" transform="scale(0.015625)"/>
       </defs>
       <use xlink:href="#DejaVuSans-Bold-35" transform="translate(0 0.09375)"/>
       <use xlink:href="#DejaVuSans-Bold-2e" transform="translate(69.580078 0.09375)"/>
       <use xlink:href="#DejaVuSans-Bold-37" transform="translate(107.568359 0.09375)"/>
      </g>
     </g>
    </g>
    <g id="text_7">
     <!-- Objective Function Value -->
     <g style="fill: #262626" transform="translate(162.475129 408.366094) scale(0.18 -0.18)">
      <defs>
       <path id="DejaVuSans-Bold-4f" d="M 2719 3878 
Q 2169 3878 1866 3472 
Q 1563 3066 1563 2328 
Q 1563 1594 1866 1187 
Q 2169 781 2719 781 
Q 3272 781 3575 1187 
Q 3878 1594 3878 2328 
Q 3878 3066 3575 3472 
Q 3272 3878 2719 3878 
z
M 2719 4750 
Q 3844 4750 4481 4106 
Q 5119 3463 5119 2328 
Q 5119 1197 4481 553 
Q 3844 -91 2719 -91 
Q 1597 -91 958 553 
Q 319 1197 319 2328 
Q 319 3463 958 4106 
Q 1597 4750 2719 4750 
z
" transform="scale(0.015625)"/>
       <path id="DejaVuSans-Bold-62" d="M 2400 722 
Q 2759 722 2948 984 
Q 3138 1247 3138 1747 
Q 3138 2247 2948 2509 
Q 2759 2772 2400 2772 
Q 2041 2772 1848 2508 
Q 1656 2244 1656 1747 
Q 1656 1250 1848 986 
Q 2041 722 2400 722 
z
M 1656 2988 
Q 1888 3294 2169 3439 
Q 2450 3584 2816 3584 
Q 3463 3584 3878 3070 
Q 4294 2556 4294 1747 
Q 4294 938 3878 423 
Q 3463 -91 2816 -91 
Q 2450 -91 2169 54 
Q 1888 200 1656 506 
L 1656 0 
L 538 0 
L 538 4863 
L 1656 4863 
L 1656 2988 
z
" transform="scale(0.015625)"/>
       <path id="DejaVuSans-Bold-6a" d="M 538 3500 
L 1656 3500 
L 1656 63 
Q 1656 -641 1318 -1011 
Q 981 -1381 341 -1381 
L -213 -1381 
L -213 -647 
L -19 -647 
Q 300 -647 419 -503 
Q 538 -359 538 63 
L 538 3500 
z
M 538 4863 
L 1656 4863 
L 1656 3950 
L 538 3950 
L 538 4863 
z
" transform="scale(0.015625)"/>
       <path id="DejaVuSans-Bold-65" d="M 4031 1759 
L 4031 1441 
L 1416 1441 
Q 1456 1047 1700 850 
Q 1944 653 2381 653 
Q 2734 653 3104 758 
Q 3475 863 3866 1075 
L 3866 213 
Q 3469 63 3072 -14 
Q 2675 -91 2278 -91 
Q 1328 -91 801 392 
Q 275 875 275 1747 
Q 275 2603 792 3093 
Q 1309 3584 2216 3584 
Q 3041 3584 3536 3087 
Q 4031 2591 4031 1759 
z
M 2881 2131 
Q 2881 2450 2695 2645 
Q 2509 2841 2209 2841 
Q 1884 2841 1681 2658 
Q 1478 2475 1428 2131 
L 2881 2131 
z
" transform="scale(0.015625)"/>
       <path id="DejaVuSans-Bold-63" d="M 3366 3391 
L 3366 2478 
Q 3138 2634 2908 2709 
Q 2678 2784 2431 2784 
Q 1963 2784 1702 2511 
Q 1441 2238 1441 1747 
Q 1441 1256 1702 982 
Q 1963 709 2431 709 
Q 2694 709 2930 787 
Q 3166 866 3366 1019 
L 3366 103 
Q 3103 6 2833 -42 
Q 2563 -91 2291 -91 
Q 1344 -91 809 395 
Q 275 881 275 1747 
Q 275 2613 809 3098 
Q 1344 3584 2291 3584 
Q 2566 3584 2833 3536 
Q 3100 3488 3366 3391 
z
" transform="scale(0.015625)"/>
       <path id="DejaVuSans-Bold-74" d="M 1759 4494 
L 1759 3500 
L 2913 3500 
L 2913 2700 
L 1759 2700 
L 1759 1216 
Q 1759 972 1856 886 
Q 1953 800 2241 800 
L 2816 800 
L 2816 0 
L 1856 0 
Q 1194 0 917 276 
Q 641 553 641 1216 
L 641 2700 
L 84 2700 
L 84 3500 
L 641 3500 
L 641 4494 
L 1759 4494 
z
" transform="scale(0.015625)"/>
       <path id="DejaVuSans-Bold-69" d="M 538 3500 
L 1656 3500 
L 1656 0 
L 538 0 
L 538 3500 
z
M 538 4863 
L 1656 4863 
L 1656 3950 
L 538 3950 
L 538 4863 
z
" transform="scale(0.015625)"/>
       <path id="DejaVuSans-Bold-76" d="M 97 3500 
L 1216 3500 
L 2088 1081 
L 2956 3500 
L 4078 3500 
L 2700 0 
L 1472 0 
L 97 3500 
z
" transform="scale(0.015625)"/>
       <path id="DejaVuSans-Bold-20" transform="scale(0.015625)"/>
       <path id="DejaVuSans-Bold-46" d="M 588 4666 
L 3834 4666 
L 3834 3756 
L 1791 3756 
L 1791 2888 
L 3713 2888 
L 3713 1978 
L 1791 1978 
L 1791 0 
L 588 0 
L 588 4666 
z
" transform="scale(0.015625)"/>
       <path id="DejaVuSans-Bold-75" d="M 500 1363 
L 500 3500 
L 1625 3500 
L 1625 3150 
Q 1625 2866 1622 2436 
Q 1619 2006 1619 1863 
Q 1619 1441 1641 1255 
Q 1663 1069 1716 984 
Q 1784 875 1895 815 
Q 2006 756 2150 756 
Q 2500 756 2700 1025 
Q 2900 1294 2900 1772 
L 2900 3500 
L 4019 3500 
L 4019 0 
L 2900 0 
L 2900 506 
Q 2647 200 2364 54 
Q 2081 -91 1741 -91 
Q 1134 -91 817 281 
Q 500 653 500 1363 
z
" transform="scale(0.015625)"/>
       <path id="DejaVuSans-Bold-6e" d="M 4056 2131 
L 4056 0 
L 2931 0 
L 2931 347 
L 2931 1631 
Q 2931 2084 2911 2256 
Q 2891 2428 2841 2509 
Q 2775 2619 2662 2680 
Q 2550 2741 2406 2741 
Q 2056 2741 1856 2470 
Q 1656 2200 1656 1722 
L 1656 0 
L 538 0 
L 538 3500 
L 1656 3500 
L 1656 2988 
Q 1909 3294 2193 3439 
Q 2478 3584 2822 3584 
Q 3428 3584 3742 3212 
Q 4056 2841 4056 2131 
z
" transform="scale(0.015625)"/>
       <path id="DejaVuSans-Bold-6f" d="M 2203 2784 
Q 1831 2784 1636 2517 
Q 1441 2250 1441 1747 
Q 1441 1244 1636 976 
Q 1831 709 2203 709 
Q 2569 709 2762 976 
Q 2956 1244 2956 1747 
Q 2956 2250 2762 2517 
Q 2569 2784 2203 2784 
z
M 2203 3584 
Q 3106 3584 3614 3096 
Q 4122 2609 4122 1747 
Q 4122 884 3614 396 
Q 3106 -91 2203 -91 
Q 1297 -91 786 396 
Q 275 884 275 1747 
Q 275 2609 786 3096 
Q 1297 3584 2203 3584 
z
" transform="scale(0.015625)"/>
       <path id="DejaVuSans-Bold-56" d="M 31 4666 
L 1241 4666 
L 2478 1222 
L 3713 4666 
L 4922 4666 
L 3194 0 
L 1759 0 
L 31 4666 
z
" transform="scale(0.015625)"/>
       <path id="DejaVuSans-Bold-61" d="M 2106 1575 
Q 1756 1575 1579 1456 
Q 1403 1338 1403 1106 
Q 1403 894 1545 773 
Q 1688 653 1941 653 
Q 2256 653 2472 879 
Q 2688 1106 2688 1447 
L 2688 1575 
L 2106 1575 
z
M 3816 1997 
L 3816 0 
L 2688 0 
L 2688 519 
Q 2463 200 2181 54 
Q 1900 -91 1497 -91 
Q 953 -91 614 226 
Q 275 544 275 1050 
Q 275 1666 698 1953 
Q 1122 2241 2028 2241 
L 2688 2241 
L 2688 2328 
Q 2688 2594 2478 2717 
Q 2269 2841 1825 2841 
Q 1466 2841 1156 2769 
Q 847 2697 581 2553 
L 581 3406 
Q 941 3494 1303 3539 
Q 1666 3584 2028 3584 
Q 2975 3584 3395 3211 
Q 3816 2838 3816 1997 
z
" transform="scale(0.015625)"/>
       <path id="DejaVuSans-Bold-6c" d="M 538 4863 
L 1656 4863 
L 1656 0 
L 538 0 
L 538 4863 
z
" transform="scale(0.015625)"/>
      </defs>
      <use xlink:href="#DejaVuSans-Bold-4f"/>
      <use xlink:href="#DejaVuSans-Bold-62" transform="translate(85.009766 0)"/>
      <use xlink:href="#DejaVuSans-Bold-6a" transform="translate(156.591797 0)"/>
      <use xlink:href="#DejaVuSans-Bold-65" transform="translate(190.869141 0)"/>
      <use xlink:href="#DejaVuSans-Bold-63" transform="translate(258.691406 0)"/>
      <use xlink:href="#DejaVuSans-Bold-74" transform="translate(317.96875 0)"/>
      <use xlink:href="#DejaVuSans-Bold-69" transform="translate(365.771484 0)"/>
      <use xlink:href="#DejaVuSans-Bold-76" transform="translate(400.048828 0)"/>
      <use xlink:href="#DejaVuSans-Bold-65" transform="translate(465.234375 0)"/>
      <use xlink:href="#DejaVuSans-Bold-20" transform="translate(533.056641 0)"/>
      <use xlink:href="#DejaVuSans-Bold-46" transform="translate(567.871094 0)"/>
      <use xlink:href="#DejaVuSans-Bold-75" transform="translate(631.181641 0)"/>
      <use xlink:href="#DejaVuSans-Bold-6e" transform="translate(702.373047 0)"/>
      <use xlink:href="#DejaVuSans-Bold-63" transform="translate(773.564453 0)"/>
      <use xlink:href="#DejaVuSans-Bold-74" transform="translate(832.841797 0)"/>
      <use xlink:href="#DejaVuSans-Bold-69" transform="translate(880.644531 0)"/>
      <use xlink:href="#DejaVuSans-Bold-6f" transform="translate(914.921875 0)"/>
      <use xlink:href="#DejaVuSans-Bold-6e" transform="translate(983.623047 0)"/>
      <use xlink:href="#DejaVuSans-Bold-20" transform="translate(1054.814453 0)"/>
      <use xlink:href="#DejaVuSans-Bold-56" transform="translate(1089.628906 0)"/>
      <use xlink:href="#DejaVuSans-Bold-61" transform="translate(1161.521484 0)"/>
      <use xlink:href="#DejaVuSans-Bold-6c" transform="translate(1229.001953 0)"/>
      <use xlink:href="#DejaVuSans-Bold-75" transform="translate(1263.279297 0)"/>
      <use xlink:href="#DejaVuSans-Bold-65" transform="translate(1334.470703 0)"/>
     </g>
    </g>
    <g id="text_8">
     <!-- $\times\mathdefault{10^{5}}\mathdefault{}$ -->
     <g style="fill: #262626" transform="translate(448.74 406.226328) scale(0.165 -0.165)">
      <defs>
       <path id="DejaVuSans-Bold-d7" d="M 4563 3359 
L 3206 2003 
L 4563 653 
L 4038 128 
L 2681 1478 
L 1325 128 
L 800 653 
L 2156 2003 
L 800 3359 
L 1325 3884 
L 2681 2528 
L 4038 3884 
L 4563 3359 
z
" transform="scale(0.015625)"/>
       <path id="DejaVuSans-Bold-31" d="M 750 831 
L 1813 831 
L 1813 3847 
L 722 3622 
L 722 4441 
L 1806 4666 
L 2950 4666 
L 2950 831 
L 4013 831 
L 4013 0 
L 750 0 
L 750 831 
z
" transform="scale(0.015625)"/>
       <path id="DejaVuSans-Bold-30" d="M 2944 2338 
Q 2944 3213 2780 3570 
Q 2616 3928 2228 3928 
Q 1841 3928 1675 3570 
Q 1509 3213 1509 2338 
Q 1509 1453 1675 1090 
Q 1841 728 2228 728 
Q 2613 728 2778 1090 
Q 2944 1453 2944 2338 
z
M 4147 2328 
Q 4147 1169 3647 539 
Q 3147 -91 2228 -91 
Q 1306 -91 806 539 
Q 306 1169 306 2328 
Q 306 3491 806 4120 
Q 1306 4750 2228 4750 
Q 3147 4750 3647 4120 
Q 4147 3491 4147 2328 
z
" transform="scale(0.015625)"/>
      </defs>
      <use xlink:href="#DejaVuSans-Bold-d7" transform="translate(0 0.684375)"/>
      <use xlink:href="#DejaVuSans-Bold-31" transform="translate(83.789062 0.684375)"/>
      <use xlink:href="#DejaVuSans-Bold-30" transform="translate(153.369141 0.684375)"/>
      <use xlink:href="#DejaVuSans-Bold-35" transform="translate(223.90625 38.965625) scale(0.7)"/>
     </g>
    </g>
   </g>
   <g id="matplotlib.axis_2">
    <g id="ytick_1">
     <g id="line2d_7">
      <path d="M 83.086509 362.22 
L 494.28 362.22 
" clip-path="url(#p995ae43a07)" style="fill: none; stroke: #cccccc; stroke-opacity: 0.3; stroke-width: 1.5; stroke-linecap: round"/>
     </g>
     <g id="text_9">
      <!-- $\mathdefault{0.0}$ -->
      <g style="fill: #262626" transform="translate(41.216509 368.488711) scale(0.165 -0.165)">
       <use xlink:href="#DejaVuSans-Bold-30" transform="translate(0 0.78125)"/>
       <use xlink:href="#DejaVuSans-Bold-2e" transform="translate(69.580078 0.78125)"/>
       <use xlink:href="#DejaVuSans-Bold-30" transform="translate(107.568359 0.78125)"/>
      </g>
     </g>
    </g>
    <g id="ytick_2">
     <g id="line2d_8">
      <path d="M 83.086509 311.223771 
L 494.28 311.223771 
" clip-path="url(#p995ae43a07)" style="fill: none; stroke: #cccccc; stroke-opacity: 0.3; stroke-width: 1.5; stroke-linecap: round"/>
     </g>
     <g id="text_10">
      <!-- $\mathdefault{0.5}$ -->
      <g style="fill: #262626" transform="translate(41.216509 317.492482) scale(0.165 -0.165)">
       <use xlink:href="#DejaVuSans-Bold-30" transform="translate(0 0.78125)"/>
       <use xlink:href="#DejaVuSans-Bold-2e" transform="translate(69.580078 0.78125)"/>
       <use xlink:href="#DejaVuSans-Bold-35" transform="translate(107.568359 0.78125)"/>
      </g>
     </g>
    </g>
    <g id="ytick_3">
     <g id="line2d_9">
      <path d="M 83.086509 260.227541 
L 494.28 260.227541 
" clip-path="url(#p995ae43a07)" style="fill: none; stroke: #cccccc; stroke-opacity: 0.3; stroke-width: 1.5; stroke-linecap: round"/>
     </g>
     <g id="text_11">
      <!-- $\mathdefault{1.0}$ -->
      <g style="fill: #262626" transform="translate(41.216509 266.496252) scale(0.165 -0.165)">
       <use xlink:href="#DejaVuSans-Bold-31" transform="translate(0 0.78125)"/>
       <use xlink:href="#DejaVuSans-Bold-2e" transform="translate(69.580078 0.78125)"/>
       <use xlink:href="#DejaVuSans-Bold-30" transform="translate(107.568359 0.78125)"/>
      </g>
     </g>
    </g>
    <g id="ytick_4">
     <g id="line2d_10">
      <path d="M 83.086509 209.231312 
L 494.28 209.231312 
" clip-path="url(#p995ae43a07)" style="fill: none; stroke: #cccccc; stroke-opacity: 0.3; stroke-width: 1.5; stroke-linecap: round"/>
     </g>
     <g id="text_12">
      <!-- $\mathdefault{1.5}$ -->
      <g style="fill: #262626" transform="translate(41.216509 215.500023) scale(0.165 -0.165)">
       <use xlink:href="#DejaVuSans-Bold-31" transform="translate(0 0.09375)"/>
       <use xlink:href="#DejaVuSans-Bold-2e" transform="translate(69.580078 0.09375)"/>
       <use xlink:href="#DejaVuSans-Bold-35" transform="translate(107.568359 0.09375)"/>
      </g>
     </g>
    </g>
    <g id="ytick_5">
     <g id="line2d_11">
      <path d="M 83.086509 158.235082 
L 494.28 158.235082 
" clip-path="url(#p995ae43a07)" style="fill: none; stroke: #cccccc; stroke-opacity: 0.3; stroke-width: 1.5; stroke-linecap: round"/>
     </g>
     <g id="text_13">
      <!-- $\mathdefault{2.0}$ -->
      <g style="fill: #262626" transform="translate(41.216509 164.503793) scale(0.165 -0.165)">
       <use xlink:href="#DejaVuSans-Bold-32" transform="translate(0 0.78125)"/>
       <use xlink:href="#DejaVuSans-Bold-2e" transform="translate(69.580078 0.78125)"/>
       <use xlink:href="#DejaVuSans-Bold-30" transform="translate(107.568359 0.78125)"/>
      </g>
     </g>
    </g>
    <g id="ytick_6">
     <g id="line2d_12">
      <path d="M 83.086509 107.238853 
L 494.28 107.238853 
" clip-path="url(#p995ae43a07)" style="fill: none; stroke: #cccccc; stroke-opacity: 0.3; stroke-width: 1.5; stroke-linecap: round"/>
     </g>
     <g id="text_14">
      <!-- $\mathdefault{2.5}$ -->
      <g style="fill: #262626" transform="translate(41.216509 113.507564) scale(0.165 -0.165)">
       <use xlink:href="#DejaVuSans-Bold-32" transform="translate(0 0.78125)"/>
       <use xlink:href="#DejaVuSans-Bold-2e" transform="translate(69.580078 0.78125)"/>
       <use xlink:href="#DejaVuSans-Bold-35" transform="translate(107.568359 0.78125)"/>
      </g>
     </g>
    </g>
    <g id="text_15">
     <!-- Probability Density -->
     <g style="fill: #262626" transform="translate(33.332446 306.768563) rotate(-90) scale(0.18 -0.18)">
      <defs>
       <path id="DejaVuSans-Bold-50" d="M 588 4666 
L 2584 4666 
Q 3475 4666 3951 4270 
Q 4428 3875 4428 3144 
Q 4428 2409 3951 2014 
Q 3475 1619 2584 1619 
L 1791 1619 
L 1791 0 
L 588 0 
L 588 4666 
z
M 1791 3794 
L 1791 2491 
L 2456 2491 
Q 2806 2491 2997 2661 
Q 3188 2831 3188 3144 
Q 3188 3456 2997 3625 
Q 2806 3794 2456 3794 
L 1791 3794 
z
" transform="scale(0.015625)"/>
       <path id="DejaVuSans-Bold-72" d="M 3138 2547 
Q 2991 2616 2845 2648 
Q 2700 2681 2553 2681 
Q 2122 2681 1889 2404 
Q 1656 2128 1656 1613 
L 1656 0 
L 538 0 
L 538 3500 
L 1656 3500 
L 1656 2925 
Q 1872 3269 2151 3426 
Q 2431 3584 2822 3584 
Q 2878 3584 2943 3579 
Q 3009 3575 3134 3559 
L 3138 2547 
z
" transform="scale(0.015625)"/>
       <path id="DejaVuSans-Bold-79" d="M 78 3500 
L 1197 3500 
L 2138 1125 
L 2938 3500 
L 4056 3500 
L 2584 -331 
Q 2363 -916 2067 -1148 
Q 1772 -1381 1288 -1381 
L 641 -1381 
L 641 -647 
L 991 -647 
Q 1275 -647 1404 -556 
Q 1534 -466 1606 -231 
L 1638 -134 
L 78 3500 
z
" transform="scale(0.015625)"/>
       <path id="DejaVuSans-Bold-44" d="M 1791 3756 
L 1791 909 
L 2222 909 
Q 2959 909 3348 1275 
Q 3738 1641 3738 2338 
Q 3738 3031 3350 3393 
Q 2963 3756 2222 3756 
L 1791 3756 
z
M 588 4666 
L 1856 4666 
Q 2919 4666 3439 4514 
Q 3959 4363 4331 4000 
Q 4659 3684 4818 3271 
Q 4978 2859 4978 2338 
Q 4978 1809 4818 1395 
Q 4659 981 4331 666 
Q 3956 303 3431 151 
Q 2906 0 1856 0 
L 588 0 
L 588 4666 
z
" transform="scale(0.015625)"/>
       <path id="DejaVuSans-Bold-73" d="M 3272 3391 
L 3272 2541 
Q 2913 2691 2578 2766 
Q 2244 2841 1947 2841 
Q 1628 2841 1473 2761 
Q 1319 2681 1319 2516 
Q 1319 2381 1436 2309 
Q 1553 2238 1856 2203 
L 2053 2175 
Q 2913 2066 3209 1816 
Q 3506 1566 3506 1031 
Q 3506 472 3093 190 
Q 2681 -91 1863 -91 
Q 1516 -91 1145 -36 
Q 775 19 384 128 
L 384 978 
Q 719 816 1070 734 
Q 1422 653 1784 653 
Q 2113 653 2278 743 
Q 2444 834 2444 1013 
Q 2444 1163 2330 1236 
Q 2216 1309 1875 1350 
L 1678 1375 
Q 931 1469 631 1722 
Q 331 1975 331 2491 
Q 331 3047 712 3315 
Q 1094 3584 1881 3584 
Q 2191 3584 2531 3537 
Q 2872 3491 3272 3391 
z
" transform="scale(0.015625)"/>
      </defs>
      <use xlink:href="#DejaVuSans-Bold-50"/>
      <use xlink:href="#DejaVuSans-Bold-72" transform="translate(73.291016 0)"/>
      <use xlink:href="#DejaVuSans-Bold-6f" transform="translate(122.607422 0)"/>
      <use xlink:href="#DejaVuSans-Bold-62" transform="translate(191.308594 0)"/>
      <use xlink:href="#DejaVuSans-Bold-61" transform="translate(262.890625 0)"/>
      <use xlink:href="#DejaVuSans-Bold-62" transform="translate(330.371094 0)"/>
      <use xlink:href="#DejaVuSans-Bold-69" transform="translate(401.953125 0)"/>
      <use xlink:href="#DejaVuSans-Bold-6c" transform="translate(436.230469 0)"/>
      <use xlink:href="#DejaVuSans-Bold-69" transform="translate(470.507812 0)"/>
      <use xlink:href="#DejaVuSans-Bold-74" transform="translate(504.785156 0)"/>
      <use xlink:href="#DejaVuSans-Bold-79" transform="translate(552.587891 0)"/>
      <use xlink:href="#DejaVuSans-Bold-20" transform="translate(617.773438 0)"/>
      <use xlink:href="#DejaVuSans-Bold-44" transform="translate(652.587891 0)"/>
      <use xlink:href="#DejaVuSans-Bold-65" transform="translate(735.595703 0)"/>
      <use xlink:href="#DejaVuSans-Bold-6e" transform="translate(803.417969 0)"/>
      <use xlink:href="#DejaVuSans-Bold-73" transform="translate(874.609375 0)"/>
      <use xlink:href="#DejaVuSans-Bold-69" transform="translate(934.130859 0)"/>
      <use xlink:href="#DejaVuSans-Bold-74" transform="translate(968.408203 0)"/>
      <use xlink:href="#DejaVuSans-Bold-79" transform="translate(1016.210938 0)"/>
     </g>
    </g>
    <g id="text_16">
     <!-- $\times\mathdefault{10^{−4}}\mathdefault{}$ -->
     <g style="fill: #262626" transform="translate(83.086509 53.664) scale(0.165 -0.165)">
      <defs>
       <path id="DejaVuSans-Bold-2212" d="M 678 2375 
L 4684 2375 
L 4684 1638 
L 678 1638 
L 678 2375 
z
" transform="scale(0.015625)"/>
      </defs>
      <use xlink:href="#DejaVuSans-Bold-d7" transform="translate(0 0.684375)"/>
      <use xlink:href="#DejaVuSans-Bold-31" transform="translate(83.789062 0.684375)"/>
      <use xlink:href="#DejaVuSans-Bold-30" transform="translate(153.369141 0.684375)"/>
      <use xlink:href="#DejaVuSans-Bold-2212" transform="translate(223.90625 38.965625) scale(0.7)"/>
      <use xlink:href="#DejaVuSans-Bold-34" transform="translate(282.558594 38.965625) scale(0.7)"/>
     </g>
    </g>
   </g>
   <g id="patch_3">
    <path d="M 157.631679 362.22 
L 159.522915 362.22 
L 159.522915 323.419238 
L 157.631679 323.419238 
z
" clip-path="url(#p995ae43a07)" style="fill: #c0c0c0; opacity: 0.7; stroke: #000000; stroke-width: 1.5; stroke-linejoin: miter"/>
   </g>
   <g id="patch_4">
    <path d="M 159.522915 362.22 
L 161.414151 362.22 
L 161.414151 362.22 
L 159.522915 362.22 
z
" clip-path="url(#p995ae43a07)" style="fill: #c0c0c0; opacity: 0.7; stroke: #000000; stroke-width: 1.5; stroke-linejoin: miter"/>
   </g>
   <g id="patch_5">
    <path d="M 161.414151 362.22 
L 163.305386 362.22 
L 163.305386 362.22 
L 161.414151 362.22 
z
" clip-path="url(#p995ae43a07)" style="fill: #c0c0c0; opacity: 0.7; stroke: #000000; stroke-width: 1.5; stroke-linejoin: miter"/>
   </g>
   <g id="patch_6">
    <path d="M 163.305386 362.22 
L 165.196622 362.22 
L 165.196622 362.22 
L 163.305386 362.22 
z
" clip-path="url(#p995ae43a07)" style="fill: #c0c0c0; opacity: 0.7; stroke: #000000; stroke-width: 1.5; stroke-linejoin: miter"/>
   </g>
   <g id="patch_7">
    <path d="M 165.196622 362.22 
L 167.087857 362.22 
L 167.087857 362.22 
L 165.196622 362.22 
z
" clip-path="url(#p995ae43a07)" style="fill: #c0c0c0; opacity: 0.7; stroke: #000000; stroke-width: 1.5; stroke-linejoin: miter"/>
   </g>
   <g id="patch_8">
    <path d="M 167.087857 362.22 
L 168.979093 362.22 
L 168.979093 362.22 
L 167.087857 362.22 
z
" clip-path="url(#p995ae43a07)" style="fill: #c0c0c0; opacity: 0.7; stroke: #000000; stroke-width: 1.5; stroke-linejoin: miter"/>
   </g>
   <g id="patch_9">
    <path d="M 168.979093 362.22 
L 170.870329 362.22 
L 170.870329 362.22 
L 168.979093 362.22 
z
" clip-path="url(#p995ae43a07)" style="fill: #c0c0c0; opacity: 0.7; stroke: #000000; stroke-width: 1.5; stroke-linejoin: miter"/>
   </g>
   <g id="patch_10">
    <path d="M 170.870329 362.22 
L 172.761564 362.22 
L 172.761564 323.419238 
L 170.870329 323.419238 
z
" clip-path="url(#p995ae43a07)" style="fill: #c0c0c0; opacity: 0.7; stroke: #000000; stroke-width: 1.5; stroke-linejoin: miter"/>
   </g>
   <g id="patch_11">
    <path d="M 172.761564 362.22 
L 174.6528 362.22 
L 174.6528 323.419238 
L 172.761564 323.419238 
z
" clip-path="url(#p995ae43a07)" style="fill: #c0c0c0; opacity: 0.7; stroke: #000000; stroke-width: 1.5; stroke-linejoin: miter"/>
   </g>
   <g id="patch_12">
    <path d="M 174.6528 362.22 
L 176.544036 362.22 
L 176.544036 323.419238 
L 174.6528 323.419238 
z
" clip-path="url(#p995ae43a07)" style="fill: #c0c0c0; opacity: 0.7; stroke: #000000; stroke-width: 1.5; stroke-linejoin: miter"/>
   </g>
   <g id="patch_13">
    <path d="M 176.544036 362.22 
L 178.435271 362.22 
L 178.435271 284.618476 
L 176.544036 284.618476 
z
" clip-path="url(#p995ae43a07)" style="fill: #c0c0c0; opacity: 0.7; stroke: #000000; stroke-width: 1.5; stroke-linejoin: miter"/>
   </g>
   <g id="patch_14">
    <path d="M 178.435271 362.22 
L 180.326507 362.22 
L 180.326507 323.419238 
L 178.435271 323.419238 
z
" clip-path="url(#p995ae43a07)" style="fill: #c0c0c0; opacity: 0.7; stroke: #000000; stroke-width: 1.5; stroke-linejoin: miter"/>
   </g>
   <g id="patch_15">
    <path d="M 180.326507 362.22 
L 182.217743 362.22 
L 182.217743 284.618476 
L 180.326507 284.618476 
z
" clip-path="url(#p995ae43a07)" style="fill: #c0c0c0; opacity: 0.7; stroke: #000000; stroke-width: 1.5; stroke-linejoin: miter"/>
   </g>
   <g id="patch_16">
    <path d="M 182.217743 362.22 
L 184.108978 362.22 
L 184.108978 284.618476 
L 182.217743 284.618476 
z
" clip-path="url(#p995ae43a07)" style="fill: #c0c0c0; opacity: 0.7; stroke: #000000; stroke-width: 1.5; stroke-linejoin: miter"/>
   </g>
   <g id="patch_17">
    <path d="M 184.108978 362.22 
L 186.000214 362.22 
L 186.000214 284.618476 
L 184.108978 284.618476 
z
" clip-path="url(#p995ae43a07)" style="fill: #c0c0c0; opacity: 0.7; stroke: #000000; stroke-width: 1.5; stroke-linejoin: miter"/>
   </g>
   <g id="patch_18">
    <path d="M 186.000214 362.22 
L 187.89145 362.22 
L 187.89145 362.22 
L 186.000214 362.22 
z
" clip-path="url(#p995ae43a07)" style="fill: #c0c0c0; opacity: 0.7; stroke: #000000; stroke-width: 1.5; stroke-linejoin: miter"/>
   </g>
   <g id="patch_19">
    <path d="M 187.89145 362.22 
L 189.782685 362.22 
L 189.782685 245.817714 
L 187.89145 245.817714 
z
" clip-path="url(#p995ae43a07)" style="fill: #c0c0c0; opacity: 0.7; stroke: #000000; stroke-width: 1.5; stroke-linejoin: miter"/>
   </g>
   <g id="patch_20">
    <path d="M 189.782685 362.22 
L 191.673921 362.22 
L 191.673921 284.618476 
L 189.782685 284.618476 
z
" clip-path="url(#p995ae43a07)" style="fill: #c0c0c0; opacity: 0.7; stroke: #000000; stroke-width: 1.5; stroke-linejoin: miter"/>
   </g>
   <g id="patch_21">
    <path d="M 191.673921 362.22 
L 193.565157 362.22 
L 193.565157 245.817714 
L 191.673921 245.817714 
z
" clip-path="url(#p995ae43a07)" style="fill: #c0c0c0; opacity: 0.7; stroke: #000000; stroke-width: 1.5; stroke-linejoin: miter"/>
   </g>
   <g id="patch_22">
    <path d="M 193.565157 362.22 
L 195.456392 362.22 
L 195.456392 362.22 
L 193.565157 362.22 
z
" clip-path="url(#p995ae43a07)" style="fill: #c0c0c0; opacity: 0.7; stroke: #000000; stroke-width: 1.5; stroke-linejoin: miter"/>
   </g>
   <g id="patch_23">
    <path d="M 195.456392 362.22 
L 197.347628 362.22 
L 197.347628 284.618476 
L 195.456392 284.618476 
z
" clip-path="url(#p995ae43a07)" style="fill: #c0c0c0; opacity: 0.7; stroke: #000000; stroke-width: 1.5; stroke-linejoin: miter"/>
   </g>
   <g id="patch_24">
    <path d="M 197.347628 362.22 
L 199.238864 362.22 
L 199.238864 245.817714 
L 197.347628 245.817714 
z
" clip-path="url(#p995ae43a07)" style="fill: #c0c0c0; opacity: 0.7; stroke: #000000; stroke-width: 1.5; stroke-linejoin: miter"/>
   </g>
   <g id="patch_25">
    <path d="M 199.238864 362.22 
L 201.130099 362.22 
L 201.130099 284.618476 
L 199.238864 284.618476 
z
" clip-path="url(#p995ae43a07)" style="fill: #c0c0c0; opacity: 0.7; stroke: #000000; stroke-width: 1.5; stroke-linejoin: miter"/>
   </g>
   <g id="patch_26">
    <path d="M 201.130099 362.22 
L 203.021335 362.22 
L 203.021335 245.817714 
L 201.130099 245.817714 
z
" clip-path="url(#p995ae43a07)" style="fill: #c0c0c0; opacity: 0.7; stroke: #000000; stroke-width: 1.5; stroke-linejoin: miter"/>
   </g>
   <g id="patch_27">
    <path d="M 203.021335 362.22 
L 204.912571 362.22 
L 204.912571 323.419238 
L 203.021335 323.419238 
z
" clip-path="url(#p995ae43a07)" style="fill: #c0c0c0; opacity: 0.7; stroke: #000000; stroke-width: 1.5; stroke-linejoin: miter"/>
   </g>
   <g id="patch_28">
    <path d="M 204.912571 362.22 
L 206.803806 362.22 
L 206.803806 245.817714 
L 204.912571 245.817714 
z
" clip-path="url(#p995ae43a07)" style="fill: #c0c0c0; opacity: 0.7; stroke: #000000; stroke-width: 1.5; stroke-linejoin: miter"/>
   </g>
   <g id="patch_29">
    <path d="M 206.803806 362.22 
L 208.695042 362.22 
L 208.695042 168.21619 
L 206.803806 168.21619 
z
" clip-path="url(#p995ae43a07)" style="fill: #c0c0c0; opacity: 0.7; stroke: #000000; stroke-width: 1.5; stroke-linejoin: miter"/>
   </g>
   <g id="patch_30">
    <path d="M 208.695042 362.22 
L 210.586277 362.22 
L 210.586277 168.21619 
L 208.695042 168.21619 
z
" clip-path="url(#p995ae43a07)" style="fill: #c0c0c0; opacity: 0.7; stroke: #000000; stroke-width: 1.5; stroke-linejoin: miter"/>
   </g>
   <g id="patch_31">
    <path d="M 210.586277 362.22 
L 212.477513 362.22 
L 212.477513 168.21619 
L 210.586277 168.21619 
z
" clip-path="url(#p995ae43a07)" style="fill: #c0c0c0; opacity: 0.7; stroke: #000000; stroke-width: 1.5; stroke-linejoin: miter"/>
   </g>
   <g id="patch_32">
    <path d="M 212.477513 362.22 
L 214.368749 362.22 
L 214.368749 129.415429 
L 212.477513 129.415429 
z
" clip-path="url(#p995ae43a07)" style="fill: #c0c0c0; opacity: 0.7; stroke: #000000; stroke-width: 1.5; stroke-linejoin: miter"/>
   </g>
   <g id="patch_33">
    <path d="M 214.368749 362.22 
L 216.259984 362.22 
L 216.259984 129.415429 
L 214.368749 129.415429 
z
" clip-path="url(#p995ae43a07)" style="fill: #c0c0c0; opacity: 0.7; stroke: #000000; stroke-width: 1.5; stroke-linejoin: miter"/>
   </g>
   <g id="patch_34">
    <path d="M 216.259984 362.22 
L 218.15122 362.22 
L 218.15122 245.817714 
L 216.259984 245.817714 
z
" clip-path="url(#p995ae43a07)" style="fill: #c0c0c0; opacity: 0.7; stroke: #000000; stroke-width: 1.5; stroke-linejoin: miter"/>
   </g>
   <g id="patch_35">
    <path d="M 218.15122 362.22 
L 220.042456 362.22 
L 220.042456 362.22 
L 218.15122 362.22 
z
" clip-path="url(#p995ae43a07)" style="fill: #c0c0c0; opacity: 0.7; stroke: #000000; stroke-width: 1.5; stroke-linejoin: miter"/>
   </g>
   <g id="patch_36">
    <path d="M 220.042456 362.22 
L 221.933691 362.22 
L 221.933691 245.817714 
L 220.042456 245.817714 
z
" clip-path="url(#p995ae43a07)" style="fill: #c0c0c0; opacity: 0.7; stroke: #000000; stroke-width: 1.5; stroke-linejoin: miter"/>
   </g>
   <g id="patch_37">
    <path d="M 221.933691 362.22 
L 223.824927 362.22 
L 223.824927 168.21619 
L 221.933691 168.21619 
z
" clip-path="url(#p995ae43a07)" style="fill: #c0c0c0; opacity: 0.7; stroke: #000000; stroke-width: 1.5; stroke-linejoin: miter"/>
   </g>
   <g id="patch_38">
    <path d="M 223.824927 362.22 
L 225.716163 362.22 
L 225.716163 207.016952 
L 223.824927 207.016952 
z
" clip-path="url(#p995ae43a07)" style="fill: #c0c0c0; opacity: 0.7; stroke: #000000; stroke-width: 1.5; stroke-linejoin: miter"/>
   </g>
   <g id="patch_39">
    <path d="M 225.716163 362.22 
L 227.607398 362.22 
L 227.607398 362.22 
L 225.716163 362.22 
z
" clip-path="url(#p995ae43a07)" style="fill: #c0c0c0; opacity: 0.7; stroke: #000000; stroke-width: 1.5; stroke-linejoin: miter"/>
   </g>
   <g id="patch_40">
    <path d="M 227.607398 362.22 
L 229.498634 362.22 
L 229.498634 129.415429 
L 227.607398 129.415429 
z
" clip-path="url(#p995ae43a07)" style="fill: #c0c0c0; opacity: 0.7; stroke: #000000; stroke-width: 1.5; stroke-linejoin: miter"/>
   </g>
   <g id="patch_41">
    <path d="M 229.498634 362.22 
L 231.38987 362.22 
L 231.38987 245.817714 
L 229.498634 245.817714 
z
" clip-path="url(#p995ae43a07)" style="fill: #c0c0c0; opacity: 0.7; stroke: #000000; stroke-width: 1.5; stroke-linejoin: miter"/>
   </g>
   <g id="patch_42">
    <path d="M 231.38987 362.22 
L 233.281105 362.22 
L 233.281105 245.817714 
L 231.38987 245.817714 
z
" clip-path="url(#p995ae43a07)" style="fill: #c0c0c0; opacity: 0.7; stroke: #000000; stroke-width: 1.5; stroke-linejoin: miter"/>
   </g>
   <g id="patch_43">
    <path d="M 233.281105 362.22 
L 235.172341 362.22 
L 235.172341 362.22 
L 233.281105 362.22 
z
" clip-path="url(#p995ae43a07)" style="fill: #c0c0c0; opacity: 0.7; stroke: #000000; stroke-width: 1.5; stroke-linejoin: miter"/>
   </g>
   <g id="patch_44">
    <path d="M 235.172341 362.22 
L 237.063577 362.22 
L 237.063577 284.618476 
L 235.172341 284.618476 
z
" clip-path="url(#p995ae43a07)" style="fill: #c0c0c0; opacity: 0.7; stroke: #000000; stroke-width: 1.5; stroke-linejoin: miter"/>
   </g>
   <g id="patch_45">
    <path d="M 237.063577 362.22 
L 238.954812 362.22 
L 238.954812 245.817714 
L 237.063577 245.817714 
z
" clip-path="url(#p995ae43a07)" style="fill: #c0c0c0; opacity: 0.7; stroke: #000000; stroke-width: 1.5; stroke-linejoin: miter"/>
   </g>
   <g id="patch_46">
    <path d="M 238.954812 362.22 
L 240.846048 362.22 
L 240.846048 323.419238 
L 238.954812 323.419238 
z
" clip-path="url(#p995ae43a07)" style="fill: #c0c0c0; opacity: 0.7; stroke: #000000; stroke-width: 1.5; stroke-linejoin: miter"/>
   </g>
   <g id="patch_47">
    <path d="M 240.846048 362.22 
L 242.737284 362.22 
L 242.737284 323.419238 
L 240.846048 323.419238 
z
" clip-path="url(#p995ae43a07)" style="fill: #c0c0c0; opacity: 0.7; stroke: #000000; stroke-width: 1.5; stroke-linejoin: miter"/>
   </g>
   <g id="patch_48">
    <path d="M 242.737284 362.22 
L 244.628519 362.22 
L 244.628519 323.419238 
L 242.737284 323.419238 
z
" clip-path="url(#p995ae43a07)" style="fill: #c0c0c0; opacity: 0.7; stroke: #000000; stroke-width: 1.5; stroke-linejoin: miter"/>
   </g>
   <g id="patch_49">
    <path d="M 244.628519 362.22 
L 246.519755 362.22 
L 246.519755 323.419238 
L 244.628519 323.419238 
z
" clip-path="url(#p995ae43a07)" style="fill: #c0c0c0; opacity: 0.7; stroke: #000000; stroke-width: 1.5; stroke-linejoin: miter"/>
   </g>
   <g id="patch_50">
    <path d="M 246.519755 362.22 
L 248.410991 362.22 
L 248.410991 362.22 
L 246.519755 362.22 
z
" clip-path="url(#p995ae43a07)" style="fill: #c0c0c0; opacity: 0.7; stroke: #000000; stroke-width: 1.5; stroke-linejoin: miter"/>
   </g>
   <g id="patch_51">
    <path d="M 248.410991 362.22 
L 250.302226 362.22 
L 250.302226 362.22 
L 248.410991 362.22 
z
" clip-path="url(#p995ae43a07)" style="fill: #c0c0c0; opacity: 0.7; stroke: #000000; stroke-width: 1.5; stroke-linejoin: miter"/>
   </g>
   <g id="patch_52">
    <path d="M 250.302226 362.22 
L 252.193462 362.22 
L 252.193462 284.618476 
L 250.302226 284.618476 
z
" clip-path="url(#p995ae43a07)" style="fill: #c0c0c0; opacity: 0.7; stroke: #000000; stroke-width: 1.5; stroke-linejoin: miter"/>
   </g>
   <g id="line2d_13">
    <path d="M 475.589387 362.22 
L 475.589387 56.664 
" clip-path="url(#p995ae43a07)" style="fill: none; stroke: #ff0000; stroke-width: 2.5; stroke-linecap: round"/>
   </g>
   <g id="line2d_14">
    <path d="M 101.777122 362.22 
L 101.777122 56.664 
" clip-path="url(#p995ae43a07)" style="fill: none; stroke-dasharray: 9.25,4; stroke-dashoffset: 0; stroke: #0000ff; stroke-width: 2.5"/>
   </g>
   <g id="patch_53">
    <path d="M 83.086509 362.22 
L 83.086509 56.664 
" style="fill: none; stroke: #cccccc; stroke-width: 1.875; stroke-linejoin: miter; stroke-linecap: square"/>
   </g>
   <g id="patch_54">
    <path d="M 494.28 362.22 
L 494.28 56.664 
" style="fill: none; stroke: #cccccc; stroke-width: 1.875; stroke-linejoin: miter; stroke-linecap: square"/>
   </g>
   <g id="patch_55">
    <path d="M 83.086509 362.22 
L 494.28 362.22 
" style="fill: none; stroke: #cccccc; stroke-width: 1.875; stroke-linejoin: miter; stroke-linecap: square"/>
   </g>
   <g id="patch_56">
    <path d="M 83.086509 56.664 
L 494.28 56.664 
" style="fill: none; stroke: #cccccc; stroke-width: 1.875; stroke-linejoin: miter; stroke-linecap: square"/>
   </g>
   <g id="text_17">
    <!-- Standard D-Opt. Objective -->
    <g style="fill: #262626" transform="translate(154.591692 50.664) scale(0.18 -0.18)">
     <defs>
      <path id="DejaVuSans-Bold-53" d="M 3834 4519 
L 3834 3531 
Q 3450 3703 3084 3790 
Q 2719 3878 2394 3878 
Q 1963 3878 1756 3759 
Q 1550 3641 1550 3391 
Q 1550 3203 1689 3098 
Q 1828 2994 2194 2919 
L 2706 2816 
Q 3484 2659 3812 2340 
Q 4141 2022 4141 1434 
Q 4141 663 3683 286 
Q 3225 -91 2284 -91 
Q 1841 -91 1394 -6 
Q 947 78 500 244 
L 500 1259 
Q 947 1022 1364 901 
Q 1781 781 2169 781 
Q 2563 781 2772 912 
Q 2981 1044 2981 1288 
Q 2981 1506 2839 1625 
Q 2697 1744 2272 1838 
L 1806 1941 
Q 1106 2091 782 2419 
Q 459 2747 459 3303 
Q 459 4000 909 4375 
Q 1359 4750 2203 4750 
Q 2588 4750 2994 4692 
Q 3400 4634 3834 4519 
z
" transform="scale(0.015625)"/>
      <path id="DejaVuSans-Bold-64" d="M 2919 2988 
L 2919 4863 
L 4044 4863 
L 4044 0 
L 2919 0 
L 2919 506 
Q 2688 197 2409 53 
Q 2131 -91 1766 -91 
Q 1119 -91 703 423 
Q 288 938 288 1747 
Q 288 2556 703 3070 
Q 1119 3584 1766 3584 
Q 2128 3584 2408 3439 
Q 2688 3294 2919 2988 
z
M 2181 722 
Q 2541 722 2730 984 
Q 2919 1247 2919 1747 
Q 2919 2247 2730 2509 
Q 2541 2772 2181 2772 
Q 1825 2772 1636 2509 
Q 1447 2247 1447 1747 
Q 1447 1247 1636 984 
Q 1825 722 2181 722 
z
" transform="scale(0.015625)"/>
      <path id="DejaVuSans-Bold-2d" d="M 347 2297 
L 2309 2297 
L 2309 1388 
L 347 1388 
L 347 2297 
z
" transform="scale(0.015625)"/>
      <path id="DejaVuSans-Bold-70" d="M 1656 506 
L 1656 -1331 
L 538 -1331 
L 538 3500 
L 1656 3500 
L 1656 2988 
Q 1888 3294 2169 3439 
Q 2450 3584 2816 3584 
Q 3463 3584 3878 3070 
Q 4294 2556 4294 1747 
Q 4294 938 3878 423 
Q 3463 -91 2816 -91 
Q 2450 -91 2169 54 
Q 1888 200 1656 506 
z
M 2400 2772 
Q 2041 2772 1848 2508 
Q 1656 2244 1656 1747 
Q 1656 1250 1848 986 
Q 2041 722 2400 722 
Q 2759 722 2948 984 
Q 3138 1247 3138 1747 
Q 3138 2247 2948 2509 
Q 2759 2772 2400 2772 
z
" transform="scale(0.015625)"/>
     </defs>
     <use xlink:href="#DejaVuSans-Bold-53"/>
     <use xlink:href="#DejaVuSans-Bold-74" transform="translate(72.021484 0)"/>
     <use xlink:href="#DejaVuSans-Bold-61" transform="translate(119.824219 0)"/>
     <use xlink:href="#DejaVuSans-Bold-6e" transform="translate(187.304688 0)"/>
     <use xlink:href="#DejaVuSans-Bold-64" transform="translate(258.496094 0)"/>
     <use xlink:href="#DejaVuSans-Bold-61" transform="translate(330.078125 0)"/>
     <use xlink:href="#DejaVuSans-Bold-72" transform="translate(397.558594 0)"/>
     <use xlink:href="#DejaVuSans-Bold-64" transform="translate(446.875 0)"/>
     <use xlink:href="#DejaVuSans-Bold-20" transform="translate(518.457031 0)"/>
     <use xlink:href="#DejaVuSans-Bold-44" transform="translate(553.271484 0)"/>
     <use xlink:href="#DejaVuSans-Bold-2d" transform="translate(638.154297 0)"/>
     <use xlink:href="#DejaVuSans-Bold-4f" transform="translate(679.658203 0)"/>
     <use xlink:href="#DejaVuSans-Bold-70" transform="translate(764.667969 0)"/>
     <use xlink:href="#DejaVuSans-Bold-74" transform="translate(836.25 0)"/>
     <use xlink:href="#DejaVuSans-Bold-2e" transform="translate(884.052734 0)"/>
     <use xlink:href="#DejaVuSans-Bold-20" transform="translate(922.041016 0)"/>
     <use xlink:href="#DejaVuSans-Bold-4f" transform="translate(956.855469 0)"/>
     <use xlink:href="#DejaVuSans-Bold-62" transform="translate(1041.865234 0)"/>
     <use xlink:href="#DejaVuSans-Bold-6a" transform="translate(1113.447266 0)"/>
     <use xlink:href="#DejaVuSans-Bold-65" transform="translate(1147.724609 0)"/>
     <use xlink:href="#DejaVuSans-Bold-63" transform="translate(1215.546875 0)"/>
     <use xlink:href="#DejaVuSans-Bold-74" transform="translate(1274.824219 0)"/>
     <use xlink:href="#DejaVuSans-Bold-69" transform="translate(1322.626953 0)"/>
     <use xlink:href="#DejaVuSans-Bold-76" transform="translate(1356.904297 0)"/>
     <use xlink:href="#DejaVuSans-Bold-65" transform="translate(1422.089844 0)"/>
    </g>
   </g>
   <g id="legend_1">
    <g id="patch_57">
     <path d="M 233.072109 248.438719 
L 482.73 248.438719 
Q 486.03 248.438719 486.03 245.138719 
L 486.03 173.745281 
Q 486.03 170.445281 482.73 170.445281 
L 233.072109 170.445281 
Q 229.772109 170.445281 229.772109 173.745281 
L 229.772109 245.138719 
Q 229.772109 248.438719 233.072109 248.438719 
z
" style="fill: #ffffff; opacity: 0.8; stroke: #cccccc; stroke-width: 1.5; stroke-linejoin: miter"/>
    </g>
    <g id="patch_58">
     <path d="M 236.372109 189.582703 
L 269.372109 189.582703 
L 269.372109 178.032703 
L 236.372109 178.032703 
z
" style="fill: #c0c0c0; opacity: 0.7; stroke: #000000; stroke-width: 1.5; stroke-linejoin: miter"/>
    </g>
    <g id="text_18">
     <!-- Random Configs -->
     <g style="fill: #262626" transform="translate(282.572109 189.582703) scale(0.165 -0.165)">
      <defs>
       <path id="DejaVuSans-Bold-52" d="M 2297 2597 
Q 2675 2597 2839 2737 
Q 3003 2878 3003 3200 
Q 3003 3519 2839 3656 
Q 2675 3794 2297 3794 
L 1791 3794 
L 1791 2597 
L 2297 2597 
z
M 1791 1766 
L 1791 0 
L 588 0 
L 588 4666 
L 2425 4666 
Q 3347 4666 3776 4356 
Q 4206 4047 4206 3378 
Q 4206 2916 3982 2619 
Q 3759 2322 3309 2181 
Q 3556 2125 3751 1926 
Q 3947 1728 4147 1325 
L 4800 0 
L 3519 0 
L 2950 1159 
Q 2778 1509 2601 1637 
Q 2425 1766 2131 1766 
L 1791 1766 
z
" transform="scale(0.015625)"/>
       <path id="DejaVuSans-Bold-6d" d="M 3781 2919 
Q 3994 3244 4286 3414 
Q 4578 3584 4928 3584 
Q 5531 3584 5847 3212 
Q 6163 2841 6163 2131 
L 6163 0 
L 5038 0 
L 5038 1825 
Q 5041 1866 5042 1909 
Q 5044 1953 5044 2034 
Q 5044 2406 4934 2573 
Q 4825 2741 4581 2741 
Q 4263 2741 4089 2478 
Q 3916 2216 3909 1719 
L 3909 0 
L 2784 0 
L 2784 1825 
Q 2784 2406 2684 2573 
Q 2584 2741 2328 2741 
Q 2006 2741 1831 2477 
Q 1656 2213 1656 1722 
L 1656 0 
L 531 0 
L 531 3500 
L 1656 3500 
L 1656 2988 
Q 1863 3284 2130 3434 
Q 2397 3584 2719 3584 
Q 3081 3584 3359 3409 
Q 3638 3234 3781 2919 
z
" transform="scale(0.015625)"/>
       <path id="DejaVuSans-Bold-43" d="M 4288 256 
Q 3956 84 3597 -3 
Q 3238 -91 2847 -91 
Q 1681 -91 1000 561 
Q 319 1213 319 2328 
Q 319 3447 1000 4098 
Q 1681 4750 2847 4750 
Q 3238 4750 3597 4662 
Q 3956 4575 4288 4403 
L 4288 3438 
Q 3953 3666 3628 3772 
Q 3303 3878 2944 3878 
Q 2300 3878 1931 3465 
Q 1563 3053 1563 2328 
Q 1563 1606 1931 1193 
Q 2300 781 2944 781 
Q 3303 781 3628 887 
Q 3953 994 4288 1222 
L 4288 256 
z
" transform="scale(0.015625)"/>
       <path id="DejaVuSans-Bold-66" d="M 2841 4863 
L 2841 4128 
L 2222 4128 
Q 1984 4128 1890 4042 
Q 1797 3956 1797 3744 
L 1797 3500 
L 2753 3500 
L 2753 2700 
L 1797 2700 
L 1797 0 
L 678 0 
L 678 2700 
L 122 2700 
L 122 3500 
L 678 3500 
L 678 3744 
Q 678 4316 997 4589 
Q 1316 4863 1984 4863 
L 2841 4863 
z
" transform="scale(0.015625)"/>
       <path id="DejaVuSans-Bold-67" d="M 2919 594 
Q 2688 288 2409 144 
Q 2131 0 1766 0 
Q 1125 0 706 504 
Q 288 1009 288 1791 
Q 288 2575 706 3076 
Q 1125 3578 1766 3578 
Q 2131 3578 2409 3434 
Q 2688 3291 2919 2981 
L 2919 3500 
L 4044 3500 
L 4044 353 
Q 4044 -491 3511 -936 
Q 2978 -1381 1966 -1381 
Q 1638 -1381 1331 -1331 
Q 1025 -1281 716 -1178 
L 716 -306 
Q 1009 -475 1290 -558 
Q 1572 -641 1856 -641 
Q 2406 -641 2662 -400 
Q 2919 -159 2919 353 
L 2919 594 
z
M 2181 2772 
Q 1834 2772 1640 2515 
Q 1447 2259 1447 1791 
Q 1447 1309 1634 1061 
Q 1822 813 2181 813 
Q 2531 813 2725 1069 
Q 2919 1325 2919 1791 
Q 2919 2259 2725 2515 
Q 2531 2772 2181 2772 
z
" transform="scale(0.015625)"/>
      </defs>
      <use xlink:href="#DejaVuSans-Bold-52"/>
      <use xlink:href="#DejaVuSans-Bold-61" transform="translate(77.001953 0)"/>
      <use xlink:href="#DejaVuSans-Bold-6e" transform="translate(144.482422 0)"/>
      <use xlink:href="#DejaVuSans-Bold-64" transform="translate(215.673828 0)"/>
      <use xlink:href="#DejaVuSans-Bold-6f" transform="translate(287.255859 0)"/>
      <use xlink:href="#DejaVuSans-Bold-6d" transform="translate(355.957031 0)"/>
      <use xlink:href="#DejaVuSans-Bold-20" transform="translate(460.15625 0)"/>
      <use xlink:href="#DejaVuSans-Bold-43" transform="translate(494.970703 0)"/>
      <use xlink:href="#DejaVuSans-Bold-6f" transform="translate(568.359375 0)"/>
      <use xlink:href="#DejaVuSans-Bold-6e" transform="translate(637.060547 0)"/>
      <use xlink:href="#DejaVuSans-Bold-66" transform="translate(708.251953 0)"/>
      <use xlink:href="#DejaVuSans-Bold-69" transform="translate(751.757812 0)"/>
      <use xlink:href="#DejaVuSans-Bold-67" transform="translate(786.035156 0)"/>
      <use xlink:href="#DejaVuSans-Bold-73" transform="translate(857.617188 0)"/>
     </g>
    </g>
    <g id="line2d_15">
     <path d="M 236.372109 208.155516 
L 252.872109 208.155516 
L 269.372109 208.155516 
" style="fill: none; stroke: #ff0000; stroke-width: 2.5; stroke-linecap: round"/>
    </g>
    <g id="text_19">
     <!-- Standard Opt. Config -->
     <g style="fill: #262626" transform="translate(282.572109 213.930516) scale(0.165 -0.165)">
      <use xlink:href="#DejaVuSans-Bold-53"/>
      <use xlink:href="#DejaVuSans-Bold-74" transform="translate(72.021484 0)"/>
      <use xlink:href="#DejaVuSans-Bold-61" transform="translate(119.824219 0)"/>
      <use xlink:href="#DejaVuSans-Bold-6e" transform="translate(187.304688 0)"/>
      <use xlink:href="#DejaVuSans-Bold-64" transform="translate(258.496094 0)"/>
      <use xlink:href="#DejaVuSans-Bold-61" transform="translate(330.078125 0)"/>
      <use xlink:href="#DejaVuSans-Bold-72" transform="translate(397.558594 0)"/>
      <use xlink:href="#DejaVuSans-Bold-64" transform="translate(446.875 0)"/>
      <use xlink:href="#DejaVuSans-Bold-20" transform="translate(518.457031 0)"/>
      <use xlink:href="#DejaVuSans-Bold-4f" transform="translate(553.271484 0)"/>
      <use xlink:href="#DejaVuSans-Bold-70" transform="translate(638.28125 0)"/>
      <use xlink:href="#DejaVuSans-Bold-74" transform="translate(709.863281 0)"/>
      <use xlink:href="#DejaVuSans-Bold-2e" transform="translate(757.666016 0)"/>
      <use xlink:href="#DejaVuSans-Bold-20" transform="translate(795.654297 0)"/>
      <use xlink:href="#DejaVuSans-Bold-43" transform="translate(830.46875 0)"/>
      <use xlink:href="#DejaVuSans-Bold-6f" transform="translate(903.857422 0)"/>
      <use xlink:href="#DejaVuSans-Bold-6e" transform="translate(972.558594 0)"/>
      <use xlink:href="#DejaVuSans-Bold-66" transform="translate(1043.75 0)"/>
      <use xlink:href="#DejaVuSans-Bold-69" transform="translate(1087.255859 0)"/>
      <use xlink:href="#DejaVuSans-Bold-67" transform="translate(1121.533203 0)"/>
     </g>
    </g>
    <g id="line2d_16">
     <path d="M 236.372109 232.503328 
L 252.872109 232.503328 
L 269.372109 232.503328 
" style="fill: none; stroke-dasharray: 9.25,4; stroke-dashoffset: 0; stroke: #0000ff; stroke-width: 2.5"/>
    </g>
    <g id="text_20">
     <!-- Goal Opt. Config -->
     <g style="fill: #262626" transform="translate(282.572109 238.278328) scale(0.165 -0.165)">
      <defs>
       <path id="DejaVuSans-Bold-47" d="M 4781 347 
Q 4331 128 3847 18 
Q 3363 -91 2847 -91 
Q 1681 -91 1000 561 
Q 319 1213 319 2328 
Q 319 3456 1012 4103 
Q 1706 4750 2913 4750 
Q 3378 4750 3804 4662 
Q 4231 4575 4609 4403 
L 4609 3438 
Q 4219 3659 3833 3768 
Q 3447 3878 3059 3878 
Q 2341 3878 1952 3476 
Q 1563 3075 1563 2328 
Q 1563 1588 1938 1184 
Q 2313 781 3003 781 
Q 3191 781 3352 804 
Q 3513 828 3641 878 
L 3641 1784 
L 2906 1784 
L 2906 2591 
L 4781 2591 
L 4781 347 
z
" transform="scale(0.015625)"/>
      </defs>
      <use xlink:href="#DejaVuSans-Bold-47"/>
      <use xlink:href="#DejaVuSans-Bold-6f" transform="translate(82.080078 0)"/>
      <use xlink:href="#DejaVuSans-Bold-61" transform="translate(150.78125 0)"/>
      <use xlink:href="#DejaVuSans-Bold-6c" transform="translate(218.261719 0)"/>
      <use xlink:href="#DejaVuSans-Bold-20" transform="translate(252.539062 0)"/>
      <use xlink:href="#DejaVuSans-Bold-4f" transform="translate(287.353516 0)"/>
      <use xlink:href="#DejaVuSans-Bold-70" transform="translate(372.363281 0)"/>
      <use xlink:href="#DejaVuSans-Bold-74" transform="translate(443.945312 0)"/>
      <use xlink:href="#DejaVuSans-Bold-2e" transform="translate(491.748047 0)"/>
      <use xlink:href="#DejaVuSans-Bold-20" transform="translate(529.736328 0)"/>
      <use xlink:href="#DejaVuSans-Bold-43" transform="translate(564.550781 0)"/>
      <use xlink:href="#DejaVuSans-Bold-6f" transform="translate(637.939453 0)"/>
      <use xlink:href="#DejaVuSans-Bold-6e" transform="translate(706.640625 0)"/>
      <use xlink:href="#DejaVuSans-Bold-66" transform="translate(777.832031 0)"/>
      <use xlink:href="#DejaVuSans-Bold-69" transform="translate(821.337891 0)"/>
      <use xlink:href="#DejaVuSans-Bold-67" transform="translate(855.615234 0)"/>
     </g>
    </g>
   </g>
  </g>
  <g id="axes_2">
   <g id="patch_59">
    <path d="M 577.366509 362.22 
L 988.56 362.22 
L 988.56 56.664 
L 577.366509 56.664 
z
" style="fill: #ffffff"/>
   </g>
   <g id="matplotlib.axis_3">
    <g id="xtick_7">
     <g id="line2d_17">
      <path d="M 590.49182 362.22 
L 590.49182 56.664 
" clip-path="url(#p53adcaf81d)" style="fill: none; stroke: #cccccc; stroke-opacity: 0.3; stroke-width: 1.5; stroke-linecap: round"/>
     </g>
     <g id="text_21">
      <!-- $\mathdefault{1.6}$ -->
      <g style="fill: #262626" transform="translate(575.80682 387.257422) scale(0.165 -0.165)">
       <use xlink:href="#DejaVuSans-Bold-31" transform="translate(0 0.875)"/>
       <use xlink:href="#DejaVuSans-Bold-2e" transform="translate(69.580078 0.875)"/>
       <use xlink:href="#DejaVuSans-Bold-36" transform="translate(107.568359 0.875)"/>
      </g>
     </g>
    </g>
    <g id="xtick_8">
     <g id="line2d_18">
      <path d="M 659.089156 362.22 
L 659.089156 56.664 
" clip-path="url(#p53adcaf81d)" style="fill: none; stroke: #cccccc; stroke-opacity: 0.3; stroke-width: 1.5; stroke-linecap: round"/>
     </g>
     <g id="text_22">
      <!-- $\mathdefault{1.8}$ -->
      <g style="fill: #262626" transform="translate(644.569156 387.257422) scale(0.165 -0.165)">
       <defs>
        <path id="DejaVuSans-Bold-38" d="M 2228 2088 
Q 1891 2088 1709 1903 
Q 1528 1719 1528 1375 
Q 1528 1031 1709 848 
Q 1891 666 2228 666 
Q 2563 666 2741 848 
Q 2919 1031 2919 1375 
Q 2919 1722 2741 1905 
Q 2563 2088 2228 2088 
z
M 1350 2484 
Q 925 2613 709 2878 
Q 494 3144 494 3541 
Q 494 4131 934 4440 
Q 1375 4750 2228 4750 
Q 3075 4750 3515 4442 
Q 3956 4134 3956 3541 
Q 3956 3144 3739 2878 
Q 3522 2613 3097 2484 
Q 3572 2353 3814 2058 
Q 4056 1763 4056 1313 
Q 4056 619 3595 264 
Q 3134 -91 2228 -91 
Q 1319 -91 855 264 
Q 391 619 391 1313 
Q 391 1763 633 2058 
Q 875 2353 1350 2484 
z
M 1631 3419 
Q 1631 3141 1786 2991 
Q 1941 2841 2228 2841 
Q 2509 2841 2662 2991 
Q 2816 3141 2816 3419 
Q 2816 3697 2662 3845 
Q 2509 3994 2228 3994 
Q 1941 3994 1786 3844 
Q 1631 3694 1631 3419 
z
" transform="scale(0.015625)"/>
       </defs>
       <use xlink:href="#DejaVuSans-Bold-31" transform="translate(0 0.78125)"/>
       <use xlink:href="#DejaVuSans-Bold-2e" transform="translate(69.580078 0.78125)"/>
       <use xlink:href="#DejaVuSans-Bold-38" transform="translate(105.818359 0.78125)"/>
      </g>
     </g>
    </g>
    <g id="xtick_9">
     <g id="line2d_19">
      <path d="M 727.686492 362.22 
L 727.686492 56.664 
" clip-path="url(#p53adcaf81d)" style="fill: none; stroke: #cccccc; stroke-opacity: 0.3; stroke-width: 1.5; stroke-linecap: round"/>
     </g>
     <g id="text_23">
      <!-- $\mathdefault{2.0}$ -->
      <g style="fill: #262626" transform="translate(713.001492 387.257422) scale(0.165 -0.165)">
       <use xlink:href="#DejaVuSans-Bold-32" transform="translate(0 0.78125)"/>
       <use xlink:href="#DejaVuSans-Bold-2e" transform="translate(69.580078 0.78125)"/>
       <use xlink:href="#DejaVuSans-Bold-30" transform="translate(107.568359 0.78125)"/>
      </g>
     </g>
    </g>
    <g id="xtick_10">
     <g id="line2d_20">
      <path d="M 796.283828 362.22 
L 796.283828 56.664 
" clip-path="url(#p53adcaf81d)" style="fill: none; stroke: #cccccc; stroke-opacity: 0.3; stroke-width: 1.5; stroke-linecap: round"/>
     </g>
     <g id="text_24">
      <!-- $\mathdefault{2.2}$ -->
      <g style="fill: #262626" transform="translate(782.011328 387.257422) scale(0.165 -0.165)">
       <use xlink:href="#DejaVuSans-Bold-32" transform="translate(0 0.78125)"/>
       <use xlink:href="#DejaVuSans-Bold-2e" transform="translate(69.580078 0.78125)"/>
       <use xlink:href="#DejaVuSans-Bold-32" transform="translate(103.068359 0.78125)"/>
      </g>
     </g>
    </g>
    <g id="xtick_11">
     <g id="line2d_21">
      <path d="M 864.881164 362.22 
L 864.881164 56.664 
" clip-path="url(#p53adcaf81d)" style="fill: none; stroke: #cccccc; stroke-opacity: 0.3; stroke-width: 1.5; stroke-linecap: round"/>
     </g>
     <g id="text_25">
      <!-- $\mathdefault{2.4}$ -->
      <g style="fill: #262626" transform="translate(850.196164 387.257422) scale(0.165 -0.165)">
       <use xlink:href="#DejaVuSans-Bold-32" transform="translate(0 0.78125)"/>
       <use xlink:href="#DejaVuSans-Bold-2e" transform="translate(69.580078 0.78125)"/>
       <use xlink:href="#DejaVuSans-Bold-34" transform="translate(107.568359 0.78125)"/>
      </g>
     </g>
    </g>
    <g id="xtick_12">
     <g id="line2d_22">
      <path d="M 933.4785 362.22 
L 933.4785 56.664 
" clip-path="url(#p53adcaf81d)" style="fill: none; stroke: #cccccc; stroke-opacity: 0.3; stroke-width: 1.5; stroke-linecap: round"/>
     </g>
     <g id="text_26">
      <!-- $\mathdefault{2.6}$ -->
      <g style="fill: #262626" transform="translate(918.7935 387.257422) scale(0.165 -0.165)">
       <use xlink:href="#DejaVuSans-Bold-32" transform="translate(0 0.78125)"/>
       <use xlink:href="#DejaVuSans-Bold-2e" transform="translate(69.580078 0.78125)"/>
       <use xlink:href="#DejaVuSans-Bold-36" transform="translate(107.568359 0.78125)"/>
      </g>
     </g>
    </g>
    <g id="text_27">
     <!-- Objective Function Value -->
     <g style="fill: #262626" transform="translate(656.755129 408.366094) scale(0.18 -0.18)">
      <use xlink:href="#DejaVuSans-Bold-4f"/>
      <use xlink:href="#DejaVuSans-Bold-62" transform="translate(85.009766 0)"/>
      <use xlink:href="#DejaVuSans-Bold-6a" transform="translate(156.591797 0)"/>
      <use xlink:href="#DejaVuSans-Bold-65" transform="translate(190.869141 0)"/>
      <use xlink:href="#DejaVuSans-Bold-63" transform="translate(258.691406 0)"/>
      <use xlink:href="#DejaVuSans-Bold-74" transform="translate(317.96875 0)"/>
      <use xlink:href="#DejaVuSans-Bold-69" transform="translate(365.771484 0)"/>
      <use xlink:href="#DejaVuSans-Bold-76" transform="translate(400.048828 0)"/>
      <use xlink:href="#DejaVuSans-Bold-65" transform="translate(465.234375 0)"/>
      <use xlink:href="#DejaVuSans-Bold-20" transform="translate(533.056641 0)"/>
      <use xlink:href="#DejaVuSans-Bold-46" transform="translate(567.871094 0)"/>
      <use xlink:href="#DejaVuSans-Bold-75" transform="translate(631.181641 0)"/>
      <use xlink:href="#DejaVuSans-Bold-6e" transform="translate(702.373047 0)"/>
      <use xlink:href="#DejaVuSans-Bold-63" transform="translate(773.564453 0)"/>
      <use xlink:href="#DejaVuSans-Bold-74" transform="translate(832.841797 0)"/>
      <use xlink:href="#DejaVuSans-Bold-69" transform="translate(880.644531 0)"/>
      <use xlink:href="#DejaVuSans-Bold-6f" transform="translate(914.921875 0)"/>
      <use xlink:href="#DejaVuSans-Bold-6e" transform="translate(983.623047 0)"/>
      <use xlink:href="#DejaVuSans-Bold-20" transform="translate(1054.814453 0)"/>
      <use xlink:href="#DejaVuSans-Bold-56" transform="translate(1089.628906 0)"/>
      <use xlink:href="#DejaVuSans-Bold-61" transform="translate(1161.521484 0)"/>
      <use xlink:href="#DejaVuSans-Bold-6c" transform="translate(1229.001953 0)"/>
      <use xlink:href="#DejaVuSans-Bold-75" transform="translate(1263.279297 0)"/>
      <use xlink:href="#DejaVuSans-Bold-65" transform="translate(1334.470703 0)"/>
     </g>
    </g>
    <g id="text_28">
     <!-- $\times\mathdefault{10^{4}}\mathdefault{}$ -->
     <g style="fill: #262626" transform="translate(943.02 406.226328) scale(0.165 -0.165)">
      <use xlink:href="#DejaVuSans-Bold-d7" transform="translate(0 0.684375)"/>
      <use xlink:href="#DejaVuSans-Bold-31" transform="translate(83.789062 0.684375)"/>
      <use xlink:href="#DejaVuSans-Bold-30" transform="translate(153.369141 0.684375)"/>
      <use xlink:href="#DejaVuSans-Bold-34" transform="translate(223.90625 38.965625) scale(0.7)"/>
     </g>
    </g>
   </g>
   <g id="matplotlib.axis_4">
    <g id="ytick_7">
     <g id="line2d_23">
      <path d="M 577.366509 362.22 
L 988.56 362.22 
" clip-path="url(#p53adcaf81d)" style="fill: none; stroke: #cccccc; stroke-opacity: 0.3; stroke-width: 1.5; stroke-linecap: round"/>
     </g>
     <g id="text_29">
      <!-- $\mathdefault{0.0}$ -->
      <g style="fill: #262626" transform="translate(535.496509 368.488711) scale(0.165 -0.165)">
       <use xlink:href="#DejaVuSans-Bold-30" transform="translate(0 0.78125)"/>
       <use xlink:href="#DejaVuSans-Bold-2e" transform="translate(69.580078 0.78125)"/>
       <use xlink:href="#DejaVuSans-Bold-30" transform="translate(107.568359 0.78125)"/>
      </g>
     </g>
    </g>
    <g id="ytick_8">
     <g id="line2d_24">
      <path d="M 577.366509 311.054328 
L 988.56 311.054328 
" clip-path="url(#p53adcaf81d)" style="fill: none; stroke: #cccccc; stroke-opacity: 0.3; stroke-width: 1.5; stroke-linecap: round"/>
     </g>
     <g id="text_30">
      <!-- $\mathdefault{0.2}$ -->
      <g style="fill: #262626" transform="translate(536.321509 317.323039) scale(0.165 -0.165)">
       <use xlink:href="#DejaVuSans-Bold-30" transform="translate(0 0.78125)"/>
       <use xlink:href="#DejaVuSans-Bold-2e" transform="translate(69.580078 0.78125)"/>
       <use xlink:href="#DejaVuSans-Bold-32" transform="translate(103.068359 0.78125)"/>
      </g>
     </g>
    </g>
    <g id="ytick_9">
     <g id="line2d_25">
      <path d="M 577.366509 259.888655 
L 988.56 259.888655 
" clip-path="url(#p53adcaf81d)" style="fill: none; stroke: #cccccc; stroke-opacity: 0.3; stroke-width: 1.5; stroke-linecap: round"/>
     </g>
     <g id="text_31">
      <!-- $\mathdefault{0.4}$ -->
      <g style="fill: #262626" transform="translate(535.496509 266.157366) scale(0.165 -0.165)">
       <use xlink:href="#DejaVuSans-Bold-30" transform="translate(0 0.78125)"/>
       <use xlink:href="#DejaVuSans-Bold-2e" transform="translate(69.580078 0.78125)"/>
       <use xlink:href="#DejaVuSans-Bold-34" transform="translate(107.568359 0.78125)"/>
      </g>
     </g>
    </g>
    <g id="ytick_10">
     <g id="line2d_26">
      <path d="M 577.366509 208.722983 
L 988.56 208.722983 
" clip-path="url(#p53adcaf81d)" style="fill: none; stroke: #cccccc; stroke-opacity: 0.3; stroke-width: 1.5; stroke-linecap: round"/>
     </g>
     <g id="text_32">
      <!-- $\mathdefault{0.6}$ -->
      <g style="fill: #262626" transform="translate(535.496509 214.991694) scale(0.165 -0.165)">
       <use xlink:href="#DejaVuSans-Bold-30" transform="translate(0 0.78125)"/>
       <use xlink:href="#DejaVuSans-Bold-2e" transform="translate(69.580078 0.78125)"/>
       <use xlink:href="#DejaVuSans-Bold-36" transform="translate(107.568359 0.78125)"/>
      </g>
     </g>
    </g>
    <g id="ytick_11">
     <g id="line2d_27">
      <path d="M 577.366509 157.557311 
L 988.56 157.557311 
" clip-path="url(#p53adcaf81d)" style="fill: none; stroke: #cccccc; stroke-opacity: 0.3; stroke-width: 1.5; stroke-linecap: round"/>
     </g>
     <g id="text_33">
      <!-- $\mathdefault{0.8}$ -->
      <g style="fill: #262626" transform="translate(535.826509 163.826022) scale(0.165 -0.165)">
       <use xlink:href="#DejaVuSans-Bold-30" transform="translate(0 0.78125)"/>
       <use xlink:href="#DejaVuSans-Bold-2e" transform="translate(69.580078 0.78125)"/>
       <use xlink:href="#DejaVuSans-Bold-38" transform="translate(105.818359 0.78125)"/>
      </g>
     </g>
    </g>
    <g id="ytick_12">
     <g id="line2d_28">
      <path d="M 577.366509 106.391638 
L 988.56 106.391638 
" clip-path="url(#p53adcaf81d)" style="fill: none; stroke: #cccccc; stroke-opacity: 0.3; stroke-width: 1.5; stroke-linecap: round"/>
     </g>
     <g id="text_34">
      <!-- $\mathdefault{1.0}$ -->
      <g style="fill: #262626" transform="translate(535.496509 112.660349) scale(0.165 -0.165)">
       <use xlink:href="#DejaVuSans-Bold-31" transform="translate(0 0.78125)"/>
       <use xlink:href="#DejaVuSans-Bold-2e" transform="translate(69.580078 0.78125)"/>
       <use xlink:href="#DejaVuSans-Bold-30" transform="translate(107.568359 0.78125)"/>
      </g>
     </g>
    </g>
    <g id="text_35">
     <!-- Probability Density -->
     <g style="fill: #262626" transform="translate(527.612446 306.768563) rotate(-90) scale(0.18 -0.18)">
      <use xlink:href="#DejaVuSans-Bold-50"/>
      <use xlink:href="#DejaVuSans-Bold-72" transform="translate(73.291016 0)"/>
      <use xlink:href="#DejaVuSans-Bold-6f" transform="translate(122.607422 0)"/>
      <use xlink:href="#DejaVuSans-Bold-62" transform="translate(191.308594 0)"/>
      <use xlink:href="#DejaVuSans-Bold-61" transform="translate(262.890625 0)"/>
      <use xlink:href="#DejaVuSans-Bold-62" transform="translate(330.371094 0)"/>
      <use xlink:href="#DejaVuSans-Bold-69" transform="translate(401.953125 0)"/>
      <use xlink:href="#DejaVuSans-Bold-6c" transform="translate(436.230469 0)"/>
      <use xlink:href="#DejaVuSans-Bold-69" transform="translate(470.507812 0)"/>
      <use xlink:href="#DejaVuSans-Bold-74" transform="translate(504.785156 0)"/>
      <use xlink:href="#DejaVuSans-Bold-79" transform="translate(552.587891 0)"/>
      <use xlink:href="#DejaVuSans-Bold-20" transform="translate(617.773438 0)"/>
      <use xlink:href="#DejaVuSans-Bold-44" transform="translate(652.587891 0)"/>
      <use xlink:href="#DejaVuSans-Bold-65" transform="translate(735.595703 0)"/>
      <use xlink:href="#DejaVuSans-Bold-6e" transform="translate(803.417969 0)"/>
      <use xlink:href="#DejaVuSans-Bold-73" transform="translate(874.609375 0)"/>
      <use xlink:href="#DejaVuSans-Bold-69" transform="translate(934.130859 0)"/>
      <use xlink:href="#DejaVuSans-Bold-74" transform="translate(968.408203 0)"/>
      <use xlink:href="#DejaVuSans-Bold-79" transform="translate(1016.210938 0)"/>
     </g>
    </g>
    <g id="text_36">
     <!-- $\times\mathdefault{10^{−3}}\mathdefault{}$ -->
     <g style="fill: #262626" transform="translate(577.366509 53.664) scale(0.165 -0.165)">
      <use xlink:href="#DejaVuSans-Bold-d7" transform="translate(0 0.765625)"/>
      <use xlink:href="#DejaVuSans-Bold-31" transform="translate(83.789062 0.765625)"/>
      <use xlink:href="#DejaVuSans-Bold-30" transform="translate(153.369141 0.765625)"/>
      <use xlink:href="#DejaVuSans-Bold-2212" transform="translate(223.90625 39.046875) scale(0.7)"/>
      <use xlink:href="#DejaVuSans-Bold-33" transform="translate(282.558594 39.046875) scale(0.7)"/>
     </g>
    </g>
   </g>
   <g id="patch_60">
    <path d="M 596.057122 362.22 
L 599.07238 362.22 
L 599.07238 274.918286 
L 596.057122 274.918286 
z
" clip-path="url(#p53adcaf81d)" style="fill: #c0c0c0; opacity: 0.7; stroke: #000000; stroke-width: 1.5; stroke-linejoin: miter"/>
   </g>
   <g id="patch_61">
    <path d="M 599.07238 362.22 
L 602.087637 362.22 
L 602.087637 216.717143 
L 599.07238 216.717143 
z
" clip-path="url(#p53adcaf81d)" style="fill: #c0c0c0; opacity: 0.7; stroke: #000000; stroke-width: 1.5; stroke-linejoin: miter"/>
   </g>
   <g id="patch_62">
    <path d="M 602.087637 362.22 
L 605.102895 362.22 
L 605.102895 333.119429 
L 602.087637 333.119429 
z
" clip-path="url(#p53adcaf81d)" style="fill: #c0c0c0; opacity: 0.7; stroke: #000000; stroke-width: 1.5; stroke-linejoin: miter"/>
   </g>
   <g id="patch_63">
    <path d="M 605.102895 362.22 
L 608.118153 362.22 
L 608.118153 333.119429 
L 605.102895 333.119429 
z
" clip-path="url(#p53adcaf81d)" style="fill: #c0c0c0; opacity: 0.7; stroke: #000000; stroke-width: 1.5; stroke-linejoin: miter"/>
   </g>
   <g id="patch_64">
    <path d="M 608.118153 362.22 
L 611.13341 362.22 
L 611.13341 362.22 
L 608.118153 362.22 
z
" clip-path="url(#p53adcaf81d)" style="fill: #c0c0c0; opacity: 0.7; stroke: #000000; stroke-width: 1.5; stroke-linejoin: miter"/>
   </g>
   <g id="patch_65">
    <path d="M 611.13341 362.22 
L 614.148668 362.22 
L 614.148668 333.119429 
L 611.13341 333.119429 
z
" clip-path="url(#p53adcaf81d)" style="fill: #c0c0c0; opacity: 0.7; stroke: #000000; stroke-width: 1.5; stroke-linejoin: miter"/>
   </g>
   <g id="patch_66">
    <path d="M 614.148668 362.22 
L 617.163926 362.22 
L 617.163926 333.119429 
L 614.148668 333.119429 
z
" clip-path="url(#p53adcaf81d)" style="fill: #c0c0c0; opacity: 0.7; stroke: #000000; stroke-width: 1.5; stroke-linejoin: miter"/>
   </g>
   <g id="patch_67">
    <path d="M 617.163926 362.22 
L 620.179183 362.22 
L 620.179183 274.918286 
L 617.163926 274.918286 
z
" clip-path="url(#p53adcaf81d)" style="fill: #c0c0c0; opacity: 0.7; stroke: #000000; stroke-width: 1.5; stroke-linejoin: miter"/>
   </g>
   <g id="patch_68">
    <path d="M 620.179183 362.22 
L 623.194441 362.22 
L 623.194441 274.918286 
L 620.179183 274.918286 
z
" clip-path="url(#p53adcaf81d)" style="fill: #c0c0c0; opacity: 0.7; stroke: #000000; stroke-width: 1.5; stroke-linejoin: miter"/>
   </g>
   <g id="patch_69">
    <path d="M 623.194441 362.22 
L 626.209698 362.22 
L 626.209698 333.119429 
L 623.194441 333.119429 
z
" clip-path="url(#p53adcaf81d)" style="fill: #c0c0c0; opacity: 0.7; stroke: #000000; stroke-width: 1.5; stroke-linejoin: miter"/>
   </g>
   <g id="patch_70">
    <path d="M 626.209698 362.22 
L 629.224956 362.22 
L 629.224956 333.119429 
L 626.209698 333.119429 
z
" clip-path="url(#p53adcaf81d)" style="fill: #c0c0c0; opacity: 0.7; stroke: #000000; stroke-width: 1.5; stroke-linejoin: miter"/>
   </g>
   <g id="patch_71">
    <path d="M 629.224956 362.22 
L 632.240214 362.22 
L 632.240214 304.018857 
L 629.224956 304.018857 
z
" clip-path="url(#p53adcaf81d)" style="fill: #c0c0c0; opacity: 0.7; stroke: #000000; stroke-width: 1.5; stroke-linejoin: miter"/>
   </g>
   <g id="patch_72">
    <path d="M 632.240214 362.22 
L 635.255471 362.22 
L 635.255471 274.918286 
L 632.240214 274.918286 
z
" clip-path="url(#p53adcaf81d)" style="fill: #c0c0c0; opacity: 0.7; stroke: #000000; stroke-width: 1.5; stroke-linejoin: miter"/>
   </g>
   <g id="patch_73">
    <path d="M 635.255471 362.22 
L 638.270729 362.22 
L 638.270729 245.817714 
L 635.255471 245.817714 
z
" clip-path="url(#p53adcaf81d)" style="fill: #c0c0c0; opacity: 0.7; stroke: #000000; stroke-width: 1.5; stroke-linejoin: miter"/>
   </g>
   <g id="patch_74">
    <path d="M 638.270729 362.22 
L 641.285987 362.22 
L 641.285987 304.018857 
L 638.270729 304.018857 
z
" clip-path="url(#p53adcaf81d)" style="fill: #c0c0c0; opacity: 0.7; stroke: #000000; stroke-width: 1.5; stroke-linejoin: miter"/>
   </g>
   <g id="patch_75">
    <path d="M 641.285987 362.22 
L 644.301244 362.22 
L 644.301244 245.817714 
L 641.285987 245.817714 
z
" clip-path="url(#p53adcaf81d)" style="fill: #c0c0c0; opacity: 0.7; stroke: #000000; stroke-width: 1.5; stroke-linejoin: miter"/>
   </g>
   <g id="patch_76">
    <path d="M 644.301244 362.22 
L 647.316502 362.22 
L 647.316502 333.119429 
L 644.301244 333.119429 
z
" clip-path="url(#p53adcaf81d)" style="fill: #c0c0c0; opacity: 0.7; stroke: #000000; stroke-width: 1.5; stroke-linejoin: miter"/>
   </g>
   <g id="patch_77">
    <path d="M 647.316502 362.22 
L 650.33176 362.22 
L 650.33176 304.018857 
L 647.316502 304.018857 
z
" clip-path="url(#p53adcaf81d)" style="fill: #c0c0c0; opacity: 0.7; stroke: #000000; stroke-width: 1.5; stroke-linejoin: miter"/>
   </g>
   <g id="patch_78">
    <path d="M 650.33176 362.22 
L 653.347017 362.22 
L 653.347017 216.717143 
L 650.33176 216.717143 
z
" clip-path="url(#p53adcaf81d)" style="fill: #c0c0c0; opacity: 0.7; stroke: #000000; stroke-width: 1.5; stroke-linejoin: miter"/>
   </g>
   <g id="patch_79">
    <path d="M 653.347017 362.22 
L 656.362275 362.22 
L 656.362275 304.018857 
L 653.347017 304.018857 
z
" clip-path="url(#p53adcaf81d)" style="fill: #c0c0c0; opacity: 0.7; stroke: #000000; stroke-width: 1.5; stroke-linejoin: miter"/>
   </g>
   <g id="patch_80">
    <path d="M 656.362275 362.22 
L 659.377532 362.22 
L 659.377532 245.817714 
L 656.362275 245.817714 
z
" clip-path="url(#p53adcaf81d)" style="fill: #c0c0c0; opacity: 0.7; stroke: #000000; stroke-width: 1.5; stroke-linejoin: miter"/>
   </g>
   <g id="patch_81">
    <path d="M 659.377532 362.22 
L 662.39279 362.22 
L 662.39279 129.415429 
L 659.377532 129.415429 
z
" clip-path="url(#p53adcaf81d)" style="fill: #c0c0c0; opacity: 0.7; stroke: #000000; stroke-width: 1.5; stroke-linejoin: miter"/>
   </g>
   <g id="patch_82">
    <path d="M 662.39279 362.22 
L 665.408048 362.22 
L 665.408048 245.817714 
L 662.39279 245.817714 
z
" clip-path="url(#p53adcaf81d)" style="fill: #c0c0c0; opacity: 0.7; stroke: #000000; stroke-width: 1.5; stroke-linejoin: miter"/>
   </g>
   <g id="patch_83">
    <path d="M 665.408048 362.22 
L 668.423305 362.22 
L 668.423305 304.018857 
L 665.408048 304.018857 
z
" clip-path="url(#p53adcaf81d)" style="fill: #c0c0c0; opacity: 0.7; stroke: #000000; stroke-width: 1.5; stroke-linejoin: miter"/>
   </g>
   <g id="patch_84">
    <path d="M 668.423305 362.22 
L 671.438563 362.22 
L 671.438563 274.918286 
L 668.423305 274.918286 
z
" clip-path="url(#p53adcaf81d)" style="fill: #c0c0c0; opacity: 0.7; stroke: #000000; stroke-width: 1.5; stroke-linejoin: miter"/>
   </g>
   <g id="patch_85">
    <path d="M 671.438563 362.22 
L 674.453821 362.22 
L 674.453821 304.018857 
L 671.438563 304.018857 
z
" clip-path="url(#p53adcaf81d)" style="fill: #c0c0c0; opacity: 0.7; stroke: #000000; stroke-width: 1.5; stroke-linejoin: miter"/>
   </g>
   <g id="patch_86">
    <path d="M 674.453821 362.22 
L 677.469078 362.22 
L 677.469078 304.018857 
L 674.453821 304.018857 
z
" clip-path="url(#p53adcaf81d)" style="fill: #c0c0c0; opacity: 0.7; stroke: #000000; stroke-width: 1.5; stroke-linejoin: miter"/>
   </g>
   <g id="patch_87">
    <path d="M 677.469078 362.22 
L 680.484336 362.22 
L 680.484336 245.817714 
L 677.469078 245.817714 
z
" clip-path="url(#p53adcaf81d)" style="fill: #c0c0c0; opacity: 0.7; stroke: #000000; stroke-width: 1.5; stroke-linejoin: miter"/>
   </g>
   <g id="patch_88">
    <path d="M 680.484336 362.22 
L 683.499594 362.22 
L 683.499594 158.516 
L 680.484336 158.516 
z
" clip-path="url(#p53adcaf81d)" style="fill: #c0c0c0; opacity: 0.7; stroke: #000000; stroke-width: 1.5; stroke-linejoin: miter"/>
   </g>
   <g id="patch_89">
    <path d="M 683.499594 362.22 
L 686.514851 362.22 
L 686.514851 245.817714 
L 683.499594 245.817714 
z
" clip-path="url(#p53adcaf81d)" style="fill: #c0c0c0; opacity: 0.7; stroke: #000000; stroke-width: 1.5; stroke-linejoin: miter"/>
   </g>
   <g id="patch_90">
    <path d="M 686.514851 362.22 
L 689.530109 362.22 
L 689.530109 304.018857 
L 686.514851 304.018857 
z
" clip-path="url(#p53adcaf81d)" style="fill: #c0c0c0; opacity: 0.7; stroke: #000000; stroke-width: 1.5; stroke-linejoin: miter"/>
   </g>
   <g id="patch_91">
    <path d="M 689.530109 362.22 
L 692.545367 362.22 
L 692.545367 333.119429 
L 689.530109 333.119429 
z
" clip-path="url(#p53adcaf81d)" style="fill: #c0c0c0; opacity: 0.7; stroke: #000000; stroke-width: 1.5; stroke-linejoin: miter"/>
   </g>
   <g id="patch_92">
    <path d="M 692.545367 362.22 
L 695.560624 362.22 
L 695.560624 333.119429 
L 692.545367 333.119429 
z
" clip-path="url(#p53adcaf81d)" style="fill: #c0c0c0; opacity: 0.7; stroke: #000000; stroke-width: 1.5; stroke-linejoin: miter"/>
   </g>
   <g id="patch_93">
    <path d="M 695.560624 362.22 
L 698.575882 362.22 
L 698.575882 304.018857 
L 695.560624 304.018857 
z
" clip-path="url(#p53adcaf81d)" style="fill: #c0c0c0; opacity: 0.7; stroke: #000000; stroke-width: 1.5; stroke-linejoin: miter"/>
   </g>
   <g id="patch_94">
    <path d="M 698.575882 362.22 
L 701.591139 362.22 
L 701.591139 304.018857 
L 698.575882 304.018857 
z
" clip-path="url(#p53adcaf81d)" style="fill: #c0c0c0; opacity: 0.7; stroke: #000000; stroke-width: 1.5; stroke-linejoin: miter"/>
   </g>
   <g id="patch_95">
    <path d="M 701.591139 362.22 
L 704.606397 362.22 
L 704.606397 304.018857 
L 701.591139 304.018857 
z
" clip-path="url(#p53adcaf81d)" style="fill: #c0c0c0; opacity: 0.7; stroke: #000000; stroke-width: 1.5; stroke-linejoin: miter"/>
   </g>
   <g id="patch_96">
    <path d="M 704.606397 362.22 
L 707.621655 362.22 
L 707.621655 362.22 
L 704.606397 362.22 
z
" clip-path="url(#p53adcaf81d)" style="fill: #c0c0c0; opacity: 0.7; stroke: #000000; stroke-width: 1.5; stroke-linejoin: miter"/>
   </g>
   <g id="patch_97">
    <path d="M 707.621655 362.22 
L 710.636912 362.22 
L 710.636912 362.22 
L 707.621655 362.22 
z
" clip-path="url(#p53adcaf81d)" style="fill: #c0c0c0; opacity: 0.7; stroke: #000000; stroke-width: 1.5; stroke-linejoin: miter"/>
   </g>
   <g id="patch_98">
    <path d="M 710.636912 362.22 
L 713.65217 362.22 
L 713.65217 333.119429 
L 710.636912 333.119429 
z
" clip-path="url(#p53adcaf81d)" style="fill: #c0c0c0; opacity: 0.7; stroke: #000000; stroke-width: 1.5; stroke-linejoin: miter"/>
   </g>
   <g id="patch_99">
    <path d="M 713.65217 362.22 
L 716.667428 362.22 
L 716.667428 362.22 
L 713.65217 362.22 
z
" clip-path="url(#p53adcaf81d)" style="fill: #c0c0c0; opacity: 0.7; stroke: #000000; stroke-width: 1.5; stroke-linejoin: miter"/>
   </g>
   <g id="patch_100">
    <path d="M 716.667428 362.22 
L 719.682685 362.22 
L 719.682685 362.22 
L 716.667428 362.22 
z
" clip-path="url(#p53adcaf81d)" style="fill: #c0c0c0; opacity: 0.7; stroke: #000000; stroke-width: 1.5; stroke-linejoin: miter"/>
   </g>
   <g id="patch_101">
    <path d="M 719.682685 362.22 
L 722.697943 362.22 
L 722.697943 362.22 
L 719.682685 362.22 
z
" clip-path="url(#p53adcaf81d)" style="fill: #c0c0c0; opacity: 0.7; stroke: #000000; stroke-width: 1.5; stroke-linejoin: miter"/>
   </g>
   <g id="patch_102">
    <path d="M 722.697943 362.22 
L 725.713201 362.22 
L 725.713201 362.22 
L 722.697943 362.22 
z
" clip-path="url(#p53adcaf81d)" style="fill: #c0c0c0; opacity: 0.7; stroke: #000000; stroke-width: 1.5; stroke-linejoin: miter"/>
   </g>
   <g id="patch_103">
    <path d="M 725.713201 362.22 
L 728.728458 362.22 
L 728.728458 362.22 
L 725.713201 362.22 
z
" clip-path="url(#p53adcaf81d)" style="fill: #c0c0c0; opacity: 0.7; stroke: #000000; stroke-width: 1.5; stroke-linejoin: miter"/>
   </g>
   <g id="patch_104">
    <path d="M 728.728458 362.22 
L 731.743716 362.22 
L 731.743716 333.119429 
L 728.728458 333.119429 
z
" clip-path="url(#p53adcaf81d)" style="fill: #c0c0c0; opacity: 0.7; stroke: #000000; stroke-width: 1.5; stroke-linejoin: miter"/>
   </g>
   <g id="patch_105">
    <path d="M 731.743716 362.22 
L 734.758973 362.22 
L 734.758973 362.22 
L 731.743716 362.22 
z
" clip-path="url(#p53adcaf81d)" style="fill: #c0c0c0; opacity: 0.7; stroke: #000000; stroke-width: 1.5; stroke-linejoin: miter"/>
   </g>
   <g id="patch_106">
    <path d="M 734.758973 362.22 
L 737.774231 362.22 
L 737.774231 333.119429 
L 734.758973 333.119429 
z
" clip-path="url(#p53adcaf81d)" style="fill: #c0c0c0; opacity: 0.7; stroke: #000000; stroke-width: 1.5; stroke-linejoin: miter"/>
   </g>
   <g id="patch_107">
    <path d="M 737.774231 362.22 
L 740.789489 362.22 
L 740.789489 362.22 
L 737.774231 362.22 
z
" clip-path="url(#p53adcaf81d)" style="fill: #c0c0c0; opacity: 0.7; stroke: #000000; stroke-width: 1.5; stroke-linejoin: miter"/>
   </g>
   <g id="patch_108">
    <path d="M 740.789489 362.22 
L 743.804746 362.22 
L 743.804746 333.119429 
L 740.789489 333.119429 
z
" clip-path="url(#p53adcaf81d)" style="fill: #c0c0c0; opacity: 0.7; stroke: #000000; stroke-width: 1.5; stroke-linejoin: miter"/>
   </g>
   <g id="patch_109">
    <path d="M 743.804746 362.22 
L 746.820004 362.22 
L 746.820004 333.119429 
L 743.804746 333.119429 
z
" clip-path="url(#p53adcaf81d)" style="fill: #c0c0c0; opacity: 0.7; stroke: #000000; stroke-width: 1.5; stroke-linejoin: miter"/>
   </g>
   <g id="line2d_29">
    <path d="M 969.869387 362.22 
L 969.869387 56.664 
" clip-path="url(#p53adcaf81d)" style="fill: none; stroke: #0000ff; stroke-width: 2.5; stroke-linecap: round"/>
   </g>
   <g id="line2d_30">
    <path d="M 616.078626 362.22 
L 616.078626 56.664 
" clip-path="url(#p53adcaf81d)" style="fill: none; stroke-dasharray: 9.25,4; stroke-dashoffset: 0; stroke: #ff0000; stroke-width: 2.5"/>
   </g>
   <g id="patch_110">
    <path d="M 577.366509 362.22 
L 577.366509 56.664 
" style="fill: none; stroke: #cccccc; stroke-width: 1.875; stroke-linejoin: miter; stroke-linecap: square"/>
   </g>
   <g id="patch_111">
    <path d="M 988.56 362.22 
L 988.56 56.664 
" style="fill: none; stroke: #cccccc; stroke-width: 1.875; stroke-linejoin: miter; stroke-linecap: square"/>
   </g>
   <g id="patch_112">
    <path d="M 577.366509 362.22 
L 988.56 362.22 
" style="fill: none; stroke: #cccccc; stroke-width: 1.875; stroke-linejoin: miter; stroke-linecap: square"/>
   </g>
   <g id="patch_113">
    <path d="M 577.366509 56.664 
L 988.56 56.664 
" style="fill: none; stroke: #cccccc; stroke-width: 1.875; stroke-linejoin: miter; stroke-linecap: square"/>
   </g>
   <g id="text_37">
    <!-- Goal-Oriented Objective -->
    <g style="fill: #262626" transform="translate(660.854348 50.664) scale(0.18 -0.18)">
     <use xlink:href="#DejaVuSans-Bold-47"/>
     <use xlink:href="#DejaVuSans-Bold-6f" transform="translate(82.080078 0)"/>
     <use xlink:href="#DejaVuSans-Bold-61" transform="translate(150.78125 0)"/>
     <use xlink:href="#DejaVuSans-Bold-6c" transform="translate(218.261719 0)"/>
     <use xlink:href="#DejaVuSans-Bold-2d" transform="translate(252.539062 0)"/>
     <use xlink:href="#DejaVuSans-Bold-4f" transform="translate(294.042969 0)"/>
     <use xlink:href="#DejaVuSans-Bold-72" transform="translate(379.052734 0)"/>
     <use xlink:href="#DejaVuSans-Bold-69" transform="translate(428.369141 0)"/>
     <use xlink:href="#DejaVuSans-Bold-65" transform="translate(462.646484 0)"/>
     <use xlink:href="#DejaVuSans-Bold-6e" transform="translate(530.46875 0)"/>
     <use xlink:href="#DejaVuSans-Bold-74" transform="translate(601.660156 0)"/>
     <use xlink:href="#DejaVuSans-Bold-65" transform="translate(649.462891 0)"/>
     <use xlink:href="#DejaVuSans-Bold-64" transform="translate(717.285156 0)"/>
     <use xlink:href="#DejaVuSans-Bold-20" transform="translate(788.867188 0)"/>
     <use xlink:href="#DejaVuSans-Bold-4f" transform="translate(823.681641 0)"/>
     <use xlink:href="#DejaVuSans-Bold-62" transform="translate(908.691406 0)"/>
     <use xlink:href="#DejaVuSans-Bold-6a" transform="translate(980.273438 0)"/>
     <use xlink:href="#DejaVuSans-Bold-65" transform="translate(1014.550781 0)"/>
     <use xlink:href="#DejaVuSans-Bold-63" transform="translate(1082.373047 0)"/>
     <use xlink:href="#DejaVuSans-Bold-74" transform="translate(1141.650391 0)"/>
     <use xlink:href="#DejaVuSans-Bold-69" transform="translate(1189.453125 0)"/>
     <use xlink:href="#DejaVuSans-Bold-76" transform="translate(1223.730469 0)"/>
     <use xlink:href="#DejaVuSans-Bold-65" transform="translate(1288.916016 0)"/>
    </g>
   </g>
   <g id="legend_2">
    <g id="patch_114">
     <path d="M 727.352109 248.438719 
L 977.01 248.438719 
Q 980.31 248.438719 980.31 245.138719 
L 980.31 173.745281 
Q 980.31 170.445281 977.01 170.445281 
L 727.352109 170.445281 
Q 724.052109 170.445281 724.052109 173.745281 
L 724.052109 245.138719 
Q 724.052109 248.438719 727.352109 248.438719 
z
" style="fill: #ffffff; opacity: 0.8; stroke: #cccccc; stroke-width: 1.5; stroke-linejoin: miter"/>
    </g>
    <g id="patch_115">
     <path d="M 730.652109 189.582703 
L 763.652109 189.582703 
L 763.652109 178.032703 
L 730.652109 178.032703 
z
" style="fill: #c0c0c0; opacity: 0.7; stroke: #000000; stroke-width: 1.5; stroke-linejoin: miter"/>
    </g>
    <g id="text_38">
     <!-- Random Configs -->
     <g style="fill: #262626" transform="translate(776.852109 189.582703) scale(0.165 -0.165)">
      <use xlink:href="#DejaVuSans-Bold-52"/>
      <use xlink:href="#DejaVuSans-Bold-61" transform="translate(77.001953 0)"/>
      <use xlink:href="#DejaVuSans-Bold-6e" transform="translate(144.482422 0)"/>
      <use xlink:href="#DejaVuSans-Bold-64" transform="translate(215.673828 0)"/>
      <use xlink:href="#DejaVuSans-Bold-6f" transform="translate(287.255859 0)"/>
      <use xlink:href="#DejaVuSans-Bold-6d" transform="translate(355.957031 0)"/>
      <use xlink:href="#DejaVuSans-Bold-20" transform="translate(460.15625 0)"/>
      <use xlink:href="#DejaVuSans-Bold-43" transform="translate(494.970703 0)"/>
      <use xlink:href="#DejaVuSans-Bold-6f" transform="translate(568.359375 0)"/>
      <use xlink:href="#DejaVuSans-Bold-6e" transform="translate(637.060547 0)"/>
      <use xlink:href="#DejaVuSans-Bold-66" transform="translate(708.251953 0)"/>
      <use xlink:href="#DejaVuSans-Bold-69" transform="translate(751.757812 0)"/>
      <use xlink:href="#DejaVuSans-Bold-67" transform="translate(786.035156 0)"/>
      <use xlink:href="#DejaVuSans-Bold-73" transform="translate(857.617188 0)"/>
     </g>
    </g>
    <g id="line2d_31">
     <path d="M 730.652109 208.155516 
L 747.152109 208.155516 
L 763.652109 208.155516 
" style="fill: none; stroke: #0000ff; stroke-width: 2.5; stroke-linecap: round"/>
    </g>
    <g id="text_39">
     <!-- Goal Opt. Config -->
     <g style="fill: #262626" transform="translate(776.852109 213.930516) scale(0.165 -0.165)">
      <use xlink:href="#DejaVuSans-Bold-47"/>
      <use xlink:href="#DejaVuSans-Bold-6f" transform="translate(82.080078 0)"/>
      <use xlink:href="#DejaVuSans-Bold-61" transform="translate(150.78125 0)"/>
      <use xlink:href="#DejaVuSans-Bold-6c" transform="translate(218.261719 0)"/>
      <use xlink:href="#DejaVuSans-Bold-20" transform="translate(252.539062 0)"/>
      <use xlink:href="#DejaVuSans-Bold-4f" transform="translate(287.353516 0)"/>
      <use xlink:href="#DejaVuSans-Bold-70" transform="translate(372.363281 0)"/>
      <use xlink:href="#DejaVuSans-Bold-74" transform="translate(443.945312 0)"/>
      <use xlink:href="#DejaVuSans-Bold-2e" transform="translate(491.748047 0)"/>
      <use xlink:href="#DejaVuSans-Bold-20" transform="translate(529.736328 0)"/>
      <use xlink:href="#DejaVuSans-Bold-43" transform="translate(564.550781 0)"/>
      <use xlink:href="#DejaVuSans-Bold-6f" transform="translate(637.939453 0)"/>
      <use xlink:href="#DejaVuSans-Bold-6e" transform="translate(706.640625 0)"/>
      <use xlink:href="#DejaVuSans-Bold-66" transform="translate(777.832031 0)"/>
      <use xlink:href="#DejaVuSans-Bold-69" transform="translate(821.337891 0)"/>
      <use xlink:href="#DejaVuSans-Bold-67" transform="translate(855.615234 0)"/>
     </g>
    </g>
    <g id="line2d_32">
     <path d="M 730.652109 232.503328 
L 747.152109 232.503328 
L 763.652109 232.503328 
" style="fill: none; stroke-dasharray: 9.25,4; stroke-dashoffset: 0; stroke: #ff0000; stroke-width: 2.5"/>
    </g>
    <g id="text_40">
     <!-- Standard Opt. Config -->
     <g style="fill: #262626" transform="translate(776.852109 238.278328) scale(0.165 -0.165)">
      <use xlink:href="#DejaVuSans-Bold-53"/>
      <use xlink:href="#DejaVuSans-Bold-74" transform="translate(72.021484 0)"/>
      <use xlink:href="#DejaVuSans-Bold-61" transform="translate(119.824219 0)"/>
      <use xlink:href="#DejaVuSans-Bold-6e" transform="translate(187.304688 0)"/>
      <use xlink:href="#DejaVuSans-Bold-64" transform="translate(258.496094 0)"/>
      <use xlink:href="#DejaVuSans-Bold-61" transform="translate(330.078125 0)"/>
      <use xlink:href="#DejaVuSans-Bold-72" transform="translate(397.558594 0)"/>
      <use xlink:href="#DejaVuSans-Bold-64" transform="translate(446.875 0)"/>
      <use xlink:href="#DejaVuSans-Bold-20" transform="translate(518.457031 0)"/>
      <use xlink:href="#DejaVuSans-Bold-4f" transform="translate(553.271484 0)"/>
      <use xlink:href="#DejaVuSans-Bold-70" transform="translate(638.28125 0)"/>
      <use xlink:href="#DejaVuSans-Bold-74" transform="translate(709.863281 0)"/>
      <use xlink:href="#DejaVuSans-Bold-2e" transform="translate(757.666016 0)"/>
      <use xlink:href="#DejaVuSans-Bold-20" transform="translate(795.654297 0)"/>
      <use xlink:href="#DejaVuSans-Bold-43" transform="translate(830.46875 0)"/>
      <use xlink:href="#DejaVuSans-Bold-6f" transform="translate(903.857422 0)"/>
      <use xlink:href="#DejaVuSans-Bold-6e" transform="translate(972.558594 0)"/>
      <use xlink:href="#DejaVuSans-Bold-66" transform="translate(1043.75 0)"/>
      <use xlink:href="#DejaVuSans-Bold-69" transform="translate(1087.255859 0)"/>
      <use xlink:href="#DejaVuSans-Bold-67" transform="translate(1121.533203 0)"/>
     </g>
    </g>
   </g>
  </g>
 </g>
 <defs>
  <clipPath id="p995ae43a07">
   <rect x="83.086509" y="56.664" width="411.193491" height="305.556"/>
  </clipPath>
  <clipPath id="p53adcaf81d">
   <rect x="577.366509" y="56.664" width="411.193491" height="305.556"/>
  </clipPath>
 </defs>
</svg>
