<?xml version="1.0" encoding="utf-8" standalone="no"?>
<!DOCTYPE svg PUBLIC "-//W3C//DTD SVG 1.1//EN"
  "http://www.w3.org/Graphics/SVG/1.1/DTD/svg11.dtd">
<svg xmlns:xlink="http://www.w3.org/1999/xlink" width="1008pt" height="432pt" viewBox="0 0 1008 432" xmlns="http://www.w3.org/2000/svg" version="1.1">
 <metadata>
  <rdf:RDF xmlns:dc="http://purl.org/dc/elements/1.1/" xmlns:cc="http://creativecommons.org/ns#" xmlns:rdf="http://www.w3.org/1999/02/22-rdf-syntax-ns#">
   <cc:Work>
    <dc:type rdf:resource="http://purl.org/dc/dcmitype/StillImage"/>
    <dc:date>2026-03-04T06:13:30.156310</dc:date>
    <dc:format>image/svg+xml</dc:format>
    <dc:creator>
     <cc:Agent>
      <dc:title>Matplotlib v3.10.8, https://matplotlib.org/</dc:title>
     </cc:Agent>
    </dc:creator>
   </cc:Work>
  </rdf:RDF>
 </metadata>
 <defs>
  <style type="text/css">*{stroke-linejoin: round; stroke-linecap: butt}</style>
 </defs>
 <g id="figure_1">
  <g id="patch_1">
   <path d="M 0 432 
L 1008 432 
L 1008 0 
L 0 0 
z
" style="fill: #ffffff"/>
  </g>
  <g id="axes_1">
   <g id="patch_2">
    <path d="M 65.37 362.22 
L 485.421746 362.22 
L 485.421746 56.664 
L 65.37 56.664 
z
" style="fill: #ffffff"/>
   </g>
   <g id="matplotlib.axis_1">
    <g id="xtick_1">
     <g id="line2d_1">
      <path d="M 82.268633 362.22 
L 82.268633 56.664 
" clip-path="url(#p5d1bef25ec)" style="fill: none; stroke: #cccccc; stroke-opacity: 0.3; stroke-width: 1.5; stroke-linecap: round"/>
     </g>
     <g id="text_1">
      <!-- 0 -->
      <g style="fill: #262626" transform="translate(76.528438 387.257422) scale(0.165 -0.165)">
       <defs>
        <path id="DejaVuSans-Bold-30" d="M 2944 2338 
Q 2944 3213 2780 3570 
Q 2616 3928 2228 3928 
Q 1841 3928 1675 3570 
Q 1509 3213 1509 2338 
Q 1509 1453 1675 1090 
Q 1841 728 2228 728 
Q 2613 728 2778 1090 
Q 2944 1453 2944 2338 
z
M 4147 2328 
Q 4147 1169 3647 539 
Q 3147 -91 2228 -91 
Q 1306 -91 806 539 
Q 306 1169 306 2328 
Q 306 3491 806 4120 
Q 1306 4750 2228 4750 
Q 3147 4750 3647 4120 
Q 4147 3491 4147 2328 
z
" transform="scale(0.015625)"/>
       </defs>
       <use xlink:href="#DejaVuSans-Bold-30"/>
      </g>
     </g>
    </g>
    <g id="xtick_2">
     <g id="line2d_2">
      <path d="M 137.134326 362.22 
L 137.134326 56.664 
" clip-path="url(#p5d1bef25ec)" style="fill: none; stroke: #cccccc; stroke-opacity: 0.3; stroke-width: 1.5; stroke-linecap: round"/>
     </g>
     <g id="text_2">
      <!-- 25 -->
      <g style="fill: #262626" transform="translate(125.653936 387.257422) scale(0.165 -0.165)">
       <defs>
        <path id="DejaVuSans-Bold-32" d="M 1844 884 
L 3897 884 
L 3897 0 
L 506 0 
L 506 884 
L 2209 2388 
Q 2438 2594 2547 2791 
Q 2656 2988 2656 3200 
Q 2656 3528 2436 3728 
Q 2216 3928 1850 3928 
Q 1569 3928 1234 3808 
Q 900 3688 519 3450 
L 519 4475 
Q 925 4609 1322 4679 
Q 1719 4750 2100 4750 
Q 2938 4750 3402 4381 
Q 3866 4013 3866 3353 
Q 3866 2972 3669 2642 
Q 3472 2313 2841 1759 
L 1844 884 
z
" transform="scale(0.015625)"/>
        <path id="DejaVuSans-Bold-35" d="M 678 4666 
L 3669 4666 
L 3669 3781 
L 1638 3781 
L 1638 3059 
Q 1775 3097 1914 3117 
Q 2053 3138 2203 3138 
Q 3056 3138 3531 2711 
Q 4006 2284 4006 1522 
Q 4006 766 3489 337 
Q 2972 -91 2053 -91 
Q 1656 -91 1267 -14 
Q 878 63 494 219 
L 494 1166 
Q 875 947 1217 837 
Q 1559 728 1863 728 
Q 2300 728 2551 942 
Q 2803 1156 2803 1522 
Q 2803 1891 2551 2103 
Q 2300 2316 1863 2316 
Q 1603 2316 1309 2248 
Q 1016 2181 678 2041 
L 678 4666 
z
" transform="scale(0.015625)"/>
       </defs>
       <use xlink:href="#DejaVuSans-Bold-32"/>
       <use xlink:href="#DejaVuSans-Bold-35" transform="translate(69.580078 0)"/>
      </g>
     </g>
    </g>
    <g id="xtick_3">
     <g id="line2d_3">
      <path d="M 192.000019 362.22 
L 192.000019 56.664 
" clip-path="url(#p5d1bef25ec)" style="fill: none; stroke: #cccccc; stroke-opacity: 0.3; stroke-width: 1.5; stroke-linecap: round"/>
     </g>
     <g id="text_3">
      <!-- 50 -->
      <g style="fill: #262626" transform="translate(180.519629 387.257422) scale(0.165 -0.165)">
       <use xlink:href="#DejaVuSans-Bold-35"/>
       <use xlink:href="#DejaVuSans-Bold-30" transform="translate(69.580078 0)"/>
      </g>
     </g>
    </g>
    <g id="xtick_4">
     <g id="line2d_4">
      <path d="M 246.865712 362.22 
L 246.865712 56.664 
" clip-path="url(#p5d1bef25ec)" style="fill: none; stroke: #cccccc; stroke-opacity: 0.3; stroke-width: 1.5; stroke-linecap: round"/>
     </g>
     <g id="text_4">
      <!-- 75 -->
      <g style="fill: #262626" transform="translate(235.385322 387.257422) scale(0.165 -0.165)">
       <defs>
        <path id="DejaVuSans-Bold-37" d="M 428 4666 
L 3944 4666 
L 3944 3988 
L 2125 0 
L 953 0 
L 2675 3781 
L 428 3781 
L 428 4666 
z
" transform="scale(0.015625)"/>
       </defs>
       <use xlink:href="#DejaVuSans-Bold-37"/>
       <use xlink:href="#DejaVuSans-Bold-35" transform="translate(69.580078 0)"/>
      </g>
     </g>
    </g>
    <g id="xtick_5">
     <g id="line2d_5">
      <path d="M 301.731405 362.22 
L 301.731405 56.664 
" clip-path="url(#p5d1bef25ec)" style="fill: none; stroke: #cccccc; stroke-opacity: 0.3; stroke-width: 1.5; stroke-linecap: round"/>
     </g>
     <g id="text_5">
      <!-- 100 -->
      <g style="fill: #262626" transform="translate(284.51082 387.257422) scale(0.165 -0.165)">
       <defs>
        <path id="DejaVuSans-Bold-31" d="M 750 831 
L 1813 831 
L 1813 3847 
L 722 3622 
L 722 4441 
L 1806 4666 
L 2950 4666 
L 2950 831 
L 4013 831 
L 4013 0 
L 750 0 
L 750 831 
z
" transform="scale(0.015625)"/>
       </defs>
       <use xlink:href="#DejaVuSans-Bold-31"/>
       <use xlink:href="#DejaVuSans-Bold-30" transform="translate(69.580078 0)"/>
       <use xlink:href="#DejaVuSans-Bold-30" transform="translate(139.160156 0)"/>
      </g>
     </g>
    </g>
    <g id="xtick_6">
     <g id="line2d_6">
      <path d="M 356.597098 362.22 
L 356.597098 56.664 
" clip-path="url(#p5d1bef25ec)" style="fill: none; stroke: #cccccc; stroke-opacity: 0.3; stroke-width: 1.5; stroke-linecap: round"/>
     </g>
     <g id="text_6">
      <!-- 125 -->
      <g style="fill: #262626" transform="translate(339.376513 387.257422) scale(0.165 -0.165)">
       <use xlink:href="#DejaVuSans-Bold-31"/>
       <use xlink:href="#DejaVuSans-Bold-32" transform="translate(69.580078 0)"/>
       <use xlink:href="#DejaVuSans-Bold-35" transform="translate(139.160156 0)"/>
      </g>
     </g>
    </g>
    <g id="xtick_7">
     <g id="line2d_7">
      <path d="M 411.462791 362.22 
L 411.462791 56.664 
" clip-path="url(#p5d1bef25ec)" style="fill: none; stroke: #cccccc; stroke-opacity: 0.3; stroke-width: 1.5; stroke-linecap: round"/>
     </g>
     <g id="text_7">
      <!-- 150 -->
      <g style="fill: #262626" transform="translate(394.242206 387.257422) scale(0.165 -0.165)">
       <use xlink:href="#DejaVuSans-Bold-31"/>
       <use xlink:href="#DejaVuSans-Bold-35" transform="translate(69.580078 0)"/>
       <use xlink:href="#DejaVuSans-Bold-30" transform="translate(139.160156 0)"/>
      </g>
     </g>
    </g>
    <g id="xtick_8">
     <g id="line2d_8">
      <path d="M 466.328484 362.22 
L 466.328484 56.664 
" clip-path="url(#p5d1bef25ec)" style="fill: none; stroke: #cccccc; stroke-opacity: 0.3; stroke-width: 1.5; stroke-linecap: round"/>
     </g>
     <g id="text_8">
      <!-- 175 -->
      <g style="fill: #262626" transform="translate(449.107899 387.257422) scale(0.165 -0.165)">
       <use xlink:href="#DejaVuSans-Bold-31"/>
       <use xlink:href="#DejaVuSans-Bold-37" transform="translate(69.580078 0)"/>
       <use xlink:href="#DejaVuSans-Bold-35" transform="translate(139.160156 0)"/>
      </g>
     </g>
    </g>
    <g id="text_9">
     <!-- Number of Sensors -->
     <g style="fill: #262626" transform="translate(178.402592 408.366094) scale(0.18 -0.18)">
      <defs>
       <path id="DejaVuSans-Bold-4e" d="M 588 4666 
L 1931 4666 
L 3628 1466 
L 3628 4666 
L 4769 4666 
L 4769 0 
L 3425 0 
L 1728 3200 
L 1728 0 
L 588 0 
L 588 4666 
z
" transform="scale(0.015625)"/>
       <path id="DejaVuSans-Bold-75" d="M 500 1363 
L 500 3500 
L 1625 3500 
L 1625 3150 
Q 1625 2866 1622 2436 
Q 1619 2006 1619 1863 
Q 1619 1441 1641 1255 
Q 1663 1069 1716 984 
Q 1784 875 1895 815 
Q 2006 756 2150 756 
Q 2500 756 2700 1025 
Q 2900 1294 2900 1772 
L 2900 3500 
L 4019 3500 
L 4019 0 
L 2900 0 
L 2900 506 
Q 2647 200 2364 54 
Q 2081 -91 1741 -91 
Q 1134 -91 817 281 
Q 500 653 500 1363 
z
" transform="scale(0.015625)"/>
       <path id="DejaVuSans-Bold-6d" d="M 3781 2919 
Q 3994 3244 4286 3414 
Q 4578 3584 4928 3584 
Q 5531 3584 5847 3212 
Q 6163 2841 6163 2131 
L 6163 0 
L 5038 0 
L 5038 1825 
Q 5041 1866 5042 1909 
Q 5044 1953 5044 2034 
Q 5044 2406 4934 2573 
Q 4825 2741 4581 2741 
Q 4263 2741 4089 2478 
Q 3916 2216 3909 1719 
L 3909 0 
L 2784 0 
L 2784 1825 
Q 2784 2406 2684 2573 
Q 2584 2741 2328 2741 
Q 2006 2741 1831 2477 
Q 1656 2213 1656 1722 
L 1656 0 
L 531 0 
L 531 3500 
L 1656 3500 
L 1656 2988 
Q 1863 3284 2130 3434 
Q 2397 3584 2719 3584 
Q 3081 3584 3359 3409 
Q 3638 3234 3781 2919 
z
" transform="scale(0.015625)"/>
       <path id="DejaVuSans-Bold-62" d="M 2400 722 
Q 2759 722 2948 984 
Q 3138 1247 3138 1747 
Q 3138 2247 2948 2509 
Q 2759 2772 2400 2772 
Q 2041 2772 1848 2508 
Q 1656 2244 1656 1747 
Q 1656 1250 1848 986 
Q 2041 722 2400 722 
z
M 1656 2988 
Q 1888 3294 2169 3439 
Q 2450 3584 2816 3584 
Q 3463 3584 3878 3070 
Q 4294 2556 4294 1747 
Q 4294 938 3878 423 
Q 3463 -91 2816 -91 
Q 2450 -91 2169 54 
Q 1888 200 1656 506 
L 1656 0 
L 538 0 
L 538 4863 
L 1656 4863 
L 1656 2988 
z
" transform="scale(0.015625)"/>
       <path id="DejaVuSans-Bold-65" d="M 4031 1759 
L 4031 1441 
L 1416 1441 
Q 1456 1047 1700 850 
Q 1944 653 2381 653 
Q 2734 653 3104 758 
Q 3475 863 3866 1075 
L 3866 213 
Q 3469 63 3072 -14 
Q 2675 -91 2278 -91 
Q 1328 -91 801 392 
Q 275 875 275 1747 
Q 275 2603 792 3093 
Q 1309 3584 2216 3584 
Q 3041 3584 3536 3087 
Q 4031 2591 4031 1759 
z
M 2881 2131 
Q 2881 2450 2695 2645 
Q 2509 2841 2209 2841 
Q 1884 2841 1681 2658 
Q 1478 2475 1428 2131 
L 2881 2131 
z
" transform="scale(0.015625)"/>
       <path id="DejaVuSans-Bold-72" d="M 3138 2547 
Q 2991 2616 2845 2648 
Q 2700 2681 2553 2681 
Q 2122 2681 1889 2404 
Q 1656 2128 1656 1613 
L 1656 0 
L 538 0 
L 538 3500 
L 1656 3500 
L 1656 2925 
Q 1872 3269 2151 3426 
Q 2431 3584 2822 3584 
Q 2878 3584 2943 3579 
Q 3009 3575 3134 3559 
L 3138 2547 
z
" transform="scale(0.015625)"/>
       <path id="DejaVuSans-Bold-20" transform="scale(0.015625)"/>
       <path id="DejaVuSans-Bold-6f" d="M 2203 2784 
Q 1831 2784 1636 2517 
Q 1441 2250 1441 1747 
Q 1441 1244 1636 976 
Q 1831 709 2203 709 
Q 2569 709 2762 976 
Q 2956 1244 2956 1747 
Q 2956 2250 2762 2517 
Q 2569 2784 2203 2784 
z
M 2203 3584 
Q 3106 3584 3614 3096 
Q 4122 2609 4122 1747 
Q 4122 884 3614 396 
Q 3106 -91 2203 -91 
Q 1297 -91 786 396 
Q 275 884 275 1747 
Q 275 2609 786 3096 
Q 1297 3584 2203 3584 
z
" transform="scale(0.015625)"/>
       <path id="DejaVuSans-Bold-66" d="M 2841 4863 
L 2841 4128 
L 2222 4128 
Q 1984 4128 1890 4042 
Q 1797 3956 1797 3744 
L 1797 3500 
L 2753 3500 
L 2753 2700 
L 1797 2700 
L 1797 0 
L 678 0 
L 678 2700 
L 122 2700 
L 122 3500 
L 678 3500 
L 678 3744 
Q 678 4316 997 4589 
Q 1316 4863 1984 4863 
L 2841 4863 
z
" transform="scale(0.015625)"/>
       <path id="DejaVuSans-Bold-53" d="M 3834 4519 
L 3834 3531 
Q 3450 3703 3084 3790 
Q 2719 3878 2394 3878 
Q 1963 3878 1756 3759 
Q 1550 3641 1550 3391 
Q 1550 3203 1689 3098 
Q 1828 2994 2194 2919 
L 2706 2816 
Q 3484 2659 3812 2340 
Q 4141 2022 4141 1434 
Q 4141 663 3683 286 
Q 3225 -91 2284 -91 
Q 1841 -91 1394 -6 
Q 947 78 500 244 
L 500 1259 
Q 947 1022 1364 901 
Q 1781 781 2169 781 
Q 2563 781 2772 912 
Q 2981 1044 2981 1288 
Q 2981 1506 2839 1625 
Q 2697 1744 2272 1838 
L 1806 1941 
Q 1106 2091 782 2419 
Q 459 2747 459 3303 
Q 459 4000 909 4375 
Q 1359 4750 2203 4750 
Q 2588 4750 2994 4692 
Q 3400 4634 3834 4519 
z
" transform="scale(0.015625)"/>
       <path id="DejaVuSans-Bold-6e" d="M 4056 2131 
L 4056 0 
L 2931 0 
L 2931 347 
L 2931 1631 
Q 2931 2084 2911 2256 
Q 2891 2428 2841 2509 
Q 2775 2619 2662 2680 
Q 2550 2741 2406 2741 
Q 2056 2741 1856 2470 
Q 1656 2200 1656 1722 
L 1656 0 
L 538 0 
L 538 3500 
L 1656 3500 
L 1656 2988 
Q 1909 3294 2193 3439 
Q 2478 3584 2822 3584 
Q 3428 3584 3742 3212 
Q 4056 2841 4056 2131 
z
" transform="scale(0.015625)"/>
       <path id="DejaVuSans-Bold-73" d="M 3272 3391 
L 3272 2541 
Q 2913 2691 2578 2766 
Q 2244 2841 1947 2841 
Q 1628 2841 1473 2761 
Q 1319 2681 1319 2516 
Q 1319 2381 1436 2309 
Q 1553 2238 1856 2203 
L 2053 2175 
Q 2913 2066 3209 1816 
Q 3506 1566 3506 1031 
Q 3506 472 3093 190 
Q 2681 -91 1863 -91 
Q 1516 -91 1145 -36 
Q 775 19 384 128 
L 384 978 
Q 719 816 1070 734 
Q 1422 653 1784 653 
Q 2113 653 2278 743 
Q 2444 834 2444 1013 
Q 2444 1163 2330 1236 
Q 2216 1309 1875 1350 
L 1678 1375 
Q 931 1469 631 1722 
Q 331 1975 331 2491 
Q 331 3047 712 3315 
Q 1094 3584 1881 3584 
Q 2191 3584 2531 3537 
Q 2872 3491 3272 3391 
z
" transform="scale(0.015625)"/>
      </defs>
      <use xlink:href="#DejaVuSans-Bold-4e"/>
      <use xlink:href="#DejaVuSans-Bold-75" transform="translate(83.691406 0)"/>
      <use xlink:href="#DejaVuSans-Bold-6d" transform="translate(154.882812 0)"/>
      <use xlink:href="#DejaVuSans-Bold-62" transform="translate(259.082031 0)"/>
      <use xlink:href="#DejaVuSans-Bold-65" transform="translate(330.664062 0)"/>
      <use xlink:href="#DejaVuSans-Bold-72" transform="translate(398.486328 0)"/>
      <use xlink:href="#DejaVuSans-Bold-20" transform="translate(447.802734 0)"/>
      <use xlink:href="#DejaVuSans-Bold-6f" transform="translate(482.617188 0)"/>
      <use xlink:href="#DejaVuSans-Bold-66" transform="translate(551.318359 0)"/>
      <use xlink:href="#DejaVuSans-Bold-20" transform="translate(594.824219 0)"/>
      <use xlink:href="#DejaVuSans-Bold-53" transform="translate(629.638672 0)"/>
      <use xlink:href="#DejaVuSans-Bold-65" transform="translate(701.660156 0)"/>
      <use xlink:href="#DejaVuSans-Bold-6e" transform="translate(769.482422 0)"/>
      <use xlink:href="#DejaVuSans-Bold-73" transform="translate(840.673828 0)"/>
      <use xlink:href="#DejaVuSans-Bold-6f" transform="translate(900.195312 0)"/>
      <use xlink:href="#DejaVuSans-Bold-72" transform="translate(968.896484 0)"/>
      <use xlink:href="#DejaVuSans-Bold-73" transform="translate(1018.212891 0)"/>
     </g>
    </g>
   </g>
   <g id="matplotlib.axis_2">
    <g id="ytick_1">
     <g id="line2d_9">
      <path d="M 65.37 350.130733 
L 485.421746 350.130733 
" clip-path="url(#p5d1bef25ec)" style="fill: none; stroke: #cccccc; stroke-opacity: 0.3; stroke-width: 1.5; stroke-linecap: round"/>
     </g>
     <g id="text_10">
      <!-- $\mathdefault{0}$ -->
      <g style="fill: #262626" transform="translate(41.32 356.399444) scale(0.165 -0.165)">
       <use xlink:href="#DejaVuSans-Bold-30" transform="translate(0 0.78125)"/>
      </g>
     </g>
    </g>
    <g id="ytick_2">
     <g id="line2d_10">
      <path d="M 65.37 301.366025 
L 485.421746 301.366025 
" clip-path="url(#p5d1bef25ec)" style="fill: none; stroke: #cccccc; stroke-opacity: 0.3; stroke-width: 1.5; stroke-linecap: round"/>
     </g>
     <g id="text_11">
      <!-- $\mathdefault{1}$ -->
      <g style="fill: #262626" transform="translate(41.32 307.634736) scale(0.165 -0.165)">
       <use xlink:href="#DejaVuSans-Bold-31" transform="translate(0 0.09375)"/>
      </g>
     </g>
    </g>
    <g id="ytick_3">
     <g id="line2d_11">
      <path d="M 65.37 252.601317 
L 485.421746 252.601317 
" clip-path="url(#p5d1bef25ec)" style="fill: none; stroke: #cccccc; stroke-opacity: 0.3; stroke-width: 1.5; stroke-linecap: round"/>
     </g>
     <g id="text_12">
      <!-- $\mathdefault{2}$ -->
      <g style="fill: #262626" transform="translate(41.32 258.870028) scale(0.165 -0.165)">
       <use xlink:href="#DejaVuSans-Bold-32" transform="translate(0 0.78125)"/>
      </g>
     </g>
    </g>
    <g id="ytick_4">
     <g id="line2d_12">
      <path d="M 65.37 203.836609 
L 485.421746 203.836609 
" clip-path="url(#p5d1bef25ec)" style="fill: none; stroke: #cccccc; stroke-opacity: 0.3; stroke-width: 1.5; stroke-linecap: round"/>
     </g>
     <g id="text_13">
      <!-- $\mathdefault{3}$ -->
      <g style="fill: #262626" transform="translate(41.32 210.10532) scale(0.165 -0.165)">
       <defs>
        <path id="DejaVuSans-Bold-33" d="M 2981 2516 
Q 3453 2394 3698 2092 
Q 3944 1791 3944 1325 
Q 3944 631 3412 270 
Q 2881 -91 1863 -91 
Q 1503 -91 1142 -33 
Q 781 25 428 141 
L 428 1069 
Q 766 900 1098 814 
Q 1431 728 1753 728 
Q 2231 728 2486 893 
Q 2741 1059 2741 1369 
Q 2741 1688 2480 1852 
Q 2219 2016 1709 2016 
L 1228 2016 
L 1228 2791 
L 1734 2791 
Q 2188 2791 2409 2933 
Q 2631 3075 2631 3366 
Q 2631 3634 2415 3781 
Q 2200 3928 1806 3928 
Q 1516 3928 1219 3862 
Q 922 3797 628 3669 
L 628 4550 
Q 984 4650 1334 4700 
Q 1684 4750 2022 4750 
Q 2931 4750 3382 4451 
Q 3834 4153 3834 3553 
Q 3834 3144 3618 2883 
Q 3403 2622 2981 2516 
z
" transform="scale(0.015625)"/>
       </defs>
       <use xlink:href="#DejaVuSans-Bold-33" transform="translate(0 0.78125)"/>
      </g>
     </g>
    </g>
    <g id="ytick_5">
     <g id="line2d_13">
      <path d="M 65.37 155.071901 
L 485.421746 155.071901 
" clip-path="url(#p5d1bef25ec)" style="fill: none; stroke: #cccccc; stroke-opacity: 0.3; stroke-width: 1.5; stroke-linecap: round"/>
     </g>
     <g id="text_14">
      <!-- $\mathdefault{4}$ -->
      <g style="fill: #262626" transform="translate(41.32 161.340612) scale(0.165 -0.165)">
       <defs>
        <path id="DejaVuSans-Bold-34" d="M 2356 3675 
L 1038 1722 
L 2356 1722 
L 2356 3675 
z
M 2156 4666 
L 3494 4666 
L 3494 1722 
L 4159 1722 
L 4159 850 
L 3494 850 
L 3494 0 
L 2356 0 
L 2356 850 
L 288 850 
L 288 1881 
L 2156 4666 
z
" transform="scale(0.015625)"/>
       </defs>
       <use xlink:href="#DejaVuSans-Bold-34" transform="translate(0 0.09375)"/>
      </g>
     </g>
    </g>
    <g id="ytick_6">
     <g id="line2d_14">
      <path d="M 65.37 106.307193 
L 485.421746 106.307193 
" clip-path="url(#p5d1bef25ec)" style="fill: none; stroke: #cccccc; stroke-opacity: 0.3; stroke-width: 1.5; stroke-linecap: round"/>
     </g>
     <g id="text_15">
      <!-- $\mathdefault{5}$ -->
      <g style="fill: #262626" transform="translate(41.32 112.575904) scale(0.165 -0.165)">
       <use xlink:href="#DejaVuSans-Bold-35" transform="translate(0 0.09375)"/>
      </g>
     </g>
    </g>
    <g id="ytick_7">
     <g id="line2d_15">
      <path d="M 65.37 57.542485 
L 485.421746 57.542485 
" clip-path="url(#p5d1bef25ec)" style="fill: none; stroke: #cccccc; stroke-opacity: 0.3; stroke-width: 1.5; stroke-linecap: round"/>
     </g>
     <g id="text_16">
      <!-- $\mathdefault{6}$ -->
      <g style="fill: #262626" transform="translate(41.32 63.811196) scale(0.165 -0.165)">
       <defs>
        <path id="DejaVuSans-Bold-36" d="M 2316 2303 
Q 2000 2303 1842 2098 
Q 1684 1894 1684 1484 
Q 1684 1075 1842 870 
Q 2000 666 2316 666 
Q 2634 666 2792 870 
Q 2950 1075 2950 1484 
Q 2950 1894 2792 2098 
Q 2634 2303 2316 2303 
z
M 3803 4544 
L 3803 3681 
Q 3506 3822 3243 3889 
Q 2981 3956 2731 3956 
Q 2194 3956 1894 3657 
Q 1594 3359 1544 2772 
Q 1750 2925 1990 3001 
Q 2231 3078 2516 3078 
Q 3231 3078 3670 2659 
Q 4109 2241 4109 1563 
Q 4109 813 3618 361 
Q 3128 -91 2303 -91 
Q 1394 -91 895 523 
Q 397 1138 397 2266 
Q 397 3422 980 4083 
Q 1563 4744 2578 4744 
Q 2900 4744 3203 4694 
Q 3506 4644 3803 4544 
z
" transform="scale(0.015625)"/>
       </defs>
       <use xlink:href="#DejaVuSans-Bold-36" transform="translate(0 0.875)"/>
      </g>
     </g>
    </g>
    <g id="text_17">
     <!-- Objective Function Value -->
     <g style="fill: #262626" transform="translate(33.435938 335.650125) rotate(-90) scale(0.18 -0.18)">
      <defs>
       <path id="DejaVuSans-Bold-4f" d="M 2719 3878 
Q 2169 3878 1866 3472 
Q 1563 3066 1563 2328 
Q 1563 1594 1866 1187 
Q 2169 781 2719 781 
Q 3272 781 3575 1187 
Q 3878 1594 3878 2328 
Q 3878 3066 3575 3472 
Q 3272 3878 2719 3878 
z
M 2719 4750 
Q 3844 4750 4481 4106 
Q 5119 3463 5119 2328 
Q 5119 1197 4481 553 
Q 3844 -91 2719 -91 
Q 1597 -91 958 553 
Q 319 1197 319 2328 
Q 319 3463 958 4106 
Q 1597 4750 2719 4750 
z
" transform="scale(0.015625)"/>
       <path id="DejaVuSans-Bold-6a" d="M 538 3500 
L 1656 3500 
L 1656 63 
Q 1656 -641 1318 -1011 
Q 981 -1381 341 -1381 
L -213 -1381 
L -213 -647 
L -19 -647 
Q 300 -647 419 -503 
Q 538 -359 538 63 
L 538 3500 
z
M 538 4863 
L 1656 4863 
L 1656 3950 
L 538 3950 
L 538 4863 
z
" transform="scale(0.015625)"/>
       <path id="DejaVuSans-Bold-63" d="M 3366 3391 
L 3366 2478 
Q 3138 2634 2908 2709 
Q 2678 2784 2431 2784 
Q 1963 2784 1702 2511 
Q 1441 2238 1441 1747 
Q 1441 1256 1702 982 
Q 1963 709 2431 709 
Q 2694 709 2930 787 
Q 3166 866 3366 1019 
L 3366 103 
Q 3103 6 2833 -42 
Q 2563 -91 2291 -91 
Q 1344 -91 809 395 
Q 275 881 275 1747 
Q 275 2613 809 3098 
Q 1344 3584 2291 3584 
Q 2566 3584 2833 3536 
Q 3100 3488 3366 3391 
z
" transform="scale(0.015625)"/>
       <path id="DejaVuSans-Bold-74" d="M 1759 4494 
L 1759 3500 
L 2913 3500 
L 2913 2700 
L 1759 2700 
L 1759 1216 
Q 1759 972 1856 886 
Q 1953 800 2241 800 
L 2816 800 
L 2816 0 
L 1856 0 
Q 1194 0 917 276 
Q 641 553 641 1216 
L 641 2700 
L 84 2700 
L 84 3500 
L 641 3500 
L 641 4494 
L 1759 4494 
z
" transform="scale(0.015625)"/>
       <path id="DejaVuSans-Bold-69" d="M 538 3500 
L 1656 3500 
L 1656 0 
L 538 0 
L 538 3500 
z
M 538 4863 
L 1656 4863 
L 1656 3950 
L 538 3950 
L 538 4863 
z
" transform="scale(0.015625)"/>
       <path id="DejaVuSans-Bold-76" d="M 97 3500 
L 1216 3500 
L 2088 1081 
L 2956 3500 
L 4078 3500 
L 2700 0 
L 1472 0 
L 97 3500 
z
" transform="scale(0.015625)"/>
       <path id="DejaVuSans-Bold-46" d="M 588 4666 
L 3834 4666 
L 3834 3756 
L 1791 3756 
L 1791 2888 
L 3713 2888 
L 3713 1978 
L 1791 1978 
L 1791 0 
L 588 0 
L 588 4666 
z
" transform="scale(0.015625)"/>
       <path id="DejaVuSans-Bold-56" d="M 31 4666 
L 1241 4666 
L 2478 1222 
L 3713 4666 
L 4922 4666 
L 3194 0 
L 1759 0 
L 31 4666 
z
" transform="scale(0.015625)"/>
       <path id="DejaVuSans-Bold-61" d="M 2106 1575 
Q 1756 1575 1579 1456 
Q 1403 1338 1403 1106 
Q 1403 894 1545 773 
Q 1688 653 1941 653 
Q 2256 653 2472 879 
Q 2688 1106 2688 1447 
L 2688 1575 
L 2106 1575 
z
M 3816 1997 
L 3816 0 
L 2688 0 
L 2688 519 
Q 2463 200 2181 54 
Q 1900 -91 1497 -91 
Q 953 -91 614 226 
Q 275 544 275 1050 
Q 275 1666 698 1953 
Q 1122 2241 2028 2241 
L 2688 2241 
L 2688 2328 
Q 2688 2594 2478 2717 
Q 2269 2841 1825 2841 
Q 1466 2841 1156 2769 
Q 847 2697 581 2553 
L 581 3406 
Q 941 3494 1303 3539 
Q 1666 3584 2028 3584 
Q 2975 3584 3395 3211 
Q 3816 2838 3816 1997 
z
" transform="scale(0.015625)"/>
       <path id="DejaVuSans-Bold-6c" d="M 538 4863 
L 1656 4863 
L 1656 0 
L 538 0 
L 538 4863 
z
" transform="scale(0.015625)"/>
      </defs>
      <use xlink:href="#DejaVuSans-Bold-4f"/>
      <use xlink:href="#DejaVuSans-Bold-62" transform="translate(85.009766 0)"/>
      <use xlink:href="#DejaVuSans-Bold-6a" transform="translate(156.591797 0)"/>
      <use xlink:href="#DejaVuSans-Bold-65" transform="translate(190.869141 0)"/>
      <use xlink:href="#DejaVuSans-Bold-63" transform="translate(258.691406 0)"/>
      <use xlink:href="#DejaVuSans-Bold-74" transform="translate(317.96875 0)"/>
      <use xlink:href="#DejaVuSans-Bold-69" transform="translate(365.771484 0)"/>
      <use xlink:href="#DejaVuSans-Bold-76" transform="translate(400.048828 0)"/>
      <use xlink:href="#DejaVuSans-Bold-65" transform="translate(465.234375 0)"/>
      <use xlink:href="#DejaVuSans-Bold-20" transform="translate(533.056641 0)"/>
      <use xlink:href="#DejaVuSans-Bold-46" transform="translate(567.871094 0)"/>
      <use xlink:href="#DejaVuSans-Bold-75" transform="translate(631.181641 0)"/>
      <use xlink:href="#DejaVuSans-Bold-6e" transform="translate(702.373047 0)"/>
      <use xlink:href="#DejaVuSans-Bold-63" transform="translate(773.564453 0)"/>
      <use xlink:href="#DejaVuSans-Bold-74" transform="translate(832.841797 0)"/>
      <use xlink:href="#DejaVuSans-Bold-69" transform="translate(880.644531 0)"/>
      <use xlink:href="#DejaVuSans-Bold-6f" transform="translate(914.921875 0)"/>
      <use xlink:href="#DejaVuSans-Bold-6e" transform="translate(983.623047 0)"/>
      <use xlink:href="#DejaVuSans-Bold-20" transform="translate(1054.814453 0)"/>
      <use xlink:href="#DejaVuSans-Bold-56" transform="translate(1089.628906 0)"/>
      <use xlink:href="#DejaVuSans-Bold-61" transform="translate(1161.521484 0)"/>
      <use xlink:href="#DejaVuSans-Bold-6c" transform="translate(1229.001953 0)"/>
      <use xlink:href="#DejaVuSans-Bold-75" transform="translate(1263.279297 0)"/>
      <use xlink:href="#DejaVuSans-Bold-65" transform="translate(1334.470703 0)"/>
     </g>
    </g>
    <g id="text_18">
     <!-- $\times\mathdefault{10^{5}}\mathdefault{}$ -->
     <g style="fill: #262626" transform="translate(65.37 53.664) scale(0.165 -0.165)">
      <defs>
       <path id="DejaVuSans-Bold-d7" d="M 4563 3359 
L 3206 2003 
L 4563 653 
L 4038 128 
L 2681 1478 
L 1325 128 
L 800 653 
L 2156 2003 
L 800 3359 
L 1325 3884 
L 2681 2528 
L 4038 3884 
L 4563 3359 
z
" transform="scale(0.015625)"/>
      </defs>
      <use xlink:href="#DejaVuSans-Bold-d7" transform="translate(0 0.684375)"/>
      <use xlink:href="#DejaVuSans-Bold-31" transform="translate(83.789062 0.684375)"/>
      <use xlink:href="#DejaVuSans-Bold-30" transform="translate(153.369141 0.684375)"/>
      <use xlink:href="#DejaVuSans-Bold-35" transform="translate(223.90625 38.965625) scale(0.7)"/>
     </g>
    </g>
   </g>
   <g id="line2d_16">
    <path d="M 84.463261 348.178194 
L 93.241772 340.517258 
L 108.604166 327.595586 
L 128.355816 311.344747 
L 148.107465 295.525476 
L 167.859115 280.028052 
L 183.221509 268.214801 
L 207.362413 249.974362 
L 229.308691 233.692801 
L 255.644223 214.479019 
L 279.785128 197.182177 
L 301.731405 181.685728 
L 330.261566 161.806307 
L 358.791726 142.20582 
L 391.711142 119.889139 
L 424.630558 97.926978 
L 455.355346 77.712544 
L 466.328484 70.552909 
L 466.328484 70.552909 
" clip-path="url(#p5d1bef25ec)" style="fill: none; stroke: #0000ff; stroke-width: 2; stroke-linecap: round"/>
    <defs>
     <path id="m314f0d6ecb" d="M 0 4.5 
C 1.193414 4.5 2.338109 4.025852 3.181981 3.181981 
C 4.025852 2.338109 4.5 1.193414 4.5 0 
C 4.5 -1.193414 4.025852 -2.338109 3.181981 -3.181981 
C 2.338109 -4.025852 1.193414 -4.5 0 -4.5 
C -1.193414 -4.5 -2.338109 -4.025852 -3.181981 -3.181981 
C -4.025852 -2.338109 -4.5 -1.193414 -4.5 0 
C -4.5 1.193414 -4.025852 2.338109 -3.181981 3.181981 
C -2.338109 4.025852 -1.193414 4.5 0 4.5 
z
" style="stroke: #0000ff"/>
    </defs>
    <g clip-path="url(#p5d1bef25ec)">
     <use xlink:href="#m314f0d6ecb" x="84.463261" y="348.178194" style="fill: #0000ff; stroke: #0000ff"/>
     <use xlink:href="#m314f0d6ecb" x="95.4364" y="338.651521" style="fill: #0000ff; stroke: #0000ff"/>
     <use xlink:href="#m314f0d6ecb" x="106.409538" y="329.423775" style="fill: #0000ff; stroke: #0000ff"/>
     <use xlink:href="#m314f0d6ecb" x="117.382677" y="320.323305" style="fill: #0000ff; stroke: #0000ff"/>
     <use xlink:href="#m314f0d6ecb" x="128.355816" y="311.344747" style="fill: #0000ff; stroke: #0000ff"/>
     <use xlink:href="#m314f0d6ecb" x="139.328954" y="302.524187" style="fill: #0000ff; stroke: #0000ff"/>
     <use xlink:href="#m314f0d6ecb" x="150.302093" y="293.78994" style="fill: #0000ff; stroke: #0000ff"/>
     <use xlink:href="#m314f0d6ecb" x="161.275231" y="285.166389" style="fill: #0000ff; stroke: #0000ff"/>
     <use xlink:href="#m314f0d6ecb" x="172.24837" y="276.629639" style="fill: #0000ff; stroke: #0000ff"/>
     <use xlink:href="#m314f0d6ecb" x="183.221509" y="268.214801" style="fill: #0000ff; stroke: #0000ff"/>
     <use xlink:href="#m314f0d6ecb" x="194.194647" y="259.87311" style="fill: #0000ff; stroke: #0000ff"/>
     <use xlink:href="#m314f0d6ecb" x="205.167786" y="251.614319" style="fill: #0000ff; stroke: #0000ff"/>
     <use xlink:href="#m314f0d6ecb" x="216.140924" y="243.431114" style="fill: #0000ff; stroke: #0000ff"/>
     <use xlink:href="#m314f0d6ecb" x="227.114063" y="235.305938" style="fill: #0000ff; stroke: #0000ff"/>
     <use xlink:href="#m314f0d6ecb" x="238.087202" y="227.256835" style="fill: #0000ff; stroke: #0000ff"/>
     <use xlink:href="#m314f0d6ecb" x="249.06034" y="219.254059" style="fill: #0000ff; stroke: #0000ff"/>
     <use xlink:href="#m314f0d6ecb" x="260.033479" y="211.312239" style="fill: #0000ff; stroke: #0000ff"/>
     <use xlink:href="#m314f0d6ecb" x="271.006617" y="203.443565" style="fill: #0000ff; stroke: #0000ff"/>
     <use xlink:href="#m314f0d6ecb" x="281.979756" y="195.620243" style="fill: #0000ff; stroke: #0000ff"/>
     <use xlink:href="#m314f0d6ecb" x="292.952895" y="187.856414" style="fill: #0000ff; stroke: #0000ff"/>
     <use xlink:href="#m314f0d6ecb" x="303.926033" y="180.147689" style="fill: #0000ff; stroke: #0000ff"/>
     <use xlink:href="#m314f0d6ecb" x="314.899172" y="172.475538" style="fill: #0000ff; stroke: #0000ff"/>
     <use xlink:href="#m314f0d6ecb" x="325.87231" y="164.84191" style="fill: #0000ff; stroke: #0000ff"/>
     <use xlink:href="#m314f0d6ecb" x="336.845449" y="157.263387" style="fill: #0000ff; stroke: #0000ff"/>
     <use xlink:href="#m314f0d6ecb" x="347.818588" y="149.722413" style="fill: #0000ff; stroke: #0000ff"/>
     <use xlink:href="#m314f0d6ecb" x="358.791726" y="142.20582" style="fill: #0000ff; stroke: #0000ff"/>
     <use xlink:href="#m314f0d6ecb" x="369.764865" y="134.732629" style="fill: #0000ff; stroke: #0000ff"/>
     <use xlink:href="#m314f0d6ecb" x="380.738003" y="127.290647" style="fill: #0000ff; stroke: #0000ff"/>
     <use xlink:href="#m314f0d6ecb" x="391.711142" y="119.889139" style="fill: #0000ff; stroke: #0000ff"/>
     <use xlink:href="#m314f0d6ecb" x="402.684281" y="112.532983" style="fill: #0000ff; stroke: #0000ff"/>
     <use xlink:href="#m314f0d6ecb" x="413.657419" y="105.206574" style="fill: #0000ff; stroke: #0000ff"/>
     <use xlink:href="#m314f0d6ecb" x="424.630558" y="97.926978" style="fill: #0000ff; stroke: #0000ff"/>
     <use xlink:href="#m314f0d6ecb" x="435.603696" y="90.678592" style="fill: #0000ff; stroke: #0000ff"/>
     <use xlink:href="#m314f0d6ecb" x="446.576835" y="83.460927" style="fill: #0000ff; stroke: #0000ff"/>
     <use xlink:href="#m314f0d6ecb" x="457.549974" y="76.276911" style="fill: #0000ff; stroke: #0000ff"/>
    </g>
   </g>
   <g id="line2d_17">
    <path d="M 84.463261 348.331091 
L 91.047144 343.410044 
L 104.214911 332.959109 
L 106.409538 331.515045 
L 110.798794 328.127268 
L 112.993422 326.620414 
L 121.771932 319.579258 
L 126.161188 316.55668 
L 128.355816 314.810255 
L 132.745071 311.855275 
L 134.939699 310.563668 
L 139.328954 307.508262 
L 141.523582 306.068679 
L 143.71821 304.408835 
L 145.912837 303.012624 
L 150.302093 299.668477 
L 152.49672 298.252106 
L 154.691348 296.58406 
L 156.885976 295.44794 
L 161.275231 292.381518 
L 163.469859 290.622331 
L 165.664487 289.018508 
L 167.859115 287.727853 
L 185.416136 275.54755 
L 187.610764 273.941046 
L 189.805392 272.487419 
L 194.194647 269.302791 
L 196.389275 267.545944 
L 198.583903 266.02746 
L 200.77853 264.823703 
L 202.973158 263.426204 
L 207.362413 260.365195 
L 218.335552 252.83846 
L 224.919435 248.373514 
L 227.114063 247.089588 
L 244.671085 235.113122 
L 249.06034 232.328316 
L 257.838851 226.779819 
L 260.033479 225.164293 
L 273.201245 216.386402 
L 277.590501 213.258389 
L 284.174384 209.318152 
L 290.758267 205.145112 
L 297.34215 200.907508 
L 303.926033 196.535801 
L 308.315289 193.843452 
L 312.704544 190.826331 
L 317.093799 187.986811 
L 325.87231 182.398668 
L 330.261566 179.815114 
L 336.845449 175.515334 
L 341.234704 172.97128 
L 345.62396 170.009555 
L 352.207843 165.991002 
L 356.597098 163.04693 
L 369.764865 154.444836 
L 371.959492 153.304424 
L 387.321887 143.681879 
L 393.90577 139.600225 
L 398.295025 137.052464 
L 404.878908 133.082919 
L 411.462791 129.214561 
L 420.241302 123.499191 
L 429.019813 118.572249 
L 444.382207 108.604498 
L 453.160718 103.487813 
L 455.355346 102.157902 
L 457.549974 101.044213 
L 461.939229 98.194111 
L 466.328484 95.889101 
L 466.328484 95.889101 
" clip-path="url(#p5d1bef25ec)" style="fill: none; stroke-dasharray: 7.4,3.2; stroke-dashoffset: 0; stroke: #ff0000; stroke-width: 2"/>
    <defs>
     <path id="mcff2eace2b" d="M -4.5 4.5 
L 4.5 4.5 
L 4.5 -4.5 
L -4.5 -4.5 
z
" style="stroke: #ff0000; stroke-linejoin: miter"/>
    </defs>
    <g clip-path="url(#p5d1bef25ec)">
     <use xlink:href="#mcff2eace2b" x="84.463261" y="348.331091" style="fill: #ff0000; stroke: #ff0000; stroke-linejoin: miter"/>
     <use xlink:href="#mcff2eace2b" x="95.4364" y="339.822615" style="fill: #ff0000; stroke: #ff0000; stroke-linejoin: miter"/>
     <use xlink:href="#mcff2eace2b" x="106.409538" y="331.515045" style="fill: #ff0000; stroke: #ff0000; stroke-linejoin: miter"/>
     <use xlink:href="#mcff2eace2b" x="117.382677" y="323.09752" style="fill: #ff0000; stroke: #ff0000; stroke-linejoin: miter"/>
     <use xlink:href="#mcff2eace2b" x="128.355816" y="314.810255" style="fill: #ff0000; stroke: #ff0000; stroke-linejoin: miter"/>
     <use xlink:href="#mcff2eace2b" x="139.328954" y="307.508262" style="fill: #ff0000; stroke: #ff0000; stroke-linejoin: miter"/>
     <use xlink:href="#mcff2eace2b" x="150.302093" y="299.668477" style="fill: #ff0000; stroke: #ff0000; stroke-linejoin: miter"/>
     <use xlink:href="#mcff2eace2b" x="161.275231" y="292.381518" style="fill: #ff0000; stroke: #ff0000; stroke-linejoin: miter"/>
     <use xlink:href="#mcff2eace2b" x="172.24837" y="284.65197" style="fill: #ff0000; stroke: #ff0000; stroke-linejoin: miter"/>
     <use xlink:href="#mcff2eace2b" x="183.221509" y="277.094269" style="fill: #ff0000; stroke: #ff0000; stroke-linejoin: miter"/>
     <use xlink:href="#mcff2eace2b" x="194.194647" y="269.302791" style="fill: #ff0000; stroke: #ff0000; stroke-linejoin: miter"/>
     <use xlink:href="#mcff2eace2b" x="205.167786" y="261.827161" style="fill: #ff0000; stroke: #ff0000; stroke-linejoin: miter"/>
     <use xlink:href="#mcff2eace2b" x="216.140924" y="254.34485" style="fill: #ff0000; stroke: #ff0000; stroke-linejoin: miter"/>
     <use xlink:href="#mcff2eace2b" x="227.114063" y="247.089588" style="fill: #ff0000; stroke: #ff0000; stroke-linejoin: miter"/>
     <use xlink:href="#mcff2eace2b" x="238.087202" y="239.577385" style="fill: #ff0000; stroke: #ff0000; stroke-linejoin: miter"/>
     <use xlink:href="#mcff2eace2b" x="249.06034" y="232.328316" style="fill: #ff0000; stroke: #ff0000; stroke-linejoin: miter"/>
     <use xlink:href="#mcff2eace2b" x="260.033479" y="225.164293" style="fill: #ff0000; stroke: #ff0000; stroke-linejoin: miter"/>
     <use xlink:href="#mcff2eace2b" x="271.006617" y="217.842711" style="fill: #ff0000; stroke: #ff0000; stroke-linejoin: miter"/>
     <use xlink:href="#mcff2eace2b" x="281.979756" y="210.658011" style="fill: #ff0000; stroke: #ff0000; stroke-linejoin: miter"/>
     <use xlink:href="#mcff2eace2b" x="292.952895" y="203.765217" style="fill: #ff0000; stroke: #ff0000; stroke-linejoin: miter"/>
     <use xlink:href="#mcff2eace2b" x="303.926033" y="196.535801" style="fill: #ff0000; stroke: #ff0000; stroke-linejoin: miter"/>
     <use xlink:href="#mcff2eace2b" x="314.899172" y="189.344469" style="fill: #ff0000; stroke: #ff0000; stroke-linejoin: miter"/>
     <use xlink:href="#mcff2eace2b" x="325.87231" y="182.398668" style="fill: #ff0000; stroke: #ff0000; stroke-linejoin: miter"/>
     <use xlink:href="#mcff2eace2b" x="336.845449" y="175.515334" style="fill: #ff0000; stroke: #ff0000; stroke-linejoin: miter"/>
     <use xlink:href="#mcff2eace2b" x="347.818588" y="168.698321" style="fill: #ff0000; stroke: #ff0000; stroke-linejoin: miter"/>
     <use xlink:href="#mcff2eace2b" x="358.791726" y="161.62578" style="fill: #ff0000; stroke: #ff0000; stroke-linejoin: miter"/>
     <use xlink:href="#mcff2eace2b" x="369.764865" y="154.444836" style="fill: #ff0000; stroke: #ff0000; stroke-linejoin: miter"/>
     <use xlink:href="#mcff2eace2b" x="380.738003" y="147.857309" style="fill: #ff0000; stroke: #ff0000; stroke-linejoin: miter"/>
     <use xlink:href="#mcff2eace2b" x="391.711142" y="140.752437" style="fill: #ff0000; stroke: #ff0000; stroke-linejoin: miter"/>
     <use xlink:href="#mcff2eace2b" x="402.684281" y="134.396104" style="fill: #ff0000; stroke: #ff0000; stroke-linejoin: miter"/>
     <use xlink:href="#mcff2eace2b" x="413.657419" y="127.774637" style="fill: #ff0000; stroke: #ff0000; stroke-linejoin: miter"/>
     <use xlink:href="#mcff2eace2b" x="424.630558" y="121.011898" style="fill: #ff0000; stroke: #ff0000; stroke-linejoin: miter"/>
     <use xlink:href="#mcff2eace2b" x="435.603696" y="114.221169" style="fill: #ff0000; stroke: #ff0000; stroke-linejoin: miter"/>
     <use xlink:href="#mcff2eace2b" x="446.576835" y="107.348905" style="fill: #ff0000; stroke: #ff0000; stroke-linejoin: miter"/>
     <use xlink:href="#mcff2eace2b" x="457.549974" y="101.044213" style="fill: #ff0000; stroke: #ff0000; stroke-linejoin: miter"/>
    </g>
   </g>
   <g id="patch_3">
    <path d="M 65.37 362.22 
L 65.37 56.664 
" style="fill: none; stroke: #cccccc; stroke-width: 1.875; stroke-linejoin: miter; stroke-linecap: square"/>
   </g>
   <g id="patch_4">
    <path d="M 485.421746 362.22 
L 485.421746 56.664 
" style="fill: none; stroke: #cccccc; stroke-width: 1.875; stroke-linejoin: miter; stroke-linecap: square"/>
   </g>
   <g id="patch_5">
    <path d="M 65.37 362.22 
L 485.421746 362.22 
" style="fill: none; stroke: #cccccc; stroke-width: 1.875; stroke-linejoin: miter; stroke-linecap: square"/>
   </g>
   <g id="patch_6">
    <path d="M 65.37 56.664 
L 485.421746 56.664 
" style="fill: none; stroke: #cccccc; stroke-width: 1.875; stroke-linejoin: miter; stroke-linecap: square"/>
   </g>
   <g id="text_19">
    <!-- Standard D-Optimal Objective -->
    <g style="fill: #262626" transform="translate(123.100404 50.664) scale(0.18 -0.18)">
     <defs>
      <path id="DejaVuSans-Bold-64" d="M 2919 2988 
L 2919 4863 
L 4044 4863 
L 4044 0 
L 2919 0 
L 2919 506 
Q 2688 197 2409 53 
Q 2131 -91 1766 -91 
Q 1119 -91 703 423 
Q 288 938 288 1747 
Q 288 2556 703 3070 
Q 1119 3584 1766 3584 
Q 2128 3584 2408 3439 
Q 2688 3294 2919 2988 
z
M 2181 722 
Q 2541 722 2730 984 
Q 2919 1247 2919 1747 
Q 2919 2247 2730 2509 
Q 2541 2772 2181 2772 
Q 1825 2772 1636 2509 
Q 1447 2247 1447 1747 
Q 1447 1247 1636 984 
Q 1825 722 2181 722 
z
" transform="scale(0.015625)"/>
      <path id="DejaVuSans-Bold-44" d="M 1791 3756 
L 1791 909 
L 2222 909 
Q 2959 909 3348 1275 
Q 3738 1641 3738 2338 
Q 3738 3031 3350 3393 
Q 2963 3756 2222 3756 
L 1791 3756 
z
M 588 4666 
L 1856 4666 
Q 2919 4666 3439 4514 
Q 3959 4363 4331 4000 
Q 4659 3684 4818 3271 
Q 4978 2859 4978 2338 
Q 4978 1809 4818 1395 
Q 4659 981 4331 666 
Q 3956 303 3431 151 
Q 2906 0 1856 0 
L 588 0 
L 588 4666 
z
" transform="scale(0.015625)"/>
      <path id="DejaVuSans-Bold-2d" d="M 347 2297 
L 2309 2297 
L 2309 1388 
L 347 1388 
L 347 2297 
z
" transform="scale(0.015625)"/>
      <path id="DejaVuSans-Bold-70" d="M 1656 506 
L 1656 -1331 
L 538 -1331 
L 538 3500 
L 1656 3500 
L 1656 2988 
Q 1888 3294 2169 3439 
Q 2450 3584 2816 3584 
Q 3463 3584 3878 3070 
Q 4294 2556 4294 1747 
Q 4294 938 3878 423 
Q 3463 -91 2816 -91 
Q 2450 -91 2169 54 
Q 1888 200 1656 506 
z
M 2400 2772 
Q 2041 2772 1848 2508 
Q 1656 2244 1656 1747 
Q 1656 1250 1848 986 
Q 2041 722 2400 722 
Q 2759 722 2948 984 
Q 3138 1247 3138 1747 
Q 3138 2247 2948 2509 
Q 2759 2772 2400 2772 
z
" transform="scale(0.015625)"/>
     </defs>
     <use xlink:href="#DejaVuSans-Bold-53"/>
     <use xlink:href="#DejaVuSans-Bold-74" transform="translate(72.021484 0)"/>
     <use xlink:href="#DejaVuSans-Bold-61" transform="translate(119.824219 0)"/>
     <use xlink:href="#DejaVuSans-Bold-6e" transform="translate(187.304688 0)"/>
     <use xlink:href="#DejaVuSans-Bold-64" transform="translate(258.496094 0)"/>
     <use xlink:href="#DejaVuSans-Bold-61" transform="translate(330.078125 0)"/>
     <use xlink:href="#DejaVuSans-Bold-72" transform="translate(397.558594 0)"/>
     <use xlink:href="#DejaVuSans-Bold-64" transform="translate(446.875 0)"/>
     <use xlink:href="#DejaVuSans-Bold-20" transform="translate(518.457031 0)"/>
     <use xlink:href="#DejaVuSans-Bold-44" transform="translate(553.271484 0)"/>
     <use xlink:href="#DejaVuSans-Bold-2d" transform="translate(638.154297 0)"/>
     <use xlink:href="#DejaVuSans-Bold-4f" transform="translate(679.658203 0)"/>
     <use xlink:href="#DejaVuSans-Bold-70" transform="translate(764.667969 0)"/>
     <use xlink:href="#DejaVuSans-Bold-74" transform="translate(836.25 0)"/>
     <use xlink:href="#DejaVuSans-Bold-69" transform="translate(884.052734 0)"/>
     <use xlink:href="#DejaVuSans-Bold-6d" transform="translate(918.330078 0)"/>
     <use xlink:href="#DejaVuSans-Bold-61" transform="translate(1022.529297 0)"/>
     <use xlink:href="#DejaVuSans-Bold-6c" transform="translate(1090.009766 0)"/>
     <use xlink:href="#DejaVuSans-Bold-20" transform="translate(1124.287109 0)"/>
     <use xlink:href="#DejaVuSans-Bold-4f" transform="translate(1159.101562 0)"/>
     <use xlink:href="#DejaVuSans-Bold-62" transform="translate(1244.111328 0)"/>
     <use xlink:href="#DejaVuSans-Bold-6a" transform="translate(1315.693359 0)"/>
     <use xlink:href="#DejaVuSans-Bold-65" transform="translate(1349.970703 0)"/>
     <use xlink:href="#DejaVuSans-Bold-63" transform="translate(1417.792969 0)"/>
     <use xlink:href="#DejaVuSans-Bold-74" transform="translate(1477.070312 0)"/>
     <use xlink:href="#DejaVuSans-Bold-69" transform="translate(1524.873047 0)"/>
     <use xlink:href="#DejaVuSans-Bold-76" transform="translate(1559.150391 0)"/>
     <use xlink:href="#DejaVuSans-Bold-65" transform="translate(1624.335938 0)"/>
    </g>
   </g>
   <g id="legend_1">
    <g id="patch_7">
     <path d="M 76.92 118.301813 
L 309.453984 118.301813 
Q 312.753984 118.301813 312.753984 115.001813 
L 312.753984 68.214 
Q 312.753984 64.914 309.453984 64.914 
L 76.92 64.914 
Q 73.62 64.914 73.62 68.214 
L 73.62 115.001813 
Q 73.62 118.301813 76.92 118.301813 
z
" style="fill: #ffffff; opacity: 0.8; stroke: #cccccc; stroke-width: 1.5; stroke-linejoin: miter"/>
    </g>
    <g id="line2d_18">
     <path d="M 80.22 78.276422 
L 96.72 78.276422 
L 113.22 78.276422 
" style="fill: none; stroke: #0000ff; stroke-width: 2; stroke-linecap: round"/>
     <g>
      <use xlink:href="#m314f0d6ecb" x="96.72" y="78.276422" style="fill: #0000ff; stroke: #0000ff"/>
     </g>
    </g>
    <g id="text_20">
     <!-- Standard (Optimal) -->
     <g style="fill: #262626" transform="translate(126.42 84.051422) scale(0.165 -0.165)">
      <defs>
       <path id="DejaVuSans-Bold-28" d="M 2413 -844 
L 1484 -844 
Q 1006 -72 778 623 
Q 550 1319 550 2003 
Q 550 2688 779 3389 
Q 1009 4091 1484 4856 
L 2413 4856 
Q 2013 4116 1813 3408 
Q 1613 2700 1613 2009 
Q 1613 1319 1811 609 
Q 2009 -100 2413 -844 
z
" transform="scale(0.015625)"/>
       <path id="DejaVuSans-Bold-29" d="M 513 -844 
Q 913 -100 1113 609 
Q 1313 1319 1313 2009 
Q 1313 2700 1113 3408 
Q 913 4116 513 4856 
L 1441 4856 
Q 1916 4091 2145 3389 
Q 2375 2688 2375 2003 
Q 2375 1319 2147 623 
Q 1919 -72 1441 -844 
L 513 -844 
z
" transform="scale(0.015625)"/>
      </defs>
      <use xlink:href="#DejaVuSans-Bold-53"/>
      <use xlink:href="#DejaVuSans-Bold-74" transform="translate(72.021484 0)"/>
      <use xlink:href="#DejaVuSans-Bold-61" transform="translate(119.824219 0)"/>
      <use xlink:href="#DejaVuSans-Bold-6e" transform="translate(187.304688 0)"/>
      <use xlink:href="#DejaVuSans-Bold-64" transform="translate(258.496094 0)"/>
      <use xlink:href="#DejaVuSans-Bold-61" transform="translate(330.078125 0)"/>
      <use xlink:href="#DejaVuSans-Bold-72" transform="translate(397.558594 0)"/>
      <use xlink:href="#DejaVuSans-Bold-64" transform="translate(446.875 0)"/>
      <use xlink:href="#DejaVuSans-Bold-20" transform="translate(518.457031 0)"/>
      <use xlink:href="#DejaVuSans-Bold-28" transform="translate(553.271484 0)"/>
      <use xlink:href="#DejaVuSans-Bold-4f" transform="translate(598.974609 0)"/>
      <use xlink:href="#DejaVuSans-Bold-70" transform="translate(683.984375 0)"/>
      <use xlink:href="#DejaVuSans-Bold-74" transform="translate(755.566406 0)"/>
      <use xlink:href="#DejaVuSans-Bold-69" transform="translate(803.369141 0)"/>
      <use xlink:href="#DejaVuSans-Bold-6d" transform="translate(837.646484 0)"/>
      <use xlink:href="#DejaVuSans-Bold-61" transform="translate(941.845703 0)"/>
      <use xlink:href="#DejaVuSans-Bold-6c" transform="translate(1009.326172 0)"/>
      <use xlink:href="#DejaVuSans-Bold-29" transform="translate(1043.603516 0)"/>
     </g>
    </g>
    <g id="line2d_19">
     <path d="M 80.22 102.495328 
L 96.72 102.495328 
L 113.22 102.495328 
" style="fill: none; stroke-dasharray: 7.4,3.2; stroke-dashoffset: 0; stroke: #ff0000; stroke-width: 2"/>
     <g>
      <use xlink:href="#mcff2eace2b" x="96.72" y="102.495328" style="fill: #ff0000; stroke: #ff0000; stroke-linejoin: miter"/>
     </g>
    </g>
    <g id="text_21">
     <!-- Goal-Oriented -->
     <g style="fill: #262626" transform="translate(126.42 108.270328) scale(0.165 -0.165)">
      <defs>
       <path id="DejaVuSans-Bold-47" d="M 4781 347 
Q 4331 128 3847 18 
Q 3363 -91 2847 -91 
Q 1681 -91 1000 561 
Q 319 1213 319 2328 
Q 319 3456 1012 4103 
Q 1706 4750 2913 4750 
Q 3378 4750 3804 4662 
Q 4231 4575 4609 4403 
L 4609 3438 
Q 4219 3659 3833 3768 
Q 3447 3878 3059 3878 
Q 2341 3878 1952 3476 
Q 1563 3075 1563 2328 
Q 1563 1588 1938 1184 
Q 2313 781 3003 781 
Q 3191 781 3352 804 
Q 3513 828 3641 878 
L 3641 1784 
L 2906 1784 
L 2906 2591 
L 4781 2591 
L 4781 347 
z
" transform="scale(0.015625)"/>
      </defs>
      <use xlink:href="#DejaVuSans-Bold-47"/>
      <use xlink:href="#DejaVuSans-Bold-6f" transform="translate(82.080078 0)"/>
      <use xlink:href="#DejaVuSans-Bold-61" transform="translate(150.78125 0)"/>
      <use xlink:href="#DejaVuSans-Bold-6c" transform="translate(218.261719 0)"/>
      <use xlink:href="#DejaVuSans-Bold-2d" transform="translate(252.539062 0)"/>
      <use xlink:href="#DejaVuSans-Bold-4f" transform="translate(294.042969 0)"/>
      <use xlink:href="#DejaVuSans-Bold-72" transform="translate(379.052734 0)"/>
      <use xlink:href="#DejaVuSans-Bold-69" transform="translate(428.369141 0)"/>
      <use xlink:href="#DejaVuSans-Bold-65" transform="translate(462.646484 0)"/>
      <use xlink:href="#DejaVuSans-Bold-6e" transform="translate(530.46875 0)"/>
      <use xlink:href="#DejaVuSans-Bold-74" transform="translate(601.660156 0)"/>
      <use xlink:href="#DejaVuSans-Bold-65" transform="translate(649.462891 0)"/>
      <use xlink:href="#DejaVuSans-Bold-64" transform="translate(717.285156 0)"/>
     </g>
    </g>
   </g>
  </g>
  <g id="axes_2">
   <g id="patch_8">
    <path d="M 568.508254 362.22 
L 988.56 362.22 
L 988.56 56.664 
L 568.508254 56.664 
z
" style="fill: #ffffff"/>
   </g>
   <g id="matplotlib.axis_3">
    <g id="xtick_9">
     <g id="line2d_20">
      <path d="M 585.406888 362.22 
L 585.406888 56.664 
" clip-path="url(#p63c12411f1)" style="fill: none; stroke: #cccccc; stroke-opacity: 0.3; stroke-width: 1.5; stroke-linecap: round"/>
     </g>
     <g id="text_22">
      <!-- 0 -->
      <g style="fill: #262626" transform="translate(579.666693 387.257422) scale(0.165 -0.165)">
       <use xlink:href="#DejaVuSans-Bold-30"/>
      </g>
     </g>
    </g>
    <g id="xtick_10">
     <g id="line2d_21">
      <path d="M 640.272581 362.22 
L 640.272581 56.664 
" clip-path="url(#p63c12411f1)" style="fill: none; stroke: #cccccc; stroke-opacity: 0.3; stroke-width: 1.5; stroke-linecap: round"/>
     </g>
     <g id="text_23">
      <!-- 25 -->
      <g style="fill: #262626" transform="translate(628.79219 387.257422) scale(0.165 -0.165)">
       <use xlink:href="#DejaVuSans-Bold-32"/>
       <use xlink:href="#DejaVuSans-Bold-35" transform="translate(69.580078 0)"/>
      </g>
     </g>
    </g>
    <g id="xtick_11">
     <g id="line2d_22">
      <path d="M 695.138274 362.22 
L 695.138274 56.664 
" clip-path="url(#p63c12411f1)" style="fill: none; stroke: #cccccc; stroke-opacity: 0.3; stroke-width: 1.5; stroke-linecap: round"/>
     </g>
     <g id="text_24">
      <!-- 50 -->
      <g style="fill: #262626" transform="translate(683.657883 387.257422) scale(0.165 -0.165)">
       <use xlink:href="#DejaVuSans-Bold-35"/>
       <use xlink:href="#DejaVuSans-Bold-30" transform="translate(69.580078 0)"/>
      </g>
     </g>
    </g>
    <g id="xtick_12">
     <g id="line2d_23">
      <path d="M 750.003967 362.22 
L 750.003967 56.664 
" clip-path="url(#p63c12411f1)" style="fill: none; stroke: #cccccc; stroke-opacity: 0.3; stroke-width: 1.5; stroke-linecap: round"/>
     </g>
     <g id="text_25">
      <!-- 75 -->
      <g style="fill: #262626" transform="translate(738.523576 387.257422) scale(0.165 -0.165)">
       <use xlink:href="#DejaVuSans-Bold-37"/>
       <use xlink:href="#DejaVuSans-Bold-35" transform="translate(69.580078 0)"/>
      </g>
     </g>
    </g>
    <g id="xtick_13">
     <g id="line2d_24">
      <path d="M 804.86966 362.22 
L 804.86966 56.664 
" clip-path="url(#p63c12411f1)" style="fill: none; stroke: #cccccc; stroke-opacity: 0.3; stroke-width: 1.5; stroke-linecap: round"/>
     </g>
     <g id="text_26">
      <!-- 100 -->
      <g style="fill: #262626" transform="translate(787.649074 387.257422) scale(0.165 -0.165)">
       <use xlink:href="#DejaVuSans-Bold-31"/>
       <use xlink:href="#DejaVuSans-Bold-30" transform="translate(69.580078 0)"/>
       <use xlink:href="#DejaVuSans-Bold-30" transform="translate(139.160156 0)"/>
      </g>
     </g>
    </g>
    <g id="xtick_14">
     <g id="line2d_25">
      <path d="M 859.735353 362.22 
L 859.735353 56.664 
" clip-path="url(#p63c12411f1)" style="fill: none; stroke: #cccccc; stroke-opacity: 0.3; stroke-width: 1.5; stroke-linecap: round"/>
     </g>
     <g id="text_27">
      <!-- 125 -->
      <g style="fill: #262626" transform="translate(842.514767 387.257422) scale(0.165 -0.165)">
       <use xlink:href="#DejaVuSans-Bold-31"/>
       <use xlink:href="#DejaVuSans-Bold-32" transform="translate(69.580078 0)"/>
       <use xlink:href="#DejaVuSans-Bold-35" transform="translate(139.160156 0)"/>
      </g>
     </g>
    </g>
    <g id="xtick_15">
     <g id="line2d_26">
      <path d="M 914.601046 362.22 
L 914.601046 56.664 
" clip-path="url(#p63c12411f1)" style="fill: none; stroke: #cccccc; stroke-opacity: 0.3; stroke-width: 1.5; stroke-linecap: round"/>
     </g>
     <g id="text_28">
      <!-- 150 -->
      <g style="fill: #262626" transform="translate(897.38046 387.257422) scale(0.165 -0.165)">
       <use xlink:href="#DejaVuSans-Bold-31"/>
       <use xlink:href="#DejaVuSans-Bold-35" transform="translate(69.580078 0)"/>
       <use xlink:href="#DejaVuSans-Bold-30" transform="translate(139.160156 0)"/>
      </g>
     </g>
    </g>
    <g id="xtick_16">
     <g id="line2d_27">
      <path d="M 969.466739 362.22 
L 969.466739 56.664 
" clip-path="url(#p63c12411f1)" style="fill: none; stroke: #cccccc; stroke-opacity: 0.3; stroke-width: 1.5; stroke-linecap: round"/>
     </g>
     <g id="text_29">
      <!-- 175 -->
      <g style="fill: #262626" transform="translate(952.246153 387.257422) scale(0.165 -0.165)">
       <use xlink:href="#DejaVuSans-Bold-31"/>
       <use xlink:href="#DejaVuSans-Bold-37" transform="translate(69.580078 0)"/>
       <use xlink:href="#DejaVuSans-Bold-35" transform="translate(139.160156 0)"/>
      </g>
     </g>
    </g>
    <g id="text_30">
     <!-- Number of Sensors -->
     <g style="fill: #262626" transform="translate(681.540846 408.366094) scale(0.18 -0.18)">
      <use xlink:href="#DejaVuSans-Bold-4e"/>
      <use xlink:href="#DejaVuSans-Bold-75" transform="translate(83.691406 0)"/>
      <use xlink:href="#DejaVuSans-Bold-6d" transform="translate(154.882812 0)"/>
      <use xlink:href="#DejaVuSans-Bold-62" transform="translate(259.082031 0)"/>
      <use xlink:href="#DejaVuSans-Bold-65" transform="translate(330.664062 0)"/>
      <use xlink:href="#DejaVuSans-Bold-72" transform="translate(398.486328 0)"/>
      <use xlink:href="#DejaVuSans-Bold-20" transform="translate(447.802734 0)"/>
      <use xlink:href="#DejaVuSans-Bold-6f" transform="translate(482.617188 0)"/>
      <use xlink:href="#DejaVuSans-Bold-66" transform="translate(551.318359 0)"/>
      <use xlink:href="#DejaVuSans-Bold-20" transform="translate(594.824219 0)"/>
      <use xlink:href="#DejaVuSans-Bold-53" transform="translate(629.638672 0)"/>
      <use xlink:href="#DejaVuSans-Bold-65" transform="translate(701.660156 0)"/>
      <use xlink:href="#DejaVuSans-Bold-6e" transform="translate(769.482422 0)"/>
      <use xlink:href="#DejaVuSans-Bold-73" transform="translate(840.673828 0)"/>
      <use xlink:href="#DejaVuSans-Bold-6f" transform="translate(900.195312 0)"/>
      <use xlink:href="#DejaVuSans-Bold-72" transform="translate(968.896484 0)"/>
      <use xlink:href="#DejaVuSans-Bold-73" transform="translate(1018.212891 0)"/>
     </g>
    </g>
   </g>
   <g id="matplotlib.axis_4">
    <g id="ytick_8">
     <g id="line2d_28">
      <path d="M 568.508254 351.999716 
L 988.56 351.999716 
" clip-path="url(#p63c12411f1)" style="fill: none; stroke: #cccccc; stroke-opacity: 0.3; stroke-width: 1.5; stroke-linecap: round"/>
     </g>
     <g id="text_31">
      <!-- $\mathdefault{0.0}$ -->
      <g style="fill: #262626" transform="translate(526.638254 358.268427) scale(0.165 -0.165)">
       <defs>
        <path id="DejaVuSans-Bold-2e" d="M 653 1209 
L 1778 1209 
L 1778 0 
L 653 0 
L 653 1209 
z
" transform="scale(0.015625)"/>
       </defs>
       <use xlink:href="#DejaVuSans-Bold-30" transform="translate(0 0.78125)"/>
       <use xlink:href="#DejaVuSans-Bold-2e" transform="translate(69.580078 0.78125)"/>
       <use xlink:href="#DejaVuSans-Bold-30" transform="translate(107.568359 0.78125)"/>
      </g>
     </g>
    </g>
    <g id="ytick_9">
     <g id="line2d_29">
      <path d="M 568.508254 299.999134 
L 988.56 299.999134 
" clip-path="url(#p63c12411f1)" style="fill: none; stroke: #cccccc; stroke-opacity: 0.3; stroke-width: 1.5; stroke-linecap: round"/>
     </g>
     <g id="text_32">
      <!-- $\mathdefault{0.5}$ -->
      <g style="fill: #262626" transform="translate(526.638254 306.267845) scale(0.165 -0.165)">
       <use xlink:href="#DejaVuSans-Bold-30" transform="translate(0 0.78125)"/>
       <use xlink:href="#DejaVuSans-Bold-2e" transform="translate(69.580078 0.78125)"/>
       <use xlink:href="#DejaVuSans-Bold-35" transform="translate(107.568359 0.78125)"/>
      </g>
     </g>
    </g>
    <g id="ytick_10">
     <g id="line2d_30">
      <path d="M 568.508254 247.998552 
L 988.56 247.998552 
" clip-path="url(#p63c12411f1)" style="fill: none; stroke: #cccccc; stroke-opacity: 0.3; stroke-width: 1.5; stroke-linecap: round"/>
     </g>
     <g id="text_33">
      <!-- $\mathdefault{1.0}$ -->
      <g style="fill: #262626" transform="translate(526.638254 254.267263) scale(0.165 -0.165)">
       <use xlink:href="#DejaVuSans-Bold-31" transform="translate(0 0.78125)"/>
       <use xlink:href="#DejaVuSans-Bold-2e" transform="translate(69.580078 0.78125)"/>
       <use xlink:href="#DejaVuSans-Bold-30" transform="translate(107.568359 0.78125)"/>
      </g>
     </g>
    </g>
    <g id="ytick_11">
     <g id="line2d_31">
      <path d="M 568.508254 195.99797 
L 988.56 195.99797 
" clip-path="url(#p63c12411f1)" style="fill: none; stroke: #cccccc; stroke-opacity: 0.3; stroke-width: 1.5; stroke-linecap: round"/>
     </g>
     <g id="text_34">
      <!-- $\mathdefault{1.5}$ -->
      <g style="fill: #262626" transform="translate(526.638254 202.266681) scale(0.165 -0.165)">
       <use xlink:href="#DejaVuSans-Bold-31" transform="translate(0 0.09375)"/>
       <use xlink:href="#DejaVuSans-Bold-2e" transform="translate(69.580078 0.09375)"/>
       <use xlink:href="#DejaVuSans-Bold-35" transform="translate(107.568359 0.09375)"/>
      </g>
     </g>
    </g>
    <g id="ytick_12">
     <g id="line2d_32">
      <path d="M 568.508254 143.997387 
L 988.56 143.997387 
" clip-path="url(#p63c12411f1)" style="fill: none; stroke: #cccccc; stroke-opacity: 0.3; stroke-width: 1.5; stroke-linecap: round"/>
     </g>
     <g id="text_35">
      <!-- $\mathdefault{2.0}$ -->
      <g style="fill: #262626" transform="translate(526.638254 150.266098) scale(0.165 -0.165)">
       <use xlink:href="#DejaVuSans-Bold-32" transform="translate(0 0.78125)"/>
       <use xlink:href="#DejaVuSans-Bold-2e" transform="translate(69.580078 0.78125)"/>
       <use xlink:href="#DejaVuSans-Bold-30" transform="translate(107.568359 0.78125)"/>
      </g>
     </g>
    </g>
    <g id="ytick_13">
     <g id="line2d_33">
      <path d="M 568.508254 91.996805 
L 988.56 91.996805 
" clip-path="url(#p63c12411f1)" style="fill: none; stroke: #cccccc; stroke-opacity: 0.3; stroke-width: 1.5; stroke-linecap: round"/>
     </g>
     <g id="text_36">
      <!-- $\mathdefault{2.5}$ -->
      <g style="fill: #262626" transform="translate(526.638254 98.265516) scale(0.165 -0.165)">
       <use xlink:href="#DejaVuSans-Bold-32" transform="translate(0 0.78125)"/>
       <use xlink:href="#DejaVuSans-Bold-2e" transform="translate(69.580078 0.78125)"/>
       <use xlink:href="#DejaVuSans-Bold-35" transform="translate(107.568359 0.78125)"/>
      </g>
     </g>
    </g>
    <g id="text_37">
     <!-- Objective Function Value -->
     <g style="fill: #262626" transform="translate(518.754192 335.650125) rotate(-90) scale(0.18 -0.18)">
      <use xlink:href="#DejaVuSans-Bold-4f"/>
      <use xlink:href="#DejaVuSans-Bold-62" transform="translate(85.009766 0)"/>
      <use xlink:href="#DejaVuSans-Bold-6a" transform="translate(156.591797 0)"/>
      <use xlink:href="#DejaVuSans-Bold-65" transform="translate(190.869141 0)"/>
      <use xlink:href="#DejaVuSans-Bold-63" transform="translate(258.691406 0)"/>
      <use xlink:href="#DejaVuSans-Bold-74" transform="translate(317.96875 0)"/>
      <use xlink:href="#DejaVuSans-Bold-69" transform="translate(365.771484 0)"/>
      <use xlink:href="#DejaVuSans-Bold-76" transform="translate(400.048828 0)"/>
      <use xlink:href="#DejaVuSans-Bold-65" transform="translate(465.234375 0)"/>
      <use xlink:href="#DejaVuSans-Bold-20" transform="translate(533.056641 0)"/>
      <use xlink:href="#DejaVuSans-Bold-46" transform="translate(567.871094 0)"/>
      <use xlink:href="#DejaVuSans-Bold-75" transform="translate(631.181641 0)"/>
      <use xlink:href="#DejaVuSans-Bold-6e" transform="translate(702.373047 0)"/>
      <use xlink:href="#DejaVuSans-Bold-63" transform="translate(773.564453 0)"/>
      <use xlink:href="#DejaVuSans-Bold-74" transform="translate(832.841797 0)"/>
      <use xlink:href="#DejaVuSans-Bold-69" transform="translate(880.644531 0)"/>
      <use xlink:href="#DejaVuSans-Bold-6f" transform="translate(914.921875 0)"/>
      <use xlink:href="#DejaVuSans-Bold-6e" transform="translate(983.623047 0)"/>
      <use xlink:href="#DejaVuSans-Bold-20" transform="translate(1054.814453 0)"/>
      <use xlink:href="#DejaVuSans-Bold-56" transform="translate(1089.628906 0)"/>
      <use xlink:href="#DejaVuSans-Bold-61" transform="translate(1161.521484 0)"/>
      <use xlink:href="#DejaVuSans-Bold-6c" transform="translate(1229.001953 0)"/>
      <use xlink:href="#DejaVuSans-Bold-75" transform="translate(1263.279297 0)"/>
      <use xlink:href="#DejaVuSans-Bold-65" transform="translate(1334.470703 0)"/>
     </g>
    </g>
    <g id="text_38">
     <!-- $\times\mathdefault{10^{4}}\mathdefault{}$ -->
     <g style="fill: #262626" transform="translate(568.508254 53.664) scale(0.165 -0.165)">
      <use xlink:href="#DejaVuSans-Bold-d7" transform="translate(0 0.684375)"/>
      <use xlink:href="#DejaVuSans-Bold-31" transform="translate(83.789062 0.684375)"/>
      <use xlink:href="#DejaVuSans-Bold-30" transform="translate(153.369141 0.684375)"/>
      <use xlink:href="#DejaVuSans-Bold-34" transform="translate(223.90625 38.965625) scale(0.7)"/>
     </g>
    </g>
   </g>
   <g id="line2d_34">
    <path d="M 587.601516 339.519577 
L 591.990771 322.380185 
L 596.380026 306.041602 
L 602.96391 282.308536 
L 607.353165 267.197167 
L 613.937048 246.428134 
L 622.715559 220.573445 
L 627.104815 209.590922 
L 629.299442 204.661267 
L 631.49407 199.450808 
L 633.688698 196.517975 
L 638.077953 191.265917 
L 642.467209 186.336261 
L 646.856464 181.968213 
L 649.051092 179.711387 
L 651.245719 177.683365 
L 655.634975 173.304916 
L 662.218858 167.626452 
L 668.802741 162.603196 
L 679.77588 154.622562 
L 684.165135 151.712298 
L 688.554391 148.673488 
L 692.943646 146.002218 
L 697.332902 143.37026 
L 699.527529 141.956677 
L 708.30604 137.104918 
L 710.500668 135.948737 
L 714.889923 133.47767 
L 721.473806 130.187177 
L 728.05769 127.118102 
L 732.446945 125.205937 
L 741.225456 121.633185 
L 743.420084 120.836952 
L 745.614711 119.904686 
L 754.393222 116.767595 
L 758.782478 115.387707 
L 763.171733 113.798881 
L 780.728755 108.093585 
L 793.896521 104.346319 
L 809.258915 100.231201 
L 811.453543 99.614786 
L 818.037426 98.080041 
L 820.232054 97.467786 
L 824.621309 96.456167 
L 831.205192 94.873789 
L 835.594448 93.912403 
L 839.983703 92.902343 
L 850.956842 90.62659 
L 855.346097 89.776692 
L 864.124608 87.991096 
L 866.319236 87.457466 
L 872.903119 86.284541 
L 883.876258 84.16843 
L 892.654769 82.651469 
L 916.795674 78.497246 
L 921.184929 77.75239 
L 929.96344 76.431159 
L 960.688228 71.685794 
L 969.466739 70.552909 
L 969.466739 70.552909 
" clip-path="url(#p63c12411f1)" style="fill: none; stroke: #ff0000; stroke-width: 2; stroke-linecap: round"/>
    <defs>
     <path id="m601f88fe6f" d="M 0 4.5 
C 1.193414 4.5 2.338109 4.025852 3.181981 3.181981 
C 4.025852 2.338109 4.5 1.193414 4.5 0 
C 4.5 -1.193414 4.025852 -2.338109 3.181981 -3.181981 
C 2.338109 -4.025852 1.193414 -4.5 0 -4.5 
C -1.193414 -4.5 -2.338109 -4.025852 -3.181981 -3.181981 
C -4.025852 -2.338109 -4.5 -1.193414 -4.5 0 
C -4.5 1.193414 -4.025852 2.338109 -3.181981 3.181981 
C -2.338109 4.025852 -1.193414 4.5 0 4.5 
z
" style="stroke: #ff0000"/>
    </defs>
    <g clip-path="url(#p63c12411f1)">
     <use xlink:href="#m601f88fe6f" x="587.601516" y="339.519577" style="fill: #ff0000; stroke: #ff0000"/>
     <use xlink:href="#m601f88fe6f" x="598.574654" y="298.023112" style="fill: #ff0000; stroke: #ff0000"/>
     <use xlink:href="#m601f88fe6f" x="609.547793" y="260.156288" style="fill: #ff0000; stroke: #ff0000"/>
     <use xlink:href="#m601f88fe6f" x="620.520931" y="226.886316" style="fill: #ff0000; stroke: #ff0000"/>
     <use xlink:href="#m601f88fe6f" x="631.49407" y="199.450808" style="fill: #ff0000; stroke: #ff0000"/>
     <use xlink:href="#m601f88fe6f" x="642.467209" y="186.336261" style="fill: #ff0000; stroke: #ff0000"/>
     <use xlink:href="#m601f88fe6f" x="653.440347" y="175.45774" style="fill: #ff0000; stroke: #ff0000"/>
     <use xlink:href="#m601f88fe6f" x="664.413486" y="165.931233" style="fill: #ff0000; stroke: #ff0000"/>
     <use xlink:href="#m601f88fe6f" x="675.386624" y="157.757365" style="fill: #ff0000; stroke: #ff0000"/>
     <use xlink:href="#m601f88fe6f" x="686.359763" y="150.137304" style="fill: #ff0000; stroke: #ff0000"/>
     <use xlink:href="#m601f88fe6f" x="697.332902" y="143.37026" style="fill: #ff0000; stroke: #ff0000"/>
     <use xlink:href="#m601f88fe6f" x="708.30604" y="137.104918" style="fill: #ff0000; stroke: #ff0000"/>
     <use xlink:href="#m601f88fe6f" x="719.279179" y="131.207532" style="fill: #ff0000; stroke: #ff0000"/>
     <use xlink:href="#m601f88fe6f" x="730.252317" y="126.135291" style="fill: #ff0000; stroke: #ff0000"/>
     <use xlink:href="#m601f88fe6f" x="741.225456" y="121.633185" style="fill: #ff0000; stroke: #ff0000"/>
     <use xlink:href="#m601f88fe6f" x="752.198595" y="117.565699" style="fill: #ff0000; stroke: #ff0000"/>
     <use xlink:href="#m601f88fe6f" x="763.171733" y="113.798881" style="fill: #ff0000; stroke: #ff0000"/>
     <use xlink:href="#m601f88fe6f" x="774.144872" y="110.247346" style="fill: #ff0000; stroke: #ff0000"/>
     <use xlink:href="#m601f88fe6f" x="785.11801" y="106.808651" style="fill: #ff0000; stroke: #ff0000"/>
     <use xlink:href="#m601f88fe6f" x="796.091149" y="103.774313" style="fill: #ff0000; stroke: #ff0000"/>
     <use xlink:href="#m601f88fe6f" x="807.064288" y="100.853128" style="fill: #ff0000; stroke: #ff0000"/>
     <use xlink:href="#m601f88fe6f" x="818.037426" y="98.080041" style="fill: #ff0000; stroke: #ff0000"/>
     <use xlink:href="#m601f88fe6f" x="829.010565" y="95.411475" style="fill: #ff0000; stroke: #ff0000"/>
     <use xlink:href="#m601f88fe6f" x="839.983703" y="92.902343" style="fill: #ff0000; stroke: #ff0000"/>
     <use xlink:href="#m601f88fe6f" x="850.956842" y="90.62659" style="fill: #ff0000; stroke: #ff0000"/>
     <use xlink:href="#m601f88fe6f" x="861.929981" y="88.492798" style="fill: #ff0000; stroke: #ff0000"/>
     <use xlink:href="#m601f88fe6f" x="872.903119" y="86.284541" style="fill: #ff0000; stroke: #ff0000"/>
     <use xlink:href="#m601f88fe6f" x="883.876258" y="84.16843" style="fill: #ff0000; stroke: #ff0000"/>
     <use xlink:href="#m601f88fe6f" x="894.849396" y="82.267808" style="fill: #ff0000; stroke: #ff0000"/>
     <use xlink:href="#m601f88fe6f" x="905.822535" y="80.314562" style="fill: #ff0000; stroke: #ff0000"/>
     <use xlink:href="#m601f88fe6f" x="916.795674" y="78.497246" style="fill: #ff0000; stroke: #ff0000"/>
     <use xlink:href="#m601f88fe6f" x="927.768812" y="76.753563" style="fill: #ff0000; stroke: #ff0000"/>
     <use xlink:href="#m601f88fe6f" x="938.741951" y="75.009567" style="fill: #ff0000; stroke: #ff0000"/>
     <use xlink:href="#m601f88fe6f" x="949.715089" y="73.284396" style="fill: #ff0000; stroke: #ff0000"/>
     <use xlink:href="#m601f88fe6f" x="960.688228" y="71.685794" style="fill: #ff0000; stroke: #ff0000"/>
    </g>
   </g>
   <g id="line2d_35">
    <path d="M 587.601516 348.331091 
L 589.796143 344.43322 
L 594.185399 340.941325 
L 596.380026 337.54656 
L 598.574654 336.204436 
L 605.158537 327.653803 
L 607.353165 326.962434 
L 609.547793 325.556755 
L 611.74242 323.085406 
L 613.937048 319.397286 
L 616.131676 316.896037 
L 618.326304 314.584985 
L 622.715559 310.593566 
L 624.910187 305.635092 
L 629.299442 304.584504 
L 631.49407 303.217825 
L 633.688698 302.590344 
L 635.883325 301.502897 
L 638.077953 300.623952 
L 640.272581 299.866096 
L 642.467209 298.74878 
L 644.661836 298.051806 
L 646.856464 295.730812 
L 649.051092 291.281372 
L 651.245719 290.510796 
L 653.440347 283.462252 
L 655.634975 282.357687 
L 657.829603 281.480801 
L 660.02423 279.340145 
L 662.218858 278.903143 
L 666.608113 276.866467 
L 668.802741 276.259069 
L 670.997369 275.312118 
L 673.191997 274.971285 
L 675.386624 274.388452 
L 681.970508 271.913942 
L 684.165135 271.257123 
L 690.749018 270.064146 
L 692.943646 267.42183 
L 695.138274 265.795439 
L 699.527529 264.731206 
L 701.722157 262.801537 
L 703.916785 261.517299 
L 706.111412 260.969452 
L 708.30604 260.898191 
L 710.500668 260.426764 
L 712.695296 260.134593 
L 714.889923 259.695532 
L 717.084551 258.061601 
L 719.279179 256.737011 
L 721.473806 254.829463 
L 723.668434 253.258619 
L 725.863062 252.361338 
L 728.05769 251.800304 
L 730.252317 251.489174 
L 732.446945 250.517304 
L 734.641573 248.413569 
L 736.836201 248.050178 
L 739.030828 246.927756 
L 741.225456 246.58268 
L 743.420084 245.706366 
L 747.809339 244.964318 
L 750.003967 244.084676 
L 752.198595 242.080262 
L 758.782478 240.84036 
L 760.977105 239.372799 
L 763.171733 238.849985 
L 767.560989 237.081862 
L 769.755616 235.341818 
L 771.950244 234.425464 
L 774.144872 231.269965 
L 776.339499 230.908561 
L 778.534127 230.414035 
L 782.923383 229.669907 
L 785.11801 228.778201 
L 791.701894 227.989976 
L 793.896521 227.025885 
L 798.285777 226.117019 
L 800.480404 225.539916 
L 804.86966 224.101372 
L 807.064288 223.778969 
L 809.258915 223.089961 
L 811.453543 222.909519 
L 813.648171 222.128262 
L 815.842798 219.929782 
L 820.232054 219.437856 
L 822.426682 218.812185 
L 824.621309 216.864347 
L 826.815937 213.347444 
L 829.010565 212.896183 
L 831.205192 212.61486 
L 833.39982 211.882484 
L 839.983703 210.957601 
L 842.178331 210.00183 
L 844.372959 209.357127 
L 846.567587 208.942579 
L 848.762214 206.59496 
L 850.956842 206.421798 
L 853.15147 205.656246 
L 855.346097 205.373259 
L 857.540725 204.627882 
L 864.124608 203.767169 
L 868.513864 202.849878 
L 870.708491 202.548795 
L 872.903119 201.032042 
L 875.097747 200.528364 
L 877.292375 200.371011 
L 879.487002 199.550961 
L 883.876258 198.459781 
L 888.265513 197.954336 
L 890.460141 197.28904 
L 892.654769 196.787859 
L 894.849396 196.642985 
L 897.044024 196.078467 
L 903.627907 195.110632 
L 908.017163 193.879778 
L 910.21179 193.093945 
L 912.406418 192.906951 
L 914.601046 192.60462 
L 916.795674 189.115485 
L 918.990301 188.946275 
L 921.184929 188.450605 
L 923.379557 188.220451 
L 927.768812 186.273445 
L 929.96344 185.920777 
L 934.352695 185.537949 
L 936.547323 185.1728 
L 938.741951 185.041967 
L 940.936578 184.79746 
L 943.131206 184.702091 
L 945.325834 184.476513 
L 947.520462 183.568062 
L 949.715089 183.141138 
L 951.909717 182.841822 
L 956.298973 182.572667 
L 958.4936 182.136278 
L 960.688228 181.919228 
L 962.882856 178.70528 
L 969.466739 177.838638 
L 969.466739 177.838638 
" clip-path="url(#p63c12411f1)" style="fill: none; stroke-dasharray: 7.4,3.2; stroke-dashoffset: 0; stroke: #0000ff; stroke-width: 2"/>
    <defs>
     <path id="m8e2e4fa21c" d="M -4.5 4.5 
L 4.5 4.5 
L 4.5 -4.5 
L -4.5 -4.5 
z
" style="stroke: #0000ff; stroke-linejoin: miter"/>
    </defs>
    <g clip-path="url(#p63c12411f1)">
     <use xlink:href="#m8e2e4fa21c" x="587.601516" y="348.331091" style="fill: #0000ff; stroke: #0000ff; stroke-linejoin: miter"/>
     <use xlink:href="#m8e2e4fa21c" x="598.574654" y="336.204436" style="fill: #0000ff; stroke: #0000ff; stroke-linejoin: miter"/>
     <use xlink:href="#m8e2e4fa21c" x="609.547793" y="325.556755" style="fill: #0000ff; stroke: #0000ff; stroke-linejoin: miter"/>
     <use xlink:href="#m8e2e4fa21c" x="620.520931" y="312.547831" style="fill: #0000ff; stroke: #0000ff; stroke-linejoin: miter"/>
     <use xlink:href="#m8e2e4fa21c" x="631.49407" y="303.217825" style="fill: #0000ff; stroke: #0000ff; stroke-linejoin: miter"/>
     <use xlink:href="#m8e2e4fa21c" x="642.467209" y="298.74878" style="fill: #0000ff; stroke: #0000ff; stroke-linejoin: miter"/>
     <use xlink:href="#m8e2e4fa21c" x="653.440347" y="283.462252" style="fill: #0000ff; stroke: #0000ff; stroke-linejoin: miter"/>
     <use xlink:href="#m8e2e4fa21c" x="664.413486" y="277.825763" style="fill: #0000ff; stroke: #0000ff; stroke-linejoin: miter"/>
     <use xlink:href="#m8e2e4fa21c" x="675.386624" y="274.388452" style="fill: #0000ff; stroke: #0000ff; stroke-linejoin: miter"/>
     <use xlink:href="#m8e2e4fa21c" x="686.359763" y="270.845268" style="fill: #0000ff; stroke: #0000ff; stroke-linejoin: miter"/>
     <use xlink:href="#m8e2e4fa21c" x="697.332902" y="265.254727" style="fill: #0000ff; stroke: #0000ff; stroke-linejoin: miter"/>
     <use xlink:href="#m8e2e4fa21c" x="708.30604" y="260.898191" style="fill: #0000ff; stroke: #0000ff; stroke-linejoin: miter"/>
     <use xlink:href="#m8e2e4fa21c" x="719.279179" y="256.737011" style="fill: #0000ff; stroke: #0000ff; stroke-linejoin: miter"/>
     <use xlink:href="#m8e2e4fa21c" x="730.252317" y="251.489174" style="fill: #0000ff; stroke: #0000ff; stroke-linejoin: miter"/>
     <use xlink:href="#m8e2e4fa21c" x="741.225456" y="246.58268" style="fill: #0000ff; stroke: #0000ff; stroke-linejoin: miter"/>
     <use xlink:href="#m8e2e4fa21c" x="752.198595" y="242.080262" style="fill: #0000ff; stroke: #0000ff; stroke-linejoin: miter"/>
     <use xlink:href="#m8e2e4fa21c" x="763.171733" y="238.849985" style="fill: #0000ff; stroke: #0000ff; stroke-linejoin: miter"/>
     <use xlink:href="#m8e2e4fa21c" x="774.144872" y="231.269965" style="fill: #0000ff; stroke: #0000ff; stroke-linejoin: miter"/>
     <use xlink:href="#m8e2e4fa21c" x="785.11801" y="228.778201" style="fill: #0000ff; stroke: #0000ff; stroke-linejoin: miter"/>
     <use xlink:href="#m8e2e4fa21c" x="796.091149" y="226.586376" style="fill: #0000ff; stroke: #0000ff; stroke-linejoin: miter"/>
     <use xlink:href="#m8e2e4fa21c" x="807.064288" y="223.778969" style="fill: #0000ff; stroke: #0000ff; stroke-linejoin: miter"/>
     <use xlink:href="#m8e2e4fa21c" x="818.037426" y="219.662707" style="fill: #0000ff; stroke: #0000ff; stroke-linejoin: miter"/>
     <use xlink:href="#m8e2e4fa21c" x="829.010565" y="212.896183" style="fill: #0000ff; stroke: #0000ff; stroke-linejoin: miter"/>
     <use xlink:href="#m8e2e4fa21c" x="839.983703" y="210.957601" style="fill: #0000ff; stroke: #0000ff; stroke-linejoin: miter"/>
     <use xlink:href="#m8e2e4fa21c" x="850.956842" y="206.421798" style="fill: #0000ff; stroke: #0000ff; stroke-linejoin: miter"/>
     <use xlink:href="#m8e2e4fa21c" x="861.929981" y="204.0435" style="fill: #0000ff; stroke: #0000ff; stroke-linejoin: miter"/>
     <use xlink:href="#m8e2e4fa21c" x="872.903119" y="201.032042" style="fill: #0000ff; stroke: #0000ff; stroke-linejoin: miter"/>
     <use xlink:href="#m8e2e4fa21c" x="883.876258" y="198.459781" style="fill: #0000ff; stroke: #0000ff; stroke-linejoin: miter"/>
     <use xlink:href="#m8e2e4fa21c" x="894.849396" y="196.642985" style="fill: #0000ff; stroke: #0000ff; stroke-linejoin: miter"/>
     <use xlink:href="#m8e2e4fa21c" x="905.822535" y="194.514081" style="fill: #0000ff; stroke: #0000ff; stroke-linejoin: miter"/>
     <use xlink:href="#m8e2e4fa21c" x="916.795674" y="189.115485" style="fill: #0000ff; stroke: #0000ff; stroke-linejoin: miter"/>
     <use xlink:href="#m8e2e4fa21c" x="927.768812" y="186.273445" style="fill: #0000ff; stroke: #0000ff; stroke-linejoin: miter"/>
     <use xlink:href="#m8e2e4fa21c" x="938.741951" y="185.041967" style="fill: #0000ff; stroke: #0000ff; stroke-linejoin: miter"/>
     <use xlink:href="#m8e2e4fa21c" x="949.715089" y="183.141138" style="fill: #0000ff; stroke: #0000ff; stroke-linejoin: miter"/>
     <use xlink:href="#m8e2e4fa21c" x="960.688228" y="181.919228" style="fill: #0000ff; stroke: #0000ff; stroke-linejoin: miter"/>
    </g>
   </g>
   <g id="patch_9">
    <path d="M 568.508254 362.22 
L 568.508254 56.664 
" style="fill: none; stroke: #cccccc; stroke-width: 1.875; stroke-linejoin: miter; stroke-linecap: square"/>
   </g>
   <g id="patch_10">
    <path d="M 988.56 362.22 
L 988.56 56.664 
" style="fill: none; stroke: #cccccc; stroke-width: 1.875; stroke-linejoin: miter; stroke-linecap: square"/>
   </g>
   <g id="patch_11">
    <path d="M 568.508254 362.22 
L 988.56 362.22 
" style="fill: none; stroke: #cccccc; stroke-width: 1.875; stroke-linejoin: miter; stroke-linecap: square"/>
   </g>
   <g id="patch_12">
    <path d="M 568.508254 56.664 
L 988.56 56.664 
" style="fill: none; stroke: #cccccc; stroke-width: 1.875; stroke-linejoin: miter; stroke-linecap: square"/>
   </g>
   <g id="text_39">
    <!-- Goal-Oriented Objective -->
    <g style="fill: #262626" transform="translate(656.425221 50.664) scale(0.18 -0.18)">
     <use xlink:href="#DejaVuSans-Bold-47"/>
     <use xlink:href="#DejaVuSans-Bold-6f" transform="translate(82.080078 0)"/>
     <use xlink:href="#DejaVuSans-Bold-61" transform="translate(150.78125 0)"/>
     <use xlink:href="#DejaVuSans-Bold-6c" transform="translate(218.261719 0)"/>
     <use xlink:href="#DejaVuSans-Bold-2d" transform="translate(252.539062 0)"/>
     <use xlink:href="#DejaVuSans-Bold-4f" transform="translate(294.042969 0)"/>
     <use xlink:href="#DejaVuSans-Bold-72" transform="translate(379.052734 0)"/>
     <use xlink:href="#DejaVuSans-Bold-69" transform="translate(428.369141 0)"/>
     <use xlink:href="#DejaVuSans-Bold-65" transform="translate(462.646484 0)"/>
     <use xlink:href="#DejaVuSans-Bold-6e" transform="translate(530.46875 0)"/>
     <use xlink:href="#DejaVuSans-Bold-74" transform="translate(601.660156 0)"/>
     <use xlink:href="#DejaVuSans-Bold-65" transform="translate(649.462891 0)"/>
     <use xlink:href="#DejaVuSans-Bold-64" transform="translate(717.285156 0)"/>
     <use xlink:href="#DejaVuSans-Bold-20" transform="translate(788.867188 0)"/>
     <use xlink:href="#DejaVuSans-Bold-4f" transform="translate(823.681641 0)"/>
     <use xlink:href="#DejaVuSans-Bold-62" transform="translate(908.691406 0)"/>
     <use xlink:href="#DejaVuSans-Bold-6a" transform="translate(980.273438 0)"/>
     <use xlink:href="#DejaVuSans-Bold-65" transform="translate(1014.550781 0)"/>
     <use xlink:href="#DejaVuSans-Bold-63" transform="translate(1082.373047 0)"/>
     <use xlink:href="#DejaVuSans-Bold-74" transform="translate(1141.650391 0)"/>
     <use xlink:href="#DejaVuSans-Bold-69" transform="translate(1189.453125 0)"/>
     <use xlink:href="#DejaVuSans-Bold-76" transform="translate(1223.730469 0)"/>
     <use xlink:href="#DejaVuSans-Bold-65" transform="translate(1288.916016 0)"/>
    </g>
   </g>
   <g id="legend_2">
    <g id="patch_13">
     <path d="M 699.853828 353.97 
L 977.01 353.97 
Q 980.31 353.97 980.31 350.67 
L 980.31 303.882187 
Q 980.31 300.582187 977.01 300.582187 
L 699.853828 300.582187 
Q 696.553828 300.582187 696.553828 303.882187 
L 696.553828 350.67 
Q 696.553828 353.97 699.853828 353.97 
z
" style="fill: #ffffff; opacity: 0.8; stroke: #cccccc; stroke-width: 1.5; stroke-linejoin: miter"/>
    </g>
    <g id="line2d_36">
     <path d="M 703.153828 313.944609 
L 719.653828 313.944609 
L 736.153828 313.944609 
" style="fill: none; stroke: #ff0000; stroke-width: 2; stroke-linecap: round"/>
     <g>
      <use xlink:href="#m601f88fe6f" x="719.653828" y="313.944609" style="fill: #ff0000; stroke: #ff0000"/>
     </g>
    </g>
    <g id="text_40">
     <!-- Goal-Oriented (Optimal) -->
     <g style="fill: #262626" transform="translate(749.353828 319.719609) scale(0.165 -0.165)">
      <use xlink:href="#DejaVuSans-Bold-47"/>
      <use xlink:href="#DejaVuSans-Bold-6f" transform="translate(82.080078 0)"/>
      <use xlink:href="#DejaVuSans-Bold-61" transform="translate(150.78125 0)"/>
      <use xlink:href="#DejaVuSans-Bold-6c" transform="translate(218.261719 0)"/>
      <use xlink:href="#DejaVuSans-Bold-2d" transform="translate(252.539062 0)"/>
      <use xlink:href="#DejaVuSans-Bold-4f" transform="translate(294.042969 0)"/>
      <use xlink:href="#DejaVuSans-Bold-72" transform="translate(379.052734 0)"/>
      <use xlink:href="#DejaVuSans-Bold-69" transform="translate(428.369141 0)"/>
      <use xlink:href="#DejaVuSans-Bold-65" transform="translate(462.646484 0)"/>
      <use xlink:href="#DejaVuSans-Bold-6e" transform="translate(530.46875 0)"/>
      <use xlink:href="#DejaVuSans-Bold-74" transform="translate(601.660156 0)"/>
      <use xlink:href="#DejaVuSans-Bold-65" transform="translate(649.462891 0)"/>
      <use xlink:href="#DejaVuSans-Bold-64" transform="translate(717.285156 0)"/>
      <use xlink:href="#DejaVuSans-Bold-20" transform="translate(788.867188 0)"/>
      <use xlink:href="#DejaVuSans-Bold-28" transform="translate(823.681641 0)"/>
      <use xlink:href="#DejaVuSans-Bold-4f" transform="translate(869.384766 0)"/>
      <use xlink:href="#DejaVuSans-Bold-70" transform="translate(954.394531 0)"/>
      <use xlink:href="#DejaVuSans-Bold-74" transform="translate(1025.976562 0)"/>
      <use xlink:href="#DejaVuSans-Bold-69" transform="translate(1073.779297 0)"/>
      <use xlink:href="#DejaVuSans-Bold-6d" transform="translate(1108.056641 0)"/>
      <use xlink:href="#DejaVuSans-Bold-61" transform="translate(1212.255859 0)"/>
      <use xlink:href="#DejaVuSans-Bold-6c" transform="translate(1279.736328 0)"/>
      <use xlink:href="#DejaVuSans-Bold-29" transform="translate(1314.013672 0)"/>
     </g>
    </g>
    <g id="line2d_37">
     <path d="M 703.153828 338.163516 
L 719.653828 338.163516 
L 736.153828 338.163516 
" style="fill: none; stroke-dasharray: 7.4,3.2; stroke-dashoffset: 0; stroke: #0000ff; stroke-width: 2"/>
     <g>
      <use xlink:href="#m8e2e4fa21c" x="719.653828" y="338.163516" style="fill: #0000ff; stroke: #0000ff; stroke-linejoin: miter"/>
     </g>
    </g>
    <g id="text_41">
     <!-- Standard -->
     <g style="fill: #262626" transform="translate(749.353828 343.938516) scale(0.165 -0.165)">
      <use xlink:href="#DejaVuSans-Bold-53"/>
      <use xlink:href="#DejaVuSans-Bold-74" transform="translate(72.021484 0)"/>
      <use xlink:href="#DejaVuSans-Bold-61" transform="translate(119.824219 0)"/>
      <use xlink:href="#DejaVuSans-Bold-6e" transform="translate(187.304688 0)"/>
      <use xlink:href="#DejaVuSans-Bold-64" transform="translate(258.496094 0)"/>
      <use xlink:href="#DejaVuSans-Bold-61" transform="translate(330.078125 0)"/>
      <use xlink:href="#DejaVuSans-Bold-72" transform="translate(397.558594 0)"/>
      <use xlink:href="#DejaVuSans-Bold-64" transform="translate(446.875 0)"/>
     </g>
    </g>
   </g>
  </g>
 </g>
 <defs>
  <clipPath id="p5d1bef25ec">
   <rect x="65.37" y="56.664" width="420.051746" height="305.556"/>
  </clipPath>
  <clipPath id="p63c12411f1">
   <rect x="568.508254" y="56.664" width="420.051746" height="305.556"/>
  </clipPath>
 </defs>
</svg>
