<svg xmlns="http://www.w3.org/2000/svg" xmlns:xlink="http://www.w3.org/1999/xlink" version="1.1" width="491" height="391" viewBox="0 0 491 391">
<defs>
<path id="font_0_17" d="M.272995 .723999C.19699097 .723999 .13198853 .69200137 .08898926 .6329956 .04798889 .5779877 .0289917 .48799134 .0289917 .34999085 .0289917 .22399903 .04499817 .13598633 .07899475 .08198547 .12098694 .01399231 .18998719-.023010254 .272995-.023010254 .34999085-.023010254 .41299439 .0079956059 .45700074 .066986087 .49699403 .12199402 .5169983 .21299744 .5169983 .34599305 .5169983 .47599793 .5009918 .56399539 .46699525 .61898806 .4249878 .68699648 .35598756 .723999 .272995 .723999M.272995 .61099246C.30899049 .61099246 .33799745 .59098818 .35499574 .55400088 .36898805 .5239868 .3769989 .44699098 .3769989 .34899903 .3769989 .2689972 .36999513 .19099427 .35899354 .1619873 .34298707 .11999512 .31298829 .09700012 .272995 .09700012 .23599243 .09700012 .20799256 .115997318 .19099427 .1519928 .1769867 .18199158 .16899109 .2559967 .16899109 .35099793 .16899109 .43499757 .17599488 .5149994 .18699646 .5439911 .20199585 .58699038 .23298645 .61099246 .272995 .61099246Z"/>
<path id="font_0_18" d="M.23799134 .4889984V0H.37799073V.70899966H.2849884C.2630005 .625 .18998719 .58200076 .067993167 .58200076V.4889984H.23799134Z"/>
<path id="font_0_19" d="M.5119934 .125H.21099854C.22999573 .16299439 .2519989 .18399048 .35598756 .25898744 .47898866 .34899903 .5149994 .4019928 .5149994 .49899293 .5149994 .6359863 .41999818 .723999 .27198792 .723999 .125 .723999 .038986207 .6369934 .038986207 .4869995V.46199037H.17399597V.4850006C.17399597 .56399539 .21099854 .6100006 .2749939 .6100006 .33699037 .6100006 .375 .5669861 .375 .49598695 .375 .4169922 .35099793 .3880005 .19299317 .27598573 .07299805 .19400025 .035995485 .13198853 .02999878 0H.5119934V.125Z"/>
<path id="font_0_20" d="M.21699524 .31698609C.2709961 .31698609 .27398683 .31698609 .29899598 .30999757 .34599305 .29699708 .37599183 .2559967 .37599183 .20399475 .37599183 .14099121 .33198548 .09700012 .2709961 .09700012 .20498657 .09700012 .16899109 .1349945 .16499329 .20799256H.0289917C.02999878 .06599426 .12199402-.023010254 .2679901-.023010254 .4189911-.023010254 .5159912 .06599426 .5159912 .20399475 .5159912 .2869873 .47999574 .34098817 .3999939 .37998963 .46499635 .42099 .49299623 .46598817 .49299623 .5309906 .49299623 .6489868 .40499879 .723999 .2679901 .723999 .16499329 .723999 .085998538 .67900088 .054992677 .60198977 .041992189 .56799319 .037994386 .54499819 .037994386 .48599244H.16799927C.16899109 .5239868 .17199707 .54299929 .1789856 .5609894 .19198609 .59199526 .22399903 .61099246 .2649994 .61099246 .32099916 .61099246 .35299684 .57699587 .35299684 .5179901 .35299684 .44599916 .31199647 .41099549 .22898865 .41099549H.21699524V.31698609Z"/>
<path id="font_0_21" d="M.5219879 .272995H.44799806V.70899966H.2829895L.023986817 .2749939V.15699768H.30799867V0H.44799806V.15699768H.5219879V.272995M.30799867 .272995H.12298584L.30799867 .57598879V.272995Z"/>
<path id="font_0_22" d="M.4889984 .70899966H.10998535L.04699707 .31399537H.17298889C.18798828 .34899903 .21998596 .36799623 .2630005 .36799623 .33399964 .36799623 .3769989 .31698609 .3769989 .23098755 .3769989 .147995 .33399964 .09700012 .2630005 .09700012 .20199585 .09700012 .16799927 .12799073 .16499329 .18499756H.026992798C.0289917 .06098938 .12298584-.023010254 .26098634-.023010254 .41299439-.023010254 .5169983 .08099365 .5169983 .23399353 .5169983 .37998963 .4269867 .47898866 .29599 .47898866 .24899292 .47898866 .21398926 .46699525 .17298889 .43598939L.19599915 .58399966H.4889984V.70899966Z"/>
<path id="font_0_53" d="M.3849945 .60398867H.59799197V.72898867H.01399231V.60398867H.23498535V0H.3849945V.60398867Z"/>
<path id="font_0_74" d="M.20698548 .5399933H.066986087V0H.20698548V.5399933M.20698548 .72898867H.066986087V.60398867H.20698548V.72898867Z"/>
<path id="font_0_78" d="M.05999756 .5399933V0H.19999695V.32398988C.19999695 .3909912 .23599243 .42999269 .29599 .42999269 .34298707 .42999269 .37199403 .40299989 .37199403 .3600006V0H.5119934V.32398988C.5119934 .3899994 .5479889 .42999269 .60798647 .42999269 .6549988 .42999269 .6839905 .40299989 .6839905 .3600006V0H.82398989V.38198854C.82398989 .4869995 .7599945 .548996 .6519928 .548996 .58299258 .548996 .5359955 .5249939 .49398805 .46899415 .46798707 .519989 .4139862 .548996 .34700013 .548996 .2849884 .548996 .24499512 .5289917 .19898987 .47299195V.5399933H.05999756Z"/>
<path id="font_0_70" d="M.5239868 .22599793C.5249939 .23799134 .5249939 .24299622 .5249939 .25 .5249939 .3039856 .5169983 .35398866 .5039978 .3919983 .46798707 .48999024 .3809967 .548996 .27198792 .548996 .116989139 .548996 .021987915 .43699647 .021987915 .2559967 .021987915 .08299255 .115997318-.023010254 .2689972-.023010254 .3899994-.023010254 .48799134 .04499817 .5189972 .1519928H.3809967C.3639984 .10899353 .32499696 .083999637 .27398683 .083999637 .23399353 .083999637 .20199585 .100997928 .18199158 .1309967 .16899109 .15098572 .1639862 .1749878 .1619873 .22599793H.5239868M.1639862 .31900025C.17298889 .4019928 .20799256 .44198609 .269989 .44198609 .33399964 .44198609 .37199403 .39898683 .3789978 .31900025H.1639862Z"/>
<path id="font_0_1" d="M0 0Z"/>
<path id="font_0_9" d="M.20298767 .72898867C.08799744 .5549927 .039993287 .4189911 .039993287 .2649994 .039993287 .10998535 .08799744-.026000977 .20298767-.2000122H.30299378C.19599915 .005996704 .16299439 .116989139 .16299439 .2649994 .16299439 .4119873 .19699097 .5249939 .30299378 .72898867H.20298767Z"/>
<path id="font_0_84" d="M.5049896 .3659973C.5029907 .47999574 .4149933 .548996 .269989 .548996 .1329956 .548996 .04798889 .47999574 .04798889 .36898805 .04798889 .33299256 .05899048 .3019867 .07798767 .2809906 .09700012 .2619934 .11399841 .25299073 .1659851 .23599243L.33299256 .18399048C.36799623 .17298889 .37998963 .1619873 .37998963 .13999939 .37998963 .10699463 .34098817 .08699036 .27598573 .08699036 .23899842 .08699036 .21099854 .09298706 .19299317 .10598755 .17799378 .116989139 .17199707 .12799073 .1659851 .15699768H.0289917C.032989503 .037994386 .11999512-.023010254 .28399659-.023010254 .35899354-.023010254 .41600038-.007003784 .45599366 .024993897 .49598695 .056991579 .519989 .10699463 .519989 .1599884 .519989 .22999573 .4850006 .2749939 .4139862 .29599L.23699951 .34700013C.19799805 .35899354 .18798828 .36698915 .18798828 .3889923 .18798828 .4189911 .21998596 .43899537 .2689972 .43899537 .33599855 .43899537 .36898805 .4149933 .36999513 .3659973H.5049896Z"/>
<path id="font_0_10" d="M.12199402-.2000122C.23699951-.026000977 .2849884 .10998535 .2849884 .2639923 .2849884 .4189911 .23699951 .5549927 .12199402 .72898867H.021987915C.1289978 .522995 .1619873 .4119873 .1619873 .2639923 .1619873 .116989139 .12799073 .0039978029 .021987915-.2000122H.12199402Z"/>
<path id="font_0_14" d="M.2979889 .34199525H.025985718V.20698548H.2979889V.34199525Z"/>
<path id="font_0_15" d="M.21398926 .1459961H.06399536V0H.21398926V.1459961Z"/>
<path id="font_0_49" d="M.22599793 .2599945H.41299439C.5469971 .2599945 .6329956 .35499574 .6329956 .5029907 .6329956 .6489868 .5499878 .72898867 .397995 .72898867H.07598877V0H.22599793V.2599945M.22599793 .3849945V.60398867H.3659973C.44599916 .60398867 .48298646 .56900027 .48298646 .49499513 .48298646 .41999818 .44599916 .3849945 .3659973 .3849945H.22599793Z"/>
<path id="font_0_83" d="M.06298828 .5399933V0H.20298767V.2869873C.20298767 .36898805 .24398804 .4099884 .32598878 .4099884 .34098817 .4099884 .35099793 .40899659 .36999513 .4059906V.5479889C.3619995 .548996 .35899354 .548996 .35299684 .548996 .2889862 .548996 .23399353 .5069885 .20298767 .43399049V.5399933H.06298828Z"/>
<path id="font_0_86" d="M.54100039 0V.5399933H.40098573V.20199585C.40098573 .13798523 .35699464 .09599304 .28799439 .09599304 .22799683 .09599304 .19799805 .12799073 .19799805 .19299317V.5399933H.057998659V.1639862C.057998659 .04399109 .12298584-.023010254 .23899842-.023010254 .31199647-.023010254 .36099244 .0029907227 .40098573 .06399536V0H.54100039Z"/>
<path id="font_0_46" d="M.21598816 .56799319 .34700013 0H.49699403L.6259918 .56799319V0H.776001V.72898867H.5499878L.42199708 .14898682 .2899933 .72898867H.06599426V0H.21598816V.56799319Z"/>
<path id="font_0_66" d="M.5239868 .016998291C.5 .039993287 .49198915 .055999757 .49198915 .08299255V.3829956C.49198915 .49299623 .4169922 .548996 .2709961 .548996 .125 .548996 .04899597 .4869995 .039993287 .3619995H.1749878C.18199158 .41799928 .20498657 .43598939 .27398683 .43598939 .32798768 .43598939 .35499574 .41799928 .35499574 .38198854 .35499574 .3639984 .34599305 .34899903 .33099366 .33999635 .31199647 .32998658 .31199647 .32998658 .24299622 .31900025L.18699646 .30899049C.07998657 .29100038 .027999878 .23599243 .027999878 .13899231 .027999878 .041992189 .09298706-.023010254 .19198609-.023010254 .2519989-.023010254 .30599977 .0019989014 .35598756 .053985597 .35598756 .025985718 .35899354 .015991211 .37199403 0H.5239868V.016998291M.35499574 .21699524C.35499574 .13598633 .31498719 .08999634 .24398804 .08999634 .19699097 .08999634 .16799927 .114990238 .16799927 .15499878 .16799927 .19699097 .18998719 .21699524 .24798584 .22898865L.29599 .23799134C.33299256 .24499512 .33898927 .24699402 .35499574 .25498963V.21699524Z"/>
<path id="font_0_52" d="M.6069946 .5069885C.60598757 .6579895 .5049896 .7409973 .32099916 .7409973 .1459961 .7409973 .04499817 .6589966 .04499817 .5169983 .04499817 .4039917 .101989749 .34899903 .25 .32099916L.35198976 .30099488C.45199586 .28199769 .4889984 .2539978 .4889984 .19499207 .4889984 .13398743 .43299867 .09700012 .34199525 .09700012 .23999024 .09700012 .18299866 .13999939 .17799378 .21798706H.03199768C.040985109 .06199646 .147995-.023010254 .33399964-.023010254 .5219879-.023010254 .6329956 .06399536 .6329956 .21299744 .6329956 .32798768 .57499697 .3880005 .43998719 .4139862L.32598878 .43598939C.21899414 .45700074 .18798828 .47799684 .18798828 .5309906 .18798828 .58599856 .23599243 .62098696 .31399537 .62098696 .40899659 .62098696 .46199037 .58099368 .46699525 .5069885H.6069946Z"/>
<path id="font_0_79" d="M.06298828 .5399933V0H.20298767V.32398988C.20298767 .3880005 .24699402 .42999269 .31599427 .42999269 .37599183 .42999269 .4059906 .39698792 .4059906 .33299256V0H.54599V.3619995C.54599 .48199464 .48098756 .548996 .36499024 .548996 .2919922 .548996 .24299622 .522995 .20298767 .46199037V.5399933H.06298828Z"/>
<path id="font_0_80" d="M.30099488 .548996C.13598633 .548996 .034988405 .43998719 .034988405 .2630005 .034988405 .084991458 .13598633-.023010254 .3019867-.023010254 .46699525-.023010254 .56900027 .084991458 .56900027 .25898744 .56900027 .44198609 .46998597 .548996 .30099488 .548996M.3019867 .43598939C.3789978 .43598939 .42900086 .36698915 .42900086 .26098634 .42900086 .1599884 .3769989 .08999634 .3019867 .08999634 .22599793 .08999634 .1749878 .15899658 .1749878 .2630005 .1749878 .36698915 .22599793 .43598939 .3019867 .43598939Z"/>
<path id="font_0_27" d="M.2630005 .1459961H.11299133V0H.2630005V.1459961M.2630005 .519989H.11299133V.37399293H.2630005V.519989Z"/>
<path id="font_0_23" d="M.5069885 .5479889C.5 .59399417 .4909973 .61698916 .47299195 .6429901 .43598939 .69400027 .37098695 .723999 .2939911 .723999 .20599365 .723999 .13398743 .68499758 .09098816 .6139984 .04899597 .54499819 .03199768 .46598817 .03199768 .33699037 .03199768 .21499634 .04699707 .13899231 .08299255 .08198547 .12399292 .015991211 .19799805-.023010254 .28199769-.023010254 .4229889-.023010254 .5189972 .08198547 .5189972 .23699951 .5189972 .37298585 .43499757 .46699525 .31298829 .46699525 .25498963 .46699525 .21598816 .44999696 .17199707 .4039917L.17298889 .4189911C.1749878 .4850006 .17799378 .5059967 .18798828 .5329895 .20698548 .58499148 .24099732 .61099246 .2899933 .61099246 .33499146 .61099246 .35899354 .59298709 .3769989 .5479889H.5069885M.27799989 .35598756C.34399415 .35598756 .38598634 .30599977 .38598634 .22698975 .38598634 .1519928 .33999635 .09700012 .27799989 .09700012 .21398926 .09700012 .16999817 .14898682 .16999817 .22499085 .16999817 .3019867 .21398926 .35598756 .27799989 .35598756Z"/>
<path id="font_0_13" d="M.06399536 .1459961V0H.1499939C.1519928-.06800842 .12399292-.10700989 .06399536-.118011478V-.17401123C.17098999-.15800476 .21798706-.10101318 .21398926 .008987427V.1459961H.06399536Z"/>
<path id="font_0_25" d="M.40899659 .38598634C.43299867 .39898683 .44400025 .4059906 .45498658 .41600038 .48399354 .44299317 .5009918 .48599244 .5009918 .5319977 .5009918 .6429901 .40499879 .723999 .27398683 .723999 .14199829 .723999 .04598999 .6429901 .04598999 .5309906 .04598999 .46299745 .07398987 .41999818 .13798523 .38598634 .055999757 .34098817 .021987915 .28799439 .021987915 .20399475 .021987915 .069992069 .125-.023010254 .27398683-.023010254 .42199708-.023010254 .5249939 .069992069 .5249939 .20399475 .5249939 .28799439 .4909973 .34098817 .40899659 .38598634M.2749939 .61099246C.33699037 .61099246 .37998963 .57299807 .37998963 .5179901 .37998963 .46398927 .33599855 .4249878 .2749939 .4249878 .21199036 .4249878 .16899109 .46299745 .16899109 .5189972 .16899109 .57299807 .21199036 .61099246 .2749939 .61099246M.272995 .32998658C.34199525 .32998658 .3849945 .28399659 .3849945 .20999146 .3849945 .14199829 .34098817 .09700012 .272995 .09700012 .20498657 .09700012 .1619873 .14199829 .1619873 .21199036 .1619873 .28399659 .20498657 .32998658 .272995 .32998658Z"/>
</defs>
<path transform="matrix(1,0,0,1,-24.4426,-26.503998)" d="M0 0H1120V840H0Z" fill="#ffffff"/>
<path transform="matrix(1,0,0,1,-24.4426,-26.503998)" d="M73 374H507V31.5H73Z" fill="#ffffff"/>
<path transform="matrix(1,0,0,1,-24.4426,-26.503998)" stroke-width=".5" stroke-linecap="butt" stroke-linejoin="round" fill="none" stroke="#323232" stroke-opacity=".14901962" d="M73 374V31.499999"/>
<path transform="matrix(1,0,0,1,-24.4426,-26.503998)" stroke-width=".5" stroke-linecap="butt" stroke-linejoin="round" fill="none" stroke="#323232" stroke-opacity=".14901962" d="M159.8 374V31.499999"/>
<path transform="matrix(1,0,0,1,-24.4426,-26.503998)" stroke-width=".5" stroke-linecap="butt" stroke-linejoin="round" fill="none" stroke="#323232" stroke-opacity=".14901962" d="M246.6 374V31.499999"/>
<path transform="matrix(1,0,0,1,-24.4426,-26.503998)" stroke-width=".5" stroke-linecap="butt" stroke-linejoin="round" fill="none" stroke="#323232" stroke-opacity=".14901962" d="M333.4 374V31.499999"/>
<path transform="matrix(1,0,0,1,-24.4426,-26.503998)" stroke-width=".5" stroke-linecap="butt" stroke-linejoin="round" fill="none" stroke="#323232" stroke-opacity=".14901962" d="M420.2 374V31.499999"/>
<path transform="matrix(1,0,0,1,-24.4426,-26.503998)" stroke-width=".5" stroke-linecap="butt" stroke-linejoin="round" fill="none" stroke="#323232" stroke-opacity=".14901962" d="M507 374V31.499999"/>
<path transform="matrix(1,0,0,1,-24.4426,-26.503998)" stroke-width=".5" stroke-linecap="butt" stroke-linejoin="round" fill="none" stroke="#323232" stroke-opacity=".14901962" d="M507 374H73"/>
<path transform="matrix(1,0,0,1,-24.4426,-26.503998)" stroke-width=".5" stroke-linecap="butt" stroke-linejoin="round" fill="none" stroke="#323232" stroke-opacity=".14901962" d="M507 331.1875H73"/>
<path transform="matrix(1,0,0,1,-24.4426,-26.503998)" stroke-width=".5" stroke-linecap="butt" stroke-linejoin="round" fill="none" stroke="#323232" stroke-opacity=".14901962" d="M507 288.375H73"/>
<path transform="matrix(1,0,0,1,-24.4426,-26.503998)" stroke-width=".5" stroke-linecap="butt" stroke-linejoin="round" fill="none" stroke="#323232" stroke-opacity=".14901962" d="M507 245.5625H73"/>
<path transform="matrix(1,0,0,1,-24.4426,-26.503998)" stroke-width=".5" stroke-linecap="butt" stroke-linejoin="round" fill="none" stroke="#323232" stroke-opacity=".14901962" d="M507 202.75H73"/>
<path transform="matrix(1,0,0,1,-24.4426,-26.503998)" stroke-width=".5" stroke-linecap="butt" stroke-linejoin="round" fill="none" stroke="#323232" stroke-opacity=".14901962" d="M507 159.9375H73"/>
<path transform="matrix(1,0,0,1,-24.4426,-26.503998)" stroke-width=".5" stroke-linecap="butt" stroke-linejoin="round" fill="none" stroke="#323232" stroke-opacity=".14901962" d="M507 117.125H73"/>
<path transform="matrix(1,0,0,1,-24.4426,-26.503998)" stroke-width=".5" stroke-linecap="butt" stroke-linejoin="round" fill="none" stroke="#323232" stroke-opacity=".14901962" d="M507 74.31249H73"/>
<path transform="matrix(1,0,0,1,-24.4426,-26.503998)" stroke-width=".5" stroke-linecap="butt" stroke-linejoin="round" fill="none" stroke="#323232" stroke-opacity=".14901962" d="M507 31.499999H73"/>
<path transform="matrix(1,0,0,1,-24.4426,-26.503998)" stroke-width=".5" stroke-linecap="square" stroke-linejoin="round" fill="none" stroke="#323232" d="M73 374H507"/>
<path transform="matrix(1,0,0,1,-24.4426,-26.503998)" stroke-width=".5" stroke-linecap="square" stroke-linejoin="round" fill="none" stroke="#323232" d="M73 31.499999H507"/>
<path transform="matrix(1,0,0,1,-24.4426,-26.503998)" stroke-width=".5" stroke-linecap="square" stroke-linejoin="round" fill="none" stroke="#323232" d="M73 374V369.66"/>
<path transform="matrix(1,0,0,1,-24.4426,-26.503998)" stroke-width=".5" stroke-linecap="square" stroke-linejoin="round" fill="none" stroke="#323232" d="M159.8 374V369.66"/>
<path transform="matrix(1,0,0,1,-24.4426,-26.503998)" stroke-width=".5" stroke-linecap="square" stroke-linejoin="round" fill="none" stroke="#323232" d="M246.6 374V369.66"/>
<path transform="matrix(1,0,0,1,-24.4426,-26.503998)" stroke-width=".5" stroke-linecap="square" stroke-linejoin="round" fill="none" stroke="#323232" d="M333.4 374V369.66"/>
<path transform="matrix(1,0,0,1,-24.4426,-26.503998)" stroke-width=".5" stroke-linecap="square" stroke-linejoin="round" fill="none" stroke="#323232" d="M420.2 374V369.66"/>
<path transform="matrix(1,0,0,1,-24.4426,-26.503998)" stroke-width=".5" stroke-linecap="square" stroke-linejoin="round" fill="none" stroke="#323232" d="M507 374V369.66"/>
<path transform="matrix(1,0,0,1,-24.4426,-26.503998)" stroke-width=".5" stroke-linecap="square" stroke-linejoin="round" fill="none" stroke="#323232" d="M73 31.499999V35.84"/>
<path transform="matrix(1,0,0,1,-24.4426,-26.503998)" stroke-width=".5" stroke-linecap="square" stroke-linejoin="round" fill="none" stroke="#323232" d="M159.8 31.499999V35.84"/>
<path transform="matrix(1,0,0,1,-24.4426,-26.503998)" stroke-width=".5" stroke-linecap="square" stroke-linejoin="round" fill="none" stroke="#323232" d="M246.6 31.499999V35.84"/>
<path transform="matrix(1,0,0,1,-24.4426,-26.503998)" stroke-width=".5" stroke-linecap="square" stroke-linejoin="round" fill="none" stroke="#323232" d="M333.4 31.499999V35.84"/>
<path transform="matrix(1,0,0,1,-24.4426,-26.503998)" stroke-width=".5" stroke-linecap="square" stroke-linejoin="round" fill="none" stroke="#323232" d="M420.2 31.499999V35.84"/>
<path transform="matrix(1,0,0,1,-24.4426,-26.503998)" stroke-width=".5" stroke-linecap="square" stroke-linejoin="round" fill="none" stroke="#323232" d="M507 31.499999V35.84"/>
<use data-text="0" xlink:href="#font_0_17" transform="matrix(14,0,0,-14,44.5574,366.296)" fill="#323232"/>
<use data-text="1" xlink:href="#font_0_18" transform="matrix(14,0,0,-14,127.35741,366.296)" fill="#323232"/>
<use data-text="0" xlink:href="#font_0_17" transform="matrix(14,0,0,-14,135.1414,366.296)" fill="#323232"/>
<use data-text="2" xlink:href="#font_0_19" transform="matrix(14,0,0,-14,214.15741,366.296)" fill="#323232"/>
<use data-text="0" xlink:href="#font_0_17" transform="matrix(14,0,0,-14,221.9414,366.296)" fill="#323232"/>
<use data-text="3" xlink:href="#font_0_20" transform="matrix(14,0,0,-14,300.9574,366.296)" fill="#323232"/>
<use data-text="0" xlink:href="#font_0_17" transform="matrix(14,0,0,-14,308.7414,366.296)" fill="#323232"/>
<use data-text="4" xlink:href="#font_0_21" transform="matrix(14,0,0,-14,387.75743,366.296)" fill="#323232"/>
<use data-text="0" xlink:href="#font_0_17" transform="matrix(14,0,0,-14,395.5414,366.296)" fill="#323232"/>
<use data-text="5" xlink:href="#font_0_22" transform="matrix(14,0,0,-14,474.5574,366.296)" fill="#323232"/>
<use data-text="0" xlink:href="#font_0_17" transform="matrix(14,0,0,-14,482.3414,366.296)" fill="#323232"/>
<use data-text="T" xlink:href="#font_0_53" transform="matrix(15.4,0,0,-15.4,236.55762,386.79603)" fill="#323232"/>
<use data-text="i" xlink:href="#font_0_74" transform="matrix(15.4,0,0,-15.4,245.96701,386.79603)" fill="#323232"/>
<use data-text="m" xlink:href="#font_0_78" transform="matrix(15.4,0,0,-15.4,250.24822,386.79603)" fill="#323232"/>
<use data-text="e" xlink:href="#font_0_70" transform="matrix(15.4,0,0,-15.4,263.9388,386.79603)" fill="#323232"/>
<use data-text=" " xlink:href="#font_0_1" transform="matrix(15.4,0,0,-15.4,272.50123,386.79603)" fill="#323232"/>
<use data-text="(" xlink:href="#font_0_9" transform="matrix(15.4,0,0,-15.4,276.7824,386.79603)" fill="#323232"/>
<use data-text="s" xlink:href="#font_0_84" transform="matrix(15.4,0,0,-15.4,281.9106,386.79603)" fill="#323232"/>
<use data-text=")" xlink:href="#font_0_10" transform="matrix(15.4,0,0,-15.4,290.47303,386.79603)" fill="#323232"/>
<path transform="matrix(1,0,0,1,-24.4426,-26.503998)" stroke-width=".5" stroke-linecap="square" stroke-linejoin="round" fill="none" stroke="#323232" d="M73 374V31.499999"/>
<path transform="matrix(1,0,0,1,-24.4426,-26.503998)" stroke-width=".5" stroke-linecap="square" stroke-linejoin="round" fill="none" stroke="#323232" d="M507 374V31.499999"/>
<path transform="matrix(1,0,0,1,-24.4426,-26.503998)" stroke-width=".5" stroke-linecap="square" stroke-linejoin="round" fill="none" stroke="#323232" d="M73 374H77.34"/>
<path transform="matrix(1,0,0,1,-24.4426,-26.503998)" stroke-width=".5" stroke-linecap="square" stroke-linejoin="round" fill="none" stroke="#323232" d="M73 331.1875H77.34"/>
<path transform="matrix(1,0,0,1,-24.4426,-26.503998)" stroke-width=".5" stroke-linecap="square" stroke-linejoin="round" fill="none" stroke="#323232" d="M73 288.375H77.34"/>
<path transform="matrix(1,0,0,1,-24.4426,-26.503998)" stroke-width=".5" stroke-linecap="square" stroke-linejoin="round" fill="none" stroke="#323232" d="M73 245.5625H77.34"/>
<path transform="matrix(1,0,0,1,-24.4426,-26.503998)" stroke-width=".5" stroke-linecap="square" stroke-linejoin="round" fill="none" stroke="#323232" d="M73 202.75H77.34"/>
<path transform="matrix(1,0,0,1,-24.4426,-26.503998)" stroke-width=".5" stroke-linecap="square" stroke-linejoin="round" fill="none" stroke="#323232" d="M73 159.9375H77.34"/>
<path transform="matrix(1,0,0,1,-24.4426,-26.503998)" stroke-width=".5" stroke-linecap="square" stroke-linejoin="round" fill="none" stroke="#323232" d="M73 117.125H77.34"/>
<path transform="matrix(1,0,0,1,-24.4426,-26.503998)" stroke-width=".5" stroke-linecap="square" stroke-linejoin="round" fill="none" stroke="#323232" d="M73 74.31249H77.34"/>
<path transform="matrix(1,0,0,1,-24.4426,-26.503998)" stroke-width=".5" stroke-linecap="square" stroke-linejoin="round" fill="none" stroke="#323232" d="M73 31.499999H77.34"/>
<path transform="matrix(1,0,0,1,-24.4426,-26.503998)" stroke-width=".5" stroke-linecap="square" stroke-linejoin="round" fill="none" stroke="#323232" d="M507 374H502.66"/>
<path transform="matrix(1,0,0,1,-24.4426,-26.503998)" stroke-width=".5" stroke-linecap="square" stroke-linejoin="round" fill="none" stroke="#323232" d="M507 331.1875H502.66"/>
<path transform="matrix(1,0,0,1,-24.4426,-26.503998)" stroke-width=".5" stroke-linecap="square" stroke-linejoin="round" fill="none" stroke="#323232" d="M507 288.375H502.66"/>
<path transform="matrix(1,0,0,1,-24.4426,-26.503998)" stroke-width=".5" stroke-linecap="square" stroke-linejoin="round" fill="none" stroke="#323232" d="M507 245.5625H502.66"/>
<path transform="matrix(1,0,0,1,-24.4426,-26.503998)" stroke-width=".5" stroke-linecap="square" stroke-linejoin="round" fill="none" stroke="#323232" d="M507 202.75H502.66"/>
<path transform="matrix(1,0,0,1,-24.4426,-26.503998)" stroke-width=".5" stroke-linecap="square" stroke-linejoin="round" fill="none" stroke="#323232" d="M507 159.9375H502.66"/>
<path transform="matrix(1,0,0,1,-24.4426,-26.503998)" stroke-width=".5" stroke-linecap="square" stroke-linejoin="round" fill="none" stroke="#323232" d="M507 117.125H502.66"/>
<path transform="matrix(1,0,0,1,-24.4426,-26.503998)" stroke-width=".5" stroke-linecap="square" stroke-linejoin="round" fill="none" stroke="#323232" d="M507 74.31249H502.66"/>
<path transform="matrix(1,0,0,1,-24.4426,-26.503998)" stroke-width=".5" stroke-linecap="square" stroke-linejoin="round" fill="none" stroke="#323232" d="M507 31.499999H502.66"/>
<use data-text="-" xlink:href="#font_0_14" transform="matrix(14,0,0,-14,17.757397,352.496)" fill="#323232"/>
<use data-text="0" xlink:href="#font_0_17" transform="matrix(14,0,0,-14,22.419398,352.496)" fill="#323232"/>
<use data-text="." xlink:href="#font_0_15" transform="matrix(14,0,0,-14,30.203398,352.496)" fill="#323232"/>
<use data-text="4" xlink:href="#font_0_21" transform="matrix(14,0,0,-14,34.095399,352.496)" fill="#323232"/>
<use data-text="-" xlink:href="#font_0_14" transform="matrix(14,0,0,-14,17.757397,309.6835)" fill="#323232"/>
<use data-text="0" xlink:href="#font_0_17" transform="matrix(14,0,0,-14,22.419398,309.6835)" fill="#323232"/>
<use data-text="." xlink:href="#font_0_15" transform="matrix(14,0,0,-14,30.203398,309.6835)" fill="#323232"/>
<use data-text="3" xlink:href="#font_0_20" transform="matrix(14,0,0,-14,34.095399,309.6835)" fill="#323232"/>
<use data-text="-" xlink:href="#font_0_14" transform="matrix(14,0,0,-14,17.757397,266.871)" fill="#323232"/>
<use data-text="0" xlink:href="#font_0_17" transform="matrix(14,0,0,-14,22.419398,266.871)" fill="#323232"/>
<use data-text="." xlink:href="#font_0_15" transform="matrix(14,0,0,-14,30.203398,266.871)" fill="#323232"/>
<use data-text="2" xlink:href="#font_0_19" transform="matrix(14,0,0,-14,34.095399,266.871)" fill="#323232"/>
<use data-text="-" xlink:href="#font_0_14" transform="matrix(14,0,0,-14,17.757397,224.0585)" fill="#323232"/>
<use data-text="0" xlink:href="#font_0_17" transform="matrix(14,0,0,-14,22.419398,224.0585)" fill="#323232"/>
<use data-text="." xlink:href="#font_0_15" transform="matrix(14,0,0,-14,30.203398,224.0585)" fill="#323232"/>
<use data-text="1" xlink:href="#font_0_18" transform="matrix(14,0,0,-14,34.095399,224.0585)" fill="#323232"/>
<use data-text="0" xlink:href="#font_0_17" transform="matrix(14,0,0,-14,35.757398,181.246)" fill="#323232"/>
<use data-text="0" xlink:href="#font_0_17" transform="matrix(14,0,0,-14,23.757397,138.4335)" fill="#323232"/>
<use data-text="." xlink:href="#font_0_15" transform="matrix(14,0,0,-14,31.541398,138.4335)" fill="#323232"/>
<use data-text="1" xlink:href="#font_0_18" transform="matrix(14,0,0,-14,35.433397,138.4335)" fill="#323232"/>
<use data-text="0" xlink:href="#font_0_17" transform="matrix(14,0,0,-14,23.757397,95.621)" fill="#323232"/>
<use data-text="." xlink:href="#font_0_15" transform="matrix(14,0,0,-14,31.541398,95.621)" fill="#323232"/>
<use data-text="2" xlink:href="#font_0_19" transform="matrix(14,0,0,-14,35.433397,95.621)" fill="#323232"/>
<use data-text="0" xlink:href="#font_0_17" transform="matrix(14,0,0,-14,23.757397,52.808496)" fill="#323232"/>
<use data-text="." xlink:href="#font_0_15" transform="matrix(14,0,0,-14,31.541398,52.808496)" fill="#323232"/>
<use data-text="3" xlink:href="#font_0_20" transform="matrix(14,0,0,-14,35.433397,52.808496)" fill="#323232"/>
<use data-text="0" xlink:href="#font_0_17" transform="matrix(14,0,0,-14,23.757397,9.996)" fill="#323232"/>
<use data-text="." xlink:href="#font_0_15" transform="matrix(14,0,0,-14,31.541398,9.996)" fill="#323232"/>
<use data-text="4" xlink:href="#font_0_21" transform="matrix(14,0,0,-14,35.433397,9.996)" fill="#323232"/>
<use data-text="P" xlink:href="#font_0_49" transform="matrix(-.00000067375,-15.4,-15.4,.00000067375,11.257402,232.74584)" fill="#323232"/>
<use data-text="r" xlink:href="#font_0_83" transform="matrix(-.00000067375,-15.4,-15.4,.00000067375,11.257402,222.47403)" fill="#323232"/>
<use data-text="e" xlink:href="#font_0_70" transform="matrix(-.00000067375,-15.4,-15.4,.00000067375,11.257402,216.48343)" fill="#323232"/>
<use data-text="s" xlink:href="#font_0_84" transform="matrix(-.00000067375,-15.4,-15.4,.00000067375,11.257402,207.92104)" fill="#323232"/>
<use data-text="s" xlink:href="#font_0_84" transform="matrix(-.00000067375,-15.4,-15.4,.00000067375,11.257401,199.35863)" fill="#323232"/>
<use data-text="u" xlink:href="#font_0_86" transform="matrix(-.00000067375,-15.4,-15.4,.00000067375,11.257401,190.79624)" fill="#323232"/>
<use data-text="r" xlink:href="#font_0_83" transform="matrix(-.00000067375,-15.4,-15.4,.00000067375,11.2574009,181.38683)" fill="#323232"/>
<use data-text="e" xlink:href="#font_0_70" transform="matrix(-.00000067375,-15.4,-15.4,.00000067375,11.2574009,175.39623)" fill="#323232"/>
<use data-text=" " xlink:href="#font_0_1" transform="matrix(-.00000067375,-15.4,-15.4,.00000067375,11.2574009,166.83383)" fill="#323232"/>
<use data-text="(" xlink:href="#font_0_9" transform="matrix(-.00000067375,-15.4,-15.4,.00000067375,11.2574009,162.55263)" fill="#323232"/>
<use data-text="M" xlink:href="#font_0_46" transform="matrix(-.00000067375,-15.4,-15.4,.00000067375,11.2574,157.42443)" fill="#323232"/>
<use data-text="P" xlink:href="#font_0_49" transform="matrix(-.00000067375,-15.4,-15.4,.00000067375,11.257399,144.59622)" fill="#323232"/>
<use data-text="a" xlink:href="#font_0_66" transform="matrix(-.00000067375,-15.4,-15.4,.00000067375,11.257399,134.32444)" fill="#323232"/>
<use data-text=")" xlink:href="#font_0_10" transform="matrix(-.00000067375,-15.4,-15.4,.00000067375,11.257399,125.762027)" fill="#323232"/>
<path transform="matrix(1,0,0,1,-24.4426,-26.503998)" stroke-width="2" stroke-linecap="butt" stroke-linejoin="round" fill="none" stroke="#0072bd" d="M73.868 202.87177 74.736 202.7417 75.604007 202.77233 76.472 202.87439 77.34 202.7221 78.208 202.66527 79.076 202.57866 79.944 202.71257 80.812 202.88669 81.68 202.83718 82.548 202.66359 83.416 202.62548 84.284 202.68672 85.152 202.7614 86.02 202.80736 86.888 202.81002 87.756 202.81684 88.624 202.74504 89.492 202.6349 90.36 202.81388 91.228 202.7442 92.096 202.78929 92.964 202.70186 93.832 202.50537 94.7 202.76938 95.568 202.87642 96.436 202.80577 97.304 202.81331 98.172 202.81732 99.04 202.75093 99.908 202.78629 100.776 202.71219 101.644 202.65271 102.512 202.70395 103.38 202.7051 104.248 202.67505 105.116 202.79642 105.984 202.91529 106.852 202.78075 107.72 202.63608 108.588 202.62897 109.456 202.73606 110.324008 202.77318 111.192 202.72025 112.06 202.67099 112.928 202.70989 113.796 202.68248 114.664 202.63736 115.532 202.6654 116.4 202.60579 117.268 202.65001 118.136 202.70853 119.004009 202.76097 119.872 202.64728 120.74 202.74716 121.608 202.65273 122.476 202.69739 123.344 202.67725 124.212 202.71843 125.08 202.7208 125.948 202.68349 126.816 202.68943 127.684 202.73029 128.552 202.73992 129.42 202.65586 130.288 202.8078 131.156 202.7577 132.024 202.701 132.892 202.79288 133.76 202.75949 134.628 202.62162 135.496 202.66028 136.364 202.7227 137.232 202.70424 138.1 202.74414 138.968 202.61397 139.836 202.82056 140.704 202.71451 141.572 202.8493 142.44 202.56687 143.308 202.55475 144.176 202.63283 145.044 202.60272 145.912 202.68862 146.78 202.62363 147.64801 202.69025 148.51599 202.69153 149.384 202.76952 150.252 202.82238 151.12 202.74138 151.988 202.60013 152.856 202.7125 153.724 202.7637 154.592 202.57602 155.46 202.615 156.328 202.74198 157.196 202.73358 158.064 202.78653 158.93199 202.65196 159.8 202.57566 160.668 202.77977 161.536 202.71805 162.404 202.78131 163.272 202.70774 164.14 202.61003 165.00801 202.63932 165.87599 202.8503 166.744 202.70664 167.612 202.72092 168.48 202.66237 169.348 202.71262 170.216 202.78104 171.084 202.81307 171.952 202.67542 172.82 202.7837 173.688 202.74848 174.556 202.7829 175.424 202.86594 176.29199 202.95204 177.16 202.73766 178.028 202.69138 178.896 202.74234 179.764 202.68802 180.632 202.8544 181.5 202.79668 182.368 202.6704 183.236 202.73105 184.104 202.7945 184.972 202.673 185.84 202.79315 186.70801 202.92423 187.576 202.83556 188.444 202.8379 189.312 202.74967 190.18 202.72539 191.048 202.86837 191.916 202.71659 192.784 202.9208 193.652 202.77051 194.52 202.78936 195.388 202.68924 196.256 202.85669 197.12401 202.72203 197.99199 202.80246 198.86 202.7448 199.728 202.79196 200.596 202.81343 201.464 202.8321 202.332 202.8832 203.2 202.77524 204.06801 202.84398 204.936 202.77243 205.804 202.80371 206.672 202.92636 207.54 202.82619 208.408 202.80655 209.276 202.93325 210.144 203.01602 211.012 202.79457 211.88 202.77323 212.748 202.79903 213.61602 202.86379 214.484 202.821 215.35199 202.84079 216.22 202.84603 217.088 202.73055 217.95601 202.84082 218.82399 202.82367 219.692 202.81623 220.56 202.71887 221.42801 202.70354 222.296 202.7063 223.16399 202.90184 224.032 202.79192 224.9 202.65245 225.768 202.79373 226.636 202.71164 227.504 202.70197 228.372 202.7104 229.24 202.61824 230.108 202.74237 230.97602 202.7612 231.844 202.68967 232.71199 202.7027 233.58 202.67197 234.448 202.81746 235.31601 202.54341 236.18399 202.74614 237.052 202.53757 237.92 202.72266 238.78801 202.66265 239.656 202.76737 240.52399 202.79399 241.392 202.65418 242.26 202.74828 243.128 202.58928 243.996 202.60858 244.864 202.64023 245.732 202.63585 246.6 202.63141 247.468 202.51178 248.33602 202.57086 249.204 202.54015 250.07199 202.58917 250.94 202.59522 251.808 202.61009 252.67601 202.58579 253.54399 202.5993 254.412 202.5926 255.28 202.75327 256.148 202.60263 257.01603 202.59592 257.884 202.73423 258.75199 202.53145 259.62 202.53223 260.488 202.54015 261.35603 202.56238 262.224 202.60395 263.092 202.7811 263.96 202.4358 264.828 202.6492 265.696 202.75786 266.564 202.73961 267.432 202.85385 268.3 202.56014 269.168 202.61821 270.036 202.68495 270.904 202.66037 271.772 202.63574 272.64 202.61643 273.508 202.83325 274.376 202.72092 275.244 202.73503 276.112 202.61122 276.98 202.80466 277.848 202.72008 278.716 202.71288 279.58399 202.85068 280.452 202.83698 281.32 202.8012 282.188 202.85746 283.056 202.69733 283.92399 202.71942 284.792 202.78543 285.66 202.60506 286.528 202.90042 287.396 202.78116 288.264 202.98413 289.132 202.83774 290 202.77419 290.868 202.8405 291.736 202.95671 292.604 202.9709 293.472 202.93212 294.34 202.94972 295.208 202.95703 296.07603 202.95232 296.944 203.09265 297.812 203.02602 298.68 202.82282 299.548 202.98229 300.41603 202.94718 301.284 202.88094 302.152 202.98786 303.02 202.90175 303.888 203.08805 304.756 202.97264 305.624 202.89023 306.492 202.90058 307.36 203.04015 308.228 202.92662 309.096 202.87935 309.964 202.98633 310.832 202.9207 311.7 202.88243 312.568 202.86894 313.436 202.9093 314.304 202.82953 315.172 202.87424 316.04 202.94425 316.908 202.99318 317.776 202.91608 318.64399 202.94335 319.512 202.93169 320.38 202.91103 321.24803 202.65708 322.116 202.66692 322.98399 202.88356 323.852 202.70529 324.72 202.75652 325.588 202.74472 326.456 202.84117 327.324 202.66236 328.192 202.68082 329.06 202.55217 329.928 202.57004 330.79603 202.59581 331.664 202.50782 332.53199 202.40099 333.4 202.49231 334.268 202.61103 335.13603 202.58641 336.004 202.41614 336.872 202.5009 337.74 202.52567 338.608 202.30986 339.476 202.46056 340.344 202.43498 341.212 202.21857 342.08 202.36974 342.948 202.19606 343.816 202.21643 344.684 202.29329 345.552 202.2181 346.42 202.2118 347.288 202.30648 348.156 202.20098 349.024 202.18277 349.892 202.23767 350.76 202.33548 351.628 202.28673 352.496 202.3384 353.36399 202.21387 354.23204 202.10512 355.1 202.12136 355.968 202.24443 356.836 202.29412 357.70399 202.28928 358.57203 202.15369 359.44 202.3575 360.30799 202.38211 361.176 202.38837 362.044 202.28183 362.91203 202.3478 363.78 202.42696 364.64799 202.54184 365.51603 202.47934 366.384 202.61542 367.252 202.69733 368.12 202.59662 368.98799 202.48865 369.85603 202.70584 370.724 202.72989 371.592 202.87343 372.46 202.89237 373.32798 202.78961 374.196 202.81583 375.064 202.8946 375.932 203.0499 376.8 202.9037 377.668 203.0564 378.536 203.21674 379.404 203.02313 380.272 203.14467 381.14 203.29633 382.008 203.06497 382.876 203.15769 383.744 203.20172 384.612 203.29074 385.48 203.10773 386.348 203.31632 387.216 203.3614 388.08399 203.30127 388.95204 203.27242 389.82 203.44751 390.688 203.35242 391.556 203.2741 392.42399 203.34116 393.29203 203.35604 394.16 203.34267 395.02799 203.37029 395.896 203.37062 396.764 203.3374 397.63203 203.4832 398.5 203.40026 399.36799 203.34474 400.236 203.48273 401.104 203.42795 401.97203 203.36078 402.84 203.302 403.70799 203.41292 404.57603 203.40212 405.444 203.76789 406.312 203.38338 407.18 203.53012 408.04798 203.55274 408.91603 203.38602 409.784 203.44322 410.652 203.59114 411.52 203.43669 412.388 203.4545 413.256 203.5666 414.124 203.3572 414.992 203.44942 415.86 203.37079 416.728 203.35932 417.596 203.29003 418.464 203.12427 419.332 203.08394 420.2 203.04578 421.068 202.95389 421.936 202.80178 422.804 202.81734 423.67204 202.6077 424.54 202.5473 425.408 202.43325 426.276 202.1093 427.14399 202.15384 428.01203 201.97754 428.88 201.88033 429.748 201.79712 430.616 201.58625 431.48399 201.48748 432.35203 201.42874 433.22 201.11597 434.08799 200.94968 434.956 201.04103 435.824 200.79819 436.69203 200.73616 437.56 200.6575 438.42799 200.54552 439.29603 200.6348 440.164 200.35755 441.032 200.39336 441.9 200.34943 442.76799 200.17288 443.63603 200.55808 444.504 200.27162 445.372 200.47872 446.24 200.48126 447.108 200.52391 447.976 200.74486 448.844 200.70221 449.712 200.77538 450.58 200.93997 451.448 201.1589 452.316 201.34252 453.184 201.31562 454.052 201.56325 454.92 201.79346 455.788 201.9557 456.656 202.15207 457.524 202.3128 458.392 202.40958 459.26 202.71222 460.128 202.83158 460.996 203.14504 461.86399 203.237 462.73204 203.45439 463.6 203.70233 464.468 203.81972 465.336 204.01482 466.20399 204.14319 467.07203 204.39455 467.94 204.3405 468.80799 204.58135 469.676 204.79143 470.544 204.97605 471.41203 204.85723 472.28 205.02411 473.14799 205.02898 474.01603 205.16233 474.884 205.13636 475.752 205.36798 476.62 205.3985 477.48799 205.32724 478.35603 205.28868 479.224 205.35126 480.092 205.44959 480.96 205.19118 481.82798 205.213 482.696 205.24906 483.564 205.16176 484.432 205.0337 485.3 205.06133 486.168 205.00988 487.036 204.89261 487.904 204.84215 488.772 204.66925 489.64 204.56774 490.508 204.5808 491.376 204.38964 492.244 204.15993 493.112 204.06418 493.98 204.01811 494.848 203.7856 495.716 203.77785 496.58399 203.66312 497.45204 203.41387 498.32 203.32643 499.188 203.09386 500.056 203.14316 500.92399 202.75019 501.79203 202.70453 502.66 202.49889 503.52799 202.36367 504.396 202.13079 505.264 202.15915 506.13203 201.78342 507 201.84093"/>
<path transform="matrix(1,0,0,1,-24.4426,-26.503998)" stroke-width="2" stroke-linecap="butt" stroke-linejoin="round" fill="none" stroke="#d95319" d="M73.868 202.38457 74.736 202.59075 75.604007 203.36769 76.472 202.35755 77.34 202.2583 78.208 202.36569 79.076 202.40201 79.944 202.45987 80.812 202.49564 81.68 201.87018 82.548 202.91413 83.416 202.37018 84.284 202.46192 85.152 201.29587 86.02 201.53557 86.888 201.83605 87.756 201.65415 88.624 202.51976 89.492 200.60802 90.36 202.02364 91.228 201.33663 92.096 201.67183 92.964 200.92269 93.832 200.75492 94.7 201.75577 95.568 201.00452 96.436 201.39626 97.304 200.90503 98.172 201.01157 99.04 201.3739 99.908 201.439 100.776 201.64319 101.644 200.70259 102.512 201.59679 103.38 200.33139 104.248 201.0018 105.116 200.06148 105.984 199.89655 106.852 200.50138 107.72 200.38834 108.588 199.9078 109.456 200.37071 110.324008 199.3879 111.192 199.25199 112.06 199.01232 112.928 199.11849 113.796 200.25255 114.664 199.25167 115.532 199.69733 116.4 199.3961 117.268 198.40851 118.136 199.42148 119.004009 199.71315 119.872 198.63249 120.74 198.59262 121.608 198.84854 122.476 199.60625 123.344 199.82845 124.212 199.53217 125.08 199.8965 125.948 199.4833 126.816 199.63442 127.684 200.55725 128.552 199.78099 129.42 199.04689 130.288 199.16368 131.156 200.28696 132.024 199.25441 132.892 199.51644 133.76 199.19055 134.628 199.49552 135.496 200.15578 136.364 200.86037 137.232 200.55951 138.1 200.44644 138.968 200.38176 139.836 200.37747 140.704 200.81064 141.572 200.8362 142.44 200.55094 143.308 200.25684 144.176 201.21703 145.044 201.32328 145.912 201.06597 146.78 200.48317 147.64801 202.29093 148.51599 200.21799 149.384 202.10803 150.252 201.5342 151.12 203.18398 151.988 202.10965 152.856 203.58602 153.724 202.0556 154.592 202.3087 155.46 203.26474 156.328 203.2156 157.196 203.48314 158.064 203.75902 158.93199 203.01668 159.8 203.65013 160.668 203.84529 161.536 204.04523 162.404 202.76764 163.272 204.15943 164.14 203.84076 165.00801 204.43303 165.87599 204.95709 166.744 204.83364 167.612 204.99773 168.48 205.96082 169.348 205.48264 170.216 205.82231 171.084 205.62133 171.952 206.31287 172.82 205.49398 173.688 205.45645 174.556 206.40218 175.424 205.73894 176.29199 205.14096 177.16 205.64949 178.028 205.99883 178.896 205.3308 179.764 205.68149 180.632 205.24593 181.5 205.38159 182.368 205.40462 183.236 204.28034 184.104 204.94158 184.972 205.21517 185.84 205.9725 186.70801 204.29294 187.576 205.79155 188.444 205.75197 189.312 205.3398 190.18 205.7377 191.048 206.12485 191.916 204.62145 192.784 204.15654 193.652 204.97995 194.52 205.41455 195.388 204.56893 196.256 203.74816 197.12401 204.30072 197.99199 204.38864 198.86 204.22725 199.728 204.3273 200.596 204.3395 201.464 203.7645 202.332 204.40142 203.2 203.78792 204.06801 203.84427 204.936 202.87258 205.804 203.17746 206.672 203.14524 207.54 201.92954 208.408 202.94588 209.276 202.08643 210.144 202.48491 211.012 202.31002 211.88 202.70856 212.748 201.56926 213.61602 201.01956 214.484 200.97124 215.35199 201.50586 216.22 200.9194 217.088 201.02866 217.95601 201.03414 218.82399 200.8092 219.692 201.39756 220.56 201.17076 221.42801 200.54622 222.296 201.57611 223.16399 200.43355 224.032 200.66664 224.9 200.23313 225.768 201.1663 226.636 200.55237 227.504 200.81241 228.372 200.78838 229.24 200.03577 230.108 201.38715 230.97602 202.09442 231.844 200.7526 232.71199 201.30936 233.58 200.7766 234.448 200.93384 235.31601 200.52767 236.18399 201.52051 237.052 200.7447 237.92 202.04471 238.78801 201.70778 239.656 201.26689 240.52399 202.819 241.392 202.09749 242.26 201.8118 243.128 202.35334 243.996 202.83074 244.864 201.80738 245.732 202.77599 246.6 203.447 247.468 203.88204 248.33602 203.4683 249.204 203.65229 250.07199 204.4054 250.94 204.418 251.808 204.09418 252.67601 205.15004 253.54399 205.32949 254.412 205.56424 255.28 205.18085 256.148 205.59554 257.01603 206.35642 257.884 205.52391 258.75199 206.4117 259.62 205.9019 260.488 206.57003 261.35603 206.08504 262.224 206.91069 263.092 206.36817 263.96 205.74532 264.828 207.08402 265.696 206.55931 266.564 206.58287 267.432 207.14192 268.3 206.5526 269.168 206.65322 270.036 206.4946 270.904 206.58484 271.772 206.30573 272.64 206.2043 273.508 206.12752 274.376 206.52243 275.244 205.94034 276.112 206.2008 276.98 206.6178 277.848 205.9468 278.716 205.72536 279.58399 205.8879 280.452 205.07212 281.32 205.14577 282.188 205.18482 283.056 205.38712 283.92399 204.82326 284.792 204.8372 285.66 204.86103 286.528 204.3204 287.396 202.86083 288.264 203.95586 289.132 203.44162 290 202.60742 290.868 202.35753 291.736 202.14327 292.604 201.26468 293.472 201.88245 294.34 200.6727 295.208 200.27254 296.07603 200.94785 296.944 200.22776 297.812 200.13733 298.68 200.04596 299.548 199.39429 300.41603 199.3338 301.284 198.01787 302.152 198.45462 303.02 197.778 303.888 196.93378 304.756 196.22916 305.624 197.2768 306.492 196.60036 307.36 195.88011 308.228 196.57405 309.096 196.99935 309.964 196.72241 310.832 196.01882 311.7 195.92111 312.568 195.90993 313.436 195.5526 314.304 195.40001 315.172 194.86287 316.04 194.79949 316.908 195.33812 317.776 195.24123 318.64399 195.04659 319.512 194.18183 320.38 195.36119 321.24803 195.31305 322.116 194.98558 322.98399 195.17536 323.852 195.26761 324.72 195.63777 325.588 195.77005 326.456 195.69594 327.324 196.5132 328.192 195.694 329.06 196.38207 329.928 197.52088 330.79603 197.63916 331.664 197.49025 332.53199 198.26758 333.4 198.62084 334.268 199.25347 335.13603 199.31925 336.004 199.72212 336.872 201.25131 337.74 201.08702 338.608 201.28327 339.476 201.90451 340.344 202.46327 341.212 203.26549 342.08 203.94979 342.948 203.84735 343.816 204.23302 344.684 206.48606 345.552 206.5496 346.42 206.78406 347.288 207.1144 348.156 207.91083 349.024 208.47788 349.892 209.62487 350.76 209.12572 351.628 210.62381 352.496 210.69994 353.36399 210.2516 354.23204 210.39473 355.1 210.36798 355.968 211.23332 356.836 210.82033 357.70399 212.43245 358.57203 211.0423 359.44 211.75905 360.30799 212.42389 361.176 211.75365 362.044 212.28311 362.91203 211.21251 363.78 211.48329 364.64799 212.02771 365.51603 211.8377 366.384 211.42069 367.252 211.04674 368.12 211.0087 368.98799 209.59055 369.85603 210.4063 370.724 208.58779 371.592 209.21222 372.46 208.53545 373.32798 207.51992 374.196 207.85996 375.064 208.78 375.932 205.93141 376.8 206.41857 377.668 205.84876 378.536 205.03923 379.404 202.77762 380.272 203.90238 381.14 202.85572 382.008 202.48499 382.876 202.05057 383.744 200.68834 384.612 200.40811 385.48 199.47154 386.348 198.28115 387.216 198.97026 388.08399 197.78137 388.95204 196.62828 389.82 195.8932 390.688 196.3816 391.556 195.62767 392.42399 195.62842 393.29203 195.13143 394.16 194.07321 395.02799 194.09319 395.896 193.60318 396.764 193.5557 397.63203 191.97179 398.5 192.95513 399.36799 191.96344 400.236 191.54325 401.104 191.33287 401.97203 192.35907 402.84 190.85349 403.70799 190.30446 404.57603 191.35776 405.444 191.71189 406.312 190.52298 407.18 191.06243 408.04798 191.80638 408.91603 191.61142 409.784 193.08397 410.652 192.30666 411.52 191.9182 412.388 191.86118 413.256 192.17487 414.124 192.80179 414.992 192.98824 415.86 194.07479 416.728 194.55646 417.596 193.9917 418.464 195.05086 419.332 194.71096 420.2 196.59209 421.068 196.39647 421.936 196.5396 422.804 197.71926 423.67204 197.82625 424.54 198.1714 425.408 199.27556 426.276 200.59421 427.14399 200.06851 428.01203 201.05974 428.88 202.30217 429.748 201.91338 430.616 202.55637 431.48399 203.62679 432.35203 205.32115 433.22 204.91614 434.08799 205.89163 434.956 204.98615 435.824 206.29717 436.69203 207.10681 437.56 207.28725 438.42799 207.93166 439.29603 208.79744 440.164 209.20749 441.032 209.81389 441.9 209.76476 442.76799 210.73693 443.63603 211.09166 444.504 211.35634 445.372 211.13022 446.24 211.76026 447.108 213.14119 447.976 212.2857 448.844 212.31908 449.712 212.23339 450.58 211.94348 451.448 212.83829 452.316 213.30847 453.184 213.16 454.052 212.78066 454.92 213.48213 455.788 212.73786 456.656 212.14244 457.524 213.14907 458.392 212.712 459.26 211.36605 460.128 212.43892 460.996 212.03675 461.86399 210.75473 462.73204 211.01018 463.6 210.2841 464.468 211.03835 465.336 210.055 466.20399 209.69882 467.07203 209.434 467.94 208.7226 468.80799 208.06635 469.676 207.24459 470.544 207.17464 471.41203 205.96103 472.28 206.54755 473.14799 204.81778 474.01603 204.7843 474.884 203.52559 475.752 203.77159 476.62 203.00641 477.48799 202.5188 478.35603 200.7214 479.224 200.55066 480.092 200.68383 480.96 198.47097 481.82798 198.784 482.696 197.50394 483.564 196.59279 484.432 196.06784 485.3 194.7702 486.168 194.97618 487.036 194.30309 487.904 192.69434 488.772 192.54795 489.64 192.84793 490.508 191.73398 491.376 190.5193 492.244 189.86733 493.112 190.29113 493.98 190.13536 494.848 189.04042 495.716 188.27602 496.58399 188.75409 497.45204 189.10674 498.32 188.21636 499.188 187.46743 500.056 187.87604 500.92399 187.828 501.79203 187.56703 502.66 187.2422 503.52799 187.45803 504.396 187.60686 505.264 187.57468 506.13203 187.14989 507 187.16535"/>
<path transform="matrix(1,0,0,1,-24.4426,-26.503998)" stroke-width="2" stroke-linecap="butt" stroke-linejoin="round" fill="none" stroke="#edb120" d="M73.868 198.35334 74.736 202.44974 75.604007 195.54174 76.472 200.5787 77.34 197.64772 78.208 198.61038 79.076 196.75453 79.944 198.34201 80.812 193.6298 81.68 190.24903 82.548 191.73537 83.416 190.68379 84.284 184.24074 85.152 184.92362 86.02 190.28588 86.888 185.24304 87.756 185.04219 88.624 179.63149 89.492 186.21247 90.36 178.93569 91.228 180.5921 92.096 177.65056 92.964 179.07645 93.832 174.81606 94.7 172.24507 95.568 174.57598 96.436 173.78665 97.304 174.32587 98.172 172.67676 99.04 167.7373 99.908 170.05417 100.776 170.75742 101.644 164.63042 102.512 172.9659 103.38 163.72415 104.248 158.70442 105.116 161.01309 105.984 159.40706 106.852 160.53833 107.72 156.97739 108.588 159.45835 109.456 153.67467 110.324008 160.16689 111.192 154.56653 112.06 154.45076 112.928 150.80133 113.796 152.14707 114.664 148.3231 115.532 145.7394 116.4 148.10089 117.268 144.62358 118.136 147.77986 119.004009 144.63002 119.872 147.2171 120.74 145.82543 121.608 145.3158 122.476 153.70063 123.344 148.52005 124.212 157.41268 125.08 154.97197 125.948 156.99588 126.816 159.51175 127.684 158.54816 128.552 160.59906 129.42 160.67313 130.288 165.4668 131.156 166.31035 132.024 164.91712 132.892 171.08197 133.76 169.13953 134.628 174.10712 135.496 173.6967 136.364 176.59561 137.232 176.25899 138.1 184.636 138.968 178.58318 139.836 185.73938 140.704 189.45037 141.572 189.17385 142.44 187.9247 143.308 192.58092 144.176 195.02213 145.044 201.1682 145.912 200.21607 146.78 197.14687 147.64801 199.70558 148.51599 201.17435 149.384 206.89423 150.252 205.28269 151.12 203.47061 151.988 206.81656 152.856 208.36305 153.724 210.19687 154.592 215.13346 155.46 214.35088 156.328 217.5046 157.196 219.11348 158.064 223.6759 158.93199 224.15979 159.8 223.28417 160.668 230.3075 161.536 231.6097 162.404 232.15334 163.272 229.75785 164.14 236.75814 165.00801 237.03067 165.87599 236.67649 166.744 237.36913 167.612 236.7943 168.48 236.36118 169.348 230.86212 170.216 235.64313 171.084 232.54793 171.952 231.41249 172.82 237.4285 173.688 232.24033 174.556 229.5158 175.424 226.16587 176.29199 230.57152 177.16 228.15666 178.028 227.70795 178.896 227.72444 179.764 226.39533 180.632 224.77843 181.5 216.85234 182.368 222.89493 183.236 219.62444 184.104 220.15804 184.972 218.24364 185.84 217.33237 186.70801 219.78006 187.576 214.59828 188.444 209.29274 189.312 210.68325 190.18 213.78621 191.048 209.77724 191.916 212.32149 192.784 208.79074 193.652 206.87648 194.52 206.0702 195.388 207.54273 196.256 202.28115 197.12401 205.39331 197.99199 200.67902 198.86 197.07682 199.728 199.56874 200.596 200.40668 201.464 199.82878 202.332 195.32721 203.2 193.00055 204.06801 192.95249 204.936 191.58094 205.804 192.43505 206.672 187.7448 207.54 189.19864 208.408 186.28682 209.276 187.52922 210.144 190.84769 211.012 189.09941 211.88 186.00876 212.748 189.76529 213.61602 191.10079 214.484 195.82282 215.35199 191.1383 216.22 190.79082 217.088 197.94681 217.95601 201.0329 218.82399 200.42273 219.692 201.55971 220.56 204.3018 221.42801 204.71755 222.296 212.56114 223.16399 206.61479 224.032 210.18105 224.9 210.694 225.768 211.70212 226.636 212.74733 227.504 216.79288 228.372 216.47835 229.24 220.64397 230.108 220.487 230.97602 223.06793 231.844 223.25376 232.71199 223.44295 233.58 228.11026 234.448 228.30057 235.31601 234.01117 236.18399 235.46231 237.052 234.02765 237.92 234.2525 238.78801 236.69173 239.656 243.30423 240.52399 237.56955 241.392 244.4871 242.26 243.61374 243.128 246.39725 243.996 245.9813 244.864 241.84491 245.732 251.62828 246.6 250.60274 247.468 253.21802 248.33602 253.85314 249.204 254.32859 250.07199 249.53324 250.94 251.40335 251.808 255.18952 252.67601 257.1088 253.54399 252.3287 254.412 257.55943 255.28 254.4744 256.148 250.94252 257.01603 250.73136 257.884 252.54175 258.75199 252.28224 259.62 246.21645 260.488 241.89623 261.35603 238.44519 262.224 237.70424 263.092 234.7532 263.96 234.09423 264.828 228.81284 265.696 227.52086 266.564 222.32492 267.432 220.4648 268.3 214.68489 269.168 213.16112 270.036 212.53765 270.904 207.3468 271.772 209.63532 272.64 201.06246 273.508 200.4161 274.376 198.46219 275.244 199.89833 276.112 187.18054 276.98 185.96802 277.848 189.93228 278.716 180.12328 279.58399 181.80072 280.452 177.76184 281.32 174.38849 282.188 172.73184 283.056 171.75012 283.92399 164.0483 284.792 162.82451 285.66 159.54814 286.528 156.00366 287.396 157.44359 288.264 152.89984 289.132 148.72902 290 148.4272 290.868 144.74567 291.736 143.88045 292.604 137.37187 293.472 136.94107 294.34 139.46265 295.208 141.76895 296.07603 139.62042 296.944 140.10016 297.812 138.84729 298.68 142.38349 299.548 140.8858 300.41603 141.09859 301.284 140.21326 302.152 137.37973 303.02 143.14629 303.888 139.45565 304.756 140.96022 305.624 145.49433 306.492 155.167 307.36 151.06142 308.228 154.7123 309.096 157.0383 309.964 159.30278 310.832 159.72206 311.7 165.3347 312.568 166.52027 313.436 168.1656 314.304 173.64913 315.172 175.75695 316.04 181.8572 316.908 175.29274 317.776 185.94574 318.64399 185.55088 319.512 186.48792 320.38 190.12284 321.24803 198.79787 322.116 195.9007 322.98399 202.95915 323.852 198.64484 324.72 208.84328 325.588 210.53447 326.456 213.99819 327.324 215.22628 328.192 219.6121 329.06 221.27368 329.928 223.07712 330.79603 227.79524 331.664 229.41063 332.53199 234.02429 333.4 237.07215 334.268 239.84535 335.13603 241.54546 336.004 244.93184 336.872 249.46974 337.74 243.66378 338.608 252.20085 339.476 259.10893 340.344 258.5654 341.212 256.4739 342.08 257.94145 342.948 254.78737 343.816 252.72006 344.684 256.14057 345.552 256.1241 346.42 260.20387 347.288 253.80062 348.156 253.08307 349.024 257.01887 349.892 260.0427 350.76 256.24653 351.628 247.20961 352.496 245.50812 353.36399 243.35369 354.23204 239.22394 355.1 235.09342 355.968 233.80316 356.836 232.27776 357.70399 223.93364 358.57203 230.79535 359.44 220.92856 360.30799 220.30146 361.176 216.40396 362.044 213.65329 362.91203 211.68321 363.78 205.38835 364.64799 204.64711 365.51603 203.76003 366.384 199.27767 367.252 190.59134 368.12 190.47068 368.98799 187.03943 369.85603 186.6582 370.724 180.87882 371.592 178.71912 372.46 175.87564 373.32798 173.41017 374.196 165.3469 375.064 164.72292 375.932 166.04764 376.8 160.35768 377.668 157.058 378.536 157.64266 379.404 153.36415 380.272 150.31298 381.14 145.4924 382.008 141.57764 382.876 144.56131 383.744 140.06076 384.612 141.4968 385.48 132.71097 386.348 135.92037 387.216 133.84998 388.08399 135.81122 388.95204 134.38312 389.82 135.01027 390.688 131.57769 391.556 133.61423 392.42399 132.4844 393.29203 131.0468 394.16 132.0588 395.02799 131.54779 395.896 137.95586 396.764 136.43943 397.63203 134.39713 398.5 142.79875 399.36799 145.39673 400.236 149.81768 401.104 150.64054 401.97203 156.36534 402.84 158.08243 403.70799 161.96924 404.57603 165.34485 405.444 167.79932 406.312 171.57675 407.18 170.47815 408.04798 177.70063 408.91603 181.50955 409.784 184.35022 410.652 188.67739 411.52 194.51477 412.388 192.98505 413.256 199.64698 414.124 201.48773 414.992 206.7084 415.86 205.90959 416.728 210.53716 417.596 211.05634 418.464 219.39702 419.332 221.34268 420.2 229.47399 421.068 227.00104 421.936 230.93233 422.804 237.12201 423.67204 240.15322 424.54 246.67839 425.408 242.00855 426.276 247.32534 427.14399 252.03655 428.01203 252.63762 428.88 255.90789 429.748 262.81098 430.616 264.0622 431.48399 263.344 432.35203 266.44468 433.22 266.05726 434.08799 266.28865 434.956 264.7163 435.824 267.88487 436.69203 265.73954 437.56 267.0862 438.42799 267.2752 439.29603 266.06019 440.164 266.92155 441.032 266.05143 441.9 263.73039 442.76799 255.44889 443.63603 255.84453 444.504 251.59581 445.372 249.1389 446.24 247.52753 447.108 243.75202 447.976 238.63889 448.844 233.93253 449.712 234.06652 450.58 228.57355 451.448 223.94734 452.316 217.96501 453.184 216.12598 454.052 213.2249 454.92 206.26786 455.788 202.91403 456.656 198.74015 457.524 198.79778 458.392 194.90181 459.26 189.45806 460.128 181.4068 460.996 186.12189 461.86399 176.68665 462.73204 171.71215 463.6 173.22324 464.468 163.97888 465.336 163.07407 466.20399 156.51982 467.07203 153.62087 467.94 150.78487 468.80799 140.34177 469.676 147.46051 470.544 141.38475 471.41203 137.76195 472.28 131.50955 473.14799 131.26305 474.01603 126.60285 474.884 126.92877 475.752 120.48329 476.62 120.346889 477.48799 120.083148 478.35603 122.21933 479.224 122.212688 480.092 117.26824 480.96 117.51816 481.82798 122.4042 482.696 119.85886 483.564 123.29273 484.432 122.03823 485.3 122.16316 486.168 124.246959 487.036 122.82893 487.904 129.96158 488.772 135.2547 489.64 132.7221 490.508 142.63567 491.376 148.67433 492.244 147.82979 493.112 150.82798 493.98 157.18964 494.848 164.45917 495.716 167.26168 496.58399 168.10543 497.45204 177.38275 498.32 180.72641 499.188 188.76012 500.056 188.72362 500.92399 192.82205 501.79203 200.91988 502.66 200.25353 503.52799 209.40662 504.396 211.29534 505.264 217.56945 506.13203 214.49726 507 220.45667"/>
<path transform="matrix(1,0,0,1,-24.4426,-26.503998)" stroke-width="2" stroke-linecap="butt" stroke-linejoin="round" fill="none" stroke="#7e2f8e" d="M73.868 214.31693 74.736 200.40019 75.604007 196.82541 76.472 194.7955 77.34 184.39157 78.208 186.33899 79.076 185.49167 79.944 181.11579 80.812 168.62014 81.68 167.07645 82.548 178.53238 83.416 166.98987 84.284 167.97953 85.152 164.39539 86.02 166.34357 86.888 152.15268 87.756 145.24677 88.624 150.27446 89.492 145.34798 90.36 146.57646 91.228 131.65534 92.096 136.26329 92.964 139.13484 93.832 128.667 94.7 127.11003 95.568 125.40104 96.436 125.38866 97.304 114.147357 98.172 117.43014 99.04 111.629489 99.908 117.59401 100.776 110.721828 101.644 102.90325 102.512 105.828968 103.38 104.1925 104.248 93.05055 105.116 94.00894 105.984 98.59857 106.852 93.811969 107.72 86.49927 108.588 85.68728 109.456 89.73891 110.324008 83.4576 111.192 80.83174 112.06 84.338169 112.928 82.093929 113.796 66.30468 114.664 59.94112 115.532 72.751918 116.4 56.722097 117.268 66.7763 118.136 52.36131 119.004009 60.6357 119.872 57.022245 120.74 71.73292 121.608 66.74213 122.476 77.06999 123.344 71.70335 124.212 86.022319 125.08 92.30546 125.948 97.50386 126.816 109.62235 127.684 98.26233 128.552 106.1724 129.42 114.69544 130.288 111.11258 131.156 118.40242 132.024 131.85369 132.892 136.64403 133.76 137.37403 134.628 135.48603 135.496 141.31275 136.364 151.73163 137.232 152.97386 138.1 160.56023 138.968 162.76012 139.836 163.64353 140.704 179.09317 141.572 178.0851 142.44 181.62966 143.308 182.84696 144.176 186.8665 145.044 198.71309 145.912 198.96683 146.78 206.02121 147.64801 204.03049 148.51599 213.15288 149.384 217.52129 150.252 223.90807 151.12 229.45514 151.988 233.68967 152.856 229.66635 153.724 234.1829 154.592 232.86428 155.46 243.73305 156.328 258.72785 157.196 254.50185 158.064 254.46424 158.93199 252.08597 159.8 261.30375 160.668 268.74089 161.536 273.30125 162.404 277.97669 163.272 282.80476 164.14 278.63423 165.00801 286.63975 165.87599 282.646 166.744 278.72846 167.612 281.0306 168.48 271.63539 169.348 276.10783 170.216 269.03996 171.084 262.71617 171.952 262.83164 172.82 264.2452 173.688 254.14852 174.556 252.73714 175.424 252.14334 176.29199 257.72288 177.16 246.86908 178.028 240.47481 178.896 241.84003 179.764 230.25485 180.632 236.78313 181.5 241.35927 182.368 232.23836 183.236 228.42453 184.104 222.06546 184.972 221.16333 185.84 219.33365 186.70801 218.33519 187.576 221.42826 188.444 206.30709 189.312 214.84198 190.18 204.14408 191.048 200.86818 191.916 194.59099 192.784 204.61878 193.652 194.19762 194.52 189.9804 195.388 191.62694 196.256 195.34418 197.12401 186.31761 197.99199 192.10057 198.86 191.75127 199.728 184.01383 200.596 176.98633 201.464 183.62352 202.332 186.96302 203.2 180.89043 204.06801 190.95607 204.936 173.87313 205.804 187.82276 206.672 177.28076 207.54 169.76737 208.408 177.16997 209.276 185.16733 210.144 179.11331 211.012 178.86219 211.88 176.20505 212.748 185.06749 213.61602 193.24411 214.484 194.56719 215.35199 202.68466 216.22 215.85558 217.088 219.86859 217.95601 212.7115 218.82399 223.98284 219.692 236.63932 220.56 235.88698 221.42801 241.58206 222.296 247.96448 223.16399 249.6438 224.032 257.7167 224.9 262.12919 225.768 263.53343 226.636 258.09379 227.504 270.4761 228.372 275.03257 229.24 282.5432 230.108 278.72883 230.97602 289.51228 231.844 288.89369 232.71199 295.1268 233.58 298.2325 234.448 297.67463 235.31601 295.1926 236.18399 303.1922 237.052 301.50163 237.92 305.9013 238.78801 309.2842 239.656 320.81596 240.52399 314.08757 241.392 318.39778 242.26 311.31474 243.128 321.33586 243.996 324.89967 244.864 326.15913 245.732 323.63536 246.6 324.45204 247.468 336.48954 248.33602 318.16426 249.204 315.91737 250.07199 325.38639 250.94 326.9866 251.808 317.54307 252.67601 315.12355 253.54399 314.21299 254.412 303.66999 255.28 307.79176 256.148 299.37666 257.01603 307.54933 257.884 297.3368 258.75199 293.84889 259.62 281.37284 260.488 270.44856 261.35603 264.80656 262.224 255.38449 263.092 247.59325 263.96 246.8222 264.828 222.35027 265.696 229.52123 266.564 218.31404 267.432 218.87436 268.3 201.76787 269.168 197.45276 270.036 184.54451 270.904 171.46117 271.772 177.1169 272.64 164.64553 273.508 164.47275 274.376 156.12334 275.244 157.10347 276.112 143.35341 276.98 140.1663 277.848 133.83365 278.716 125.37097 279.58399 128.9172 280.452 116.377788 281.32 111.85068 282.188 106.401439 283.056 102.7691 283.92399 91.90694 284.792 101.01277 285.66 84.05786 286.528 78.645778 287.396 82.72448 288.264 81.83458 289.132 68.50831 290 53.050268 290.868 56.682966 291.736 59.178968 292.604 51.273305 293.472 47.849725 294.34 55.277753 295.208 54.02343 296.07603 68.77851 296.944 70.1489 297.812 66.74043 298.68 66.555759 299.548 66.68842 300.41603 77.08456 301.284 88.51488 302.152 84.24875 303.02 83.536258 303.888 93.14965 304.756 95.090709 305.624 112.16631 306.492 120.87012 307.36 125.839229 308.228 145.89916 309.096 140.52545 309.964 154.32448 310.832 151.47563 311.7 172.49474 312.568 176.90859 313.436 178.28554 314.304 180.5915 315.172 191.63184 316.04 198.54851 316.908 211.91649 317.776 219.90615 318.64399 221.4483 319.512 224.83115 320.38 223.24163 321.24803 239.37743 322.116 250.80242 322.98399 247.88083 323.852 253.3402 324.72 256.8831 325.588 266.54786 326.456 260.4862 327.324 269.63169 328.192 272.29008 329.06 280.3368 329.928 284.4776 330.79603 279.72349 331.664 282.37379 332.53199 288.8497 333.4 295.9002 334.268 301.8001 335.13603 303.67207 336.004 298.68605 336.872 309.50767 337.74 311.91026 338.608 322.33348 339.476 311.9848 340.344 314.93049 341.212 302.0194 342.08 307.69624 342.948 305.40116 343.816 300.94459 344.684 298.9944 345.552 297.6149 346.42 285.39033 347.288 284.3092 348.156 286.43977 349.024 283.25053 349.892 266.4124 350.76 261.9958 351.628 241.44188 352.496 249.15717 353.36399 231.9062 354.23204 236.13991 355.1 218.76837 355.968 213.2996 356.836 200.1372 357.70399 191.19408 358.57203 200.13008 359.44 188.6403 360.30799 181.13704 361.176 174.43146 362.044 168.10852 362.91203 172.12342 363.78 155.72086 364.64799 159.09145 365.51603 142.67708 366.384 142.73937 367.252 138.28626 368.12 141.55876 368.98799 133.28711 369.85603 123.83693 370.724 119.10545 371.592 117.693408 372.46 111.76217 373.32798 113.53719 374.196 100.713748 375.064 104.95675 375.932 96.70776 376.8 101.35104 377.668 94.66219 378.536 90.146709 379.404 90.39356 380.272 77.19122 381.14 78.274868 382.008 73.22627 382.876 75.80344 383.744 63.39213 384.612 70.30724 385.48 71.40996 386.348 74.43827 387.216 71.20518 388.08399 74.90329 388.95204 74.50163 389.82 87.771389 390.688 89.193599 391.556 91.577388 392.42399 91.23095 393.29203 98.263698 394.16 93.289279 395.02799 113.108287 395.896 121.238208 396.764 114.79923 397.63203 127.89344 398.5 146.34613 399.36799 151.67671 400.236 150.66983 401.104 159.82842 401.97203 172.81893 402.84 182.8204 403.70799 187.43207 404.57603 191.91527 405.444 201.39659 406.312 203.11472 407.18 210.01399 408.04798 220.82056 408.91603 224.98297 409.784 228.82498 410.652 231.34156 411.52 231.34648 412.388 241.178 413.256 248.72415 414.124 247.13434 414.992 260.36305 415.86 252.90715 416.728 257.3661 417.596 262.04359 418.464 268.71263 419.332 278.85084 420.2 275.1344 421.068 275.70323 421.936 289.15913 422.804 285.07807 423.67204 290.49418 424.54 302.73048 425.408 294.36265 426.276 302.03306 427.14399 294.9939 428.01203 309.47828 428.88 307.57188 429.748 298.99818 430.616 314.25123 431.48399 317.5422 432.35203 314.70677 433.22 301.81248 434.08799 290.06504 434.956 301.77296 435.824 288.24723 436.69203 287.39753 437.56 284.78633 438.42799 286.60029 439.29603 277.48838 440.164 273.23274 441.032 263.61329 441.9 253.6901 442.76799 250.13204 443.63603 238.80748 444.504 224.8605 445.372 223.28147 446.24 210.79123 447.108 203.53188 447.976 194.41567 448.844 186.66466 449.712 185.13269 450.58 186.78852 451.448 176.77368 452.316 171.38838 453.184 166.04669 454.052 158.12833 454.92 143.01903 455.788 139.37909 456.656 142.8437 457.524 132.15608 458.392 132.48453 459.26 135.21143 460.128 123.29791 460.996 132.20262 461.86399 117.12623 462.73204 106.900089 463.6 113.6061 464.468 115.69602 465.336 105.42205 466.20399 104.10228 467.07203 103.78494 467.94 102.607189 468.80799 92.114788 469.676 93.24205 470.544 97.25183 471.41203 84.041797 472.28 69.86377 473.14799 82.2091 474.01603 81.22438 474.884 78.03156 475.752 73.57612 476.62 64.97192 477.48799 75.297199 478.35603 83.561649 479.224 91.83767 480.092 92.83132 480.96 93.18544 481.82798 99.745708 482.696 97.57212 483.564 108.53193 484.432 111.2618 485.3 110.555469 486.168 119.93426 487.036 131.57584 487.904 133.54576 488.772 152.74463 489.64 156.25406 490.508 154.92974 491.376 171.79232 492.244 173.85164 493.112 182.74877 493.98 197.36518 494.848 199.12773 495.716 197.88695 496.58399 210.8768 497.45204 209.31964 498.32 213.37419 499.188 228.71947 500.056 229.86487 500.92399 238.84999 501.79203 246.34362 502.66 244.78575 503.52799 254.65752 504.396 252.68096 505.264 254.46059 506.13203 256.7965 507 262.58506"/>
<path transform="matrix(1,0,0,1,-24.4426,-26.503998)" d="M256 366V298.5H81V366Z" fill="#ffffff"/>
<use data-text="S" xlink:href="#font_0_52" transform="matrix(12.6,0,0,-12.6,93.5574,286.746)"/>
<use data-text="e" xlink:href="#font_0_70" transform="matrix(12.6,0,0,-12.6,101.9616,286.746)"/>
<use data-text="n" xlink:href="#font_0_79" transform="matrix(12.6,0,0,-12.6,108.96721,286.746)"/>
<use data-text="s" xlink:href="#font_0_84" transform="matrix(12.6,0,0,-12.6,116.6658,286.746)"/>
<use data-text="o" xlink:href="#font_0_80" transform="matrix(12.6,0,0,-12.6,123.6714,286.746)"/>
<use data-text="r" xlink:href="#font_0_83" transform="matrix(12.6,0,0,-12.6,131.37001,286.746)"/>
<use data-text=" " xlink:href="#font_0_1" transform="matrix(12.6,0,0,-12.6,136.27141,286.746)"/>
<use data-text="2" xlink:href="#font_0_19" transform="matrix(12.6,0,0,-12.6,139.7742,286.746)"/>
<use data-text="2" xlink:href="#font_0_19" transform="matrix(12.6,0,0,-12.6,146.77982,286.746)"/>
<use data-text=":" xlink:href="#font_0_27" transform="matrix(12.6,0,0,-12.6,153.7854,286.746)"/>
<use data-text=" " xlink:href="#font_0_1" transform="matrix(12.6,0,0,-12.6,157.9812,286.746)"/>
<use data-text="(" xlink:href="#font_0_9" transform="matrix(12.6,0,0,-12.6,161.48401,286.746)"/>
<use data-text=" " xlink:href="#font_0_1" transform="matrix(12.6,0,0,-12.6,165.67981,286.746)"/>
<use data-text="1" xlink:href="#font_0_18" transform="matrix(12.6,0,0,-12.6,169.18262,286.746)"/>
<use data-text="6" xlink:href="#font_0_23" transform="matrix(12.6,0,0,-12.6,176.1882,286.746)"/>
<use data-text="." xlink:href="#font_0_15" transform="matrix(12.6,0,0,-12.6,183.19382,286.746)"/>
<use data-text="0" xlink:href="#font_0_17" transform="matrix(12.6,0,0,-12.6,186.69661,286.746)"/>
<use data-text="," xlink:href="#font_0_13" transform="matrix(12.6,0,0,-12.6,193.70221,286.746)"/>
<use data-text=" " xlink:href="#font_0_1" transform="matrix(12.6,0,0,-12.6,197.20502,286.746)"/>
<use data-text="6" xlink:href="#font_0_23" transform="matrix(12.6,0,0,-12.6,200.70781,286.746)"/>
<use data-text="4" xlink:href="#font_0_21" transform="matrix(12.6,0,0,-12.6,207.71341,286.746)"/>
<use data-text="." xlink:href="#font_0_15" transform="matrix(12.6,0,0,-12.6,214.71901,286.746)"/>
<use data-text="0" xlink:href="#font_0_17" transform="matrix(12.6,0,0,-12.6,218.2218,286.746)"/>
<use data-text=")" xlink:href="#font_0_10" transform="matrix(12.6,0,0,-12.6,225.22742,286.746)"/>
<path transform="matrix(1,0,0,1,-24.4426,-26.503998)" stroke-width="2" stroke-linecap="butt" stroke-linejoin="round" fill="none" stroke="#0072bd" d="M85 308.25H115"/>
<use data-text="S" xlink:href="#font_0_52" transform="matrix(12.6,0,0,-12.6,93.5574,302.746)"/>
<use data-text="e" xlink:href="#font_0_70" transform="matrix(12.6,0,0,-12.6,101.9616,302.746)"/>
<use data-text="n" xlink:href="#font_0_79" transform="matrix(12.6,0,0,-12.6,108.96721,302.746)"/>
<use data-text="s" xlink:href="#font_0_84" transform="matrix(12.6,0,0,-12.6,116.6658,302.746)"/>
<use data-text="o" xlink:href="#font_0_80" transform="matrix(12.6,0,0,-12.6,123.6714,302.746)"/>
<use data-text="r" xlink:href="#font_0_83" transform="matrix(12.6,0,0,-12.6,131.37001,302.746)"/>
<use data-text=" " xlink:href="#font_0_1" transform="matrix(12.6,0,0,-12.6,136.27141,302.746)"/>
<use data-text="2" xlink:href="#font_0_19" transform="matrix(12.6,0,0,-12.6,139.7742,302.746)"/>
<use data-text="3" xlink:href="#font_0_20" transform="matrix(12.6,0,0,-12.6,146.77982,302.746)"/>
<use data-text=":" xlink:href="#font_0_27" transform="matrix(12.6,0,0,-12.6,153.7854,302.746)"/>
<use data-text=" " xlink:href="#font_0_1" transform="matrix(12.6,0,0,-12.6,157.9812,302.746)"/>
<use data-text="(" xlink:href="#font_0_9" transform="matrix(12.6,0,0,-12.6,161.48401,302.746)"/>
<use data-text=" " xlink:href="#font_0_1" transform="matrix(12.6,0,0,-12.6,165.67981,302.746)"/>
<use data-text="3" xlink:href="#font_0_20" transform="matrix(12.6,0,0,-12.6,169.18262,302.746)"/>
<use data-text="2" xlink:href="#font_0_19" transform="matrix(12.6,0,0,-12.6,176.1882,302.746)"/>
<use data-text="." xlink:href="#font_0_15" transform="matrix(12.6,0,0,-12.6,183.19382,302.746)"/>
<use data-text="0" xlink:href="#font_0_17" transform="matrix(12.6,0,0,-12.6,186.69661,302.746)"/>
<use data-text="," xlink:href="#font_0_13" transform="matrix(12.6,0,0,-12.6,193.70221,302.746)"/>
<use data-text=" " xlink:href="#font_0_1" transform="matrix(12.6,0,0,-12.6,197.20502,302.746)"/>
<use data-text="6" xlink:href="#font_0_23" transform="matrix(12.6,0,0,-12.6,200.70781,302.746)"/>
<use data-text="4" xlink:href="#font_0_21" transform="matrix(12.6,0,0,-12.6,207.71341,302.746)"/>
<use data-text="." xlink:href="#font_0_15" transform="matrix(12.6,0,0,-12.6,214.71901,302.746)"/>
<use data-text="0" xlink:href="#font_0_17" transform="matrix(12.6,0,0,-12.6,218.2218,302.746)"/>
<use data-text=")" xlink:href="#font_0_10" transform="matrix(12.6,0,0,-12.6,225.22742,302.746)"/>
<path transform="matrix(1,0,0,1,-24.4426,-26.503998)" stroke-width="2" stroke-linecap="butt" stroke-linejoin="round" fill="none" stroke="#d95319" d="M85 324.25H115"/>
<use data-text="S" xlink:href="#font_0_52" transform="matrix(12.6,0,0,-12.6,93.5574,318.746)"/>
<use data-text="e" xlink:href="#font_0_70" transform="matrix(12.6,0,0,-12.6,101.9616,318.746)"/>
<use data-text="n" xlink:href="#font_0_79" transform="matrix(12.6,0,0,-12.6,108.96721,318.746)"/>
<use data-text="s" xlink:href="#font_0_84" transform="matrix(12.6,0,0,-12.6,116.6658,318.746)"/>
<use data-text="o" xlink:href="#font_0_80" transform="matrix(12.6,0,0,-12.6,123.6714,318.746)"/>
<use data-text="r" xlink:href="#font_0_83" transform="matrix(12.6,0,0,-12.6,131.37001,318.746)"/>
<use data-text=" " xlink:href="#font_0_1" transform="matrix(12.6,0,0,-12.6,136.27141,318.746)"/>
<use data-text="2" xlink:href="#font_0_19" transform="matrix(12.6,0,0,-12.6,139.7742,318.746)"/>
<use data-text="4" xlink:href="#font_0_21" transform="matrix(12.6,0,0,-12.6,146.77982,318.746)"/>
<use data-text=":" xlink:href="#font_0_27" transform="matrix(12.6,0,0,-12.6,153.7854,318.746)"/>
<use data-text=" " xlink:href="#font_0_1" transform="matrix(12.6,0,0,-12.6,157.9812,318.746)"/>
<use data-text="(" xlink:href="#font_0_9" transform="matrix(12.6,0,0,-12.6,161.48401,318.746)"/>
<use data-text=" " xlink:href="#font_0_1" transform="matrix(12.6,0,0,-12.6,165.67981,318.746)"/>
<use data-text="4" xlink:href="#font_0_21" transform="matrix(12.6,0,0,-12.6,169.18262,318.746)"/>
<use data-text="8" xlink:href="#font_0_25" transform="matrix(12.6,0,0,-12.6,176.1882,318.746)"/>
<use data-text="." xlink:href="#font_0_15" transform="matrix(12.6,0,0,-12.6,183.19382,318.746)"/>
<use data-text="0" xlink:href="#font_0_17" transform="matrix(12.6,0,0,-12.6,186.69661,318.746)"/>
<use data-text="," xlink:href="#font_0_13" transform="matrix(12.6,0,0,-12.6,193.70221,318.746)"/>
<use data-text=" " xlink:href="#font_0_1" transform="matrix(12.6,0,0,-12.6,197.20502,318.746)"/>
<use data-text="6" xlink:href="#font_0_23" transform="matrix(12.6,0,0,-12.6,200.70781,318.746)"/>
<use data-text="4" xlink:href="#font_0_21" transform="matrix(12.6,0,0,-12.6,207.71341,318.746)"/>
<use data-text="." xlink:href="#font_0_15" transform="matrix(12.6,0,0,-12.6,214.71901,318.746)"/>
<use data-text="0" xlink:href="#font_0_17" transform="matrix(12.6,0,0,-12.6,218.2218,318.746)"/>
<use data-text=")" xlink:href="#font_0_10" transform="matrix(12.6,0,0,-12.6,225.22742,318.746)"/>
<path transform="matrix(1,0,0,1,-24.4426,-26.503998)" stroke-width="2" stroke-linecap="butt" stroke-linejoin="round" fill="none" stroke="#edb120" d="M85 340.25H115"/>
<use data-text="S" xlink:href="#font_0_52" transform="matrix(12.6,0,0,-12.6,93.5574,334.746)"/>
<use data-text="e" xlink:href="#font_0_70" transform="matrix(12.6,0,0,-12.6,101.9616,334.746)"/>
<use data-text="n" xlink:href="#font_0_79" transform="matrix(12.6,0,0,-12.6,108.96721,334.746)"/>
<use data-text="s" xlink:href="#font_0_84" transform="matrix(12.6,0,0,-12.6,116.6658,334.746)"/>
<use data-text="o" xlink:href="#font_0_80" transform="matrix(12.6,0,0,-12.6,123.6714,334.746)"/>
<use data-text="r" xlink:href="#font_0_83" transform="matrix(12.6,0,0,-12.6,131.37001,334.746)"/>
<use data-text=" " xlink:href="#font_0_1" transform="matrix(12.6,0,0,-12.6,136.27141,334.746)"/>
<use data-text="2" xlink:href="#font_0_19" transform="matrix(12.6,0,0,-12.6,139.7742,334.746)"/>
<use data-text="5" xlink:href="#font_0_22" transform="matrix(12.6,0,0,-12.6,146.77982,334.746)"/>
<use data-text=":" xlink:href="#font_0_27" transform="matrix(12.6,0,0,-12.6,153.7854,334.746)"/>
<use data-text=" " xlink:href="#font_0_1" transform="matrix(12.6,0,0,-12.6,157.9812,334.746)"/>
<use data-text="(" xlink:href="#font_0_9" transform="matrix(12.6,0,0,-12.6,161.48401,334.746)"/>
<use data-text=" " xlink:href="#font_0_1" transform="matrix(12.6,0,0,-12.6,165.67981,334.746)"/>
<use data-text="6" xlink:href="#font_0_23" transform="matrix(12.6,0,0,-12.6,169.18262,334.746)"/>
<use data-text="4" xlink:href="#font_0_21" transform="matrix(12.6,0,0,-12.6,176.1882,334.746)"/>
<use data-text="." xlink:href="#font_0_15" transform="matrix(12.6,0,0,-12.6,183.19382,334.746)"/>
<use data-text="0" xlink:href="#font_0_17" transform="matrix(12.6,0,0,-12.6,186.69661,334.746)"/>
<use data-text="," xlink:href="#font_0_13" transform="matrix(12.6,0,0,-12.6,193.70221,334.746)"/>
<use data-text=" " xlink:href="#font_0_1" transform="matrix(12.6,0,0,-12.6,197.20502,334.746)"/>
<use data-text="6" xlink:href="#font_0_23" transform="matrix(12.6,0,0,-12.6,200.70781,334.746)"/>
<use data-text="4" xlink:href="#font_0_21" transform="matrix(12.6,0,0,-12.6,207.71341,334.746)"/>
<use data-text="." xlink:href="#font_0_15" transform="matrix(12.6,0,0,-12.6,214.71901,334.746)"/>
<use data-text="0" xlink:href="#font_0_17" transform="matrix(12.6,0,0,-12.6,218.2218,334.746)"/>
<use data-text=")" xlink:href="#font_0_10" transform="matrix(12.6,0,0,-12.6,225.22742,334.746)"/>
<path transform="matrix(1,0,0,1,-24.4426,-26.503998)" stroke-width="2" stroke-linecap="butt" stroke-linejoin="round" fill="none" stroke="#7e2f8e" d="M85 356.25H115"/>
<path transform="matrix(1,0,0,1,-24.4426,-26.503998)" stroke-width=".5" stroke-linecap="butt" stroke-miterlimit="10" stroke-linejoin="miter" fill="none" stroke="#323232" d="M81 366V298.5H256V366Z"/>
</svg>
