<svg xmlns="http://www.w3.org/2000/svg" xmlns:xlink="http://www.w3.org/1999/xlink" version="1.1" width="501" height="229" viewBox="0 0 501 229">
<defs>
<path id="font_0_18" d="M.25898744 .5149994V0H.34700013V.72299197H.2889862C.2579956 .6119995 .23799134 .5970001 .101989749 .57899478V.5149994H.25898744Z"/>
<path id="font_0_23" d="M.49798585 .5349884C.48098756 .6529999 .40499879 .72299197 .29699708 .72299197 .21899414 .72299197 .14898682 .68499758 .10699463 .6199951 .06199646 .548996 .042999269 .46099855 .042999269 .32998658 .042999269 .20799256 .05999756 .1309967 .102996829 .066986087 .14099121 .0079956059 .20298767-.023010254 .2809906-.023010254 .41600038-.023010254 .5130005 .07798767 .5130005 .21899414 .5130005 .35198976 .4229889 .44599916 .29599 .44599916 .22599793 .44599916 .17098999 .41999818 .1329956 .36698915 .13398743 .54599 .18998719 .644989 .29100038 .644989 .35299684 .644989 .3959961 .6049957 .4099884 .5349884H.49798585M.2849884 .36799623C.36999513 .36799623 .4229889 .30799867 .4229889 .21199036 .4229889 .12098694 .36299134 .054992677 .28199769 .054992677 .19999695 .054992677 .13798523 .12399292 .13798523 .21598816 .13798523 .30599977 .19799805 .36799623 .2849884 .36799623Z"/>
<path id="font_0_22" d="M.47599793 .70899966H.10998535L.056991579 .32299806H.13798523C.1789856 .37199403 .21299744 .3889923 .2689972 .3889923 .3639984 .3889923 .4229889 .32398988 .4229889 .21899414 .4229889 .116989139 .3639984 .054992677 .2679901 .054992677 .19099427 .054992677 .14399719 .09399414 .12298584 .17399597H.034988405C.04699707 .115997318 .056991579 .08799744 .07798767 .06199646 .117996219 .0079956059 .18998719-.023010254 .269989-.023010254 .41299439-.023010254 .5130005 .08099365 .5130005 .23098755 .5130005 .37098695 .41999818 .46699525 .28399659 .46699525 .23399353 .46699525 .19400025 .45399476 .15299988 .42399598L.18099976 .621994H.47599793V.70899966Z"/>
<path id="font_1_17" d="M.272995 .723999C.19699097 .723999 .13198853 .69200137 .08898926 .6329956 .04798889 .5779877 .0289917 .48799134 .0289917 .34999085 .0289917 .22399903 .04499817 .13598633 .07899475 .08198547 .12098694 .01399231 .18998719-.023010254 .272995-.023010254 .34999085-.023010254 .41299439 .0079956059 .45700074 .066986087 .49699403 .12199402 .5169983 .21299744 .5169983 .34599305 .5169983 .47599793 .5009918 .56399539 .46699525 .61898806 .4249878 .68699648 .35598756 .723999 .272995 .723999M.272995 .61099246C.30899049 .61099246 .33799745 .59098818 .35499574 .55400088 .36898805 .5239868 .3769989 .44699098 .3769989 .34899903 .3769989 .2689972 .36999513 .19099427 .35899354 .1619873 .34298707 .11999512 .31298829 .09700012 .272995 .09700012 .23599243 .09700012 .20799256 .115997318 .19099427 .1519928 .1769867 .18199158 .16899109 .2559967 .16899109 .35099793 .16899109 .43499757 .17599488 .5149994 .18699646 .5439911 .20199585 .58699038 .23298645 .61099246 .272995 .61099246Z"/>
<path id="font_0_21" d="M.32699586 .1749878V0H.4149933V.1749878H.519989V.2539978H.4149933V.72299197H.34999085L.027999878 .2679901V.1749878H.32699586M.32699586 .2539978H.10499573L.32699586 .57299807V.2539978Z"/>
<path id="font_0_19" d="M.5059967 .08699036H.1329956C.14199829 .14698792 .17399597 .18499756 .26098634 .23799134L.36099244 .2939911C.45999146 .34899903 .5109863 .4229889 .5109863 .5119934 .5109863 .57199099 .4869995 .6279907 .44499208 .6669922 .40299989 .7049866 .35099793 .72299197 .28399659 .72299197 .19400025 .72299197 .1269989 .69099429 .08799744 .6289978 .06298828 .59098818 .051986696 .54599 .049987794 .47299195H.13798523C.14099121 .5219879 .14698792 .5509949 .15899658 .57499697 .18199158 .61898806 .22799683 .6459961 .2809906 .6459961 .36099244 .6459961 .42099 .58799746 .42099 .5099945 .42099 .45199586 .3880005 .4019928 .32499696 .3659973L.23298645 .31199647C.084991458 .22698975 .041992189 .15899658 .033996583 .0009918213H.5059967V.08699036Z"/>
<path id="font_1_21" d="M.5219879 .272995H.44799806V.70899966H.2829895L.023986817 .2749939V.15699768H.30799867V0H.44799806V.15699768H.5219879V.272995M.30799867 .272995H.12298584L.30799867 .57598879V.272995Z"/>
<path id="font_0_20" d="M.22099304 .33299256H.23199463 .2689972C.36499024 .33299256 .41600038 .28799439 .41600038 .20098877 .41600038 .10998535 .36099244 .054992677 .269989 .054992677 .17298889 .054992677 .12599182 .10398865 .11999512 .20999146H.03199768C.035995485 .1519928 .04598999 .11399841 .06298828 .08198547 .099990848 .011993408 .16899109-.023010254 .2659912-.023010254 .4119873-.023010254 .5059967 .06498718 .5059967 .20199585 .5059967 .2939911 .47099305 .34399415 .38598634 .37399293 .45199586 .40098573 .4850006 .45098878 .4850006 .5239868 .4850006 .647995 .4039917 .72299197 .2689972 .72299197 .12599182 .72299197 .049987794 .6429901 .04699707 .48999024H.1349945C.13598633 .5339966 .13999939 .5589905 .15098572 .58099368 .17098999 .621994 .21499634 .6459961 .269989 .6459961 .34799195 .6459961 .394989 .598999 .394989 .5209961 .394989 .46998597 .3769989 .43899537 .33799745 .42199708 .31399537 .4119873 .28199769 .4079895 .22099304 .40699769V.33299256Z"/>
<path id="font_1_18" d="M.23799134 .4889984V0H.37799073V.70899966H.2849884C.2630005 .625 .18998719 .58200076 .067993167 .58200076V.4889984H.23799134Z"/>
<path id="font_1_19" d="M.5119934 .125H.21099854C.22999573 .16299439 .2519989 .18399048 .35598756 .25898744 .47898866 .34899903 .5149994 .4019928 .5149994 .49899293 .5149994 .6359863 .41999818 .723999 .27198792 .723999 .125 .723999 .038986207 .6369934 .038986207 .4869995V.46199037H.17399597V.4850006C.17399597 .56399539 .21099854 .6100006 .2749939 .6100006 .33699037 .6100006 .375 .5669861 .375 .49598695 .375 .4169922 .35099793 .3880005 .19299317 .27598573 .07299805 .19400025 .035995485 .13198853 .02999878 0H.5119934V.125Z"/>
<path id="font_1_25" d="M.40899659 .38598634C.43299867 .39898683 .44400025 .4059906 .45498658 .41600038 .48399354 .44299317 .5009918 .48599244 .5009918 .5319977 .5009918 .6429901 .40499879 .723999 .27398683 .723999 .14199829 .723999 .04598999 .6429901 .04598999 .5309906 .04598999 .46299745 .07398987 .41999818 .13798523 .38598634 .055999757 .34098817 .021987915 .28799439 .021987915 .20399475 .021987915 .069992069 .125-.023010254 .27398683-.023010254 .42199708-.023010254 .5249939 .069992069 .5249939 .20399475 .5249939 .28799439 .4909973 .34098817 .40899659 .38598634M.2749939 .61099246C.33699037 .61099246 .37998963 .57299807 .37998963 .5179901 .37998963 .46398927 .33599855 .4249878 .2749939 .4249878 .21199036 .4249878 .16899109 .46299745 .16899109 .5189972 .16899109 .57299807 .21199036 .61099246 .2749939 .61099246M.272995 .32998658C.34199525 .32998658 .3849945 .28399659 .3849945 .20999146 .3849945 .14199829 .34098817 .09700012 .272995 .09700012 .20498657 .09700012 .1619873 .14199829 .1619873 .21199036 .1619873 .28399659 .20498657 .32998658 .272995 .32998658Z"/>
<path id="font_2_1" d="M.051757814-.0078125C.043945314-.0055033366 .040039064-.000890096 .040039064 .0060272219 .040039064 .0096588139 .040690107 .012461345 .041992189 .014434814 .0625 .045898439 .0875651 .076146449 .1171875 .10517883 .14680989 .13421123 .1805013 .1633199 .21826172 .19250489 .25602214 .22170003 .29134117 .24927266 .32421876 .27522279 .35709635 .30117289 .38427735 .32452903 .40576173 .34529115 .3976237 .3449656 .3738607 .34332276 .33447267 .34036256 .29508464 .3374125 .26660157 .3359375 .24902344 .3359375 .19889324 .3359375 .17285156 .3327179 .17089844 .3262787 .1686198 .32199607 .16503906 .318868 .16015625 .31689454H.13378906C.12532552 .3191732 .12109375 .32389833 .12109375 .33106996 .12109375 .33172099 .12141927 .3336741 .12207031 .33692933 .12760417 .3585968 .13785808 .37812806 .15283203 .39552308 .16780599 .4129181 .1854655 .42670188 .20581055 .4368744 .2261556 .4470571 .24723308 .45214845 .26904298 .45214845 .28466798 .45214845 .2985026 .4492747 .31054688 .44352723 .32259117 .43777976 .33780924 .42867027 .35620118 .41619874 .3745931 .4037272 .38785807 .39551798 .3959961 .39157105 .40413413 .38763429 .4140625 .3856659 .42578126 .3856659 .43652345 .3856659 .4453939 .38927714 .45239259 .39649964 .45939128 .40372215 .46785484 .4144745 .4777832 .4287567 .48771159 .44303895 .4951172 .45083619 .5 .45214845H.5258789C.53466799 .44984947 .5390625 .4450887 .5390625 .4378662 .5390625 .43491618 .5362956 .4294993 .5307617 .4216156 .51090499 .39182029 .48657228 .36299134 .45776368 .33512879 .42895509 .3072764 .39794923 .2803904 .3647461 .25447084 .33154298 .2285614 .2967936 .20151265 .26049806 .17332459 .22420247 .14514669 .19466146 .12020874 .171875 .09851074 .17317708 .09917196 .17561849 .09950256 .17919922 .09950256 .19319661 .09950256 .22013347 .100982669 .26000978 .10394287 .29988609 .106913249 .33154298 .10839844 .35498048 .10839844 .4256185 .10839844 .46533204 .12516277 .4741211 .1586914 .47509767 .16292317 .47867839 .16585286 .48486329 .16748047H.51123049C.51969406 .16515096 .5239258 .16033428 .5239258 .1530304 .5239258 .15236919 .5236003 .15037537 .5229492 .14704895 .5164388 .120173137 .50358077 .094690959 .484375 .07060242 .46516929 .046513875 .4424642 .027420044 .41625978 .013320923 .39005534-.0007680257 .36295573-.0078125 .33496095-.0078125 .32063804-.0078125 .3075358-.0050964357 .2956543 .00033569337 .2837728 .0057779948 .2697754 .014104207 .2536621 .025314331 .23754883 .036524457 .22420247 .04493205 .21362305 .05053711 .20304363 .05614217 .19124349 .058944704 .17822266 .058944704 .16129558 .058944704 .14664714 .054575605 .13427735 .045837404 .121907558 .0370992 .11027018 .026219687 .099365238 .013198853 .08846029 .00017801921 .08138021-.006825765 .078125-.0078125H.051757814Z"/>
<path id="font_3_1" d="M.34814454-.24707031C.3087565-.21972656 .27392579-.18766277 .24365235-.1508789 .2133789-.114095058 .18798828-.07373047 .16748047-.029785157 .14697266 .014160156 .1315918 .060221357 .12133789 .10839844 .111083988 .15657552 .10595703 .20410156 .10595703 .25097657 .10595703 .29752604 .111083988 .3449707 .12133789 .39331056 .1315918 .4416504 .14713542 .48787437 .16796875 .5319824 .18880208 .5760905 .21411133 .6163737 .24389649 .65283206 .27368165 .68929037 .308431 .7210286 .34814454 .7480469 .34847007 .7483724 .3507487 .74902346 .35498048 .75H.3701172C.3779297 .7477214 .38183595 .7430013 .38183595 .73583987 .38183595 .7319336 .38085938 .7290039 .37890626 .7270508 .34765626 .6980794 .3207194 .6648763 .2980957 .6274414 .27547203 .59000656 .2577311 .5510254 .24487305 .51049807 .23201497 .4699707 .22249349 .42797853 .2163086 .38452149 .2101237 .34106446 .20703125 .29654948 .20703125 .25097657 .20703125 .20540364 .2101237 .16088867 .2163086 .11743164 .22249349 .07397461 .23209636 .03173828 .24511719-.009277344 .25813804-.05029297 .2758789-.08943685 .29833985-.12670899 .32080079-.16398113 .34765626-.19710286 .37890626-.22607422 .38085938-.2290039 .38183595-.2319336 .38183595-.23486328 .38183595-.24202474 .3779297-.2467448 .3701172-.24902344H.35498048C.3507487-.24804688 .34847007-.24739583 .34814454-.24707031Z"/>
<path id="font_3_2" d="M.03515625 0V.05078125H.104003909V.60736086C.104003909 .6197408 .09749349 .627477 .084472659 .63056948 .07145182 .6336619 .05501302 .63520815 .03515625 .63520815V.68652346L.21582031 .69433596V.2421875L.39697267 .38511659C.39697267 .38804627 .39265953 .39016215 .3840332 .39146424 .3754069 .3927765 .3683268 .39343263 .36279298 .39343263V.44433595H.5620117V.39349366C.5148112 .39349366 .4868164 .39039613 .47802735 .38420106L.34277345 .27713014 .51708987 .060073854C.5242513 .053878786 .54752609 .05078125 .58691409 .05078125V0H.35595704V.05078125C.3774414 .05078125 .3881836 .053548177 .3881836 .05908203L.26416017 .21484375 .2109375 .17285156V.05078125H.27978517V0H.03515625Z"/>
<path id="font_3_3" d="M.04296875 0V.05078125H.111816409V.36279298C.111816409 .3816732 .08886719 .39111329 .04296875 .39111329V.44189454L.21923828 .4501953V.34814454C.22965496 .36865235 .24381511 .38663737 .26171876 .4020996 .2796224 .41756187 .2997233 .42944337 .32202149 .43774415 .34431968 .44604493 .36702476 .4501953 .39013673 .4501953 .4165039 .4501953 .43977867 .4477539 .45996095 .4428711 .48014323 .43798829 .4975586 .4288737 .51220706 .41552735 .52685549 .402181 .5374349 .38297526 .5439453 .35791017 .5608724 .386556 .5842285 .4090983 .6140137 .4255371 .6437988 .44197593 .67545577 .4501953 .7089844 .4501953 .76171877 .4501953 .8014323 .43937174 .828125 .4177246 .8548177 .39607749 .86816409 .35921226 .86816409 .3071289V.05078125H.9370117V0H.68115237V.05078125H.75V.30419923C.75 .3347982 .7468262 .36010743 .7404785 .38012696 .73413088 .40014649 .7192383 .41015626 .6958008 .41015626 .67008468 .41015626 .64575198 .40323893 .62280276 .3894043 .5998535 .37556968 .5817871 .35725913 .5686035 .33447267 .5554199 .3116862 .5488281 .28727214 .5488281 .26123048V.05078125H.61816409V0H.3618164V.05078125H.43115235V.30419923C.43115235 .3347982 .42797853 .36010743 .42163087 .38012696 .4152832 .40014649 .40039063 .41015626 .37695313 .41015626 .35058595 .41015626 .32609049 .40323893 .3034668 .3894043 .2808431 .37556968 .26293946 .35725913 .24975586 .33447267 .23657227 .3116862 .22998047 .28727214 .22998047 .26123048V.05078125H.29882813V0H.04296875Z"/>
<path id="font_3_4" d="M.07714844-.24902344C.068359378-.24707031 .063964847-.24235027 .063964847-.23486328 .063964847-.23063152 .06526693-.22770183 .067871097-.22607422 .10888672-.1883138 .14225261-.14331055 .16796875-.09106445 .19368489-.03881836 .21191406 .01578776 .22265625 .072753909 .23339844 .12972005 .23876953 .18912761 .23876953 .25097657 .23876953 .31184898 .23339844 .370931 .22265625 .42822267 .21191406 .4855143 .19368489 .54020187 .16796875 .59228518 .14225261 .64436849 .10888672 .68929037 .067871097 .7270508 .06526693 .72965499 .063964847 .73258468 .063964847 .73583987 .063964847 .74332687 .068359378 .7480469 .07714844 .75H.091796878C.095703128 .74869796 .09781901 .7480469 .09814453 .7480469 .13720703 .7216797 .17211914 .6897786 .20288086 .65234377 .23364258 .6149089 .25919596 .5743001 .27954103 .5305176 .29988609 .48673503 .3150228 .44140626 .32495118 .39453126 .33487956 .34765626 .33984376 .2998047 .33984376 .25097657 .33984376 .20182292 .33487956 .15388997 .32495118 .107177738 .3150228 .060465497 .30004884 .015380859 .2800293-.028076172 .26000978-.0715332 .23445638-.112223308 .20336914-.15014649 .1722819-.18806966 .13720703-.22037761 .09814453-.24707031 .09781901-.24707031 .095703128-.24772136 .091796878-.24902344H.07714844Z"/>
<path id="font_0_17" d="M.2749939 .72299197C.20899964 .72299197 .14898682 .69299319 .11199951 .6439972 .06599426 .5799866 .042999269 .48399354 .042999269 .34999085 .042999269 .10598755 .12298584-.023010254 .2749939-.023010254 .4249878-.023010254 .5069885 .10598755 .5069885 .34399415 .5069885 .48399354 .4850006 .5779877 .43798829 .6439972 .40098573 .69400027 .34199525 .72299197 .2749939 .72299197M.2749939 .644989C.36999513 .644989 .4169922 .5479889 .4169922 .35198976 .4169922 .1459961 .37098695 .049987794 .272995 .049987794 .17999268 .049987794 .1329956 .1499939 .1329956 .34899903 .1329956 .5479889 .17999268 .644989 .2749939 .644989Z"/>
<path id="font_0_1" d="M0 0Z"/>
<path id="font_0_25" d="M.3909912 .3809967C.46499635 .42599488 .48799134 .46199037 .48799134 .5299988 .48799134 .6439972 .40098573 .72299197 .2749939 .72299197 .1499939 .72299197 .06199646 .6439972 .06199646 .5309906 .06199646 .46199037 .084991458 .4269867 .1579895 .3809967 .07699585 .33999635 .036987306 .2809906 .036987306 .20098877 .036987306 .068984989 .13398743-.023010254 .2749939-.023010254 .4149933-.023010254 .5130005 .068984989 .5130005 .20098877 .5130005 .2809906 .47299195 .33999635 .3909912 .3809967M.2749939 .644989C.34999085 .644989 .397995 .59999087 .397995 .5279999 .397995 .45999146 .34899903 .4149933 .2749939 .4149933 .19999695 .4149933 .1519928 .45999146 .1519928 .5299988 .1519928 .59999087 .19999695 .644989 .2749939 .644989M.2749939 .34098817C.36299134 .34098817 .4229889 .2829895 .4229889 .19898987 .4229889 .11199951 .3639984 .054992677 .272995 .054992677 .18699646 .054992677 .1269989 .11399841 .1269989 .19799805 .1269989 .28399659 .18598938 .34098817 .2749939 .34098817Z"/>
<path id="font_0_26" d="M.052993776 .16499329C.069992069 .04699707 .1459961-.023010254 .2539978-.023010254 .33299256-.023010254 .40299989 .01499939 .44499208 .07998657 .4889984 .15098572 .5089874 .23899842 .5089874 .36999513 .5089874 .49198915 .4909973 .56900027 .44898988 .6329956 .4099884 .69200137 .34799195 .72299197 .269989 .72299197 .1349945 .72299197 .037994386 .621994 .037994386 .48199464 .037994386 .34899903 .12799073 .25498963 .2559967 .25498963 .32299806 .25498963 .37298585 .2789917 .41799928 .33399964 .4169922 .1539917 .36099244 .054992677 .2599945 .054992677 .19799805 .054992677 .15499878 .09498596 .14099121 .16499329H.052993776M.2689972 .6459961C.35099793 .6459961 .41299439 .57699587 .41299439 .48399354 .41299439 .394989 .35299684 .33299256 .2659912 .33299256 .18099976 .33299256 .12799073 .3929901 .12799073 .4889984 .12799073 .5799866 .18699646 .6459961 .2689972 .6459961Z"/>
<path id="font_2_2" d="M.068847659-.115234378C.068847659-.09472656 .076171878-.07657877 .09082031-.060791017 .10546875-.045003255 .12320963-.037109376 .14404297-.037109376 .15315755-.037109376 .16145833-.0390625 .16894531-.04296875 .1764323-.046875 .18245442-.052327474 .18701172-.059326173 .19156902-.06632487 .19384766-.07454427 .19384766-.083984378 .19384766-.09830729 .18969727-.11165365 .18139649-.12402344 .1730957-.13639324 .16259766-.14534505 .14990235-.1508789 .16617839-.15836589 .18554688-.16210938 .20800781-.16210938 .23697917-.16210938 .2627767-.15283203 .2854004-.13427735 .30802409-.115722659 .32657878-.092936199 .34106446-.06591797 .35555015-.03889974 .36686198-.010253906 .375 .020019532 .34733073 .0014648438 .31770835-.0078125 .2861328-.0078125 .23697917-.0078125 .19702149 .0022786458 .16625977 .022460938 .13549805 .04264323 .12011719 .07584635 .12011719 .12207031 .12011719 .14257813 .12320963 .1648763 .12939453 .18896485 .13557942 .21305339 .14412435 .23917644 .1550293 .26733399 .16593425 .29549156 .17529297 .31933595 .18310547 .3388672 .19156902 .36002604 .19580078 .37809245 .19580078 .3930664 .19580078 .40576173 .19156902 .41210938 .18310547 .41210938 .15738933 .41210938 .13566081 .39933268 .11791992 .3737793 .10017904 .34822593 .0875651 .32063804 .080078128 .29101563 .079427089 .28678385 .075683597 .28385417 .068847659 .28222657H.04296875C.034179689 .28450523 .029785157 .2890625 .029785157 .29589845 .029785157 .29654948 .030110678 .2985026 .030761719 .3017578 .036946615 .3264974 .04736328 .3503418 .06201172 .37329103 .076660159 .39624024 .09472656 .41512046 .11621094 .42993165 .13769531 .44474284 .16097005 .45214845 .18603516 .45214845 .2163086 .45214845 .2434082 .44425456 .26733399 .4284668 .29125978 .41267906 .30322267 .39046226 .30322267 .3618164 .30322267 .35009767 .30078126 .3388672 .29589845 .328125 .28678385 .30533854 .27693687 .2800293 .26635743 .25219728 .25577799 .22436524 .24723308 .19783528 .24072266 .17260742 .23421224 .14737956 .23095703 .12386068 .23095703 .10205078 .23095703 .0555013 .25032554 .032226564 .2890625 .032226564 .3264974 .032226564 .36116538 .052408857 .3930664 .09277344L.46777345 .39208985C.4716797 .4070638 .47989909 .4194336 .49243165 .42919923 .5049642 .43896485 .51920577 .44384767 .53515627 .44384767 .5485026 .44384767 .55981448 .43969728 .5690918 .43139649 .57836917 .4230957 .5830078 .41227214 .5830078 .39892579 .5830078 .3930664 .5826823 .38834635 .58203127 .38476563L.48388673-.005859375C.47444663-.044596357 .45524089-.07877604 .42626954-.10839844 .3972982-.13802083 .36328126-.16105144 .32421876-.17749024 .28515626-.19392903 .2454427-.20214844 .20507813-.20214844 .17122396-.20214844 .14005535-.1953125 .111572269-.18164063 .083089198-.16796875 .068847659-.14583333 .068847659-.115234378Z"/>
<path id="font_0_24" d="M.519989 .70899966H.04598999V.621994H.42900086C.2599945 .3809967 .19099427 .23298645 .13798523 0H.23199463C.2709961 .22698975 .3600006 .42199708 .519989 .6349945V.70899966Z"/>
<path id="font_1_26" d="M.037994386 .16499329C.040985109 .055999757 .1329956-.024002076 .25498963-.024002076 .34599305-.024002076 .4149933 .01399231 .45700074 .085998538 .49398805 .14898682 .5159912 .2559967 .5159912 .36999513 .5159912 .47399903 .5 .55400088 .46699525 .60798647 .42199708 .6839905 .35198976 .723999 .2669983 .723999 .125 .723999 .027999878 .621994 .027999878 .47399903 .027999878 .32798768 .11399841 .22799683 .23999024 .22799683 .27598573 .22799683 .30999757 .23799134 .33198548 .2539978 .34498597 .2630005 .35299684 .27198792 .37599183 .2979889 .37599183 .16099549 .33799745 .09599304 .25898744 .09599304 .20899964 .09599304 .17599488 .12298584 .17298889 .16499329H.037994386M.2630005 .6100006C.33099366 .6100006 .37298585 .55799868 .37298585 .47399903 .37298585 .3959961 .32998658 .34399415 .2649994 .34399415 .20098877 .34399415 .16099549 .3939972 .16099549 .47599793 .16099549 .55799868 .19999695 .6100006 .2630005 .6100006Z"/>
<path id="font_1_23" d="M.5069885 .5479889C.5 .59399417 .4909973 .61698916 .47299195 .6429901 .43598939 .69400027 .37098695 .723999 .2939911 .723999 .20599365 .723999 .13398743 .68499758 .09098816 .6139984 .04899597 .54499819 .03199768 .46598817 .03199768 .33699037 .03199768 .21499634 .04699707 .13899231 .08299255 .08198547 .12399292 .015991211 .19799805-.023010254 .28199769-.023010254 .4229889-.023010254 .5189972 .08198547 .5189972 .23699951 .5189972 .37298585 .43499757 .46699525 .31298829 .46699525 .25498963 .46699525 .21598816 .44999696 .17199707 .4039917L.17298889 .4189911C.1749878 .4850006 .17799378 .5059967 .18798828 .5329895 .20698548 .58499148 .24099732 .61099246 .2899933 .61099246 .33499146 .61099246 .35899354 .59298709 .3769989 .5479889H.5069885M.27799989 .35598756C.34399415 .35598756 .38598634 .30599977 .38598634 .22698975 .38598634 .1519928 .33999635 .09700012 .27799989 .09700012 .21398926 .09700012 .16999817 .14898682 .16999817 .22499085 .16999817 .3019867 .21398926 .35598756 .27799989 .35598756Z"/>
<path id="font_2_3" d="M.10888672 .046875C.12093099 .037109376 .1373698 .032226564 .15820313 .032226564 .17740886 .032226564 .19401042 .041178388 .20800781 .05908203 .2220052 .07698568 .23160808 .096354167 .2368164 .1171875L.28222657 .29785157C.29003907 .32714845 .2939453 .3499349 .2939453 .36621095 .2939453 .38183595 .28889976 .39339195 .2788086 .4008789 .26871745 .40836589 .2553711 .41210938 .23876953 .41210938 .20686849 .41210938 .17781575 .4000651 .15161133 .37597657 .1254069 .35188804 .107910159 .32356773 .099121097 .29101563 .096842449 .2861328 .09309896 .28320313 .087890628 .28222657H.06201172C.053222658 .28450523 .048828126 .2890625 .048828126 .29589845 .048828126 .29654948 .049153646 .2985026 .049804689 .3017578 .056640626 .32877604 .0699056 .35392253 .08959961 .37719728 .10929362 .40047203 .13264974 .41878257 .15966797 .4321289 .1866862 .44547526 .21451824 .45214845 .24316406 .45214845 .3111979 .45214845 .3577474 .43277995 .3828125 .39404298 .3955078 .41064454 .41097007 .42447917 .42919923 .43554688 .44742839 .4466146 .46663413 .45214845 .4868164 .45214845 .5177409 .45214845 .54467776 .44392906 .56762698 .42749024 .5905762 .41105143 .6020508 .3881836 .6020508 .35888673 .6020508 .3370768 .59505209 .31811524 .5810547 .30200196 .5670573 .28588868 .5493164 .27783204 .52783206 .27783204 .51383468 .27783204 .50187179 .28230796 .49194337 .29125978 .48201499 .30021159 .47705079 .31152345 .47705079 .3251953 .47705079 .34179688 .48234049 .3569336 .49291993 .37060548 .5034993 .38427735 .51692709 .3930664 .5332031 .39697267 .5214844 .4070638 .5050456 .41210938 .48388673 .41210938 .464681 .41210938 .4481608 .4034017 .43432618 .38598634 .42049156 .36857096 .41064454 .34928385 .40478517 .328125L.35888673 .1430664C.35172526 .110839847 .34814454 .08919271 .34814454 .078125 .34814454 .06315104 .35327149 .051757814 .3635254 .043945314 .3737793 .036132814 .3868815 .032226564 .40283204 .032226564 .42464195 .032226564 .4453125 .03800456 .46484376 .049560548 .484375 .061116537 .5008952 .07609049 .5144043 .09448242 .5279134 .11287435 .5374349 .13264974 .54296877 .1538086 .54557296 .15836589 .5496419 .16113281 .5551758 .16210938H.5810547C.5888672 .15983074 .59277346 .15511067 .59277346 .14794922 .59277346 .14729817 .59244796 .14567058 .5917969 .1430664 .58528646 .116373699 .5722656 .091308597 .5527344 .067871097 .5332031 .044433595 .51000979 .025960288 .4831543 .012451172 .45629884-.0010579428 .4285482-.0078125 .39990235-.0078125 .33121745-.0078125 .2841797 .0113932299 .25878907 .049804689 .24641927 .033203126 .23095703 .01944987 .21240235 .008544922 .19384766-.0023600262 .17464192-.0078125 .15478516-.0078125 .124186199-.0078125 .09741211 .00032552085 .07446289 .016601563 .051513673 .032877607 .040039064 .055664064 .040039064 .08496094 .040039064 .10709635 .04703776 .12613933 .061035158 .14208985 .075032558 .15804036 .09309896 .16601563 .115234378 .16601563 .12890625 .16601563 .140625 .1616211 .15039063 .15283203 .16015625 .14404297 .16503906 .1328125 .16503906 .119140628 .16503906 .10221354 .15974935 .08707682 .14916992 .07373047 .1385905 .060384115 .12516277 .051432294 .10888672 .046875Z"/>
<path id="font_1_20" d="M.21699524 .31698609C.2709961 .31698609 .27398683 .31698609 .29899598 .30999757 .34599305 .29699708 .37599183 .2559967 .37599183 .20399475 .37599183 .14099121 .33198548 .09700012 .2709961 .09700012 .20498657 .09700012 .16899109 .1349945 .16499329 .20799256H.0289917C.02999878 .06599426 .12199402-.023010254 .2679901-.023010254 .4189911-.023010254 .5159912 .06599426 .5159912 .20399475 .5159912 .2869873 .47999574 .34098817 .3999939 .37998963 .46499635 .42099 .49299623 .46598817 .49299623 .5309906 .49299623 .6489868 .40499879 .723999 .2679901 .723999 .16499329 .723999 .085998538 .67900088 .054992677 .60198977 .041992189 .56799319 .037994386 .54499819 .037994386 .48599244H.16799927C.16899109 .5239868 .17199707 .54299929 .1789856 .5609894 .19198609 .59199526 .22399903 .61099246 .2649994 .61099246 .32099916 .61099246 .35299684 .57699587 .35299684 .5179901 .35299684 .44599916 .31199647 .41099549 .22898865 .41099549H.21699524V.31698609Z"/>
<path id="font_1_52" d="M.6069946 .5069885C.60598757 .6579895 .5049896 .7409973 .32099916 .7409973 .1459961 .7409973 .04499817 .6589966 .04499817 .5169983 .04499817 .4039917 .101989749 .34899903 .25 .32099916L.35198976 .30099488C.45199586 .28199769 .4889984 .2539978 .4889984 .19499207 .4889984 .13398743 .43299867 .09700012 .34199525 .09700012 .23999024 .09700012 .18299866 .13999939 .17799378 .21798706H.03199768C.040985109 .06199646 .147995-.023010254 .33399964-.023010254 .5219879-.023010254 .6329956 .06399536 .6329956 .21299744 .6329956 .32798768 .57499697 .3880005 .43998719 .4139862L.32598878 .43598939C.21899414 .45700074 .18798828 .47799684 .18798828 .5309906 .18798828 .58599856 .23599243 .62098696 .31399537 .62098696 .40899659 .62098696 .46199037 .58099368 .46699525 .5069885H.6069946Z"/>
<path id="font_1_70" d="M.5239868 .22599793C.5249939 .23799134 .5249939 .24299622 .5249939 .25 .5249939 .3039856 .5169983 .35398866 .5039978 .3919983 .46798707 .48999024 .3809967 .548996 .27198792 .548996 .116989139 .548996 .021987915 .43699647 .021987915 .2559967 .021987915 .08299255 .115997318-.023010254 .2689972-.023010254 .3899994-.023010254 .48799134 .04499817 .5189972 .1519928H.3809967C.3639984 .10899353 .32499696 .083999637 .27398683 .083999637 .23399353 .083999637 .20199585 .100997928 .18199158 .1309967 .16899109 .15098572 .1639862 .1749878 .1619873 .22599793H.5239868M.1639862 .31900025C.17298889 .4019928 .20799256 .44198609 .269989 .44198609 .33399964 .44198609 .37199403 .39898683 .3789978 .31900025H.1639862Z"/>
<path id="font_1_79" d="M.06298828 .5399933V0H.20298767V.32398988C.20298767 .3880005 .24699402 .42999269 .31599427 .42999269 .37599183 .42999269 .4059906 .39698792 .4059906 .33299256V0H.54599V.3619995C.54599 .48199464 .48098756 .548996 .36499024 .548996 .2919922 .548996 .24299622 .522995 .20298767 .46199037V.5399933H.06298828Z"/>
<path id="font_1_84" d="M.5049896 .3659973C.5029907 .47999574 .4149933 .548996 .269989 .548996 .1329956 .548996 .04798889 .47999574 .04798889 .36898805 .04798889 .33299256 .05899048 .3019867 .07798767 .2809906 .09700012 .2619934 .11399841 .25299073 .1659851 .23599243L.33299256 .18399048C.36799623 .17298889 .37998963 .1619873 .37998963 .13999939 .37998963 .10699463 .34098817 .08699036 .27598573 .08699036 .23899842 .08699036 .21099854 .09298706 .19299317 .10598755 .17799378 .116989139 .17199707 .12799073 .1659851 .15699768H.0289917C.032989503 .037994386 .11999512-.023010254 .28399659-.023010254 .35899354-.023010254 .41600038-.007003784 .45599366 .024993897 .49598695 .056991579 .519989 .10699463 .519989 .1599884 .519989 .22999573 .4850006 .2749939 .4139862 .29599L.23699951 .34700013C.19799805 .35899354 .18798828 .36698915 .18798828 .3889923 .18798828 .4189911 .21998596 .43899537 .2689972 .43899537 .33599855 .43899537 .36898805 .4149933 .36999513 .3659973H.5049896Z"/>
<path id="font_1_80" d="M.30099488 .548996C.13598633 .548996 .034988405 .43998719 .034988405 .2630005 .034988405 .084991458 .13598633-.023010254 .3019867-.023010254 .46699525-.023010254 .56900027 .084991458 .56900027 .25898744 .56900027 .44198609 .46998597 .548996 .30099488 .548996M.3019867 .43598939C.3789978 .43598939 .42900086 .36698915 .42900086 .26098634 .42900086 .1599884 .3769989 .08999634 .3019867 .08999634 .22599793 .08999634 .1749878 .15899658 .1749878 .2630005 .1749878 .36698915 .22599793 .43598939 .3019867 .43598939Z"/>
<path id="font_1_83" d="M.06298828 .5399933V0H.20298767V.2869873C.20298767 .36898805 .24398804 .4099884 .32598878 .4099884 .34098817 .4099884 .35099793 .40899659 .36999513 .4059906V.5479889C.3619995 .548996 .35899354 .548996 .35299684 .548996 .2889862 .548996 .23399353 .5069885 .20298767 .43399049V.5399933H.06298828Z"/>
<path id="font_1_50" d="M.6649933 .102996829C.71398928 .16299439 .7449951 .2630005 .7449951 .36099244 .7449951 .46798707 .70700076 .57099917 .6429901 .6399994 .5799866 .70799258 .49798585 .7409973 .3939972 .7409973 .2899933 .7409973 .20799256 .70799258 .14498902 .6399994 .07998657 .57099917 .042999269 .46798707 .042999269 .35899354 .042999269 .25 .08099365 .14698792 .14498902 .07798767 .20799256 .009994507 .2899933-.023010254 .3939972-.023010254 .46998597-.023010254 .5249939-.008010864 .58299258 .026992798L.6689911-.054000856 .7449951 .026992798 .6649933 .102996829M.47999574 .27799989 .4039917 .19699097 .48098756 .12399292C.45700074 .11199951 .4249878 .10499573 .3929901 .10499573 .272995 .10499573 .19299317 .20599365 .19299317 .35899354 .19299317 .5130005 .27198792 .61299136 .3939972 .61299136 .5159912 .61299136 .59498599 .5130005 .59498599 .35798646 .59498599 .2979889 .58399966 .24398804 .56199648 .19999695L.47999574 .27799989Z"/>
<path id="font_1_42" d="M.21299744 .72898867H.06298828V0H.21299744V.72898867Z"/>
</defs>
<path transform="matrix(1,0,0,1,-36.393484,-99.25)" d="M0 0H1120V840H0Z" fill="#ffffff"/>
<path transform="matrix(1,0,0,1,-36.393484,-99.25)" d="M202.32631 304.6566 507 258.31019V210.0287L377.6737 100.843418 73 147.18982V195.4713Z" fill="#ffffff"/>
<path transform="matrix(1,0,0,1,-36.393484,-99.25)" d="M507 258.31019 377.6737 149.1249 73 195.4713Z" fill="#7a5a28" fill-opacity=".2"/>
<path transform="matrix(1,0,0,1,319.3618,69.31636)" stroke-width="1.5" stroke-linecap="butt" stroke-miterlimit="10" stroke-linejoin="miter" fill="none" stroke="#ff0000" d="M-2.236068-2.236068 2.236068 2.236068M-2.236068 2.236068 2.236068-2.236068"/>
<path transform="matrix(1,0,0,1,281.27757,75.109668)" stroke-width="1.5" stroke-linecap="butt" stroke-miterlimit="10" stroke-linejoin="miter" fill="none" stroke="#ff0000" d="M-2.236068-2.236068 2.236068 2.236068M-2.236068 2.236068 2.236068-2.236068"/>
<path transform="matrix(1,0,0,1,335.52757,82.96452)" stroke-width="1.5" stroke-linecap="butt" stroke-miterlimit="10" stroke-linejoin="miter" fill="none" stroke="#ff0000" d="M-2.236068-2.236068 2.236068 2.236068M-2.236068 2.236068 2.236068-2.236068"/>
<path transform="matrix(1,0,0,1,-36.393484,-99.25)" d="M507 210.0287 377.6737 100.843418 73 147.18982Z" fill="#2a58b6" fill-opacity=".2"/>
<path transform="matrix(1,0,0,1,319.3618,21.034874)" d="M3.535534 0C3.535534-1.9526215 1.9526215-3.535534 0-3.535534-1.9526215-3.535534-3.535534-1.9526215-3.535534 0-3.535534 1.9526215-1.9526215 3.535534 0 3.535534 1.9526215 3.535534 3.535534 1.9526215 3.535534 0Z" fill="#00bfbf"/>
<path transform="matrix(1,0,0,1,319.3618,21.034874)" d="M0-2.9355338C1.6212506-2.9355338 2.9355338-1.6212506 2.9355338 0 2.9355338 1.6212506 1.6212506 2.9355338 0 2.9355338-1.6212506 2.9355338-2.9355338 1.6212506-2.9355338 0-2.9355338-1.6212506-1.6212506-2.9355338 0-2.9355338ZM0-4.135534C-2.2839924-4.135534-4.135534-2.2839924-4.135534 0-4.135534 2.2839924-2.2839924 4.135534 0 4.135534 2.2839924 4.135534 4.135534 2.2839924 4.135534 0 4.135534-2.2839924 2.2839924-4.135534 0-4.135534Z"/>
<use data-text="1" xlink:href="#font_0_18" transform="matrix(11,0,0,-11,319.3618,12.9645)"/>
<use data-text="6" xlink:href="#font_0_23" transform="matrix(11,0,0,-11,325.47779,12.9645)"/>
<path transform="matrix(1,0,0,1,243.19338,80.902957)" stroke-width="1.5" stroke-linecap="butt" stroke-miterlimit="10" stroke-linejoin="miter" fill="none" stroke="#ff0000" d="M-2.236068-2.236068 2.236068 2.236068M-2.236068 2.236068 2.236068-2.236068"/>
<path transform="matrix(1,0,0,1,281.27757,26.82817)" d="M3.535534 0C3.535534-1.9526215 1.9526215-3.535534 0-3.535534-1.9526215-3.535534-3.535534-1.9526215-3.535534 0-3.535534 1.9526215-1.9526215 3.535534 0 3.535534 1.9526215 3.535534 3.535534 1.9526215 3.535534 0Z" fill="#00bfbf"/>
<path transform="matrix(1,0,0,1,281.27757,26.82817)" d="M0-2.9355338C1.6212506-2.9355338 2.9355338-1.6212506 2.9355338 0 2.9355338 1.6212506 1.6212506 2.9355338 0 2.9355338-1.6212506 2.9355338-2.9355338 1.6212506-2.9355338 0-2.9355338-1.6212506-1.6212506-2.9355338 0-2.9355338ZM0-4.135534C-2.2839924-4.135534-4.135534-2.2839924-4.135534 0-4.135534 2.2839924-2.2839924 4.135534 0 4.135534 2.2839924 4.135534 4.135534 2.2839924 4.135534 0 4.135534-2.2839924 2.2839924-4.135534 0-4.135534Z"/>
<use data-text="1" xlink:href="#font_0_18" transform="matrix(11,0,0,-11,281.27757,18.757805)"/>
<use data-text="5" xlink:href="#font_0_22" transform="matrix(11,0,0,-11,287.39356,18.757805)"/>
<path transform="matrix(1,0,0,1,205.10916,86.69626)" stroke-width="1.5" stroke-linecap="butt" stroke-miterlimit="10" stroke-linejoin="miter" fill="none" stroke="#ff0000" d="M-2.236068-2.236068 2.236068 2.236068M-2.236068 2.236068 2.236068-2.236068"/>
<path transform="matrix(1,0,0,1,243.19338,32.621477)" d="M3.535534 0C3.535534-1.9526215 1.9526215-3.535534 0-3.535534-1.9526215-3.535534-3.535534-1.9526215-3.535534 0-3.535534 1.9526215-1.9526215 3.535534 0 3.535534 1.9526215 3.535534 3.535534 1.9526215 3.535534 0Z" fill="#00bfbf"/>
<path transform="matrix(1,0,0,1,243.19338,32.621477)" d="M0-2.9355338C1.6212506-2.9355338 2.9355338-1.6212506 2.9355338 0 2.9355338 1.6212506 1.6212506 2.9355338 0 2.9355338-1.6212506 2.9355338-2.9355338 1.6212506-2.9355338 0-2.9355338-1.6212506-1.6212506-2.9355338 0-2.9355338ZM0-4.135534C-2.2839924-4.135534-4.135534-2.2839924-4.135534 0-4.135534 2.2839924-2.2839924 4.135534 0 4.135534 2.2839924 4.135534 4.135534 2.2839924 4.135534 0 4.135534-2.2839924 2.2839924-4.135534 0-4.135534Z"/>
<use data-text="0" xlink:href="#font_1_17" transform="matrix(12,0,0,-12,20.357522,92.91272)" fill="#323232"/>
<path transform="matrix(1,0,0,1,297.44337,88.75783)" stroke-width="1.5" stroke-linecap="butt" stroke-miterlimit="10" stroke-linejoin="miter" fill="none" stroke="#ff0000" d="M-2.236068-2.236068 2.236068 2.236068M-2.236068 2.236068 2.236068-2.236068"/>
<use data-text="1" xlink:href="#font_0_18" transform="matrix(11,0,0,-11,243.19338,24.551102)"/>
<use data-text="4" xlink:href="#font_0_21" transform="matrix(11,0,0,-11,249.30937,24.551102)"/>
<path transform="matrix(1,0,0,1,335.52757,34.68303)" d="M3.535534 0C3.535534-1.9526215 1.9526215-3.535534 0-3.535534-1.9526215-3.535534-3.535534-1.9526215-3.535534 0-3.535534 1.9526215-1.9526215 3.535534 0 3.535534 1.9526215 3.535534 3.535534 1.9526215 3.535534 0Z" fill="#00bfbf"/>
<path transform="matrix(1,0,0,1,335.52757,34.68303)" d="M0-2.9355338C1.6212506-2.9355338 2.9355338-1.6212506 2.9355338 0 2.9355338 1.6212506 1.6212506 2.9355338 0 2.9355338-1.6212506 2.9355338-2.9355338 1.6212506-2.9355338 0-2.9355338-1.6212506-1.6212506-2.9355338 0-2.9355338ZM0-4.135534C-2.2839924-4.135534-4.135534-2.2839924-4.135534 0-4.135534 2.2839924-2.2839924 4.135534 0 4.135534 2.2839924 4.135534 4.135534 2.2839924 4.135534 0 4.135534-2.2839924 2.2839924-4.135534 0-4.135534Z"/>
<path transform="matrix(1,0,0,1,-36.393484,-99.25)" stroke-width=".5" stroke-linecap="butt" stroke-miterlimit="10" stroke-linejoin="miter" fill="none" stroke="#323232" d="M73 195.4713 67.11303 190.50116"/>
<use data-text="1" xlink:href="#font_0_18" transform="matrix(11,0,0,-11,335.52757,26.612664)"/>
<use data-text="2" xlink:href="#font_0_19" transform="matrix(11,0,0,-11,341.64356,26.612664)"/>
<path transform="matrix(1,0,0,1,167.02495,92.48956)" stroke-width="1.5" stroke-linecap="butt" stroke-miterlimit="10" stroke-linejoin="miter" fill="none" stroke="#ff0000" d="M-2.236068-2.236068 2.236068 2.236068M-2.236068 2.236068 2.236068-2.236068"/>
<path transform="matrix(1,0,0,1,205.10916,38.41478)" d="M3.535534 0C3.535534-1.9526215 1.9526215-3.535534 0-3.535534-1.9526215-3.535534-3.535534-1.9526215-3.535534 0-3.535534 1.9526215-1.9526215 3.535534 0 3.535534 1.9526215 3.535534 3.535534 1.9526215 3.535534 0Z" fill="#00bfbf"/>
<path transform="matrix(1,0,0,1,205.10916,38.41478)" d="M0-2.9355338C1.6212506-2.9355338 2.9355338-1.6212506 2.9355338 0 2.9355338 1.6212506 1.6212506 2.9355338 0 2.9355338-1.6212506 2.9355338-2.9355338 1.6212506-2.9355338 0-2.9355338-1.6212506-1.6212506-2.9355338 0-2.9355338ZM0-4.135534C-2.2839924-4.135534-4.135534-2.2839924-4.135534 0-4.135534 2.2839924-2.2839924 4.135534 0 4.135534 2.2839924 4.135534 4.135534 2.2839924 4.135534 0 4.135534-2.2839924 2.2839924-4.135534 0-4.135534Z"/>
<path transform="matrix(1,0,0,1,259.35914,94.55112)" stroke-width="1.5" stroke-linecap="butt" stroke-miterlimit="10" stroke-linejoin="miter" fill="none" stroke="#ff0000" d="M-2.236068-2.236068 2.236068 2.236068M-2.236068 2.236068 2.236068-2.236068"/>
<use data-text="4" xlink:href="#font_1_21" transform="matrix(12,0,0,-12,20.357522,44.63124)" fill="#323232"/>
<use data-text="1" xlink:href="#font_0_18" transform="matrix(11,0,0,-11,205.10916,30.344407)"/>
<use data-text="3" xlink:href="#font_0_20" transform="matrix(11,0,0,-11,211.22516,30.344407)"/>
<path transform="matrix(1,0,0,1,297.44337,40.476335)" d="M3.535534 0C3.535534-1.9526215 1.9526215-3.535534 0-3.535534-1.9526215-3.535534-3.535534-1.9526215-3.535534 0-3.535534 1.9526215-1.9526215 3.535534 0 3.535534 1.9526215 3.535534 3.535534 1.9526215 3.535534 0Z" fill="#00bfbf"/>
<path transform="matrix(1,0,0,1,297.44337,40.476335)" d="M0-2.9355338C1.6212506-2.9355338 2.9355338-1.6212506 2.9355338 0 2.9355338 1.6212506 1.6212506 2.9355338 0 2.9355338-1.6212506 2.9355338-2.9355338 1.6212506-2.9355338 0-2.9355338-1.6212506-1.6212506-2.9355338 0-2.9355338ZM0-4.135534C-2.2839924-4.135534-4.135534-2.2839924-4.135534 0-4.135534 2.2839924-2.2839924 4.135534 0 4.135534 2.2839924 4.135534 4.135534 2.2839924 4.135534 0 4.135534-2.2839924 2.2839924-4.135534 0-4.135534Z"/>
<path transform="matrix(1,0,0,1,-36.393484,-99.25)" stroke-width=".5" stroke-linecap="butt" stroke-miterlimit="10" stroke-linejoin="miter" fill="none" stroke="#323232" d="M73 195.4713V147.18982"/>
<path transform="matrix(1,0,0,1,-36.393484,-99.25)" d="M202.32631 304.6566 507 258.31019 73 195.4713Z" fill="#7a5a28" fill-opacity=".2"/>
<path transform="matrix(1,0,0,1,-36.393484,-99.25)" stroke-width=".5" stroke-linecap="butt" stroke-miterlimit="10" stroke-linejoin="miter" fill="none" stroke="#323232" d="M202.32631 304.6566 73 195.4713"/>
<path transform="matrix(1,0,0,1,-36.393484,-99.25)" stroke-width=".5" stroke-linecap="butt" stroke-miterlimit="10" stroke-linejoin="miter" fill="none" stroke="#323232" d="M73 195.4713 65.383159 196.62996"/>
<path transform="matrix(1,0,0,1,351.69337,96.612689)" stroke-width="1.5" stroke-linecap="butt" stroke-miterlimit="10" stroke-linejoin="miter" fill="none" stroke="#ff0000" d="M-2.236068-2.236068 2.236068 2.236068M-2.236068 2.236068 2.236068-2.236068"/>
<use data-text="1" xlink:href="#font_0_18" transform="matrix(11,0,0,-11,297.44337,32.40596)"/>
<use data-text="1" xlink:href="#font_0_18" transform="matrix(11,0,0,-11,303.55937,32.40596)"/>
<use data-text="1" xlink:href="#font_1_18" transform="matrix(12,0,0,-12,3.639717,110.04167)" fill="#323232"/>
<use data-text="2" xlink:href="#font_1_19" transform="matrix(12,0,0,-12,10.311718,110.04167)" fill="#323232"/>
<use data-text="8" xlink:href="#font_1_25" transform="matrix(12,0,0,-12,16.983719,110.04167)" fill="#323232"/>
<path transform="matrix(1,0,0,1,128.94074,98.28287)" stroke-width="1.5" stroke-linecap="butt" stroke-miterlimit="10" stroke-linejoin="miter" fill="none" stroke="#ff0000" d="M-2.236068-2.236068 2.236068 2.236068M-2.236068 2.236068 2.236068-2.236068"/>
<path transform="matrix(1,0,0,1,-36.393484,-99.25)" stroke-width=".5" stroke-linecap="butt" stroke-miterlimit="10" stroke-linejoin="miter" fill="none" stroke="#323232" d="M73 147.18982 67.11303 142.21967"/>
<use data-text="z" xlink:href="#font_2_1" transform="matrix(-.0000005775,-13.2,-13.2,.0000005775,9.750002,94.45626)" fill="#323232"/>
<use data-text="(" xlink:href="#font_3_1" transform="matrix(-.0000005775,-13.2,-13.2,.0000005775,9.750001,82.17295)" fill="#323232"/>
<use data-text="k" xlink:href="#font_3_2" transform="matrix(-.0000005775,-13.2,-13.2,.0000005775,9.75,76.269649)" fill="#323232"/>
<use data-text="m" xlink:href="#font_3_3" transform="matrix(-.0000005775,-13.2,-13.2,.0000005775,9.75,68.258029)" fill="#323232"/>
<use data-text=")" xlink:href="#font_3_4" transform="matrix(-.0000005775,-13.2,-13.2,.0000005775,9.75,55.608095)" fill="#323232"/>
<path transform="matrix(1,0,0,1,221.27495,100.34442)" stroke-width="1.5" stroke-linecap="butt" stroke-miterlimit="10" stroke-linejoin="miter" fill="none" stroke="#ff0000" d="M-2.236068-2.236068 2.236068 2.236068M-2.236068 2.236068 2.236068-2.236068"/>
<path transform="matrix(1,0,0,1,259.35914,46.269639)" d="M3.535534 0C3.535534-1.9526215 1.9526215-3.535534 0-3.535534-1.9526215-3.535534-3.535534-1.9526215-3.535534 0-3.535534 1.9526215-1.9526215 3.535534 0 3.535534 1.9526215 3.535534 3.535534 1.9526215 3.535534 0Z" fill="#00bfbf"/>
<path transform="matrix(1,0,0,1,259.35914,46.269639)" d="M0-2.9355338C1.6212506-2.9355338 2.9355338-1.6212506 2.9355338 0 2.9355338 1.6212506 1.6212506 2.9355338 0 2.9355338-1.6212506 2.9355338-2.9355338 1.6212506-2.9355338 0-2.9355338-1.6212506-1.6212506-2.9355338 0-2.9355338ZM0-4.135534C-2.2839924-4.135534-4.135534-2.2839924-4.135534 0-4.135534 2.2839924-2.2839924 4.135534 0 4.135534 2.2839924 4.135534 4.135534 2.2839924 4.135534 0 4.135534-2.2839924 2.2839924-4.135534 0-4.135534Z"/>
<path transform="matrix(1,0,0,1,313.60914,102.405979)" stroke-width="1.5" stroke-linecap="butt" stroke-miterlimit="10" stroke-linejoin="miter" fill="none" stroke="#ff0000" d="M-2.236068-2.236068 2.236068 2.236068M-2.236068 2.236068 2.236068-2.236068"/>
<path transform="matrix(1,0,0,1,183.19074,106.137729)" stroke-width="1.5" stroke-linecap="butt" stroke-miterlimit="10" stroke-linejoin="miter" fill="none" stroke="#ff0000" d="M-2.236068-2.236068 2.236068 2.236068M-2.236068 2.236068 2.236068-2.236068"/>
<path transform="matrix(1,0,0,1,275.52494,108.19928)" stroke-width="1.5" stroke-linecap="butt" stroke-miterlimit="10" stroke-linejoin="miter" fill="none" stroke="#ff0000" d="M-2.236068-2.236068 2.236068 2.236068M-2.236068 2.236068 2.236068-2.236068"/>
<path transform="matrix(1,0,0,1,367.85914,110.26085)" stroke-width="1.5" stroke-linecap="butt" stroke-miterlimit="10" stroke-linejoin="miter" fill="none" stroke="#ff0000" d="M-2.236068-2.236068 2.236068 2.236068M-2.236068 2.236068 2.236068-2.236068"/>
<path transform="matrix(1,0,0,1,145.10652,111.93103)" stroke-width="1.5" stroke-linecap="butt" stroke-miterlimit="10" stroke-linejoin="miter" fill="none" stroke="#ff0000" d="M-2.236068-2.236068 2.236068 2.236068M-2.236068 2.236068 2.236068-2.236068"/>
<path transform="matrix(1,0,0,1,237.44072,113.992588)" stroke-width="1.5" stroke-linecap="butt" stroke-miterlimit="10" stroke-linejoin="miter" fill="none" stroke="#ff0000" d="M-2.236068-2.236068 2.236068 2.236068M-2.236068 2.236068 2.236068-2.236068"/>
<path transform="matrix(1,0,0,1,329.77494,116.05414)" stroke-width="1.5" stroke-linecap="butt" stroke-miterlimit="10" stroke-linejoin="miter" fill="none" stroke="#ff0000" d="M-2.236068-2.236068 2.236068 2.236068M-2.236068 2.236068 2.236068-2.236068"/>
<path transform="matrix(1,0,0,1,199.35652,119.78589)" stroke-width="1.5" stroke-linecap="butt" stroke-miterlimit="10" stroke-linejoin="miter" fill="none" stroke="#ff0000" d="M-2.236068-2.236068 2.236068 2.236068M-2.236068 2.236068 2.236068-2.236068"/>
<path transform="matrix(1,0,0,1,291.6907,121.84744)" stroke-width="1.5" stroke-linecap="butt" stroke-miterlimit="10" stroke-linejoin="miter" fill="none" stroke="#ff0000" d="M-2.236068-2.236068 2.236068 2.236068M-2.236068 2.236068 2.236068-2.236068"/>
<path transform="matrix(1,0,0,1,384.02494,123.909)" stroke-width="1.5" stroke-linecap="butt" stroke-miterlimit="10" stroke-linejoin="miter" fill="none" stroke="#ff0000" d="M-2.236068-2.236068 2.236068 2.236068M-2.236068 2.236068 2.236068-2.236068"/>
<path transform="matrix(1,0,0,1,161.27231,125.57918)" stroke-width="1.5" stroke-linecap="butt" stroke-miterlimit="10" stroke-linejoin="miter" fill="none" stroke="#ff0000" d="M-2.236068-2.236068 2.236068 2.236068M-2.236068 2.236068 2.236068-2.236068"/>
<path transform="matrix(1,0,0,1,253.60652,127.64075)" stroke-width="1.5" stroke-linecap="butt" stroke-miterlimit="10" stroke-linejoin="miter" fill="none" stroke="#ff0000" d="M-2.236068-2.236068 2.236068 2.236068M-2.236068 2.236068 2.236068-2.236068"/>
<path transform="matrix(1,0,0,1,345.9407,129.7023)" stroke-width="1.5" stroke-linecap="butt" stroke-miterlimit="10" stroke-linejoin="miter" fill="none" stroke="#ff0000" d="M-2.236068-2.236068 2.236068 2.236068M-2.236068 2.236068 2.236068-2.236068"/>
<path transform="matrix(1,0,0,1,215.52231,133.43405)" stroke-width="1.5" stroke-linecap="butt" stroke-miterlimit="10" stroke-linejoin="miter" fill="none" stroke="#ff0000" d="M-2.236068-2.236068 2.236068 2.236068M-2.236068 2.236068 2.236068-2.236068"/>
<path transform="matrix(1,0,0,1,307.8565,135.4956)" stroke-width="1.5" stroke-linecap="butt" stroke-miterlimit="10" stroke-linejoin="miter" fill="none" stroke="#ff0000" d="M-2.236068-2.236068 2.236068 2.236068M-2.236068 2.236068 2.236068-2.236068"/>
<path transform="matrix(1,0,0,1,177.4381,139.22734)" stroke-width="1.5" stroke-linecap="butt" stroke-miterlimit="10" stroke-linejoin="miter" fill="none" stroke="#ff0000" d="M-2.236068-2.236068 2.236068 2.236068M-2.236068 2.236068 2.236068-2.236068"/>
<path transform="matrix(1,0,0,1,269.7723,141.28891)" stroke-width="1.5" stroke-linecap="butt" stroke-miterlimit="10" stroke-linejoin="miter" fill="none" stroke="#ff0000" d="M-2.236068-2.236068 2.236068 2.236068M-2.236068 2.236068 2.236068-2.236068"/>
<path transform="matrix(1,0,0,1,231.6881,147.0822)" stroke-width="1.5" stroke-linecap="butt" stroke-miterlimit="10" stroke-linejoin="miter" fill="none" stroke="#ff0000" d="M-2.236068-2.236068 2.236068 2.236068M-2.236068 2.236068 2.236068-2.236068"/>
<path transform="matrix(1,0,0,1,193.60388,152.8755)" stroke-width="1.5" stroke-linecap="butt" stroke-miterlimit="10" stroke-linejoin="miter" fill="none" stroke="#ff0000" d="M-2.236068-2.236068 2.236068 2.236068M-2.236068 2.236068 2.236068-2.236068"/>
<path transform="matrix(1,0,0,1,-36.393484,-99.25)" d="M202.32631 256.3751 507 210.0287 73 147.18982Z" fill="#2a58b6" fill-opacity=".2"/>
<use data-text="1" xlink:href="#font_0_18" transform="matrix(11,0,0,-11,259.35914,38.199266)"/>
<use data-text="0" xlink:href="#font_0_17" transform="matrix(11,0,0,-11,265.47514,38.199266)"/>
<path transform="matrix(1,0,0,1,351.69337,48.331193)" d="M3.535534 0C3.535534-1.9526215 1.9526215-3.535534 0-3.535534-1.9526215-3.535534-3.535534-1.9526215-3.535534 0-3.535534 1.9526215-1.9526215 3.535534 0 3.535534 1.9526215 3.535534 3.535534 1.9526215 3.535534 0Z" fill="#00bfbf"/>
<path transform="matrix(1,0,0,1,351.69337,48.331193)" d="M0-2.9355338C1.6212506-2.9355338 2.9355338-1.6212506 2.9355338 0 2.9355338 1.6212506 1.6212506 2.9355338 0 2.9355338-1.6212506 2.9355338-2.9355338 1.6212506-2.9355338 0-2.9355338-1.6212506-1.6212506-2.9355338 0-2.9355338ZM0-4.135534C-2.2839924-4.135534-4.135534-2.2839924-4.135534 0-4.135534 2.2839924-2.2839924 4.135534 0 4.135534 2.2839924 4.135534 4.135534 2.2839924 4.135534 0 4.135534-2.2839924 2.2839924-4.135534 0-4.135534Z"/>
<path transform="matrix(1,0,0,1,90.856517,104.07616)" stroke-width="1.5" stroke-linecap="butt" stroke-miterlimit="10" stroke-linejoin="miter" fill="none" stroke="#ff0000" d="M-2.236068-2.236068 2.236068 2.236068M-2.236068 2.236068 2.236068-2.236068"/>
<use data-text=" " xlink:href="#font_0_1" transform="matrix(11,0,0,-11,351.69337,40.26082)"/>
<use data-text="8" xlink:href="#font_0_25" transform="matrix(11,0,0,-11,354.75138,40.26082)"/>
<path transform="matrix(1,0,0,1,221.27495,52.062944)" d="M3.535534 0C3.535534-1.9526215 1.9526215-3.535534 0-3.535534-1.9526215-3.535534-3.535534-1.9526215-3.535534 0-3.535534 1.9526215-1.9526215 3.535534 0 3.535534 1.9526215 3.535534 3.535534 1.9526215 3.535534 0Z" fill="#00bfbf"/>
<path transform="matrix(1,0,0,1,221.27495,52.062944)" d="M0-2.9355338C1.6212506-2.9355338 2.9355338-1.6212506 2.9355338 0 2.9355338 1.6212506 1.6212506 2.9355338 0 2.9355338-1.6212506 2.9355338-2.9355338 1.6212506-2.9355338 0-2.9355338-1.6212506-1.6212506-2.9355338 0-2.9355338ZM0-4.135534C-2.2839924-4.135534-4.135534-2.2839924-4.135534 0-4.135534 2.2839924-2.2839924 4.135534 0 4.135534 2.2839924 4.135534 4.135534 2.2839924 4.135534 0 4.135534-2.2839924 2.2839924-4.135534 0-4.135534Z"/>
<use data-text=" " xlink:href="#font_0_1" transform="matrix(11,0,0,-11,221.27495,43.99257)"/>
<use data-text="9" xlink:href="#font_0_26" transform="matrix(11,0,0,-11,224.33295,43.99257)"/>
<path transform="matrix(1,0,0,1,313.60914,54.124498)" d="M3.535534 0C3.535534-1.9526215 1.9526215-3.535534 0-3.535534-1.9526215-3.535534-3.535534-1.9526215-3.535534 0-3.535534 1.9526215-1.9526215 3.535534 0 3.535534 1.9526215 3.535534 3.535534 1.9526215 3.535534 0Z" fill="#00bfbf"/>
<path transform="matrix(1,0,0,1,313.60914,54.124498)" d="M0-2.9355338C1.6212506-2.9355338 2.9355338-1.6212506 2.9355338 0 2.9355338 1.6212506 1.6212506 2.9355338 0 2.9355338-1.6212506 2.9355338-2.9355338 1.6212506-2.9355338 0-2.9355338-1.6212506-1.6212506-2.9355338 0-2.9355338ZM0-4.135534C-2.2839924-4.135534-4.135534-2.2839924-4.135534 0-4.135534 2.2839924-2.2839924 4.135534 0 4.135534 2.2839924 4.135534 4.135534 2.2839924 4.135534 0 4.135534-2.2839924 2.2839924-4.135534 0-4.135534Z"/>
<use data-text="y" xlink:href="#font_2_2" transform="matrix(13.2,0,0,-13.2,42.322305,191.54538)" fill="#323232"/>
<use data-text="(" xlink:href="#font_3_1" transform="matrix(13.2,0,0,-13.2,55.00283,191.54538)" fill="#323232"/>
<use data-text="k" xlink:href="#font_3_2" transform="matrix(13.2,0,0,-13.2,60.90613,191.54538)" fill="#323232"/>
<use data-text="m" xlink:href="#font_3_3" transform="matrix(13.2,0,0,-13.2,68.917758,191.54538)" fill="#323232"/>
<use data-text=")" xlink:href="#font_3_4" transform="matrix(13.2,0,0,-13.2,81.56769,191.54538)" fill="#323232"/>
<use data-text=" " xlink:href="#font_0_1" transform="matrix(11,0,0,-11,313.60914,46.054124)"/>
<use data-text="7" xlink:href="#font_0_24" transform="matrix(11,0,0,-11,316.66716,46.054124)"/>
<path transform="matrix(1,0,0,1,275.52494,59.9178)" d="M3.535534 0C3.535534-1.9526215 1.9526215-3.535534 0-3.535534-1.9526215-3.535534-3.535534-1.9526215-3.535534 0-3.535534 1.9526215-1.9526215 3.535534 0 3.535534 1.9526215 3.535534 3.535534 1.9526215 3.535534 0Z" fill="#00bfbf"/>
<path transform="matrix(1,0,0,1,275.52494,59.9178)" d="M0-2.9355338C1.6212506-2.9355338 2.9355338-1.6212506 2.9355338 0 2.9355338 1.6212506 1.6212506 2.9355338 0 2.9355338-1.6212506 2.9355338-2.9355338 1.6212506-2.9355338 0-2.9355338-1.6212506-1.6212506-2.9355338 0-2.9355338ZM0-4.135534C-2.2839924-4.135534-4.135534-2.2839924-4.135534 0-4.135534 2.2839924-2.2839924 4.135534 0 4.135534 2.2839924 4.135534 4.135534 2.2839924 4.135534 0 4.135534-2.2839924 2.2839924-4.135534 0-4.135534Z"/>
<use data-text=" " xlink:href="#font_0_1" transform="matrix(11,0,0,-11,275.52494,51.847429)"/>
<use data-text="6" xlink:href="#font_0_23" transform="matrix(11,0,0,-11,278.58296,51.847429)"/>
<path transform="matrix(1,0,0,1,367.85914,61.979356)" d="M3.535534 0C3.535534-1.9526215 1.9526215-3.535534 0-3.535534-1.9526215-3.535534-3.535534-1.9526215-3.535534 0-3.535534 1.9526215-1.9526215 3.535534 0 3.535534 1.9526215 3.535534 3.535534 1.9526215 3.535534 0Z" fill="#00bfbf"/>
<path transform="matrix(1,0,0,1,367.85914,61.979356)" d="M0-2.9355338C1.6212506-2.9355338 2.9355338-1.6212506 2.9355338 0 2.9355338 1.6212506 1.6212506 2.9355338 0 2.9355338-1.6212506 2.9355338-2.9355338 1.6212506-2.9355338 0-2.9355338-1.6212506-1.6212506-2.9355338 0-2.9355338ZM0-4.135534C-2.2839924-4.135534-4.135534-2.2839924-4.135534 0-4.135534 2.2839924-2.2839924 4.135534 0 4.135534 2.2839924 4.135534 4.135534 2.2839924 4.135534 0 4.135534-2.2839924 2.2839924-4.135534 0-4.135534Z"/>
<path transform="matrix(1,0,0,1,107.0223,117.72432)" stroke-width="1.5" stroke-linecap="butt" stroke-miterlimit="10" stroke-linejoin="miter" fill="none" stroke="#ff0000" d="M-2.236068-2.236068 2.236068 2.236068M-2.236068 2.236068 2.236068-2.236068"/>
<use data-text=" " xlink:href="#font_0_1" transform="matrix(11,0,0,-11,367.85914,53.90898)"/>
<use data-text="4" xlink:href="#font_0_21" transform="matrix(11,0,0,-11,370.91716,53.90898)"/>
<path transform="matrix(1,0,0,1,237.44072,65.71109)" d="M3.535534 0C3.535534-1.9526215 1.9526215-3.535534 0-3.535534-1.9526215-3.535534-3.535534-1.9526215-3.535534 0-3.535534 1.9526215-1.9526215 3.535534 0 3.535534 1.9526215 3.535534 3.535534 1.9526215 3.535534 0Z" fill="#00bfbf"/>
<path transform="matrix(1,0,0,1,237.44072,65.71109)" d="M0-2.9355338C1.6212506-2.9355338 2.9355338-1.6212506 2.9355338 0 2.9355338 1.6212506 1.6212506 2.9355338 0 2.9355338-1.6212506 2.9355338-2.9355338 1.6212506-2.9355338 0-2.9355338-1.6212506-1.6212506-2.9355338 0-2.9355338ZM0-4.135534C-2.2839924-4.135534-4.135534-2.2839924-4.135534 0-4.135534 2.2839924-2.2839924 4.135534 0 4.135534 2.2839924 4.135534 4.135534 2.2839924 4.135534 0 4.135534-2.2839924 2.2839924-4.135534 0-4.135534Z"/>
<use data-text=" " xlink:href="#font_0_1" transform="matrix(11,0,0,-11,237.44072,57.64073)"/>
<use data-text="5" xlink:href="#font_0_22" transform="matrix(11,0,0,-11,240.49872,57.64073)"/>
<path transform="matrix(1,0,0,1,329.77494,67.77266)" d="M3.535534 0C3.535534-1.9526215 1.9526215-3.535534 0-3.535534-1.9526215-3.535534-3.535534-1.9526215-3.535534 0-3.535534 1.9526215-1.9526215 3.535534 0 3.535534 1.9526215 3.535534 3.535534 1.9526215 3.535534 0Z" fill="#00bfbf"/>
<path transform="matrix(1,0,0,1,329.77494,67.77266)" d="M0-2.9355338C1.6212506-2.9355338 2.9355338-1.6212506 2.9355338 0 2.9355338 1.6212506 1.6212506 2.9355338 0 2.9355338-1.6212506 2.9355338-2.9355338 1.6212506-2.9355338 0-2.9355338-1.6212506-1.6212506-2.9355338 0-2.9355338ZM0-4.135534C-2.2839924-4.135534-4.135534-2.2839924-4.135534 0-4.135534 2.2839924-2.2839924 4.135534 0 4.135534 2.2839924 4.135534 4.135534 2.2839924 4.135534 0 4.135534-2.2839924 2.2839924-4.135534 0-4.135534Z"/>
<path transform="matrix(1,0,0,1,-36.393484,-99.25)" stroke-width=".5" stroke-linecap="round" stroke-linejoin="round" fill="none" stroke="#323232" d="M105.33157 222.76763 97.71474 223.92629"/>
<use data-text=" " xlink:href="#font_0_1" transform="matrix(11,0,0,-11,329.77494,59.702287)"/>
<use data-text="3" xlink:href="#font_0_20" transform="matrix(11,0,0,-11,332.83296,59.702287)"/>
<use data-text="9" xlink:href="#font_1_26" transform="matrix(12,0,0,-12,42.971296,137.338)" fill="#323232"/>
<use data-text="6" xlink:href="#font_1_23" transform="matrix(12,0,0,-12,49.643297,137.338)" fill="#323232"/>
<path transform="matrix(1,0,0,1,291.6907,73.56595)" d="M3.535534 0C3.535534-1.9526215 1.9526215-3.535534 0-3.535534-1.9526215-3.535534-3.535534-1.9526215-3.535534 0-3.535534 1.9526215-1.9526215 3.535534 0 3.535534 1.9526215 3.535534 3.535534 1.9526215 3.535534 0Z" fill="#00bfbf"/>
<path transform="matrix(1,0,0,1,291.6907,73.56595)" d="M0-2.9355338C1.6212506-2.9355338 2.9355338-1.6212506 2.9355338 0 2.9355338 1.6212506 1.6212506 2.9355338 0 2.9355338-1.6212506 2.9355338-2.9355338 1.6212506-2.9355338 0-2.9355338-1.6212506-1.6212506-2.9355338 0-2.9355338ZM0-4.135534C-2.2839924-4.135534-4.135534-2.2839924-4.135534 0-4.135534 2.2839924-2.2839924 4.135534 0 4.135534 2.2839924 4.135534 4.135534 2.2839924 4.135534 0 4.135534-2.2839924 2.2839924-4.135534 0-4.135534Z"/>
<use data-text=" " xlink:href="#font_0_1" transform="matrix(11,0,0,-11,291.6907,65.49559)"/>
<use data-text="2" xlink:href="#font_0_19" transform="matrix(11,0,0,-11,294.74873,65.49559)"/>
<path transform="matrix(1,0,0,1,123.18809,131.37248)" stroke-width="1.5" stroke-linecap="butt" stroke-miterlimit="10" stroke-linejoin="miter" fill="none" stroke="#ff0000" d="M-2.236068-2.236068 2.236068 2.236068M-2.236068 2.236068 2.236068-2.236068"/>
<path transform="matrix(1,0,0,1,253.60652,79.35925)" d="M3.535534 0C3.535534-1.9526215 1.9526215-3.535534 0-3.535534-1.9526215-3.535534-3.535534-1.9526215-3.535534 0-3.535534 1.9526215-1.9526215 3.535534 0 3.535534 1.9526215 3.535534 3.535534 1.9526215 3.535534 0Z" fill="#00bfbf"/>
<path transform="matrix(1,0,0,1,253.60652,79.35925)" d="M0-2.9355338C1.6212506-2.9355338 2.9355338-1.6212506 2.9355338 0 2.9355338 1.6212506 1.6212506 2.9355338 0 2.9355338-1.6212506 2.9355338-2.9355338 1.6212506-2.9355338 0-2.9355338-1.6212506-1.6212506-2.9355338 0-2.9355338ZM0-4.135534C-2.2839924-4.135534-4.135534-2.2839924-4.135534 0-4.135534 2.2839924-2.2839924 4.135534 0 4.135534 2.2839924 4.135534 4.135534 2.2839924 4.135534 0 4.135534-2.2839924 2.2839924-4.135534 0-4.135534Z"/>
<use data-text=" " xlink:href="#font_0_1" transform="matrix(11,0,0,-11,253.60652,71.28888)"/>
<use data-text="1" xlink:href="#font_0_18" transform="matrix(11,0,0,-11,256.66453,71.28888)"/>
<path transform="matrix(1,0,0,1,400.1907,137.55716)" stroke-width="1.5" stroke-linecap="butt" stroke-miterlimit="10" stroke-linejoin="miter" fill="none" stroke="#ff0000" d="M-2.236068-2.236068 2.236068 2.236068M-2.236068 2.236068 2.236068-2.236068"/>
<path transform="matrix(1,0,0,1,362.1065,143.35047)" stroke-width="1.5" stroke-linecap="butt" stroke-miterlimit="10" stroke-linejoin="miter" fill="none" stroke="#ff0000" d="M-2.236068-2.236068 2.236068 2.236068M-2.236068 2.236068 2.236068-2.236068"/>
<path transform="matrix(1,0,0,1,139.35388,145.02065)" stroke-width="1.5" stroke-linecap="butt" stroke-miterlimit="10" stroke-linejoin="miter" fill="none" stroke="#ff0000" d="M-2.236068-2.236068 2.236068 2.236068M-2.236068 2.236068 2.236068-2.236068"/>
<path transform="matrix(1,0,0,1,324.0223,149.14377)" stroke-width="1.5" stroke-linecap="butt" stroke-miterlimit="10" stroke-linejoin="miter" fill="none" stroke="#ff0000" d="M-2.236068-2.236068 2.236068 2.236068M-2.236068 2.236068 2.236068-2.236068"/>
<path transform="matrix(1,0,0,1,-36.393484,-99.25)" stroke-width=".5" stroke-linecap="butt" stroke-miterlimit="10" stroke-linejoin="miter" fill="none" stroke="#323232" d="M137.66315 250.06395 130.04631 251.22261"/>
<path transform="matrix(1,0,0,1,416.3565,151.20532)" stroke-width="1.5" stroke-linecap="butt" stroke-miterlimit="10" stroke-linejoin="miter" fill="none" stroke="#ff0000" d="M-2.236068-2.236068 2.236068 2.236068M-2.236068 2.236068 2.236068-2.236068"/>
<use data-text="6" xlink:href="#font_1_23" transform="matrix(12,0,0,-12,75.302867,164.63431)" fill="#323232"/>
<use data-text="4" xlink:href="#font_1_21" transform="matrix(12,0,0,-12,81.97487,164.63431)" fill="#323232"/>
<path transform="matrix(1,0,0,1,285.93809,154.93706)" stroke-width="1.5" stroke-linecap="butt" stroke-miterlimit="10" stroke-linejoin="miter" fill="none" stroke="#ff0000" d="M-2.236068-2.236068 2.236068 2.236068M-2.236068 2.236068 2.236068-2.236068"/>
<path transform="matrix(1,0,0,1,378.2723,156.99863)" stroke-width="1.5" stroke-linecap="butt" stroke-miterlimit="10" stroke-linejoin="miter" fill="none" stroke="#ff0000" d="M-2.236068-2.236068 2.236068 2.236068M-2.236068 2.236068 2.236068-2.236068"/>
<path transform="matrix(1,0,0,1,155.51967,158.6688)" stroke-width="1.5" stroke-linecap="butt" stroke-miterlimit="10" stroke-linejoin="miter" fill="none" stroke="#ff0000" d="M-2.236068-2.236068 2.236068 2.236068M-2.236068 2.236068 2.236068-2.236068"/>
<path transform="matrix(1,0,0,1,-36.393484,-99.25)" stroke-width=".5" stroke-linecap="square" stroke-linejoin="round" fill="none" stroke="#323232" d="M202.32631 304.6566 507 258.31019"/>
<path transform="matrix(1,0,0,1,-36.393484,-99.25)" stroke-width=".5" stroke-linecap="square" stroke-linejoin="round" fill="none" stroke="#323232" d="M507 258.31019 512.88699 263.28034"/>
<path transform="matrix(1,0,0,1,247.8539,160.73038)" stroke-width="1.5" stroke-linecap="butt" stroke-miterlimit="10" stroke-linejoin="miter" fill="none" stroke="#ff0000" d="M-2.236068-2.236068 2.236068 2.236068M-2.236068 2.236068 2.236068-2.236068"/>
<path transform="matrix(1,0,0,1,340.18809,162.79193)" stroke-width="1.5" stroke-linecap="butt" stroke-miterlimit="10" stroke-linejoin="miter" fill="none" stroke="#ff0000" d="M-2.236068-2.236068 2.236068 2.236068M-2.236068 2.236068 2.236068-2.236068"/>
<path transform="matrix(1,0,0,1,209.76967,166.52365)" stroke-width="1.5" stroke-linecap="butt" stroke-miterlimit="10" stroke-linejoin="miter" fill="none" stroke="#ff0000" d="M-2.236068-2.236068 2.236068 2.236068M-2.236068 2.236068 2.236068-2.236068"/>
<use data-text="1" xlink:href="#font_1_18" transform="matrix(12,0,0,-12,479.85554,178.86878)" fill="#323232"/>
<use data-text="2" xlink:href="#font_1_19" transform="matrix(12,0,0,-12,486.52754,178.86878)" fill="#323232"/>
<use data-text="8" xlink:href="#font_1_25" transform="matrix(12,0,0,-12,493.19953,178.86878)" fill="#323232"/>
<path transform="matrix(1,0,0,1,302.10389,168.58524)" stroke-width="1.5" stroke-linecap="butt" stroke-miterlimit="10" stroke-linejoin="miter" fill="none" stroke="#ff0000" d="M-2.236068-2.236068 2.236068 2.236068M-2.236068 2.236068 2.236068-2.236068"/>
<path transform="matrix(1,0,0,1,-36.393484,-99.25)" stroke-width=".5" stroke-linecap="round" stroke-linejoin="round" fill="none" stroke="#323232" d="M430.83158 269.8968 436.71855 274.86695"/>
<path transform="matrix(1,0,0,1,171.68547,172.31696)" stroke-width="1.5" stroke-linecap="butt" stroke-miterlimit="10" stroke-linejoin="miter" fill="none" stroke="#ff0000" d="M-2.236068-2.236068 2.236068 2.236068M-2.236068 2.236068 2.236068-2.236068"/>
<path transform="matrix(1,0,0,1,264.01966,174.37854)" stroke-width="1.5" stroke-linecap="butt" stroke-miterlimit="10" stroke-linejoin="miter" fill="none" stroke="#ff0000" d="M-2.236068-2.236068 2.236068 2.236068M-2.236068 2.236068 2.236068-2.236068"/>
<use data-text="x" xlink:href="#font_2_3" transform="matrix(13.2,0,0,-13.2,309.76759,224.94589)" fill="#323232"/>
<use data-text="(" xlink:href="#font_3_1" transform="matrix(13.2,0,0,-13.2,322.86674,224.94589)" fill="#323232"/>
<use data-text="k" xlink:href="#font_3_2" transform="matrix(13.2,0,0,-13.2,328.77006,224.94589)" fill="#323232"/>
<use data-text="m" xlink:href="#font_3_3" transform="matrix(13.2,0,0,-13.2,336.78166,224.94589)" fill="#323232"/>
<use data-text=")" xlink:href="#font_3_4" transform="matrix(13.2,0,0,-13.2,349.43159,224.94589)" fill="#323232"/>
<path transform="matrix(1,0,0,1,-36.393484,-99.25)" stroke-width=".5" stroke-linecap="butt" stroke-miterlimit="10" stroke-linejoin="miter" fill="none" stroke="#323232" d="M169.99474 277.36027 162.37789 278.51893"/>
<use data-text="9" xlink:href="#font_1_26" transform="matrix(12,0,0,-12,403.6871,190.45539)" fill="#323232"/>
<use data-text="6" xlink:href="#font_1_23" transform="matrix(12,0,0,-12,410.3591,190.45539)" fill="#323232"/>
<use data-text="3" xlink:href="#font_1_20" transform="matrix(12,0,0,-12,107.63444,191.93064)" fill="#323232"/>
<use data-text="2" xlink:href="#font_1_19" transform="matrix(12,0,0,-12,114.30644,191.93064)" fill="#323232"/>
<path transform="matrix(1,0,0,1,225.93547,180.17182)" stroke-width="1.5" stroke-linecap="butt" stroke-miterlimit="10" stroke-linejoin="miter" fill="none" stroke="#ff0000" d="M-2.236068-2.236068 2.236068 2.236068M-2.236068 2.236068 2.236068-2.236068"/>
<path transform="matrix(1,0,0,1,-36.393484,-99.25)" stroke-width=".5" stroke-linecap="butt" stroke-miterlimit="10" stroke-linejoin="miter" fill="none" stroke="#323232" d="M354.66316 281.4834 360.55015 286.45353"/>
<path transform="matrix(1,0,0,1,187.85126,185.96512)" stroke-width="1.5" stroke-linecap="butt" stroke-miterlimit="10" stroke-linejoin="miter" fill="none" stroke="#ff0000" d="M-2.236068-2.236068 2.236068 2.236068M-2.236068 2.236068 2.236068-2.236068"/>
<use data-text="6" xlink:href="#font_1_23" transform="matrix(12,0,0,-12,327.51869,202.04196)" fill="#323232"/>
<use data-text="4" xlink:href="#font_1_21" transform="matrix(12,0,0,-12,334.19068,202.04196)" fill="#323232"/>
<path transform="matrix(1,0,0,1,-36.393484,-99.25)" stroke-width=".5" stroke-linecap="butt" stroke-miterlimit="10" stroke-linejoin="miter" fill="none" stroke="#323232" d="M278.49473 293.06999 284.3817 298.04014"/>
<use data-text="3" xlink:href="#font_1_20" transform="matrix(12,0,0,-12,251.35027,213.62857)" fill="#323232"/>
<use data-text="2" xlink:href="#font_1_19" transform="matrix(12,0,0,-12,258.02229,213.62857)" fill="#323232"/>
<path transform="matrix(1,0,0,1,-36.393484,-99.25)" stroke-width=".5" stroke-linecap="square" stroke-linejoin="round" fill="none" stroke="#323232" d="M202.32631 304.6566 194.70948 305.81526"/>
<path transform="matrix(1,0,0,1,-36.393484,-99.25)" stroke-width=".5" stroke-linecap="square" stroke-linejoin="round" fill="none" stroke="#323232" d="M202.32631 304.6566 208.21329 309.62675"/>
<use data-text="0" xlink:href="#font_1_17" transform="matrix(12,0,0,-12,146.96604,219.22696)" fill="#323232"/>
<use data-text="0" xlink:href="#font_1_17" transform="matrix(12,0,0,-12,175.18184,225.21518)" fill="#323232"/>
<path transform="matrix(1,0,0,1,-36.393484,-99.25)" d="M159.5 131V99.5H76V131Z" fill="#ffffff"/>
<use data-text="S" xlink:href="#font_1_52" transform="matrix(10.8,0,0,-10.8,76.606517,13)"/>
<use data-text="e" xlink:href="#font_1_70" transform="matrix(10.8,0,0,-10.8,83.81011,13)"/>
<use data-text="n" xlink:href="#font_1_79" transform="matrix(10.8,0,0,-10.8,89.81492,13)"/>
<use data-text="s" xlink:href="#font_1_84" transform="matrix(10.8,0,0,-10.8,96.41371,13)"/>
<use data-text="o" xlink:href="#font_1_80" transform="matrix(10.8,0,0,-10.8,102.41852,13)"/>
<use data-text="r" xlink:href="#font_1_83" transform="matrix(10.8,0,0,-10.8,109.01732,13)"/>
<use data-text="s" xlink:href="#font_1_84" transform="matrix(10.8,0,0,-10.8,113.21851,13)"/>
<path transform="matrix(1,0,0,1,58.606519,9)" stroke-width="1.5" stroke-linecap="butt" stroke-miterlimit="10" stroke-linejoin="miter" fill="none" stroke="#ff0000" d="M-2.1213206-2.1213206 2.1213206 2.1213206M-2.1213206 2.1213206 2.1213206-2.1213206"/>
<use data-text="Q" xlink:href="#font_1_50" transform="matrix(10.8,0,0,-10.8,76.606517,27)"/>
<use data-text="o" xlink:href="#font_1_80" transform="matrix(10.8,0,0,-10.8,85.00891,27)"/>
<use data-text="I" xlink:href="#font_1_42" transform="matrix(10.8,0,0,-10.8,91.60771,27)"/>
<use data-text="s" xlink:href="#font_1_84" transform="matrix(10.8,0,0,-10.8,94.610118,27)"/>
<path transform="matrix(1,0,0,1,58.606519,23)" d="M3 0C3-1.6568543 1.6568543-3 0-3-1.6568543-3-3-1.6568543-3 0-3 1.6568543-1.6568543 3 0 3 1.6568543 3 3 1.6568543 3 0Z" fill="#00bfbf"/>
<path transform="matrix(1,0,0,1,58.606519,23)" d="M0-2.4C1.3254835-2.4 2.4-1.3254835 2.4 0 2.4 1.3254835 1.3254835 2.4 0 2.4-1.3254835 2.4-2.4 1.3254835-2.4 0-2.4-1.3254835-1.3254835-2.4 0-2.4ZM0-3.6C-1.9882251-3.6-3.6-1.9882251-3.6 0-3.6 1.9882251-1.9882251 3.6 0 3.6 1.9882251 3.6 3.6 1.9882251 3.6 0 3.6-1.9882251 1.9882251-3.6 0-3.6Z"/>
<path transform="matrix(1,0,0,1,-36.393484,-99.25)" stroke-width=".5" stroke-linecap="butt" stroke-miterlimit="10" stroke-linejoin="miter" fill="none" stroke="#323232" d="M76 131V99.5H159.5V131Z"/>
</svg>
