<?xml version="1.0" standalone="no"?>
<!DOCTYPE svg PUBLIC "-//W3C//DTD SVG 20010904//EN"
 "http://www.w3.org/TR/2001/REC-SVG-20010904/DTD/svg10.dtd">
<svg version="1.0" xmlns="http://www.w3.org/2000/svg"
 width="200.000000pt" height="200.000000pt" viewBox="0 0 200.000000 200.000000"
 preserveAspectRatio="xMidYMid meet">
<metadata>
Created by potrace 1.16, written by Peter Selinger 2001-2019
</metadata><g><rect x="0" y="0" width="200" height="200" fill="#ffffff" />
<g transform="translate(0.000000,200.000000) scale(0.019380,-0.019380)"
fill="#000000" stroke="none">
<path d="M925 9591 c-47 -9 -113 -41 -136 -67 -9 -11 -27 -39 -40 -64 l-24
-45 0 -660 c0 -657 0 -660 22 -700 28 -53 68 -89 128 -117 l50 -23 635 0 c496
0 643 3 672 13 65 23 114 67 144 129 l29 58 0 640 0 640 -23 50 c-28 60 -64
100 -117 128 -40 22 -45 22 -670 23 -346 1 -648 -1 -670 -5z m1111 -264 c43
-22 88 -76 108 -128 15 -39 16 -92 14 -460 l-3 -416 -30 -49 c-19 -30 -49 -60
-79 -79 l-49 -30 -416 -3 c-368 -2 -421 -1 -460 14 -55 21 -107 66 -132 116
-19 37 -20 59 -19 464 0 412 1 427 21 467 28 56 46 75 94 101 38 20 55 21 440
26 421 5 461 3 511 -23z"/>
<path d="M1405 9111 c-47 -9 -113 -41 -136 -67 -9 -11 -27 -39 -40 -64 -23
-42 -24 -55 -24 -225 0 -165 2 -183 22 -220 28 -53 68 -89 128 -117 45 -21 64
-23 205 -23 102 0 168 4 192 13 65 23 114 67 144 129 28 56 29 62 29 218 0
146 -2 164 -23 210 -28 61 -64 100 -117 128 -34 17 -61 21 -190 23 -82 2 -168
-1 -190 -5z"/>
<path d="M8125 9591 c-47 -9 -113 -41 -136 -67 -9 -11 -27 -39 -40 -64 l-24
-45 0 -660 c0 -657 0 -660 22 -700 28 -53 68 -89 128 -117 l50 -23 635 0 c496
0 643 3 672 13 65 23 114 67 144 129 l29 58 0 640 0 640 -23 50 c-28 60 -64
100 -117 128 -40 22 -45 22 -670 23 -346 1 -648 -1 -670 -5z m1111 -264 c43
-22 88 -76 108 -128 15 -39 16 -92 14 -460 l-3 -416 -30 -49 c-19 -30 -49 -60
-79 -79 l-49 -30 -416 -3 c-368 -2 -421 -1 -460 14 -55 21 -107 66 -132 116
-19 37 -20 59 -19 464 0 412 1 427 21 467 28 56 46 75 94 101 38 20 55 21 440
26 421 5 461 3 511 -23z"/>
<path d="M8605 9111 c-47 -9 -113 -41 -136 -67 -9 -11 -27 -39 -40 -64 -23
-42 -24 -55 -24 -225 0 -165 2 -183 22 -220 28 -53 68 -89 128 -117 45 -21 64
-23 205 -23 102 0 168 4 192 13 65 23 114 67 144 129 28 56 29 62 29 218 0
146 -2 164 -23 210 -28 61 -64 100 -117 128 -34 17 -61 21 -190 23 -82 2 -168
-1 -190 -5z"/>
<path d="M3191 9566 c-57 -31 -68 -111 -22 -156 16 -16 40 -32 54 -35 38 -10
92 20 112 62 21 43 14 76 -25 114 -32 32 -78 38 -119 15z"/>
<path d="M3671 9566 c-57 -31 -68 -111 -22 -156 16 -16 40 -32 54 -35 38 -10
92 20 112 62 21 43 14 76 -25 114 -32 32 -78 38 -119 15z"/>
<path d="M4151 9566 c-57 -31 -68 -111 -22 -156 16 -16 40 -32 54 -35 38 -10
92 20 112 62 21 43 14 76 -25 114 -32 32 -78 38 -119 15z"/>
<path d="M4391 9566 c-57 -31 -68 -111 -22 -156 16 -16 40 -32 54 -35 38 -10
92 20 112 62 21 43 14 76 -25 114 -32 32 -78 38 -119 15z"/>
<path d="M5351 9566 c-57 -31 -68 -111 -22 -156 16 -16 40 -32 54 -35 38 -10
92 20 112 62 21 43 14 76 -25 114 -32 32 -78 38 -119 15z"/>
<path d="M5591 9566 c-57 -31 -68 -111 -22 -156 38 -39 71 -46 114 -25 42 20
72 74 62 112 -3 14 -19 38 -35 54 -32 32 -78 38 -119 15z"/>
<path d="M6551 9566 c-57 -31 -68 -111 -22 -156 38 -39 71 -46 114 -25 42 20
72 74 62 112 -3 14 -19 38 -35 54 -32 32 -78 38 -119 15z"/>
<path d="M6791 9566 c-57 -31 -68 -111 -22 -156 38 -39 71 -46 114 -25 42 20
72 74 62 112 -3 14 -19 38 -35 54 -32 32 -78 38 -119 15z"/>
<path d="M7511 9566 c-57 -31 -68 -111 -22 -156 38 -39 71 -46 114 -25 42 20
72 74 62 112 -3 14 -19 38 -35 54 -32 32 -78 38 -119 15z"/>
<path d="M3911 9326 c-57 -31 -68 -111 -22 -156 16 -16 40 -32 54 -35 38 -10
92 20 112 62 21 43 14 76 -25 114 -32 32 -78 38 -119 15z"/>
<path d="M4151 9326 c-57 -31 -68 -111 -22 -156 16 -16 40 -32 54 -35 38 -10
92 20 112 62 21 43 14 76 -25 114 -32 32 -78 38 -119 15z"/>
<path d="M4631 9326 c-57 -31 -68 -111 -22 -156 16 -16 40 -32 54 -35 38 -10
92 20 112 62 21 43 14 76 -25 114 -32 32 -78 38 -119 15z"/>
<path d="M5111 9326 c-57 -31 -68 -111 -22 -156 16 -16 40 -32 54 -35 38 -10
92 20 112 62 21 43 14 76 -25 114 -32 32 -78 38 -119 15z"/>
<path d="M5831 9326 c-57 -31 -68 -111 -22 -156 38 -39 71 -46 114 -25 42 20
72 74 62 112 -3 14 -19 38 -35 54 -32 32 -78 38 -119 15z"/>
<path d="M6071 9326 c-57 -31 -68 -111 -22 -156 38 -39 71 -46 114 -25 42 20
72 74 62 112 -3 14 -19 38 -35 54 -32 32 -78 38 -119 15z"/>
<path d="M6311 9326 c-57 -31 -68 -111 -22 -156 38 -39 71 -46 114 -25 42 20
72 74 62 112 -3 14 -19 38 -35 54 -32 32 -78 38 -119 15z"/>
<path d="M7511 9326 c-57 -31 -68 -111 -22 -156 38 -39 71 -46 114 -25 42 20
72 74 62 112 -3 14 -19 38 -35 54 -32 32 -78 38 -119 15z"/>
<path d="M2951 9086 c-57 -31 -68 -111 -22 -156 16 -16 40 -32 54 -35 38 -10
92 20 112 62 21 43 14 76 -25 114 -32 32 -78 38 -119 15z"/>
<path d="M3191 9086 c-57 -31 -68 -111 -22 -156 16 -16 40 -32 54 -35 38 -10
92 20 112 62 21 43 14 76 -25 114 -32 32 -78 38 -119 15z"/>
<path d="M3431 9086 c-57 -31 -68 -111 -22 -156 16 -16 40 -32 54 -35 38 -10
92 20 112 62 21 43 14 76 -25 114 -32 32 -78 38 -119 15z"/>
<path d="M3911 9086 c-57 -31 -68 -111 -22 -156 16 -16 40 -32 54 -35 38 -10
92 20 112 62 21 43 14 76 -25 114 -32 32 -78 38 -119 15z"/>
<path d="M4151 9086 c-57 -31 -68 -111 -22 -156 16 -16 40 -32 54 -35 38 -10
92 20 112 62 21 43 14 76 -25 114 -32 32 -78 38 -119 15z"/>
<path d="M4631 9086 c-57 -31 -68 -111 -22 -156 16 -16 40 -32 54 -35 38 -10
92 20 112 62 21 43 14 76 -25 114 -32 32 -78 38 -119 15z"/>
<path d="M5591 9086 c-57 -31 -68 -111 -22 -156 38 -39 71 -46 114 -25 42 20
72 74 62 112 -3 14 -19 38 -35 54 -32 32 -78 38 -119 15z"/>
<path d="M5831 9086 c-57 -31 -68 -111 -22 -156 38 -39 71 -46 114 -25 42 20
72 74 62 112 -3 14 -19 38 -35 54 -32 32 -78 38 -119 15z"/>
<path d="M6071 9086 c-57 -31 -68 -111 -22 -156 38 -39 71 -46 114 -25 42 20
72 74 62 112 -3 14 -19 38 -35 54 -32 32 -78 38 -119 15z"/>
<path d="M6311 9086 c-57 -31 -68 -111 -22 -156 38 -39 71 -46 114 -25 42 20
72 74 62 112 -3 14 -19 38 -35 54 -32 32 -78 38 -119 15z"/>
<path d="M6551 9086 c-57 -31 -68 -111 -22 -156 38 -39 71 -46 114 -25 42 20
72 74 62 112 -3 14 -19 38 -35 54 -32 32 -78 38 -119 15z"/>
<path d="M6791 9086 c-57 -31 -68 -111 -22 -156 38 -39 71 -46 114 -25 42 20
72 74 62 112 -3 14 -19 38 -35 54 -32 32 -78 38 -119 15z"/>
<path d="M3431 8846 c-57 -31 -68 -111 -22 -156 16 -16 40 -32 54 -35 38 -10
92 20 112 62 21 43 14 76 -25 114 -32 32 -78 38 -119 15z"/>
<path d="M3911 8846 c-57 -31 -68 -111 -22 -156 16 -16 40 -32 54 -35 38 -10
92 20 112 62 21 43 14 76 -25 114 -32 32 -78 38 -119 15z"/>
<path d="M4151 8846 c-57 -31 -68 -111 -22 -156 16 -16 40 -32 54 -35 38 -10
92 20 112 62 21 43 14 76 -25 114 -32 32 -78 38 -119 15z"/>
<path d="M4391 8846 c-57 -31 -68 -111 -22 -156 16 -16 40 -32 54 -35 38 -10
92 20 112 62 21 43 14 76 -25 114 -32 32 -78 38 -119 15z"/>
<path d="M4631 8846 c-57 -31 -68 -111 -22 -156 16 -16 40 -32 54 -35 38 -10
92 20 112 62 21 43 14 76 -25 114 -32 32 -78 38 -119 15z"/>
<path d="M5111 8846 c-57 -31 -68 -111 -22 -156 38 -39 71 -46 114 -25 42 20
72 74 62 112 -3 14 -19 38 -35 54 -32 32 -78 38 -119 15z"/>
<path d="M5831 8846 c-57 -31 -68 -111 -22 -156 38 -39 71 -46 114 -25 42 20
72 74 62 112 -3 14 -19 38 -35 54 -32 32 -78 38 -119 15z"/>
<path d="M6551 8846 c-57 -31 -68 -111 -22 -156 38 -39 71 -46 114 -25 42 20
72 74 62 112 -3 14 -19 38 -35 54 -32 32 -78 38 -119 15z"/>
<path d="M6791 8846 c-57 -31 -68 -111 -22 -156 38 -39 71 -46 114 -25 42 20
72 74 62 112 -3 14 -19 38 -35 54 -32 32 -78 38 -119 15z"/>
<path d="M7271 8846 c-57 -31 -68 -111 -22 -156 38 -39 71 -46 114 -25 42 20
72 74 62 112 -3 14 -19 38 -35 54 -32 32 -78 38 -119 15z"/>
<path d="M2711 8606 c-57 -31 -68 -111 -22 -156 16 -16 40 -32 54 -35 38 -10
92 20 112 62 21 43 14 76 -25 114 -32 32 -78 38 -119 15z"/>
<path d="M3191 8606 c-57 -31 -68 -111 -22 -156 16 -16 40 -32 54 -35 38 -10
92 20 112 62 21 43 14 76 -25 114 -32 32 -78 38 -119 15z"/>
<path d="M3671 8606 c-57 -31 -68 -111 -22 -156 16 -16 40 -32 54 -35 38 -10
92 20 112 62 21 43 14 76 -25 114 -32 32 -78 38 -119 15z"/>
<path d="M3911 8606 c-57 -31 -68 -111 -22 -156 16 -16 40 -32 54 -35 38 -10
92 20 112 62 21 43 14 76 -25 114 -32 32 -78 38 -119 15z"/>
<path d="M4631 8606 c-57 -31 -68 -111 -22 -156 16 -16 40 -32 54 -35 38 -10
92 20 112 62 21 43 14 76 -25 114 -32 32 -78 38 -119 15z"/>
<path d="M5111 8606 c-57 -31 -68 -111 -22 -156 38 -39 71 -46 114 -25 42 20
72 74 62 112 -3 14 -19 38 -35 54 -32 32 -78 38 -119 15z"/>
<path d="M5351 8606 c-57 -31 -68 -111 -22 -156 38 -39 71 -46 114 -25 42 20
72 74 62 112 -3 14 -19 38 -35 54 -32 32 -78 38 -119 15z"/>
<path d="M5591 8606 c-57 -31 -68 -111 -22 -156 38 -39 71 -46 114 -25 42 20
72 74 62 112 -3 14 -19 38 -35 54 -32 32 -78 38 -119 15z"/>
<path d="M5831 8606 c-57 -31 -68 -111 -22 -156 38 -39 71 -46 114 -25 42 20
72 74 62 112 -3 14 -19 38 -35 54 -32 32 -78 38 -119 15z"/>
<path d="M6791 8606 c-57 -31 -68 -111 -22 -156 38 -39 71 -46 114 -25 42 20
72 74 62 112 -3 14 -19 38 -35 54 -32 32 -78 38 -119 15z"/>
<path d="M7031 8606 c-57 -31 -68 -111 -22 -156 38 -39 71 -46 114 -25 42 20
72 74 62 112 -3 14 -19 38 -35 54 -32 32 -78 38 -119 15z"/>
<path d="M7271 8606 c-57 -31 -68 -111 -22 -156 38 -39 71 -46 114 -25 42 20
72 74 62 112 -3 14 -19 38 -35 54 -32 32 -78 38 -119 15z"/>
<path d="M2951 8366 c-57 -31 -68 -111 -22 -156 16 -16 40 -32 54 -35 38 -10
92 20 112 62 21 43 14 76 -25 114 -32 32 -78 38 -119 15z"/>
<path d="M3671 8366 c-57 -31 -68 -111 -22 -156 16 -16 40 -32 54 -35 38 -10
92 20 112 62 21 43 14 76 -25 114 -32 32 -78 38 -119 15z"/>
<path d="M3911 8366 c-57 -31 -68 -111 -22 -156 16 -16 40 -32 54 -35 38 -10
92 20 112 62 21 43 14 76 -25 114 -32 32 -78 38 -119 15z"/>
<path d="M4631 8366 c-57 -31 -68 -111 -22 -156 16 -16 40 -32 54 -35 38 -10
92 20 112 62 21 43 14 76 -25 114 -32 32 -78 38 -119 15z"/>
<path d="M4871 8366 c-57 -31 -68 -111 -22 -156 16 -16 40 -32 54 -35 38 -10
92 20 112 62 21 43 14 76 -25 114 -32 32 -78 38 -119 15z"/>
<path d="M5591 8366 c-57 -31 -68 -111 -22 -156 38 -39 71 -46 114 -25 42 20
72 74 62 112 -3 14 -19 38 -35 54 -32 32 -78 38 -119 15z"/>
<path d="M6551 8366 c-57 -31 -68 -111 -22 -156 38 -39 71 -46 114 -25 42 20
72 74 62 112 -3 14 -19 38 -35 54 -32 32 -78 38 -119 15z"/>
<path d="M6791 8366 c-57 -31 -68 -111 -22 -156 38 -39 71 -46 114 -25 42 20
72 74 62 112 -3 14 -19 38 -35 54 -32 32 -78 38 -119 15z"/>
<path d="M7031 8366 c-57 -31 -68 -111 -22 -156 38 -39 71 -46 114 -25 42 20
72 74 62 112 -3 14 -19 38 -35 54 -32 32 -78 38 -119 15z"/>
<path d="M2711 8126 c-57 -31 -68 -111 -22 -156 16 -16 40 -32 54 -35 38 -10
92 20 112 62 21 43 14 76 -25 114 -32 32 -78 38 -119 15z"/>
<path d="M3191 8126 c-57 -31 -68 -111 -22 -156 16 -16 40 -32 54 -35 38 -10
92 20 112 62 21 43 14 76 -25 114 -32 32 -78 38 -119 15z"/>
<path d="M3671 8126 c-57 -31 -68 -111 -22 -156 16 -16 40 -32 54 -35 38 -10
92 20 112 62 21 43 14 76 -25 114 -32 32 -78 38 -119 15z"/>
<path d="M4151 8126 c-57 -31 -68 -111 -22 -156 16 -16 40 -32 54 -35 38 -10
92 20 112 62 21 43 14 76 -25 114 -32 32 -78 38 -119 15z"/>
<path d="M4631 8126 c-57 -31 -68 -111 -22 -156 16 -16 40 -32 54 -35 38 -10
92 20 112 62 21 43 14 76 -25 114 -32 32 -78 38 -119 15z"/>
<path d="M5111 8126 c-57 -31 -68 -111 -22 -156 38 -39 71 -46 114 -25 42 20
72 74 62 112 -3 14 -19 38 -35 54 -32 32 -78 38 -119 15z"/>
<path d="M5591 8126 c-57 -31 -68 -111 -22 -156 38 -39 71 -46 114 -25 42 20
72 74 62 112 -3 14 -19 38 -35 54 -32 32 -78 38 -119 15z"/>
<path d="M6071 8126 c-57 -31 -68 -111 -22 -156 16 -16 40 -32 54 -35 38 -10
92 20 112 62 21 43 14 76 -25 114 -32 32 -78 38 -119 15z"/>
<path d="M6551 8126 c-57 -31 -68 -111 -22 -156 38 -39 71 -46 114 -25 42 20
72 74 62 112 -3 14 -19 38 -35 54 -32 32 -78 38 -119 15z"/>
<path d="M7031 8126 c-57 -31 -68 -111 -22 -156 16 -16 40 -32 54 -35 38 -10
92 20 112 62 21 43 14 76 -25 114 -32 32 -78 38 -119 15z"/>
<path d="M7511 8126 c-57 -31 -68 -111 -22 -156 38 -39 71 -46 114 -25 42 20
72 74 62 112 -3 14 -19 38 -35 54 -32 32 -78 38 -119 15z"/>
<path d="M2711 7886 c-57 -31 -68 -111 -22 -156 16 -16 40 -32 54 -35 38 -10
92 20 112 62 21 43 14 76 -25 114 -32 32 -78 38 -119 15z"/>
<path d="M3671 7886 c-57 -31 -68 -111 -22 -156 16 -16 40 -32 54 -35 38 -10
92 20 112 62 21 43 14 76 -25 114 -32 32 -78 38 -119 15z"/>
<path d="M4151 7886 c-57 -31 -68 -111 -22 -156 16 -16 40 -32 54 -35 38 -10
92 20 112 62 21 43 14 76 -25 114 -32 32 -78 38 -119 15z"/>
<path d="M4391 7886 c-57 -31 -68 -111 -22 -156 38 -39 71 -46 114 -25 42 20
72 74 62 112 -3 14 -19 38 -35 54 -32 32 -78 38 -119 15z"/>
<path d="M4631 7886 c-57 -31 -68 -111 -22 -156 16 -16 40 -32 54 -35 38 -10
92 20 112 62 21 43 14 76 -25 114 -32 32 -78 38 -119 15z"/>
<path d="M4871 7886 c-57 -31 -68 -111 -22 -156 16 -16 40 -32 54 -35 38 -10
92 20 112 62 21 43 14 76 -25 114 -32 32 -78 38 -119 15z"/>
<path d="M5351 7886 c-57 -31 -68 -111 -22 -156 38 -39 71 -46 114 -25 42 20
72 74 62 112 -3 14 -19 38 -35 54 -32 32 -78 38 -119 15z"/>
<path d="M6071 7886 c-57 -31 -68 -111 -22 -156 38 -39 71 -46 114 -25 42 20
72 74 62 112 -3 14 -19 38 -35 54 -32 32 -78 38 -119 15z"/>
<path d="M7031 7886 c-57 -31 -68 -111 -22 -156 38 -39 71 -46 114 -25 42 20
72 74 62 112 -3 14 -19 38 -35 54 -32 32 -78 38 -119 15z"/>
<path d="M7271 7886 c-57 -31 -68 -111 -22 -156 38 -39 71 -46 114 -25 42 20
72 74 62 112 -3 14 -19 38 -35 54 -32 32 -78 38 -119 15z"/>
<path d="M7511 7886 c-57 -31 -68 -111 -22 -156 38 -39 71 -46 114 -25 42 20
72 74 62 112 -3 14 -19 38 -35 54 -32 32 -78 38 -119 15z"/>
<path d="M1271 7646 c-57 -31 -68 -111 -22 -156 16 -16 40 -32 54 -35 38 -10
92 20 112 62 21 43 14 76 -25 114 -32 32 -78 38 -119 15z"/>
<path d="M1511 7646 c-57 -31 -68 -111 -22 -156 38 -39 71 -46 114 -25 42 20
72 74 62 112 -3 14 -19 38 -35 54 -32 32 -78 38 -119 15z"/>
<path d="M2231 7646 c-57 -31 -68 -111 -22 -156 16 -16 40 -32 54 -35 38 -10
92 20 112 62 21 43 14 76 -25 114 -32 32 -78 38 -119 15z"/>
<path d="M2471 7646 c-57 -31 -68 -111 -22 -156 38 -39 71 -46 114 -25 42 20
72 74 62 112 -3 14 -19 38 -35 54 -32 32 -78 38 -119 15z"/>
<path d="M2711 7646 c-57 -31 -68 -111 -22 -156 16 -16 40 -32 54 -35 38 -10
92 20 112 62 21 43 14 76 -25 114 -32 32 -78 38 -119 15z"/>
<path d="M2951 7646 c-57 -31 -68 -111 -22 -156 16 -16 40 -32 54 -35 38 -10
92 20 112 62 21 43 14 76 -25 114 -32 32 -78 38 -119 15z"/>
<path d="M3191 7646 c-57 -31 -68 -111 -22 -156 16 -16 40 -32 54 -35 38 -10
92 20 112 62 21 43 14 76 -25 114 -32 32 -78 38 -119 15z"/>
<path d="M3911 7646 c-57 -31 -68 -111 -22 -156 16 -16 40 -32 54 -35 38 -10
92 20 112 62 21 43 14 76 -25 114 -32 32 -78 38 -119 15z"/>
<path d="M4151 7646 c-57 -31 -68 -111 -22 -156 16 -16 40 -32 54 -35 38 -10
92 20 112 62 21 43 14 76 -25 114 -32 32 -78 38 -119 15z"/>
<path d="M4391 7646 c-57 -31 -68 -111 -22 -156 16 -16 40 -32 54 -35 38 -10
92 20 112 62 21 43 14 76 -25 114 -32 32 -78 38 -119 15z"/>
<path d="M4871 7646 c-57 -31 -68 -111 -22 -156 16 -16 40 -32 54 -35 38 -10
92 20 112 62 21 43 14 76 -25 114 -32 32 -78 38 -119 15z"/>
<path d="M5591 7646 c-57 -31 -68 -111 -22 -156 38 -39 71 -46 114 -25 42 20
72 74 62 112 -3 14 -19 38 -35 54 -32 32 -78 38 -119 15z"/>
<path d="M5831 7646 c-57 -31 -68 -111 -22 -156 38 -39 71 -46 114 -25 42 20
72 74 62 112 -3 14 -19 38 -35 54 -32 32 -78 38 -119 15z"/>
<path d="M6071 7646 c-57 -31 -68 -111 -22 -156 38 -39 71 -46 114 -25 42 20
72 74 62 112 -3 14 -19 38 -35 54 -32 32 -78 38 -119 15z"/>
<path d="M6551 7646 c-57 -31 -68 -111 -22 -156 38 -39 71 -46 114 -25 42 20
72 74 62 112 -3 14 -19 38 -35 54 -32 32 -78 38 -119 15z"/>
<path d="M6791 7646 c-57 -31 -68 -111 -22 -156 38 -39 71 -46 114 -25 42 20
72 74 62 112 -3 14 -19 38 -35 54 -32 32 -78 38 -119 15z"/>
<path d="M7271 7646 c-57 -31 -68 -111 -22 -156 38 -39 71 -46 114 -25 42 20
72 74 62 112 -3 14 -19 38 -35 54 -32 32 -78 38 -119 15z"/>
<path d="M7511 7646 c-57 -31 -68 -111 -22 -156 38 -39 71 -46 114 -25 42 20
72 74 62 112 -3 14 -19 38 -35 54 -32 32 -78 38 -119 15z"/>
<path d="M7751 7646 c-57 -31 -68 -111 -22 -156 38 -39 71 -46 114 -25 42 20
72 74 62 112 -3 14 -19 38 -35 54 -32 32 -78 38 -119 15z"/>
<path d="M7991 7646 c-57 -31 -68 -111 -22 -156 38 -39 71 -46 114 -25 42 20
72 74 62 112 -3 14 -19 38 -35 54 -32 32 -78 38 -119 15z"/>
<path d="M8471 7646 c-57 -31 -68 -111 -22 -156 38 -39 71 -46 114 -25 42 20
72 74 62 112 -3 14 -19 38 -35 54 -32 32 -78 38 -119 15z"/>
<path d="M791 7406 c-57 -31 -68 -111 -22 -156 16 -16 40 -32 54 -35 38 -10
92 20 112 62 21 43 14 76 -25 114 -32 32 -78 38 -119 15z"/>
<path d="M1271 7406 c-57 -31 -68 -111 -22 -156 16 -16 40 -32 54 -35 38 -10
92 20 112 62 21 43 14 76 -25 114 -32 32 -78 38 -119 15z"/>
<path d="M1511 7406 c-57 -31 -68 -111 -22 -156 16 -16 40 -32 54 -35 38 -10
92 20 112 62 21 43 14 76 -25 114 -32 32 -78 38 -119 15z"/>
<path d="M2471 7406 c-57 -31 -68 -111 -22 -156 16 -16 40 -32 54 -35 38 -10
92 20 112 62 21 43 14 76 -25 114 -32 32 -78 38 -119 15z"/>
<path d="M3431 7406 c-57 -31 -68 -111 -22 -156 16 -16 40 -32 54 -35 38 -10
92 20 112 62 21 43 14 76 -25 114 -32 32 -78 38 -119 15z"/>
<path d="M3671 7406 c-57 -31 -68 -111 -22 -156 16 -16 40 -32 54 -35 38 -10
92 20 112 62 21 43 14 76 -25 114 -32 32 -78 38 -119 15z"/>
<path d="M3911 7406 c-57 -31 -68 -111 -22 -156 16 -16 40 -32 54 -35 38 -10
92 20 112 62 21 43 14 76 -25 114 -32 32 -78 38 -119 15z"/>
<path d="M4391 7406 c-57 -31 -68 -111 -22 -156 16 -16 40 -32 54 -35 38 -10
92 20 112 62 21 43 14 76 -25 114 -32 32 -78 38 -119 15z"/>
<path d="M5111 7406 c-57 -31 -68 -111 -22 -156 38 -39 71 -46 114 -25 42 20
72 74 62 112 -3 14 -19 38 -35 54 -32 32 -78 38 -119 15z"/>
<path d="M6071 7406 c-57 -31 -68 -111 -22 -156 38 -39 71 -46 114 -25 42 20
72 74 62 112 -3 14 -19 38 -35 54 -32 32 -78 38 -119 15z"/>
<path d="M6311 7406 c-57 -31 -68 -111 -22 -156 38 -39 71 -46 114 -25 42 20
72 74 62 112 -3 14 -19 38 -35 54 -32 32 -78 38 -119 15z"/>
<path d="M6791 7406 c-57 -31 -68 -111 -22 -156 38 -39 71 -46 114 -25 42 20
72 74 62 112 -3 14 -19 38 -35 54 -32 32 -78 38 -119 15z"/>
<path d="M7511 7406 c-57 -31 -68 -111 -22 -156 38 -39 71 -46 114 -25 42 20
72 74 62 112 -3 14 -19 38 -35 54 -32 32 -78 38 -119 15z"/>
<path d="M8231 7406 c-57 -31 -68 -111 -22 -156 38 -39 71 -46 114 -25 42 20
72 74 62 112 -3 14 -19 38 -35 54 -32 32 -78 38 -119 15z"/>
<path d="M8711 7406 c-57 -31 -68 -111 -22 -156 38 -39 71 -46 114 -25 42 20
72 74 62 112 -3 14 -19 38 -35 54 -32 32 -78 38 -119 15z"/>
<path d="M8951 7406 c-57 -31 -68 -111 -22 -156 38 -39 71 -46 114 -25 42 20
72 74 62 112 -3 14 -19 38 -35 54 -32 32 -78 38 -119 15z"/>
<path d="M791 7166 c-57 -31 -68 -111 -22 -156 16 -16 40 -32 54 -35 38 -10
92 20 112 62 21 43 14 76 -25 114 -32 32 -78 38 -119 15z"/>
<path d="M1031 7166 c-57 -31 -68 -111 -22 -156 16 -16 40 -32 54 -35 38 -10
92 20 112 62 21 43 14 76 -25 114 -32 32 -78 38 -119 15z"/>
<path d="M1511 7166 c-57 -31 -68 -111 -22 -156 38 -39 71 -46 114 -25 42 20
72 74 62 112 -3 14 -19 38 -35 54 -32 32 -78 38 -119 15z"/>
<path d="M2231 7166 c-57 -31 -68 -111 -22 -156 38 -39 71 -46 114 -25 42 20
72 74 62 112 -3 14 -19 38 -35 54 -32 32 -78 38 -119 15z"/>
<path d="M3191 7166 c-57 -31 -68 -111 -22 -156 16 -16 40 -32 54 -35 38 -10
92 20 112 62 21 43 14 76 -25 114 -32 32 -78 38 -119 15z"/>
<path d="M4391 7166 c-57 -31 -68 -111 -22 -156 16 -16 40 -32 54 -35 38 -10
92 20 112 62 21 43 14 76 -25 114 -32 32 -78 38 -119 15z"/>
<path d="M4631 7166 c-57 -31 -68 -111 -22 -156 16 -16 40 -32 54 -35 38 -10
92 20 112 62 21 43 14 76 -25 114 -32 32 -78 38 -119 15z"/>
<path d="M4871 7166 c-57 -31 -68 -111 -22 -156 16 -16 40 -32 54 -35 38 -10
92 20 112 62 21 43 14 76 -25 114 -32 32 -78 38 -119 15z"/>
<path d="M5351 7166 c-57 -31 -68 -111 -22 -156 16 -16 40 -32 54 -35 38 -10
92 20 112 62 21 43 14 76 -25 114 -32 32 -78 38 -119 15z"/>
<path d="M5591 7166 c-57 -31 -68 -111 -22 -156 38 -39 71 -46 114 -25 42 20
72 74 62 112 -3 14 -19 38 -35 54 -32 32 -78 38 -119 15z"/>
<path d="M6071 7166 c-57 -31 -68 -111 -22 -156 16 -16 40 -32 54 -35 38 -10
92 20 112 62 21 43 14 76 -25 114 -32 32 -78 38 -119 15z"/>
<path d="M6311 7166 c-57 -31 -68 -111 -22 -156 16 -16 40 -32 54 -35 38 -10
92 20 112 62 21 43 14 76 -25 114 -32 32 -78 38 -119 15z"/>
<path d="M6551 7166 c-57 -31 -68 -111 -22 -156 38 -39 71 -46 114 -25 42 20
72 74 62 112 -3 14 -19 38 -35 54 -32 32 -78 38 -119 15z"/>
<path d="M6791 7166 c-57 -31 -68 -111 -22 -156 38 -39 71 -46 114 -25 42 20
72 74 62 112 -3 14 -19 38 -35 54 -32 32 -78 38 -119 15z"/>
<path d="M7511 7166 c-57 -31 -68 -111 -22 -156 38 -39 71 -46 114 -25 42 20
72 74 62 112 -3 14 -19 38 -35 54 -32 32 -78 38 -119 15z"/>
<path d="M7751 7166 c-57 -31 -68 -111 -22 -156 38 -39 71 -46 114 -25 42 20
72 74 62 112 -3 14 -19 38 -35 54 -32 32 -78 38 -119 15z"/>
<path d="M8951 7166 c-57 -31 -68 -111 -22 -156 16 -16 40 -32 54 -35 38 -10
92 20 112 62 21 43 14 76 -25 114 -32 32 -78 38 -119 15z"/>
<path d="M9191 7166 c-57 -31 -68 -111 -22 -156 38 -39 71 -46 114 -25 42 20
72 74 62 112 -3 14 -19 38 -35 54 -32 32 -78 38 -119 15z"/>
<path d="M791 6926 c-57 -31 -68 -111 -22 -156 16 -16 40 -32 54 -35 38 -10
92 20 112 62 21 43 14 76 -25 114 -32 32 -78 38 -119 15z"/>
<path d="M1031 6926 c-57 -31 -68 -111 -22 -156 16 -16 40 -32 54 -35 38 -10
92 20 112 62 21 43 14 76 -25 114 -32 32 -78 38 -119 15z"/>
<path d="M1271 6926 c-57 -31 -68 -111 -22 -156 16 -16 40 -32 54 -35 38 -10
92 20 112 62 21 43 14 76 -25 114 -32 32 -78 38 -119 15z"/>
<path d="M1751 6926 c-57 -31 -68 -111 -22 -156 16 -16 40 -32 54 -35 38 -10
92 20 112 62 21 43 14 76 -25 114 -32 32 -78 38 -119 15z"/>
<path d="M2471 6926 c-57 -31 -68 -111 -22 -156 38 -39 71 -46 114 -25 42 20
72 74 62 112 -3 14 -19 38 -35 54 -32 32 -78 38 -119 15z"/>
<path d="M2711 6926 c-57 -31 -68 -111 -22 -156 38 -39 71 -46 114 -25 42 20
72 74 62 112 -3 14 -19 38 -35 54 -32 32 -78 38 -119 15z"/>
<path d="M2951 6926 c-57 -31 -68 -111 -22 -156 38 -39 71 -46 114 -25 42 20
72 74 62 112 -3 14 -19 38 -35 54 -32 32 -78 38 -119 15z"/>
<path d="M3191 6926 c-57 -31 -68 -111 -22 -156 38 -39 71 -46 114 -25 42 20
72 74 62 112 -3 14 -19 38 -35 54 -32 32 -78 38 -119 15z"/>
<path d="M4631 6926 c-57 -31 -68 -111 -22 -156 38 -39 71 -46 114 -25 42 20
72 74 62 112 -3 14 -19 38 -35 54 -32 32 -78 38 -119 15z"/>
<path d="M4871 6926 c-57 -31 -68 -111 -22 -156 16 -16 40 -32 54 -35 38 -10
92 20 112 62 21 43 14 76 -25 114 -32 32 -78 38 -119 15z"/>
<path d="M5111 6926 c-57 -31 -68 -111 -22 -156 38 -39 71 -46 114 -25 42 20
72 74 62 112 -3 14 -19 38 -35 54 -32 32 -78 38 -119 15z"/>
<path d="M5831 6926 c-57 -31 -68 -111 -22 -156 38 -39 71 -46 114 -25 42 20
72 74 62 112 -3 14 -19 38 -35 54 -32 32 -78 38 -119 15z"/>
<path d="M6311 6926 c-57 -31 -68 -111 -22 -156 38 -39 71 -46 114 -25 42 20
72 74 62 112 -3 14 -19 38 -35 54 -32 32 -78 38 -119 15z"/>
<path d="M6551 6926 c-57 -31 -68 -111 -22 -156 38 -39 71 -46 114 -25 42 20
72 74 62 112 -3 14 -19 38 -35 54 -32 32 -78 38 -119 15z"/>
<path d="M6791 6926 c-57 -31 -68 -111 -22 -156 38 -39 71 -46 114 -25 42 20
72 74 62 112 -3 14 -19 38 -35 54 -32 32 -78 38 -119 15z"/>
<path d="M7031 6926 c-57 -31 -68 -111 -22 -156 38 -39 71 -46 114 -25 42 20
72 74 62 112 -3 14 -19 38 -35 54 -32 32 -78 38 -119 15z"/>
<path d="M8471 6926 c-57 -31 -68 -111 -22 -156 38 -39 71 -46 114 -25 42 20
72 74 62 112 -3 14 -19 38 -35 54 -32 32 -78 38 -119 15z"/>
<path d="M8711 6926 c-57 -31 -68 -111 -22 -156 38 -39 71 -46 114 -25 42 20
72 74 62 112 -3 14 -19 38 -35 54 -32 32 -78 38 -119 15z"/>
<path d="M8951 6926 c-57 -31 -68 -111 -22 -156 38 -39 71 -46 114 -25 42 20
72 74 62 112 -3 14 -19 38 -35 54 -32 32 -78 38 -119 15z"/>
<path d="M9191 6926 c-57 -31 -68 -111 -22 -156 38 -39 71 -46 114 -25 42 20
72 74 62 112 -3 14 -19 38 -35 54 -32 32 -78 38 -119 15z"/>
<path d="M9431 6926 c-57 -31 -68 -111 -22 -156 38 -39 71 -46 114 -25 42 20
72 74 62 112 -3 14 -19 38 -35 54 -32 32 -78 38 -119 15z"/>
<path d="M1031 6686 c-57 -31 -68 -111 -22 -156 16 -16 40 -32 54 -35 38 -10
92 20 112 62 21 43 14 76 -25 114 -32 32 -78 38 -119 15z"/>
<path d="M1271 6686 c-57 -31 -68 -111 -22 -156 16 -16 40 -32 54 -35 38 -10
92 20 112 62 21 43 14 76 -25 114 -32 32 -78 38 -119 15z"/>
<path d="M1511 6686 c-57 -31 -68 -111 -22 -156 16 -16 40 -32 54 -35 38 -10
92 20 112 62 21 43 14 76 -25 114 -32 32 -78 38 -119 15z"/>
<path d="M2231 6686 c-57 -31 -68 -111 -22 -156 16 -16 40 -32 54 -35 38 -10
92 20 112 62 21 43 14 76 -25 114 -32 32 -78 38 -119 15z"/>
<path d="M2711 6686 c-57 -31 -68 -111 -22 -156 16 -16 40 -32 54 -35 38 -10
92 20 112 62 21 43 14 76 -25 114 -32 32 -78 38 -119 15z"/>
<path d="M3191 6686 c-57 -31 -68 -111 -22 -156 16 -16 40 -32 54 -35 38 -10
92 20 112 62 21 43 14 76 -25 114 -32 32 -78 38 -119 15z"/>
<path d="M3431 6686 c-57 -31 -68 -111 -22 -156 38 -39 71 -46 114 -25 42 20
72 74 62 112 -3 14 -19 38 -35 54 -32 32 -78 38 -119 15z"/>
<path d="M4871 6686 c-57 -31 -68 -111 -22 -156 16 -16 40 -32 54 -35 38 -10
92 20 112 62 21 43 14 76 -25 114 -32 32 -78 38 -119 15z"/>
<path d="M5111 6686 c-57 -31 -68 -111 -22 -156 38 -39 71 -46 114 -25 42 20
72 74 62 112 -3 14 -19 38 -35 54 -32 32 -78 38 -119 15z"/>
<path d="M5591 6686 c-57 -31 -68 -111 -22 -156 38 -39 71 -46 114 -25 42 20
72 74 62 112 -3 14 -19 38 -35 54 -32 32 -78 38 -119 15z"/>
<path d="M6071 6686 c-57 -31 -68 -111 -22 -156 38 -39 71 -46 114 -25 42 20
72 74 62 112 -3 14 -19 38 -35 54 -32 32 -78 38 -119 15z"/>
<path d="M6311 6686 c-57 -31 -68 -111 -22 -156 38 -39 71 -46 114 -25 42 20
72 74 62 112 -3 14 -19 38 -35 54 -32 32 -78 38 -119 15z"/>
<path d="M6791 6686 c-57 -31 -68 -111 -22 -156 38 -39 71 -46 114 -25 42 20
72 74 62 112 -3 14 -19 38 -35 54 -32 32 -78 38 -119 15z"/>
<path d="M7031 6686 c-57 -31 -68 -111 -22 -156 38 -39 71 -46 114 -25 42 20
72 74 62 112 -3 14 -19 38 -35 54 -32 32 -78 38 -119 15z"/>
<path d="M7751 6686 c-57 -31 -68 -111 -22 -156 38 -39 71 -46 114 -25 42 20
72 74 62 112 -3 14 -19 38 -35 54 -32 32 -78 38 -119 15z"/>
<path d="M7991 6686 c-57 -31 -68 -111 -22 -156 38 -39 71 -46 114 -25 42 20
72 74 62 112 -3 14 -19 38 -35 54 -32 32 -78 38 -119 15z"/>
<path d="M8231 6686 c-57 -31 -68 -111 -22 -156 38 -39 71 -46 114 -25 42 20
72 74 62 112 -3 14 -19 38 -35 54 -32 32 -78 38 -119 15z"/>
<path d="M8471 6686 c-57 -31 -68 -111 -22 -156 38 -39 71 -46 114 -25 42 20
72 74 62 112 -3 14 -19 38 -35 54 -32 32 -78 38 -119 15z"/>
<path d="M8711 6686 c-57 -31 -68 -111 -22 -156 38 -39 71 -46 114 -25 42 20
72 74 62 112 -3 14 -19 38 -35 54 -32 32 -78 38 -119 15z"/>
<path d="M9191 6686 c-57 -31 -68 -111 -22 -156 38 -39 71 -46 114 -25 42 20
72 74 62 112 -3 14 -19 38 -35 54 -32 32 -78 38 -119 15z"/>
<path d="M791 6446 c-57 -31 -68 -111 -22 -156 16 -16 40 -32 54 -35 38 -10
92 20 112 62 21 43 14 76 -25 114 -32 32 -78 38 -119 15z"/>
<path d="M1031 6446 c-57 -31 -68 -111 -22 -156 16 -16 40 -32 54 -35 38 -10
92 20 112 62 21 43 14 76 -25 114 -32 32 -78 38 -119 15z"/>
<path d="M1751 6446 c-57 -31 -68 -111 -22 -156 16 -16 40 -32 54 -35 38 -10
92 20 112 62 21 43 14 76 -25 114 -32 32 -78 38 -119 15z"/>
<path d="M1991 6446 c-57 -31 -68 -111 -22 -156 38 -39 71 -46 114 -25 42 20
72 74 62 112 -3 14 -19 38 -35 54 -32 32 -78 38 -119 15z"/>
<path d="M2471 6446 c-57 -31 -68 -111 -22 -156 38 -39 71 -46 114 -25 42 20
72 74 62 112 -3 14 -19 38 -35 54 -32 32 -78 38 -119 15z"/>
<path d="M4631 6446 c-57 -31 -68 -111 -22 -156 16 -16 40 -32 54 -35 38 -10
92 20 112 62 21 43 14 76 -25 114 -32 32 -78 38 -119 15z"/>
<path d="M5351 6446 c-57 -31 -68 -111 -22 -156 38 -39 71 -46 114 -25 42 20
72 74 62 112 -3 14 -19 38 -35 54 -32 32 -78 38 -119 15z"/>
<path d="M7271 6446 c-57 -31 -68 -111 -22 -156 38 -39 71 -46 114 -25 42 20
72 74 62 112 -3 14 -19 38 -35 54 -32 32 -78 38 -119 15z"/>
<path d="M7511 6446 c-57 -31 -68 -111 -22 -156 38 -39 71 -46 114 -25 42 20
72 74 62 112 -3 14 -19 38 -35 54 -32 32 -78 38 -119 15z"/>
<path d="M7991 6446 c-57 -31 -68 -111 -22 -156 38 -39 71 -46 114 -25 42 20
72 74 62 112 -3 14 -19 38 -35 54 -32 32 -78 38 -119 15z"/>
<path d="M8231 6446 c-57 -31 -68 -111 -22 -156 38 -39 71 -46 114 -25 42 20
72 74 62 112 -3 14 -19 38 -35 54 -32 32 -78 38 -119 15z"/>
<path d="M8471 6446 c-57 -31 -68 -111 -22 -156 38 -39 71 -46 114 -25 42 20
72 74 62 112 -3 14 -19 38 -35 54 -32 32 -78 38 -119 15z"/>
<path d="M8951 6446 c-57 -31 -68 -111 -22 -156 38 -39 71 -46 114 -25 42 20
72 74 62 112 -3 14 -19 38 -35 54 -32 32 -78 38 -119 15z"/>
<path d="M9431 6446 c-57 -31 -68 -111 -22 -156 38 -39 71 -46 114 -25 42 20
72 74 62 112 -3 14 -19 38 -35 54 -32 32 -78 38 -119 15z"/>
<path d="M791 6206 c-57 -31 -68 -111 -22 -156 38 -39 71 -46 114 -25 42 20
72 74 62 112 -3 14 -19 38 -35 54 -32 32 -78 38 -119 15z"/>
<path d="M1031 6206 c-57 -31 -68 -111 -22 -156 16 -16 40 -32 54 -35 38 -10
92 20 112 62 21 43 14 76 -25 114 -32 32 -78 38 -119 15z"/>
<path d="M2231 6206 c-57 -31 -68 -111 -22 -156 38 -39 71 -46 114 -25 42 20
72 74 62 112 -3 14 -19 38 -35 54 -32 32 -78 38 -119 15z"/>
<path d="M2471 6206 c-57 -31 -68 -111 -22 -156 38 -39 71 -46 114 -25 42 20
72 74 62 112 -3 14 -19 38 -35 54 -32 32 -78 38 -119 15z"/>
<path d="M2711 6206 c-57 -31 -68 -111 -22 -156 16 -16 40 -32 54 -35 38 -10
92 20 112 62 21 43 14 76 -25 114 -32 32 -78 38 -119 15z"/>
<path d="M3431 6206 c-57 -31 -68 -111 -22 -156 16 -16 40 -32 54 -35 38 -10
92 20 112 62 21 43 14 76 -25 114 -32 32 -78 38 -119 15z"/>
<path d="M4631 6206 c-57 -31 -68 -111 -22 -156 16 -16 40 -32 54 -35 38 -10
92 20 112 62 21 43 14 76 -25 114 -32 32 -78 38 -119 15z"/>
<path d="M5111 6206 c-57 -31 -68 -111 -22 -156 38 -39 71 -46 114 -25 42 20
72 74 62 112 -3 14 -19 38 -35 54 -32 32 -78 38 -119 15z"/>
<path d="M5351 6206 c-57 -31 -68 -111 -22 -156 38 -39 71 -46 114 -25 42 20
72 74 62 112 -3 14 -19 38 -35 54 -32 32 -78 38 -119 15z"/>
<path d="M5591 6206 c-57 -31 -68 -111 -22 -156 38 -39 71 -46 114 -25 42 20
72 74 62 112 -3 14 -19 38 -35 54 -32 32 -78 38 -119 15z"/>
<path d="M6551 6206 c-57 -31 -68 -111 -22 -156 38 -39 71 -46 114 -25 42 20
72 74 62 112 -3 14 -19 38 -35 54 -32 32 -78 38 -119 15z"/>
<path d="M7991 6206 c-57 -31 -68 -111 -22 -156 38 -39 71 -46 114 -25 42 20
72 74 62 112 -3 14 -19 38 -35 54 -32 32 -78 38 -119 15z"/>
<path d="M8951 6206 c-57 -31 -68 -111 -22 -156 38 -39 71 -46 114 -25 42 20
72 74 62 112 -3 14 -19 38 -35 54 -32 32 -78 38 -119 15z"/>
<path d="M1031 5966 c-57 -31 -68 -111 -22 -156 16 -16 40 -32 54 -35 38 -10
92 20 112 62 21 43 14 76 -25 114 -32 32 -78 38 -119 15z"/>
<path d="M1271 5966 c-57 -31 -68 -111 -22 -156 16 -16 40 -32 54 -35 38 -10
92 20 112 62 21 43 14 76 -25 114 -32 32 -78 38 -119 15z"/>
<path d="M2711 5966 c-57 -31 -68 -111 -22 -156 16 -16 40 -32 54 -35 38 -10
92 20 112 62 21 43 14 76 -25 114 -32 32 -78 38 -119 15z"/>
<path d="M3431 5966 c-57 -31 -68 -111 -22 -156 16 -16 40 -32 54 -35 38 -10
92 20 112 62 21 43 14 76 -25 114 -32 32 -78 38 -119 15z"/>
<path d="M3911 5966 c-57 -31 -68 -111 -22 -156 16 -16 40 -32 54 -35 38 -10
92 20 112 62 21 43 14 76 -25 114 -32 32 -78 38 -119 15z"/>
<path d="M4151 5966 c-57 -31 -68 -111 -22 -156 16 -16 40 -32 54 -35 38 -10
92 20 112 62 21 43 14 76 -25 114 -32 32 -78 38 -119 15z"/>
<path d="M5351 5966 c-57 -31 -68 -111 -22 -156 38 -39 71 -46 114 -25 42 20
72 74 62 112 -3 14 -19 38 -35 54 -32 32 -78 38 -119 15z"/>
<path d="M5831 5966 c-57 -31 -68 -111 -22 -156 38 -39 71 -46 114 -25 42 20
72 74 62 112 -3 14 -19 38 -35 54 -32 32 -78 38 -119 15z"/>
<path d="M6071 5966 c-57 -31 -68 -111 -22 -156 38 -39 71 -46 114 -25 42 20
72 74 62 112 -3 14 -19 38 -35 54 -32 32 -78 38 -119 15z"/>
<path d="M6311 5966 c-57 -31 -68 -111 -22 -156 38 -39 71 -46 114 -25 42 20
72 74 62 112 -3 14 -19 38 -35 54 -32 32 -78 38 -119 15z"/>
<path d="M7271 5966 c-57 -31 -68 -111 -22 -156 38 -39 71 -46 114 -25 42 20
72 74 62 112 -3 14 -19 38 -35 54 -32 32 -78 38 -119 15z"/>
<path d="M7751 5966 c-57 -31 -68 -111 -22 -156 38 -39 71 -46 114 -25 42 20
72 74 62 112 -3 14 -19 38 -35 54 -32 32 -78 38 -119 15z"/>
<path d="M7991 5966 c-57 -31 -68 -111 -22 -156 38 -39 71 -46 114 -25 42 20
72 74 62 112 -3 14 -19 38 -35 54 -32 32 -78 38 -119 15z"/>
<path d="M8231 5966 c-57 -31 -68 -111 -22 -156 38 -39 71 -46 114 -25 42 20
72 74 62 112 -3 14 -19 38 -35 54 -32 32 -78 38 -119 15z"/>
<path d="M791 5726 c-57 -31 -68 -111 -22 -156 16 -16 40 -32 54 -35 38 -10
92 20 112 62 21 43 14 76 -25 114 -32 32 -78 38 -119 15z"/>
<path d="M1751 5726 c-57 -31 -68 -111 -22 -156 38 -39 71 -46 114 -25 42 20
72 74 62 112 -3 14 -19 38 -35 54 -32 32 -78 38 -119 15z"/>
<path d="M1991 5726 c-57 -31 -68 -111 -22 -156 38 -39 71 -46 114 -25 42 20
72 74 62 112 -3 14 -19 38 -35 54 -32 32 -78 38 -119 15z"/>
<path d="M2231 5726 c-57 -31 -68 -111 -22 -156 38 -39 71 -46 114 -25 42 20
72 74 62 112 -3 14 -19 38 -35 54 -32 32 -78 38 -119 15z"/>
<path d="M2471 5726 c-57 -31 -68 -111 -22 -156 38 -39 71 -46 114 -25 42 20
72 74 62 112 -3 14 -19 38 -35 54 -32 32 -78 38 -119 15z"/>
<path d="M2711 5726 c-57 -31 -68 -111 -22 -156 16 -16 40 -32 54 -35 38 -10
92 20 112 62 21 43 14 76 -25 114 -32 32 -78 38 -119 15z"/>
<path d="M3911 5726 c-57 -31 -68 -111 -22 -156 16 -16 40 -32 54 -35 38 -10
92 20 112 62 21 43 14 76 -25 114 -32 32 -78 38 -119 15z"/>
<path d="M4391 5726 c-57 -31 -68 -111 -22 -156 16 -16 40 -32 54 -35 38 -10
92 20 112 62 21 43 14 76 -25 114 -32 32 -78 38 -119 15z"/>
<path d="M4631 5726 c-57 -31 -68 -111 -22 -156 16 -16 40 -32 54 -35 38 -10
92 20 112 62 21 43 14 76 -25 114 -32 32 -78 38 -119 15z"/>
<path d="M5111 5726 c-57 -31 -68 -111 -22 -156 38 -39 71 -46 114 -25 42 20
72 74 62 112 -3 14 -19 38 -35 54 -32 32 -78 38 -119 15z"/>
<path d="M5591 5726 c-57 -31 -68 -111 -22 -156 38 -39 71 -46 114 -25 42 20
72 74 62 112 -3 14 -19 38 -35 54 -32 32 -78 38 -119 15z"/>
<path d="M6311 5726 c-57 -31 -68 -111 -22 -156 38 -39 71 -46 114 -25 42 20
72 74 62 112 -3 14 -19 38 -35 54 -32 32 -78 38 -119 15z"/>
<path d="M6551 5726 c-57 -31 -68 -111 -22 -156 38 -39 71 -46 114 -25 42 20
72 74 62 112 -3 14 -19 38 -35 54 -32 32 -78 38 -119 15z"/>
<path d="M6791 5726 c-57 -31 -68 -111 -22 -156 38 -39 71 -46 114 -25 42 20
72 74 62 112 -3 14 -19 38 -35 54 -32 32 -78 38 -119 15z"/>
<path d="M7031 5726 c-57 -31 -68 -111 -22 -156 38 -39 71 -46 114 -25 42 20
72 74 62 112 -3 14 -19 38 -35 54 -32 32 -78 38 -119 15z"/>
<path d="M7511 5726 c-57 -31 -68 -111 -22 -156 38 -39 71 -46 114 -25 42 20
72 74 62 112 -3 14 -19 38 -35 54 -32 32 -78 38 -119 15z"/>
<path d="M8711 5726 c-57 -31 -68 -111 -22 -156 38 -39 71 -46 114 -25 42 20
72 74 62 112 -3 14 -19 38 -35 54 -32 32 -78 38 -119 15z"/>
<path d="M8951 5726 c-57 -31 -68 -111 -22 -156 38 -39 71 -46 114 -25 42 20
72 74 62 112 -3 14 -19 38 -35 54 -32 32 -78 38 -119 15z"/>
<path d="M1271 5486 c-57 -31 -68 -111 -22 -156 16 -16 40 -32 54 -35 38 -10
92 20 112 62 21 43 14 76 -25 114 -32 32 -78 38 -119 15z"/>
<path d="M3191 5486 c-57 -31 -68 -111 -22 -156 16 -16 40 -32 54 -35 38 -10
92 20 112 62 21 43 14 76 -25 114 -32 32 -78 38 -119 15z"/>
<path d="M3671 5486 c-57 -31 -68 -111 -22 -156 16 -16 40 -32 54 -35 38 -10
92 20 112 62 21 43 14 76 -25 114 -32 32 -78 38 -119 15z"/>
<path d="M4391 5486 c-57 -31 -68 -111 -22 -156 16 -16 40 -32 54 -35 38 -10
92 20 112 62 21 43 14 76 -25 114 -32 32 -78 38 -119 15z"/>
<path d="M5591 5486 c-57 -31 -68 -111 -22 -156 38 -39 71 -46 114 -25 42 20
72 74 62 112 -3 14 -19 38 -35 54 -32 32 -78 38 -119 15z"/>
<path d="M6311 5486 c-57 -31 -68 -111 -22 -156 38 -39 71 -46 114 -25 42 20
72 74 62 112 -3 14 -19 38 -35 54 -32 32 -78 38 -119 15z"/>
<path d="M7271 5486 c-57 -31 -68 -111 -22 -156 38 -39 71 -46 114 -25 42 20
72 74 62 112 -3 14 -19 38 -35 54 -32 32 -78 38 -119 15z"/>
<path d="M7751 5486 c-57 -31 -68 -111 -22 -156 38 -39 71 -46 114 -25 42 20
72 74 62 112 -3 14 -19 38 -35 54 -32 32 -78 38 -119 15z"/>
<path d="M7991 5486 c-57 -31 -68 -111 -22 -156 38 -39 71 -46 114 -25 42 20
72 74 62 112 -3 14 -19 38 -35 54 -32 32 -78 38 -119 15z"/>
<path d="M9431 5486 c-57 -31 -68 -111 -22 -156 38 -39 71 -46 114 -25 42 20
72 74 62 112 -3 14 -19 38 -35 54 -32 32 -78 38 -119 15z"/>
<path d="M1031 5246 c-57 -31 -68 -111 -22 -156 38 -39 71 -46 114 -25 42 20
72 74 62 112 -3 14 -19 38 -35 54 -32 32 -78 38 -119 15z"/>
<path d="M1511 5246 c-57 -31 -68 -111 -22 -156 16 -16 40 -32 54 -35 38 -10
92 20 112 62 21 43 14 76 -25 114 -32 32 -78 38 -119 15z"/>
<path d="M2231 5246 c-57 -31 -68 -111 -22 -156 16 -16 40 -32 54 -35 38 -10
92 20 112 62 21 43 14 76 -25 114 -32 32 -78 38 -119 15z"/>
<path d="M2471 5246 c-57 -31 -68 -111 -22 -156 16 -16 40 -32 54 -35 38 -10
92 20 112 62 21 43 14 76 -25 114 -32 32 -78 38 -119 15z"/>
<path d="M2951 5246 c-57 -31 -68 -111 -22 -156 16 -16 40 -32 54 -35 38 -10
92 20 112 62 21 43 14 76 -25 114 -32 32 -78 38 -119 15z"/>
<path d="M3431 5246 c-57 -31 -68 -111 -22 -156 16 -16 40 -32 54 -35 38 -10
92 20 112 62 21 43 14 76 -25 114 -32 32 -78 38 -119 15z"/>
<path d="M3671 5246 c-57 -31 -68 -111 -22 -156 16 -16 40 -32 54 -35 38 -10
92 20 112 62 21 43 14 76 -25 114 -32 32 -78 38 -119 15z"/>
<path d="M4391 5246 c-57 -31 -68 -111 -22 -156 16 -16 40 -32 54 -35 38 -10
92 20 112 62 21 43 14 76 -25 114 -32 32 -78 38 -119 15z"/>
<path d="M4871 5246 c-57 -31 -68 -111 -22 -156 16 -16 40 -32 54 -35 38 -10
92 20 112 62 21 43 14 76 -25 114 -32 32 -78 38 -119 15z"/>
<path d="M5111 5246 c-57 -31 -68 -111 -22 -156 38 -39 71 -46 114 -25 42 20
72 74 62 112 -3 14 -19 38 -35 54 -32 32 -78 38 -119 15z"/>
<path d="M5591 5246 c-57 -31 -68 -111 -22 -156 16 -16 40 -32 54 -35 38 -10
92 20 112 62 21 43 14 76 -25 114 -32 32 -78 38 -119 15z"/>
<path d="M5831 5246 c-57 -31 -68 -111 -22 -156 16 -16 40 -32 54 -35 38 -10
92 20 112 62 21 43 14 76 -25 114 -32 32 -78 38 -119 15z"/>
<path d="M6071 5246 c-57 -31 -68 -111 -22 -156 16 -16 40 -32 54 -35 38 -10
92 20 112 62 21 43 14 76 -25 114 -32 32 -78 38 -119 15z"/>
<path d="M6311 5246 c-57 -31 -68 -111 -22 -156 16 -16 40 -32 54 -35 38 -10
92 20 112 62 21 43 14 76 -25 114 -32 32 -78 38 -119 15z"/>
<path d="M6551 5246 c-57 -31 -68 -111 -22 -156 16 -16 40 -32 54 -35 38 -10
92 20 112 62 21 43 14 76 -25 114 -32 32 -78 38 -119 15z"/>
<path d="M6791 5246 c-57 -31 -68 -111 -22 -156 16 -16 40 -32 54 -35 38 -10
92 20 112 62 21 43 14 76 -25 114 -32 32 -78 38 -119 15z"/>
<path d="M7031 5246 c-57 -31 -68 -111 -22 -156 16 -16 40 -32 54 -35 38 -10
92 20 112 62 21 43 14 76 -25 114 -32 32 -78 38 -119 15z"/>
<path d="M7271 5246 c-57 -31 -68 -111 -22 -156 16 -16 40 -32 54 -35 38 -10
92 20 112 62 21 43 14 76 -25 114 -32 32 -78 38 -119 15z"/>
<path d="M7751 5246 c-57 -31 -68 -111 -22 -156 16 -16 40 -32 54 -35 38 -10
92 20 112 62 21 43 14 76 -25 114 -32 32 -78 38 -119 15z"/>
<path d="M7991 5246 c-57 -31 -68 -111 -22 -156 16 -16 40 -32 54 -35 38 -10
92 20 112 62 21 43 14 76 -25 114 -32 32 -78 38 -119 15z"/>
<path d="M8231 5246 c-57 -31 -68 -111 -22 -156 16 -16 40 -32 54 -35 38 -10
92 20 112 62 21 43 14 76 -25 114 -32 32 -78 38 -119 15z"/>
<path d="M8471 5246 c-57 -31 -68 -111 -22 -156 16 -16 40 -32 54 -35 38 -10
92 20 112 62 21 43 14 76 -25 114 -32 32 -78 38 -119 15z"/>
<path d="M9191 5246 c-57 -31 -68 -111 -22 -156 16 -16 40 -32 54 -35 38 -10
92 20 112 62 21 43 14 76 -25 114 -32 32 -78 38 -119 15z"/>
<path d="M9431 5246 c-57 -31 -68 -111 -22 -156 16 -16 40 -32 54 -35 38 -10
92 20 112 62 21 43 14 76 -25 114 -32 32 -78 38 -119 15z"/>
<path d="M1031 5006 c-57 -31 -68 -111 -22 -156 38 -39 71 -46 114 -25 42 20
72 74 62 112 -3 14 -19 38 -35 54 -32 32 -78 38 -119 15z"/>
<path d="M1511 5006 c-57 -31 -68 -111 -22 -156 16 -16 40 -32 54 -35 38 -10
92 20 112 62 21 43 14 76 -25 114 -32 32 -78 38 -119 15z"/>
<path d="M1991 5006 c-57 -31 -68 -111 -22 -156 16 -16 40 -32 54 -35 38 -10
92 20 112 62 21 43 14 76 -25 114 -32 32 -78 38 -119 15z"/>
<path d="M2711 5006 c-57 -31 -68 -111 -22 -156 16 -16 40 -32 54 -35 38 -10
92 20 112 62 21 43 14 76 -25 114 -32 32 -78 38 -119 15z"/>
<path d="M2951 5006 c-57 -31 -68 -111 -22 -156 16 -16 40 -32 54 -35 38 -10
92 20 112 62 21 43 14 76 -25 114 -32 32 -78 38 -119 15z"/>
<path d="M3431 5006 c-57 -31 -68 -111 -22 -156 16 -16 40 -32 54 -35 38 -10
92 20 112 62 21 43 14 76 -25 114 -32 32 -78 38 -119 15z"/>
<path d="M4631 5006 c-57 -31 -68 -111 -22 -156 16 -16 40 -32 54 -35 38 -10
92 20 112 62 21 43 14 76 -25 114 -32 32 -78 38 -119 15z"/>
<path d="M4871 5006 c-57 -31 -68 -111 -22 -156 16 -16 40 -32 54 -35 38 -10
92 20 112 62 21 43 14 76 -25 114 -32 32 -78 38 -119 15z"/>
<path d="M5111 5006 c-57 -31 -68 -111 -22 -156 16 -16 40 -32 54 -35 38 -10
92 20 112 62 21 43 14 76 -25 114 -32 32 -78 38 -119 15z"/>
<path d="M5351 5006 c-57 -31 -68 -111 -22 -156 16 -16 40 -32 54 -35 38 -10
92 20 112 62 21 43 14 76 -25 114 -32 32 -78 38 -119 15z"/>
<path d="M5591 5006 c-57 -31 -68 -111 -22 -156 38 -39 71 -46 114 -25 42 20
72 74 62 112 -3 14 -19 38 -35 54 -32 32 -78 38 -119 15z"/>
<path d="M6071 5006 c-57 -31 -68 -111 -22 -156 16 -16 40 -32 54 -35 38 -10
92 20 112 62 21 43 14 76 -25 114 -32 32 -78 38 -119 15z"/>
<path d="M6551 5006 c-57 -31 -68 -111 -22 -156 16 -16 40 -32 54 -35 38 -10
92 20 112 62 21 43 14 76 -25 114 -32 32 -78 38 -119 15z"/>
<path d="M7031 5006 c-57 -31 -68 -111 -22 -156 16 -16 40 -32 54 -35 38 -10
92 20 112 62 21 43 14 76 -25 114 -32 32 -78 38 -119 15z"/>
<path d="M7751 5006 c-57 -31 -68 -111 -22 -156 16 -16 40 -32 54 -35 38 -10
92 20 112 62 21 43 14 76 -25 114 -32 32 -78 38 -119 15z"/>
<path d="M7991 5006 c-57 -31 -68 -111 -22 -156 16 -16 40 -32 54 -35 38 -10
92 20 112 62 21 43 14 76 -25 114 -32 32 -78 38 -119 15z"/>
<path d="M8231 5006 c-57 -31 -68 -111 -22 -156 16 -16 40 -32 54 -35 38 -10
92 20 112 62 21 43 14 76 -25 114 -32 32 -78 38 -119 15z"/>
<path d="M8471 5006 c-57 -31 -68 -111 -22 -156 16 -16 40 -32 54 -35 38 -10
92 20 112 62 21 43 14 76 -25 114 -32 32 -78 38 -119 15z"/>
<path d="M791 4766 c-57 -31 -68 -111 -22 -156 16 -16 40 -32 54 -35 38 -10
92 20 112 62 21 43 14 76 -25 114 -32 32 -78 38 -119 15z"/>
<path d="M1031 4766 c-57 -31 -68 -111 -22 -156 38 -39 71 -46 114 -25 42 20
72 74 62 112 -3 14 -19 38 -35 54 -32 32 -78 38 -119 15z"/>
<path d="M1271 4766 c-57 -31 -68 -111 -22 -156 38 -39 71 -46 114 -25 42 20
72 74 62 112 -3 14 -19 38 -35 54 -32 32 -78 38 -119 15z"/>
<path d="M1751 4766 c-57 -31 -68 -111 -22 -156 16 -16 40 -32 54 -35 38 -10
92 20 112 62 21 43 14 76 -25 114 -32 32 -78 38 -119 15z"/>
<path d="M2231 4766 c-57 -31 -68 -111 -22 -156 16 -16 40 -32 54 -35 38 -10
92 20 112 62 21 43 14 76 -25 114 -32 32 -78 38 -119 15z"/>
<path d="M2471 4766 c-57 -31 -68 -111 -22 -156 16 -16 40 -32 54 -35 38 -10
92 20 112 62 21 43 14 76 -25 114 -32 32 -78 38 -119 15z"/>
<path d="M2711 4766 c-57 -31 -68 -111 -22 -156 16 -16 40 -32 54 -35 38 -10
92 20 112 62 21 43 14 76 -25 114 -32 32 -78 38 -119 15z"/>
<path d="M2951 4766 c-57 -31 -68 -111 -22 -156 16 -16 40 -32 54 -35 38 -10
92 20 112 62 21 43 14 76 -25 114 -32 32 -78 38 -119 15z"/>
<path d="M3191 4766 c-57 -31 -68 -111 -22 -156 16 -16 40 -32 54 -35 38 -10
92 20 112 62 21 43 14 76 -25 114 -32 32 -78 38 -119 15z"/>
<path d="M4631 4766 c-57 -31 -68 -111 -22 -156 16 -16 40 -32 54 -35 38 -10
92 20 112 62 21 43 14 76 -25 114 -32 32 -78 38 -119 15z"/>
<path d="M5591 4766 c-57 -31 -68 -111 -22 -156 38 -39 71 -46 114 -25 42 20
72 74 62 112 -3 14 -19 38 -35 54 -32 32 -78 38 -119 15z"/>
<path d="M6311 4766 c-57 -31 -68 -111 -22 -156 38 -39 71 -46 114 -25 42 20
72 74 62 112 -3 14 -19 38 -35 54 -32 32 -78 38 -119 15z"/>
<path d="M7031 4766 c-57 -31 -68 -111 -22 -156 16 -16 40 -32 54 -35 38 -10
92 20 112 62 21 43 14 76 -25 114 -32 32 -78 38 -119 15z"/>
<path d="M7271 4766 c-57 -31 -68 -111 -22 -156 16 -16 40 -32 54 -35 38 -10
92 20 112 62 21 43 14 76 -25 114 -32 32 -78 38 -119 15z"/>
<path d="M7511 4766 c-57 -31 -68 -111 -22 -156 38 -39 71 -46 114 -25 42 20
72 74 62 112 -3 14 -19 38 -35 54 -32 32 -78 38 -119 15z"/>
<path d="M7751 4766 c-57 -31 -68 -111 -22 -156 16 -16 40 -32 54 -35 38 -10
92 20 112 62 21 43 14 76 -25 114 -32 32 -78 38 -119 15z"/>
<path d="M8471 4766 c-57 -31 -68 -111 -22 -156 16 -16 40 -32 54 -35 38 -10
92 20 112 62 21 43 14 76 -25 114 -32 32 -78 38 -119 15z"/>
<path d="M9431 4766 c-57 -31 -68 -111 -22 -156 16 -16 40 -32 54 -35 38 -10
92 20 112 62 21 43 14 76 -25 114 -32 32 -78 38 -119 15z"/>
<path d="M791 4526 c-57 -31 -68 -111 -22 -156 16 -16 40 -32 54 -35 38 -10
92 20 112 62 21 43 14 76 -25 114 -32 32 -78 38 -119 15z"/>
<path d="M1031 4526 c-57 -31 -68 -111 -22 -156 16 -16 40 -32 54 -35 38 -10
92 20 112 62 21 43 14 76 -25 114 -32 32 -78 38 -119 15z"/>
<path d="M1271 4526 c-57 -31 -68 -111 -22 -156 38 -39 71 -46 114 -25 42 20
72 74 62 112 -3 14 -19 38 -35 54 -32 32 -78 38 -119 15z"/>
<path d="M1511 4526 c-57 -31 -68 -111 -22 -156 16 -16 40 -32 54 -35 38 -10
92 20 112 62 21 43 14 76 -25 114 -32 32 -78 38 -119 15z"/>
<path d="M1751 4526 c-57 -31 -68 -111 -22 -156 16 -16 40 -32 54 -35 38 -10
92 20 112 62 21 43 14 76 -25 114 -32 32 -78 38 -119 15z"/>
<path d="M2471 4526 c-57 -31 -68 -111 -22 -156 16 -16 40 -32 54 -35 38 -10
92 20 112 62 21 43 14 76 -25 114 -32 32 -78 38 -119 15z"/>
<path d="M2951 4526 c-57 -31 -68 -111 -22 -156 16 -16 40 -32 54 -35 38 -10
92 20 112 62 21 43 14 76 -25 114 -32 32 -78 38 -119 15z"/>
<path d="M3431 4526 c-57 -31 -68 -111 -22 -156 16 -16 40 -32 54 -35 38 -10
92 20 112 62 21 43 14 76 -25 114 -32 32 -78 38 -119 15z"/>
<path d="M3671 4526 c-57 -31 -68 -111 -22 -156 16 -16 40 -32 54 -35 38 -10
92 20 112 62 21 43 14 76 -25 114 -32 32 -78 38 -119 15z"/>
<path d="M3911 4526 c-57 -31 -68 -111 -22 -156 16 -16 40 -32 54 -35 38 -10
92 20 112 62 21 43 14 76 -25 114 -32 32 -78 38 -119 15z"/>
<path d="M4151 4526 c-57 -31 -68 -111 -22 -156 16 -16 40 -32 54 -35 38 -10
92 20 112 62 21 43 14 76 -25 114 -32 32 -78 38 -119 15z"/>
<path d="M4391 4526 c-57 -31 -68 -111 -22 -156 16 -16 40 -32 54 -35 38 -10
92 20 112 62 21 43 14 76 -25 114 -32 32 -78 38 -119 15z"/>
<path d="M4631 4526 c-57 -31 -68 -111 -22 -156 16 -16 40 -32 54 -35 38 -10
92 20 112 62 21 43 14 76 -25 114 -32 32 -78 38 -119 15z"/>
<path d="M5111 4526 c-57 -31 -68 -111 -22 -156 16 -16 40 -32 54 -35 38 -10
92 20 112 62 21 43 14 76 -25 114 -32 32 -78 38 -119 15z"/>
<path d="M5591 4526 c-57 -31 -68 -111 -22 -156 38 -39 71 -46 114 -25 42 20
72 74 62 112 -3 14 -19 38 -35 54 -32 32 -78 38 -119 15z"/>
<path d="M5831 4526 c-57 -31 -68 -111 -22 -156 16 -16 40 -32 54 -35 38 -10
92 20 112 62 21 43 14 76 -25 114 -32 32 -78 38 -119 15z"/>
<path d="M6311 4526 c-57 -31 -68 -111 -22 -156 38 -39 71 -46 114 -25 42 20
72 74 62 112 -3 14 -19 38 -35 54 -32 32 -78 38 -119 15z"/>
<path d="M6791 4526 c-57 -31 -68 -111 -22 -156 38 -39 71 -46 114 -25 42 20
72 74 62 112 -3 14 -19 38 -35 54 -32 32 -78 38 -119 15z"/>
<path d="M8231 4526 c-57 -31 -68 -111 -22 -156 16 -16 40 -32 54 -35 38 -10
92 20 112 62 21 43 14 76 -25 114 -32 32 -78 38 -119 15z"/>
<path d="M8951 4526 c-57 -31 -68 -111 -22 -156 16 -16 40 -32 54 -35 38 -10
92 20 112 62 21 43 14 76 -25 114 -32 32 -78 38 -119 15z"/>
<path d="M9431 4526 c-57 -31 -68 -111 -22 -156 16 -16 40 -32 54 -35 38 -10
92 20 112 62 21 43 14 76 -25 114 -32 32 -78 38 -119 15z"/>
<path d="M1031 4286 c-57 -31 -68 -111 -22 -156 16 -16 40 -32 54 -35 38 -10
92 20 112 62 21 43 14 76 -25 114 -32 32 -78 38 -119 15z"/>
<path d="M1271 4286 c-57 -31 -68 -111 -22 -156 16 -16 40 -32 54 -35 38 -10
92 20 112 62 21 43 14 76 -25 114 -32 32 -78 38 -119 15z"/>
<path d="M1511 4286 c-57 -31 -68 -111 -22 -156 16 -16 40 -32 54 -35 38 -10
92 20 112 62 21 43 14 76 -25 114 -32 32 -78 38 -119 15z"/>
<path d="M1751 4286 c-57 -31 -68 -111 -22 -156 16 -16 40 -32 54 -35 38 -10
92 20 112 62 21 43 14 76 -25 114 -32 32 -78 38 -119 15z"/>
<path d="M2231 4286 c-57 -31 -68 -111 -22 -156 16 -16 40 -32 54 -35 38 -10
92 20 112 62 21 43 14 76 -25 114 -32 32 -78 38 -119 15z"/>
<path d="M2471 4286 c-57 -31 -68 -111 -22 -156 16 -16 40 -32 54 -35 38 -10
92 20 112 62 21 43 14 76 -25 114 -32 32 -78 38 -119 15z"/>
<path d="M2951 4286 c-57 -31 -68 -111 -22 -156 16 -16 40 -32 54 -35 38 -10
92 20 112 62 21 43 14 76 -25 114 -32 32 -78 38 -119 15z"/>
<path d="M3191 4286 c-57 -31 -68 -111 -22 -156 16 -16 40 -32 54 -35 38 -10
92 20 112 62 21 43 14 76 -25 114 -32 32 -78 38 -119 15z"/>
<path d="M3911 4286 c-57 -31 -68 -111 -22 -156 16 -16 40 -32 54 -35 38 -10
92 20 112 62 21 43 14 76 -25 114 -32 32 -78 38 -119 15z"/>
<path d="M4151 4286 c-57 -31 -68 -111 -22 -156 16 -16 40 -32 54 -35 38 -10
92 20 112 62 21 43 14 76 -25 114 -32 32 -78 38 -119 15z"/>
<path d="M4391 4286 c-57 -31 -68 -111 -22 -156 16 -16 40 -32 54 -35 38 -10
92 20 112 62 21 43 14 76 -25 114 -32 32 -78 38 -119 15z"/>
<path d="M5111 4286 c-57 -31 -68 -111 -22 -156 16 -16 40 -32 54 -35 38 -10
92 20 112 62 21 43 14 76 -25 114 -32 32 -78 38 -119 15z"/>
<path d="M5351 4286 c-57 -31 -68 -111 -22 -156 16 -16 40 -32 54 -35 38 -10
92 20 112 62 21 43 14 76 -25 114 -32 32 -78 38 -119 15z"/>
<path d="M5591 4286 c-57 -31 -68 -111 -22 -156 38 -39 71 -46 114 -25 42 20
72 74 62 112 -3 14 -19 38 -35 54 -32 32 -78 38 -119 15z"/>
<path d="M6071 4286 c-57 -31 -68 -111 -22 -156 16 -16 40 -32 54 -35 38 -10
92 20 112 62 21 43 14 76 -25 114 -32 32 -78 38 -119 15z"/>
<path d="M6311 4286 c-57 -31 -68 -111 -22 -156 16 -16 40 -32 54 -35 38 -10
92 20 112 62 21 43 14 76 -25 114 -32 32 -78 38 -119 15z"/>
<path d="M6791 4286 c-57 -31 -68 -111 -22 -156 38 -39 71 -46 114 -25 42 20
72 74 62 112 -3 14 -19 38 -35 54 -32 32 -78 38 -119 15z"/>
<path d="M7751 4286 c-57 -31 -68 -111 -22 -156 16 -16 40 -32 54 -35 38 -10
92 20 112 62 21 43 14 76 -25 114 -32 32 -78 38 -119 15z"/>
<path d="M7991 4286 c-57 -31 -68 -111 -22 -156 16 -16 40 -32 54 -35 38 -10
92 20 112 62 21 43 14 76 -25 114 -32 32 -78 38 -119 15z"/>
<path d="M8471 4286 c-57 -31 -68 -111 -22 -156 16 -16 40 -32 54 -35 38 -10
92 20 112 62 21 43 14 76 -25 114 -32 32 -78 38 -119 15z"/>
<path d="M8711 4286 c-57 -31 -68 -111 -22 -156 16 -16 40 -32 54 -35 38 -10
92 20 112 62 21 43 14 76 -25 114 -32 32 -78 38 -119 15z"/>
<path d="M8951 4286 c-57 -31 -68 -111 -22 -156 16 -16 40 -32 54 -35 38 -10
92 20 112 62 21 43 14 76 -25 114 -32 32 -78 38 -119 15z"/>
<path d="M1271 4046 c-57 -31 -68 -111 -22 -156 38 -39 71 -46 114 -25 42 20
72 74 62 112 -3 14 -19 38 -35 54 -32 32 -78 38 -119 15z"/>
<path d="M1751 4046 c-57 -31 -68 -111 -22 -156 16 -16 40 -32 54 -35 38 -10
92 20 112 62 21 43 14 76 -25 114 -32 32 -78 38 -119 15z"/>
<path d="M2471 4046 c-57 -31 -68 -111 -22 -156 16 -16 40 -32 54 -35 38 -10
92 20 112 62 21 43 14 76 -25 114 -32 32 -78 38 -119 15z"/>
<path d="M2951 4046 c-57 -31 -68 -111 -22 -156 16 -16 40 -32 54 -35 38 -10
92 20 112 62 21 43 14 76 -25 114 -32 32 -78 38 -119 15z"/>
<path d="M3431 4046 c-57 -31 -68 -111 -22 -156 16 -16 40 -32 54 -35 38 -10
92 20 112 62 21 43 14 76 -25 114 -32 32 -78 38 -119 15z"/>
<path d="M3911 4046 c-57 -31 -68 -111 -22 -156 16 -16 40 -32 54 -35 38 -10
92 20 112 62 21 43 14 76 -25 114 -32 32 -78 38 -119 15z"/>
<path d="M5111 4046 c-57 -31 -68 -111 -22 -156 16 -16 40 -32 54 -35 38 -10
92 20 112 62 21 43 14 76 -25 114 -32 32 -78 38 -119 15z"/>
<path d="M5591 4046 c-57 -31 -68 -111 -22 -156 38 -39 71 -46 114 -25 42 20
72 74 62 112 -3 14 -19 38 -35 54 -32 32 -78 38 -119 15z"/>
<path d="M7271 4046 c-57 -31 -68 -111 -22 -156 16 -16 40 -32 54 -35 38 -10
92 20 112 62 21 43 14 76 -25 114 -32 32 -78 38 -119 15z"/>
<path d="M7511 4046 c-57 -31 -68 -111 -22 -156 38 -39 71 -46 114 -25 42 20
72 74 62 112 -3 14 -19 38 -35 54 -32 32 -78 38 -119 15z"/>
<path d="M8711 4046 c-57 -31 -68 -111 -22 -156 16 -16 40 -32 54 -35 38 -10
92 20 112 62 21 43 14 76 -25 114 -32 32 -78 38 -119 15z"/>
<path d="M8951 4046 c-57 -31 -68 -111 -22 -156 16 -16 40 -32 54 -35 38 -10
92 20 112 62 21 43 14 76 -25 114 -32 32 -78 38 -119 15z"/>
<path d="M9191 4046 c-57 -31 -68 -111 -22 -156 16 -16 40 -32 54 -35 38 -10
92 20 112 62 21 43 14 76 -25 114 -32 32 -78 38 -119 15z"/>
<path d="M9431 4046 c-57 -31 -68 -111 -22 -156 16 -16 40 -32 54 -35 38 -10
92 20 112 62 21 43 14 76 -25 114 -32 32 -78 38 -119 15z"/>
<path d="M1511 3806 c-57 -31 -68 -111 -22 -156 16 -16 40 -32 54 -35 38 -10
92 20 112 62 21 43 14 76 -25 114 -32 32 -78 38 -119 15z"/>
<path d="M2231 3806 c-57 -31 -68 -111 -22 -156 16 -16 40 -32 54 -35 38 -10
92 20 112 62 21 43 14 76 -25 114 -32 32 -78 38 -119 15z"/>
<path d="M4151 3806 c-57 -31 -68 -111 -22 -156 16 -16 40 -32 54 -35 38 -10
92 20 112 62 21 43 14 76 -25 114 -32 32 -78 38 -119 15z"/>
<path d="M4391 3806 c-57 -31 -68 -111 -22 -156 16 -16 40 -32 54 -35 38 -10
92 20 112 62 21 43 14 76 -25 114 -32 32 -78 38 -119 15z"/>
<path d="M5831 3806 c-57 -31 -68 -111 -22 -156 16 -16 40 -32 54 -35 38 -10
92 20 112 62 21 43 14 76 -25 114 -32 32 -78 38 -119 15z"/>
<path d="M6551 3806 c-57 -31 -68 -111 -22 -156 16 -16 40 -32 54 -35 38 -10
92 20 112 62 21 43 14 76 -25 114 -32 32 -78 38 -119 15z"/>
<path d="M7031 3806 c-57 -31 -68 -111 -22 -156 16 -16 40 -32 54 -35 38 -10
92 20 112 62 21 43 14 76 -25 114 -32 32 -78 38 -119 15z"/>
<path d="M7751 3806 c-57 -31 -68 -111 -22 -156 16 -16 40 -32 54 -35 38 -10
92 20 112 62 21 43 14 76 -25 114 -32 32 -78 38 -119 15z"/>
<path d="M7991 3806 c-57 -31 -68 -111 -22 -156 16 -16 40 -32 54 -35 38 -10
92 20 112 62 21 43 14 76 -25 114 -32 32 -78 38 -119 15z"/>
<path d="M8471 3806 c-57 -31 -68 -111 -22 -156 16 -16 40 -32 54 -35 38 -10
92 20 112 62 21 43 14 76 -25 114 -32 32 -78 38 -119 15z"/>
<path d="M8951 3806 c-57 -31 -68 -111 -22 -156 16 -16 40 -32 54 -35 38 -10
92 20 112 62 21 43 14 76 -25 114 -32 32 -78 38 -119 15z"/>
<path d="M9191 3806 c-57 -31 -68 -111 -22 -156 16 -16 40 -32 54 -35 38 -10
92 20 112 62 21 43 14 76 -25 114 -32 32 -78 38 -119 15z"/>
<path d="M1031 3566 c-57 -31 -68 -111 -22 -156 38 -39 71 -46 114 -25 42 20
72 74 62 112 -3 14 -19 38 -35 54 -32 32 -78 38 -119 15z"/>
<path d="M1271 3566 c-57 -31 -68 -111 -22 -156 16 -16 40 -32 54 -35 38 -10
92 20 112 62 21 43 14 76 -25 114 -32 32 -78 38 -119 15z"/>
<path d="M1511 3566 c-57 -31 -68 -111 -22 -156 16 -16 40 -32 54 -35 38 -10
92 20 112 62 21 43 14 76 -25 114 -32 32 -78 38 -119 15z"/>
<path d="M1751 3566 c-57 -31 -68 -111 -22 -156 16 -16 40 -32 54 -35 38 -10
92 20 112 62 21 43 14 76 -25 114 -32 32 -78 38 -119 15z"/>
<path d="M2711 3566 c-57 -31 -68 -111 -22 -156 16 -16 40 -32 54 -35 38 -10
92 20 112 62 21 43 14 76 -25 114 -32 32 -78 38 -119 15z"/>
<path d="M3191 3566 c-57 -31 -68 -111 -22 -156 16 -16 40 -32 54 -35 38 -10
92 20 112 62 21 43 14 76 -25 114 -32 32 -78 38 -119 15z"/>
<path d="M3671 3566 c-57 -31 -68 -111 -22 -156 16 -16 40 -32 54 -35 38 -10
92 20 112 62 21 43 14 76 -25 114 -32 32 -78 38 -119 15z"/>
<path d="M4151 3566 c-57 -31 -68 -111 -22 -156 16 -16 40 -32 54 -35 38 -10
92 20 112 62 21 43 14 76 -25 114 -32 32 -78 38 -119 15z"/>
<path d="M4631 3566 c-57 -31 -68 -111 -22 -156 16 -16 40 -32 54 -35 38 -10
92 20 112 62 21 43 14 76 -25 114 -32 32 -78 38 -119 15z"/>
<path d="M4871 3566 c-57 -31 -68 -111 -22 -156 16 -16 40 -32 54 -35 38 -10
92 20 112 62 21 43 14 76 -25 114 -32 32 -78 38 -119 15z"/>
<path d="M5591 3566 c-57 -31 -68 -111 -22 -156 38 -39 71 -46 114 -25 42 20
72 74 62 112 -3 14 -19 38 -35 54 -32 32 -78 38 -119 15z"/>
<path d="M6071 3566 c-57 -31 -68 -111 -22 -156 16 -16 40 -32 54 -35 38 -10
92 20 112 62 21 43 14 76 -25 114 -32 32 -78 38 -119 15z"/>
<path d="M6311 3566 c-57 -31 -68 -111 -22 -156 16 -16 40 -32 54 -35 38 -10
92 20 112 62 21 43 14 76 -25 114 -32 32 -78 38 -119 15z"/>
<path d="M6551 3566 c-57 -31 -68 -111 -22 -156 16 -16 40 -32 54 -35 38 -10
92 20 112 62 21 43 14 76 -25 114 -32 32 -78 38 -119 15z"/>
<path d="M7031 3566 c-57 -31 -68 -111 -22 -156 16 -16 40 -32 54 -35 38 -10
92 20 112 62 21 43 14 76 -25 114 -32 32 -78 38 -119 15z"/>
<path d="M7271 3566 c-57 -31 -68 -111 -22 -156 16 -16 40 -32 54 -35 38 -10
92 20 112 62 21 43 14 76 -25 114 -32 32 -78 38 -119 15z"/>
<path d="M7511 3566 c-57 -31 -68 -111 -22 -156 38 -39 71 -46 114 -25 42 20
72 74 62 112 -3 14 -19 38 -35 54 -32 32 -78 38 -119 15z"/>
<path d="M7991 3566 c-57 -31 -68 -111 -22 -156 16 -16 40 -32 54 -35 38 -10
92 20 112 62 21 43 14 76 -25 114 -32 32 -78 38 -119 15z"/>
<path d="M8471 3566 c-57 -31 -68 -111 -22 -156 16 -16 40 -32 54 -35 38 -10
92 20 112 62 21 43 14 76 -25 114 -32 32 -78 38 -119 15z"/>
<path d="M8711 3566 c-57 -31 -68 -111 -22 -156 16 -16 40 -32 54 -35 38 -10
92 20 112 62 21 43 14 76 -25 114 -32 32 -78 38 -119 15z"/>
<path d="M8951 3566 c-57 -31 -68 -111 -22 -156 16 -16 40 -32 54 -35 38 -10
92 20 112 62 21 43 14 76 -25 114 -32 32 -78 38 -119 15z"/>
<path d="M9191 3566 c-57 -31 -68 -111 -22 -156 16 -16 40 -32 54 -35 38 -10
92 20 112 62 21 43 14 76 -25 114 -32 32 -78 38 -119 15z"/>
<path d="M9431 3566 c-57 -31 -68 -111 -22 -156 16 -16 40 -32 54 -35 38 -10
92 20 112 62 21 43 14 76 -25 114 -32 32 -78 38 -119 15z"/>
<path d="M1031 3326 c-57 -31 -68 -111 -22 -156 38 -39 71 -46 114 -25 42 20
72 74 62 112 -3 14 -19 38 -35 54 -32 32 -78 38 -119 15z"/>
<path d="M2231 3326 c-57 -31 -68 -111 -22 -156 16 -16 40 -32 54 -35 38 -10
92 20 112 62 21 43 14 76 -25 114 -32 32 -78 38 -119 15z"/>
<path d="M4391 3326 c-57 -31 -68 -111 -22 -156 16 -16 40 -32 54 -35 38 -10
92 20 112 62 21 43 14 76 -25 114 -32 32 -78 38 -119 15z"/>
<path d="M5591 3326 c-57 -31 -68 -111 -22 -156 38 -39 71 -46 114 -25 42 20
72 74 62 112 -3 14 -19 38 -35 54 -32 32 -78 38 -119 15z"/>
<path d="M5831 3326 c-57 -31 -68 -111 -22 -156 38 -39 71 -46 114 -25 42 20
72 74 62 112 -3 14 -19 38 -35 54 -32 32 -78 38 -119 15z"/>
<path d="M6311 3326 c-57 -31 -68 -111 -22 -156 38 -39 71 -46 114 -25 42 20
72 74 62 112 -3 14 -19 38 -35 54 -32 32 -78 38 -119 15z"/>
<path d="M7511 3326 c-57 -31 -68 -111 -22 -156 38 -39 71 -46 114 -25 42 20
72 74 62 112 -3 14 -19 38 -35 54 -32 32 -78 38 -119 15z"/>
<path d="M8711 3326 c-57 -31 -68 -111 -22 -156 38 -39 71 -46 114 -25 42 20
72 74 62 112 -3 14 -19 38 -35 54 -32 32 -78 38 -119 15z"/>
<path d="M8951 3326 c-57 -31 -68 -111 -22 -156 16 -16 40 -32 54 -35 38 -10
92 20 112 62 21 43 14 76 -25 114 -32 32 -78 38 -119 15z"/>
<path d="M9191 3326 c-57 -31 -68 -111 -22 -156 16 -16 40 -32 54 -35 38 -10
92 20 112 62 21 43 14 76 -25 114 -32 32 -78 38 -119 15z"/>
<path d="M791 3086 c-57 -31 -68 -111 -22 -156 16 -16 40 -32 54 -35 38 -10
92 20 112 62 21 43 14 76 -25 114 -32 32 -78 38 -119 15z"/>
<path d="M1751 3086 c-57 -31 -68 -111 -22 -156 16 -16 40 -32 54 -35 38 -10
92 20 112 62 21 43 14 76 -25 114 -32 32 -78 38 -119 15z"/>
<path d="M2471 3086 c-57 -31 -68 -111 -22 -156 16 -16 40 -32 54 -35 38 -10
92 20 112 62 21 43 14 76 -25 114 -32 32 -78 38 -119 15z"/>
<path d="M3671 3086 c-57 -31 -68 -111 -22 -156 16 -16 40 -32 54 -35 38 -10
92 20 112 62 21 43 14 76 -25 114 -32 32 -78 38 -119 15z"/>
<path d="M3911 3086 c-57 -31 -68 -111 -22 -156 16 -16 40 -32 54 -35 38 -10
92 20 112 62 21 43 14 76 -25 114 -32 32 -78 38 -119 15z"/>
<path d="M4151 3086 c-57 -31 -68 -111 -22 -156 16 -16 40 -32 54 -35 38 -10
92 20 112 62 21 43 14 76 -25 114 -32 32 -78 38 -119 15z"/>
<path d="M4631 3086 c-57 -31 -68 -111 -22 -156 16 -16 40 -32 54 -35 38 -10
92 20 112 62 21 43 14 76 -25 114 -32 32 -78 38 -119 15z"/>
<path d="M4871 3086 c-57 -31 -68 -111 -22 -156 16 -16 40 -32 54 -35 38 -10
92 20 112 62 21 43 14 76 -25 114 -32 32 -78 38 -119 15z"/>
<path d="M5351 3086 c-57 -31 -68 -111 -22 -156 16 -16 40 -32 54 -35 38 -10
92 20 112 62 21 43 14 76 -25 114 -32 32 -78 38 -119 15z"/>
<path d="M5591 3086 c-57 -31 -68 -111 -22 -156 38 -39 71 -46 114 -25 42 20
72 74 62 112 -3 14 -19 38 -35 54 -32 32 -78 38 -119 15z"/>
<path d="M5831 3086 c-57 -31 -68 -111 -22 -156 16 -16 40 -32 54 -35 38 -10
92 20 112 62 21 43 14 76 -25 114 -32 32 -78 38 -119 15z"/>
<path d="M6311 3086 c-57 -31 -68 -111 -22 -156 16 -16 40 -32 54 -35 38 -10
92 20 112 62 21 43 14 76 -25 114 -32 32 -78 38 -119 15z"/>
<path d="M7031 3086 c-57 -31 -68 -111 -22 -156 16 -16 40 -32 54 -35 38 -10
92 20 112 62 21 43 14 76 -25 114 -32 32 -78 38 -119 15z"/>
<path d="M7271 3086 c-57 -31 -68 -111 -22 -156 16 -16 40 -32 54 -35 38 -10
92 20 112 62 21 43 14 76 -25 114 -32 32 -78 38 -119 15z"/>
<path d="M7511 3086 c-57 -31 -68 -111 -22 -156 38 -39 71 -46 114 -25 42 20
72 74 62 112 -3 14 -19 38 -35 54 -32 32 -78 38 -119 15z"/>
<path d="M7751 3086 c-57 -31 -68 -111 -22 -156 16 -16 40 -32 54 -35 38 -10
92 20 112 62 21 43 14 76 -25 114 -32 32 -78 38 -119 15z"/>
<path d="M8231 3086 c-57 -31 -68 -111 -22 -156 16 -16 40 -32 54 -35 38 -10
92 20 112 62 21 43 14 76 -25 114 -32 32 -78 38 -119 15z"/>
<path d="M8471 3086 c-57 -31 -68 -111 -22 -156 16 -16 40 -32 54 -35 38 -10
92 20 112 62 21 43 14 76 -25 114 -32 32 -78 38 -119 15z"/>
<path d="M9191 3086 c-57 -31 -68 -111 -22 -156 16 -16 40 -32 54 -35 38 -10
92 20 112 62 21 43 14 76 -25 114 -32 32 -78 38 -119 15z"/>
<path d="M9431 3086 c-57 -31 -68 -111 -22 -156 16 -16 40 -32 54 -35 38 -10
92 20 112 62 21 43 14 76 -25 114 -32 32 -78 38 -119 15z"/>
<path d="M2231 2846 c-57 -31 -68 -111 -22 -156 16 -16 40 -32 54 -35 38 -10
92 20 112 62 21 43 14 76 -25 114 -32 32 -78 38 -119 15z"/>
<path d="M3191 2846 c-57 -31 -68 -111 -22 -156 16 -16 40 -32 54 -35 38 -10
92 20 112 62 21 43 14 76 -25 114 -32 32 -78 38 -119 15z"/>
<path d="M4391 2846 c-57 -31 -68 -111 -22 -156 16 -16 40 -32 54 -35 38 -10
92 20 112 62 21 43 14 76 -25 114 -32 32 -78 38 -119 15z"/>
<path d="M5351 2846 c-57 -31 -68 -111 -22 -156 16 -16 40 -32 54 -35 38 -10
92 20 112 62 21 43 14 76 -25 114 -32 32 -78 38 -119 15z"/>
<path d="M5831 2846 c-57 -31 -68 -111 -22 -156 16 -16 40 -32 54 -35 38 -10
92 20 112 62 21 43 14 76 -25 114 -32 32 -78 38 -119 15z"/>
<path d="M6071 2846 c-57 -31 -68 -111 -22 -156 16 -16 40 -32 54 -35 38 -10
92 20 112 62 21 43 14 76 -25 114 -32 32 -78 38 -119 15z"/>
<path d="M6791 2846 c-57 -31 -68 -111 -22 -156 16 -16 40 -32 54 -35 38 -10
92 20 112 62 21 43 14 76 -25 114 -32 32 -78 38 -119 15z"/>
<path d="M7031 2846 c-57 -31 -68 -111 -22 -156 16 -16 40 -32 54 -35 38 -10
92 20 112 62 21 43 14 76 -25 114 -32 32 -78 38 -119 15z"/>
<path d="M7511 2846 c-57 -31 -68 -111 -22 -156 38 -39 71 -46 114 -25 42 20
72 74 62 112 -3 14 -19 38 -35 54 -32 32 -78 38 -119 15z"/>
<path d="M7751 2846 c-57 -31 -68 -111 -22 -156 16 -16 40 -32 54 -35 38 -10
92 20 112 62 21 43 14 76 -25 114 -32 32 -78 38 -119 15z"/>
<path d="M7991 2846 c-57 -31 -68 -111 -22 -156 16 -16 40 -32 54 -35 38 -10
92 20 112 62 21 43 14 76 -25 114 -32 32 -78 38 -119 15z"/>
<path d="M8231 2846 c-57 -31 -68 -111 -22 -156 16 -16 40 -32 54 -35 38 -10
92 20 112 62 21 43 14 76 -25 114 -32 32 -78 38 -119 15z"/>
<path d="M8471 2846 c-57 -31 -68 -111 -22 -156 16 -16 40 -32 54 -35 38 -10
92 20 112 62 21 43 14 76 -25 114 -32 32 -78 38 -119 15z"/>
<path d="M9191 2846 c-57 -31 -68 -111 -22 -156 16 -16 40 -32 54 -35 38 -10
92 20 112 62 21 43 14 76 -25 114 -32 32 -78 38 -119 15z"/>
<path d="M9431 2846 c-57 -31 -68 -111 -22 -156 16 -16 40 -32 54 -35 38 -10
92 20 112 62 21 43 14 76 -25 114 -32 32 -78 38 -119 15z"/>
<path d="M2711 2606 c-57 -31 -68 -111 -22 -156 38 -39 71 -46 114 -25 42 20
72 74 62 112 -3 14 -19 38 -35 54 -32 32 -78 38 -119 15z"/>
<path d="M3671 2606 c-57 -31 -68 -111 -22 -156 38 -39 71 -46 114 -25 42 20
72 74 62 112 -3 14 -19 38 -35 54 -32 32 -78 38 -119 15z"/>
<path d="M4151 2606 c-57 -31 -68 -111 -22 -156 16 -16 40 -32 54 -35 38 -10
92 20 112 62 21 43 14 76 -25 114 -32 32 -78 38 -119 15z"/>
<path d="M4631 2606 c-57 -31 -68 -111 -22 -156 38 -39 71 -46 114 -25 42 20
72 74 62 112 -3 14 -19 38 -35 54 -32 32 -78 38 -119 15z"/>
<path d="M5111 2606 c-57 -31 -68 -111 -22 -156 38 -39 71 -46 114 -25 42 20
72 74 62 112 -3 14 -19 38 -35 54 -32 32 -78 38 -119 15z"/>
<path d="M5351 2606 c-57 -31 -68 -111 -22 -156 38 -39 71 -46 114 -25 42 20
72 74 62 112 -3 14 -19 38 -35 54 -32 32 -78 38 -119 15z"/>
<path d="M5831 2606 c-57 -31 -68 -111 -22 -156 38 -39 71 -46 114 -25 42 20
72 74 62 112 -3 14 -19 38 -35 54 -32 32 -78 38 -119 15z"/>
<path d="M6071 2606 c-57 -31 -68 -111 -22 -156 38 -39 71 -46 114 -25 42 20
72 74 62 112 -3 14 -19 38 -35 54 -32 32 -78 38 -119 15z"/>
<path d="M6311 2606 c-57 -31 -68 -111 -22 -156 38 -39 71 -46 114 -25 42 20
72 74 62 112 -3 14 -19 38 -35 54 -32 32 -78 38 -119 15z"/>
<path d="M7031 2606 c-57 -31 -68 -111 -22 -156 38 -39 71 -46 114 -25 42 20
72 74 62 112 -3 14 -19 38 -35 54 -32 32 -78 38 -119 15z"/>
<path d="M7511 2606 c-57 -31 -68 -111 -22 -156 38 -39 71 -46 114 -25 42 20
72 74 62 112 -3 14 -19 38 -35 54 -32 32 -78 38 -119 15z"/>
<path d="M8471 2606 c-57 -31 -68 -111 -22 -156 38 -39 71 -46 114 -25 42 20
72 74 62 112 -3 14 -19 38 -35 54 -32 32 -78 38 -119 15z"/>
<path d="M8711 2606 c-57 -31 -68 -111 -22 -156 38 -39 71 -46 114 -25 42 20
72 74 62 112 -3 14 -19 38 -35 54 -32 32 -78 38 -119 15z"/>
<path d="M8951 2606 c-57 -31 -68 -111 -22 -156 38 -39 71 -46 114 -25 42 20
72 74 62 112 -3 14 -19 38 -35 54 -32 32 -78 38 -119 15z"/>
<path d="M9191 2606 c-57 -31 -68 -111 -22 -156 38 -39 71 -46 114 -25 42 20
72 74 62 112 -3 14 -19 38 -35 54 -32 32 -78 38 -119 15z"/>
<path d="M9431 2606 c-57 -31 -68 -111 -22 -156 38 -39 71 -46 114 -25 42 20
72 74 62 112 -3 14 -19 38 -35 54 -32 32 -78 38 -119 15z"/>
<path d="M925 2391 c-47 -9 -113 -41 -136 -67 -9 -11 -27 -39 -40 -64 l-24
-45 0 -660 c0 -657 0 -660 22 -700 28 -53 68 -89 128 -117 l50 -23 635 0 c496
0 643 3 672 13 65 23 114 67 144 129 l29 58 0 640 0 640 -23 50 c-28 60 -64
100 -117 128 -40 22 -45 22 -670 23 -346 1 -648 -1 -670 -5z m1111 -264 c43
-22 88 -76 108 -128 15 -39 16 -92 14 -460 l-3 -416 -30 -49 c-19 -30 -49 -60
-79 -79 l-49 -30 -416 -3 c-368 -2 -421 -1 -460 14 -55 21 -107 66 -132 116
-19 37 -20 59 -19 464 0 412 1 427 21 467 28 56 46 75 94 101 38 20 55 21 440
26 421 5 461 3 511 -23z"/>
<path d="M1405 1911 c-47 -9 -113 -41 -136 -67 -9 -11 -27 -39 -40 -64 -23
-42 -24 -55 -24 -225 0 -165 2 -183 22 -220 28 -53 68 -89 128 -117 45 -21 64
-23 205 -23 102 0 168 4 192 13 65 23 114 67 144 129 28 56 29 62 29 218 0
146 -2 164 -23 210 -28 61 -64 100 -117 128 -34 17 -61 21 -190 23 -82 2 -168
-1 -190 -5z"/>
<path d="M7990 2382 c-73 -36 -89 -132 -30 -190 38 -39 83 -47 128 -25 98 49
102 172 7 217 -42 20 -62 20 -105 -2z"/>
<path d="M2711 2366 c-57 -31 -68 -111 -22 -156 38 -39 71 -46 114 -25 42 20
72 74 62 112 -3 14 -19 38 -35 54 -32 32 -78 38 -119 15z"/>
<path d="M2951 2366 c-57 -31 -68 -111 -22 -156 16 -16 40 -32 54 -35 38 -10
92 20 112 62 21 43 14 76 -25 114 -32 32 -78 38 -119 15z"/>
<path d="M3191 2366 c-57 -31 -68 -111 -22 -156 16 -16 40 -32 54 -35 38 -10
92 20 112 62 21 43 14 76 -25 114 -32 32 -78 38 -119 15z"/>
<path d="M3911 2366 c-57 -31 -68 -111 -22 -156 38 -39 71 -46 114 -25 42 20
72 74 62 112 -3 14 -19 38 -35 54 -32 32 -78 38 -119 15z"/>
<path d="M5351 2366 c-57 -31 -68 -111 -22 -156 38 -39 71 -46 114 -25 42 20
72 74 62 112 -3 14 -19 38 -35 54 -32 32 -78 38 -119 15z"/>
<path d="M5591 2366 c-57 -31 -68 -111 -22 -156 38 -39 71 -46 114 -25 42 20
72 74 62 112 -3 14 -19 38 -35 54 -32 32 -78 38 -119 15z"/>
<path d="M6791 2366 c-57 -31 -68 -111 -22 -156 38 -39 71 -46 114 -25 42 20
72 74 62 112 -3 14 -19 38 -35 54 -32 32 -78 38 -119 15z"/>
<path d="M7031 2366 c-57 -31 -68 -111 -22 -156 38 -39 71 -46 114 -25 42 20
72 74 62 112 -3 14 -19 38 -35 54 -32 32 -78 38 -119 15z"/>
<path d="M7511 2366 c-57 -31 -68 -111 -22 -156 38 -39 71 -46 114 -25 42 20
72 74 62 112 -3 14 -19 38 -35 54 -32 32 -78 38 -119 15z"/>
<path d="M8471 2366 c-57 -31 -68 -111 -22 -156 16 -16 40 -32 54 -35 38 -10
92 20 112 62 21 43 14 76 -25 114 -32 32 -78 38 -119 15z"/>
<path d="M8711 2366 c-57 -31 -68 -111 -22 -156 38 -39 71 -46 114 -25 42 20
72 74 62 112 -3 14 -19 38 -35 54 -32 32 -78 38 -119 15z"/>
<path d="M9431 2366 c-57 -31 -68 -111 -22 -156 38 -39 71 -46 114 -25 42 20
72 74 62 112 -3 14 -19 38 -35 54 -32 32 -78 38 -119 15z"/>
<path d="M3191 2126 c-57 -31 -68 -111 -22 -156 16 -16 40 -32 54 -35 38 -10
92 20 112 62 21 43 14 76 -25 114 -32 32 -78 38 -119 15z"/>
<path d="M4631 2126 c-57 -31 -68 -111 -22 -156 38 -39 71 -46 114 -25 42 20
72 74 62 112 -3 14 -19 38 -35 54 -32 32 -78 38 -119 15z"/>
<path d="M5591 2126 c-57 -31 -68 -111 -22 -156 38 -39 71 -46 114 -25 42 20
72 74 62 112 -3 14 -19 38 -35 54 -32 32 -78 38 -119 15z"/>
<path d="M7031 2126 c-57 -31 -68 -111 -22 -156 38 -39 71 -46 114 -25 42 20
72 74 62 112 -3 14 -19 38 -35 54 -32 32 -78 38 -119 15z"/>
<path d="M7271 2126 c-57 -31 -68 -111 -22 -156 38 -39 71 -46 114 -25 42 20
72 74 62 112 -3 14 -19 38 -35 54 -32 32 -78 38 -119 15z"/>
<path d="M7511 2126 c-57 -31 -68 -111 -22 -156 38 -39 71 -46 114 -25 42 20
72 74 62 112 -3 14 -19 38 -35 54 -32 32 -78 38 -119 15z"/>
<path d="M8471 2126 c-57 -31 -68 -111 -22 -156 16 -16 40 -32 54 -35 38 -10
92 20 112 62 21 43 14 76 -25 114 -32 32 -78 38 -119 15z"/>
<path d="M8711 2126 c-57 -31 -68 -111 -22 -156 38 -39 71 -46 114 -25 42 20
72 74 62 112 -3 14 -19 38 -35 54 -32 32 -78 38 -119 15z"/>
<path d="M9431 2126 c-57 -31 -68 -111 -22 -156 38 -39 71 -46 114 -25 42 20
72 74 62 112 -3 14 -19 38 -35 54 -32 32 -78 38 -119 15z"/>
<path d="M2951 1886 c-57 -31 -68 -111 -22 -156 16 -16 40 -32 54 -35 38 -10
92 20 112 62 21 43 14 76 -25 114 -32 32 -78 38 -119 15z"/>
<path d="M3431 1886 c-57 -31 -68 -111 -22 -156 38 -39 71 -46 114 -25 42 20
72 74 62 112 -3 14 -19 38 -35 54 -32 32 -78 38 -119 15z"/>
<path d="M3671 1886 c-57 -31 -68 -111 -22 -156 16 -16 40 -32 54 -35 38 -10
92 20 112 62 21 43 14 76 -25 114 -32 32 -78 38 -119 15z"/>
<path d="M4151 1886 c-57 -31 -68 -111 -22 -156 16 -16 40 -32 54 -35 38 -10
92 20 112 62 21 43 14 76 -25 114 -32 32 -78 38 -119 15z"/>
<path d="M4391 1886 c-57 -31 -68 -111 -22 -156 16 -16 40 -32 54 -35 38 -10
92 20 112 62 21 43 14 76 -25 114 -32 32 -78 38 -119 15z"/>
<path d="M4631 1886 c-57 -31 -68 -111 -22 -156 38 -39 71 -46 114 -25 42 20
72 74 62 112 -3 14 -19 38 -35 54 -32 32 -78 38 -119 15z"/>
<path d="M4871 1886 c-57 -31 -68 -111 -22 -156 38 -39 71 -46 114 -25 42 20
72 74 62 112 -3 14 -19 38 -35 54 -32 32 -78 38 -119 15z"/>
<path d="M5111 1886 c-57 -31 -68 -111 -22 -156 16 -16 40 -32 54 -35 38 -10
92 20 112 62 21 43 14 76 -25 114 -32 32 -78 38 -119 15z"/>
<path d="M5351 1886 c-57 -31 -68 -111 -22 -156 38 -39 71 -46 114 -25 42 20
72 74 62 112 -3 14 -19 38 -35 54 -32 32 -78 38 -119 15z"/>
<path d="M5591 1886 c-57 -31 -68 -111 -22 -156 38 -39 71 -46 114 -25 42 20
72 74 62 112 -3 14 -19 38 -35 54 -32 32 -78 38 -119 15z"/>
<path d="M5831 1886 c-57 -31 -68 -111 -22 -156 16 -16 40 -32 54 -35 38 -10
92 20 112 62 21 43 14 76 -25 114 -32 32 -78 38 -119 15z"/>
<path d="M6551 1886 c-57 -31 -68 -111 -22 -156 38 -39 71 -46 114 -25 42 20
72 74 62 112 -3 14 -19 38 -35 54 -32 32 -78 38 -119 15z"/>
<path d="M7031 1886 c-57 -31 -68 -111 -22 -156 38 -39 71 -46 114 -25 42 20
72 74 62 112 -3 14 -19 38 -35 54 -32 32 -78 38 -119 15z"/>
<path d="M7511 1886 c-57 -31 -68 -111 -22 -156 38 -39 71 -46 114 -25 42 20
72 74 62 112 -3 14 -19 38 -35 54 -32 32 -78 38 -119 15z"/>
<path d="M7751 1886 c-57 -31 -68 -111 -22 -156 38 -39 71 -46 114 -25 42 20
72 74 62 112 -3 14 -19 38 -35 54 -32 32 -78 38 -119 15z"/>
<path d="M7991 1886 c-57 -31 -68 -111 -22 -156 38 -39 71 -46 114 -25 42 20
72 74 62 112 -3 14 -19 38 -35 54 -32 32 -78 38 -119 15z"/>
<path d="M8231 1886 c-57 -31 -68 -111 -22 -156 38 -39 71 -46 114 -25 42 20
72 74 62 112 -3 14 -19 38 -35 54 -32 32 -78 38 -119 15z"/>
<path d="M8471 1886 c-57 -31 -68 -111 -22 -156 16 -16 40 -32 54 -35 38 -10
92 20 112 62 21 43 14 76 -25 114 -32 32 -78 38 -119 15z"/>
<path d="M8711 1886 c-57 -31 -68 -111 -22 -156 38 -39 71 -46 114 -25 42 20
72 74 62 112 -3 14 -19 38 -35 54 -32 32 -78 38 -119 15z"/>
<path d="M9191 1886 c-57 -31 -68 -111 -22 -156 16 -16 40 -32 54 -35 38 -10
92 20 112 62 21 43 14 76 -25 114 -32 32 -78 38 -119 15z"/>
<path d="M2711 1646 c-57 -31 -68 -111 -22 -156 38 -39 71 -46 114 -25 42 20
72 74 62 112 -3 14 -19 38 -35 54 -32 32 -78 38 -119 15z"/>
<path d="M3191 1646 c-57 -31 -68 -111 -22 -156 16 -16 40 -32 54 -35 38 -10
92 20 112 62 21 43 14 76 -25 114 -32 32 -78 38 -119 15z"/>
<path d="M3431 1646 c-57 -31 -68 -111 -22 -156 38 -39 71 -46 114 -25 42 20
72 74 62 112 -3 14 -19 38 -35 54 -32 32 -78 38 -119 15z"/>
<path d="M3671 1646 c-57 -31 -68 -111 -22 -156 16 -16 40 -32 54 -35 38 -10
92 20 112 62 21 43 14 76 -25 114 -32 32 -78 38 -119 15z"/>
<path d="M4391 1646 c-57 -31 -68 -111 -22 -156 16 -16 40 -32 54 -35 38 -10
92 20 112 62 21 43 14 76 -25 114 -32 32 -78 38 -119 15z"/>
<path d="M4631 1646 c-57 -31 -68 -111 -22 -156 38 -39 71 -46 114 -25 42 20
72 74 62 112 -3 14 -19 38 -35 54 -32 32 -78 38 -119 15z"/>
<path d="M5111 1646 c-57 -31 -68 -111 -22 -156 38 -39 71 -46 114 -25 42 20
72 74 62 112 -3 14 -19 38 -35 54 -32 32 -78 38 -119 15z"/>
<path d="M5351 1646 c-57 -31 -68 -111 -22 -156 38 -39 71 -46 114 -25 42 20
72 74 62 112 -3 14 -19 38 -35 54 -32 32 -78 38 -119 15z"/>
<path d="M5831 1646 c-57 -31 -68 -111 -22 -156 16 -16 40 -32 54 -35 38 -10
92 20 112 62 21 43 14 76 -25 114 -32 32 -78 38 -119 15z"/>
<path d="M6071 1646 c-57 -31 -68 -111 -22 -156 38 -39 71 -46 114 -25 42 20
72 74 62 112 -3 14 -19 38 -35 54 -32 32 -78 38 -119 15z"/>
<path d="M6551 1646 c-57 -31 -68 -111 -22 -156 38 -39 71 -46 114 -25 42 20
72 74 62 112 -3 14 -19 38 -35 54 -32 32 -78 38 -119 15z"/>
<path d="M6791 1646 c-57 -31 -68 -111 -22 -156 38 -39 71 -46 114 -25 42 20
72 74 62 112 -3 14 -19 38 -35 54 -32 32 -78 38 -119 15z"/>
<path d="M7991 1646 c-57 -31 -68 -111 -22 -156 38 -39 71 -46 114 -25 42 20
72 74 62 112 -3 14 -19 38 -35 54 -32 32 -78 38 -119 15z"/>
<path d="M8471 1646 c-57 -31 -68 -111 -22 -156 16 -16 40 -32 54 -35 38 -10
92 20 112 62 21 43 14 76 -25 114 -32 32 -78 38 -119 15z"/>
<path d="M8951 1646 c-57 -31 -68 -111 -22 -156 38 -39 71 -46 114 -25 42 20
72 74 62 112 -3 14 -19 38 -35 54 -32 32 -78 38 -119 15z"/>
<path d="M2711 1406 c-57 -31 -68 -111 -22 -156 38 -39 71 -46 114 -25 42 20
72 74 62 112 -3 14 -19 38 -35 54 -32 32 -78 38 -119 15z"/>
<path d="M2951 1406 c-57 -31 -68 -111 -22 -156 16 -16 40 -32 54 -35 38 -10
92 20 112 62 21 43 14 76 -25 114 -32 32 -78 38 -119 15z"/>
<path d="M3431 1406 c-57 -31 -68 -111 -22 -156 38 -39 71 -46 114 -25 42 20
72 74 62 112 -3 14 -19 38 -35 54 -32 32 -78 38 -119 15z"/>
<path d="M4151 1406 c-57 -31 -68 -111 -22 -156 16 -16 40 -32 54 -35 38 -10
92 20 112 62 21 43 14 76 -25 114 -32 32 -78 38 -119 15z"/>
<path d="M5591 1406 c-57 -31 -68 -111 -22 -156 16 -16 40 -32 54 -35 38 -10
92 20 112 62 21 43 14 76 -25 114 -32 32 -78 38 -119 15z"/>
<path d="M6071 1406 c-57 -31 -68 -111 -22 -156 16 -16 40 -32 54 -35 38 -10
92 20 112 62 21 43 14 76 -25 114 -32 32 -78 38 -119 15z"/>
<path d="M6311 1406 c-57 -31 -68 -111 -22 -156 16 -16 40 -32 54 -35 38 -10
92 20 112 62 21 43 14 76 -25 114 -32 32 -78 38 -119 15z"/>
<path d="M6551 1406 c-57 -31 -68 -111 -22 -156 16 -16 40 -32 54 -35 38 -10
92 20 112 62 21 43 14 76 -25 114 -32 32 -78 38 -119 15z"/>
<path d="M6791 1406 c-57 -31 -68 -111 -22 -156 16 -16 40 -32 54 -35 38 -10
92 20 112 62 21 43 14 76 -25 114 -32 32 -78 38 -119 15z"/>
<path d="M7031 1406 c-57 -31 -68 -111 -22 -156 16 -16 40 -32 54 -35 38 -10
92 20 112 62 21 43 14 76 -25 114 -32 32 -78 38 -119 15z"/>
<path d="M7271 1406 c-57 -31 -68 -111 -22 -156 16 -16 40 -32 54 -35 38 -10
92 20 112 62 21 43 14 76 -25 114 -32 32 -78 38 -119 15z"/>
<path d="M7991 1406 c-57 -31 -68 -111 -22 -156 38 -39 71 -46 114 -25 42 20
72 74 62 112 -3 14 -19 38 -35 54 -32 32 -78 38 -119 15z"/>
<path d="M8231 1406 c-57 -31 -68 -111 -22 -156 16 -16 40 -32 54 -35 38 -10
92 20 112 62 21 43 14 76 -25 114 -32 32 -78 38 -119 15z"/>
<path d="M8471 1406 c-57 -31 -68 -111 -22 -156 16 -16 40 -32 54 -35 38 -10
92 20 112 62 21 43 14 76 -25 114 -32 32 -78 38 -119 15z"/>
<path d="M8951 1406 c-57 -31 -68 -111 -22 -156 16 -16 40 -32 54 -35 38 -10
92 20 112 62 21 43 14 76 -25 114 -32 32 -78 38 -119 15z"/>
<path d="M9191 1406 c-57 -31 -68 -111 -22 -156 16 -16 40 -32 54 -35 38 -10
92 20 112 62 21 43 14 76 -25 114 -32 32 -78 38 -119 15z"/>
<path d="M3191 1166 c-57 -31 -68 -111 -22 -156 38 -39 71 -46 114 -25 42 20
72 74 62 112 -3 14 -19 38 -35 54 -32 32 -78 38 -119 15z"/>
<path d="M3431 1166 c-57 -31 -68 -111 -22 -156 16 -16 40 -32 54 -35 38 -10
92 20 112 62 21 43 14 76 -25 114 -32 32 -78 38 -119 15z"/>
<path d="M3671 1166 c-57 -31 -68 -111 -22 -156 16 -16 40 -32 54 -35 38 -10
92 20 112 62 21 43 14 76 -25 114 -32 32 -78 38 -119 15z"/>
<path d="M3911 1166 c-57 -31 -68 -111 -22 -156 16 -16 40 -32 54 -35 38 -10
92 20 112 62 21 43 14 76 -25 114 -32 32 -78 38 -119 15z"/>
<path d="M4391 1166 c-57 -31 -68 -111 -22 -156 16 -16 40 -32 54 -35 38 -10
92 20 112 62 21 43 14 76 -25 114 -32 32 -78 38 -119 15z"/>
<path d="M4631 1166 c-57 -31 -68 -111 -22 -156 16 -16 40 -32 54 -35 38 -10
92 20 112 62 21 43 14 76 -25 114 -32 32 -78 38 -119 15z"/>
<path d="M4871 1166 c-57 -31 -68 -111 -22 -156 16 -16 40 -32 54 -35 38 -10
92 20 112 62 21 43 14 76 -25 114 -32 32 -78 38 -119 15z"/>
<path d="M5351 1166 c-57 -31 -68 -111 -22 -156 38 -39 71 -46 114 -25 42 20
72 74 62 112 -3 14 -19 38 -35 54 -32 32 -78 38 -119 15z"/>
<path d="M5591 1166 c-57 -31 -68 -111 -22 -156 16 -16 40 -32 54 -35 38 -10
92 20 112 62 21 43 14 76 -25 114 -32 32 -78 38 -119 15z"/>
<path d="M5831 1166 c-57 -31 -68 -111 -22 -156 38 -39 71 -46 114 -25 42 20
72 74 62 112 -3 14 -19 38 -35 54 -32 32 -78 38 -119 15z"/>
<path d="M6791 1166 c-57 -31 -68 -111 -22 -156 16 -16 40 -32 54 -35 38 -10
92 20 112 62 21 43 14 76 -25 114 -32 32 -78 38 -119 15z"/>
<path d="M7751 1166 c-57 -31 -68 -111 -22 -156 16 -16 40 -32 54 -35 38 -10
92 20 112 62 21 43 14 76 -25 114 -32 32 -78 38 -119 15z"/>
<path d="M8231 1166 c-57 -31 -68 -111 -22 -156 38 -39 71 -46 114 -25 42 20
72 74 62 112 -3 14 -19 38 -35 54 -32 32 -78 38 -119 15z"/>
<path d="M8471 1166 c-57 -31 -68 -111 -22 -156 38 -39 71 -46 114 -25 42 20
72 74 62 112 -3 14 -19 38 -35 54 -32 32 -78 38 -119 15z"/>
<path d="M8711 1166 c-57 -31 -68 -111 -22 -156 16 -16 40 -32 54 -35 38 -10
92 20 112 62 21 43 14 76 -25 114 -32 32 -78 38 -119 15z"/>
<path d="M8951 1166 c-57 -31 -68 -111 -22 -156 38 -39 71 -46 114 -25 42 20
72 74 62 112 -3 14 -19 38 -35 54 -32 32 -78 38 -119 15z"/>
<path d="M2951 926 c-57 -31 -68 -111 -22 -156 16 -16 40 -32 54 -35 38 -10
92 20 112 62 21 43 14 76 -25 114 -32 32 -78 38 -119 15z"/>
<path d="M3671 926 c-57 -31 -68 -111 -22 -156 16 -16 40 -32 54 -35 38 -10
92 20 112 62 21 43 14 76 -25 114 -32 32 -78 38 -119 15z"/>
<path d="M3911 926 c-57 -31 -68 -111 -22 -156 16 -16 40 -32 54 -35 38 -10
92 20 112 62 21 43 14 76 -25 114 -32 32 -78 38 -119 15z"/>
<path d="M5111 926 c-57 -31 -68 -111 -22 -156 16 -16 40 -32 54 -35 38 -10
92 20 112 62 21 43 14 76 -25 114 -32 32 -78 38 -119 15z"/>
<path d="M6071 926 c-57 -31 -68 -111 -22 -156 16 -16 40 -32 54 -35 38 -10
92 20 112 62 21 43 14 76 -25 114 -32 32 -78 38 -119 15z"/>
<path d="M6791 926 c-57 -31 -68 -111 -22 -156 16 -16 40 -32 54 -35 38 -10
92 20 112 62 21 43 14 76 -25 114 -32 32 -78 38 -119 15z"/>
<path d="M7031 926 c-57 -31 -68 -111 -22 -156 38 -39 71 -46 114 -25 42 20
72 74 62 112 -3 14 -19 38 -35 54 -32 32 -78 38 -119 15z"/>
<path d="M7991 926 c-57 -31 -68 -111 -22 -156 16 -16 40 -32 54 -35 38 -10
92 20 112 62 21 43 14 76 -25 114 -32 32 -78 38 -119 15z"/>
<path d="M8711 926 c-57 -31 -68 -111 -22 -156 16 -16 40 -32 54 -35 38 -10
92 20 112 62 21 43 14 76 -25 114 -32 32 -78 38 -119 15z"/>
<path d="M8951 926 c-57 -31 -68 -111 -22 -156 38 -39 71 -46 114 -25 42 20
72 74 62 112 -3 14 -19 38 -35 54 -32 32 -78 38 -119 15z"/>
<path d="M9191 926 c-57 -31 -68 -111 -22 -156 16 -16 40 -32 54 -35 38 -10
92 20 112 62 21 43 14 76 -25 114 -32 32 -78 38 -119 15z"/>
<path d="M9431 926 c-57 -31 -68 -111 -22 -156 16 -16 40 -32 54 -35 38 -10
92 20 112 62 21 43 14 76 -25 114 -32 32 -78 38 -119 15z"/>
</g>
</g></svg>
