<?xml version="1.0" encoding="utf-8" standalone="no"?>
<!DOCTYPE svg PUBLIC "-//W3C//DTD SVG 1.1//EN"
  "http://www.w3.org/Graphics/SVG/1.1/DTD/svg11.dtd">
<svg xmlns:xlink="http://www.w3.org/1999/xlink" width="816.791625pt" height="816.115406pt" viewBox="0 0 816.791625 816.115406" xmlns="http://www.w3.org/2000/svg" version="1.1">
 <metadata>
  <rdf:RDF xmlns:dc="http://purl.org/dc/elements/1.1/" xmlns:cc="http://creativecommons.org/ns#" xmlns:rdf="http://www.w3.org/1999/02/22-rdf-syntax-ns#">
   <cc:Work>
    <dc:type rdf:resource="http://purl.org/dc/dcmitype/StillImage"/>
    <dc:date>2025-09-25T16:45:34.630754</dc:date>
    <dc:format>image/svg+xml</dc:format>
    <dc:creator>
     <cc:Agent>
      <dc:title>Matplotlib v3.9.3, https://matplotlib.org/</dc:title>
     </cc:Agent>
    </dc:creator>
   </cc:Work>
  </rdf:RDF>
 </metadata>
 <defs>
  <style type="text/css">*{stroke-linejoin: round; stroke-linecap: butt}</style>
 </defs>
 <g id="figure_1">
  <g id="patch_1">
   <path d="M 0 816.115406 
L 816.791625 816.115406 
L 816.791625 0 
L 0 0 
z
" style="fill: #ffffff"/>
  </g>
  <g id="axes_1">
   <g id="patch_2">
    <path d="M 97.769625 739.010906 
L 809.591625 739.010906 
L 809.591625 52.678906 
L 97.769625 52.678906 
z
" style="fill: #ffffff"/>
   </g>
   <g id="matplotlib.axis_1">
    <g id="xtick_1">
     <g id="line2d_1">
      <path d="M 202.026383 739.010906 
L 202.026383 52.678906 
" clip-path="url(#p0e46dbebfa)" style="fill: none; stroke: #cccccc; stroke-width: 2; stroke-linecap: round"/>
     </g>
     <g id="line2d_2">
      <defs>
       <path id="m49c52ef7af" d="M 0 0 
L 0 12 
" style="stroke: #262626; stroke-width: 2.5"/>
      </defs>
      <g>
       <use xlink:href="#m49c52ef7af" x="202.026383" y="739.010906" style="fill: #262626; stroke: #262626; stroke-width: 2.5"/>
      </g>
     </g>
     <g id="text_1">
      <!-- 16 -->
      <g style="fill: #262626" transform="translate(187.345508 773.407531) scale(0.264 -0.264)">
       <defs>
        <path id="Arial-BoldMT-31" d="M 2519 0 
L 1641 0 
L 1641 3309 
Q 1159 2859 506 2644 
L 506 3441 
Q 850 3553 1253 3867 
Q 1656 4181 1806 4600 
L 2519 4600 
L 2519 0 
z
" transform="scale(0.015625)"/>
        <path id="Arial-BoldMT-36" d="M 3247 3459 
L 2397 3366 
Q 2366 3628 2234 3753 
Q 2103 3878 1894 3878 
Q 1616 3878 1423 3628 
Q 1231 3378 1181 2588 
Q 1509 2975 1997 2975 
Q 2547 2975 2939 2556 
Q 3331 2138 3331 1475 
Q 3331 772 2918 347 
Q 2506 -78 1859 -78 
Q 1166 -78 719 461 
Q 272 1000 272 2228 
Q 272 3488 737 4044 
Q 1203 4600 1947 4600 
Q 2469 4600 2811 4308 
Q 3153 4016 3247 3459 
z
M 1256 1544 
Q 1256 1116 1453 883 
Q 1650 650 1903 650 
Q 2147 650 2309 840 
Q 2472 1031 2472 1466 
Q 2472 1913 2297 2120 
Q 2122 2328 1859 2328 
Q 1606 2328 1431 2129 
Q 1256 1931 1256 1544 
z
" transform="scale(0.015625)"/>
       </defs>
       <use xlink:href="#Arial-BoldMT-31"/>
       <use xlink:href="#Arial-BoldMT-36" x="55.615234"/>
      </g>
     </g>
    </g>
    <g id="xtick_2">
     <g id="line2d_3">
      <path d="M 345.828807 739.010906 
L 345.828807 52.678906 
" clip-path="url(#p0e46dbebfa)" style="fill: none; stroke: #cccccc; stroke-width: 2; stroke-linecap: round"/>
     </g>
     <g id="line2d_4">
      <g>
       <use xlink:href="#m49c52ef7af" x="345.828807" y="739.010906" style="fill: #262626; stroke: #262626; stroke-width: 2.5"/>
      </g>
     </g>
     <g id="text_2">
      <!-- 64 -->
      <g style="fill: #262626" transform="translate(331.147932 773.407531) scale(0.264 -0.264)">
       <defs>
        <path id="Arial-BoldMT-34" d="M 1994 0 
L 1994 922 
L 119 922 
L 119 1691 
L 2106 4600 
L 2844 4600 
L 2844 1694 
L 3413 1694 
L 3413 922 
L 2844 922 
L 2844 0 
L 1994 0 
z
M 1994 1694 
L 1994 3259 
L 941 1694 
L 1994 1694 
z
" transform="scale(0.015625)"/>
       </defs>
       <use xlink:href="#Arial-BoldMT-36"/>
       <use xlink:href="#Arial-BoldMT-34" x="55.615234"/>
      </g>
     </g>
    </g>
    <g id="xtick_3">
     <g id="line2d_5">
      <path d="M 489.631231 739.010906 
L 489.631231 52.678906 
" clip-path="url(#p0e46dbebfa)" style="fill: none; stroke: #cccccc; stroke-width: 2; stroke-linecap: round"/>
     </g>
     <g id="line2d_6">
      <g>
       <use xlink:href="#m49c52ef7af" x="489.631231" y="739.010906" style="fill: #262626; stroke: #262626; stroke-width: 2.5"/>
      </g>
     </g>
     <g id="text_3">
      <!-- 256 -->
      <g style="fill: #262626" transform="translate(467.609919 773.407531) scale(0.264 -0.264)">
       <defs>
        <path id="Arial-BoldMT-32" d="M 3238 816 
L 3238 0 
L 159 0 
Q 209 463 459 877 
Q 709 1291 1447 1975 
Q 2041 2528 2175 2725 
Q 2356 2997 2356 3263 
Q 2356 3556 2198 3714 
Q 2041 3872 1763 3872 
Q 1488 3872 1325 3706 
Q 1163 3541 1138 3156 
L 263 3244 
Q 341 3969 753 4284 
Q 1166 4600 1784 4600 
Q 2463 4600 2850 4234 
Q 3238 3869 3238 3325 
Q 3238 3016 3127 2736 
Q 3016 2456 2775 2150 
Q 2616 1947 2200 1565 
Q 1784 1184 1673 1059 
Q 1563 934 1494 816 
L 3238 816 
z
" transform="scale(0.015625)"/>
        <path id="Arial-BoldMT-35" d="M 284 1178 
L 1159 1269 
Q 1197 972 1381 798 
Q 1566 625 1806 625 
Q 2081 625 2272 848 
Q 2463 1072 2463 1522 
Q 2463 1944 2273 2155 
Q 2084 2366 1781 2366 
Q 1403 2366 1103 2031 
L 391 2134 
L 841 4519 
L 3163 4519 
L 3163 3697 
L 1506 3697 
L 1369 2919 
Q 1663 3066 1969 3066 
Q 2553 3066 2959 2641 
Q 3366 2216 3366 1538 
Q 3366 972 3038 528 
Q 2591 -78 1797 -78 
Q 1163 -78 763 262 
Q 363 603 284 1178 
z
" transform="scale(0.015625)"/>
       </defs>
       <use xlink:href="#Arial-BoldMT-32"/>
       <use xlink:href="#Arial-BoldMT-35" x="55.615234"/>
       <use xlink:href="#Arial-BoldMT-36" x="111.230469"/>
      </g>
     </g>
    </g>
    <g id="xtick_4">
     <g id="line2d_7">
      <path d="M 633.433655 739.010906 
L 633.433655 52.678906 
" clip-path="url(#p0e46dbebfa)" style="fill: none; stroke: #cccccc; stroke-width: 2; stroke-linecap: round"/>
     </g>
     <g id="line2d_8">
      <g>
       <use xlink:href="#m49c52ef7af" x="633.433655" y="739.010906" style="fill: #262626; stroke: #262626; stroke-width: 2.5"/>
      </g>
     </g>
     <g id="text_4">
      <!-- 1024 -->
      <g style="fill: #262626" transform="translate(604.071905 773.407531) scale(0.264 -0.264)">
       <defs>
        <path id="Arial-BoldMT-30" d="M 1756 4600 
Q 2422 4600 2797 4125 
Q 3244 3563 3244 2259 
Q 3244 959 2794 391 
Q 2422 -78 1756 -78 
Q 1088 -78 678 436 
Q 269 950 269 2269 
Q 269 3563 719 4131 
Q 1091 4600 1756 4600 
z
M 1756 3872 
Q 1597 3872 1472 3770 
Q 1347 3669 1278 3406 
Q 1188 3066 1188 2259 
Q 1188 1453 1269 1151 
Q 1350 850 1473 750 
Q 1597 650 1756 650 
Q 1916 650 2041 751 
Q 2166 853 2234 1116 
Q 2325 1453 2325 2259 
Q 2325 3066 2244 3367 
Q 2163 3669 2039 3770 
Q 1916 3872 1756 3872 
z
" transform="scale(0.015625)"/>
       </defs>
       <use xlink:href="#Arial-BoldMT-31"/>
       <use xlink:href="#Arial-BoldMT-30" x="55.615234"/>
       <use xlink:href="#Arial-BoldMT-32" x="111.230469"/>
       <use xlink:href="#Arial-BoldMT-34" x="166.845703"/>
      </g>
     </g>
    </g>
    <g id="xtick_5">
     <g id="line2d_9">
      <path d="M 777.23608 739.010906 
L 777.23608 52.678906 
" clip-path="url(#p0e46dbebfa)" style="fill: none; stroke: #cccccc; stroke-width: 2; stroke-linecap: round"/>
     </g>
     <g id="line2d_10">
      <g>
       <use xlink:href="#m49c52ef7af" x="777.23608" y="739.010906" style="fill: #262626; stroke: #262626; stroke-width: 2.5"/>
      </g>
     </g>
     <g id="text_5">
      <!-- 4096 -->
      <g style="fill: #262626" transform="translate(747.87433 773.407531) scale(0.264 -0.264)">
       <defs>
        <path id="Arial-BoldMT-39" d="M 291 1059 
L 1141 1153 
Q 1172 894 1303 769 
Q 1434 644 1650 644 
Q 1922 644 2112 894 
Q 2303 1144 2356 1931 
Q 2025 1547 1528 1547 
Q 988 1547 595 1964 
Q 203 2381 203 3050 
Q 203 3747 617 4173 
Q 1031 4600 1672 4600 
Q 2369 4600 2816 4061 
Q 3263 3522 3263 2288 
Q 3263 1031 2797 475 
Q 2331 -81 1584 -81 
Q 1047 -81 715 205 
Q 384 491 291 1059 
z
M 2278 2978 
Q 2278 3403 2083 3637 
Q 1888 3872 1631 3872 
Q 1388 3872 1227 3680 
Q 1066 3488 1066 3050 
Q 1066 2606 1241 2398 
Q 1416 2191 1678 2191 
Q 1931 2191 2104 2391 
Q 2278 2591 2278 2978 
z
" transform="scale(0.015625)"/>
       </defs>
       <use xlink:href="#Arial-BoldMT-34"/>
       <use xlink:href="#Arial-BoldMT-30" x="55.615234"/>
       <use xlink:href="#Arial-BoldMT-39" x="111.230469"/>
       <use xlink:href="#Arial-BoldMT-36" x="166.845703"/>
      </g>
     </g>
    </g>
    <g id="text_6">
     <!-- Number of GPUs -->
     <g style="fill: #262626" transform="translate(338.469375 803.231906) scale(0.288 -0.288)">
      <defs>
       <path id="Arial-BoldMT-4e" d="M 475 0 
L 475 4581 
L 1375 4581 
L 3250 1522 
L 3250 4581 
L 4109 4581 
L 4109 0 
L 3181 0 
L 1334 2988 
L 1334 0 
L 475 0 
z
" transform="scale(0.015625)"/>
       <path id="Arial-BoldMT-75" d="M 2644 0 
L 2644 497 
Q 2463 231 2167 78 
Q 1872 -75 1544 -75 
Q 1209 -75 943 72 
Q 678 219 559 484 
Q 441 750 441 1219 
L 441 3319 
L 1319 3319 
L 1319 1794 
Q 1319 1094 1367 936 
Q 1416 778 1544 686 
Q 1672 594 1869 594 
Q 2094 594 2272 717 
Q 2450 841 2515 1023 
Q 2581 1206 2581 1919 
L 2581 3319 
L 3459 3319 
L 3459 0 
L 2644 0 
z
" transform="scale(0.015625)"/>
       <path id="Arial-BoldMT-6d" d="M 394 3319 
L 1203 3319 
L 1203 2866 
Q 1638 3394 2238 3394 
Q 2556 3394 2790 3262 
Q 3025 3131 3175 2866 
Q 3394 3131 3647 3262 
Q 3900 3394 4188 3394 
Q 4553 3394 4806 3245 
Q 5059 3097 5184 2809 
Q 5275 2597 5275 2122 
L 5275 0 
L 4397 0 
L 4397 1897 
Q 4397 2391 4306 2534 
Q 4184 2722 3931 2722 
Q 3747 2722 3584 2609 
Q 3422 2497 3350 2280 
Q 3278 2063 3278 1594 
L 3278 0 
L 2400 0 
L 2400 1819 
Q 2400 2303 2353 2443 
Q 2306 2584 2207 2653 
Q 2109 2722 1941 2722 
Q 1738 2722 1575 2612 
Q 1413 2503 1342 2297 
Q 1272 2091 1272 1613 
L 1272 0 
L 394 0 
L 394 3319 
z
" transform="scale(0.015625)"/>
       <path id="Arial-BoldMT-62" d="M 422 0 
L 422 4581 
L 1300 4581 
L 1300 2931 
Q 1706 3394 2263 3394 
Q 2869 3394 3266 2955 
Q 3663 2516 3663 1694 
Q 3663 844 3258 384 
Q 2853 -75 2275 -75 
Q 1991 -75 1714 67 
Q 1438 209 1238 488 
L 1238 0 
L 422 0 
z
M 1294 1731 
Q 1294 1216 1456 969 
Q 1684 619 2063 619 
Q 2353 619 2558 867 
Q 2763 1116 2763 1650 
Q 2763 2219 2556 2470 
Q 2350 2722 2028 2722 
Q 1713 2722 1503 2476 
Q 1294 2231 1294 1731 
z
" transform="scale(0.015625)"/>
       <path id="Arial-BoldMT-65" d="M 2381 1056 
L 3256 909 
Q 3088 428 2723 176 
Q 2359 -75 1813 -75 
Q 947 -75 531 491 
Q 203 944 203 1634 
Q 203 2459 634 2926 
Q 1066 3394 1725 3394 
Q 2466 3394 2894 2905 
Q 3322 2416 3303 1406 
L 1103 1406 
Q 1113 1016 1316 798 
Q 1519 581 1822 581 
Q 2028 581 2168 693 
Q 2309 806 2381 1056 
z
M 2431 1944 
Q 2422 2325 2234 2523 
Q 2047 2722 1778 2722 
Q 1491 2722 1303 2513 
Q 1116 2303 1119 1944 
L 2431 1944 
z
" transform="scale(0.015625)"/>
       <path id="Arial-BoldMT-72" d="M 1300 0 
L 422 0 
L 422 3319 
L 1238 3319 
L 1238 2847 
Q 1447 3181 1614 3287 
Q 1781 3394 1994 3394 
Q 2294 3394 2572 3228 
L 2300 2463 
Q 2078 2606 1888 2606 
Q 1703 2606 1575 2504 
Q 1447 2403 1373 2137 
Q 1300 1872 1300 1025 
L 1300 0 
z
" transform="scale(0.015625)"/>
       <path id="Arial-BoldMT-20" transform="scale(0.015625)"/>
       <path id="Arial-BoldMT-6f" d="M 256 1706 
Q 256 2144 472 2553 
Q 688 2963 1083 3178 
Q 1478 3394 1966 3394 
Q 2719 3394 3200 2905 
Q 3681 2416 3681 1669 
Q 3681 916 3195 420 
Q 2709 -75 1972 -75 
Q 1516 -75 1102 131 
Q 688 338 472 736 
Q 256 1134 256 1706 
z
M 1156 1659 
Q 1156 1166 1390 903 
Q 1625 641 1969 641 
Q 2313 641 2545 903 
Q 2778 1166 2778 1666 
Q 2778 2153 2545 2415 
Q 2313 2678 1969 2678 
Q 1625 2678 1390 2415 
Q 1156 2153 1156 1659 
z
" transform="scale(0.015625)"/>
       <path id="Arial-BoldMT-66" d="M 75 3319 
L 563 3319 
L 563 3569 
Q 563 3988 652 4194 
Q 741 4400 980 4529 
Q 1219 4659 1584 4659 
Q 1959 4659 2319 4547 
L 2200 3934 
Q 1991 3984 1797 3984 
Q 1606 3984 1523 3895 
Q 1441 3806 1441 3553 
L 1441 3319 
L 2097 3319 
L 2097 2628 
L 1441 2628 
L 1441 0 
L 563 0 
L 563 2628 
L 75 2628 
L 75 3319 
z
" transform="scale(0.015625)"/>
       <path id="Arial-BoldMT-47" d="M 2597 1684 
L 2597 2456 
L 4591 2456 
L 4591 631 
Q 4300 350 3748 136 
Q 3197 -78 2631 -78 
Q 1913 -78 1378 223 
Q 844 525 575 1086 
Q 306 1647 306 2306 
Q 306 3022 606 3578 
Q 906 4134 1484 4431 
Q 1925 4659 2581 4659 
Q 3434 4659 3914 4301 
Q 4394 3944 4531 3313 
L 3613 3141 
Q 3516 3478 3248 3673 
Q 2981 3869 2581 3869 
Q 1975 3869 1617 3484 
Q 1259 3100 1259 2344 
Q 1259 1528 1621 1120 
Q 1984 713 2572 713 
Q 2863 713 3155 827 
Q 3447 941 3656 1103 
L 3656 1684 
L 2597 1684 
z
" transform="scale(0.015625)"/>
       <path id="Arial-BoldMT-50" d="M 466 0 
L 466 4581 
L 1950 4581 
Q 2794 4581 3050 4513 
Q 3444 4409 3709 4064 
Q 3975 3719 3975 3172 
Q 3975 2750 3822 2462 
Q 3669 2175 3433 2011 
Q 3197 1847 2953 1794 
Q 2622 1728 1994 1728 
L 1391 1728 
L 1391 0 
L 466 0 
z
M 1391 3806 
L 1391 2506 
L 1897 2506 
Q 2444 2506 2628 2578 
Q 2813 2650 2917 2803 
Q 3022 2956 3022 3159 
Q 3022 3409 2875 3571 
Q 2728 3734 2503 3775 
Q 2338 3806 1838 3806 
L 1391 3806 
z
" transform="scale(0.015625)"/>
       <path id="Arial-BoldMT-55" d="M 459 4581 
L 1384 4581 
L 1384 2100 
Q 1384 1509 1419 1334 
Q 1478 1053 1701 883 
Q 1925 713 2313 713 
Q 2706 713 2906 873 
Q 3106 1034 3147 1268 
Q 3188 1503 3188 2047 
L 3188 4581 
L 4113 4581 
L 4113 2175 
Q 4113 1350 4038 1009 
Q 3963 669 3761 434 
Q 3559 200 3221 61 
Q 2884 -78 2341 -78 
Q 1684 -78 1345 73 
Q 1006 225 809 467 
Q 613 709 550 975 
Q 459 1369 459 2138 
L 459 4581 
z
" transform="scale(0.015625)"/>
       <path id="Arial-BoldMT-73" d="M 150 947 
L 1031 1081 
Q 1088 825 1259 692 
Q 1431 559 1741 559 
Q 2081 559 2253 684 
Q 2369 772 2369 919 
Q 2369 1019 2306 1084 
Q 2241 1147 2013 1200 
Q 950 1434 666 1628 
Q 272 1897 272 2375 
Q 272 2806 612 3100 
Q 953 3394 1669 3394 
Q 2350 3394 2681 3172 
Q 3013 2950 3138 2516 
L 2309 2363 
Q 2256 2556 2107 2659 
Q 1959 2763 1684 2763 
Q 1338 2763 1188 2666 
Q 1088 2597 1088 2488 
Q 1088 2394 1175 2328 
Q 1294 2241 1995 2081 
Q 2697 1922 2975 1691 
Q 3250 1456 3250 1038 
Q 3250 581 2869 253 
Q 2488 -75 1741 -75 
Q 1063 -75 667 200 
Q 272 475 150 947 
z
" transform="scale(0.015625)"/>
      </defs>
      <use xlink:href="#Arial-BoldMT-4e"/>
      <use xlink:href="#Arial-BoldMT-75" x="72.216797"/>
      <use xlink:href="#Arial-BoldMT-6d" x="133.300781"/>
      <use xlink:href="#Arial-BoldMT-62" x="222.216797"/>
      <use xlink:href="#Arial-BoldMT-65" x="283.300781"/>
      <use xlink:href="#Arial-BoldMT-72" x="338.916016"/>
      <use xlink:href="#Arial-BoldMT-20" x="377.832031"/>
      <use xlink:href="#Arial-BoldMT-6f" x="405.615234"/>
      <use xlink:href="#Arial-BoldMT-66" x="466.699219"/>
      <use xlink:href="#Arial-BoldMT-20" x="500"/>
      <use xlink:href="#Arial-BoldMT-47" x="527.783203"/>
      <use xlink:href="#Arial-BoldMT-50" x="605.566406"/>
      <use xlink:href="#Arial-BoldMT-55" x="672.265625"/>
      <use xlink:href="#Arial-BoldMT-73" x="744.482422"/>
     </g>
    </g>
   </g>
   <g id="matplotlib.axis_2">
    <g id="ytick_1">
     <g id="line2d_11">
      <path d="M 97.769625 538.593271 
L 809.591625 538.593271 
" clip-path="url(#p0e46dbebfa)" style="fill: none; stroke: #cccccc; stroke-width: 2; stroke-linecap: round"/>
     </g>
     <g id="line2d_12">
      <defs>
       <path id="mc626132c6d" d="M 0 0 
L -12 0 
" style="stroke: #262626; stroke-width: 2.5"/>
      </defs>
      <g>
       <use xlink:href="#mc626132c6d" x="97.769625" y="538.593271" style="fill: #262626; stroke: #262626; stroke-width: 2.5"/>
      </g>
     </g>
     <g id="text_7">
      <!-- 10 -->
      <g style="fill: #262626" transform="translate(52.907875 548.041584) scale(0.264 -0.264)">
       <use xlink:href="#Arial-BoldMT-31"/>
       <use xlink:href="#Arial-BoldMT-30" x="55.615234"/>
      </g>
     </g>
    </g>
    <g id="ytick_2">
     <g id="line2d_13">
      <path d="M 97.769625 248.844451 
L 809.591625 248.844451 
" clip-path="url(#p0e46dbebfa)" style="fill: none; stroke: #cccccc; stroke-width: 2; stroke-linecap: round"/>
     </g>
     <g id="line2d_14">
      <g>
       <use xlink:href="#mc626132c6d" x="97.769625" y="248.844451" style="fill: #262626; stroke: #262626; stroke-width: 2.5"/>
      </g>
     </g>
     <g id="text_8">
      <!-- 100 -->
      <g style="fill: #262626" transform="translate(38.227 258.292763) scale(0.264 -0.264)">
       <use xlink:href="#Arial-BoldMT-31"/>
       <use xlink:href="#Arial-BoldMT-30" x="55.615234"/>
       <use xlink:href="#Arial-BoldMT-30" x="111.230469"/>
      </g>
     </g>
    </g>
    <g id="ytick_3">
     <g id="line2d_15">
      <defs>
       <path id="m07da53ffec" d="M 0 0 
L -8 0 
" style="stroke: #262626; stroke-width: 2"/>
      </defs>
      <g>
       <use xlink:href="#m07da53ffec" x="97.769625" y="690.096771" style="fill: #262626; stroke: #262626; stroke-width: 2"/>
      </g>
     </g>
    </g>
    <g id="ytick_4">
     <g id="line2d_16">
      <g>
       <use xlink:href="#m07da53ffec" x="97.769625" y="653.89592" style="fill: #262626; stroke: #262626; stroke-width: 2"/>
      </g>
     </g>
    </g>
    <g id="ytick_5">
     <g id="line2d_17">
      <g>
       <use xlink:href="#m07da53ffec" x="97.769625" y="625.816358" style="fill: #262626; stroke: #262626; stroke-width: 2"/>
      </g>
     </g>
    </g>
    <g id="ytick_6">
     <g id="line2d_18">
      <g>
       <use xlink:href="#m07da53ffec" x="97.769625" y="602.873685" style="fill: #262626; stroke: #262626; stroke-width: 2"/>
      </g>
     </g>
    </g>
    <g id="ytick_7">
     <g id="line2d_19">
      <g>
       <use xlink:href="#m07da53ffec" x="97.769625" y="583.475932" style="fill: #262626; stroke: #262626; stroke-width: 2"/>
      </g>
     </g>
    </g>
    <g id="ytick_8">
     <g id="line2d_20">
      <g>
       <use xlink:href="#m07da53ffec" x="97.769625" y="566.672833" style="fill: #262626; stroke: #262626; stroke-width: 2"/>
      </g>
     </g>
    </g>
    <g id="ytick_9">
     <g id="line2d_21">
      <g>
       <use xlink:href="#m07da53ffec" x="97.769625" y="551.85145" style="fill: #262626; stroke: #262626; stroke-width: 2"/>
      </g>
     </g>
    </g>
    <g id="ytick_10">
     <g id="line2d_22">
      <g>
       <use xlink:href="#m07da53ffec" x="97.769625" y="451.370185" style="fill: #262626; stroke: #262626; stroke-width: 2"/>
      </g>
     </g>
    </g>
    <g id="ytick_11">
     <g id="line2d_23">
      <g>
       <use xlink:href="#m07da53ffec" x="97.769625" y="400.34795" style="fill: #262626; stroke: #262626; stroke-width: 2"/>
      </g>
     </g>
    </g>
    <g id="ytick_12">
     <g id="line2d_24">
      <g>
       <use xlink:href="#m07da53ffec" x="97.769625" y="364.147099" style="fill: #262626; stroke: #262626; stroke-width: 2"/>
      </g>
     </g>
    </g>
    <g id="ytick_13">
     <g id="line2d_25">
      <g>
       <use xlink:href="#m07da53ffec" x="97.769625" y="336.067537" style="fill: #262626; stroke: #262626; stroke-width: 2"/>
      </g>
     </g>
    </g>
    <g id="ytick_14">
     <g id="line2d_26">
      <g>
       <use xlink:href="#m07da53ffec" x="97.769625" y="313.124864" style="fill: #262626; stroke: #262626; stroke-width: 2"/>
      </g>
     </g>
    </g>
    <g id="ytick_15">
     <g id="line2d_27">
      <g>
       <use xlink:href="#m07da53ffec" x="97.769625" y="293.727111" style="fill: #262626; stroke: #262626; stroke-width: 2"/>
      </g>
     </g>
    </g>
    <g id="ytick_16">
     <g id="line2d_28">
      <g>
       <use xlink:href="#m07da53ffec" x="97.769625" y="276.924013" style="fill: #262626; stroke: #262626; stroke-width: 2"/>
      </g>
     </g>
    </g>
    <g id="ytick_17">
     <g id="line2d_29">
      <g>
       <use xlink:href="#m07da53ffec" x="97.769625" y="262.102629" style="fill: #262626; stroke: #262626; stroke-width: 2"/>
      </g>
     </g>
    </g>
    <g id="ytick_18">
     <g id="line2d_30">
      <g>
       <use xlink:href="#m07da53ffec" x="97.769625" y="161.621364" style="fill: #262626; stroke: #262626; stroke-width: 2"/>
      </g>
     </g>
    </g>
    <g id="ytick_19">
     <g id="line2d_31">
      <g>
       <use xlink:href="#m07da53ffec" x="97.769625" y="110.59913" style="fill: #262626; stroke: #262626; stroke-width: 2"/>
      </g>
     </g>
    </g>
    <g id="ytick_20">
     <g id="line2d_32">
      <g>
       <use xlink:href="#m07da53ffec" x="97.769625" y="74.398278" style="fill: #262626; stroke: #262626; stroke-width: 2"/>
      </g>
     </g>
    </g>
    <g id="text_9">
     <!-- Time (ms) -->
     <g style="fill: #262626" transform="translate(28.1655 463.603656) rotate(-90) scale(0.288 -0.288)">
      <defs>
       <path id="Arial-BoldMT-54" d="M 1497 0 
L 1497 3806 
L 138 3806 
L 138 4581 
L 3778 4581 
L 3778 3806 
L 2422 3806 
L 2422 0 
L 1497 0 
z
" transform="scale(0.015625)"/>
       <path id="Arial-BoldMT-69" d="M 459 3769 
L 459 4581 
L 1338 4581 
L 1338 3769 
L 459 3769 
z
M 459 0 
L 459 3319 
L 1338 3319 
L 1338 0 
L 459 0 
z
" transform="scale(0.015625)"/>
       <path id="Arial-BoldMT-28" d="M 1916 -1347 
L 1313 -1347 
Q 834 -625 584 153 
Q 334 931 334 1659 
Q 334 2563 644 3369 
Q 913 4069 1325 4659 
L 1925 4659 
Q 1497 3713 1336 3048 
Q 1175 2384 1175 1641 
Q 1175 1128 1270 590 
Q 1366 53 1531 -431 
Q 1641 -750 1916 -1347 
z
" transform="scale(0.015625)"/>
       <path id="Arial-BoldMT-29" d="M 216 -1347 
Q 475 -791 581 -494 
Q 688 -197 778 190 
Q 869 578 912 926 
Q 956 1275 956 1641 
Q 956 2384 797 3048 
Q 638 3713 209 4659 
L 806 4659 
Q 1278 3988 1539 3234 
Q 1800 2481 1800 1706 
Q 1800 1053 1594 306 
Q 1359 -531 822 -1347 
L 216 -1347 
z
" transform="scale(0.015625)"/>
      </defs>
      <use xlink:href="#Arial-BoldMT-54"/>
      <use xlink:href="#Arial-BoldMT-69" x="59.333984"/>
      <use xlink:href="#Arial-BoldMT-6d" x="87.117188"/>
      <use xlink:href="#Arial-BoldMT-65" x="176.033203"/>
      <use xlink:href="#Arial-BoldMT-20" x="231.648438"/>
      <use xlink:href="#Arial-BoldMT-28" x="259.431641"/>
      <use xlink:href="#Arial-BoldMT-6d" x="292.732422"/>
      <use xlink:href="#Arial-BoldMT-73" x="381.648438"/>
      <use xlink:href="#Arial-BoldMT-29" x="437.263672"/>
     </g>
    </g>
   </g>
   <g id="line2d_33">
    <path d="M 130.12517 536.905846 
L 202.026383 533.621588 
L 273.927595 529.914818 
L 345.828807 520.07947 
L 417.730019 516.862346 
L 489.631231 502.272932 
L 561.532443 475.699637 
L 633.433655 324.776117 
L 705.334867 273.879719 
L 777.23608 234.274992 
" clip-path="url(#p0e46dbebfa)" style="fill: none; stroke: #2c95ff; stroke-width: 3; stroke-linecap: round"/>
    <defs>
     <path id="md014451582" d="M 0 6 
C 1.591219 6 3.117479 5.367802 4.242641 4.242641 
C 5.367802 3.117479 6 1.591219 6 0 
C 6 -1.591219 5.367802 -3.117479 4.242641 -4.242641 
C 3.117479 -5.367802 1.591219 -6 0 -6 
C -1.591219 -6 -3.117479 -5.367802 -4.242641 -4.242641 
C -5.367802 -3.117479 -6 -1.591219 -6 0 
C -6 1.591219 -5.367802 3.117479 -4.242641 4.242641 
C -3.117479 5.367802 -1.591219 6 0 6 
z
" style="stroke: #2c95ff"/>
    </defs>
    <g clip-path="url(#p0e46dbebfa)">
     <use xlink:href="#md014451582" x="130.12517" y="536.905846" style="fill: #2c95ff; stroke: #2c95ff"/>
     <use xlink:href="#md014451582" x="202.026383" y="533.621588" style="fill: #2c95ff; stroke: #2c95ff"/>
     <use xlink:href="#md014451582" x="273.927595" y="529.914818" style="fill: #2c95ff; stroke: #2c95ff"/>
     <use xlink:href="#md014451582" x="345.828807" y="520.07947" style="fill: #2c95ff; stroke: #2c95ff"/>
     <use xlink:href="#md014451582" x="417.730019" y="516.862346" style="fill: #2c95ff; stroke: #2c95ff"/>
     <use xlink:href="#md014451582" x="489.631231" y="502.272932" style="fill: #2c95ff; stroke: #2c95ff"/>
     <use xlink:href="#md014451582" x="561.532443" y="475.699637" style="fill: #2c95ff; stroke: #2c95ff"/>
     <use xlink:href="#md014451582" x="633.433655" y="324.776117" style="fill: #2c95ff; stroke: #2c95ff"/>
     <use xlink:href="#md014451582" x="705.334867" y="273.879719" style="fill: #2c95ff; stroke: #2c95ff"/>
     <use xlink:href="#md014451582" x="777.23608" y="234.274992" style="fill: #2c95ff; stroke: #2c95ff"/>
    </g>
   </g>
   <g id="line2d_34">
    <path d="M 130.12517 536.905846 
L 202.026383 533.621588 
L 273.927595 529.914818 
L 345.828807 520.07947 
L 417.730019 516.862346 
L 489.631231 502.272932 
L 561.532443 475.699637 
L 633.433655 308.464032 
L 705.334867 186.894069 
L 777.23608 83.875815 
" clip-path="url(#p0e46dbebfa)" style="fill: none; stroke-dasharray: 11.1,4.8; stroke-dashoffset: 0; stroke: #ff3a66; stroke-width: 3"/>
    <defs>
     <path id="m62440bd6d6" d="M -6 6 
L 6 6 
L 6 -6 
L -6 -6 
z
" style="stroke: #ff3a66; stroke-linejoin: miter"/>
    </defs>
    <g clip-path="url(#p0e46dbebfa)">
     <use xlink:href="#m62440bd6d6" x="130.12517" y="536.905846" style="fill: #ff3a66; stroke: #ff3a66; stroke-linejoin: miter"/>
     <use xlink:href="#m62440bd6d6" x="202.026383" y="533.621588" style="fill: #ff3a66; stroke: #ff3a66; stroke-linejoin: miter"/>
     <use xlink:href="#m62440bd6d6" x="273.927595" y="529.914818" style="fill: #ff3a66; stroke: #ff3a66; stroke-linejoin: miter"/>
     <use xlink:href="#m62440bd6d6" x="345.828807" y="520.07947" style="fill: #ff3a66; stroke: #ff3a66; stroke-linejoin: miter"/>
     <use xlink:href="#m62440bd6d6" x="417.730019" y="516.862346" style="fill: #ff3a66; stroke: #ff3a66; stroke-linejoin: miter"/>
     <use xlink:href="#m62440bd6d6" x="489.631231" y="502.272932" style="fill: #ff3a66; stroke: #ff3a66; stroke-linejoin: miter"/>
     <use xlink:href="#m62440bd6d6" x="561.532443" y="475.699637" style="fill: #ff3a66; stroke: #ff3a66; stroke-linejoin: miter"/>
     <use xlink:href="#m62440bd6d6" x="633.433655" y="308.464032" style="fill: #ff3a66; stroke: #ff3a66; stroke-linejoin: miter"/>
     <use xlink:href="#m62440bd6d6" x="705.334867" y="186.894069" style="fill: #ff3a66; stroke: #ff3a66; stroke-linejoin: miter"/>
     <use xlink:href="#m62440bd6d6" x="777.23608" y="83.875815" style="fill: #ff3a66; stroke: #ff3a66; stroke-linejoin: miter"/>
    </g>
   </g>
   <g id="line2d_35">
    <path d="M 130.12517 707.813997 
L 202.026383 700.498053 
L 273.927595 695.146305 
L 345.828807 673.1679 
L 417.730019 671.528671 
L 489.631231 628.976447 
L 561.532443 577.473397 
L 633.433655 532.585595 
L 705.334867 484.096046 
L 777.23608 444.126907 
" clip-path="url(#p0e46dbebfa)" style="fill: none; stroke: #2c95ff; stroke-width: 3; stroke-linecap: round"/>
    <g clip-path="url(#p0e46dbebfa)">
     <use xlink:href="#md014451582" x="130.12517" y="707.813997" style="fill: #2c95ff; stroke: #2c95ff"/>
     <use xlink:href="#md014451582" x="202.026383" y="700.498053" style="fill: #2c95ff; stroke: #2c95ff"/>
     <use xlink:href="#md014451582" x="273.927595" y="695.146305" style="fill: #2c95ff; stroke: #2c95ff"/>
     <use xlink:href="#md014451582" x="345.828807" y="673.1679" style="fill: #2c95ff; stroke: #2c95ff"/>
     <use xlink:href="#md014451582" x="417.730019" y="671.528671" style="fill: #2c95ff; stroke: #2c95ff"/>
     <use xlink:href="#md014451582" x="489.631231" y="628.976447" style="fill: #2c95ff; stroke: #2c95ff"/>
     <use xlink:href="#md014451582" x="561.532443" y="577.473397" style="fill: #2c95ff; stroke: #2c95ff"/>
     <use xlink:href="#md014451582" x="633.433655" y="532.585595" style="fill: #2c95ff; stroke: #2c95ff"/>
     <use xlink:href="#md014451582" x="705.334867" y="484.096046" style="fill: #2c95ff; stroke: #2c95ff"/>
     <use xlink:href="#md014451582" x="777.23608" y="444.126907" style="fill: #2c95ff; stroke: #2c95ff"/>
    </g>
   </g>
   <g id="line2d_36">
    <path d="M 130.12517 707.813997 
L 202.026383 700.498053 
L 273.927595 695.146305 
L 345.828807 668.136652 
L 417.730019 671.528671 
L 489.631231 611.622924 
L 561.532443 564.799305 
L 633.433655 475.753086 
L 705.334867 417.746884 
L 777.23608 325.630281 
" clip-path="url(#p0e46dbebfa)" style="fill: none; stroke-dasharray: 11.1,4.8; stroke-dashoffset: 0; stroke: #ff3a66; stroke-width: 3"/>
    <g clip-path="url(#p0e46dbebfa)">
     <use xlink:href="#m62440bd6d6" x="130.12517" y="707.813997" style="fill: #ff3a66; stroke: #ff3a66; stroke-linejoin: miter"/>
     <use xlink:href="#m62440bd6d6" x="202.026383" y="700.498053" style="fill: #ff3a66; stroke: #ff3a66; stroke-linejoin: miter"/>
     <use xlink:href="#m62440bd6d6" x="273.927595" y="695.146305" style="fill: #ff3a66; stroke: #ff3a66; stroke-linejoin: miter"/>
     <use xlink:href="#m62440bd6d6" x="345.828807" y="668.136652" style="fill: #ff3a66; stroke: #ff3a66; stroke-linejoin: miter"/>
     <use xlink:href="#m62440bd6d6" x="417.730019" y="671.528671" style="fill: #ff3a66; stroke: #ff3a66; stroke-linejoin: miter"/>
     <use xlink:href="#m62440bd6d6" x="489.631231" y="611.622924" style="fill: #ff3a66; stroke: #ff3a66; stroke-linejoin: miter"/>
     <use xlink:href="#m62440bd6d6" x="561.532443" y="564.799305" style="fill: #ff3a66; stroke: #ff3a66; stroke-linejoin: miter"/>
     <use xlink:href="#m62440bd6d6" x="633.433655" y="475.753086" style="fill: #ff3a66; stroke: #ff3a66; stroke-linejoin: miter"/>
     <use xlink:href="#m62440bd6d6" x="705.334867" y="417.746884" style="fill: #ff3a66; stroke: #ff3a66; stroke-linejoin: miter"/>
     <use xlink:href="#m62440bd6d6" x="777.23608" y="325.630281" style="fill: #ff3a66; stroke: #ff3a66; stroke-linejoin: miter"/>
    </g>
   </g>
   <g id="patch_3">
    <path d="M 97.769625 739.010906 
L 97.769625 52.678906 
" style="fill: none; stroke: #262626; stroke-width: 2.5; stroke-linejoin: miter; stroke-linecap: square"/>
   </g>
   <g id="patch_4">
    <path d="M 809.591625 739.010906 
L 809.591625 52.678906 
" style="fill: none; stroke: #262626; stroke-width: 2.5; stroke-linejoin: miter; stroke-linecap: square"/>
   </g>
   <g id="patch_5">
    <path d="M 97.769625 739.010906 
L 809.591625 739.010906 
" style="fill: none; stroke: #262626; stroke-width: 2.5; stroke-linejoin: miter; stroke-linecap: square"/>
   </g>
   <g id="patch_6">
    <path d="M 97.769625 52.678906 
L 809.591625 52.678906 
" style="fill: none; stroke: #262626; stroke-width: 2.5; stroke-linejoin: miter; stroke-linecap: square"/>
   </g>
   <g id="text_10">
    <!-- Matvec Scaling Performance -->
    <g style="fill: #262626" transform="translate(215.401719 32.678906) scale(0.35 -0.35)">
     <defs>
      <path id="Arial-BoldMT-4d" d="M 453 0 
L 453 4581 
L 1838 4581 
L 2669 1456 
L 3491 4581 
L 4878 4581 
L 4878 0 
L 4019 0 
L 4019 3606 
L 3109 0 
L 2219 0 
L 1313 3606 
L 1313 0 
L 453 0 
z
" transform="scale(0.015625)"/>
      <path id="Arial-BoldMT-61" d="M 1116 2306 
L 319 2450 
Q 453 2931 781 3162 
Q 1109 3394 1756 3394 
Q 2344 3394 2631 3255 
Q 2919 3116 3036 2902 
Q 3153 2688 3153 2116 
L 3144 1091 
Q 3144 653 3186 445 
Q 3228 238 3344 0 
L 2475 0 
Q 2441 88 2391 259 
Q 2369 338 2359 363 
Q 2134 144 1878 34 
Q 1622 -75 1331 -75 
Q 819 -75 523 203 
Q 228 481 228 906 
Q 228 1188 362 1408 
Q 497 1628 739 1745 
Q 981 1863 1438 1950 
Q 2053 2066 2291 2166 
L 2291 2253 
Q 2291 2506 2166 2614 
Q 2041 2722 1694 2722 
Q 1459 2722 1328 2630 
Q 1197 2538 1116 2306 
z
M 2291 1594 
Q 2122 1538 1756 1459 
Q 1391 1381 1278 1306 
Q 1106 1184 1106 997 
Q 1106 813 1243 678 
Q 1381 544 1594 544 
Q 1831 544 2047 700 
Q 2206 819 2256 991 
Q 2291 1103 2291 1419 
L 2291 1594 
z
" transform="scale(0.015625)"/>
      <path id="Arial-BoldMT-74" d="M 1981 3319 
L 1981 2619 
L 1381 2619 
L 1381 1281 
Q 1381 875 1398 808 
Q 1416 741 1477 697 
Q 1538 653 1625 653 
Q 1747 653 1978 738 
L 2053 56 
Q 1747 -75 1359 -75 
Q 1122 -75 931 4 
Q 741 84 652 211 
Q 563 338 528 553 
Q 500 706 500 1172 
L 500 2619 
L 97 2619 
L 97 3319 
L 500 3319 
L 500 3978 
L 1381 4491 
L 1381 3319 
L 1981 3319 
z
" transform="scale(0.015625)"/>
      <path id="Arial-BoldMT-76" d="M 1372 0 
L 34 3319 
L 956 3319 
L 1581 1625 
L 1763 1059 
Q 1834 1275 1853 1344 
Q 1897 1484 1947 1625 
L 2578 3319 
L 3481 3319 
L 2163 0 
L 1372 0 
z
" transform="scale(0.015625)"/>
      <path id="Arial-BoldMT-63" d="M 3353 2338 
L 2488 2181 
Q 2444 2441 2289 2572 
Q 2134 2703 1888 2703 
Q 1559 2703 1364 2476 
Q 1169 2250 1169 1719 
Q 1169 1128 1367 884 
Q 1566 641 1900 641 
Q 2150 641 2309 783 
Q 2469 925 2534 1272 
L 3397 1125 
Q 3263 531 2881 228 
Q 2500 -75 1859 -75 
Q 1131 -75 698 384 
Q 266 844 266 1656 
Q 266 2478 700 2936 
Q 1134 3394 1875 3394 
Q 2481 3394 2839 3133 
Q 3197 2872 3353 2338 
z
" transform="scale(0.015625)"/>
      <path id="Arial-BoldMT-53" d="M 231 1491 
L 1131 1578 
Q 1213 1125 1461 912 
Q 1709 700 2131 700 
Q 2578 700 2804 889 
Q 3031 1078 3031 1331 
Q 3031 1494 2936 1608 
Q 2841 1722 2603 1806 
Q 2441 1863 1863 2006 
Q 1119 2191 819 2459 
Q 397 2838 397 3381 
Q 397 3731 595 4036 
Q 794 4341 1167 4500 
Q 1541 4659 2069 4659 
Q 2931 4659 3367 4281 
Q 3803 3903 3825 3272 
L 2900 3231 
Q 2841 3584 2645 3739 
Q 2450 3894 2059 3894 
Q 1656 3894 1428 3728 
Q 1281 3622 1281 3444 
Q 1281 3281 1419 3166 
Q 1594 3019 2269 2859 
Q 2944 2700 3267 2529 
Q 3591 2359 3773 2064 
Q 3956 1769 3956 1334 
Q 3956 941 3737 597 
Q 3519 253 3119 86 
Q 2719 -81 2122 -81 
Q 1253 -81 787 320 
Q 322 722 231 1491 
z
" transform="scale(0.015625)"/>
      <path id="Arial-BoldMT-6c" d="M 459 0 
L 459 4581 
L 1338 4581 
L 1338 0 
L 459 0 
z
" transform="scale(0.015625)"/>
      <path id="Arial-BoldMT-6e" d="M 3478 0 
L 2600 0 
L 2600 1694 
Q 2600 2231 2544 2389 
Q 2488 2547 2361 2634 
Q 2234 2722 2056 2722 
Q 1828 2722 1647 2597 
Q 1466 2472 1398 2265 
Q 1331 2059 1331 1503 
L 1331 0 
L 453 0 
L 453 3319 
L 1269 3319 
L 1269 2831 
Q 1703 3394 2363 3394 
Q 2653 3394 2893 3289 
Q 3134 3184 3257 3021 
Q 3381 2859 3429 2653 
Q 3478 2447 3478 2063 
L 3478 0 
z
" transform="scale(0.015625)"/>
      <path id="Arial-BoldMT-67" d="M 378 -219 
L 1381 -341 
Q 1406 -516 1497 -581 
Q 1622 -675 1891 -675 
Q 2234 -675 2406 -572 
Q 2522 -503 2581 -350 
Q 2622 -241 2622 53 
L 2622 538 
Q 2228 0 1628 0 
Q 959 0 569 566 
Q 263 1013 263 1678 
Q 263 2513 664 2953 
Q 1066 3394 1663 3394 
Q 2278 3394 2678 2853 
L 2678 3319 
L 3500 3319 
L 3500 341 
Q 3500 -247 3403 -537 
Q 3306 -828 3131 -993 
Q 2956 -1159 2664 -1253 
Q 2372 -1347 1925 -1347 
Q 1081 -1347 728 -1058 
Q 375 -769 375 -325 
Q 375 -281 378 -219 
z
M 1163 1728 
Q 1163 1200 1367 954 
Q 1572 709 1872 709 
Q 2194 709 2416 961 
Q 2638 1213 2638 1706 
Q 2638 2222 2425 2472 
Q 2213 2722 1888 2722 
Q 1572 2722 1367 2476 
Q 1163 2231 1163 1728 
z
" transform="scale(0.015625)"/>
     </defs>
     <use xlink:href="#Arial-BoldMT-4d"/>
     <use xlink:href="#Arial-BoldMT-61" x="83.300781"/>
     <use xlink:href="#Arial-BoldMT-74" x="138.916016"/>
     <use xlink:href="#Arial-BoldMT-76" x="172.216797"/>
     <use xlink:href="#Arial-BoldMT-65" x="227.832031"/>
     <use xlink:href="#Arial-BoldMT-63" x="283.447266"/>
     <use xlink:href="#Arial-BoldMT-20" x="339.0625"/>
     <use xlink:href="#Arial-BoldMT-53" x="366.845703"/>
     <use xlink:href="#Arial-BoldMT-63" x="433.544922"/>
     <use xlink:href="#Arial-BoldMT-61" x="489.160156"/>
     <use xlink:href="#Arial-BoldMT-6c" x="544.775391"/>
     <use xlink:href="#Arial-BoldMT-69" x="572.558594"/>
     <use xlink:href="#Arial-BoldMT-6e" x="600.341797"/>
     <use xlink:href="#Arial-BoldMT-67" x="661.425781"/>
     <use xlink:href="#Arial-BoldMT-20" x="722.509766"/>
     <use xlink:href="#Arial-BoldMT-50" x="750.292969"/>
     <use xlink:href="#Arial-BoldMT-65" x="816.992188"/>
     <use xlink:href="#Arial-BoldMT-72" x="872.607422"/>
     <use xlink:href="#Arial-BoldMT-66" x="911.523438"/>
     <use xlink:href="#Arial-BoldMT-6f" x="944.824219"/>
     <use xlink:href="#Arial-BoldMT-72" x="1005.908203"/>
     <use xlink:href="#Arial-BoldMT-6d" x="1044.824219"/>
     <use xlink:href="#Arial-BoldMT-61" x="1133.740234"/>
     <use xlink:href="#Arial-BoldMT-6e" x="1189.355469"/>
     <use xlink:href="#Arial-BoldMT-63" x="1250.439453"/>
     <use xlink:href="#Arial-BoldMT-65" x="1306.054688"/>
    </g>
   </g>
   <g id="legend_1">
    <g id="patch_7">
     <path d="M 116.249625 149.426656 
L 452.98575 149.426656 
Q 458.26575 149.426656 458.26575 144.146656 
L 458.26575 71.158906 
Q 458.26575 65.878906 452.98575 65.878906 
L 116.249625 65.878906 
Q 110.969625 65.878906 110.969625 71.158906 
L 110.969625 144.146656 
Q 110.969625 149.426656 116.249625 149.426656 
z
" style="fill: #ffffff; opacity: 0.8; stroke: #cccccc; stroke-width: 2; stroke-linejoin: miter"/>
    </g>
    <g id="line2d_37">
     <path d="M 121.529625 86.417281 
L 147.929625 86.417281 
L 174.329625 86.417281 
" style="fill: none; stroke: #2c95ff; stroke-width: 3; stroke-linecap: round"/>
     <g>
      <use xlink:href="#md014451582" x="147.929625" y="86.417281" style="fill: #2c95ff; stroke: #2c95ff"/>
     </g>
    </g>
    <g id="text_11">
     <!-- Optimal Partitioning -->
     <g style="fill: #262626" transform="translate(195.449625 95.657281) scale(0.264 -0.264)">
      <defs>
       <path id="Arial-BoldMT-4f" d="M 278 2263 
Q 278 2963 488 3438 
Q 644 3788 914 4066 
Q 1184 4344 1506 4478 
Q 1934 4659 2494 4659 
Q 3506 4659 4114 4031 
Q 4722 3403 4722 2284 
Q 4722 1175 4119 548 
Q 3516 -78 2506 -78 
Q 1484 -78 881 545 
Q 278 1169 278 2263 
z
M 1231 2294 
Q 1231 1516 1590 1114 
Q 1950 713 2503 713 
Q 3056 713 3411 1111 
Q 3766 1509 3766 2306 
Q 3766 3094 3420 3481 
Q 3075 3869 2503 3869 
Q 1931 3869 1581 3476 
Q 1231 3084 1231 2294 
z
" transform="scale(0.015625)"/>
       <path id="Arial-BoldMT-70" d="M 434 3319 
L 1253 3319 
L 1253 2831 
Q 1413 3081 1684 3237 
Q 1956 3394 2288 3394 
Q 2866 3394 3269 2941 
Q 3672 2488 3672 1678 
Q 3672 847 3265 386 
Q 2859 -75 2281 -75 
Q 2006 -75 1782 34 
Q 1559 144 1313 409 
L 1313 -1263 
L 434 -1263 
L 434 3319 
z
M 1303 1716 
Q 1303 1156 1525 889 
Q 1747 622 2066 622 
Q 2372 622 2575 867 
Q 2778 1113 2778 1672 
Q 2778 2194 2568 2447 
Q 2359 2700 2050 2700 
Q 1728 2700 1515 2451 
Q 1303 2203 1303 1716 
z
" transform="scale(0.015625)"/>
      </defs>
      <use xlink:href="#Arial-BoldMT-4f"/>
      <use xlink:href="#Arial-BoldMT-70" x="77.783203"/>
      <use xlink:href="#Arial-BoldMT-74" x="138.867188"/>
      <use xlink:href="#Arial-BoldMT-69" x="172.167969"/>
      <use xlink:href="#Arial-BoldMT-6d" x="199.951172"/>
      <use xlink:href="#Arial-BoldMT-61" x="288.867188"/>
      <use xlink:href="#Arial-BoldMT-6c" x="344.482422"/>
      <use xlink:href="#Arial-BoldMT-20" x="372.265625"/>
      <use xlink:href="#Arial-BoldMT-50" x="400.048828"/>
      <use xlink:href="#Arial-BoldMT-61" x="466.748047"/>
      <use xlink:href="#Arial-BoldMT-72" x="522.363281"/>
      <use xlink:href="#Arial-BoldMT-74" x="561.279297"/>
      <use xlink:href="#Arial-BoldMT-69" x="594.580078"/>
      <use xlink:href="#Arial-BoldMT-74" x="622.363281"/>
      <use xlink:href="#Arial-BoldMT-69" x="655.664062"/>
      <use xlink:href="#Arial-BoldMT-6f" x="683.447266"/>
      <use xlink:href="#Arial-BoldMT-6e" x="744.53125"/>
      <use xlink:href="#Arial-BoldMT-69" x="805.615234"/>
      <use xlink:href="#Arial-BoldMT-6e" x="833.398438"/>
      <use xlink:href="#Arial-BoldMT-67" x="894.482422"/>
     </g>
    </g>
    <g id="line2d_38">
     <path d="M 121.529625 124.070281 
L 147.929625 124.070281 
L 174.329625 124.070281 
" style="fill: none; stroke-dasharray: 11.1,4.8; stroke-dashoffset: 0; stroke: #ff3a66; stroke-width: 3"/>
     <g>
      <use xlink:href="#m62440bd6d6" x="147.929625" y="124.070281" style="fill: #ff3a66; stroke: #ff3a66; stroke-linejoin: miter"/>
     </g>
    </g>
    <g id="text_12">
     <!-- Naive Partitioning -->
     <g style="fill: #262626" transform="translate(195.449625 133.310281) scale(0.264 -0.264)">
      <use xlink:href="#Arial-BoldMT-4e"/>
      <use xlink:href="#Arial-BoldMT-61" x="72.216797"/>
      <use xlink:href="#Arial-BoldMT-69" x="127.832031"/>
      <use xlink:href="#Arial-BoldMT-76" x="155.615234"/>
      <use xlink:href="#Arial-BoldMT-65" x="211.230469"/>
      <use xlink:href="#Arial-BoldMT-20" x="266.845703"/>
      <use xlink:href="#Arial-BoldMT-50" x="294.628906"/>
      <use xlink:href="#Arial-BoldMT-61" x="361.328125"/>
      <use xlink:href="#Arial-BoldMT-72" x="416.943359"/>
      <use xlink:href="#Arial-BoldMT-74" x="455.859375"/>
      <use xlink:href="#Arial-BoldMT-69" x="489.160156"/>
      <use xlink:href="#Arial-BoldMT-74" x="516.943359"/>
      <use xlink:href="#Arial-BoldMT-69" x="550.244141"/>
      <use xlink:href="#Arial-BoldMT-6f" x="578.027344"/>
      <use xlink:href="#Arial-BoldMT-6e" x="639.111328"/>
      <use xlink:href="#Arial-BoldMT-69" x="700.195312"/>
      <use xlink:href="#Arial-BoldMT-6e" x="727.978516"/>
      <use xlink:href="#Arial-BoldMT-67" x="789.0625"/>
     </g>
    </g>
   </g>
  </g>
 </g>
 <defs>
  <clipPath id="p0e46dbebfa">
   <rect x="97.769625" y="52.678906" width="711.822" height="686.332"/>
  </clipPath>
 </defs>
</svg>
