<?xml version="1.0" encoding="utf-8" standalone="no"?>
<!DOCTYPE svg PUBLIC "-//W3C//DTD SVG 1.1//EN"
  "http://www.w3.org/Graphics/SVG/1.1/DTD/svg11.dtd">
<svg xmlns:xlink="http://www.w3.org/1999/xlink" width="816.60075pt" height="815.255231pt" viewBox="0 0 816.60075 815.255231" xmlns="http://www.w3.org/2000/svg" version="1.1">
 <metadata>
  <rdf:RDF xmlns:dc="http://purl.org/dc/elements/1.1/" xmlns:cc="http://creativecommons.org/ns#" xmlns:rdf="http://www.w3.org/1999/02/22-rdf-syntax-ns#">
   <cc:Work>
    <dc:type rdf:resource="http://purl.org/dc/dcmitype/StillImage"/>
    <dc:date>2025-09-28T11:50:52.043931</dc:date>
    <dc:format>image/svg+xml</dc:format>
    <dc:creator>
     <cc:Agent>
      <dc:title>Matplotlib v3.9.3, https://matplotlib.org/</dc:title>
     </cc:Agent>
    </dc:creator>
   </cc:Work>
  </rdf:RDF>
 </metadata>
 <defs>
  <style type="text/css">*{stroke-linejoin: round; stroke-linecap: butt}</style>
 </defs>
 <g id="figure_1">
  <g id="patch_1">
   <path d="M 0 815.255231 
L 816.60075 815.255231 
L 816.60075 0 
L 0 0 
z
" style="fill: #ffffff"/>
  </g>
  <g id="axes_1">
   <g id="patch_2">
    <path d="M 83.08875 740.562906 
L 809.40075 740.562906 
L 809.40075 52.678906 
L 83.08875 52.678906 
z
" style="fill: #ffffff"/>
   </g>
   <g id="matplotlib.axis_1">
    <g id="xtick_1">
     <g id="line2d_1">
      <path d="M 161.639734 740.562906 
L 161.639734 52.678906 
" clip-path="url(#pb3f686a000)" style="fill: none; stroke: #cccccc; stroke-width: 2; stroke-linecap: round"/>
     </g>
     <g id="line2d_2">
      <defs>
       <path id="m3d9fe62c88" d="M 0 0 
L 0 12 
" style="stroke: #262626; stroke-width: 2.5"/>
      </defs>
      <g>
       <use xlink:href="#m3d9fe62c88" x="161.639734" y="740.562906" style="fill: #262626; stroke: #262626; stroke-width: 2.5"/>
      </g>
     </g>
     <g id="text_1">
      <!-- Intel -->
      <g style="fill: #262626" transform="translate(134.507547 774.959531) scale(0.264 -0.264)">
       <defs>
        <path id="Arial-BoldMT-49" d="M 438 0 
L 438 4581 
L 1363 4581 
L 1363 0 
L 438 0 
z
" transform="scale(0.015625)"/>
        <path id="Arial-BoldMT-6e" d="M 3478 0 
L 2600 0 
L 2600 1694 
Q 2600 2231 2544 2389 
Q 2488 2547 2361 2634 
Q 2234 2722 2056 2722 
Q 1828 2722 1647 2597 
Q 1466 2472 1398 2265 
Q 1331 2059 1331 1503 
L 1331 0 
L 453 0 
L 453 3319 
L 1269 3319 
L 1269 2831 
Q 1703 3394 2363 3394 
Q 2653 3394 2893 3289 
Q 3134 3184 3257 3021 
Q 3381 2859 3429 2653 
Q 3478 2447 3478 2063 
L 3478 0 
z
" transform="scale(0.015625)"/>
        <path id="Arial-BoldMT-74" d="M 1981 3319 
L 1981 2619 
L 1381 2619 
L 1381 1281 
Q 1381 875 1398 808 
Q 1416 741 1477 697 
Q 1538 653 1625 653 
Q 1747 653 1978 738 
L 2053 56 
Q 1747 -75 1359 -75 
Q 1122 -75 931 4 
Q 741 84 652 211 
Q 563 338 528 553 
Q 500 706 500 1172 
L 500 2619 
L 97 2619 
L 97 3319 
L 500 3319 
L 500 3978 
L 1381 4491 
L 1381 3319 
L 1981 3319 
z
" transform="scale(0.015625)"/>
        <path id="Arial-BoldMT-65" d="M 2381 1056 
L 3256 909 
Q 3088 428 2723 176 
Q 2359 -75 1813 -75 
Q 947 -75 531 491 
Q 203 944 203 1634 
Q 203 2459 634 2926 
Q 1066 3394 1725 3394 
Q 2466 3394 2894 2905 
Q 3322 2416 3303 1406 
L 1103 1406 
Q 1113 1016 1316 798 
Q 1519 581 1822 581 
Q 2028 581 2168 693 
Q 2309 806 2381 1056 
z
M 2431 1944 
Q 2422 2325 2234 2523 
Q 2047 2722 1778 2722 
Q 1491 2722 1303 2513 
Q 1116 2303 1119 1944 
L 2431 1944 
z
" transform="scale(0.015625)"/>
        <path id="Arial-BoldMT-6c" d="M 459 0 
L 459 4581 
L 1338 4581 
L 1338 0 
L 459 0 
z
" transform="scale(0.015625)"/>
       </defs>
       <use xlink:href="#Arial-BoldMT-49"/>
       <use xlink:href="#Arial-BoldMT-6e" x="27.783203"/>
       <use xlink:href="#Arial-BoldMT-74" x="88.867188"/>
       <use xlink:href="#Arial-BoldMT-65" x="122.167969"/>
       <use xlink:href="#Arial-BoldMT-6c" x="177.783203"/>
      </g>
      <!-- PVC -->
      <g style="fill: #262626" transform="translate(134.497234 802.845356) scale(0.264 -0.264)">
       <defs>
        <path id="Arial-BoldMT-50" d="M 466 0 
L 466 4581 
L 1950 4581 
Q 2794 4581 3050 4513 
Q 3444 4409 3709 4064 
Q 3975 3719 3975 3172 
Q 3975 2750 3822 2462 
Q 3669 2175 3433 2011 
Q 3197 1847 2953 1794 
Q 2622 1728 1994 1728 
L 1391 1728 
L 1391 0 
L 466 0 
z
M 1391 3806 
L 1391 2506 
L 1897 2506 
Q 2444 2506 2628 2578 
Q 2813 2650 2917 2803 
Q 3022 2956 3022 3159 
Q 3022 3409 2875 3571 
Q 2728 3734 2503 3775 
Q 2338 3806 1838 3806 
L 1391 3806 
z
" transform="scale(0.015625)"/>
        <path id="Arial-BoldMT-56" d="M 1634 0 
L -3 4581 
L 1000 4581 
L 2159 1191 
L 3281 4581 
L 4263 4581 
L 2622 0 
L 1634 0 
z
" transform="scale(0.015625)"/>
        <path id="Arial-BoldMT-43" d="M 3397 1684 
L 4294 1400 
Q 4088 650 3608 286 
Q 3128 -78 2391 -78 
Q 1478 -78 890 545 
Q 303 1169 303 2250 
Q 303 3394 893 4026 
Q 1484 4659 2447 4659 
Q 3288 4659 3813 4163 
Q 4125 3869 4281 3319 
L 3366 3100 
Q 3284 3456 3026 3662 
Q 2769 3869 2400 3869 
Q 1891 3869 1573 3503 
Q 1256 3138 1256 2319 
Q 1256 1450 1568 1081 
Q 1881 713 2381 713 
Q 2750 713 3015 947 
Q 3281 1181 3397 1684 
z
" transform="scale(0.015625)"/>
       </defs>
       <use xlink:href="#Arial-BoldMT-50"/>
       <use xlink:href="#Arial-BoldMT-56" x="66.699219"/>
       <use xlink:href="#Arial-BoldMT-43" x="133.398438"/>
      </g>
     </g>
    </g>
    <g id="xtick_2">
     <g id="line2d_3">
      <path d="M 275.481741 740.562906 
L 275.481741 52.678906 
" clip-path="url(#pb3f686a000)" style="fill: none; stroke: #cccccc; stroke-width: 2; stroke-linecap: round"/>
     </g>
     <g id="line2d_4">
      <g>
       <use xlink:href="#m3d9fe62c88" x="275.481741" y="740.562906" style="fill: #262626; stroke: #262626; stroke-width: 2.5"/>
      </g>
     </g>
     <g id="text_2">
      <!-- NVIDIA -->
      <g style="fill: #262626" transform="translate(230.744053 774.959531) scale(0.264 -0.264)">
       <defs>
        <path id="Arial-BoldMT-4e" d="M 475 0 
L 475 4581 
L 1375 4581 
L 3250 1522 
L 3250 4581 
L 4109 4581 
L 4109 0 
L 3181 0 
L 1334 2988 
L 1334 0 
L 475 0 
z
" transform="scale(0.015625)"/>
        <path id="Arial-BoldMT-44" d="M 463 4581 
L 2153 4581 
Q 2725 4581 3025 4494 
Q 3428 4375 3715 4072 
Q 4003 3769 4153 3330 
Q 4303 2891 4303 2247 
Q 4303 1681 4163 1272 
Q 3991 772 3672 463 
Q 3431 228 3022 97 
Q 2716 0 2203 0 
L 463 0 
L 463 4581 
z
M 1388 3806 
L 1388 772 
L 2078 772 
Q 2466 772 2638 816 
Q 2863 872 3011 1006 
Q 3159 1141 3253 1448 
Q 3347 1756 3347 2288 
Q 3347 2819 3253 3103 
Q 3159 3388 2990 3547 
Q 2822 3706 2563 3763 
Q 2369 3806 1803 3806 
L 1388 3806 
z
" transform="scale(0.015625)"/>
        <path id="Arial-BoldMT-41" d="M 4597 0 
L 3591 0 
L 3191 1041 
L 1359 1041 
L 981 0 
L 0 0 
L 1784 4581 
L 2763 4581 
L 4597 0 
z
M 2894 1813 
L 2263 3513 
L 1644 1813 
L 2894 1813 
z
" transform="scale(0.015625)"/>
       </defs>
       <use xlink:href="#Arial-BoldMT-4e"/>
       <use xlink:href="#Arial-BoldMT-56" x="72.216797"/>
       <use xlink:href="#Arial-BoldMT-49" x="138.916016"/>
       <use xlink:href="#Arial-BoldMT-44" x="166.699219"/>
       <use xlink:href="#Arial-BoldMT-49" x="238.916016"/>
       <use xlink:href="#Arial-BoldMT-41" x="266.699219"/>
      </g>
      <!-- A100 -->
      <g style="fill: #262626" transform="translate(243.927553 802.845356) scale(0.264 -0.264)">
       <defs>
        <path id="Arial-BoldMT-31" d="M 2519 0 
L 1641 0 
L 1641 3309 
Q 1159 2859 506 2644 
L 506 3441 
Q 850 3553 1253 3867 
Q 1656 4181 1806 4600 
L 2519 4600 
L 2519 0 
z
" transform="scale(0.015625)"/>
        <path id="Arial-BoldMT-30" d="M 1756 4600 
Q 2422 4600 2797 4125 
Q 3244 3563 3244 2259 
Q 3244 959 2794 391 
Q 2422 -78 1756 -78 
Q 1088 -78 678 436 
Q 269 950 269 2269 
Q 269 3563 719 4131 
Q 1091 4600 1756 4600 
z
M 1756 3872 
Q 1597 3872 1472 3770 
Q 1347 3669 1278 3406 
Q 1188 3066 1188 2259 
Q 1188 1453 1269 1151 
Q 1350 850 1473 750 
Q 1597 650 1756 650 
Q 1916 650 2041 751 
Q 2166 853 2234 1116 
Q 2325 1453 2325 2259 
Q 2325 3066 2244 3367 
Q 2163 3669 2039 3770 
Q 1916 3872 1756 3872 
z
" transform="scale(0.015625)"/>
       </defs>
       <use xlink:href="#Arial-BoldMT-41"/>
       <use xlink:href="#Arial-BoldMT-31" x="72.216797"/>
       <use xlink:href="#Arial-BoldMT-30" x="127.832031"/>
       <use xlink:href="#Arial-BoldMT-30" x="183.447266"/>
      </g>
     </g>
    </g>
    <g id="xtick_3">
     <g id="line2d_5">
      <path d="M 389.323747 740.562906 
L 389.323747 52.678906 
" clip-path="url(#pb3f686a000)" style="fill: none; stroke: #cccccc; stroke-width: 2; stroke-linecap: round"/>
     </g>
     <g id="line2d_6">
      <g>
       <use xlink:href="#m3d9fe62c88" x="389.323747" y="740.562906" style="fill: #262626; stroke: #262626; stroke-width: 2.5"/>
      </g>
     </g>
     <g id="text_3">
      <!-- NVIDIA -->
      <g style="fill: #262626" transform="translate(344.586059 774.959531) scale(0.264 -0.264)">
       <use xlink:href="#Arial-BoldMT-4e"/>
       <use xlink:href="#Arial-BoldMT-56" x="72.216797"/>
       <use xlink:href="#Arial-BoldMT-49" x="138.916016"/>
       <use xlink:href="#Arial-BoldMT-44" x="166.699219"/>
       <use xlink:href="#Arial-BoldMT-49" x="238.916016"/>
       <use xlink:href="#Arial-BoldMT-41" x="266.699219"/>
      </g>
      <!-- H100 -->
      <g style="fill: #262626" transform="translate(357.769559 802.845356) scale(0.264 -0.264)">
       <defs>
        <path id="Arial-BoldMT-48" d="M 469 0 
L 469 4581 
L 1394 4581 
L 1394 2778 
L 3206 2778 
L 3206 4581 
L 4131 4581 
L 4131 0 
L 3206 0 
L 3206 2003 
L 1394 2003 
L 1394 0 
L 469 0 
z
" transform="scale(0.015625)"/>
       </defs>
       <use xlink:href="#Arial-BoldMT-48"/>
       <use xlink:href="#Arial-BoldMT-31" x="72.216797"/>
       <use xlink:href="#Arial-BoldMT-30" x="127.832031"/>
       <use xlink:href="#Arial-BoldMT-30" x="183.447266"/>
      </g>
     </g>
    </g>
    <g id="xtick_4">
     <g id="line2d_7">
      <path d="M 503.165753 740.562906 
L 503.165753 52.678906 
" clip-path="url(#pb3f686a000)" style="fill: none; stroke: #cccccc; stroke-width: 2; stroke-linecap: round"/>
     </g>
     <g id="line2d_8">
      <g>
       <use xlink:href="#m3d9fe62c88" x="503.165753" y="740.562906" style="fill: #262626; stroke: #262626; stroke-width: 2.5"/>
      </g>
     </g>
     <g id="text_4">
      <!-- NVIDIA -->
      <g style="fill: #262626" transform="translate(458.428066 774.959531) scale(0.264 -0.264)">
       <use xlink:href="#Arial-BoldMT-4e"/>
       <use xlink:href="#Arial-BoldMT-56" x="72.216797"/>
       <use xlink:href="#Arial-BoldMT-49" x="138.916016"/>
       <use xlink:href="#Arial-BoldMT-44" x="166.699219"/>
       <use xlink:href="#Arial-BoldMT-49" x="238.916016"/>
       <use xlink:href="#Arial-BoldMT-41" x="266.699219"/>
      </g>
      <!-- GH200 -->
      <g style="fill: #262626" transform="translate(461.344441 802.845356) scale(0.264 -0.264)">
       <defs>
        <path id="Arial-BoldMT-47" d="M 2597 1684 
L 2597 2456 
L 4591 2456 
L 4591 631 
Q 4300 350 3748 136 
Q 3197 -78 2631 -78 
Q 1913 -78 1378 223 
Q 844 525 575 1086 
Q 306 1647 306 2306 
Q 306 3022 606 3578 
Q 906 4134 1484 4431 
Q 1925 4659 2581 4659 
Q 3434 4659 3914 4301 
Q 4394 3944 4531 3313 
L 3613 3141 
Q 3516 3478 3248 3673 
Q 2981 3869 2581 3869 
Q 1975 3869 1617 3484 
Q 1259 3100 1259 2344 
Q 1259 1528 1621 1120 
Q 1984 713 2572 713 
Q 2863 713 3155 827 
Q 3447 941 3656 1103 
L 3656 1684 
L 2597 1684 
z
" transform="scale(0.015625)"/>
        <path id="Arial-BoldMT-32" d="M 3238 816 
L 3238 0 
L 159 0 
Q 209 463 459 877 
Q 709 1291 1447 1975 
Q 2041 2528 2175 2725 
Q 2356 2997 2356 3263 
Q 2356 3556 2198 3714 
Q 2041 3872 1763 3872 
Q 1488 3872 1325 3706 
Q 1163 3541 1138 3156 
L 263 3244 
Q 341 3969 753 4284 
Q 1166 4600 1784 4600 
Q 2463 4600 2850 4234 
Q 3238 3869 3238 3325 
Q 3238 3016 3127 2736 
Q 3016 2456 2775 2150 
Q 2616 1947 2200 1565 
Q 1784 1184 1673 1059 
Q 1563 934 1494 816 
L 3238 816 
z
" transform="scale(0.015625)"/>
       </defs>
       <use xlink:href="#Arial-BoldMT-47"/>
       <use xlink:href="#Arial-BoldMT-48" x="77.783203"/>
       <use xlink:href="#Arial-BoldMT-32" x="150"/>
       <use xlink:href="#Arial-BoldMT-30" x="205.615234"/>
       <use xlink:href="#Arial-BoldMT-30" x="261.230469"/>
      </g>
     </g>
    </g>
    <g id="xtick_5">
     <g id="line2d_9">
      <path d="M 617.007759 740.562906 
L 617.007759 52.678906 
" clip-path="url(#pb3f686a000)" style="fill: none; stroke: #cccccc; stroke-width: 2; stroke-linecap: round"/>
     </g>
     <g id="line2d_10">
      <g>
       <use xlink:href="#m3d9fe62c88" x="617.007759" y="740.562906" style="fill: #262626; stroke: #262626; stroke-width: 2.5"/>
      </g>
     </g>
     <g id="text_5">
      <!-- AMD -->
      <g style="fill: #262626" transform="translate(586.946822 774.959531) scale(0.264 -0.264)">
       <defs>
        <path id="Arial-BoldMT-4d" d="M 453 0 
L 453 4581 
L 1838 4581 
L 2669 1456 
L 3491 4581 
L 4878 4581 
L 4878 0 
L 4019 0 
L 4019 3606 
L 3109 0 
L 2219 0 
L 1313 3606 
L 1313 0 
L 453 0 
z
" transform="scale(0.015625)"/>
       </defs>
       <use xlink:href="#Arial-BoldMT-41"/>
       <use xlink:href="#Arial-BoldMT-4d" x="72.216797"/>
       <use xlink:href="#Arial-BoldMT-44" x="155.517578"/>
      </g>
      <!-- MI250X -->
      <g style="fill: #262626" transform="translate(571.519322 802.845356) scale(0.264 -0.264)">
       <defs>
        <path id="Arial-BoldMT-35" d="M 284 1178 
L 1159 1269 
Q 1197 972 1381 798 
Q 1566 625 1806 625 
Q 2081 625 2272 848 
Q 2463 1072 2463 1522 
Q 2463 1944 2273 2155 
Q 2084 2366 1781 2366 
Q 1403 2366 1103 2031 
L 391 2134 
L 841 4519 
L 3163 4519 
L 3163 3697 
L 1506 3697 
L 1369 2919 
Q 1663 3066 1969 3066 
Q 2553 3066 2959 2641 
Q 3366 2216 3366 1538 
Q 3366 972 3038 528 
Q 2591 -78 1797 -78 
Q 1163 -78 763 262 
Q 363 603 284 1178 
z
" transform="scale(0.015625)"/>
        <path id="Arial-BoldMT-58" d="M 0 0 
L 1566 2391 
L 147 4581 
L 1228 4581 
L 2147 3109 
L 3047 4581 
L 4119 4581 
L 2694 2356 
L 4259 0 
L 3144 0 
L 2128 1584 
L 1109 0 
L 0 0 
z
" transform="scale(0.015625)"/>
       </defs>
       <use xlink:href="#Arial-BoldMT-4d"/>
       <use xlink:href="#Arial-BoldMT-49" x="83.300781"/>
       <use xlink:href="#Arial-BoldMT-32" x="111.083984"/>
       <use xlink:href="#Arial-BoldMT-35" x="166.699219"/>
       <use xlink:href="#Arial-BoldMT-30" x="222.314453"/>
       <use xlink:href="#Arial-BoldMT-58" x="277.929688"/>
      </g>
     </g>
    </g>
    <g id="xtick_6">
     <g id="line2d_11">
      <path d="M 730.849766 740.562906 
L 730.849766 52.678906 
" clip-path="url(#pb3f686a000)" style="fill: none; stroke: #cccccc; stroke-width: 2; stroke-linecap: round"/>
     </g>
     <g id="line2d_12">
      <g>
       <use xlink:href="#m3d9fe62c88" x="730.849766" y="740.562906" style="fill: #262626; stroke: #262626; stroke-width: 2.5"/>
      </g>
     </g>
     <g id="text_6">
      <!-- AMD -->
      <g style="fill: #262626" transform="translate(700.788828 774.959531) scale(0.264 -0.264)">
       <use xlink:href="#Arial-BoldMT-41"/>
       <use xlink:href="#Arial-BoldMT-4d" x="72.216797"/>
       <use xlink:href="#Arial-BoldMT-44" x="155.517578"/>
      </g>
      <!-- MI300X -->
      <g style="fill: #262626" transform="translate(685.361328 802.845356) scale(0.264 -0.264)">
       <defs>
        <path id="Arial-BoldMT-33" d="M 241 1216 
L 1091 1319 
Q 1131 994 1309 822 
Q 1488 650 1741 650 
Q 2013 650 2198 856 
Q 2384 1063 2384 1413 
Q 2384 1744 2206 1937 
Q 2028 2131 1772 2131 
Q 1603 2131 1369 2066 
L 1466 2781 
Q 1822 2772 2009 2936 
Q 2197 3100 2197 3372 
Q 2197 3603 2059 3740 
Q 1922 3878 1694 3878 
Q 1469 3878 1309 3722 
Q 1150 3566 1116 3266 
L 306 3403 
Q 391 3819 561 4067 
Q 731 4316 1036 4458 
Q 1341 4600 1719 4600 
Q 2366 4600 2756 4188 
Q 3078 3850 3078 3425 
Q 3078 2822 2419 2463 
Q 2813 2378 3048 2084 
Q 3284 1791 3284 1375 
Q 3284 772 2843 347 
Q 2403 -78 1747 -78 
Q 1125 -78 715 280 
Q 306 638 241 1216 
z
" transform="scale(0.015625)"/>
       </defs>
       <use xlink:href="#Arial-BoldMT-4d"/>
       <use xlink:href="#Arial-BoldMT-49" x="83.300781"/>
       <use xlink:href="#Arial-BoldMT-33" x="111.083984"/>
       <use xlink:href="#Arial-BoldMT-30" x="166.699219"/>
       <use xlink:href="#Arial-BoldMT-30" x="222.314453"/>
       <use xlink:href="#Arial-BoldMT-58" x="277.929688"/>
      </g>
     </g>
    </g>
   </g>
   <g id="matplotlib.axis_2">
    <g id="ytick_1">
     <g id="line2d_13">
      <path d="M 83.08875 740.562906 
L 809.40075 740.562906 
" clip-path="url(#pb3f686a000)" style="fill: none; stroke: #cccccc; stroke-width: 2; stroke-linecap: round"/>
     </g>
     <g id="line2d_14">
      <defs>
       <path id="m4542a90e2f" d="M 0 0 
L -12 0 
" style="stroke: #262626; stroke-width: 2.5"/>
      </defs>
      <g>
       <use xlink:href="#m4542a90e2f" x="83.08875" y="740.562906" style="fill: #262626; stroke: #262626; stroke-width: 2.5"/>
      </g>
     </g>
     <g id="text_7">
      <!-- 0 -->
      <g style="fill: #262626" transform="translate(52.907875 750.011219) scale(0.264 -0.264)">
       <use xlink:href="#Arial-BoldMT-30"/>
      </g>
     </g>
    </g>
    <g id="ytick_2">
     <g id="line2d_15">
      <path d="M 83.08875 639.494159 
L 809.40075 639.494159 
" clip-path="url(#pb3f686a000)" style="fill: none; stroke: #cccccc; stroke-width: 2; stroke-linecap: round"/>
     </g>
     <g id="line2d_16">
      <g>
       <use xlink:href="#m4542a90e2f" x="83.08875" y="639.494159" style="fill: #262626; stroke: #262626; stroke-width: 2.5"/>
      </g>
     </g>
     <g id="text_8">
      <!-- 2 -->
      <g style="fill: #262626" transform="translate(52.907875 648.942472) scale(0.264 -0.264)">
       <use xlink:href="#Arial-BoldMT-32"/>
      </g>
     </g>
    </g>
    <g id="ytick_3">
     <g id="line2d_17">
      <path d="M 83.08875 538.425412 
L 809.40075 538.425412 
" clip-path="url(#pb3f686a000)" style="fill: none; stroke: #cccccc; stroke-width: 2; stroke-linecap: round"/>
     </g>
     <g id="line2d_18">
      <g>
       <use xlink:href="#m4542a90e2f" x="83.08875" y="538.425412" style="fill: #262626; stroke: #262626; stroke-width: 2.5"/>
      </g>
     </g>
     <g id="text_9">
      <!-- 4 -->
      <g style="fill: #262626" transform="translate(52.907875 547.873724) scale(0.264 -0.264)">
       <defs>
        <path id="Arial-BoldMT-34" d="M 1994 0 
L 1994 922 
L 119 922 
L 119 1691 
L 2106 4600 
L 2844 4600 
L 2844 1694 
L 3413 1694 
L 3413 922 
L 2844 922 
L 2844 0 
L 1994 0 
z
M 1994 1694 
L 1994 3259 
L 941 1694 
L 1994 1694 
z
" transform="scale(0.015625)"/>
       </defs>
       <use xlink:href="#Arial-BoldMT-34"/>
      </g>
     </g>
    </g>
    <g id="ytick_4">
     <g id="line2d_19">
      <path d="M 83.08875 437.356665 
L 809.40075 437.356665 
" clip-path="url(#pb3f686a000)" style="fill: none; stroke: #cccccc; stroke-width: 2; stroke-linecap: round"/>
     </g>
     <g id="line2d_20">
      <g>
       <use xlink:href="#m4542a90e2f" x="83.08875" y="437.356665" style="fill: #262626; stroke: #262626; stroke-width: 2.5"/>
      </g>
     </g>
     <g id="text_10">
      <!-- 6 -->
      <g style="fill: #262626" transform="translate(52.907875 446.804977) scale(0.264 -0.264)">
       <defs>
        <path id="Arial-BoldMT-36" d="M 3247 3459 
L 2397 3366 
Q 2366 3628 2234 3753 
Q 2103 3878 1894 3878 
Q 1616 3878 1423 3628 
Q 1231 3378 1181 2588 
Q 1509 2975 1997 2975 
Q 2547 2975 2939 2556 
Q 3331 2138 3331 1475 
Q 3331 772 2918 347 
Q 2506 -78 1859 -78 
Q 1166 -78 719 461 
Q 272 1000 272 2228 
Q 272 3488 737 4044 
Q 1203 4600 1947 4600 
Q 2469 4600 2811 4308 
Q 3153 4016 3247 3459 
z
M 1256 1544 
Q 1256 1116 1453 883 
Q 1650 650 1903 650 
Q 2147 650 2309 840 
Q 2472 1031 2472 1466 
Q 2472 1913 2297 2120 
Q 2122 2328 1859 2328 
Q 1606 2328 1431 2129 
Q 1256 1931 1256 1544 
z
" transform="scale(0.015625)"/>
       </defs>
       <use xlink:href="#Arial-BoldMT-36"/>
      </g>
     </g>
    </g>
    <g id="ytick_5">
     <g id="line2d_21">
      <path d="M 83.08875 336.287918 
L 809.40075 336.287918 
" clip-path="url(#pb3f686a000)" style="fill: none; stroke: #cccccc; stroke-width: 2; stroke-linecap: round"/>
     </g>
     <g id="line2d_22">
      <g>
       <use xlink:href="#m4542a90e2f" x="83.08875" y="336.287918" style="fill: #262626; stroke: #262626; stroke-width: 2.5"/>
      </g>
     </g>
     <g id="text_11">
      <!-- 8 -->
      <g style="fill: #262626" transform="translate(52.907875 345.73623) scale(0.264 -0.264)">
       <defs>
        <path id="Arial-BoldMT-38" d="M 1025 2472 
Q 684 2616 529 2867 
Q 375 3119 375 3419 
Q 375 3931 733 4265 
Q 1091 4600 1750 4600 
Q 2403 4600 2764 4265 
Q 3125 3931 3125 3419 
Q 3125 3100 2959 2851 
Q 2794 2603 2494 2472 
Q 2875 2319 3073 2025 
Q 3272 1731 3272 1347 
Q 3272 713 2867 316 
Q 2463 -81 1791 -81 
Q 1166 -81 750 247 
Q 259 634 259 1309 
Q 259 1681 443 1992 
Q 628 2303 1025 2472 
z
M 1206 3356 
Q 1206 3094 1354 2947 
Q 1503 2800 1750 2800 
Q 2000 2800 2150 2948 
Q 2300 3097 2300 3359 
Q 2300 3606 2151 3754 
Q 2003 3903 1759 3903 
Q 1506 3903 1356 3753 
Q 1206 3603 1206 3356 
z
M 1125 1394 
Q 1125 1031 1311 828 
Q 1497 625 1775 625 
Q 2047 625 2225 820 
Q 2403 1016 2403 1384 
Q 2403 1706 2222 1901 
Q 2041 2097 1763 2097 
Q 1441 2097 1283 1875 
Q 1125 1653 1125 1394 
z
" transform="scale(0.015625)"/>
       </defs>
       <use xlink:href="#Arial-BoldMT-38"/>
      </g>
     </g>
    </g>
    <g id="ytick_6">
     <g id="line2d_23">
      <path d="M 83.08875 235.21917 
L 809.40075 235.21917 
" clip-path="url(#pb3f686a000)" style="fill: none; stroke: #cccccc; stroke-width: 2; stroke-linecap: round"/>
     </g>
     <g id="line2d_24">
      <g>
       <use xlink:href="#m4542a90e2f" x="83.08875" y="235.21917" style="fill: #262626; stroke: #262626; stroke-width: 2.5"/>
      </g>
     </g>
     <g id="text_12">
      <!-- 10 -->
      <g style="fill: #262626" transform="translate(38.227 244.667483) scale(0.264 -0.264)">
       <use xlink:href="#Arial-BoldMT-31"/>
       <use xlink:href="#Arial-BoldMT-30" x="55.615234"/>
      </g>
     </g>
    </g>
    <g id="ytick_7">
     <g id="line2d_25">
      <path d="M 83.08875 134.150423 
L 809.40075 134.150423 
" clip-path="url(#pb3f686a000)" style="fill: none; stroke: #cccccc; stroke-width: 2; stroke-linecap: round"/>
     </g>
     <g id="line2d_26">
      <g>
       <use xlink:href="#m4542a90e2f" x="83.08875" y="134.150423" style="fill: #262626; stroke: #262626; stroke-width: 2.5"/>
      </g>
     </g>
     <g id="text_13">
      <!-- 12 -->
      <g style="fill: #262626" transform="translate(38.227 143.598736) scale(0.264 -0.264)">
       <use xlink:href="#Arial-BoldMT-31"/>
       <use xlink:href="#Arial-BoldMT-32" x="55.615234"/>
      </g>
     </g>
    </g>
    <g id="ytick_8">
     <g id="line2d_27">
      <defs>
       <path id="mbcb4c5c618" d="M 0 0 
L -8 0 
" style="stroke: #262626; stroke-width: 2"/>
      </defs>
      <g>
       <use xlink:href="#mbcb4c5c618" x="83.08875" y="715.295719" style="fill: #262626; stroke: #262626; stroke-width: 2"/>
      </g>
     </g>
    </g>
    <g id="ytick_9">
     <g id="line2d_28">
      <g>
       <use xlink:href="#mbcb4c5c618" x="83.08875" y="690.028533" style="fill: #262626; stroke: #262626; stroke-width: 2"/>
      </g>
     </g>
    </g>
    <g id="ytick_10">
     <g id="line2d_29">
      <g>
       <use xlink:href="#mbcb4c5c618" x="83.08875" y="664.761346" style="fill: #262626; stroke: #262626; stroke-width: 2"/>
      </g>
     </g>
    </g>
    <g id="ytick_11">
     <g id="line2d_30">
      <g>
       <use xlink:href="#mbcb4c5c618" x="83.08875" y="614.226972" style="fill: #262626; stroke: #262626; stroke-width: 2"/>
      </g>
     </g>
    </g>
    <g id="ytick_12">
     <g id="line2d_31">
      <g>
       <use xlink:href="#mbcb4c5c618" x="83.08875" y="588.959786" style="fill: #262626; stroke: #262626; stroke-width: 2"/>
      </g>
     </g>
    </g>
    <g id="ytick_13">
     <g id="line2d_32">
      <g>
       <use xlink:href="#mbcb4c5c618" x="83.08875" y="563.692599" style="fill: #262626; stroke: #262626; stroke-width: 2"/>
      </g>
     </g>
    </g>
    <g id="ytick_14">
     <g id="line2d_33">
      <g>
       <use xlink:href="#mbcb4c5c618" x="83.08875" y="513.158225" style="fill: #262626; stroke: #262626; stroke-width: 2"/>
      </g>
     </g>
    </g>
    <g id="ytick_15">
     <g id="line2d_34">
      <g>
       <use xlink:href="#mbcb4c5c618" x="83.08875" y="487.891038" style="fill: #262626; stroke: #262626; stroke-width: 2"/>
      </g>
     </g>
    </g>
    <g id="ytick_16">
     <g id="line2d_35">
      <g>
       <use xlink:href="#mbcb4c5c618" x="83.08875" y="462.623852" style="fill: #262626; stroke: #262626; stroke-width: 2"/>
      </g>
     </g>
    </g>
    <g id="ytick_17">
     <g id="line2d_36">
      <g>
       <use xlink:href="#mbcb4c5c618" x="83.08875" y="412.089478" style="fill: #262626; stroke: #262626; stroke-width: 2"/>
      </g>
     </g>
    </g>
    <g id="ytick_18">
     <g id="line2d_37">
      <g>
       <use xlink:href="#mbcb4c5c618" x="83.08875" y="386.822291" style="fill: #262626; stroke: #262626; stroke-width: 2"/>
      </g>
     </g>
    </g>
    <g id="ytick_19">
     <g id="line2d_38">
      <g>
       <use xlink:href="#mbcb4c5c618" x="83.08875" y="361.555104" style="fill: #262626; stroke: #262626; stroke-width: 2"/>
      </g>
     </g>
    </g>
    <g id="ytick_20">
     <g id="line2d_39">
      <g>
       <use xlink:href="#mbcb4c5c618" x="83.08875" y="311.020731" style="fill: #262626; stroke: #262626; stroke-width: 2"/>
      </g>
     </g>
    </g>
    <g id="ytick_21">
     <g id="line2d_40">
      <g>
       <use xlink:href="#mbcb4c5c618" x="83.08875" y="285.753544" style="fill: #262626; stroke: #262626; stroke-width: 2"/>
      </g>
     </g>
    </g>
    <g id="ytick_22">
     <g id="line2d_41">
      <g>
       <use xlink:href="#mbcb4c5c618" x="83.08875" y="260.486357" style="fill: #262626; stroke: #262626; stroke-width: 2"/>
      </g>
     </g>
    </g>
    <g id="ytick_23">
     <g id="line2d_42">
      <g>
       <use xlink:href="#mbcb4c5c618" x="83.08875" y="209.951984" style="fill: #262626; stroke: #262626; stroke-width: 2"/>
      </g>
     </g>
    </g>
    <g id="ytick_24">
     <g id="line2d_43">
      <g>
       <use xlink:href="#mbcb4c5c618" x="83.08875" y="184.684797" style="fill: #262626; stroke: #262626; stroke-width: 2"/>
      </g>
     </g>
    </g>
    <g id="ytick_25">
     <g id="line2d_44">
      <g>
       <use xlink:href="#mbcb4c5c618" x="83.08875" y="159.41761" style="fill: #262626; stroke: #262626; stroke-width: 2"/>
      </g>
     </g>
    </g>
    <g id="ytick_26">
     <g id="line2d_45">
      <g>
       <use xlink:href="#mbcb4c5c618" x="83.08875" y="108.883237" style="fill: #262626; stroke: #262626; stroke-width: 2"/>
      </g>
     </g>
    </g>
    <g id="ytick_27">
     <g id="line2d_46">
      <g>
       <use xlink:href="#mbcb4c5c618" x="83.08875" y="83.61605" style="fill: #262626; stroke: #262626; stroke-width: 2"/>
      </g>
     </g>
    </g>
    <g id="ytick_28">
     <g id="line2d_47">
      <g>
       <use xlink:href="#mbcb4c5c618" x="83.08875" y="58.348863" style="fill: #262626; stroke: #262626; stroke-width: 2"/>
      </g>
     </g>
    </g>
    <g id="text_14">
     <!-- Time (ms) -->
     <g style="fill: #262626" transform="translate(28.1655 464.379656) rotate(-90) scale(0.288 -0.288)">
      <defs>
       <path id="Arial-BoldMT-54" d="M 1497 0 
L 1497 3806 
L 138 3806 
L 138 4581 
L 3778 4581 
L 3778 3806 
L 2422 3806 
L 2422 0 
L 1497 0 
z
" transform="scale(0.015625)"/>
       <path id="Arial-BoldMT-69" d="M 459 3769 
L 459 4581 
L 1338 4581 
L 1338 3769 
L 459 3769 
z
M 459 0 
L 459 3319 
L 1338 3319 
L 1338 0 
L 459 0 
z
" transform="scale(0.015625)"/>
       <path id="Arial-BoldMT-6d" d="M 394 3319 
L 1203 3319 
L 1203 2866 
Q 1638 3394 2238 3394 
Q 2556 3394 2790 3262 
Q 3025 3131 3175 2866 
Q 3394 3131 3647 3262 
Q 3900 3394 4188 3394 
Q 4553 3394 4806 3245 
Q 5059 3097 5184 2809 
Q 5275 2597 5275 2122 
L 5275 0 
L 4397 0 
L 4397 1897 
Q 4397 2391 4306 2534 
Q 4184 2722 3931 2722 
Q 3747 2722 3584 2609 
Q 3422 2497 3350 2280 
Q 3278 2063 3278 1594 
L 3278 0 
L 2400 0 
L 2400 1819 
Q 2400 2303 2353 2443 
Q 2306 2584 2207 2653 
Q 2109 2722 1941 2722 
Q 1738 2722 1575 2612 
Q 1413 2503 1342 2297 
Q 1272 2091 1272 1613 
L 1272 0 
L 394 0 
L 394 3319 
z
" transform="scale(0.015625)"/>
       <path id="Arial-BoldMT-20" transform="scale(0.015625)"/>
       <path id="Arial-BoldMT-28" d="M 1916 -1347 
L 1313 -1347 
Q 834 -625 584 153 
Q 334 931 334 1659 
Q 334 2563 644 3369 
Q 913 4069 1325 4659 
L 1925 4659 
Q 1497 3713 1336 3048 
Q 1175 2384 1175 1641 
Q 1175 1128 1270 590 
Q 1366 53 1531 -431 
Q 1641 -750 1916 -1347 
z
" transform="scale(0.015625)"/>
       <path id="Arial-BoldMT-73" d="M 150 947 
L 1031 1081 
Q 1088 825 1259 692 
Q 1431 559 1741 559 
Q 2081 559 2253 684 
Q 2369 772 2369 919 
Q 2369 1019 2306 1084 
Q 2241 1147 2013 1200 
Q 950 1434 666 1628 
Q 272 1897 272 2375 
Q 272 2806 612 3100 
Q 953 3394 1669 3394 
Q 2350 3394 2681 3172 
Q 3013 2950 3138 2516 
L 2309 2363 
Q 2256 2556 2107 2659 
Q 1959 2763 1684 2763 
Q 1338 2763 1188 2666 
Q 1088 2597 1088 2488 
Q 1088 2394 1175 2328 
Q 1294 2241 1995 2081 
Q 2697 1922 2975 1691 
Q 3250 1456 3250 1038 
Q 3250 581 2869 253 
Q 2488 -75 1741 -75 
Q 1063 -75 667 200 
Q 272 475 150 947 
z
" transform="scale(0.015625)"/>
       <path id="Arial-BoldMT-29" d="M 216 -1347 
Q 475 -791 581 -494 
Q 688 -197 778 190 
Q 869 578 912 926 
Q 956 1275 956 1641 
Q 956 2384 797 3048 
Q 638 3713 209 4659 
L 806 4659 
Q 1278 3988 1539 3234 
Q 1800 2481 1800 1706 
Q 1800 1053 1594 306 
Q 1359 -531 822 -1347 
L 216 -1347 
z
" transform="scale(0.015625)"/>
      </defs>
      <use xlink:href="#Arial-BoldMT-54"/>
      <use xlink:href="#Arial-BoldMT-69" x="59.333984"/>
      <use xlink:href="#Arial-BoldMT-6d" x="87.117188"/>
      <use xlink:href="#Arial-BoldMT-65" x="176.033203"/>
      <use xlink:href="#Arial-BoldMT-20" x="231.648438"/>
      <use xlink:href="#Arial-BoldMT-28" x="259.431641"/>
      <use xlink:href="#Arial-BoldMT-6d" x="292.732422"/>
      <use xlink:href="#Arial-BoldMT-73" x="381.648438"/>
      <use xlink:href="#Arial-BoldMT-29" x="437.263672"/>
     </g>
    </g>
   </g>
   <g id="patch_3">
    <path d="M 83.08875 740.562906 
L 83.08875 52.678906 
" style="fill: none; stroke: #262626; stroke-width: 2.5; stroke-linejoin: miter; stroke-linecap: square"/>
   </g>
   <g id="patch_4">
    <path d="M 809.40075 740.562906 
L 809.40075 52.678906 
" style="fill: none; stroke: #262626; stroke-width: 2.5; stroke-linejoin: miter; stroke-linecap: square"/>
   </g>
   <g id="patch_5">
    <path d="M 83.08875 740.562906 
L 809.40075 740.562906 
" style="fill: none; stroke: #262626; stroke-width: 2.5; stroke-linejoin: miter; stroke-linecap: square"/>
   </g>
   <g id="patch_6">
    <path d="M 83.08875 52.678906 
L 809.40075 52.678906 
" style="fill: none; stroke: #262626; stroke-width: 2.5; stroke-linejoin: miter; stroke-linecap: square"/>
   </g>
   <g id="text_15">
    <!-- Single-GPU Mixed-Precision Performance -->
    <g style="fill: #262626" transform="translate(99.080297 32.678906) scale(0.35 -0.35)">
     <defs>
      <path id="Arial-BoldMT-53" d="M 231 1491 
L 1131 1578 
Q 1213 1125 1461 912 
Q 1709 700 2131 700 
Q 2578 700 2804 889 
Q 3031 1078 3031 1331 
Q 3031 1494 2936 1608 
Q 2841 1722 2603 1806 
Q 2441 1863 1863 2006 
Q 1119 2191 819 2459 
Q 397 2838 397 3381 
Q 397 3731 595 4036 
Q 794 4341 1167 4500 
Q 1541 4659 2069 4659 
Q 2931 4659 3367 4281 
Q 3803 3903 3825 3272 
L 2900 3231 
Q 2841 3584 2645 3739 
Q 2450 3894 2059 3894 
Q 1656 3894 1428 3728 
Q 1281 3622 1281 3444 
Q 1281 3281 1419 3166 
Q 1594 3019 2269 2859 
Q 2944 2700 3267 2529 
Q 3591 2359 3773 2064 
Q 3956 1769 3956 1334 
Q 3956 941 3737 597 
Q 3519 253 3119 86 
Q 2719 -81 2122 -81 
Q 1253 -81 787 320 
Q 322 722 231 1491 
z
" transform="scale(0.015625)"/>
      <path id="Arial-BoldMT-67" d="M 378 -219 
L 1381 -341 
Q 1406 -516 1497 -581 
Q 1622 -675 1891 -675 
Q 2234 -675 2406 -572 
Q 2522 -503 2581 -350 
Q 2622 -241 2622 53 
L 2622 538 
Q 2228 0 1628 0 
Q 959 0 569 566 
Q 263 1013 263 1678 
Q 263 2513 664 2953 
Q 1066 3394 1663 3394 
Q 2278 3394 2678 2853 
L 2678 3319 
L 3500 3319 
L 3500 341 
Q 3500 -247 3403 -537 
Q 3306 -828 3131 -993 
Q 2956 -1159 2664 -1253 
Q 2372 -1347 1925 -1347 
Q 1081 -1347 728 -1058 
Q 375 -769 375 -325 
Q 375 -281 378 -219 
z
M 1163 1728 
Q 1163 1200 1367 954 
Q 1572 709 1872 709 
Q 2194 709 2416 961 
Q 2638 1213 2638 1706 
Q 2638 2222 2425 2472 
Q 2213 2722 1888 2722 
Q 1572 2722 1367 2476 
Q 1163 2231 1163 1728 
z
" transform="scale(0.015625)"/>
      <path id="Arial-BoldMT-2d" d="M 359 1222 
L 359 2100 
L 2084 2100 
L 2084 1222 
L 359 1222 
z
" transform="scale(0.015625)"/>
      <path id="Arial-BoldMT-55" d="M 459 4581 
L 1384 4581 
L 1384 2100 
Q 1384 1509 1419 1334 
Q 1478 1053 1701 883 
Q 1925 713 2313 713 
Q 2706 713 2906 873 
Q 3106 1034 3147 1268 
Q 3188 1503 3188 2047 
L 3188 4581 
L 4113 4581 
L 4113 2175 
Q 4113 1350 4038 1009 
Q 3963 669 3761 434 
Q 3559 200 3221 61 
Q 2884 -78 2341 -78 
Q 1684 -78 1345 73 
Q 1006 225 809 467 
Q 613 709 550 975 
Q 459 1369 459 2138 
L 459 4581 
z
" transform="scale(0.015625)"/>
      <path id="Arial-BoldMT-78" d="M 38 0 
L 1234 1709 
L 88 3319 
L 1159 3319 
L 1747 2406 
L 2366 3319 
L 3397 3319 
L 2272 1747 
L 3500 0 
L 2422 0 
L 1747 1028 
L 1066 0 
L 38 0 
z
" transform="scale(0.015625)"/>
      <path id="Arial-BoldMT-64" d="M 3503 0 
L 2688 0 
L 2688 488 
Q 2484 203 2207 64 
Q 1931 -75 1650 -75 
Q 1078 -75 670 386 
Q 263 847 263 1672 
Q 263 2516 659 2955 
Q 1056 3394 1663 3394 
Q 2219 3394 2625 2931 
L 2625 4581 
L 3503 4581 
L 3503 0 
z
M 1159 1731 
Q 1159 1200 1306 963 
Q 1519 619 1900 619 
Q 2203 619 2415 876 
Q 2628 1134 2628 1647 
Q 2628 2219 2422 2470 
Q 2216 2722 1894 2722 
Q 1581 2722 1370 2473 
Q 1159 2225 1159 1731 
z
" transform="scale(0.015625)"/>
      <path id="Arial-BoldMT-72" d="M 1300 0 
L 422 0 
L 422 3319 
L 1238 3319 
L 1238 2847 
Q 1447 3181 1614 3287 
Q 1781 3394 1994 3394 
Q 2294 3394 2572 3228 
L 2300 2463 
Q 2078 2606 1888 2606 
Q 1703 2606 1575 2504 
Q 1447 2403 1373 2137 
Q 1300 1872 1300 1025 
L 1300 0 
z
" transform="scale(0.015625)"/>
      <path id="Arial-BoldMT-63" d="M 3353 2338 
L 2488 2181 
Q 2444 2441 2289 2572 
Q 2134 2703 1888 2703 
Q 1559 2703 1364 2476 
Q 1169 2250 1169 1719 
Q 1169 1128 1367 884 
Q 1566 641 1900 641 
Q 2150 641 2309 783 
Q 2469 925 2534 1272 
L 3397 1125 
Q 3263 531 2881 228 
Q 2500 -75 1859 -75 
Q 1131 -75 698 384 
Q 266 844 266 1656 
Q 266 2478 700 2936 
Q 1134 3394 1875 3394 
Q 2481 3394 2839 3133 
Q 3197 2872 3353 2338 
z
" transform="scale(0.015625)"/>
      <path id="Arial-BoldMT-6f" d="M 256 1706 
Q 256 2144 472 2553 
Q 688 2963 1083 3178 
Q 1478 3394 1966 3394 
Q 2719 3394 3200 2905 
Q 3681 2416 3681 1669 
Q 3681 916 3195 420 
Q 2709 -75 1972 -75 
Q 1516 -75 1102 131 
Q 688 338 472 736 
Q 256 1134 256 1706 
z
M 1156 1659 
Q 1156 1166 1390 903 
Q 1625 641 1969 641 
Q 2313 641 2545 903 
Q 2778 1166 2778 1666 
Q 2778 2153 2545 2415 
Q 2313 2678 1969 2678 
Q 1625 2678 1390 2415 
Q 1156 2153 1156 1659 
z
" transform="scale(0.015625)"/>
      <path id="Arial-BoldMT-66" d="M 75 3319 
L 563 3319 
L 563 3569 
Q 563 3988 652 4194 
Q 741 4400 980 4529 
Q 1219 4659 1584 4659 
Q 1959 4659 2319 4547 
L 2200 3934 
Q 1991 3984 1797 3984 
Q 1606 3984 1523 3895 
Q 1441 3806 1441 3553 
L 1441 3319 
L 2097 3319 
L 2097 2628 
L 1441 2628 
L 1441 0 
L 563 0 
L 563 2628 
L 75 2628 
L 75 3319 
z
" transform="scale(0.015625)"/>
      <path id="Arial-BoldMT-61" d="M 1116 2306 
L 319 2450 
Q 453 2931 781 3162 
Q 1109 3394 1756 3394 
Q 2344 3394 2631 3255 
Q 2919 3116 3036 2902 
Q 3153 2688 3153 2116 
L 3144 1091 
Q 3144 653 3186 445 
Q 3228 238 3344 0 
L 2475 0 
Q 2441 88 2391 259 
Q 2369 338 2359 363 
Q 2134 144 1878 34 
Q 1622 -75 1331 -75 
Q 819 -75 523 203 
Q 228 481 228 906 
Q 228 1188 362 1408 
Q 497 1628 739 1745 
Q 981 1863 1438 1950 
Q 2053 2066 2291 2166 
L 2291 2253 
Q 2291 2506 2166 2614 
Q 2041 2722 1694 2722 
Q 1459 2722 1328 2630 
Q 1197 2538 1116 2306 
z
M 2291 1594 
Q 2122 1538 1756 1459 
Q 1391 1381 1278 1306 
Q 1106 1184 1106 997 
Q 1106 813 1243 678 
Q 1381 544 1594 544 
Q 1831 544 2047 700 
Q 2206 819 2256 991 
Q 2291 1103 2291 1419 
L 2291 1594 
z
" transform="scale(0.015625)"/>
     </defs>
     <use xlink:href="#Arial-BoldMT-53"/>
     <use xlink:href="#Arial-BoldMT-69" x="66.699219"/>
     <use xlink:href="#Arial-BoldMT-6e" x="94.482422"/>
     <use xlink:href="#Arial-BoldMT-67" x="155.566406"/>
     <use xlink:href="#Arial-BoldMT-6c" x="216.650391"/>
     <use xlink:href="#Arial-BoldMT-65" x="244.433594"/>
     <use xlink:href="#Arial-BoldMT-2d" x="300.048828"/>
     <use xlink:href="#Arial-BoldMT-47" x="333.349609"/>
     <use xlink:href="#Arial-BoldMT-50" x="411.132812"/>
     <use xlink:href="#Arial-BoldMT-55" x="477.832031"/>
     <use xlink:href="#Arial-BoldMT-20" x="550.048828"/>
     <use xlink:href="#Arial-BoldMT-4d" x="577.832031"/>
     <use xlink:href="#Arial-BoldMT-69" x="661.132812"/>
     <use xlink:href="#Arial-BoldMT-78" x="688.916016"/>
     <use xlink:href="#Arial-BoldMT-65" x="744.53125"/>
     <use xlink:href="#Arial-BoldMT-64" x="800.146484"/>
     <use xlink:href="#Arial-BoldMT-2d" x="861.230469"/>
     <use xlink:href="#Arial-BoldMT-50" x="894.53125"/>
     <use xlink:href="#Arial-BoldMT-72" x="961.230469"/>
     <use xlink:href="#Arial-BoldMT-65" x="1000.146484"/>
     <use xlink:href="#Arial-BoldMT-63" x="1055.761719"/>
     <use xlink:href="#Arial-BoldMT-69" x="1111.376953"/>
     <use xlink:href="#Arial-BoldMT-73" x="1139.160156"/>
     <use xlink:href="#Arial-BoldMT-69" x="1194.775391"/>
     <use xlink:href="#Arial-BoldMT-6f" x="1222.558594"/>
     <use xlink:href="#Arial-BoldMT-6e" x="1283.642578"/>
     <use xlink:href="#Arial-BoldMT-20" x="1344.726562"/>
     <use xlink:href="#Arial-BoldMT-50" x="1372.509766"/>
     <use xlink:href="#Arial-BoldMT-65" x="1439.208984"/>
     <use xlink:href="#Arial-BoldMT-72" x="1494.824219"/>
     <use xlink:href="#Arial-BoldMT-66" x="1533.740234"/>
     <use xlink:href="#Arial-BoldMT-6f" x="1567.041016"/>
     <use xlink:href="#Arial-BoldMT-72" x="1628.125"/>
     <use xlink:href="#Arial-BoldMT-6d" x="1667.041016"/>
     <use xlink:href="#Arial-BoldMT-61" x="1755.957031"/>
     <use xlink:href="#Arial-BoldMT-6e" x="1811.572266"/>
     <use xlink:href="#Arial-BoldMT-63" x="1872.65625"/>
     <use xlink:href="#Arial-BoldMT-65" x="1928.271484"/>
    </g>
   </g>
   <g id="legend_1">
    <g id="patch_7">
     <path d="M 293.754 300.180406 
L 598.7355 300.180406 
Q 604.0155 300.180406 604.0155 294.900406 
L 604.0155 71.158906 
Q 604.0155 65.878906 598.7355 65.878906 
L 293.754 65.878906 
Q 288.474 65.878906 288.474 71.158906 
L 288.474 294.900406 
Q 288.474 300.180406 293.754 300.180406 
z
" style="fill: #ffffff; opacity: 0.8; stroke: #cccccc; stroke-width: 2; stroke-linejoin: miter"/>
    </g>
    <g id="text_16">
     <!-- Computational Phase -->
     <g style="fill: #262626" transform="translate(299.034 97.404406) scale(0.288 -0.288)">
      <defs>
       <path id="Arial-BoldMT-70" d="M 434 3319 
L 1253 3319 
L 1253 2831 
Q 1413 3081 1684 3237 
Q 1956 3394 2288 3394 
Q 2866 3394 3269 2941 
Q 3672 2488 3672 1678 
Q 3672 847 3265 386 
Q 2859 -75 2281 -75 
Q 2006 -75 1782 34 
Q 1559 144 1313 409 
L 1313 -1263 
L 434 -1263 
L 434 3319 
z
M 1303 1716 
Q 1303 1156 1525 889 
Q 1747 622 2066 622 
Q 2372 622 2575 867 
Q 2778 1113 2778 1672 
Q 2778 2194 2568 2447 
Q 2359 2700 2050 2700 
Q 1728 2700 1515 2451 
Q 1303 2203 1303 1716 
z
" transform="scale(0.015625)"/>
       <path id="Arial-BoldMT-75" d="M 2644 0 
L 2644 497 
Q 2463 231 2167 78 
Q 1872 -75 1544 -75 
Q 1209 -75 943 72 
Q 678 219 559 484 
Q 441 750 441 1219 
L 441 3319 
L 1319 3319 
L 1319 1794 
Q 1319 1094 1367 936 
Q 1416 778 1544 686 
Q 1672 594 1869 594 
Q 2094 594 2272 717 
Q 2450 841 2515 1023 
Q 2581 1206 2581 1919 
L 2581 3319 
L 3459 3319 
L 3459 0 
L 2644 0 
z
" transform="scale(0.015625)"/>
       <path id="Arial-BoldMT-68" d="M 1334 4581 
L 1334 2897 
Q 1759 3394 2350 3394 
Q 2653 3394 2897 3281 
Q 3141 3169 3264 2994 
Q 3388 2819 3433 2606 
Q 3478 2394 3478 1947 
L 3478 0 
L 2600 0 
L 2600 1753 
Q 2600 2275 2550 2415 
Q 2500 2556 2373 2639 
Q 2247 2722 2056 2722 
Q 1838 2722 1666 2615 
Q 1494 2509 1414 2295 
Q 1334 2081 1334 1663 
L 1334 0 
L 456 0 
L 456 4581 
L 1334 4581 
z
" transform="scale(0.015625)"/>
      </defs>
      <use xlink:href="#Arial-BoldMT-43"/>
      <use xlink:href="#Arial-BoldMT-6f" x="72.216797"/>
      <use xlink:href="#Arial-BoldMT-6d" x="133.300781"/>
      <use xlink:href="#Arial-BoldMT-70" x="222.216797"/>
      <use xlink:href="#Arial-BoldMT-75" x="283.300781"/>
      <use xlink:href="#Arial-BoldMT-74" x="344.384766"/>
      <use xlink:href="#Arial-BoldMT-61" x="377.685547"/>
      <use xlink:href="#Arial-BoldMT-74" x="433.300781"/>
      <use xlink:href="#Arial-BoldMT-69" x="466.601562"/>
      <use xlink:href="#Arial-BoldMT-6f" x="494.384766"/>
      <use xlink:href="#Arial-BoldMT-6e" x="555.46875"/>
      <use xlink:href="#Arial-BoldMT-61" x="616.552734"/>
      <use xlink:href="#Arial-BoldMT-6c" x="672.167969"/>
      <use xlink:href="#Arial-BoldMT-20" x="699.951172"/>
      <use xlink:href="#Arial-BoldMT-50" x="727.734375"/>
      <use xlink:href="#Arial-BoldMT-68" x="794.433594"/>
      <use xlink:href="#Arial-BoldMT-61" x="855.517578"/>
      <use xlink:href="#Arial-BoldMT-73" x="911.132812"/>
      <use xlink:href="#Arial-BoldMT-65" x="966.748047"/>
     </g>
    </g>
    <g id="patch_8">
     <path d="M 352.075125 135.184531 
L 404.875125 135.184531 
L 404.875125 116.704531 
L 352.075125 116.704531 
z
" style="fill: #ffa100"/>
    </g>
    <g id="text_17">
     <!-- Pad -->
     <g style="fill: #262626" transform="translate(425.995125 135.184531) scale(0.264 -0.264)">
      <use xlink:href="#Arial-BoldMT-50"/>
      <use xlink:href="#Arial-BoldMT-61" x="66.699219"/>
      <use xlink:href="#Arial-BoldMT-64" x="122.314453"/>
     </g>
    </g>
    <g id="patch_9">
     <path d="M 352.075125 172.491031 
L 404.875125 172.491031 
L 404.875125 154.011031 
L 352.075125 154.011031 
z
" style="fill: #ff3a66"/>
    </g>
    <g id="text_18">
     <!-- FFT -->
     <g style="fill: #262626" transform="translate(425.995125 172.491031) scale(0.264 -0.264)">
      <defs>
       <path id="Arial-BoldMT-46" d="M 472 0 
L 472 4581 
L 3613 4581 
L 3613 3806 
L 1397 3806 
L 1397 2722 
L 3309 2722 
L 3309 1947 
L 1397 1947 
L 1397 0 
L 472 0 
z
" transform="scale(0.015625)"/>
      </defs>
      <use xlink:href="#Arial-BoldMT-46"/>
      <use xlink:href="#Arial-BoldMT-46" x="61.083984"/>
      <use xlink:href="#Arial-BoldMT-54" x="122.167969"/>
     </g>
    </g>
    <g id="patch_10">
     <path d="M 352.075125 209.797531 
L 404.875125 209.797531 
L 404.875125 191.317531 
L 352.075125 191.317531 
z
" style="fill: #2c95ff"/>
    </g>
    <g id="text_19">
     <!-- SBGEMV -->
     <g style="fill: #262626" transform="translate(425.995125 209.797531) scale(0.264 -0.264)">
      <defs>
       <path id="Arial-BoldMT-42" d="M 469 4581 
L 2300 4581 
Q 2844 4581 3111 4536 
Q 3378 4491 3589 4347 
Q 3800 4203 3940 3964 
Q 4081 3725 4081 3428 
Q 4081 3106 3907 2837 
Q 3734 2569 3438 2434 
Q 3856 2313 4081 2019 
Q 4306 1725 4306 1328 
Q 4306 1016 4161 720 
Q 4016 425 3764 248 
Q 3513 72 3144 31 
Q 2913 6 2028 0 
L 469 0 
L 469 4581 
z
M 1394 3819 
L 1394 2759 
L 2000 2759 
Q 2541 2759 2672 2775 
Q 2909 2803 3045 2939 
Q 3181 3075 3181 3297 
Q 3181 3509 3064 3642 
Q 2947 3775 2716 3803 
Q 2578 3819 1925 3819 
L 1394 3819 
z
M 1394 1997 
L 1394 772 
L 2250 772 
Q 2750 772 2884 800 
Q 3091 838 3220 983 
Q 3350 1128 3350 1372 
Q 3350 1578 3250 1722 
Q 3150 1866 2961 1931 
Q 2772 1997 2141 1997 
L 1394 1997 
z
" transform="scale(0.015625)"/>
       <path id="Arial-BoldMT-45" d="M 466 0 
L 466 4581 
L 3863 4581 
L 3863 3806 
L 1391 3806 
L 1391 2791 
L 3691 2791 
L 3691 2019 
L 1391 2019 
L 1391 772 
L 3950 772 
L 3950 0 
L 466 0 
z
" transform="scale(0.015625)"/>
      </defs>
      <use xlink:href="#Arial-BoldMT-53"/>
      <use xlink:href="#Arial-BoldMT-42" x="66.699219"/>
      <use xlink:href="#Arial-BoldMT-47" x="138.916016"/>
      <use xlink:href="#Arial-BoldMT-45" x="216.699219"/>
      <use xlink:href="#Arial-BoldMT-4d" x="283.398438"/>
      <use xlink:href="#Arial-BoldMT-56" x="366.699219"/>
     </g>
    </g>
    <g id="patch_11">
     <path d="M 352.075125 247.104031 
L 404.875125 247.104031 
L 404.875125 228.624031 
L 352.075125 228.624031 
z
" style="fill: #a149ff"/>
    </g>
    <g id="text_20">
     <!-- IFFT -->
     <g style="fill: #262626" transform="translate(425.995125 247.104031) scale(0.264 -0.264)">
      <use xlink:href="#Arial-BoldMT-49"/>
      <use xlink:href="#Arial-BoldMT-46" x="27.783203"/>
      <use xlink:href="#Arial-BoldMT-46" x="88.867188"/>
      <use xlink:href="#Arial-BoldMT-54" x="149.951172"/>
     </g>
    </g>
    <g id="patch_12">
     <path d="M 352.075125 284.410531 
L 404.875125 284.410531 
L 404.875125 265.930531 
L 352.075125 265.930531 
z
" style="fill: #28d6a4"/>
    </g>
    <g id="text_21">
     <!-- Unpad -->
     <g style="fill: #262626" transform="translate(425.995125 284.410531) scale(0.264 -0.264)">
      <use xlink:href="#Arial-BoldMT-55"/>
      <use xlink:href="#Arial-BoldMT-6e" x="72.216797"/>
      <use xlink:href="#Arial-BoldMT-70" x="133.300781"/>
      <use xlink:href="#Arial-BoldMT-61" x="194.384766"/>
      <use xlink:href="#Arial-BoldMT-64" x="250"/>
     </g>
    </g>
   </g>
   <g id="patch_13">
    <path d="M 116.102932 740.562906 
L 161.639734 740.562906 
L 161.639734 736.86379 
L 116.102932 736.86379 
z
" clip-path="url(#pb3f686a000)" style="fill: #ffa100"/>
   </g>
   <g id="patch_14">
    <path d="M 116.102932 736.86379 
L 161.639734 736.86379 
L 161.639734 728.161771 
L 116.102932 728.161771 
z
" clip-path="url(#pb3f686a000)" style="fill: #ff3a66"/>
   </g>
   <g id="patch_15">
    <path d="M 116.102932 728.161771 
L 161.639734 728.161771 
L 161.639734 88.042861 
L 116.102932 88.042861 
z
" clip-path="url(#pb3f686a000)" style="fill: #2c95ff"/>
   </g>
   <g id="patch_16">
    <path d="M 116.102932 88.042861 
L 161.639734 88.042861 
L 161.639734 86.20341 
L 116.102932 86.20341 
z
" clip-path="url(#pb3f686a000)" style="fill: #a149ff"/>
   </g>
   <g id="patch_17">
    <path d="M 116.102932 86.20341 
L 161.639734 86.20341 
L 161.639734 85.435287 
L 116.102932 85.435287 
z
" clip-path="url(#pb3f686a000)" style="fill: #28d6a4"/>
   </g>
   <g id="patch_18">
    <path d="M 161.639734 740.562906 
L 207.176537 740.562906 
L 207.176537 701.014705 
L 161.639734 701.014705 
z
" clip-path="url(#pb3f686a000)" style="fill: #ffa100"/>
   </g>
   <g id="patch_19">
    <path d="M 161.639734 701.014705 
L 207.176537 701.014705 
L 207.176537 696.385757 
L 161.639734 696.385757 
z
" clip-path="url(#pb3f686a000)" style="fill: #ff3a66; opacity: 0.65"/>
   </g>
   <g id="patch_20">
    <path d="M 161.639734 696.385757 
L 207.176537 696.385757 
L 207.176537 313.183602 
L 161.639734 313.183602 
z
" clip-path="url(#pb3f686a000)" style="fill: #2c95ff; opacity: 0.65"/>
   </g>
   <g id="patch_21">
    <path d="M 161.639734 313.183602 
L 207.176537 313.183602 
L 207.176537 311.707998 
L 161.639734 311.707998 
z
" clip-path="url(#pb3f686a000)" style="fill: #a149ff"/>
   </g>
   <g id="patch_22">
    <path d="M 161.639734 311.707998 
L 207.176537 311.707998 
L 207.176537 310.96009 
L 161.639734 310.96009 
z
" clip-path="url(#pb3f686a000)" style="fill: #28d6a4"/>
   </g>
   <g id="patch_23">
    <path d="M 229.944938 740.562906 
L 275.481741 740.562906 
L 275.481741 736.641439 
L 229.944938 736.641439 
z
" clip-path="url(#pb3f686a000)" style="fill: #ffa100"/>
   </g>
   <g id="patch_24">
    <path d="M 229.944938 736.641439 
L 275.481741 736.641439 
L 275.481741 722.522135 
L 229.944938 722.522135 
z
" clip-path="url(#pb3f686a000)" style="fill: #ff3a66"/>
   </g>
   <g id="patch_25">
    <path d="M 229.944938 722.522135 
L 275.481741 722.522135 
L 275.481741 349.224717 
L 229.944938 349.224717 
z
" clip-path="url(#pb3f686a000)" style="fill: #2c95ff"/>
   </g>
   <g id="patch_26">
    <path d="M 229.944938 349.224717 
L 275.481741 349.224717 
L 275.481741 348.264564 
L 229.944938 348.264564 
z
" clip-path="url(#pb3f686a000)" style="fill: #a149ff"/>
   </g>
   <g id="patch_27">
    <path d="M 229.944938 348.264564 
L 275.481741 348.264564 
L 275.481741 347.809755 
L 229.944938 347.809755 
z
" clip-path="url(#pb3f686a000)" style="fill: #28d6a4"/>
   </g>
   <g id="patch_28">
    <path d="M 275.481741 740.562906 
L 321.018543 740.562906 
L 321.018543 736.641439 
L 275.481741 736.641439 
z
" clip-path="url(#pb3f686a000)" style="fill: #ffa100"/>
   </g>
   <g id="patch_29">
    <path d="M 275.481741 736.641439 
L 321.018543 736.641439 
L 321.018543 729.253313 
L 275.481741 729.253313 
z
" clip-path="url(#pb3f686a000)" style="fill: #ff3a66; opacity: 0.65"/>
   </g>
   <g id="patch_30">
    <path d="M 275.481741 729.253313 
L 321.018543 729.253313 
L 321.018543 541.093627 
L 275.481741 541.093627 
z
" clip-path="url(#pb3f686a000)" style="fill: #2c95ff; opacity: 0.65"/>
   </g>
   <g id="patch_31">
    <path d="M 275.481741 541.093627 
L 321.018543 541.093627 
L 321.018543 540.133474 
L 275.481741 540.133474 
z
" clip-path="url(#pb3f686a000)" style="fill: #a149ff"/>
   </g>
   <g id="patch_32">
    <path d="M 275.481741 540.133474 
L 321.018543 540.133474 
L 321.018543 539.678664 
L 275.481741 539.678664 
z
" clip-path="url(#pb3f686a000)" style="fill: #28d6a4"/>
   </g>
   <g id="patch_33">
    <path d="M 343.786944 740.562906 
L 389.323747 740.562906 
L 389.323747 736.995179 
L 343.786944 736.995179 
z
" clip-path="url(#pb3f686a000)" style="fill: #ffa100"/>
   </g>
   <g id="patch_34">
    <path d="M 343.786944 736.995179 
L 389.323747 736.995179 
L 389.323747 726.221251 
L 343.786944 726.221251 
z
" clip-path="url(#pb3f686a000)" style="fill: #ff3a66"/>
   </g>
   <g id="patch_35">
    <path d="M 343.786944 726.221251 
L 389.323747 726.221251 
L 389.323747 469.415671 
L 343.786944 469.415671 
z
" clip-path="url(#pb3f686a000)" style="fill: #2c95ff"/>
   </g>
   <g id="patch_36">
    <path d="M 343.786944 469.415671 
L 389.323747 469.415671 
L 389.323747 468.556587 
L 343.786944 468.556587 
z
" clip-path="url(#pb3f686a000)" style="fill: #a149ff"/>
   </g>
   <g id="patch_37">
    <path d="M 343.786944 468.556587 
L 389.323747 468.556587 
L 389.323747 468.152312 
L 343.786944 468.152312 
z
" clip-path="url(#pb3f686a000)" style="fill: #28d6a4"/>
   </g>
   <g id="patch_38">
    <path d="M 389.323747 740.562906 
L 434.860549 740.562906 
L 434.860549 736.995179 
L 389.323747 736.995179 
z
" clip-path="url(#pb3f686a000)" style="fill: #ffa100"/>
   </g>
   <g id="patch_39">
    <path d="M 389.323747 736.995179 
L 434.860549 736.995179 
L 434.860549 731.416185 
L 389.323747 731.416185 
z
" clip-path="url(#pb3f686a000)" style="fill: #ff3a66; opacity: 0.65"/>
   </g>
   <g id="patch_40">
    <path d="M 389.323747 731.416185 
L 434.860549 731.416185 
L 434.860549 598.308645 
L 389.323747 598.308645 
z
" clip-path="url(#pb3f686a000)" style="fill: #2c95ff; opacity: 0.65"/>
   </g>
   <g id="patch_41">
    <path d="M 389.323747 598.308645 
L 434.860549 598.308645 
L 434.860549 597.44956 
L 389.323747 597.44956 
z
" clip-path="url(#pb3f686a000)" style="fill: #a149ff"/>
   </g>
   <g id="patch_42">
    <path d="M 389.323747 597.44956 
L 434.860549 597.44956 
L 434.860549 597.045285 
L 389.323747 597.045285 
z
" clip-path="url(#pb3f686a000)" style="fill: #28d6a4"/>
   </g>
   <g id="patch_43">
    <path d="M 457.628951 740.562906 
L 503.165753 740.562906 
L 503.165753 738.511211 
L 457.628951 738.511211 
z
" clip-path="url(#pb3f686a000)" style="fill: #ffa100"/>
   </g>
   <g id="patch_44">
    <path d="M 457.628951 738.511211 
L 503.165753 738.511211 
L 503.165753 732.699758 
L 457.628951 732.699758 
z
" clip-path="url(#pb3f686a000)" style="fill: #ff3a66"/>
   </g>
   <g id="patch_45">
    <path d="M 457.628951 732.699758 
L 503.165753 732.699758 
L 503.165753 595.205834 
L 457.628951 595.205834 
z
" clip-path="url(#pb3f686a000)" style="fill: #2c95ff"/>
   </g>
   <g id="patch_46">
    <path d="M 457.628951 595.205834 
L 503.165753 595.205834 
L 503.165753 594.397284 
L 457.628951 594.397284 
z
" clip-path="url(#pb3f686a000)" style="fill: #a149ff"/>
   </g>
   <g id="patch_47">
    <path d="M 457.628951 594.397284 
L 503.165753 594.397284 
L 503.165753 593.942475 
L 457.628951 593.942475 
z
" clip-path="url(#pb3f686a000)" style="fill: #28d6a4"/>
   </g>
   <g id="patch_48">
    <path d="M 503.165753 740.562906 
L 548.702556 740.562906 
L 548.702556 738.511211 
L 503.165753 738.511211 
z
" clip-path="url(#pb3f686a000)" style="fill: #ffa100"/>
   </g>
   <g id="patch_49">
    <path d="M 503.165753 738.511211 
L 548.702556 738.511211 
L 548.702556 735.277011 
L 503.165753 735.277011 
z
" clip-path="url(#pb3f686a000)" style="fill: #ff3a66; opacity: 0.65"/>
   </g>
   <g id="patch_50">
    <path d="M 503.165753 735.277011 
L 548.702556 735.277011 
L 548.702556 663.295849 
L 503.165753 663.295849 
z
" clip-path="url(#pb3f686a000)" style="fill: #2c95ff; opacity: 0.65"/>
   </g>
   <g id="patch_51">
    <path d="M 503.165753 663.295849 
L 548.702556 663.295849 
L 548.702556 662.487299 
L 503.165753 662.487299 
z
" clip-path="url(#pb3f686a000)" style="fill: #a149ff"/>
   </g>
   <g id="patch_52">
    <path d="M 503.165753 662.487299 
L 548.702556 662.487299 
L 548.702556 662.03249 
L 503.165753 662.03249 
z
" clip-path="url(#pb3f686a000)" style="fill: #28d6a4"/>
   </g>
   <g id="patch_53">
    <path d="M 571.470957 740.562906 
L 617.007759 740.562906 
L 617.007759 735.772248 
L 571.470957 735.772248 
z
" clip-path="url(#pb3f686a000)" style="fill: #ffa100"/>
   </g>
   <g id="patch_54">
    <path d="M 571.470957 735.772248 
L 617.007759 735.772248 
L 617.007759 718.529919 
L 571.470957 718.529919 
z
" clip-path="url(#pb3f686a000)" style="fill: #ff3a66"/>
   </g>
   <g id="patch_55">
    <path d="M 571.470957 718.529919 
L 617.007759 718.529919 
L 617.007759 272.260866 
L 571.470957 272.260866 
z
" clip-path="url(#pb3f686a000)" style="fill: #2c95ff"/>
   </g>
   <g id="patch_56">
    <path d="M 571.470957 272.260866 
L 617.007759 272.260866 
L 617.007759 269.491583 
L 571.470957 269.491583 
z
" clip-path="url(#pb3f686a000)" style="fill: #a149ff"/>
   </g>
   <g id="patch_57">
    <path d="M 571.470957 269.491583 
L 617.007759 269.491583 
L 617.007759 268.096834 
L 571.470957 268.096834 
z
" clip-path="url(#pb3f686a000)" style="fill: #28d6a4"/>
   </g>
   <g id="patch_58">
    <path d="M 617.007759 740.562906 
L 662.544562 740.562906 
L 662.544562 735.772248 
L 617.007759 735.772248 
z
" clip-path="url(#pb3f686a000)" style="fill: #ffa100"/>
   </g>
   <g id="patch_59">
    <path d="M 617.007759 735.772248 
L 662.544562 735.772248 
L 662.544562 725.857404 
L 617.007759 725.857404 
z
" clip-path="url(#pb3f686a000)" style="fill: #ff3a66; opacity: 0.65"/>
   </g>
   <g id="patch_60">
    <path d="M 617.007759 725.857404 
L 662.544562 725.857404 
L 662.544562 463.34144 
L 617.007759 463.34144 
z
" clip-path="url(#pb3f686a000)" style="fill: #2c95ff; opacity: 0.65"/>
   </g>
   <g id="patch_61">
    <path d="M 617.007759 463.34144 
L 662.544562 463.34144 
L 662.544562 460.572156 
L 617.007759 460.572156 
z
" clip-path="url(#pb3f686a000)" style="fill: #a149ff"/>
   </g>
   <g id="patch_62">
    <path d="M 617.007759 460.572156 
L 662.544562 460.572156 
L 662.544562 459.177407 
L 617.007759 459.177407 
z
" clip-path="url(#pb3f686a000)" style="fill: #28d6a4"/>
   </g>
   <g id="patch_63">
    <path d="M 685.312963 740.562906 
L 730.849766 740.562906 
L 730.849766 738.602173 
L 685.312963 738.602173 
z
" clip-path="url(#pb3f686a000)" style="fill: #ffa100"/>
   </g>
   <g id="patch_64">
    <path d="M 685.312963 738.602173 
L 730.849766 738.602173 
L 730.849766 733.124246 
L 685.312963 733.124246 
z
" clip-path="url(#pb3f686a000)" style="fill: #ff3a66"/>
   </g>
   <g id="patch_65">
    <path d="M 685.312963 733.124246 
L 730.849766 733.124246 
L 730.849766 570.100357 
L 685.312963 570.100357 
z
" clip-path="url(#pb3f686a000)" style="fill: #2c95ff"/>
   </g>
   <g id="patch_66">
    <path d="M 685.312963 570.100357 
L 730.849766 570.100357 
L 730.849766 568.361975 
L 685.312963 568.361975 
z
" clip-path="url(#pb3f686a000)" style="fill: #a149ff"/>
   </g>
   <g id="patch_67">
    <path d="M 685.312963 568.361975 
L 730.849766 568.361975 
L 730.849766 567.250219 
L 685.312963 567.250219 
z
" clip-path="url(#pb3f686a000)" style="fill: #28d6a4"/>
   </g>
   <g id="patch_68">
    <path d="M 730.849766 740.562906 
L 776.386568 740.562906 
L 776.386568 738.602173 
L 730.849766 738.602173 
z
" clip-path="url(#pb3f686a000)" style="fill: #ffa100"/>
   </g>
   <g id="patch_69">
    <path d="M 730.849766 738.602173 
L 776.386568 738.602173 
L 776.386568 734.862629 
L 730.849766 734.862629 
z
" clip-path="url(#pb3f686a000)" style="fill: #ff3a66; opacity: 0.65"/>
   </g>
   <g id="patch_70">
    <path d="M 730.849766 734.862629 
L 776.386568 734.862629 
L 776.386568 641.343717 
L 730.849766 641.343717 
z
" clip-path="url(#pb3f686a000)" style="fill: #2c95ff; opacity: 0.65"/>
   </g>
   <g id="patch_71">
    <path d="M 730.849766 641.343717 
L 776.386568 641.343717 
L 776.386568 639.605335 
L 730.849766 639.605335 
z
" clip-path="url(#pb3f686a000)" style="fill: #a149ff"/>
   </g>
   <g id="patch_72">
    <path d="M 730.849766 639.605335 
L 776.386568 639.605335 
L 776.386568 638.493578 
L 730.849766 638.493578 
z
" clip-path="url(#pb3f686a000)" style="fill: #28d6a4"/>
   </g>
  </g>
 </g>
 <defs>
  <clipPath id="pb3f686a000">
   <rect x="83.08875" y="52.678906" width="726.312" height="687.884"/>
  </clipPath>
 </defs>
</svg>
