<?xml version="1.0" encoding="utf-8" standalone="no"?>
<!DOCTYPE svg PUBLIC "-//W3C//DTD SVG 1.1//EN"
  "http://www.w3.org/Graphics/SVG/1.1/DTD/svg11.dtd">
<svg xmlns:xlink="http://www.w3.org/1999/xlink" width="816.60075pt" height="810.8405pt" viewBox="0 0 816.60075 810.8405" xmlns="http://www.w3.org/2000/svg" version="1.1">
 <metadata>
  <rdf:RDF xmlns:dc="http://purl.org/dc/elements/1.1/" xmlns:cc="http://creativecommons.org/ns#" xmlns:rdf="http://www.w3.org/1999/02/22-rdf-syntax-ns#">
   <cc:Work>
    <dc:type rdf:resource="http://purl.org/dc/dcmitype/StillImage"/>
    <dc:date>2025-09-25T16:46:02.878144</dc:date>
    <dc:format>image/svg+xml</dc:format>
    <dc:creator>
     <cc:Agent>
      <dc:title>Matplotlib v3.9.3, https://matplotlib.org/</dc:title>
     </cc:Agent>
    </dc:creator>
   </cc:Work>
  </rdf:RDF>
 </metadata>
 <defs>
  <style type="text/css">*{stroke-linejoin: round; stroke-linecap: butt}</style>
 </defs>
 <g id="figure_1">
  <g id="patch_1">
   <path d="M 0 810.8405 
L 816.60075 810.8405 
L 816.60075 0 
L 0 0 
z
" style="fill: #ffffff"/>
  </g>
  <g id="axes_1">
   <g id="patch_2">
    <path d="M 83.08875 727.49 
L 809.40075 727.49 
L 809.40075 52.75 
L 83.08875 52.75 
z
" style="fill: #ffffff"/>
   </g>
   <g id="matplotlib.axis_1">
    <g id="xtick_1">
     <g id="line2d_1">
      <path d="M 116.102932 727.49 
L 116.102932 52.75 
" clip-path="url(#pd17c8332b0)" style="fill: none; stroke: #cccccc; stroke-width: 2; stroke-linecap: round"/>
     </g>
     <g id="line2d_2">
      <defs>
       <path id="maf8af35698" d="M 0 0 
L 0 12 
" style="stroke: #262626; stroke-width: 2.5"/>
      </defs>
      <g>
       <use xlink:href="#maf8af35698" x="116.102932" y="727.49" style="fill: #262626; stroke: #262626; stroke-width: 2.5"/>
      </g>
     </g>
     <g id="text_1">
      <!-- 2 -->
      <g style="fill: #262626" transform="translate(108.762494 761.886625) scale(0.264 -0.264)">
       <defs>
        <path id="Arial-BoldMT-32" d="M 3238 816 
L 3238 0 
L 159 0 
Q 209 463 459 877 
Q 709 1291 1447 1975 
Q 2041 2528 2175 2725 
Q 2356 2997 2356 3263 
Q 2356 3556 2198 3714 
Q 2041 3872 1763 3872 
Q 1488 3872 1325 3706 
Q 1163 3541 1138 3156 
L 263 3244 
Q 341 3969 753 4284 
Q 1166 4600 1784 4600 
Q 2463 4600 2850 4234 
Q 3238 3869 3238 3325 
Q 3238 3016 3127 2736 
Q 3016 2456 2775 2150 
Q 2616 1947 2200 1565 
Q 1784 1184 1673 1059 
Q 1563 934 1494 816 
L 3238 816 
z
" transform="scale(0.015625)"/>
       </defs>
       <use xlink:href="#Arial-BoldMT-32"/>
      </g>
     </g>
    </g>
    <g id="xtick_2">
     <g id="line2d_3">
      <path d="M 210.429166 727.49 
L 210.429166 52.75 
" clip-path="url(#pd17c8332b0)" style="fill: none; stroke: #cccccc; stroke-width: 2; stroke-linecap: round"/>
     </g>
     <g id="line2d_4">
      <g>
       <use xlink:href="#maf8af35698" x="210.429166" y="727.49" style="fill: #262626; stroke: #262626; stroke-width: 2.5"/>
      </g>
     </g>
     <g id="text_2">
      <!-- 3 -->
      <g style="fill: #262626" transform="translate(203.088728 761.886625) scale(0.264 -0.264)">
       <defs>
        <path id="Arial-BoldMT-33" d="M 241 1216 
L 1091 1319 
Q 1131 994 1309 822 
Q 1488 650 1741 650 
Q 2013 650 2198 856 
Q 2384 1063 2384 1413 
Q 2384 1744 2206 1937 
Q 2028 2131 1772 2131 
Q 1603 2131 1369 2066 
L 1466 2781 
Q 1822 2772 2009 2936 
Q 2197 3100 2197 3372 
Q 2197 3603 2059 3740 
Q 1922 3878 1694 3878 
Q 1469 3878 1309 3722 
Q 1150 3566 1116 3266 
L 306 3403 
Q 391 3819 561 4067 
Q 731 4316 1036 4458 
Q 1341 4600 1719 4600 
Q 2366 4600 2756 4188 
Q 3078 3850 3078 3425 
Q 3078 2822 2419 2463 
Q 2813 2378 3048 2084 
Q 3284 1791 3284 1375 
Q 3284 772 2843 347 
Q 2403 -78 1747 -78 
Q 1125 -78 715 280 
Q 306 638 241 1216 
z
" transform="scale(0.015625)"/>
       </defs>
       <use xlink:href="#Arial-BoldMT-33"/>
      </g>
     </g>
    </g>
    <g id="xtick_3">
     <g id="line2d_5">
      <path d="M 304.755399 727.49 
L 304.755399 52.75 
" clip-path="url(#pd17c8332b0)" style="fill: none; stroke: #cccccc; stroke-width: 2; stroke-linecap: round"/>
     </g>
     <g id="line2d_6">
      <g>
       <use xlink:href="#maf8af35698" x="304.755399" y="727.49" style="fill: #262626; stroke: #262626; stroke-width: 2.5"/>
      </g>
     </g>
     <g id="text_3">
      <!-- 4 -->
      <g style="fill: #262626" transform="translate(297.414962 761.886625) scale(0.264 -0.264)">
       <defs>
        <path id="Arial-BoldMT-34" d="M 1994 0 
L 1994 922 
L 119 922 
L 119 1691 
L 2106 4600 
L 2844 4600 
L 2844 1694 
L 3413 1694 
L 3413 922 
L 2844 922 
L 2844 0 
L 1994 0 
z
M 1994 1694 
L 1994 3259 
L 941 1694 
L 1994 1694 
z
" transform="scale(0.015625)"/>
       </defs>
       <use xlink:href="#Arial-BoldMT-34"/>
      </g>
     </g>
    </g>
    <g id="xtick_4">
     <g id="line2d_7">
      <path d="M 399.081633 727.49 
L 399.081633 52.75 
" clip-path="url(#pd17c8332b0)" style="fill: none; stroke: #cccccc; stroke-width: 2; stroke-linecap: round"/>
     </g>
     <g id="line2d_8">
      <g>
       <use xlink:href="#maf8af35698" x="399.081633" y="727.49" style="fill: #262626; stroke: #262626; stroke-width: 2.5"/>
      </g>
     </g>
     <g id="text_4">
      <!-- 5 -->
      <g style="fill: #262626" transform="translate(391.741196 761.886625) scale(0.264 -0.264)">
       <defs>
        <path id="Arial-BoldMT-35" d="M 284 1178 
L 1159 1269 
Q 1197 972 1381 798 
Q 1566 625 1806 625 
Q 2081 625 2272 848 
Q 2463 1072 2463 1522 
Q 2463 1944 2273 2155 
Q 2084 2366 1781 2366 
Q 1403 2366 1103 2031 
L 391 2134 
L 841 4519 
L 3163 4519 
L 3163 3697 
L 1506 3697 
L 1369 2919 
Q 1663 3066 1969 3066 
Q 2553 3066 2959 2641 
Q 3366 2216 3366 1538 
Q 3366 972 3038 528 
Q 2591 -78 1797 -78 
Q 1163 -78 763 262 
Q 363 603 284 1178 
z
" transform="scale(0.015625)"/>
       </defs>
       <use xlink:href="#Arial-BoldMT-35"/>
      </g>
     </g>
    </g>
    <g id="xtick_5">
     <g id="line2d_9">
      <path d="M 493.407867 727.49 
L 493.407867 52.75 
" clip-path="url(#pd17c8332b0)" style="fill: none; stroke: #cccccc; stroke-width: 2; stroke-linecap: round"/>
     </g>
     <g id="line2d_10">
      <g>
       <use xlink:href="#maf8af35698" x="493.407867" y="727.49" style="fill: #262626; stroke: #262626; stroke-width: 2.5"/>
      </g>
     </g>
     <g id="text_5">
      <!-- 6 -->
      <g style="fill: #262626" transform="translate(486.067429 761.886625) scale(0.264 -0.264)">
       <defs>
        <path id="Arial-BoldMT-36" d="M 3247 3459 
L 2397 3366 
Q 2366 3628 2234 3753 
Q 2103 3878 1894 3878 
Q 1616 3878 1423 3628 
Q 1231 3378 1181 2588 
Q 1509 2975 1997 2975 
Q 2547 2975 2939 2556 
Q 3331 2138 3331 1475 
Q 3331 772 2918 347 
Q 2506 -78 1859 -78 
Q 1166 -78 719 461 
Q 272 1000 272 2228 
Q 272 3488 737 4044 
Q 1203 4600 1947 4600 
Q 2469 4600 2811 4308 
Q 3153 4016 3247 3459 
z
M 1256 1544 
Q 1256 1116 1453 883 
Q 1650 650 1903 650 
Q 2147 650 2309 840 
Q 2472 1031 2472 1466 
Q 2472 1913 2297 2120 
Q 2122 2328 1859 2328 
Q 1606 2328 1431 2129 
Q 1256 1931 1256 1544 
z
" transform="scale(0.015625)"/>
       </defs>
       <use xlink:href="#Arial-BoldMT-36"/>
      </g>
     </g>
    </g>
    <g id="xtick_6">
     <g id="line2d_11">
      <path d="M 587.734101 727.49 
L 587.734101 52.75 
" clip-path="url(#pd17c8332b0)" style="fill: none; stroke: #cccccc; stroke-width: 2; stroke-linecap: round"/>
     </g>
     <g id="line2d_12">
      <g>
       <use xlink:href="#maf8af35698" x="587.734101" y="727.49" style="fill: #262626; stroke: #262626; stroke-width: 2.5"/>
      </g>
     </g>
     <g id="text_6">
      <!-- 7 -->
      <g style="fill: #262626" transform="translate(580.393663 761.886625) scale(0.264 -0.264)">
       <defs>
        <path id="Arial-BoldMT-37" d="M 272 3703 
L 272 4519 
L 3275 4519 
L 3275 3881 
Q 2903 3516 2518 2831 
Q 2134 2147 1932 1376 
Q 1731 606 1734 0 
L 888 0 
Q 909 950 1279 1937 
Q 1650 2925 2269 3703 
L 272 3703 
z
" transform="scale(0.015625)"/>
       </defs>
       <use xlink:href="#Arial-BoldMT-37"/>
      </g>
     </g>
    </g>
    <g id="xtick_7">
     <g id="line2d_13">
      <path d="M 682.060334 727.49 
L 682.060334 52.75 
" clip-path="url(#pd17c8332b0)" style="fill: none; stroke: #cccccc; stroke-width: 2; stroke-linecap: round"/>
     </g>
     <g id="line2d_14">
      <g>
       <use xlink:href="#maf8af35698" x="682.060334" y="727.49" style="fill: #262626; stroke: #262626; stroke-width: 2.5"/>
      </g>
     </g>
     <g id="text_7">
      <!-- 8 -->
      <g style="fill: #262626" transform="translate(674.719897 761.886625) scale(0.264 -0.264)">
       <defs>
        <path id="Arial-BoldMT-38" d="M 1025 2472 
Q 684 2616 529 2867 
Q 375 3119 375 3419 
Q 375 3931 733 4265 
Q 1091 4600 1750 4600 
Q 2403 4600 2764 4265 
Q 3125 3931 3125 3419 
Q 3125 3100 2959 2851 
Q 2794 2603 2494 2472 
Q 2875 2319 3073 2025 
Q 3272 1731 3272 1347 
Q 3272 713 2867 316 
Q 2463 -81 1791 -81 
Q 1166 -81 750 247 
Q 259 634 259 1309 
Q 259 1681 443 1992 
Q 628 2303 1025 2472 
z
M 1206 3356 
Q 1206 3094 1354 2947 
Q 1503 2800 1750 2800 
Q 2000 2800 2150 2948 
Q 2300 3097 2300 3359 
Q 2300 3606 2151 3754 
Q 2003 3903 1759 3903 
Q 1506 3903 1356 3753 
Q 1206 3603 1206 3356 
z
M 1125 1394 
Q 1125 1031 1311 828 
Q 1497 625 1775 625 
Q 2047 625 2225 820 
Q 2403 1016 2403 1384 
Q 2403 1706 2222 1901 
Q 2041 2097 1763 2097 
Q 1441 2097 1283 1875 
Q 1125 1653 1125 1394 
z
" transform="scale(0.015625)"/>
       </defs>
       <use xlink:href="#Arial-BoldMT-38"/>
      </g>
     </g>
    </g>
    <g id="xtick_8">
     <g id="line2d_15">
      <path d="M 776.386568 727.49 
L 776.386568 52.75 
" clip-path="url(#pd17c8332b0)" style="fill: none; stroke: #cccccc; stroke-width: 2; stroke-linecap: round"/>
     </g>
     <g id="line2d_16">
      <g>
       <use xlink:href="#maf8af35698" x="776.386568" y="727.49" style="fill: #262626; stroke: #262626; stroke-width: 2.5"/>
      </g>
     </g>
     <g id="text_8">
      <!-- 9 -->
      <g style="fill: #262626" transform="translate(769.046131 761.886625) scale(0.264 -0.264)">
       <defs>
        <path id="Arial-BoldMT-39" d="M 291 1059 
L 1141 1153 
Q 1172 894 1303 769 
Q 1434 644 1650 644 
Q 1922 644 2112 894 
Q 2303 1144 2356 1931 
Q 2025 1547 1528 1547 
Q 988 1547 595 1964 
Q 203 2381 203 3050 
Q 203 3747 617 4173 
Q 1031 4600 1672 4600 
Q 2369 4600 2816 4061 
Q 3263 3522 3263 2288 
Q 3263 1031 2797 475 
Q 2331 -81 1584 -81 
Q 1047 -81 715 205 
Q 384 491 291 1059 
z
M 2278 2978 
Q 2278 3403 2083 3637 
Q 1888 3872 1631 3872 
Q 1388 3872 1227 3680 
Q 1066 3488 1066 3050 
Q 1066 2606 1241 2398 
Q 1416 2191 1678 2191 
Q 1931 2191 2104 2391 
Q 2278 2591 2278 2978 
z
" transform="scale(0.015625)"/>
       </defs>
       <use xlink:href="#Arial-BoldMT-39"/>
      </g>
     </g>
    </g>
    <g id="text_9">
     <!-- Parameter Dimension $N_mN_t$ ($\times 10^6$) -->
     <g style="fill: #262626" transform="translate(200.72475 797.3045) scale(0.288 -0.288)">
      <defs>
       <path id="Arial-BoldMT-50" d="M 466 0 
L 466 4581 
L 1950 4581 
Q 2794 4581 3050 4513 
Q 3444 4409 3709 4064 
Q 3975 3719 3975 3172 
Q 3975 2750 3822 2462 
Q 3669 2175 3433 2011 
Q 3197 1847 2953 1794 
Q 2622 1728 1994 1728 
L 1391 1728 
L 1391 0 
L 466 0 
z
M 1391 3806 
L 1391 2506 
L 1897 2506 
Q 2444 2506 2628 2578 
Q 2813 2650 2917 2803 
Q 3022 2956 3022 3159 
Q 3022 3409 2875 3571 
Q 2728 3734 2503 3775 
Q 2338 3806 1838 3806 
L 1391 3806 
z
" transform="scale(0.015625)"/>
       <path id="Arial-BoldMT-61" d="M 1116 2306 
L 319 2450 
Q 453 2931 781 3162 
Q 1109 3394 1756 3394 
Q 2344 3394 2631 3255 
Q 2919 3116 3036 2902 
Q 3153 2688 3153 2116 
L 3144 1091 
Q 3144 653 3186 445 
Q 3228 238 3344 0 
L 2475 0 
Q 2441 88 2391 259 
Q 2369 338 2359 363 
Q 2134 144 1878 34 
Q 1622 -75 1331 -75 
Q 819 -75 523 203 
Q 228 481 228 906 
Q 228 1188 362 1408 
Q 497 1628 739 1745 
Q 981 1863 1438 1950 
Q 2053 2066 2291 2166 
L 2291 2253 
Q 2291 2506 2166 2614 
Q 2041 2722 1694 2722 
Q 1459 2722 1328 2630 
Q 1197 2538 1116 2306 
z
M 2291 1594 
Q 2122 1538 1756 1459 
Q 1391 1381 1278 1306 
Q 1106 1184 1106 997 
Q 1106 813 1243 678 
Q 1381 544 1594 544 
Q 1831 544 2047 700 
Q 2206 819 2256 991 
Q 2291 1103 2291 1419 
L 2291 1594 
z
" transform="scale(0.015625)"/>
       <path id="Arial-BoldMT-72" d="M 1300 0 
L 422 0 
L 422 3319 
L 1238 3319 
L 1238 2847 
Q 1447 3181 1614 3287 
Q 1781 3394 1994 3394 
Q 2294 3394 2572 3228 
L 2300 2463 
Q 2078 2606 1888 2606 
Q 1703 2606 1575 2504 
Q 1447 2403 1373 2137 
Q 1300 1872 1300 1025 
L 1300 0 
z
" transform="scale(0.015625)"/>
       <path id="Arial-BoldMT-6d" d="M 394 3319 
L 1203 3319 
L 1203 2866 
Q 1638 3394 2238 3394 
Q 2556 3394 2790 3262 
Q 3025 3131 3175 2866 
Q 3394 3131 3647 3262 
Q 3900 3394 4188 3394 
Q 4553 3394 4806 3245 
Q 5059 3097 5184 2809 
Q 5275 2597 5275 2122 
L 5275 0 
L 4397 0 
L 4397 1897 
Q 4397 2391 4306 2534 
Q 4184 2722 3931 2722 
Q 3747 2722 3584 2609 
Q 3422 2497 3350 2280 
Q 3278 2063 3278 1594 
L 3278 0 
L 2400 0 
L 2400 1819 
Q 2400 2303 2353 2443 
Q 2306 2584 2207 2653 
Q 2109 2722 1941 2722 
Q 1738 2722 1575 2612 
Q 1413 2503 1342 2297 
Q 1272 2091 1272 1613 
L 1272 0 
L 394 0 
L 394 3319 
z
" transform="scale(0.015625)"/>
       <path id="Arial-BoldMT-65" d="M 2381 1056 
L 3256 909 
Q 3088 428 2723 176 
Q 2359 -75 1813 -75 
Q 947 -75 531 491 
Q 203 944 203 1634 
Q 203 2459 634 2926 
Q 1066 3394 1725 3394 
Q 2466 3394 2894 2905 
Q 3322 2416 3303 1406 
L 1103 1406 
Q 1113 1016 1316 798 
Q 1519 581 1822 581 
Q 2028 581 2168 693 
Q 2309 806 2381 1056 
z
M 2431 1944 
Q 2422 2325 2234 2523 
Q 2047 2722 1778 2722 
Q 1491 2722 1303 2513 
Q 1116 2303 1119 1944 
L 2431 1944 
z
" transform="scale(0.015625)"/>
       <path id="Arial-BoldMT-74" d="M 1981 3319 
L 1981 2619 
L 1381 2619 
L 1381 1281 
Q 1381 875 1398 808 
Q 1416 741 1477 697 
Q 1538 653 1625 653 
Q 1747 653 1978 738 
L 2053 56 
Q 1747 -75 1359 -75 
Q 1122 -75 931 4 
Q 741 84 652 211 
Q 563 338 528 553 
Q 500 706 500 1172 
L 500 2619 
L 97 2619 
L 97 3319 
L 500 3319 
L 500 3978 
L 1381 4491 
L 1381 3319 
L 1981 3319 
z
" transform="scale(0.015625)"/>
       <path id="Arial-BoldMT-20" transform="scale(0.015625)"/>
       <path id="Arial-BoldMT-44" d="M 463 4581 
L 2153 4581 
Q 2725 4581 3025 4494 
Q 3428 4375 3715 4072 
Q 4003 3769 4153 3330 
Q 4303 2891 4303 2247 
Q 4303 1681 4163 1272 
Q 3991 772 3672 463 
Q 3431 228 3022 97 
Q 2716 0 2203 0 
L 463 0 
L 463 4581 
z
M 1388 3806 
L 1388 772 
L 2078 772 
Q 2466 772 2638 816 
Q 2863 872 3011 1006 
Q 3159 1141 3253 1448 
Q 3347 1756 3347 2288 
Q 3347 2819 3253 3103 
Q 3159 3388 2990 3547 
Q 2822 3706 2563 3763 
Q 2369 3806 1803 3806 
L 1388 3806 
z
" transform="scale(0.015625)"/>
       <path id="Arial-BoldMT-69" d="M 459 3769 
L 459 4581 
L 1338 4581 
L 1338 3769 
L 459 3769 
z
M 459 0 
L 459 3319 
L 1338 3319 
L 1338 0 
L 459 0 
z
" transform="scale(0.015625)"/>
       <path id="Arial-BoldMT-6e" d="M 3478 0 
L 2600 0 
L 2600 1694 
Q 2600 2231 2544 2389 
Q 2488 2547 2361 2634 
Q 2234 2722 2056 2722 
Q 1828 2722 1647 2597 
Q 1466 2472 1398 2265 
Q 1331 2059 1331 1503 
L 1331 0 
L 453 0 
L 453 3319 
L 1269 3319 
L 1269 2831 
Q 1703 3394 2363 3394 
Q 2653 3394 2893 3289 
Q 3134 3184 3257 3021 
Q 3381 2859 3429 2653 
Q 3478 2447 3478 2063 
L 3478 0 
z
" transform="scale(0.015625)"/>
       <path id="Arial-BoldMT-73" d="M 150 947 
L 1031 1081 
Q 1088 825 1259 692 
Q 1431 559 1741 559 
Q 2081 559 2253 684 
Q 2369 772 2369 919 
Q 2369 1019 2306 1084 
Q 2241 1147 2013 1200 
Q 950 1434 666 1628 
Q 272 1897 272 2375 
Q 272 2806 612 3100 
Q 953 3394 1669 3394 
Q 2350 3394 2681 3172 
Q 3013 2950 3138 2516 
L 2309 2363 
Q 2256 2556 2107 2659 
Q 1959 2763 1684 2763 
Q 1338 2763 1188 2666 
Q 1088 2597 1088 2488 
Q 1088 2394 1175 2328 
Q 1294 2241 1995 2081 
Q 2697 1922 2975 1691 
Q 3250 1456 3250 1038 
Q 3250 581 2869 253 
Q 2488 -75 1741 -75 
Q 1063 -75 667 200 
Q 272 475 150 947 
z
" transform="scale(0.015625)"/>
       <path id="Arial-BoldMT-6f" d="M 256 1706 
Q 256 2144 472 2553 
Q 688 2963 1083 3178 
Q 1478 3394 1966 3394 
Q 2719 3394 3200 2905 
Q 3681 2416 3681 1669 
Q 3681 916 3195 420 
Q 2709 -75 1972 -75 
Q 1516 -75 1102 131 
Q 688 338 472 736 
Q 256 1134 256 1706 
z
M 1156 1659 
Q 1156 1166 1390 903 
Q 1625 641 1969 641 
Q 2313 641 2545 903 
Q 2778 1166 2778 1666 
Q 2778 2153 2545 2415 
Q 2313 2678 1969 2678 
Q 1625 2678 1390 2415 
Q 1156 2153 1156 1659 
z
" transform="scale(0.015625)"/>
       <path id="DejaVuSans-BoldOblique-4e" d="M 1044 4666 
L 2388 4666 
L 3456 1434 
L 4084 4666 
L 5222 4666 
L 4313 0 
L 2969 0 
L 1900 3231 
L 1275 0 
L 134 0 
L 1044 4666 
z
" transform="scale(0.015625)"/>
       <path id="DejaVuSans-BoldOblique-6d" d="M 4013 2919 
Q 4272 3241 4601 3412 
Q 4931 3584 5288 3584 
Q 5756 3584 6026 3326 
Q 6297 3069 6297 2619 
Q 6297 2525 6283 2404 
Q 6269 2284 6241 2131 
L 5825 0 
L 4697 0 
L 5050 1825 
L 5059 1872 
Q 5141 2259 5141 2369 
Q 5141 2541 5042 2641 
Q 4944 2741 4775 2741 
Q 4453 2741 4229 2477 
Q 4006 2213 3909 1722 
L 3572 0 
L 2444 0 
L 2803 1825 
Q 2850 2059 2869 2179 
Q 2888 2300 2888 2369 
Q 2888 2544 2791 2642 
Q 2694 2741 2522 2741 
Q 2213 2741 1980 2467 
Q 1747 2194 1656 1722 
L 1319 0 
L 197 0 
L 878 3500 
L 2003 3500 
L 1900 2988 
Q 2163 3284 2459 3434 
Q 2756 3584 3078 3584 
Q 3441 3584 3700 3398 
Q 3959 3213 4013 2919 
z
" transform="scale(0.015625)"/>
       <path id="DejaVuSans-BoldOblique-74" d="M 2303 4494 
L 2113 3500 
L 3256 3500 
L 3097 2700 
L 1953 2700 
L 1666 1219 
Q 1653 1169 1648 1134 
Q 1644 1100 1644 1069 
Q 1644 925 1739 862 
Q 1834 800 2059 800 
L 2638 800 
L 2478 0 
L 1538 0 
Q 1031 0 765 212 
Q 500 425 500 825 
Q 500 913 509 1013 
Q 519 1113 538 1216 
L 825 2700 
L 275 2700 
L 428 3500 
L 984 3500 
L 1178 4494 
L 2303 4494 
z
" transform="scale(0.015625)"/>
       <path id="Arial-BoldMT-28" d="M 1916 -1347 
L 1313 -1347 
Q 834 -625 584 153 
Q 334 931 334 1659 
Q 334 2563 644 3369 
Q 913 4069 1325 4659 
L 1925 4659 
Q 1497 3713 1336 3048 
Q 1175 2384 1175 1641 
Q 1175 1128 1270 590 
Q 1366 53 1531 -431 
Q 1641 -750 1916 -1347 
z
" transform="scale(0.015625)"/>
       <path id="DejaVuSans-Bold-d7" d="M 4563 3359 
L 3206 2003 
L 4563 653 
L 4038 128 
L 2681 1478 
L 1325 128 
L 800 653 
L 2156 2003 
L 800 3359 
L 1325 3884 
L 2681 2528 
L 4038 3884 
L 4563 3359 
z
" transform="scale(0.015625)"/>
       <path id="DejaVuSans-Bold-31" d="M 750 831 
L 1813 831 
L 1813 3847 
L 722 3622 
L 722 4441 
L 1806 4666 
L 2950 4666 
L 2950 831 
L 4013 831 
L 4013 0 
L 750 0 
L 750 831 
z
" transform="scale(0.015625)"/>
       <path id="DejaVuSans-Bold-30" d="M 2944 2338 
Q 2944 3213 2780 3570 
Q 2616 3928 2228 3928 
Q 1841 3928 1675 3570 
Q 1509 3213 1509 2338 
Q 1509 1453 1675 1090 
Q 1841 728 2228 728 
Q 2613 728 2778 1090 
Q 2944 1453 2944 2338 
z
M 4147 2328 
Q 4147 1169 3647 539 
Q 3147 -91 2228 -91 
Q 1306 -91 806 539 
Q 306 1169 306 2328 
Q 306 3491 806 4120 
Q 1306 4750 2228 4750 
Q 3147 4750 3647 4120 
Q 4147 3491 4147 2328 
z
" transform="scale(0.015625)"/>
       <path id="DejaVuSans-Bold-36" d="M 2316 2303 
Q 2000 2303 1842 2098 
Q 1684 1894 1684 1484 
Q 1684 1075 1842 870 
Q 2000 666 2316 666 
Q 2634 666 2792 870 
Q 2950 1075 2950 1484 
Q 2950 1894 2792 2098 
Q 2634 2303 2316 2303 
z
M 3803 4544 
L 3803 3681 
Q 3506 3822 3243 3889 
Q 2981 3956 2731 3956 
Q 2194 3956 1894 3657 
Q 1594 3359 1544 2772 
Q 1750 2925 1990 3001 
Q 2231 3078 2516 3078 
Q 3231 3078 3670 2659 
Q 4109 2241 4109 1563 
Q 4109 813 3618 361 
Q 3128 -91 2303 -91 
Q 1394 -91 895 523 
Q 397 1138 397 2266 
Q 397 3422 980 4083 
Q 1563 4744 2578 4744 
Q 2900 4744 3203 4694 
Q 3506 4644 3803 4544 
z
" transform="scale(0.015625)"/>
       <path id="Arial-BoldMT-29" d="M 216 -1347 
Q 475 -791 581 -494 
Q 688 -197 778 190 
Q 869 578 912 926 
Q 956 1275 956 1641 
Q 956 2384 797 3048 
Q 638 3713 209 4659 
L 806 4659 
Q 1278 3988 1539 3234 
Q 1800 2481 1800 1706 
Q 1800 1053 1594 306 
Q 1359 -531 822 -1347 
L 216 -1347 
z
" transform="scale(0.015625)"/>
      </defs>
      <use xlink:href="#Arial-BoldMT-50" transform="translate(0 0.83125)"/>
      <use xlink:href="#Arial-BoldMT-61" transform="translate(66.699219 0.83125)"/>
      <use xlink:href="#Arial-BoldMT-72" transform="translate(122.314453 0.83125)"/>
      <use xlink:href="#Arial-BoldMT-61" transform="translate(161.230469 0.83125)"/>
      <use xlink:href="#Arial-BoldMT-6d" transform="translate(216.845703 0.83125)"/>
      <use xlink:href="#Arial-BoldMT-65" transform="translate(305.761719 0.83125)"/>
      <use xlink:href="#Arial-BoldMT-74" transform="translate(361.376953 0.83125)"/>
      <use xlink:href="#Arial-BoldMT-65" transform="translate(394.677734 0.83125)"/>
      <use xlink:href="#Arial-BoldMT-72" transform="translate(450.292969 0.83125)"/>
      <use xlink:href="#Arial-BoldMT-20" transform="translate(489.208984 0.83125)"/>
      <use xlink:href="#Arial-BoldMT-44" transform="translate(516.992188 0.83125)"/>
      <use xlink:href="#Arial-BoldMT-69" transform="translate(589.208984 0.83125)"/>
      <use xlink:href="#Arial-BoldMT-6d" transform="translate(616.992188 0.83125)"/>
      <use xlink:href="#Arial-BoldMT-65" transform="translate(705.908203 0.83125)"/>
      <use xlink:href="#Arial-BoldMT-6e" transform="translate(761.523438 0.83125)"/>
      <use xlink:href="#Arial-BoldMT-73" transform="translate(822.607422 0.83125)"/>
      <use xlink:href="#Arial-BoldMT-69" transform="translate(878.222656 0.83125)"/>
      <use xlink:href="#Arial-BoldMT-6f" transform="translate(906.005859 0.83125)"/>
      <use xlink:href="#Arial-BoldMT-6e" transform="translate(967.089844 0.83125)"/>
      <use xlink:href="#Arial-BoldMT-20" transform="translate(1028.173828 0.83125)"/>
      <use xlink:href="#DejaVuSans-BoldOblique-4e" transform="translate(1055.957031 0.83125)"/>
      <use xlink:href="#DejaVuSans-BoldOblique-6d" transform="translate(1139.648438 -15.575) scale(0.7)"/>
      <use xlink:href="#DejaVuSans-BoldOblique-4e" transform="translate(1215.322266 0.83125)"/>
      <use xlink:href="#DejaVuSans-BoldOblique-74" transform="translate(1299.013672 -15.575) scale(0.7)"/>
      <use xlink:href="#Arial-BoldMT-20" transform="translate(1335.209961 0.83125)"/>
      <use xlink:href="#Arial-BoldMT-28" transform="translate(1362.993164 0.83125)"/>
      <use xlink:href="#DejaVuSans-Bold-d7" transform="translate(1396.293945 0.83125)"/>
      <use xlink:href="#DejaVuSans-Bold-31" transform="translate(1480.083008 0.83125)"/>
      <use xlink:href="#DejaVuSans-Bold-30" transform="translate(1549.663086 0.83125)"/>
      <use xlink:href="#DejaVuSans-Bold-36" transform="translate(1620.200195 39.1125) scale(0.7)"/>
      <use xlink:href="#Arial-BoldMT-29" transform="translate(1671.640625 0.83125)"/>
     </g>
    </g>
   </g>
   <g id="matplotlib.axis_2">
    <g id="ytick_1">
     <g id="line2d_17">
      <path d="M 83.08875 721.155628 
L 809.40075 721.155628 
" clip-path="url(#pd17c8332b0)" style="fill: none; stroke: #cccccc; stroke-width: 2; stroke-linecap: round"/>
     </g>
     <g id="line2d_18">
      <defs>
       <path id="m6bac6c30aa" d="M 0 0 
L -12 0 
" style="stroke: #262626; stroke-width: 2.5"/>
      </defs>
      <g>
       <use xlink:href="#m6bac6c30aa" x="83.08875" y="721.155628" style="fill: #262626; stroke: #262626; stroke-width: 2.5"/>
      </g>
     </g>
     <g id="text_10">
      <!-- 2 -->
      <g style="fill: #262626" transform="translate(52.907875 730.603941) scale(0.264 -0.264)">
       <use xlink:href="#Arial-BoldMT-32"/>
      </g>
     </g>
    </g>
    <g id="ytick_2">
     <g id="line2d_19">
      <path d="M 83.08875 605.481 
L 809.40075 605.481 
" clip-path="url(#pd17c8332b0)" style="fill: none; stroke: #cccccc; stroke-width: 2; stroke-linecap: round"/>
     </g>
     <g id="line2d_20">
      <g>
       <use xlink:href="#m6bac6c30aa" x="83.08875" y="605.481" style="fill: #262626; stroke: #262626; stroke-width: 2.5"/>
      </g>
     </g>
     <g id="text_11">
      <!-- 4 -->
      <g style="fill: #262626" transform="translate(52.907875 614.929312) scale(0.264 -0.264)">
       <use xlink:href="#Arial-BoldMT-34"/>
      </g>
     </g>
    </g>
    <g id="ytick_3">
     <g id="line2d_21">
      <path d="M 83.08875 489.806371 
L 809.40075 489.806371 
" clip-path="url(#pd17c8332b0)" style="fill: none; stroke: #cccccc; stroke-width: 2; stroke-linecap: round"/>
     </g>
     <g id="line2d_22">
      <g>
       <use xlink:href="#m6bac6c30aa" x="83.08875" y="489.806371" style="fill: #262626; stroke: #262626; stroke-width: 2.5"/>
      </g>
     </g>
     <g id="text_12">
      <!-- 6 -->
      <g style="fill: #262626" transform="translate(52.907875 499.254683) scale(0.264 -0.264)">
       <use xlink:href="#Arial-BoldMT-36"/>
      </g>
     </g>
    </g>
    <g id="ytick_4">
     <g id="line2d_23">
      <path d="M 83.08875 374.131742 
L 809.40075 374.131742 
" clip-path="url(#pd17c8332b0)" style="fill: none; stroke: #cccccc; stroke-width: 2; stroke-linecap: round"/>
     </g>
     <g id="line2d_24">
      <g>
       <use xlink:href="#m6bac6c30aa" x="83.08875" y="374.131742" style="fill: #262626; stroke: #262626; stroke-width: 2.5"/>
      </g>
     </g>
     <g id="text_13">
      <!-- 8 -->
      <g style="fill: #262626" transform="translate(52.907875 383.580054) scale(0.264 -0.264)">
       <use xlink:href="#Arial-BoldMT-38"/>
      </g>
     </g>
    </g>
    <g id="ytick_5">
     <g id="line2d_25">
      <path d="M 83.08875 258.457113 
L 809.40075 258.457113 
" clip-path="url(#pd17c8332b0)" style="fill: none; stroke: #cccccc; stroke-width: 2; stroke-linecap: round"/>
     </g>
     <g id="line2d_26">
      <g>
       <use xlink:href="#m6bac6c30aa" x="83.08875" y="258.457113" style="fill: #262626; stroke: #262626; stroke-width: 2.5"/>
      </g>
     </g>
     <g id="text_14">
      <!-- 10 -->
      <g style="fill: #262626" transform="translate(38.227 267.905426) scale(0.264 -0.264)">
       <defs>
        <path id="Arial-BoldMT-31" d="M 2519 0 
L 1641 0 
L 1641 3309 
Q 1159 2859 506 2644 
L 506 3441 
Q 850 3553 1253 3867 
Q 1656 4181 1806 4600 
L 2519 4600 
L 2519 0 
z
" transform="scale(0.015625)"/>
        <path id="Arial-BoldMT-30" d="M 1756 4600 
Q 2422 4600 2797 4125 
Q 3244 3563 3244 2259 
Q 3244 959 2794 391 
Q 2422 -78 1756 -78 
Q 1088 -78 678 436 
Q 269 950 269 2269 
Q 269 3563 719 4131 
Q 1091 4600 1756 4600 
z
M 1756 3872 
Q 1597 3872 1472 3770 
Q 1347 3669 1278 3406 
Q 1188 3066 1188 2259 
Q 1188 1453 1269 1151 
Q 1350 850 1473 750 
Q 1597 650 1756 650 
Q 1916 650 2041 751 
Q 2166 853 2234 1116 
Q 2325 1453 2325 2259 
Q 2325 3066 2244 3367 
Q 2163 3669 2039 3770 
Q 1916 3872 1756 3872 
z
" transform="scale(0.015625)"/>
       </defs>
       <use xlink:href="#Arial-BoldMT-31"/>
       <use xlink:href="#Arial-BoldMT-30" x="55.615234"/>
      </g>
     </g>
    </g>
    <g id="ytick_6">
     <g id="line2d_27">
      <path d="M 83.08875 142.782484 
L 809.40075 142.782484 
" clip-path="url(#pd17c8332b0)" style="fill: none; stroke: #cccccc; stroke-width: 2; stroke-linecap: round"/>
     </g>
     <g id="line2d_28">
      <g>
       <use xlink:href="#m6bac6c30aa" x="83.08875" y="142.782484" style="fill: #262626; stroke: #262626; stroke-width: 2.5"/>
      </g>
     </g>
     <g id="text_15">
      <!-- 12 -->
      <g style="fill: #262626" transform="translate(38.227 152.230797) scale(0.264 -0.264)">
       <use xlink:href="#Arial-BoldMT-31"/>
       <use xlink:href="#Arial-BoldMT-32" x="55.615234"/>
      </g>
     </g>
    </g>
    <g id="ytick_7">
     <g id="line2d_29">
      <defs>
       <path id="m21d4902a4f" d="M 0 0 
L -8 0 
" style="stroke: #262626; stroke-width: 2"/>
      </defs>
      <g>
       <use xlink:href="#m21d4902a4f" x="83.08875" y="692.236971" style="fill: #262626; stroke: #262626; stroke-width: 2"/>
      </g>
     </g>
    </g>
    <g id="ytick_8">
     <g id="line2d_30">
      <g>
       <use xlink:href="#m21d4902a4f" x="83.08875" y="663.318314" style="fill: #262626; stroke: #262626; stroke-width: 2"/>
      </g>
     </g>
    </g>
    <g id="ytick_9">
     <g id="line2d_31">
      <g>
       <use xlink:href="#m21d4902a4f" x="83.08875" y="634.399657" style="fill: #262626; stroke: #262626; stroke-width: 2"/>
      </g>
     </g>
    </g>
    <g id="ytick_10">
     <g id="line2d_32">
      <g>
       <use xlink:href="#m21d4902a4f" x="83.08875" y="576.562342" style="fill: #262626; stroke: #262626; stroke-width: 2"/>
      </g>
     </g>
    </g>
    <g id="ytick_11">
     <g id="line2d_33">
      <g>
       <use xlink:href="#m21d4902a4f" x="83.08875" y="547.643685" style="fill: #262626; stroke: #262626; stroke-width: 2"/>
      </g>
     </g>
    </g>
    <g id="ytick_12">
     <g id="line2d_34">
      <g>
       <use xlink:href="#m21d4902a4f" x="83.08875" y="518.725028" style="fill: #262626; stroke: #262626; stroke-width: 2"/>
      </g>
     </g>
    </g>
    <g id="ytick_13">
     <g id="line2d_35">
      <g>
       <use xlink:href="#m21d4902a4f" x="83.08875" y="460.887714" style="fill: #262626; stroke: #262626; stroke-width: 2"/>
      </g>
     </g>
    </g>
    <g id="ytick_14">
     <g id="line2d_36">
      <g>
       <use xlink:href="#m21d4902a4f" x="83.08875" y="431.969056" style="fill: #262626; stroke: #262626; stroke-width: 2"/>
      </g>
     </g>
    </g>
    <g id="ytick_15">
     <g id="line2d_37">
      <g>
       <use xlink:href="#m21d4902a4f" x="83.08875" y="403.050399" style="fill: #262626; stroke: #262626; stroke-width: 2"/>
      </g>
     </g>
    </g>
    <g id="ytick_16">
     <g id="line2d_38">
      <g>
       <use xlink:href="#m21d4902a4f" x="83.08875" y="345.213085" style="fill: #262626; stroke: #262626; stroke-width: 2"/>
      </g>
     </g>
    </g>
    <g id="ytick_17">
     <g id="line2d_39">
      <g>
       <use xlink:href="#m21d4902a4f" x="83.08875" y="316.294428" style="fill: #262626; stroke: #262626; stroke-width: 2"/>
      </g>
     </g>
    </g>
    <g id="ytick_18">
     <g id="line2d_40">
      <g>
       <use xlink:href="#m21d4902a4f" x="83.08875" y="287.37577" style="fill: #262626; stroke: #262626; stroke-width: 2"/>
      </g>
     </g>
    </g>
    <g id="ytick_19">
     <g id="line2d_41">
      <g>
       <use xlink:href="#m21d4902a4f" x="83.08875" y="229.538456" style="fill: #262626; stroke: #262626; stroke-width: 2"/>
      </g>
     </g>
    </g>
    <g id="ytick_20">
     <g id="line2d_42">
      <g>
       <use xlink:href="#m21d4902a4f" x="83.08875" y="200.619799" style="fill: #262626; stroke: #262626; stroke-width: 2"/>
      </g>
     </g>
    </g>
    <g id="ytick_21">
     <g id="line2d_43">
      <g>
       <use xlink:href="#m21d4902a4f" x="83.08875" y="171.701142" style="fill: #262626; stroke: #262626; stroke-width: 2"/>
      </g>
     </g>
    </g>
    <g id="ytick_22">
     <g id="line2d_44">
      <g>
       <use xlink:href="#m21d4902a4f" x="83.08875" y="113.863827" style="fill: #262626; stroke: #262626; stroke-width: 2"/>
      </g>
     </g>
    </g>
    <g id="ytick_23">
     <g id="line2d_45">
      <g>
       <use xlink:href="#m21d4902a4f" x="83.08875" y="84.94517" style="fill: #262626; stroke: #262626; stroke-width: 2"/>
      </g>
     </g>
    </g>
    <g id="ytick_24">
     <g id="line2d_46">
      <g>
       <use xlink:href="#m21d4902a4f" x="83.08875" y="56.026513" style="fill: #262626; stroke: #262626; stroke-width: 2"/>
      </g>
     </g>
    </g>
    <g id="text_16">
     <!-- Time (ms) -->
     <g style="fill: #262626" transform="translate(28.1655 457.87875) rotate(-90) scale(0.288 -0.288)">
      <defs>
       <path id="Arial-BoldMT-54" d="M 1497 0 
L 1497 3806 
L 138 3806 
L 138 4581 
L 3778 4581 
L 3778 3806 
L 2422 3806 
L 2422 0 
L 1497 0 
z
" transform="scale(0.015625)"/>
      </defs>
      <use xlink:href="#Arial-BoldMT-54"/>
      <use xlink:href="#Arial-BoldMT-69" x="59.333984"/>
      <use xlink:href="#Arial-BoldMT-6d" x="87.117188"/>
      <use xlink:href="#Arial-BoldMT-65" x="176.033203"/>
      <use xlink:href="#Arial-BoldMT-20" x="231.648438"/>
      <use xlink:href="#Arial-BoldMT-28" x="259.431641"/>
      <use xlink:href="#Arial-BoldMT-6d" x="292.732422"/>
      <use xlink:href="#Arial-BoldMT-73" x="381.648438"/>
      <use xlink:href="#Arial-BoldMT-29" x="437.263672"/>
     </g>
    </g>
   </g>
   <g id="line2d_47">
    <path d="M 116.102932 689.491434 
L 210.429166 668.660168 
L 304.755399 646.303733 
L 399.081633 626.473631 
L 493.407867 607.195298 
L 587.734101 586.239103 
L 682.060334 565.756019 
L 776.386568 546.619965 
" clip-path="url(#pd17c8332b0)" style="fill: none; stroke: #ffb012; stroke-width: 3; stroke-linecap: round"/>
    <defs>
     <path id="m9bf02bbd54" d="M 0 6 
C 1.591219 6 3.117479 5.367802 4.242641 4.242641 
C 5.367802 3.117479 6 1.591219 6 0 
C 6 -1.591219 5.367802 -3.117479 4.242641 -4.242641 
C 3.117479 -5.367802 1.591219 -6 0 -6 
C -1.591219 -6 -3.117479 -5.367802 -4.242641 -4.242641 
C -5.367802 -3.117479 -6 -1.591219 -6 0 
C -6 1.591219 -5.367802 3.117479 -4.242641 4.242641 
C -3.117479 5.367802 -1.591219 6 0 6 
z
" style="stroke: #ffb012"/>
    </defs>
    <g clip-path="url(#pd17c8332b0)">
     <use xlink:href="#m9bf02bbd54" x="116.102932" y="689.491434" style="fill: #ffb012; stroke: #ffb012"/>
     <use xlink:href="#m9bf02bbd54" x="210.429166" y="668.660168" style="fill: #ffb012; stroke: #ffb012"/>
     <use xlink:href="#m9bf02bbd54" x="304.755399" y="646.303733" style="fill: #ffb012; stroke: #ffb012"/>
     <use xlink:href="#m9bf02bbd54" x="399.081633" y="626.473631" style="fill: #ffb012; stroke: #ffb012"/>
     <use xlink:href="#m9bf02bbd54" x="493.407867" y="607.195298" style="fill: #ffb012; stroke: #ffb012"/>
     <use xlink:href="#m9bf02bbd54" x="587.734101" y="586.239103" style="fill: #ffb012; stroke: #ffb012"/>
     <use xlink:href="#m9bf02bbd54" x="682.060334" y="565.756019" style="fill: #ffb012; stroke: #ffb012"/>
     <use xlink:href="#m9bf02bbd54" x="776.386568" y="546.619965" style="fill: #ffb012; stroke: #ffb012"/>
    </g>
   </g>
   <g id="line2d_48">
    <path d="M 116.102932 677.491926 
L 210.429166 642.672706 
L 304.755399 607.375172 
L 399.081633 575.100215 
L 493.407867 540.601992 
L 587.734101 508.224085 
L 682.060334 473.197229 
L 776.386568 440.753966 
" clip-path="url(#pd17c8332b0)" style="fill: none; stroke: #ff5c7d; stroke-width: 3; stroke-linecap: round"/>
    <defs>
     <path id="m1e092e7a3b" d="M 0 6 
C 1.591219 6 3.117479 5.367802 4.242641 4.242641 
C 5.367802 3.117479 6 1.591219 6 0 
C 6 -1.591219 5.367802 -3.117479 4.242641 -4.242641 
C 3.117479 -5.367802 1.591219 -6 0 -6 
C -1.591219 -6 -3.117479 -5.367802 -4.242641 -4.242641 
C -5.367802 -3.117479 -6 -1.591219 -6 0 
C -6 1.591219 -5.367802 3.117479 -4.242641 4.242641 
C -3.117479 5.367802 -1.591219 6 0 6 
z
" style="stroke: #ff5c7d"/>
    </defs>
    <g clip-path="url(#pd17c8332b0)">
     <use xlink:href="#m1e092e7a3b" x="116.102932" y="677.491926" style="fill: #ff5c7d; stroke: #ff5c7d"/>
     <use xlink:href="#m1e092e7a3b" x="210.429166" y="642.672706" style="fill: #ff5c7d; stroke: #ff5c7d"/>
     <use xlink:href="#m1e092e7a3b" x="304.755399" y="607.375172" style="fill: #ff5c7d; stroke: #ff5c7d"/>
     <use xlink:href="#m1e092e7a3b" x="399.081633" y="575.100215" style="fill: #ff5c7d; stroke: #ff5c7d"/>
     <use xlink:href="#m1e092e7a3b" x="493.407867" y="540.601992" style="fill: #ff5c7d; stroke: #ff5c7d"/>
     <use xlink:href="#m1e092e7a3b" x="587.734101" y="508.224085" style="fill: #ff5c7d; stroke: #ff5c7d"/>
     <use xlink:href="#m1e092e7a3b" x="682.060334" y="473.197229" style="fill: #ff5c7d; stroke: #ff5c7d"/>
     <use xlink:href="#m1e092e7a3b" x="776.386568" y="440.753966" style="fill: #ff5c7d; stroke: #ff5c7d"/>
    </g>
   </g>
   <g id="line2d_49">
    <path d="M 116.102932 662.592456 
L 210.429166 612.088334 
L 304.755399 566.555909 
L 399.081633 511.970208 
L 493.407867 465.31863 
L 587.734101 418.012912 
L 682.060334 362.252536 
L 776.386568 308.836306 
" clip-path="url(#pd17c8332b0)" style="fill: none; stroke: #4fa6ff; stroke-width: 3; stroke-linecap: round"/>
    <defs>
     <path id="m9460fab2c7" d="M 0 6 
C 1.591219 6 3.117479 5.367802 4.242641 4.242641 
C 5.367802 3.117479 6 1.591219 6 0 
C 6 -1.591219 5.367802 -3.117479 4.242641 -4.242641 
C 3.117479 -5.367802 1.591219 -6 0 -6 
C -1.591219 -6 -3.117479 -5.367802 -4.242641 -4.242641 
C -5.367802 -3.117479 -6 -1.591219 -6 0 
C -6 1.591219 -5.367802 3.117479 -4.242641 4.242641 
C -3.117479 5.367802 -1.591219 6 0 6 
z
" style="stroke: #4fa6ff"/>
    </defs>
    <g clip-path="url(#pd17c8332b0)">
     <use xlink:href="#m9460fab2c7" x="116.102932" y="662.592456" style="fill: #4fa6ff; stroke: #4fa6ff"/>
     <use xlink:href="#m9460fab2c7" x="210.429166" y="612.088334" style="fill: #4fa6ff; stroke: #4fa6ff"/>
     <use xlink:href="#m9460fab2c7" x="304.755399" y="566.555909" style="fill: #4fa6ff; stroke: #4fa6ff"/>
     <use xlink:href="#m9460fab2c7" x="399.081633" y="511.970208" style="fill: #4fa6ff; stroke: #4fa6ff"/>
     <use xlink:href="#m9460fab2c7" x="493.407867" y="465.31863" style="fill: #4fa6ff; stroke: #4fa6ff"/>
     <use xlink:href="#m9460fab2c7" x="587.734101" y="418.012912" style="fill: #4fa6ff; stroke: #4fa6ff"/>
     <use xlink:href="#m9460fab2c7" x="682.060334" y="362.252536" style="fill: #4fa6ff; stroke: #4fa6ff"/>
     <use xlink:href="#m9460fab2c7" x="776.386568" y="308.836306" style="fill: #4fa6ff; stroke: #4fa6ff"/>
    </g>
   </g>
   <g id="line2d_50">
    <path d="M 116.102932 653.002451 
L 210.429166 587.616788 
L 304.755399 526.416812 
L 399.081633 465.241128 
L 493.407867 399.784326 
L 587.734101 338.429925 
L 682.060334 274.759139 
L 776.386568 218.080306 
" clip-path="url(#pd17c8332b0)" style="fill: none; stroke: #b36aff; stroke-width: 3; stroke-linecap: round"/>
    <defs>
     <path id="m067f99e574" d="M 0 6 
C 1.591219 6 3.117479 5.367802 4.242641 4.242641 
C 5.367802 3.117479 6 1.591219 6 0 
C 6 -1.591219 5.367802 -3.117479 4.242641 -4.242641 
C 3.117479 -5.367802 1.591219 -6 0 -6 
C -1.591219 -6 -3.117479 -5.367802 -4.242641 -4.242641 
C -5.367802 -3.117479 -6 -1.591219 -6 0 
C -6 1.591219 -5.367802 3.117479 -4.242641 4.242641 
C -3.117479 5.367802 -1.591219 6 0 6 
z
" style="stroke: #b36aff"/>
    </defs>
    <g clip-path="url(#pd17c8332b0)">
     <use xlink:href="#m067f99e574" x="116.102932" y="653.002451" style="fill: #b36aff; stroke: #b36aff"/>
     <use xlink:href="#m067f99e574" x="210.429166" y="587.616788" style="fill: #b36aff; stroke: #b36aff"/>
     <use xlink:href="#m067f99e574" x="304.755399" y="526.416812" style="fill: #b36aff; stroke: #b36aff"/>
     <use xlink:href="#m067f99e574" x="399.081633" y="465.241128" style="fill: #b36aff; stroke: #b36aff"/>
     <use xlink:href="#m067f99e574" x="493.407867" y="399.784326" style="fill: #b36aff; stroke: #b36aff"/>
     <use xlink:href="#m067f99e574" x="587.734101" y="338.429925" style="fill: #b36aff; stroke: #b36aff"/>
     <use xlink:href="#m067f99e574" x="682.060334" y="274.759139" style="fill: #b36aff; stroke: #b36aff"/>
     <use xlink:href="#m067f99e574" x="776.386568" y="218.080306" style="fill: #b36aff; stroke: #b36aff"/>
    </g>
   </g>
   <g id="line2d_51">
    <path d="M 116.102932 634.78601 
L 210.429166 556.664571 
L 304.755399 482.754845 
L 399.081633 401.984457 
L 493.407867 316.681359 
L 587.734101 239.375426 
L 682.060334 185.357688 
L 776.386568 105.299278 
" clip-path="url(#pd17c8332b0)" style="fill: none; stroke: #46ddaf; stroke-width: 3; stroke-linecap: round"/>
    <defs>
     <path id="m68eac9b5cb" d="M 0 6 
C 1.591219 6 3.117479 5.367802 4.242641 4.242641 
C 5.367802 3.117479 6 1.591219 6 0 
C 6 -1.591219 5.367802 -3.117479 4.242641 -4.242641 
C 3.117479 -5.367802 1.591219 -6 0 -6 
C -1.591219 -6 -3.117479 -5.367802 -4.242641 -4.242641 
C -5.367802 -3.117479 -6 -1.591219 -6 0 
C -6 1.591219 -5.367802 3.117479 -4.242641 4.242641 
C -3.117479 5.367802 -1.591219 6 0 6 
z
" style="stroke: #46ddaf"/>
    </defs>
    <g clip-path="url(#pd17c8332b0)">
     <use xlink:href="#m68eac9b5cb" x="116.102932" y="634.78601" style="fill: #46ddaf; stroke: #46ddaf"/>
     <use xlink:href="#m68eac9b5cb" x="210.429166" y="556.664571" style="fill: #46ddaf; stroke: #46ddaf"/>
     <use xlink:href="#m68eac9b5cb" x="304.755399" y="482.754845" style="fill: #46ddaf; stroke: #46ddaf"/>
     <use xlink:href="#m68eac9b5cb" x="399.081633" y="401.984457" style="fill: #46ddaf; stroke: #46ddaf"/>
     <use xlink:href="#m68eac9b5cb" x="493.407867" y="316.681359" style="fill: #46ddaf; stroke: #46ddaf"/>
     <use xlink:href="#m68eac9b5cb" x="587.734101" y="239.375426" style="fill: #46ddaf; stroke: #46ddaf"/>
     <use xlink:href="#m68eac9b5cb" x="682.060334" y="185.357688" style="fill: #46ddaf; stroke: #46ddaf"/>
     <use xlink:href="#m68eac9b5cb" x="776.386568" y="105.299278" style="fill: #46ddaf; stroke: #46ddaf"/>
    </g>
   </g>
   <g id="patch_3">
    <path d="M 83.08875 727.49 
L 83.08875 52.75 
" style="fill: none; stroke: #262626; stroke-width: 2.5; stroke-linejoin: miter; stroke-linecap: square"/>
   </g>
   <g id="patch_4">
    <path d="M 809.40075 727.49 
L 809.40075 52.75 
" style="fill: none; stroke: #262626; stroke-width: 2.5; stroke-linejoin: miter; stroke-linecap: square"/>
   </g>
   <g id="patch_5">
    <path d="M 83.08875 727.49 
L 809.40075 727.49 
" style="fill: none; stroke: #262626; stroke-width: 2.5; stroke-linejoin: miter; stroke-linecap: square"/>
   </g>
   <g id="patch_6">
    <path d="M 83.08875 52.75 
L 809.40075 52.75 
" style="fill: none; stroke: #262626; stroke-width: 2.5; stroke-linejoin: miter; stroke-linecap: square"/>
   </g>
   <g id="text_17">
    <!-- $\mathbf{F}$ Matvec Timings -->
    <g style="fill: #262626" transform="translate(298.01975 32.75) scale(0.35 -0.35)">
     <defs>
      <path id="DejaVuSans-Bold-46" d="M 588 4666 
L 3834 4666 
L 3834 3756 
L 1791 3756 
L 1791 2888 
L 3713 2888 
L 3713 1978 
L 1791 1978 
L 1791 0 
L 588 0 
L 588 4666 
z
" transform="scale(0.015625)"/>
      <path id="Arial-BoldMT-4d" d="M 453 0 
L 453 4581 
L 1838 4581 
L 2669 1456 
L 3491 4581 
L 4878 4581 
L 4878 0 
L 4019 0 
L 4019 3606 
L 3109 0 
L 2219 0 
L 1313 3606 
L 1313 0 
L 453 0 
z
" transform="scale(0.015625)"/>
      <path id="Arial-BoldMT-76" d="M 1372 0 
L 34 3319 
L 956 3319 
L 1581 1625 
L 1763 1059 
Q 1834 1275 1853 1344 
Q 1897 1484 1947 1625 
L 2578 3319 
L 3481 3319 
L 2163 0 
L 1372 0 
z
" transform="scale(0.015625)"/>
      <path id="Arial-BoldMT-63" d="M 3353 2338 
L 2488 2181 
Q 2444 2441 2289 2572 
Q 2134 2703 1888 2703 
Q 1559 2703 1364 2476 
Q 1169 2250 1169 1719 
Q 1169 1128 1367 884 
Q 1566 641 1900 641 
Q 2150 641 2309 783 
Q 2469 925 2534 1272 
L 3397 1125 
Q 3263 531 2881 228 
Q 2500 -75 1859 -75 
Q 1131 -75 698 384 
Q 266 844 266 1656 
Q 266 2478 700 2936 
Q 1134 3394 1875 3394 
Q 2481 3394 2839 3133 
Q 3197 2872 3353 2338 
z
" transform="scale(0.015625)"/>
      <path id="Arial-BoldMT-67" d="M 378 -219 
L 1381 -341 
Q 1406 -516 1497 -581 
Q 1622 -675 1891 -675 
Q 2234 -675 2406 -572 
Q 2522 -503 2581 -350 
Q 2622 -241 2622 53 
L 2622 538 
Q 2228 0 1628 0 
Q 959 0 569 566 
Q 263 1013 263 1678 
Q 263 2513 664 2953 
Q 1066 3394 1663 3394 
Q 2278 3394 2678 2853 
L 2678 3319 
L 3500 3319 
L 3500 341 
Q 3500 -247 3403 -537 
Q 3306 -828 3131 -993 
Q 2956 -1159 2664 -1253 
Q 2372 -1347 1925 -1347 
Q 1081 -1347 728 -1058 
Q 375 -769 375 -325 
Q 375 -281 378 -219 
z
M 1163 1728 
Q 1163 1200 1367 954 
Q 1572 709 1872 709 
Q 2194 709 2416 961 
Q 2638 1213 2638 1706 
Q 2638 2222 2425 2472 
Q 2213 2722 1888 2722 
Q 1572 2722 1367 2476 
Q 1163 2231 1163 1728 
z
" transform="scale(0.015625)"/>
     </defs>
     <use xlink:href="#DejaVuSans-Bold-46" transform="translate(0 0.09375)"/>
     <use xlink:href="#Arial-BoldMT-20" transform="translate(68.310547 0.09375)"/>
     <use xlink:href="#Arial-BoldMT-4d" transform="translate(96.09375 0.09375)"/>
     <use xlink:href="#Arial-BoldMT-61" transform="translate(179.394531 0.09375)"/>
     <use xlink:href="#Arial-BoldMT-74" transform="translate(235.009766 0.09375)"/>
     <use xlink:href="#Arial-BoldMT-76" transform="translate(268.310547 0.09375)"/>
     <use xlink:href="#Arial-BoldMT-65" transform="translate(323.925781 0.09375)"/>
     <use xlink:href="#Arial-BoldMT-63" transform="translate(379.541016 0.09375)"/>
     <use xlink:href="#Arial-BoldMT-20" transform="translate(435.15625 0.09375)"/>
     <use xlink:href="#Arial-BoldMT-54" transform="translate(462.939453 0.09375)"/>
     <use xlink:href="#Arial-BoldMT-69" transform="translate(524.023438 0.09375)"/>
     <use xlink:href="#Arial-BoldMT-6d" transform="translate(551.806641 0.09375)"/>
     <use xlink:href="#Arial-BoldMT-69" transform="translate(640.722656 0.09375)"/>
     <use xlink:href="#Arial-BoldMT-6e" transform="translate(668.505859 0.09375)"/>
     <use xlink:href="#Arial-BoldMT-67" transform="translate(729.589844 0.09375)"/>
     <use xlink:href="#Arial-BoldMT-73" transform="translate(790.673828 0.09375)"/>
    </g>
   </g>
   <g id="legend_1">
    <g id="patch_7">
     <path d="M 101.56875 260.4025 
L 341.6025 260.4025 
Q 346.8825 260.4025 346.8825 255.1225 
L 346.8825 71.23 
Q 346.8825 65.95 341.6025 65.95 
L 101.56875 65.95 
Q 96.28875 65.95 96.28875 71.23 
L 96.28875 255.1225 
Q 96.28875 260.4025 101.56875 260.4025 
z
" style="fill: #ffffff; opacity: 0.8; stroke: #cccccc; stroke-width: 2; stroke-linejoin: miter"/>
    </g>
    <g id="line2d_52">
     <path d="M 106.84875 86.166625 
L 133.24875 86.166625 
L 159.64875 86.166625 
" style="fill: none; stroke: #ffb012; stroke-width: 3; stroke-linecap: round"/>
     <g>
      <use xlink:href="#m9bf02bbd54" x="133.24875" y="86.166625" style="fill: #ffb012; stroke: #ffb012"/>
     </g>
    </g>
    <g id="text_18">
     <!-- 20 Sensors -->
     <g style="fill: #262626" transform="translate(180.76875 95.406625) scale(0.264 -0.264)">
      <defs>
       <path id="Arial-BoldMT-53" d="M 231 1491 
L 1131 1578 
Q 1213 1125 1461 912 
Q 1709 700 2131 700 
Q 2578 700 2804 889 
Q 3031 1078 3031 1331 
Q 3031 1494 2936 1608 
Q 2841 1722 2603 1806 
Q 2441 1863 1863 2006 
Q 1119 2191 819 2459 
Q 397 2838 397 3381 
Q 397 3731 595 4036 
Q 794 4341 1167 4500 
Q 1541 4659 2069 4659 
Q 2931 4659 3367 4281 
Q 3803 3903 3825 3272 
L 2900 3231 
Q 2841 3584 2645 3739 
Q 2450 3894 2059 3894 
Q 1656 3894 1428 3728 
Q 1281 3622 1281 3444 
Q 1281 3281 1419 3166 
Q 1594 3019 2269 2859 
Q 2944 2700 3267 2529 
Q 3591 2359 3773 2064 
Q 3956 1769 3956 1334 
Q 3956 941 3737 597 
Q 3519 253 3119 86 
Q 2719 -81 2122 -81 
Q 1253 -81 787 320 
Q 322 722 231 1491 
z
" transform="scale(0.015625)"/>
      </defs>
      <use xlink:href="#Arial-BoldMT-32"/>
      <use xlink:href="#Arial-BoldMT-30" x="55.615234"/>
      <use xlink:href="#Arial-BoldMT-20" x="111.230469"/>
      <use xlink:href="#Arial-BoldMT-53" x="139.013672"/>
      <use xlink:href="#Arial-BoldMT-65" x="205.712891"/>
      <use xlink:href="#Arial-BoldMT-6e" x="261.328125"/>
      <use xlink:href="#Arial-BoldMT-73" x="322.412109"/>
      <use xlink:href="#Arial-BoldMT-6f" x="378.027344"/>
      <use xlink:href="#Arial-BoldMT-72" x="439.111328"/>
      <use xlink:href="#Arial-BoldMT-73" x="478.027344"/>
     </g>
    </g>
    <g id="line2d_53">
     <path d="M 106.84875 123.473125 
L 133.24875 123.473125 
L 159.64875 123.473125 
" style="fill: none; stroke: #ff5c7d; stroke-width: 3; stroke-linecap: round"/>
     <g>
      <use xlink:href="#m1e092e7a3b" x="133.24875" y="123.473125" style="fill: #ff5c7d; stroke: #ff5c7d"/>
     </g>
    </g>
    <g id="text_19">
     <!-- 40 Sensors -->
     <g style="fill: #262626" transform="translate(180.76875 132.713125) scale(0.264 -0.264)">
      <use xlink:href="#Arial-BoldMT-34"/>
      <use xlink:href="#Arial-BoldMT-30" x="55.615234"/>
      <use xlink:href="#Arial-BoldMT-20" x="111.230469"/>
      <use xlink:href="#Arial-BoldMT-53" x="139.013672"/>
      <use xlink:href="#Arial-BoldMT-65" x="205.712891"/>
      <use xlink:href="#Arial-BoldMT-6e" x="261.328125"/>
      <use xlink:href="#Arial-BoldMT-73" x="322.412109"/>
      <use xlink:href="#Arial-BoldMT-6f" x="378.027344"/>
      <use xlink:href="#Arial-BoldMT-72" x="439.111328"/>
      <use xlink:href="#Arial-BoldMT-73" x="478.027344"/>
     </g>
    </g>
    <g id="line2d_54">
     <path d="M 106.84875 160.779625 
L 133.24875 160.779625 
L 159.64875 160.779625 
" style="fill: none; stroke: #4fa6ff; stroke-width: 3; stroke-linecap: round"/>
     <g>
      <use xlink:href="#m9460fab2c7" x="133.24875" y="160.779625" style="fill: #4fa6ff; stroke: #4fa6ff"/>
     </g>
    </g>
    <g id="text_20">
     <!-- 60 Sensors -->
     <g style="fill: #262626" transform="translate(180.76875 170.019625) scale(0.264 -0.264)">
      <use xlink:href="#Arial-BoldMT-36"/>
      <use xlink:href="#Arial-BoldMT-30" x="55.615234"/>
      <use xlink:href="#Arial-BoldMT-20" x="111.230469"/>
      <use xlink:href="#Arial-BoldMT-53" x="139.013672"/>
      <use xlink:href="#Arial-BoldMT-65" x="205.712891"/>
      <use xlink:href="#Arial-BoldMT-6e" x="261.328125"/>
      <use xlink:href="#Arial-BoldMT-73" x="322.412109"/>
      <use xlink:href="#Arial-BoldMT-6f" x="378.027344"/>
      <use xlink:href="#Arial-BoldMT-72" x="439.111328"/>
      <use xlink:href="#Arial-BoldMT-73" x="478.027344"/>
     </g>
    </g>
    <g id="line2d_55">
     <path d="M 106.84875 198.086125 
L 133.24875 198.086125 
L 159.64875 198.086125 
" style="fill: none; stroke: #b36aff; stroke-width: 3; stroke-linecap: round"/>
     <g>
      <use xlink:href="#m067f99e574" x="133.24875" y="198.086125" style="fill: #b36aff; stroke: #b36aff"/>
     </g>
    </g>
    <g id="text_21">
     <!-- 80 Sensors -->
     <g style="fill: #262626" transform="translate(180.76875 207.326125) scale(0.264 -0.264)">
      <use xlink:href="#Arial-BoldMT-38"/>
      <use xlink:href="#Arial-BoldMT-30" x="55.615234"/>
      <use xlink:href="#Arial-BoldMT-20" x="111.230469"/>
      <use xlink:href="#Arial-BoldMT-53" x="139.013672"/>
      <use xlink:href="#Arial-BoldMT-65" x="205.712891"/>
      <use xlink:href="#Arial-BoldMT-6e" x="261.328125"/>
      <use xlink:href="#Arial-BoldMT-73" x="322.412109"/>
      <use xlink:href="#Arial-BoldMT-6f" x="378.027344"/>
      <use xlink:href="#Arial-BoldMT-72" x="439.111328"/>
      <use xlink:href="#Arial-BoldMT-73" x="478.027344"/>
     </g>
    </g>
    <g id="line2d_56">
     <path d="M 106.84875 235.392625 
L 133.24875 235.392625 
L 159.64875 235.392625 
" style="fill: none; stroke: #46ddaf; stroke-width: 3; stroke-linecap: round"/>
     <g>
      <use xlink:href="#m68eac9b5cb" x="133.24875" y="235.392625" style="fill: #46ddaf; stroke: #46ddaf"/>
     </g>
    </g>
    <g id="text_22">
     <!-- 100 Sensors -->
     <g style="fill: #262626" transform="translate(180.76875 244.632625) scale(0.264 -0.264)">
      <use xlink:href="#Arial-BoldMT-31"/>
      <use xlink:href="#Arial-BoldMT-30" x="55.615234"/>
      <use xlink:href="#Arial-BoldMT-30" x="111.230469"/>
      <use xlink:href="#Arial-BoldMT-20" x="166.845703"/>
      <use xlink:href="#Arial-BoldMT-53" x="194.628906"/>
      <use xlink:href="#Arial-BoldMT-65" x="261.328125"/>
      <use xlink:href="#Arial-BoldMT-6e" x="316.943359"/>
      <use xlink:href="#Arial-BoldMT-73" x="378.027344"/>
      <use xlink:href="#Arial-BoldMT-6f" x="433.642578"/>
      <use xlink:href="#Arial-BoldMT-72" x="494.726562"/>
      <use xlink:href="#Arial-BoldMT-73" x="533.642578"/>
     </g>
    </g>
   </g>
  </g>
 </g>
 <defs>
  <clipPath id="pd17c8332b0">
   <rect x="83.08875" y="52.75" width="726.312" height="674.74"/>
  </clipPath>
 </defs>
</svg>
